<svg width="186" height="164" viewBox="0 0 186 164" fill="none" xmlns="http://www.w3.org/2000/svg">
<path d="M16.4785 52.3892C16.4785 52.3892 13.4038 43.4237 18.2743 32.9208C23.1448 22.418 35.1714 24.4723 35.1714 24.4723C35.1714 24.4723 32.3552 13.7109 45.9327 6.54124C59.5102 -0.628453 69.9995 9.09893 69.9995 9.09893C69.9995 9.09893 74.87 -1.14543 87.9305 1.92924C100.991 5.00391 107.902 10.6363 107.902 10.6363C107.902 10.6363 116.092 2.6911 129.411 6.28275C142.73 9.8744 147.084 23.4383 147.084 23.4383C147.084 23.4383 158.09 21.384 164.498 31.3835C170.906 41.383 168.593 58.2664 168.593 58.2664C168.593 58.2664 186.524 65.4361 184.47 85.1494C182.415 104.863 174.742 103.584 174.742 103.584C174.742 103.584 177.559 116.127 163.219 122.794C148.88 129.46 135.819 120.236 135.819 120.236C135.819 120.236 122.5 129.46 108.161 127.923C93.8214 126.385 85.1144 119.733 85.1144 119.733C85.1144 119.733 78.2031 127.923 65.646 126.644C53.0888 125.365 46.6946 117.937 46.6946 117.937C46.6946 117.937 28.2602 126.644 15.9615 115.121C3.66281 103.597 11.091 93.87 11.091 93.87C11.091 93.87 1.6221 91.0539 1.36361 73.6398C1.10512 56.2257 16.4785 52.3892 16.4785 52.3892Z" fill="white" style="fill:white;fill-opacity:1;"/>
<path d="M111.48 129.474C110.338 129.474 109.181 129.419 108.011 129.297C96.0797 128.018 87.9985 123.324 85.2776 121.528C82.9784 123.732 76.2032 129.106 65.4963 128.018C54.7758 126.93 48.3951 121.569 46.3544 119.583C44.681 120.263 40.8445 121.651 36.0828 122.222C27.6343 123.229 20.3422 121.134 15.0091 116.127C4.75114 106.509 7.47209 97.8154 9.14547 94.4823C6.24766 92.8497 0.207162 87.7479 0.0030913 73.667C-0.132956 64.1301 4.24777 58.4977 7.96186 55.4367C10.6148 53.2463 13.2813 52.0627 14.8186 51.4913C14.1248 48.5118 13.05 40.9476 17.0362 32.3494C21.104 23.5608 29.8655 22.8533 33.6204 22.9758C33.4299 19.3569 34.3414 11.126 45.2933 5.34403C56.7621 -0.710082 66.299 4.691 69.6457 7.09904C71.6728 4.18762 77.3868 -1.94811 88.2434 0.609577C98.9095 3.11285 105.535 7.2759 107.848 8.90847C110.406 6.89496 118.242 1.87482 129.765 4.9767C141.588 8.1602 146.635 18.595 147.995 21.9826C151.152 21.7513 160.09 21.9826 165.641 30.6488C171.396 39.628 170.457 53.5864 170.062 57.4502C173.885 59.3548 187.68 67.5177 185.83 85.299C184.864 94.6319 182.524 100.754 178.892 103.529C177.912 104.278 177.001 104.645 176.252 104.822C176.511 108.577 175.926 118.399 163.79 124.045C150.771 130.086 138.948 123.814 135.819 121.869C132.989 123.651 122.949 129.46 111.48 129.46V129.474ZM85.1143 118.386C85.4 118.386 85.6993 118.481 85.9442 118.658C86.0258 118.726 94.556 125.107 108.31 126.576C121.97 128.032 134.921 119.216 135.044 119.12C135.506 118.794 136.132 118.794 136.595 119.12C136.717 119.202 149.206 127.8 162.634 121.556C175.763 115.461 173.504 104.346 173.395 103.883C173.3 103.448 173.423 102.985 173.736 102.659C174.048 102.332 174.497 102.183 174.946 102.251C174.946 102.251 176.008 102.346 177.354 101.244C179.368 99.6112 182.007 95.4754 183.096 85.0134C185.014 66.5789 168.756 59.8038 168.062 59.5317C167.491 59.3004 167.137 58.7018 167.219 58.0896C167.246 57.9263 169.382 41.5598 163.328 32.1181C157.492 23.003 147.41 24.7716 147.315 24.7852C146.635 24.9076 145.982 24.5131 145.778 23.8601C145.737 23.7376 141.465 10.9356 129.044 7.60241C116.677 4.26925 109.14 11.3165 108.827 11.6158C108.338 12.092 107.562 12.1192 107.032 11.6974C106.964 11.643 100.161 6.21473 87.604 3.2625C75.8087 0.487135 71.4007 9.31661 71.2103 9.69754C71.0198 10.0921 70.6661 10.3642 70.2307 10.4458C69.809 10.5274 69.3736 10.405 69.0471 10.1057C68.6526 9.73835 59.0612 1.14016 46.5313 7.75206C34.0557 14.3368 36.4366 24.0369 36.4502 24.1322C36.5726 24.5811 36.4502 25.0573 36.1373 25.3974C35.8244 25.7375 35.3618 25.9008 34.8992 25.8192C34.4503 25.7511 23.825 24.0914 19.4579 33.5058C14.8731 43.3965 17.6892 51.8722 17.7165 51.9538C17.8389 52.3076 17.8117 52.7157 17.6212 53.0422C17.4444 53.3823 17.1315 53.6136 16.7641 53.7089C16.1791 53.8585 2.45194 57.5318 2.68322 73.6262C2.9145 89.6934 11.1046 92.4688 11.4583 92.5776C11.88 92.7136 12.2201 93.0402 12.3562 93.4619C12.4922 93.8836 12.4106 94.3462 12.1521 94.6999C11.88 95.0536 5.67627 103.638 16.873 114.141C28.3281 124.889 45.9191 116.808 46.0959 116.726C46.6537 116.468 47.3068 116.604 47.7013 117.066C47.7557 117.134 53.9459 124.1 65.7548 125.311C77.4549 126.508 83.9715 118.944 84.0395 118.876C84.3116 118.563 84.6926 118.399 85.0735 118.399L85.1143 118.386Z" fill="black" style="fill:black;fill-opacity:1;"/>
<path d="M97.1409 144.072C97.1409 144.072 97.6578 134.603 109.684 136.126C121.711 137.65 115.317 147.908 111.222 149.704C107.127 151.5 99.1816 150.724 97.1409 144.072Z" fill="white" style="fill:white;fill-opacity:1;"/>
<path d="M106.841 151.894C105.059 151.894 103.154 151.554 101.372 150.738C98.6238 149.486 96.7192 147.309 95.8485 144.466C95.8077 144.316 95.7805 144.153 95.7941 143.99C95.7941 143.827 96.0526 139.84 99.3585 137.092C101.889 134.984 105.426 134.208 109.875 134.779C115.956 135.555 117.616 138.412 117.943 140.684C118.555 144.969 114.637 149.704 111.78 150.956C110.474 151.527 108.732 151.894 106.841 151.894ZM98.5286 143.935C99.2088 145.922 100.542 147.377 102.515 148.275C105.399 149.595 108.773 149.296 110.691 148.466C112.732 147.568 115.643 143.827 115.249 141.078C114.909 138.67 111.943 137.8 109.521 137.487C105.862 137.024 103.032 137.582 101.114 139.174C99.1 140.834 98.6238 143.201 98.5286 143.935Z" fill="black" style="fill:black;fill-opacity:1;"/>
<path d="M124.541 153.799C124.541 153.799 125.82 147.908 130.949 148.425C136.078 148.942 135.561 156.615 131.466 158.411C127.371 160.207 124.554 153.799 124.554 153.799H124.541Z" fill="white" style="fill:white;fill-opacity:1;"/>
<path d="M129.983 160.112C126.772 160.112 124.35 156.724 123.303 154.357C123.194 154.098 123.153 153.799 123.221 153.513C123.752 151.064 126.064 146.561 131.085 147.065C133.697 147.323 135.506 149.092 135.928 151.785C136.363 154.574 135.139 158.275 131.996 159.649C131.289 159.962 130.608 160.098 129.969 160.098L129.983 160.112ZM125.996 153.663C126.622 154.86 128.595 158.18 130.921 157.159C132.717 156.37 133.533 153.976 133.248 152.207C133.084 151.187 132.54 149.949 130.813 149.772C127.629 149.459 126.364 152.506 125.996 153.663Z" fill="black" style="fill:black;fill-opacity:1;"/>
<path d="M144.268 161.744C144.268 161.744 144.009 156.629 146.567 156.874C149.125 157.118 152.199 157.132 151.682 159.69C151.165 162.247 148.349 163.023 144.254 161.744H144.268Z" fill="white" style="fill:white;fill-opacity:1;"/>
<path d="M147.764 163.717C146.608 163.717 145.288 163.499 143.86 163.05C143.315 162.887 142.934 162.384 142.907 161.826C142.88 161.173 142.798 157.853 144.404 156.316C145.03 155.717 145.819 155.445 146.703 155.54L147.424 155.608C149.41 155.785 151.465 155.962 152.526 157.377C152.893 157.867 153.274 158.71 153.016 159.975C152.757 161.268 152.036 162.302 150.948 162.955C150.077 163.472 149.002 163.73 147.751 163.73L147.764 163.717ZM145.628 160.71C147.342 161.118 148.744 161.077 149.56 160.601C149.995 160.343 150.24 159.975 150.349 159.431C150.39 159.227 150.39 159.05 150.349 158.996C150.023 158.561 148.24 158.397 147.179 158.302L146.431 158.234C146.336 158.234 146.322 158.234 146.281 158.275C145.928 158.601 145.696 159.676 145.628 160.71Z" fill="black" style="fill:black;fill-opacity:1;"/>
</svg>
