<svg width="325" height="170" viewBox="0 0 325 170" fill="none" xmlns="http://www.w3.org/2000/svg">
<path d="M11.2957 72.7107C11.2957 72.7107 24.2559 57.3593 28.8895 47.9034C33.5232 38.4476 36.2046 31.5811 36.2046 31.5811C36.2046 31.5811 42.1789 28.6448 60.102 23.4198C78.0251 18.1948 87.6687 13.964 91.6438 12.6461C95.6188 11.3283 110.908 14.6113 126.831 14.935C142.755 15.2586 152.399 11.6751 152.399 11.6751C152.399 11.6751 164.677 10.0336 180.624 11.9988C196.571 13.964 208.52 12.3224 208.52 12.3224C208.52 12.3224 218.493 8.41524 235.428 11.6751C252.363 14.9349 266.97 18.5185 266.97 18.5185C266.97 18.5185 275.273 26.6797 284.564 29.9395C293.855 33.1994 306.485 37.7771 306.485 37.7771C306.485 37.7771 307.144 45.9383 312.46 58.0067C317.775 70.0751 318.105 72.6876 318.105 72.6876C318.105 72.6876 312.13 84.1086 312.13 102.073C312.13 102.073 303.169 115.135 300.511 134.394C300.511 134.394 284.234 136.682 267.299 144.844C267.299 144.844 224.138 146.809 214.494 155.941C214.494 155.941 172.321 162.461 152.728 160.842C152.728 160.842 110.225 149.098 96.2774 154.323C96.2774 154.323 57.4206 145.514 42.4847 139.965C42.4847 139.965 20.5631 113.517 10.9429 107.321C10.9429 107.321 15.9294 86.7674 11.2723 72.7338L11.2957 72.7107Z" fill="white" style="fill:white;fill-opacity:1;"/>
<path d="M150.87 22.0329C149.576 22.0329 148.518 20.9925 148.518 19.721V2.31195C148.518 1.04038 149.576 0 150.87 0C152.163 0 153.222 1.04038 153.222 2.31195V19.721C153.222 20.9925 152.163 22.0329 150.87 22.0329Z" fill="black" style="fill:black;fill-opacity:1;"/>
<path d="M203.981 22.0328C203.628 22.0328 203.275 21.9635 202.922 21.7785C201.77 21.2005 201.299 19.8133 201.864 18.6805L209.837 3.00544C210.425 1.87258 211.837 1.41016 212.989 1.96503C214.142 2.54302 214.612 3.93025 214.048 5.06311L206.074 20.7382C205.651 21.5473 204.827 22.0097 203.957 22.0097L203.981 22.0328Z" fill="black" style="fill:black;fill-opacity:1;"/>
<path d="M260.666 31.6276C260.337 31.6276 259.984 31.5582 259.655 31.3963C258.479 30.8415 257.985 29.4775 258.549 28.3215L267.393 10.0339C267.958 8.87793 269.345 8.39242 270.521 8.94729C271.698 9.50216 272.192 10.8662 271.627 12.0222L262.783 30.3097C262.383 31.142 261.536 31.6276 260.666 31.6276Z" fill="black" style="fill:black;fill-opacity:1;"/>
<path d="M292.537 46.4248C291.667 46.4248 290.82 45.9392 290.42 45.1069C289.856 43.951 290.35 42.5638 291.526 42.0321L313.659 31.5821C314.835 31.0272 316.247 31.5126 316.788 32.6686C317.352 33.8246 316.858 35.2118 315.682 35.7436L293.549 46.1936C293.219 46.3554 292.867 46.4248 292.537 46.4248Z" fill="black" style="fill:black;fill-opacity:1;"/>
<path d="M322.644 76.0156C322.644 76.0156 322.574 76.0156 322.527 76.0156L304.815 75.1371C303.522 75.0677 302.51 73.9811 302.581 72.7095C302.651 71.4379 303.78 70.4438 305.051 70.5132L322.762 71.3917C324.056 71.461 325.067 72.5477 324.997 73.8193C324.926 75.0446 323.891 76.0156 322.644 76.0156Z" fill="black" style="fill:black;fill-opacity:1;"/>
<path d="M322.644 106.466C322.644 106.466 322.456 106.466 322.362 106.466L300.229 103.853C298.935 103.691 298.018 102.559 298.182 101.287C298.347 100.015 299.5 99.1138 300.793 99.2756L322.927 101.888C324.22 102.05 325.138 103.183 324.973 104.454C324.832 105.633 323.82 106.489 322.644 106.489V106.466Z" fill="black" style="fill:black;fill-opacity:1;"/>
<path d="M311.143 142.162C310.672 142.162 310.178 142.023 309.778 141.723L293.831 130.417C292.773 129.678 292.537 128.221 293.29 127.181C294.043 126.14 295.525 125.909 296.583 126.649L312.53 137.954C313.589 138.694 313.824 140.151 313.071 141.191C312.601 141.815 311.895 142.139 311.166 142.139L311.143 142.162Z" fill="black" style="fill:black;fill-opacity:1;"/>
<path d="M273.062 154.346C272.309 154.346 271.557 153.976 271.11 153.306L258.714 135.018C257.985 133.955 258.291 132.521 259.373 131.805C260.455 131.088 261.913 131.389 262.642 132.452L275.038 150.74C275.767 151.803 275.461 153.237 274.379 153.953C273.979 154.208 273.532 154.346 273.086 154.346H273.062Z" fill="black" style="fill:black;fill-opacity:1;"/>
<path d="M219.928 166.53C219.034 166.53 218.164 166.021 217.787 165.166L209.814 147.757C209.273 146.601 209.814 145.213 210.99 144.705C212.166 144.196 213.553 144.705 214.094 145.861L222.068 163.27C222.609 164.426 222.068 165.813 220.892 166.322C220.586 166.46 220.257 166.53 219.928 166.53Z" fill="black" style="fill:black;fill-opacity:1;"/>
<path d="M155.292 169.142C154.092 169.142 153.081 168.263 152.963 167.061L151.199 150.531C151.058 149.259 151.999 148.126 153.293 147.987C154.563 147.849 155.739 148.774 155.88 150.045L157.644 166.576C157.785 167.847 156.844 168.98 155.551 169.119C155.456 169.119 155.386 169.119 155.292 169.119V169.142Z" fill="black" style="fill:black;fill-opacity:1;"/>
<path d="M94.1841 163.039C93.9254 163.039 93.6431 162.993 93.3844 162.9C92.1613 162.461 91.5262 161.143 91.9496 159.941L96.3716 147.757C96.8185 146.555 98.1592 145.93 99.3823 146.347C100.605 146.786 101.24 148.104 100.817 149.306L96.3951 161.49C96.0423 162.438 95.1485 163.016 94.1841 163.016V163.039Z" fill="black" style="fill:black;fill-opacity:1;"/>
<path d="M35.7577 148.243C35.0991 148.243 34.4169 147.966 33.9465 147.411C33.0997 146.44 33.2409 144.983 34.2287 144.151L51.0464 130.233C52.0343 129.401 53.516 129.539 54.3628 130.51C55.2095 131.481 55.0684 132.938 54.0805 133.77L37.263 147.688C36.8161 148.058 36.2751 148.22 35.7577 148.22V148.243Z" fill="black" style="fill:black;fill-opacity:1;"/>
<path d="M6.52109 110.812C5.4156 110.812 4.45128 110.049 4.21607 108.962C3.95734 107.714 4.78057 106.488 6.05071 106.234L23.7621 102.743C25.0322 102.489 26.2788 103.298 26.5375 104.546C26.7963 105.795 25.973 107.02 24.7029 107.274L6.99154 110.766C6.82689 110.789 6.68574 110.812 6.52109 110.812Z" fill="black" style="fill:black;fill-opacity:1;"/>
<path d="M21.5746 76.8727C21.5746 76.8727 21.3629 76.8727 21.2453 76.8496L2.6401 74.237C1.34644 74.0521 0.452626 72.8961 0.640795 71.6245C0.828964 70.353 2.00503 69.4744 3.29869 69.6594L21.9039 72.2719C23.1975 72.4568 24.0913 73.6128 23.9032 74.8844C23.7385 76.0404 22.7271 76.8727 21.5746 76.8727Z" fill="black" style="fill:black;fill-opacity:1;"/>
<path d="M44.6017 38.5867C44.2489 38.5867 43.8961 38.5173 43.5433 38.3323L31.1476 32.2288C29.9951 31.6508 29.5247 30.2636 30.0892 29.1307C30.6773 27.9979 32.0885 27.5124 33.2411 28.0904L45.6366 34.1939C46.7892 34.7719 47.2596 36.1591 46.6951 37.2919C46.2717 38.1011 45.4485 38.5636 44.5782 38.5636L44.6017 38.5867Z" fill="black" style="fill:black;fill-opacity:1;"/>
<path d="M94.184 22.9113C93.008 22.9113 91.9965 22.0559 91.8554 20.8768L90.0913 6.95875C89.9267 5.68718 90.8441 4.53121 92.1377 4.36937C93.4079 4.20754 94.6074 5.10919 94.7721 6.38076L96.5361 20.2988C96.7008 21.5703 95.7835 22.7263 94.4898 22.8881C94.3957 22.8881 94.3016 22.8881 94.184 22.8881V22.9113Z" fill="black" style="fill:black;fill-opacity:1;"/>
<path d="M102.85 91.8286H81.7229C79.7443 91.8286 78.4677 90.6158 78.4677 88.2542C78.4677 85.8926 79.7443 84.6799 81.7229 84.6799H128.381C130.359 84.6799 131.636 85.8926 131.636 88.2542C131.636 90.6158 130.359 91.8286 128.381 91.8286H110.637V99.0411C110.637 100.956 109.296 102.232 106.743 102.232C104.19 102.232 102.85 100.956 102.85 99.0411V91.8286ZM85.6164 72.8718V60.9361C85.6164 59.0213 87.0206 57.7447 89.5737 57.7447C92.1268 57.7447 93.531 59.0213 93.531 60.9361V70.574C93.531 71.7868 94.1693 72.2336 95.5096 72.2336H122.955C124.934 72.2336 126.211 73.3186 126.211 75.9355C126.211 78.5525 124.934 79.6375 122.955 79.6375H93.3395C88.8716 79.6375 85.6164 77.9142 85.6164 72.8718ZM85.2973 107.339V99.2325C85.2973 97.3177 86.6376 96.0412 89.1907 96.0412C91.7438 96.0412 93.0842 97.3177 93.0842 99.2325V104.594C93.0842 105.934 93.4672 106.892 95.0629 106.892H123.338C125.317 106.892 126.594 107.849 126.594 110.466C126.594 113.083 125.317 114.04 123.338 114.04H93.0842C88.7439 114.04 85.2973 112.445 85.2973 107.339ZM175.511 72.3612H155.724C153.745 72.3612 152.469 71.34 152.469 68.723C152.469 66.1061 153.745 65.1487 155.724 65.1487H175.511V61.9573C175.511 60.0425 176.851 58.766 179.404 58.766C181.957 58.766 183.297 60.0425 183.297 61.9573V82.063C183.297 84.1054 181.957 85.5097 179.532 85.5097H152.852C146.278 85.5097 143.469 81.7438 143.469 77.2759V62.1488C143.469 59.9787 144.873 58.766 147.426 58.766C149.916 58.766 151.256 59.9787 151.256 62.1488V75.1058C151.256 77.2121 151.831 78.0418 154.065 78.0418H175.511V72.3612ZM159.809 98.2751H140.15C138.171 98.2751 136.895 96.8709 136.895 94.5093C136.895 92.1477 138.171 90.7435 140.15 90.7435H186.808C188.787 90.7435 190.063 92.1477 190.063 94.5093C190.063 96.8709 188.787 98.2751 186.808 98.2751H167.851V111.807C167.851 113.721 166.383 114.998 163.83 114.998C161.277 114.998 159.809 113.721 159.809 111.807V98.2751ZM237.895 65.5317V59.3404C237.895 57.4256 239.172 56.1491 241.725 56.1491C244.278 56.1491 245.554 57.4256 245.554 59.3404V106.892C245.554 108.807 244.278 110.083 241.725 110.083C239.172 110.083 237.895 108.807 237.895 106.892V85.1267H230.683C228.704 85.1267 227.427 83.9778 227.427 81.3609C227.427 78.7439 228.704 77.5951 230.683 77.5951H237.895V73.0633H230.683C228.704 73.0633 227.427 71.9144 227.427 69.2975C227.427 66.6806 228.704 65.5317 230.683 65.5317H237.895ZM201.96 97.573C200.875 98.4666 200.428 98.8496 198.96 98.8496C196.854 98.8496 194.62 96.9986 194.62 94.7008C194.62 93.8072 194.875 92.8498 195.833 91.9562C203.684 85.0629 208.726 74.7866 210.066 63.2339C210.322 60.9999 211.726 60.0425 213.641 60.0425C216.704 60.0425 218.109 61.4467 218.045 64.1913C216.96 78.9354 209.3 91.3179 201.96 97.573ZM215.492 84.2969C215.172 83.8501 214.79 83.0842 214.79 82.3821C214.79 80.1482 216.258 78.0418 218.747 78.0418C219.704 78.0418 220.725 78.2972 221.428 78.9993C224.619 81.9353 228.768 87.4883 230.746 91.1265C231.448 92.403 231.576 93.1689 231.576 94.1263C231.576 96.9986 229.023 98.1475 227.044 98.1475C225.576 98.1475 224.81 97.6369 224.044 96.488C221.172 92.1477 219.066 89.084 215.492 84.2969Z" fill="black" style="fill:black;fill-opacity:1;"/>
</svg>
