<svg width="155" height="88" viewBox="0 0 155 88" fill="none" xmlns="http://www.w3.org/2000/svg">
<path d="M77.5 86.2033C119.628 86.2033 153.779 67.1793 153.779 43.712C153.779 20.2447 119.628 1.22066 77.5 1.22066C35.3721 1.22066 1.22066 20.2447 1.22066 43.712C1.22066 67.1793 35.3721 86.2033 77.5 86.2033Z" fill="#FFC6AA" style="fill:#FFC6AA;fill:color(display-p3 1.0000 0.7765 0.6667);fill-opacity:1;"/>
<path d="M77.5 87.424C34.7645 87.424 0 67.8201 0 43.712C0 19.6039 34.7645 0 77.5 0C120.235 0 155 19.6039 155 43.712C155 67.8201 120.235 87.424 77.5 87.424ZM77.5 2.44133C36.1195 2.44133 2.44133 20.9588 2.44133 43.712C2.44133 66.4652 36.1073 84.9827 77.5 84.9827C118.893 84.9827 152.559 66.4652 152.559 43.712C152.559 20.9588 118.893 2.44133 77.5 2.44133Z" fill="black" style="fill:black;fill-opacity:1;"/>
</svg>
