<svg width="259" height="228" viewBox="0 0 259 228" fill="none" xmlns="http://www.w3.org/2000/svg">
<path d="M120.4 26.6265C120.4 26.6265 135.08 -6.12349 167.27 6.29651C199.46 18.7165 186.47 39.0465 186.47 39.0465C186.47 39.0465 216.96 20.4065 229.95 43.5665C242.94 66.7265 231.64 80.2765 231.64 80.2765C231.64 80.2765 257.62 86.4865 255.36 115.287C253.1 144.087 241.81 144.647 241.81 144.647C241.81 144.647 250.28 174.577 236.73 186.437C223.18 198.297 207.37 198.857 200.59 196.597C200.59 196.597 197.77 220.317 173.48 223.707C149.2 227.097 136.77 200.557 136.77 200.557C136.77 200.557 135.08 224.277 111.36 222.577C87.6397 220.887 80.8697 195.467 80.8697 195.467C80.8697 195.467 56.0197 206.197 39.0797 192.647C22.1397 179.097 29.4798 162.717 29.4798 162.717C29.4798 162.717 8.01973 158.767 4.06973 137.307C0.119734 115.847 18.1897 100.037 18.1897 100.037C18.1897 100.037 4.63974 70.1065 21.5797 51.4765C38.5197 32.8365 54.8997 41.8765 54.8997 41.8765C54.8997 41.8765 59.4197 18.1565 84.8297 14.2065C110.24 10.2565 120.41 26.6265 120.41 26.6265H120.4Z" fill="white" style="fill:white;fill-opacity:1;"/>
<path d="M169.14 227.517C153.91 227.517 143.64 217.127 138.21 209.607C134.81 218.207 126.84 227.187 111.12 226.077C90.6397 224.617 81.7097 207.617 78.7197 199.997C70.8297 202.577 51.4897 207.066 36.8997 195.387C24.2797 185.286 23.3097 172.767 25.0397 165.127C18.1197 162.817 3.94971 155.957 0.629712 137.947C-2.89029 118.817 9.27971 104.097 14.0597 99.1665C12.8997 96.0865 10.9697 90.2265 10.0597 83.1965C8.2597 69.3065 11.3497 57.5265 18.9897 49.1265C32.4697 34.2965 46.0797 35.5065 52.6097 37.3265C55.2697 29.8665 63.3097 14.0165 84.2897 10.7565C103.34 7.79653 114.57 15.3765 119.81 20.5265C121.82 17.3365 125.02 13.0265 129.49 9.16651C137.24 2.48651 150.29 -3.99349 168.54 3.04651C181.07 7.88651 188.8 14.5365 191.52 22.8365C192.65 26.2865 192.74 29.5365 192.37 32.2965C198.85 29.6765 208.45 27.0365 217.39 29.3765C224.09 31.1265 229.34 35.3265 233.01 41.8665C242.89 59.4765 239.75 72.1565 236.86 78.3265C247.01 82.5165 260.56 93.7965 258.85 115.567C257.17 137.027 250.42 144.357 245.95 146.857C247.81 155.286 251.44 178.217 239.03 189.077C226.45 200.087 212.04 202.137 203.24 200.807C201.18 208.257 194.41 224.327 173.96 227.187C172.3 227.417 170.69 227.526 169.13 227.526L169.14 227.517ZM136.78 197.067C138.12 197.067 139.36 197.837 139.95 199.077C139.98 199.137 142.96 205.377 148.66 211.087C155.96 218.397 164.15 221.487 173.01 220.247C194.24 217.287 197.02 197.047 197.12 196.187C197.25 195.147 197.84 194.217 198.73 193.657C199.62 193.097 200.71 192.957 201.7 193.297C207.83 195.337 222.14 194.577 234.43 183.817C240.35 178.637 241.2 168.767 240.87 161.397C240.49 152.917 238.47 145.677 238.45 145.607C238.14 144.517 238.2 143.357 238.91 142.477C239.59 141.617 240.46 141.117 241.56 141.157C242.42 140.937 250.06 138.287 251.89 115.017C253.89 89.4965 231.79 83.9065 230.85 83.6865C229.67 83.4065 228.72 82.5365 228.34 81.3865C227.96 80.2365 228.2 78.9765 228.97 78.0465C229.34 77.5765 238.45 65.8565 226.91 45.2965C224.17 40.4165 220.49 37.4265 215.65 36.1565C203.47 32.9565 188.45 41.9565 188.3 42.0565C186.91 42.8965 185.12 42.6765 183.98 41.5165C182.84 40.3565 182.65 38.5565 183.53 37.1865C183.66 36.9765 187.02 31.4465 184.84 24.9365C182.77 18.7665 176.44 13.6065 166.02 9.57651C137.37 -1.47349 124.15 26.8665 123.6 28.0765C123.07 29.2565 121.93 30.0465 120.64 30.1265C119.35 30.2165 118.13 29.5865 117.45 28.4965C117.37 28.3665 115.02 24.7965 109.99 21.7165C103.19 17.5465 94.8997 16.1865 85.3697 17.6665C62.6597 21.1965 58.3797 42.3165 58.3397 42.5365C58.1297 43.6365 57.3997 44.5765 56.3897 45.0465C55.3797 45.5265 54.1897 45.4865 53.2097 44.9465C52.6497 44.6465 38.9198 37.6065 24.1698 53.8365C8.94975 70.5765 21.2497 98.3265 21.3797 98.6065C22.0197 100.017 21.6597 101.667 20.4997 102.687C20.3397 102.827 3.98973 117.507 7.51973 136.687C10.9697 155.437 29.3497 159.147 30.1297 159.297C31.1797 159.497 32.0897 160.167 32.5797 161.117C33.0697 162.067 33.1097 163.187 32.6698 164.167C32.4297 164.717 26.7497 178.327 41.2597 189.927C56.3197 201.977 79.2497 192.367 79.4798 192.267C80.4098 191.867 81.4797 191.887 82.3897 192.337C83.2997 192.777 83.9797 193.597 84.2397 194.577C84.4897 195.507 90.7197 217.596 111.6 219.096C119.93 219.697 126.05 216.837 129.83 210.617C132.83 205.677 133.27 200.357 133.28 200.307C133.4 198.727 134.58 197.417 136.14 197.127C136.35 197.087 136.56 197.067 136.77 197.067H136.78Z" fill="#28C740" style="fill:#28C740;fill:color(display-p3 0.1569 0.7804 0.2510);fill-opacity:1;"/>
<path d="M170.11 102.837C170.11 102.837 188.46 98.0365 189.03 96.3465C189.6 94.6565 213.59 73.7565 216.14 86.4665C218.69 99.1765 211.62 99.1765 211.62 99.1765C211.62 99.1765 221.78 98.8965 220.09 105.957C218.4 113.017 205.41 119.227 197.78 114.707C190.15 110.187 160.23 119.507 160.23 119.507L170.11 102.847V102.837Z" fill="white" style="fill:white;fill-opacity:1;"/>
<path d="M160.23 122.997C159.18 122.997 158.16 122.517 157.48 121.667C156.58 120.527 156.48 118.957 157.22 117.707L167.1 101.047C167.57 100.257 168.33 99.6765 169.22 99.4465C176.23 97.6165 184.66 95.0465 186.48 93.9765C190.01 89.4965 204.05 78.4065 212.12 78.8965C216.03 79.1365 218.74 81.6465 219.56 85.7665C220.51 90.4965 220.36 94.3365 219.13 97.2265C220.22 97.7865 221.25 98.5365 222.08 99.5465C223.19 100.907 224.33 103.267 223.49 106.757C222.42 111.207 218.21 115.477 212.5 117.887C206.58 120.387 200.41 120.317 195.99 117.697C192.11 115.397 174.94 118.567 161.26 122.827C160.92 122.937 160.57 122.987 160.22 122.987L160.23 122.997ZM172.39 105.857L167.71 113.747C177.87 111.127 193.42 108.047 199.56 111.687C202.04 113.157 205.95 113.067 209.77 111.447C213.3 109.957 216.14 107.357 216.68 105.127C216.82 104.557 216.8 104.167 216.64 103.967C215.99 103.167 213.57 102.647 211.76 102.667C211.71 102.667 211.66 102.667 211.61 102.667C209.7 102.667 208.14 101.127 208.11 99.2165C208.08 97.3165 209.58 95.7465 211.47 95.6665C211.59 95.6465 212.01 95.5465 212.37 95.0465C212.82 94.4265 213.75 92.4265 212.69 87.1465C212.47 86.0365 212.16 85.9665 212 85.9365C207.73 84.9365 194.81 94.7765 192.16 97.9565C191.49 99.5065 189.34 101.357 172.38 105.857H172.39ZM211.57 95.6665C211.57 95.6665 211.52 95.6665 211.48 95.6665C211.52 95.6665 211.56 95.6665 211.6 95.6665C211.6 95.6665 211.58 95.6665 211.56 95.6665H211.57ZM186.41 94.0865C186.21 94.2865 185.91 94.6665 185.71 95.2365C185.81 94.9465 186.05 94.5565 186.41 94.0865Z" fill="black" style="fill:black;fill-opacity:1;"/>
<path d="M156.84 120.347L185.36 127.687C185.36 127.687 202.87 124.017 206.82 126.557C210.77 129.097 214.16 137.007 209.08 139.827C204 142.647 204.84 145.187 202.87 149.147C200.9 153.107 189.03 162.137 181.98 154.507C174.93 146.877 172.66 143.217 172.66 143.217L150.07 137.287L156.85 120.347H156.84Z" fill="white" style="fill:white;fill-opacity:1;"/>
<path d="M188.68 160.977C185.07 160.977 181.89 159.586 179.4 156.886C174.41 151.506 171.72 147.976 170.5 146.266L149.18 140.666C148.21 140.416 147.39 139.756 146.94 138.856C146.49 137.956 146.44 136.917 146.82 135.977L153.6 119.037C154.25 117.407 156.02 116.507 157.72 116.947L185.45 124.087C191.53 122.857 204.26 120.746 208.71 123.606C212.51 126.056 215.28 131.206 215.13 135.606C215.03 138.796 213.48 141.377 210.77 142.877C208.35 144.217 208.09 145.007 207.4 147.127C207.08 148.107 206.67 149.336 205.99 150.706C204.24 154.206 197.83 159.817 190.8 160.817C190.08 160.917 189.37 160.967 188.68 160.967V160.977ZM154.79 134.907L173.54 139.826C174.41 140.056 175.16 140.607 175.63 141.377C175.65 141.397 177.89 144.947 184.54 152.127C185.94 153.637 187.61 154.196 189.82 153.886C194.35 153.236 198.93 149.186 199.74 147.576C200.19 146.666 200.47 145.837 200.76 144.947C201.61 142.367 202.57 139.436 207.38 136.766C207.75 136.556 208.11 136.286 208.14 135.386C208.21 133.276 206.47 130.497 204.93 129.497C203.19 128.637 194.36 129.376 186.08 131.106C185.55 131.216 185.01 131.207 184.49 131.067L158.95 124.497L154.79 134.907Z" fill="black" style="fill:black;fill-opacity:1;"/>
<path d="M100.09 120.347L74.96 110.747C74.96 110.747 54.35 118.937 50.96 111.027C47.57 103.117 56.04 96.6265 56.04 96.6265C56.04 96.6265 50.39 84.2065 63.1 82.7865C75.81 81.3665 78.9099 89.2765 81.7399 94.0765C84.5699 98.8765 102.92 100.287 102.92 100.287L100.1 120.337L100.09 120.347Z" fill="white" style="fill:white;fill-opacity:1;"/>
<path d="M100.09 123.847C99.6699 123.847 99.2399 123.767 98.8399 123.617L74.9598 114.497C69.0798 116.667 51.8698 122.047 47.7398 112.407C45.8698 108.057 46.4099 103.397 49.2899 98.9565C50.1799 97.5865 51.1499 96.4565 51.9799 95.6065C51.2399 92.9665 50.6299 88.7065 52.7199 85.0165C53.9899 82.7765 56.7598 79.9765 62.7098 79.3165C76.5698 77.7765 81.2298 86.0665 84.0098 91.0265C84.2598 91.4765 84.5098 91.9065 84.7498 92.3165C85.9498 94.0165 94.7398 96.1665 103.18 96.8165C104.14 96.8865 105.03 97.3565 105.64 98.1165C106.25 98.8665 106.51 99.8365 106.38 100.797L103.56 120.847C103.41 121.897 102.79 122.827 101.87 123.377C101.32 123.697 100.71 123.867 100.09 123.867V123.847ZM74.9598 107.247C75.3798 107.247 75.8098 107.327 76.2098 107.477L97.2398 115.507L98.9398 103.427C91.9998 102.627 81.5299 100.636 78.7199 95.8565C78.4599 95.4065 78.1899 94.9265 77.9099 94.4365C75.2599 89.7065 72.7398 85.2365 63.4898 86.2665C61.0598 86.5365 59.4898 87.2765 58.8098 88.4665C57.5998 90.5965 58.8299 94.2965 59.2299 95.1765C59.8999 96.6565 59.4699 98.4065 58.1699 99.4065C57.9199 99.5965 51.9099 104.377 54.1699 109.647C55.3199 112.337 65.5899 110.697 73.6599 107.487C74.0799 107.327 74.5098 107.237 74.9498 107.237L74.9598 107.247Z" fill="black" style="fill:black;fill-opacity:1;"/>
<path d="M103.48 135.877L77.4998 142.367C77.4998 142.367 71.0097 159.027 59.4297 156.487C47.8497 153.947 50.3898 146.887 51.5198 143.217C51.5198 143.217 40.2297 140.397 43.6097 133.337C46.9897 126.277 55.7498 119.497 64.4998 122.887C73.2498 126.277 74.6598 127.407 74.6598 127.407L102.9 118.087L103.46 135.877H103.48Z" fill="white" style="fill:white;fill-opacity:1;"/>
<path d="M61.8997 160.257C60.8697 160.257 59.7997 160.147 58.6797 159.897C53.5997 158.777 50.1197 156.657 48.3297 153.587C46.6997 150.787 46.8197 147.797 47.2997 145.407C44.8297 144.317 41.6997 142.396 40.2697 139.356C39.4997 137.706 38.8997 135.067 40.4597 131.807C44.8397 122.687 55.5097 115.636 65.7697 119.606C69.9397 121.216 73.1097 122.576 75.0497 123.576L101.8 114.747C102.85 114.397 104 114.567 104.9 115.207C105.8 115.837 106.36 116.857 106.39 117.967L106.96 135.757C107.01 137.407 105.91 138.866 104.31 139.266L79.9897 145.347C77.9597 149.617 71.8897 160.257 61.8797 160.257H61.8997ZM59.7297 125.486C53.9797 125.486 48.8197 130.577 46.7697 134.847C46.3197 135.787 46.5097 136.196 46.5997 136.386C47.3097 137.896 50.4697 139.326 52.3797 139.826C53.3097 140.066 54.0997 140.677 54.5697 141.507C55.0397 142.337 55.1497 143.337 54.8697 144.247L54.7697 144.567C54.2097 146.367 53.5197 148.597 54.3797 150.087C55.1297 151.377 57.1297 152.406 60.1797 153.076C68.6997 154.946 74.1897 141.237 74.2397 141.097C74.6497 140.047 75.5497 139.257 76.6497 138.977L99.8897 133.166L99.5597 122.877L75.7697 130.727C74.5497 131.127 73.4697 131.067 72.5397 130.197C72.0897 129.927 69.9597 128.757 63.2397 126.157C62.0597 125.697 60.8797 125.497 59.7197 125.497L59.7297 125.486Z" fill="black" style="fill:black;fill-opacity:1;"/>
<path d="M91.8797 54.2265L83.6897 66.9365L48.9597 41.8065L91.8797 54.2265Z" fill="#F90400" style="fill:#F90400;fill:color(display-p3 0.9765 0.0157 0.0000);fill-opacity:1;"/>
<path d="M194.09 53.6665L195.5 66.3665L238.98 49.4265L194.09 53.6665Z" fill="#F90400" style="fill:#F90400;fill:color(display-p3 0.9765 0.0157 0.0000);fill-opacity:1;"/>
<path d="M142.7 168.297L154.28 163.217L166.98 192.297L142.7 168.297Z" fill="#F90400" style="fill:#F90400;fill:color(display-p3 0.9765 0.0157 0.0000);fill-opacity:1;"/>
<path d="M113.9 169.147L115.59 211.497L128.86 169.147H113.9Z" fill="#F90400" style="fill:#F90400;fill:color(display-p3 0.9765 0.0157 0.0000);fill-opacity:1;"/>
<path d="M86.5096 163.217L63.6396 200.767L97.2396 167.737L86.5096 163.217Z" fill="#F90400" style="fill:#F90400;fill:color(display-p3 0.9765 0.0157 0.0000);fill-opacity:1;"/>
<path d="M99.4996 102.507C101.76 112.107 102.32 131.867 102.89 138.647C103.46 145.427 106.84 148.247 113.34 150.507C119.84 152.767 144.12 148.247 149.76 143.727C155.4 139.207 161.05 118.317 163.31 116.907C165.57 115.497 171.5 95.4465 171.5 95.4465C171.5 95.4465 190.7 52.8065 146.94 51.3965C103.18 49.9865 98.6597 84.1465 98.6597 84.1465L99.5096 102.497L99.4996 102.507Z" fill="white" style="fill:white;fill-opacity:1;"/>
<path d="M118.46 154.567C115.86 154.567 113.67 154.337 112.19 153.817C106.01 151.667 100.19 148.377 99.3997 138.947C99.2597 137.237 99.1196 134.757 98.9496 131.877C98.4596 123.267 97.7197 110.267 96.0897 103.317C96.0397 103.107 96.0096 102.897 95.9996 102.677L95.1497 84.3265C95.1497 84.1165 95.1496 83.9065 95.1796 83.7065C95.2296 83.3365 100.44 47.8665 144.33 47.8665C145.22 47.8665 146.12 47.8765 147.05 47.9065C160.7 48.3465 170.19 52.6765 175.23 60.7565C183.86 74.5965 175.86 94.1765 174.79 96.6565C169.28 115.247 166.79 118.617 165.59 119.587C164.93 120.627 163.57 124.087 162.46 126.907C158.84 136.127 155.76 143.417 151.94 146.467C146.68 150.677 129.09 154.567 118.45 154.567H118.46ZM102.98 102.027C104.7 109.627 105.45 122.747 105.94 131.477C106.1 134.307 106.24 136.747 106.37 138.357C106.77 143.167 108.59 145.157 114.48 147.197C119.92 149.087 142.81 144.797 147.57 140.997C150.24 138.867 153.81 129.767 155.95 124.337C158.44 118.007 159.5 115.457 161.06 114.217C162.41 112.257 165.75 102.567 168.14 94.4565C168.18 94.3065 168.24 94.1565 168.31 94.0165C168.39 93.8365 176.35 75.7465 169.28 64.4465C165.54 58.4765 157.99 55.2565 146.82 54.8965C145.98 54.8665 145.14 54.8565 144.33 54.8565C108.24 54.8565 102.71 81.1065 102.16 84.3365L102.98 102.027Z" fill="black" style="fill:black;fill-opacity:1;"/>
<path d="M153.15 113.517C145.81 113.797 143.83 123.397 140.73 125.937C137.62 128.477 122.38 126.787 118.42 126.217C114.46 125.647 114.75 118.307 114.18 114.927C113.61 111.547 109.38 112.667 107.4 112.947C105.42 113.227 103.8 109.417 103.8 109.417L100.55 108.487C101.95 118.747 102.42 133.067 102.88 138.637C103.44 145.417 106.83 148.237 113.33 150.497C119.82 152.757 144.11 148.237 149.75 143.717C155.4 139.197 161.04 118.307 163.3 116.897C163.97 116.477 164.95 114.437 166.01 111.767C161.6 112.687 156.73 113.367 153.13 113.507L153.15 113.517Z" fill="black" style="fill:black;fill-opacity:1;"/>
<path d="M112.96 133.377C112.96 133.377 110.98 133.467 111.27 135.917C111.56 138.367 111.83 138.647 112.68 138.267C113.53 137.887 114.47 137.047 114.47 135.817C114.47 134.587 112.96 133.367 112.96 133.367V133.377Z" fill="white" style="fill:white;fill-opacity:1;"/>
<path d="M116.63 133.187C116.63 133.187 114.75 133.747 114.47 135.827C114.19 137.907 115.22 138.367 116.07 138.467C116.92 138.567 118.42 139.127 118.8 137.337C119.18 135.547 119.93 132.537 116.64 133.197L116.63 133.187Z" fill="white" style="fill:white;fill-opacity:1;"/>
<path d="M121.71 133.947C121.71 133.947 120.2 134.507 119.92 136.677C119.64 138.847 123.78 139.407 124.53 139.217C125.28 139.027 126.6 137.147 126.51 135.547C126.42 133.947 123.78 132.537 121.71 133.947Z" fill="white" style="fill:white;fill-opacity:1;"/>
<path d="M127.92 134.137C127.92 134.137 127.45 135.267 127.73 137.247C128.01 139.227 128.58 139.407 129.99 139.317C131.4 139.227 133.47 139.037 133.57 137.057C133.67 135.077 134.13 133.197 131.5 133.197C128.87 133.197 127.92 134.137 127.92 134.137Z" fill="white" style="fill:white;fill-opacity:1;"/>
<path d="M135.17 133.947C135.17 133.947 134.42 136.587 134.98 137.617C135.54 138.647 136.96 139.307 137.99 138.657C139.02 138.007 139.4 137.437 139.4 136.017C139.4 134.597 139.4 133.097 137.33 133.287C135.26 133.477 135.17 133.947 135.17 133.947Z" fill="white" style="fill:white;fill-opacity:1;"/>
<path d="M141.66 133.757C141.66 133.757 138.74 133.377 139.4 136.017C140.06 138.657 139.68 138.937 140.62 138.837C141.56 138.737 142.6 137.707 142.6 136.107C142.6 134.507 143.16 133.377 141.66 133.757Z" fill="white" style="fill:white;fill-opacity:1;"/>
<path d="M138.93 140.437C138.93 140.437 137.99 141.476 138.27 142.416C138.55 143.356 138.93 145.237 139.68 144.207C140.43 143.177 140.53 140.157 138.93 140.447V140.437Z" fill="white" style="fill:white;fill-opacity:1;"/>
<path d="M136.21 140.717C136.21 140.717 135.27 140.627 135.08 141.467C134.89 142.307 134.99 144.197 135.55 144.387C136.11 144.577 136.96 144.386 137.24 143.166C137.52 141.946 137.33 140.717 136.2 140.717H136.21Z" fill="white" style="fill:white;fill-opacity:1;"/>
<path d="M132.82 140.537C132.82 140.537 131.78 141.007 131.6 141.947C131.42 142.887 131.6 145.237 132.54 145.147C133.48 145.057 134.33 144.587 134.23 143.267C134.13 141.947 134.04 140.347 132.82 140.537Z" fill="white" style="fill:white;fill-opacity:1;"/>
<path d="M129.71 140.537C129.71 140.537 128.2 140.727 128.2 142.227C128.2 143.727 128.2 145.047 128.86 145.047C129.52 145.047 131.78 144.387 131.68 143.167C131.58 141.947 132.24 140.157 129.7 140.527L129.71 140.537Z" fill="white" style="fill:white;fill-opacity:1;"/>
<path d="M125.57 140.157C125.57 140.157 123.78 141.287 124.16 142.887C124.54 144.487 124.54 145.527 125.57 145.427C126.6 145.327 127.17 142.607 126.89 141.947C126.61 141.287 126.61 139.877 125.57 140.157Z" fill="white" style="fill:white;fill-opacity:1;"/>
<path d="M121.81 140.717C121.81 140.717 120.02 140.717 120.49 142.787C120.96 144.857 121.53 145.606 122.47 145.046C123.41 144.486 124.63 142.227 123.88 141.567C123.13 140.907 123.41 140.527 121.81 140.717Z" fill="white" style="fill:white;fill-opacity:1;"/>
<path d="M118.61 140.437C118.61 140.437 117.01 140.907 117.29 142.787C117.57 144.667 117.38 145.047 118.51 144.577C119.64 144.107 120.58 141.937 120.11 141.467C119.64 140.997 119.36 140.337 118.6 140.427L118.61 140.437Z" fill="white" style="fill:white;fill-opacity:1;"/>
<path d="M115.41 140.247C115.41 140.247 114.37 139.587 114.47 141.097C114.57 142.607 114.47 144.297 115.41 144.207C116.35 144.117 117.1 141.477 116.63 141.007C116.16 140.537 115.41 140.257 115.41 140.257V140.247Z" fill="white" style="fill:white;fill-opacity:1;"/>
<path d="M112.21 140.057C112.21 140.057 111.46 140.997 111.27 141.567C111.08 142.137 111.08 143.357 112.21 143.257C113.34 143.157 113.9 141.657 113.53 140.907C113.16 140.157 112.87 139.777 112.21 140.057Z" fill="white" style="fill:white;fill-opacity:1;"/>
<path d="M133.85 103.637C133.85 103.637 123.03 114.457 123.87 117.477C124.71 120.497 127.35 120.207 129.05 118.797C130.75 117.387 131.97 119.547 133.76 119.547C135.55 119.547 138.09 118.797 137.52 116.627C136.95 114.457 136.48 105.147 133.85 103.637Z" fill="black" style="fill:black;fill-opacity:1;"/>
<path d="M118.89 106.367C118.89 106.367 126.51 106.277 128.3 104.487C130.09 102.697 134.98 96.3965 134.79 91.0265C134.6 85.6565 134.23 84.4365 132.25 84.1565C130.27 83.8765 118.41 84.1565 114.93 86.2265C111.45 88.2965 107.21 102.227 107.97 105.047C108.73 107.867 118.89 106.367 118.89 106.367Z" fill="black" style="fill:black;fill-opacity:1;"/>
<path d="M141.66 84.9065C141.66 84.9065 138.74 85.2865 138.18 89.5165C137.62 93.7465 137.05 101.566 138.18 103.166C139.31 104.766 140.34 106.277 145.14 106.837C149.94 107.397 157.38 108.057 158.6 107.397C159.82 106.737 161.71 104.667 161.61 99.9565C161.51 95.2465 163.77 89.6065 159.82 86.8765C155.87 84.1465 143.73 83.4865 141.66 84.8965V84.9065Z" fill="black" style="fill:black;fill-opacity:1;"/>
<path d="M103.08 108.537C103.36 107.877 104.68 90.4665 108.63 84.7265C112.58 78.9865 116.35 72.7765 115.69 72.3965C115.03 72.0165 105.05 81.4365 101.38 87.5465C97.7098 93.6565 103.07 108.537 103.07 108.537H103.08Z" fill="black" style="fill:black;fill-opacity:1;"/>
<path d="M163.12 111.637C163.12 111.637 165.1 100.817 165.38 97.6165C165.66 94.4165 167.26 83.0265 166.23 78.5065C165.2 73.9865 166.7 73.8965 167.45 75.3065C168.2 76.7165 170.37 89.4265 170.18 97.3265C169.99 105.227 163.12 111.637 163.12 111.637Z" fill="black" style="fill:black;fill-opacity:1;"/>
</svg>
