<svg width="375" height="503" viewBox="0 0 375 503" fill="none" xmlns="http://www.w3.org/2000/svg">
<mask id="mask0_3340_54804" style="mask-type:luminance" maskUnits="userSpaceOnUse" x="0" y="0" width="375" height="503">
<path d="M375 0H0V503H375V0Z" fill="white" style="fill:white;fill-opacity:1;"/>
</mask>
<g mask="url(#mask0_3340_54804)">
<path d="M189.54 -8.56998C188.62 27.96 188.12 70.96 187.94 107.55V124.14H187.14V107.55C187.05 83.74 186.65 48.5 186.25 24.61C186.11 16.36 185.76 -0.319977 185.54 -8.56998H189.54Z" fill="#4F4F4F" style="fill:#4F4F4F;fill:color(display-p3 0.3098 0.3098 0.3098);fill-opacity:1;"/>
<path d="M160.03 -5.55C161.37 17.54 163.55 40.92 166.05 63.91C166.45 67.2 166.81 70.5 167.24 73.79L166.05 73.93C165.42 68.26 164.3 59.94 163.51 54.18C161.24 37.86 158.66 21.23 155.85 4.97C155.25 1.7 154.69 -1.58 154.06 -4.84L160.02 -5.56L160.03 -5.55Z" fill="#4F4F4F" style="fill:#4F4F4F;fill:color(display-p3 0.3098 0.3098 0.3098);fill-opacity:1;"/>
<path d="M125.76 -8.07999C130.27 21.48 136.13 50.83 143.33 79.84L141.39 80.32C137.93 65.79 133.88 51.41 129.69 37.08C125.43 22.73 121.03 8.44001 116.05 -5.67999L125.76 -8.07999Z" fill="#4F4F4F" style="fill:#4F4F4F;fill:color(display-p3 0.3098 0.3098 0.3098);fill-opacity:1;"/>
<path d="M92.8499 -9.28998C102.01 17.66 112.84 47.7 122.98 74.29L122.23 74.57L118.27 64.2C110.91 45.22 101.25 21.16 93.4298 2.37002L89.1099 -7.86998L92.8499 -9.28998Z" fill="#4F4F4F" style="fill:#4F4F4F;fill:color(display-p3 0.3098 0.3098 0.3098);fill-opacity:1;"/>
<path d="M68.0601 -12.52C85.1401 28.75 103.48 70.22 121.99 110.87C124.7 116.68 127.35 122.52 130.1 128.31L128.65 128.99C125.99 123.16 123.23 117.37 120.52 111.56C104.15 77.06 86.93 42.01 69.64 7.96001C66.69 2.26001 63.8001 -3.45999 60.8101 -9.13999L68.0601 -12.52Z" fill="#4F4F4F" style="fill:#4F4F4F;fill:color(display-p3 0.3098 0.3098 0.3098);fill-opacity:1;"/>
<path d="M34.26 -8.41998C49.55 20 65.8001 48.46 82.1101 76.31C84.4901 80.29 86.8301 84.28 89.2301 88.24L88.2001 88.86C85.8501 84.87 83.4401 80.91 81.0601 76.93C69.0901 57.24 56.67 37.34 44.27 17.97C39.88 11.14 33.5601 1.33002 29.1001 -5.33998L34.2501 -8.41998H34.26Z" fill="#4F4F4F" style="fill:#4F4F4F;fill:color(display-p3 0.3098 0.3098 0.3098);fill-opacity:1;"/>
<path d="M-7.12012 4.36002C17.2999 38.23 42.8299 71.29 69.4199 103.47L67.8799 104.74C61.2899 96.66 54.5899 88.66 47.7999 80.74C34.2299 64.88 20.45 49.21 6.44995 33.73C-0.540049 25.98 -7.64008 18.31 -14.8301 10.72L-7.11011 4.36002H-7.12012Z" fill="#4F4F4F" style="fill:#4F4F4F;fill:color(display-p3 0.3098 0.3098 0.3098);fill-opacity:1;"/>
<path d="M-1.5603 46.32C11.8897 63.09 28.1597 82.45 42.1997 98.76L48.6198 106.1L48.0197 106.63L41.5897 99.29C29.7197 85.91 14.3797 69.08 2.14966 56.03L-4.57031 48.95L-1.5603 46.32Z" fill="#4F4F4F" style="fill:#4F4F4F;fill:color(display-p3 0.3098 0.3098 0.3098);fill-opacity:1;"/>
<path d="M-5.22034 74.57C20.3097 98.63 48.5597 124.88 74.4297 148.57L74.1597 148.86C55.6597 131.91 32.4997 110.98 13.6997 94.15C6.96971 88.09 0.209688 82.05 -6.57031 76.04L-5.22034 74.56V74.57Z" fill="#4F4F4F" style="fill:#4F4F4F;fill:color(display-p3 0.3098 0.3098 0.3098);fill-opacity:1;"/>
<path d="M-5.23999 101.96C2.93001 109.57 11.4701 116.78 20.3301 123.56L19.8401 124.2C17.6501 122.48 15.4 120.83 13.15 119.19C6.35002 114.31 -0.539922 109.54 -7.66992 105.14L-5.23999 101.96Z" fill="#4F4F4F" style="fill:#4F4F4F;fill:color(display-p3 0.3098 0.3098 0.3098);fill-opacity:1;"/>
<path d="M-5.40015 132.6C-0.200147 136.14 5.66978 139.8 11.1498 142.9L10.9498 143.25C9.53983 142.44 8.11982 141.66 6.68982 140.89C4.54982 139.74 0.199776 137.51 -1.98022 136.44C-3.44022 135.72 -4.91014 135.03 -6.39014 134.35L-5.40015 132.61V132.6Z" fill="#4F4F4F" style="fill:#4F4F4F;fill:color(display-p3 0.3098 0.3098 0.3098);fill-opacity:1;"/>
<path d="M-7.53003 161.47C7.79997 169.28 24.8599 177.49 40.5399 184.59L40.2899 185.14C29.0999 180.01 15.01 174 3.58997 169.23C-0.510035 167.52 -4.64002 165.85 -8.77002 164.21L-7.53003 161.48V161.47Z" fill="#4F4F4F" style="fill:#4F4F4F;fill:color(display-p3 0.3098 0.3098 0.3098);fill-opacity:1;"/>
<path d="M-5.69006 220.65C2.26994 222.57 10.3199 224.1 18.4299 225.23L18.35 225.82C16.33 225.51 14.2999 225.27 12.2699 225.04C6.1599 224.38 0.0499024 223.84 -6.1001 223.62L-5.69006 220.65Z" fill="#4F4F4F" style="fill:#4F4F4F;fill:color(display-p3 0.3098 0.3098 0.3098);fill-opacity:1;"/>
<path d="M221.01 -4.82C216.79 17.92 213.3 41.15 210.23 64.07C209.83 67.36 209.39 70.65 209.02 73.95L207.83 73.81C208.57 68.15 209.48 59.8 210.09 54.03C211.79 37.64 213.26 20.88 214.43 4.42C214.63 1.1 214.88 -2.21 215.04 -5.53L221 -4.81L221.01 -4.82Z" fill="#4F4F4F" style="fill:#4F4F4F;fill:color(display-p3 0.3098 0.3098 0.3098);fill-opacity:1;"/>
<path d="M259.03 -5.67998C249.27 22.59 240.81 51.29 233.69 80.33L231.75 79.85C235.45 65.38 238.55 50.77 241.51 36.13C244.41 21.45 247.17 6.75002 249.33 -8.06998L259.04 -5.66998L259.03 -5.67998Z" fill="#4F4F4F" style="fill:#4F4F4F;fill:color(display-p3 0.3098 0.3098 0.3098);fill-opacity:1;"/>
<path d="M285.98 -7.85998C274.89 18.35 262.98 47.98 252.86 74.58L252.11 74.3L256.06 63.92C263.19 44.85 271.98 20.47 278.66 1.23002L282.24 -9.28998L285.98 -7.86998V-7.85998Z" fill="#4F4F4F" style="fill:#4F4F4F;fill:color(display-p3 0.3098 0.3098 0.3098);fill-opacity:1;"/>
<path d="M314.27 -9.13999C293.68 30.49 273.75 71.23 254.55 111.56C251.84 117.37 249.09 123.16 246.42 128.99L244.97 128.31C247.72 122.52 250.37 116.68 253.08 110.87C268.95 76.13 284.69 40.4 299.61 5.25001C302.08 -0.669989 304.59 -6.56999 307.01 -12.52L314.26 -9.13999H314.27Z" fill="#4F4F4F" style="fill:#4F4F4F;fill:color(display-p3 0.3098 0.3098 0.3098);fill-opacity:1;"/>
<path d="M345.98 -5.33997C328.2 21.59 310.82 49.38 294.02 76.94C291.64 80.92 289.23 84.87 286.88 88.87L285.85 88.25C288.26 84.29 290.6 80.29 292.97 76.32C304.64 56.45 316.28 36.09 327.47 15.99C331.41 8.88003 337.05 -1.31997 340.82 -8.40997L345.97 -5.32997L345.98 -5.33997Z" fill="#4F4F4F" style="fill:#4F4F4F;fill:color(display-p3 0.3098 0.3098 0.3098);fill-opacity:1;"/>
<path d="M389.92 10.72C361.33 41.15 333.74 72.5 307.21 104.74L305.67 103.47C312.35 95.46 318.93 87.36 325.41 79.19C338.39 62.85 351.15 46.33 363.68 29.64C369.96 21.3 376.13 12.87 382.21 4.37L389.93 10.73L389.92 10.72Z" fill="#4F4F4F" style="fill:#4F4F4F;fill:color(display-p3 0.3098 0.3098 0.3098);fill-opacity:1;"/>
<path d="M379.66 48.95C364.82 64.5 347.8 83.21 333.49 99.29L327.06 106.63L326.46 106.1L332.88 98.76C344.56 85.22 359.21 67.78 370.52 53.92L376.65 46.32L379.66 48.95Z" fill="#4F4F4F" style="fill:#4F4F4F;fill:color(display-p3 0.3098 0.3098 0.3098);fill-opacity:1;"/>
<path d="M381.65 76.05C355.44 99.36 326.8 125.19 300.92 148.87L300.65 148.58C319.16 131.65 342.05 110.41 360.48 93.18C367.11 87.01 373.72 80.81 380.3 74.58L381.65 76.06V76.05Z" fill="#4F4F4F" style="fill:#4F4F4F;fill:color(display-p3 0.3098 0.3098 0.3098);fill-opacity:1;"/>
<path d="M382.76 105.13C373.29 111.04 364.1 117.4 355.25 124.19L354.76 123.55C356.99 121.88 359.17 120.14 361.34 118.39C367.83 113.09 374.22 107.69 380.33 101.95L382.76 105.13Z" fill="#4F4F4F" style="fill:#4F4F4F;fill:color(display-p3 0.3098 0.3098 0.3098);fill-opacity:1;"/>
<path d="M381.47 134.34C375.76 136.98 369.6 140.14 364.13 143.24L363.93 142.89C365.35 142.1 366.75 141.28 368.14 140.45C370.23 139.2 374.37 136.62 376.41 135.3C377.78 134.42 379.13 133.51 380.47 132.59L381.46 134.33L381.47 134.34Z" fill="#4F4F4F" style="fill:#4F4F4F;fill:color(display-p3 0.3098 0.3098 0.3098);fill-opacity:1;"/>
<path d="M383.86 164.2C367.88 170.59 350.47 178.02 334.8 185.13L334.55 184.58C345.78 179.54 359.58 172.9 370.7 167.45C374.69 165.49 378.66 163.49 382.62 161.46L383.86 164.19V164.2Z" fill="#4F4F4F" style="fill:#4F4F4F;fill:color(display-p3 0.3098 0.3098 0.3098);fill-opacity:1;"/>
<path d="M381.18 223.62C373 223.95 364.84 224.68 356.73 225.82L356.65 225.23C358.68 224.97 360.69 224.65 362.71 224.31C368.76 223.27 374.8 222.12 380.77 220.65L381.18 223.62Z" fill="#4F4F4F" style="fill:#4F4F4F;fill:color(display-p3 0.3098 0.3098 0.3098);fill-opacity:1;"/>
</g>
</svg>
