<svg width="231" height="170" viewBox="0 0 231 170" fill="none" xmlns="http://www.w3.org/2000/svg">
<path d="M8.50584 72.7107C8.50584 72.7107 17.6978 57.3593 20.9842 47.9034C24.2706 38.4476 26.1724 31.5811 26.1724 31.5811C26.1724 31.5811 30.4097 28.6448 43.1216 23.4198C55.8335 18.1948 62.6732 13.964 65.4926 12.6461C68.3119 11.3283 79.1554 14.6113 90.4493 14.935C101.743 15.2586 108.583 11.6751 108.583 11.6751C108.583 11.6751 117.291 10.0336 128.602 11.9988C139.912 13.964 148.387 12.3224 148.387 12.3224C148.387 12.3224 155.46 8.41524 167.471 11.6751C179.483 14.9349 189.842 18.5185 189.842 18.5185C189.842 18.5185 195.731 26.6797 202.321 29.9395C208.91 33.1994 217.869 37.7771 217.869 37.7771C217.869 37.7771 218.336 45.9383 222.106 58.0067C225.876 70.0751 226.11 72.6876 226.11 72.6876C226.11 72.6876 221.872 84.1086 221.872 102.073C221.872 102.073 215.516 115.135 213.631 134.394C213.631 134.394 202.087 136.682 190.076 144.844C190.076 144.844 159.464 146.809 152.624 155.941C152.624 155.941 122.713 162.461 108.816 160.842C108.816 160.842 78.6716 149.098 68.779 154.323C68.779 154.323 41.2198 145.514 30.6266 139.965C30.6266 139.965 15.0787 113.517 8.25562 107.321C8.25562 107.321 11.7923 86.7674 8.48919 72.7338L8.50584 72.7107Z" fill="white" style="fill:white;fill-opacity:1;"/>
<path d="M107.499 22.0329C106.581 22.0329 105.83 20.9925 105.83 19.721V2.31195C105.83 1.04038 106.581 0 107.499 0C108.416 0 109.167 1.04038 109.167 2.31195V19.721C109.167 20.9925 108.416 22.0329 107.499 22.0329Z" fill="black" style="fill:black;fill-opacity:1;"/>
<path d="M145.167 22.0328C144.917 22.0328 144.667 21.9635 144.417 21.7785C143.599 21.2005 143.265 19.8133 143.666 18.6805L149.321 3.00544C149.738 1.87258 150.739 1.41016 151.557 1.96503C152.374 2.54302 152.708 3.93025 152.307 5.06311L146.652 20.7382C146.352 21.5473 145.768 22.0097 145.151 22.0097L145.167 22.0328Z" fill="black" style="fill:black;fill-opacity:1;"/>
<path d="M185.372 31.6276C185.138 31.6276 184.888 31.5582 184.654 31.3963C183.82 30.8415 183.47 29.4775 183.87 28.3215L190.143 10.0339C190.543 8.87793 191.527 8.39242 192.361 8.94729C193.196 9.50216 193.546 10.8662 193.146 12.0222L186.873 30.3097C186.589 31.142 185.989 31.6276 185.372 31.6276Z" fill="black" style="fill:black;fill-opacity:1;"/>
<path d="M207.976 46.4248C207.359 46.4248 206.758 45.9392 206.475 45.1069C206.074 43.951 206.425 42.5638 207.259 42.0321L222.957 31.5821C223.791 31.0272 224.792 31.5126 225.176 32.6686C225.576 33.8246 225.226 35.2118 224.391 35.7436L208.693 46.1936C208.46 46.3554 208.21 46.4248 207.976 46.4248Z" fill="black" style="fill:black;fill-opacity:1;"/>
<path d="M229.329 76.0166C229.329 76.0166 229.279 76.0166 229.246 76.0166L216.684 75.1381C215.767 75.0687 215.049 73.9821 215.099 72.7105C215.149 71.4389 215.95 70.4448 216.851 70.5142L229.413 71.3926C230.33 71.462 231.048 72.5487 230.998 73.8202C230.948 75.0456 230.214 76.0166 229.329 76.0166Z" fill="black" style="fill:black;fill-opacity:1;"/>
<path d="M229.329 106.466C229.329 106.466 229.196 106.466 229.129 106.466L213.431 103.853C212.514 103.691 211.863 102.559 211.98 101.287C212.097 100.015 212.914 99.1138 213.832 99.2756L229.53 101.888C230.447 102.05 231.098 103.183 230.981 104.454C230.881 105.633 230.164 106.489 229.329 106.489V106.466Z" fill="black" style="fill:black;fill-opacity:1;"/>
<path d="M221.172 142.162C220.838 142.162 220.488 142.023 220.204 141.723L208.894 130.417C208.143 129.678 207.976 128.221 208.51 127.181C209.044 126.14 210.095 125.909 210.846 126.649L222.156 137.954C222.907 138.694 223.074 140.151 222.54 141.191C222.206 141.815 221.706 142.139 221.189 142.139L221.172 142.162Z" fill="black" style="fill:black;fill-opacity:1;"/>
<path d="M194.163 154.346C193.629 154.346 193.095 153.976 192.778 153.306L183.987 135.018C183.47 133.955 183.687 132.521 184.454 131.805C185.221 131.088 186.256 131.389 186.773 132.452L195.564 150.74C196.082 151.803 195.865 153.237 195.097 153.953C194.814 154.208 194.497 154.346 194.18 154.346H194.163Z" fill="black" style="fill:black;fill-opacity:1;"/>
<path d="M156.478 166.53C155.844 166.53 155.227 166.021 154.96 165.166L149.305 147.757C148.921 146.601 149.305 145.213 150.139 144.705C150.973 144.196 151.957 144.705 152.341 145.861L157.996 163.27C158.38 164.426 157.996 165.813 157.162 166.322C156.945 166.46 156.711 166.53 156.478 166.53Z" fill="black" style="fill:black;fill-opacity:1;"/>
<path d="M110.635 169.142C109.784 169.142 109.067 168.263 108.983 167.061L107.732 150.531C107.632 149.259 108.299 148.126 109.217 147.987C110.118 147.849 110.952 148.774 111.052 150.045L112.303 166.576C112.403 167.847 111.736 168.98 110.818 169.119C110.752 169.119 110.702 169.119 110.635 169.119V169.142Z" fill="black" style="fill:black;fill-opacity:1;"/>
<path d="M67.2942 163.039C67.1107 163.039 66.9106 162.993 66.727 162.9C65.8596 162.461 65.4091 161.143 65.7094 159.941L68.8457 147.757C69.1626 146.555 70.1135 145.93 70.981 146.347C71.8485 146.786 72.2989 148.104 71.9986 149.306L68.8624 161.49C68.6121 162.438 67.9782 163.016 67.2942 163.016V163.039Z" fill="black" style="fill:black;fill-opacity:1;"/>
<path d="M25.8554 148.243C25.3883 148.243 24.9045 147.966 24.5709 147.411C23.9703 146.44 24.0704 144.983 24.771 144.151L36.6989 130.233C37.3996 129.401 38.4505 129.539 39.0511 130.51C39.6516 131.481 39.5515 132.938 38.8509 133.77L26.9231 147.688C26.6061 148.058 26.2224 148.22 25.8554 148.22V148.243Z" fill="black" style="fill:black;fill-opacity:1;"/>
<path d="M5.11948 110.812C4.33542 110.812 3.65148 110.049 3.48465 108.962C3.30115 107.714 3.88503 106.488 4.78587 106.234L17.3476 102.743C18.2485 102.489 19.1326 103.298 19.3161 104.546C19.4996 105.795 18.9158 107.02 18.0149 107.274L5.45315 110.766C5.33637 110.789 5.23626 110.812 5.11948 110.812Z" fill="black" style="fill:black;fill-opacity:1;"/>
<path d="M15.7962 76.8727C15.7962 76.8727 15.646 76.8727 15.5626 76.8496L2.3669 74.237C1.44937 74.0521 0.815433 72.8961 0.948892 71.6245C1.08235 70.353 1.91647 69.4744 2.834 69.6594L16.0297 72.2719C16.9472 72.4568 17.5812 73.6128 17.4477 74.8844C17.3309 76.0404 16.6136 76.8727 15.7962 76.8727Z" fill="black" style="fill:black;fill-opacity:1;"/>
<path d="M32.1282 38.5867C31.878 38.5867 31.6278 38.5173 31.3776 38.3323L22.586 32.2288C21.7685 31.6508 21.4349 30.2636 21.8353 29.1307C22.2523 27.9979 23.2533 27.5124 24.0707 28.0904L32.8622 34.1939C33.6797 34.7719 34.0133 36.1591 33.613 37.2919C33.3127 38.1011 32.7288 38.5636 32.1116 38.5636L32.1282 38.5867Z" fill="black" style="fill:black;fill-opacity:1;"/>
<path d="M67.2942 22.9113C66.4601 22.9113 65.7428 22.0559 65.6427 20.8768L64.3915 6.95875C64.2747 5.68718 64.9254 4.53121 65.8429 4.36937C66.7437 4.20754 67.5945 5.10919 67.7113 6.38076L68.9625 20.2988C69.0792 21.5703 68.4286 22.7263 67.5111 22.8881C67.4444 22.8881 67.3777 22.8881 67.2942 22.8881V22.9113Z" fill="black" style="fill:black;fill-opacity:1;"/>
<path d="M66.4558 71.4038C66.4558 61.1914 74.7534 57.6171 87.455 57.6171C99.5822 57.6171 108.39 61.1914 108.39 71.4038C108.39 80.8503 99.5822 85.1267 87.455 85.1267C74.6895 85.1267 66.4558 80.9141 66.4558 71.4038ZM83.753 97.6369H64.0942C62.1155 97.6369 60.839 96.2327 60.839 93.871C60.839 91.5094 62.1155 90.1052 64.0942 90.1052H110.752C112.731 90.1052 114.007 91.5094 114.007 93.871C114.007 96.2327 112.731 97.6369 110.752 97.6369H91.7953V111.807C91.7953 113.721 90.3272 114.998 87.7741 114.998C85.2211 114.998 83.753 113.721 83.753 111.807V97.6369ZM74.8172 71.4038C74.8172 76.3823 79.4766 77.9142 87.455 77.9142C94.9866 77.9142 100.029 76.3185 100.029 71.4038C100.029 65.9785 94.9228 64.8296 87.455 64.8296C79.5404 64.8296 74.8172 66.2976 74.8172 71.4038ZM121.245 72.8718C121.245 63.2339 127.628 58.3192 136.946 58.3192C146.329 58.3192 152.456 63.2339 152.456 72.8718C152.456 82.8289 146.329 87.4883 136.946 87.4883C127.628 87.4883 121.245 82.8289 121.245 72.8718ZM158.648 106.892V59.3404C158.648 57.4256 159.924 56.1491 162.477 56.1491C165.03 56.1491 166.307 57.4256 166.307 59.3404V78.4248H171.349C173.328 78.4248 174.605 79.446 174.605 82.063C174.605 84.6799 173.328 85.7011 171.349 85.7011H166.307V106.892C166.307 108.807 165.03 110.083 162.477 110.083C159.924 110.083 158.648 108.807 158.648 106.892ZM133.627 98.0836V92.02C133.627 90.552 134.585 89.0202 137.585 89.0202C140.265 89.0202 141.414 90.552 141.414 92.02V97.3815C145.755 96.8071 149.457 95.9773 152.776 94.9561C156.158 93.9349 157.371 96.8071 157.371 98.7219C157.371 100.509 156.541 101.467 155.393 101.913C146.967 105.168 131.01 106.062 122.521 105.934C120.224 105.871 118.883 104.339 118.883 102.041C118.883 100.126 119.777 98.4028 122.011 98.4028C126.287 98.4028 130.117 98.339 133.627 98.0836ZM144.797 72.8718C144.797 67.3188 141.414 65.3402 136.946 65.3402C132.478 65.3402 129.032 67.3188 129.032 72.8718C129.032 78.4248 132.478 80.4673 136.946 80.4673C141.414 80.4673 144.797 78.4248 144.797 72.8718Z" fill="black" style="fill:black;fill-opacity:1;"/>
</svg>
