<?xml version="1.0" encoding="UTF-8"?>
<svg id="_레이어_1" data-name="레이어 1" xmlns="http://www.w3.org/2000/svg" viewBox="0 0 353.06 452.89">
  <defs>
    <style>
      .cls-1, .cls-2, .cls-3 {
        stroke-miterlimit: 10;
      }

      .cls-1, .cls-3 {
        fill: #de1915;
        stroke: #de1915;
      }

      .cls-4 {
        fill: #84bfe4;
      }

      .cls-5 {
        fill: #163370;
      }

      .cls-6, .cls-2 {
        fill: #fff;
      }

      .cls-2 {
        stroke: #040000;
      }

      .cls-2, .cls-3 {
        stroke-width: .5px;
      }

      .cls-7 {
        fill: #040000;
      }
    </style>
  </defs>
  <g>
    <g>
      <path class="cls-6" d="M239.76,390.3c-.42,0-.86-.04-1.37-.09l-.45-.04-.47-1.88.37.06c.85.13,1.44.18,1.98.18.63,0,.63-.16.63-.35v-12.2h-11.18v-1.6h15.1v1.6h-2.11v12.29c0,1.36-.65,1.98-2.11,2.03h-.38ZM230.99,386.75v-8.86h6.95v7.44h-5.18v1.42h-1.77ZM236.13,383.76v-4.3h-3.37v4.3h3.37Z"/>
      <path class="cls-7" d="M244.12,374.63v1.1h-2.11v12.55c0,1.25-.58,1.74-1.87,1.78h-.37c-.49,0-1.01-.06-1.63-.11l-.34-1.35c.86.13,1.46.19,2.02.19.64,0,.88-.17.88-.6v-12.45h-11.18v-1.1h14.6M237.69,378.14v6.94h-5.18v1.42h-1.27v-8.36h6.45M232.51,384.01h3.87v-4.8h-3.87v4.8M244.62,374.13h-15.6v2.1h11.18v11.95s0,.06,0,.07c0,0,0,0,0,0-.02,0-.13.03-.37.03-.53,0-1.11-.05-1.94-.18l-.74-.11.18.73.34,1.35.09.34.35.03.26.02c.52.05.97.09,1.41.09h.37c1.6-.05,2.37-.79,2.37-2.28v-12.05h2.11v-2.1h0ZM238.19,377.64h-7.45v9.36h2.27v-1.42h5.18v-7.94h0ZM233.01,379.71h2.87v3.8h-2.87v-3.8h0Z"/>
    </g>
    <g>
      <path class="cls-6" d="M246.2,388.88l.33-.03c2.26-.19,4.29-.67,6.07-1.44-.72-.49-1.4-1.06-2.01-1.68-.92.69-1.91,1.26-2.94,1.69l-.2.08-.85-1.39.28-.11c1.89-.75,3.49-1.9,4.63-3.34-.62-.27-.68-.77-.68-1.38v-1.32l-.1.22c-.58,1.29-1.38,2.58-2.15,3.45l-.16.18-1.27-1.08.18-.19c.81-.86,1.52-1.96,1.93-3.02l.1-.25,1.48.68v-1.14h1.62v2.18c0,.29,0,.42,1.71.42,1.17,0,1.7,0,1.92-.27.14-.17.21-.46.3-1.02l.06-.34,1.38.74c-.1-.13-.2-.25-.29-.36l-.19-.22,1.36-.83.14.17c.34.42.65.82.96,1.24v-1.96h-5.45c.52.38,1.16.9,1.6,1.33l.17.17-1.04,1.12-.18-.2c-.56-.59-1.23-1.16-1.86-1.57l-.24-.15.59-.7h-5.07v2.3h-1.72v-3.81h2.94c-.15-.4-.29-.76-.45-1.12-.18,0-.36,0-.54,0-.24,0-.47,0-.71,0h-.17l-.58-1.5h.36c5.44-.07,9.19-.4,12.16-1.07l.14-.03,1.25,1.36-.45.08c-.48.09-.95.17-1.42.24l.51.12-.12.27c-.2.46-.47,1.03-.78,1.63h2.76v3.72h-1.52c.35.5.7,1.02,1.07,1.6l.13.21-1.43.91-.13-.23c-.45-.82-1.12-1.85-1.66-2.58l-.02.1c-.44,1.95-1.02,2.12-3.78,2.14h-.76c-.19.24-.36.46-.53.66h5.15l1.01,1.05-.17.17c-1.04,1.07-2.01,1.91-3.03,2.59,1.67.68,3.6,1.09,5.88,1.25l.37.03-.76,1.59-.18-.02c-2.65-.29-4.98-.93-6.93-1.91-2.05,1.03-4.35,1.68-7.22,2.04l-.2.02-.58-1.54ZM252.01,385.01c.64.59,1.36,1.12,2.17,1.59.79-.46,1.53-.99,2.2-1.59h-4.37ZM256.93,377.07c.29-.54.56-1.19.83-1.83-1.04.15-2.07.27-3.11.37.21.46.4.98.56,1.46h1.73ZM253.42,377.07c-.15-.44-.33-.91-.52-1.32-.69.06-1.39.1-2.09.14.14.32.32.75.47,1.18h2.13Z"/>
      <path class="cls-7" d="M259.63,373.64l.84.92c-2.08.37-4.11.65-6.21.84.28.58.56,1.31.75,1.93h2.06c.37-.65.71-1.5,1.03-2.26l1.16.28c-.26.6-.62,1.33-.95,1.98h2.92v3.22h-1.2v-2.21h-11.98v2.3h-1.22v-3.31h3.05c-.22-.6-.41-1.1-.65-1.63-.47,0-.93.02-1.4.02l-.39-1.01c4.56-.06,8.79-.3,12.21-1.07M251.11,377.32h2.65c-.17-.56-.43-1.25-.71-1.83-.86.07-1.74.13-2.62.17.22.49.49,1.1.67,1.66M253.76,378.5c.52.34,1.42,1.03,1.98,1.59l-.69.75c-.58-.62-1.27-1.2-1.91-1.61l.62-.73M252.19,379.08v1.93c0,.52.17.67,1.96.67,1.25,0,1.81,0,2.11-.36.19-.22.26-.58.36-1.14l1.05.56c-.39,1.74-.73,1.93-3.53,1.94h-.88c-.3.39-.62.79-.97,1.16h5.61l.77.8c-1.07,1.1-2.15,2.04-3.38,2.8,1.87.84,4,1.29,6.39,1.46l-.52,1.1c-2.56-.28-4.92-.9-6.95-1.94-1.96,1.01-4.26,1.7-7.25,2.07l-.39-1.05c2.51-.21,4.69-.77,6.56-1.65-.92-.58-1.76-1.27-2.51-2.06-.92.71-1.94,1.33-3.07,1.79l-.58-.95c2.04-.8,3.76-2.08,4.95-3.7-.77-.17-.84-.54-.84-1.25v-2.21h1.12M257,384.76h-5.61c.84.86,1.78,1.55,2.79,2.13,1.07-.6,2-1.31,2.82-2.13M258.62,379.45c.73.9,1.38,1.79,2.19,3.07l-.99.64c-.54-.99-1.5-2.43-2.11-3.14l.92-.56M249.48,379.62l1.01.47c-.5,1.12-1.27,2.43-2.11,3.38l-.88-.75c.71-.75,1.5-1.85,1.98-3.1M259.81,373.09l-.28.06c-2.95.66-6.69.99-12.11,1.05h-.72s.26.68.26.68l.39,1.01.12.32h.34c.24,0,.47,0,.71,0,.12,0,.25,0,.37,0,.09.2.17.41.25.62h-2.82v4.31h1.8c-.3.45-.63.87-.99,1.25l-.36.38.4.34.88.75.37.32.32-.37c.63-.71,1.28-1.7,1.82-2.73v.21c0,.55.05,1.1.54,1.46-1.1,1.3-2.59,2.34-4.34,3.03l-.55.22.31.51.58.95.22.37.4-.17c.99-.41,1.93-.95,2.82-1.59.48.47.99.9,1.52,1.3-1.65.66-3.52,1.08-5.57,1.24l-.66.05.23.62.39,1.05.14.37.39-.05c2.85-.36,5.15-1,7.19-2.01,1.95.96,4.27,1.59,6.9,1.88l.35.04.15-.32.52-1.1.31-.66-.73-.05c-2.06-.14-3.83-.49-5.37-1.07.9-.64,1.77-1.4,2.68-2.35l.33-.35-.33-.35-.77-.8-.15-.15h-4.73c.04-.05.08-.1.13-.16h.63c2.63-.02,3.43-.21,3.91-1.9.47.66.98,1.47,1.33,2.11l.26.47.45-.29.99-.64.42-.27-.27-.42c-.28-.44-.54-.83-.8-1.21h1.29v-4.22h-2.61c.23-.47.44-.91.6-1.28l.16-.37c.23-.04.45-.08.68-.12l.89-.16-.61-.67-.84-.92-.2-.21h0ZM255.01,375.83c.78-.08,1.56-.17,2.35-.27-.19.44-.38.88-.58,1.27h-1.39c-.11-.33-.24-.67-.37-.99h0ZM251.19,376.12c.53-.03,1.05-.06,1.56-.11.11.26.22.53.32.8h-1.61c-.09-.24-.19-.48-.28-.7h0ZM258.76,378.83h.76v.96c-.17-.22-.34-.43-.51-.65l-.25-.31h0ZM255.07,378.83h3.62l-.32.2-.92.56-.41.25-.18-.1-.61-.33-.07.4-.08-.08c-.29-.29-.66-.61-1.03-.9h0ZM252.69,378.83h.13l-.06.07-.07.08v-.16h0ZM248.54,378.83h2.03v.74l-.88-.41-.48-.22-.19.5c-.13.34-.29.67-.47,1.01v-1.62h0ZM252.69,381.08s0-.04,0-.07v-1.47l.18.12c.61.39,1.27.95,1.81,1.53-.16,0-.34,0-.53,0-.96,0-1.33-.05-1.46-.1h0ZM255.45,381.14l.61-.66c-.05.24-.1.43-.18.52-.06.07-.21.12-.43.14h0ZM252.67,385.26h3.02c-.48.38-.98.74-1.52,1.05-.54-.33-1.04-.68-1.5-1.05h0Z"/>
    </g>
    <g>
      <path class="cls-6" d="M267.86,388.79c-.67,0-1.63-.32-2.36-1.82-.59-1.19-.88-2.74-.88-4.75s.08-4.01.24-6.21l.02-.26,1.81.18-.03.25c-.19,1.73-.28,3.69-.28,6.01.02,1.24.16,2.3.4,3.15.21.64.56,1.41,1.05,1.41.26,0,.58-.33,1-1.04.38-.63.65-1.2.91-1.9l.13-.35,1.33,1.25-.06.16c-.49,1.25-.96,2.15-1.44,2.75-.59.77-1.21,1.16-1.86,1.16ZM276.75,386.13c-.26-3.22-.9-5.56-2.31-8.36l-.12-.25,1.6-.6.11.19c1.56,2.74,2.44,5.65,2.59,8.64v.2s-1.84.48-1.84.48l-.02-.3Z"/>
      <path class="cls-7" d="M265.11,376.03l1.31.13c-.21,1.89-.28,3.91-.28,6.04.02,1.23.15,2.32.41,3.22.34,1.05.77,1.59,1.29,1.59.39,0,.77-.41,1.22-1.16.34-.56.64-1.14.93-1.94l.93.88c-.45,1.14-.92,2.08-1.4,2.69-.54.71-1.1,1.07-1.66,1.07-.84,0-1.59-.56-2.13-1.68-.6-1.2-.86-2.75-.86-4.64,0-2.11.09-4.19.24-6.19M275.8,377.23c1.59,2.79,2.41,5.68,2.56,8.53l-1.36.36c-.26-3.29-.92-5.63-2.34-8.45l1.14-.43M264.65,375.48l-.04.51c-.16,2.2-.24,4.24-.24,6.23s.3,3.63.91,4.86c.61,1.26,1.53,1.96,2.58,1.96.73,0,1.42-.42,2.06-1.26.49-.62.97-1.54,1.47-2.81l.12-.32-.25-.23-.93-.88-.55-.52-.26.71c-.25.68-.52,1.24-.9,1.86-.52.87-.75.92-.79.92-.2,0-.52-.33-.81-1.24-.24-.81-.37-1.85-.39-3.07,0-2.31.09-4.26.28-5.98l.05-.5-.5-.05-1.31-.13-.51-.05h0ZM276.03,376.61l-.4.15-1.14.43-.52.2.25.5c1.41,2.8,2.03,5.04,2.29,8.27l.05.59.58-.15,1.36-.36.39-.1-.02-.41c-.16-3.03-1.04-5.97-2.63-8.75l-.21-.37h0Z"/>
    </g>
  </g>
  <g>
    <path class="cls-3" d="M289.6,356.37c-.17,2.09-.45,4.11-.93,5.04-.65,1.27-1.47,1.51-5.55,1.51-4.56,0-5.66-.48-5.66-2.67v-23.79h-7.92c-.24,1.68-.58,3.46-1.06,5.25h6.89c-.89,9.91-4.59,16.7-12.03,21.94l-1.41-1.85c3.63-2.4,6.31-5.42,8.09-8.74-1.3-1.06-2.91-2.19-4.15-3.05l1.17-1.75c1.37.93,2.81,1.99,3.94,2.85,1.06-2.43,1.71-4.97,2.02-7.47h-5.11c-.96,2.78-2.33,5.55-4.42,8.09l-1.51-1.58c3.15-3.84,4.83-8.92,5.42-13.68h-5.25v-1.92h26.95v1.92h-9.43v10.66c2.5-1.47,5.11-3.5,6.99-5.42l1.61,1.58c-2.57,2.33-5.69,4.56-8.61,6.17v10.05c0,1.13.82,1.34,3.5,1.34,3.19,0,3.29-.17,3.63-.75.38-.65.62-2.26.72-4.56l2.09.86Z"/>
    <path class="cls-3" d="M321.38,353.9c-1.17,2.5-2.4,4.15-3.57,5.28-1.47,1.41-3.19,2.09-5.14,2.09-1.58,0-2.88-.45-3.87-1.3-1.1-.96-1.75-2.5-1.75-4.46s-.21-3.36-.51-4.15c-.38-.93-1.17-1.37-2.4-1.37-1.85.03-3.6,1.34-5.11,3.84-.55.93-1.75,3.46-3.57,7.61l-2.09-1.06c3.63-8.78,7.3-16.7,11.45-24.86l2.13.96c-2.13,4.11-4.39,8.71-6.17,12.86,1.06-.79,2.71-1.44,4.05-1.44,3.36,0,4.42,2.37,4.42,5.62,0,2.98.51,5.69,3.43,5.69,1.41,0,2.78-.58,4.08-1.92,1.1-1.13,1.99-2.71,2.95-4.77l1.68,1.37Z"/>
    <path class="cls-3" d="M326.01,361.07c2.61-5.62,4.7-11.73,6.17-18.31h-5.73v-2.06h6.21c.34-1.68.79-4.08,1.06-6.14l2.09.24c-.27,1.95-.72,3.98-1.17,5.93,3.5-.1,6.55-.34,9.19-.72v2.02c-2.57.34-5.76.62-9.57.75-1.47,7-3.5,13.41-6.21,19.27l-2.06-.99ZM351.42,361.48c-1.95.27-4.29.41-6.99.41-3.15,0-5.42-.41-6.69-1.27-1.06-.72-1.58-1.95-1.58-3.57,0-.65.14-1.3.41-1.95l1.75.07c-.17.62-.24,1.27-.24,1.89,0,1.13.72,2.06,1.78,2.43.89.34,2.47.48,4.63.48,2.3,0,4.53-.14,6.93-.45v1.95ZM350.01,348.48c-2.23-.17-3.53-.21-5.35-.21s-3.6.1-5.49.34v-1.95c2.06-.21,3.87-.34,5.49-.34s3.33.07,5.35.14v2.02ZM348.09,340.49c-.48-1.2-1.44-2.88-2.09-3.81l1.41-.79c.65.86,1.68,2.67,2.13,3.74l-1.44.86ZM351.28,338.92c-.45-1.23-1.3-2.74-2.06-3.77l1.41-.75c.93,1.27,1.71,2.54,2.13,3.67l-1.47.86Z"/>
  </g>
  <g>
    <g>
      <path class="cls-4" d="M58.37,302.77c-7.75-2.67-12.7-7.02-15.56-13.65h-4.31v9.35c2.78-.57,5.52-1.23,7.97-1.93l.55-.16.42,2.91-.41.12c-4.8,1.44-10.79,2.68-14.46,3.3l-.44.07-.91-3.07.58-.08c1.11-.16,2.28-.34,3.48-.54v-24.18h8.33v-3.63h3.19v3.63h8.71v14.2h-9.31c.81,1.79,2,3.47,3.49,4.9,2.28-1.5,4.58-3.44,7.03-5.92l.35-.36,2.23,2.18-.36.36c-2.09,2.06-4.4,3.98-6.87,5.73,2.21,1.6,4.82,2.88,7.76,3.79l.59.18-1.64,2.93-.4-.14ZM52.34,286.3v-3.01h-13.85v3.01h13.85ZM52.34,280.54v-2.8h-13.85v2.8h13.85Z"/>
      <path class="cls-5" d="M46.29,271.78v3.63h8.71v13.2h-9.57c.89,2.26,2.33,4.32,4.18,6.03,2.85-1.82,5.38-4.11,7.44-6.21l1.51,1.47c-2.26,2.23-4.73,4.25-7.37,6.07,2.4,1.85,5.28,3.29,8.47,4.29l-1.13,2.02c-6.75-2.33-12.27-6.21-15.39-13.68h-5.14v10.46c2.95-.58,5.97-1.3,8.61-2.06l.27,1.92c-4.35,1.3-10.18,2.57-14.4,3.29l-.62-2.09c1.23-.17,2.54-.38,3.91-.62v-24.1h8.33v-3.63h2.19M38,281.04h14.85v-3.81h-14.85v3.81M38,286.8h14.85v-4.01h-14.85v4.01M47.29,270.78h-4.19v3.63h-8.33v24.26c-1.05.18-2.07.33-3.05.47l-1.15.16.33,1.11.62,2.09.25.85.88-.15c3.68-.63,9.69-1.87,14.52-3.32l.83-.25-.12-.85-.25-1.73c2.74,2.65,6.23,4.68,10.59,6.18l.79.27.41-.73,1.13-2.02.6-1.08-1.18-.37c-2.64-.82-5-1.94-7.05-3.32,2.28-1.65,4.41-3.45,6.35-5.37l.73-.72-.73-.71-1.51-1.47-.71-.7-.7.71c-.12.12-.23.23-.34.35v-13.67h-8.71v-3.63h0ZM39,278.23h12.85v1.81h-12.85v-1.81h0ZM39,283.78h12.85v2.01h-12.85v-2.01h0ZM46.99,289.61h7.43c-1.6,1.48-3.15,2.72-4.68,3.76-1.11-1.13-2.04-2.41-2.75-3.76h0ZM39,289.61h3.49c1.08,2.42,2.43,4.53,4.09,6.37l-.25.07c-2.23.64-4.79,1.26-7.33,1.79v-8.23h0Z"/>
    </g>
    <g>
      <path class="cls-4" d="M71.05,299.88c-1.25,0-3.01-.58-4.36-3.37-1.09-2.19-1.63-5.04-1.63-8.72s.15-7.36.45-11.38l.04-.51,3.41.34-.05.5c-.34,3.16-.51,6.76-.51,11.02.03,2.26.28,4.2.73,5.76.37,1.16,1.01,2.55,1.89,2.55.45,0,1.04-.62,1.8-1.88.7-1.16,1.2-2.21,1.67-3.48l.26-.71,2.51,2.36-.12.32c-.9,2.29-1.77,3.95-2.64,5.06-1.09,1.42-2.25,2.15-3.44,2.15ZM87.32,294.96c-.47-5.9-1.66-10.19-4.23-15.31l-.25-.5,3.01-1.14.21.37c2.87,5.03,4.47,10.37,4.76,15.86l.02.41-3.48.91-.05-.59Z"/>
      <path class="cls-5" d="M66.01,276.44l2.4.24c-.38,3.46-.51,7.17-.51,11.07.03,2.26.27,4.25.75,5.9.62,1.92,1.41,2.91,2.37,2.91.72,0,1.41-.75,2.23-2.12.62-1.03,1.17-2.09,1.71-3.57l1.71,1.61c-.82,2.09-1.68,3.81-2.57,4.94-.99,1.3-2.02,1.95-3.05,1.95-1.54,0-2.91-1.03-3.91-3.08-1.1-2.2-1.58-5.04-1.58-8.5,0-3.87.17-7.68.45-11.35M85.62,278.64c2.91,5.11,4.42,10.42,4.7,15.63l-2.5.65c-.48-6.03-1.68-10.32-4.29-15.5l2.09-.79M65.09,275.34l-.08,1.02c-.3,4.04-.45,7.77-.45,11.42s.55,6.69,1.68,8.95c1.13,2.34,2.84,3.64,4.8,3.64,1.36,0,2.66-.79,3.85-2.35.9-1.14,1.79-2.84,2.71-5.18l.25-.63-.49-.46-1.71-1.61-1.1-1.03-.53,1.41c-.46,1.25-.95,2.26-1.63,3.4-.97,1.62-1.36,1.64-1.37,1.64-.32,0-.89-.58-1.41-2.22-.43-1.48-.67-3.38-.71-5.61,0-4.22.17-7.81.51-10.95l.11-1-1-.1-2.4-.24-1.02-.1h0ZM86.07,277.4l-.8.3-2.09.79-1.04.39.5.99c2.58,5.12,3.71,9.22,4.18,15.13l.09,1.19,1.15-.3,2.5-.65.79-.21-.04-.81c-.29-5.57-1.92-10.98-4.83-16.08l-.42-.74h0Z"/>
    </g>
  </g>
  <g>
    <g>
      <path class="cls-6" d="M194.35,91.43c-1.25,0-3.01-.58-4.36-3.37-1.09-2.19-1.63-5.04-1.63-8.72s.15-7.36.45-11.39l.04-.51,3.41.34-.05.5c-.34,3.16-.51,6.77-.51,11.02.03,2.26.28,4.2.73,5.76.37,1.16,1.01,2.55,1.89,2.55.45,0,1.04-.62,1.8-1.88.7-1.17,1.2-2.21,1.67-3.48l.26-.71,2.51,2.36-.12.31c-.9,2.3-1.77,3.95-2.64,5.06-1.08,1.42-2.25,2.14-3.44,2.14ZM210.61,86.51c-.47-5.9-1.66-10.19-4.23-15.31l-.25-.5,3.01-1.14.21.37c2.87,5.03,4.47,10.37,4.76,15.86l.02.41-3.48.9-.05-.59Z"/>
      <path class="cls-7" d="M189.31,67.99l2.4.24c-.38,3.46-.51,7.17-.51,11.07.03,2.26.27,4.25.75,5.9.62,1.92,1.41,2.91,2.37,2.91.72,0,1.41-.75,2.23-2.12.62-1.03,1.17-2.09,1.71-3.57l1.71,1.61c-.82,2.09-1.68,3.81-2.57,4.94-.99,1.3-2.02,1.95-3.05,1.95-1.54,0-2.91-1.03-3.91-3.08-1.1-2.2-1.58-5.04-1.58-8.5,0-3.87.17-7.68.45-11.35M208.92,70.18c2.91,5.11,4.42,10.42,4.7,15.63l-2.5.65c-.48-6.03-1.68-10.32-4.29-15.5l2.09-.79M188.38,66.89l-.08,1.02c-.3,4.04-.45,7.77-.45,11.42s.55,6.69,1.68,8.95c1.13,2.34,2.84,3.64,4.8,3.64,1.36,0,2.66-.79,3.85-2.35.9-1.14,1.79-2.84,2.71-5.18l.25-.63-.49-.46-1.71-1.61-1.1-1.03-.53,1.41c-.46,1.25-.95,2.26-1.63,3.4-.97,1.62-1.36,1.64-1.37,1.64-.32,0-.89-.58-1.41-2.22-.43-1.48-.67-3.38-.71-5.61,0-4.22.17-7.81.51-10.95l.11-1-1-.1-2.4-.24-1.02-.1h0ZM209.36,68.95l-.8.3-2.09.79-1.04.39.5.99c2.58,5.12,3.71,9.22,4.18,15.13l.09,1.19,1.15-.3,2.5-.65.79-.21-.04-.81c-.29-5.57-1.92-10.98-4.83-16.08l-.42-.74h0Z"/>
    </g>
    <g>
      <path class="cls-6" d="M225.89,91.43c-1.25,0-3.01-.58-4.36-3.37-1.09-2.19-1.63-5.04-1.63-8.72s.15-7.36.45-11.39l.04-.51,3.41.34-.05.5c-.34,3.16-.51,6.77-.51,11.02.03,2.26.28,4.2.73,5.76.37,1.16,1.01,2.55,1.89,2.55.45,0,1.04-.62,1.8-1.88.7-1.17,1.2-2.21,1.67-3.48l.26-.71,2.51,2.36-.12.31c-.9,2.3-1.77,3.95-2.64,5.06-1.08,1.42-2.25,2.14-3.44,2.14ZM242.16,86.51c-.47-5.9-1.66-10.19-4.23-15.31l-.25-.5,3.01-1.14.21.37c2.87,5.03,4.47,10.37,4.76,15.86l.02.41-3.48.9-.05-.59Z"/>
      <path class="cls-7" d="M220.85,67.99l2.4.24c-.38,3.46-.51,7.17-.51,11.07.03,2.26.27,4.25.75,5.9.62,1.92,1.41,2.91,2.37,2.91.72,0,1.41-.75,2.23-2.12.62-1.03,1.17-2.09,1.71-3.57l1.71,1.61c-.82,2.09-1.68,3.81-2.57,4.94-.99,1.3-2.02,1.95-3.05,1.95-1.54,0-2.91-1.03-3.91-3.08-1.1-2.2-1.58-5.04-1.58-8.5,0-3.87.17-7.68.45-11.35M240.46,70.18c2.91,5.11,4.42,10.42,4.7,15.63l-2.5.65c-.48-6.03-1.68-10.32-4.29-15.5l2.09-.79M219.93,66.89l-.08,1.02c-.3,4.04-.45,7.77-.45,11.42s.55,6.69,1.68,8.95c1.13,2.34,2.84,3.64,4.8,3.64,1.36,0,2.66-.79,3.85-2.35.9-1.14,1.79-2.84,2.71-5.18l.25-.63-.49-.46-1.71-1.61-1.1-1.03-.53,1.41c-.46,1.25-.95,2.26-1.63,3.4-.97,1.62-1.36,1.64-1.37,1.64-.32,0-.89-.58-1.41-2.22-.43-1.48-.67-3.38-.71-5.61,0-4.22.17-7.81.51-10.95l.11-1-1-.1-2.4-.24-1.02-.1h0ZM240.91,68.95l-.8.3-2.09.79-1.04.39.5.99c2.58,5.12,3.71,9.22,4.18,15.13l.09,1.19,1.15-.3,2.5-.65.79-.21-.04-.81c-.29-5.57-1.92-10.98-4.83-16.08l-.42-.74h0Z"/>
    </g>
    <g>
      <path class="cls-6" d="M269.88,91.84c-3.46,0-6.27-.83-8.37-2.47-2.38-1.87-3.59-4.48-3.59-7.76,0-2.35.88-4.97,2.36-7.01,1.31-1.8,2.91-3.1,4.35-4.04-4.28.32-9.45.92-13.5,1.57l-.55.09-.15-3.27.45-.07c7.77-1.15,15.82-1.69,25.34-1.69h.53l-.21,3.09-.5-.03c-1.05-.07-1.5-.07-2.61-.07-2.66,0-5.36,1.13-8.01,3.35-2.87,2.4-4.21,4.98-4.21,8.12,0,2.3.88,4.09,2.6,5.32,1.58,1.17,3.74,1.76,6.43,1.76h3.13l-.15,3.13h-3.36ZM270.91,79.08c-.39-1.16-1.21-2.86-1.83-3.79l-.31-.47,2.32-1.16.25.34c.65.89,1.58,2.75,1.99,3.98l.13.4-2.37,1.27-.19-.56ZM274.17,77.74c-.38-1.16-1.09-2.64-1.83-3.75l-.31-.47,2.38-1.16.24.38c1.04,1.61,1.66,2.86,1.98,3.93l.12.39-2.4,1.25-.18-.56Z"/>
      <path class="cls-7" d="M276.22,67.68l-.14,2.06c-1.06-.07-1.54-.07-2.64-.07-2.81,0-5.59,1.17-8.33,3.46-2.95,2.47-4.39,5.14-4.39,8.5,0,2.37.89,4.35,2.81,5.73,1.71,1.27,3.98,1.85,6.72,1.85h2.61l-.1,2.13h-2.88c-3.22,0-6-.75-8.06-2.37-2.23-1.75-3.39-4.22-3.39-7.37,0-2.19.82-4.73,2.26-6.72,1.71-2.37,3.98-3.87,6-4.97-4.9.27-11.18.99-15.63,1.71l-.1-2.26c7.65-1.13,15.67-1.68,25.27-1.68M274.23,72.99c.86,1.34,1.58,2.64,1.92,3.81l-1.51.79c-.41-1.27-1.17-2.78-1.89-3.88l1.47-.72M270.94,74.3c.65.89,1.54,2.71,1.92,3.84l-1.47.79c-.41-1.23-1.27-2.98-1.89-3.91l1.44-.72M277.29,66.68h-1.07c-9.54,0-17.62.54-25.42,1.69l-.89.13.04.9.1,2.26.05,1.12,1.11-.18c3.49-.56,7.81-1.09,11.67-1.42-1.04.83-2.09,1.85-3.01,3.1-1.54,2.12-2.45,4.85-2.45,7.31,0,3.45,1.27,6.19,3.78,8.16,2.19,1.71,5.1,2.58,8.67,2.58h3.83l.05-.95.1-2.13.05-1.05h-3.65c-2.58,0-4.64-.56-6.13-1.66-1.6-1.14-2.41-2.8-2.41-4.92,0-3.02,1.24-5.4,4.03-7.74,2.56-2.14,5.15-3.23,7.69-3.23,1.09,0,1.55,0,2.58.07l1,.06.07-1,.14-2.06.07-1.07h0ZM274.59,71.7l-.8.39-1.47.72-.9.44-.17-.23-.76.38-1.44.72-1.01.51.63.94c.59.89,1.4,2.57,1.77,3.67l.37,1.12,1.05-.56,1.47-.79.62-.33.11.33,1.05-.55,1.51-.79.73-.38-.23-.79c-.33-1.12-.98-2.41-2.04-4.06l-.48-.75h0Z"/>
    </g>
    <g>
      <path class="cls-6" d="M287.13,90.43l.7-.17c1.95-.47,3.48-1.06,4.79-1.86,1.13-.69,2.01-1.76,2.5-3.01-.76.48-1.66.75-2.58.75-3.62,0-5.57-2.91-5.57-5.64,0-3.34,2.46-5.95,5.61-5.95.88,0,1.69.17,2.35.49v-2.65c-4.71.27-9.07.57-12.97.89l-.52.04-.15-3.06.48-.04c4.06-.33,8.37-.58,13.15-.77v-4.92h3.06v4.8c3.61,0,7.5.04,10.76.1h.49v2.97h-.51c-3.53-.11-7.18-.12-10.73-.12v5.32c.47,1.02.69,3.04.69,4.54,0,3.64-.94,6.1-3.05,7.99-1.44,1.29-3.77,2.43-6.24,3.06l-.34.09-1.9-2.85ZM292.54,77.44c-1.4,0-2.38,1.25-2.38,3.03,0,1.32.74,2.65,2.38,2.65s2.35-1.38,2.35-2.65c0-1.84-.92-3.03-2.35-3.03Z"/>
      <path class="cls-7" d="M297.48,65.04v4.8c3.53,0,7.68.03,11.25.1v1.96c-3.7-.1-7.47-.1-11.25-.1v5.93c.45.86.69,2.85.69,4.42,0,3.6-.93,5.86-2.88,7.61-1.34,1.2-3.6,2.33-6.03,2.95l-1.3-1.95c2.16-.51,3.7-1.17,4.94-1.92,1.47-.89,2.85-2.61,3.12-4.94-.75,1.06-2.09,1.75-3.46,1.75-3.5,0-5.07-2.85-5.07-5.14,0-2.98,2.19-5.45,5.11-5.45,1.13,0,2.19.31,2.85.93v-4.11c-4.25.24-8.98.55-13.51.92l-.1-2.06c4.7-.38,9.22-.62,13.61-.79v-4.9h2.06M292.54,83.62c1.78,0,2.85-1.44,2.85-3.15,0-2.09-1.13-3.53-2.85-3.53s-2.88,1.44-2.88,3.53c0,1.75,1.1,3.15,2.88,3.15M298.48,64.04h-4.06v4.94c-4.6.19-8.76.44-12.69.75l-.97.08.05.97.1,2.06.05,1.03,1.03-.09c3.74-.31,7.92-.6,12.43-.86v1.39c-.56-.17-1.18-.26-1.85-.26-3.43,0-6.11,2.83-6.11,6.45,0,2.98,2.13,6.14,6.07,6.14.5,0,.99-.07,1.46-.21-.43.62-.99,1.15-1.64,1.54-1.27.78-2.75,1.35-4.65,1.8l-1.4.33.8,1.19,1.3,1.95.39.59.69-.17c2.55-.65,4.96-1.83,6.46-3.17,2.22-1.99,3.21-4.57,3.21-8.36,0-1.17-.15-3.37-.69-4.64v-4.71c3.39,0,6.86,0,10.22.1l1.03.03v-3.96l-.98-.02c-3.11-.06-6.79-.1-10.27-.1v-4.8h0ZM292.54,82.62c-1.39,0-1.88-1.16-1.88-2.15,0-1.49.77-2.53,1.88-2.53,1.36,0,1.85,1.36,1.85,2.53,0,1.07-.57,2.15-1.85,2.15h0Z"/>
    </g>
    <g>
      <path class="cls-6" d="M318.89,93.31v-10.38c-.82,1.08-1.79,2.38-2.74,3.64-.81,1.08-1.61,2.16-2.33,3.11l-.42.55-1.95-2.8.24-.29c.86-1.03,1.71-2.08,2.57-3.15,1.47-1.81,2.98-3.69,4.62-5.57v-4.16c-1.8.5-3.54.89-5.18,1.17l-.58.1v-3.19l.44-.06c1.75-.23,3.71-.58,5.33-.96,0-2.14,0-4.31.07-6l.02-.48h3.09l-.02.52c-.05,1.42-.09,3.23-.1,4.88l.91-.48,1.34,1.5-.21.32c-.66,1-1.22,1.76-2.04,2.72v1.43c1.75-1.64,3.33-2.92,4.52-3.65,1.85-1.21,3.68-1.86,5.27-1.86,2.52,0,4.54.87,5.84,2.52,1.25,1.62,1.86,3.95,1.86,7.13,0,2.16-.28,4.36-.83,6.56,1.05.79,2.09,1.66,3.03,2.5l.35.31-1.95,2.46-.4-.41c-.62-.64-1.25-1.24-1.87-1.82-.17-.16-.33-.31-.5-.47-1.74,2.04-3.8,3.07-6.13,3.07-.14,0-.28,0-.42-.01-5.13-.24-5.44-3.55-5.41-4.56.03-2.67,2.17-4.4,5.44-4.4,1.45,0,3.34.56,5.06,1.47.27-1.47.4-3.05.4-4.71,0-2.16-.33-3.68-1.05-4.77-.81-1.18-1.89-1.73-3.42-1.73-1.31,0-2.89.61-4.7,1.8-1.34.94-3.01,2.41-5.09,4.49v13.63h-3.06ZM330.73,85.8c-2.37,0-2.55,1.27-2.55,1.66,0,1.27,1.28,1.93,2.55,1.93,1.73,0,3.02-.66,4.02-2.08-1.41-.98-2.82-1.51-4.02-1.51Z"/>
      <path class="cls-7" d="M321.55,65.35c-.07,1.82-.1,4.01-.1,5.73l1.3-.69.82.93c-.72,1.1-1.3,1.85-2.13,2.81v2.78c2.33-2.26,4.11-3.67,5.28-4.39,1.78-1.17,3.5-1.78,5.01-1.78,2.47,0,4.29.86,5.45,2.33,1.17,1.51,1.75,3.74,1.75,6.82,0,2.23-.31,4.53-.89,6.75,1.1.82,2.23,1.75,3.26,2.67l-1.3,1.65c-.93-.96-1.89-1.82-2.78-2.67-1.63,2.08-3.66,3.3-6.09,3.3-.13,0-.26,0-.39-.01-4.42-.21-4.97-2.81-4.94-4.04.03-2.74,2.4-3.91,4.94-3.91,1.47,0,3.53.62,5.42,1.75.38-1.75.55-3.6.55-5.49,0-2.19-.34-3.84-1.13-5.04-.89-1.3-2.13-1.95-3.84-1.95-1.41,0-3.05.62-4.97,1.89-1.51,1.06-3.29,2.67-5.31,4.7v13.34h-2.06v-11.35c-1.51,1.92-4.05,5.38-5.97,7.92l-1.34-1.92c2.37-2.85,4.66-5.83,7.3-8.85v-5.01c-2.02.58-3.94,1.03-5.76,1.34v-2.16c1.58-.21,3.81-.58,5.76-1.06,0-2.23,0-4.59.07-6.38h2.09M330.73,89.9c2.02,0,3.57-.86,4.7-2.71-1.65-1.23-3.29-1.89-4.7-1.89-2.61,0-3.05,1.47-3.05,2.16,0,1.61,1.54,2.43,3.05,2.43M322.58,64.35h-4.09l-.04.96c-.06,1.59-.07,3.61-.07,5.62-1.52.34-3.29.66-4.89.86l-.87.11v4.22l1.17-.2c1.46-.25,3-.59,4.59-1.01v3.32c-1.6,1.84-3.08,3.67-4.51,5.44-.86,1.06-1.71,2.11-2.56,3.14l-.49.59.44.63,1.34,1.92.79,1.13.83-1.1c.72-.95,1.53-2.03,2.33-3.12.62-.83,1.25-1.67,1.83-2.45v9.39h4.06v-13.92c1.99-1.98,3.6-3.38,4.89-4.3,1.7-1.12,3.19-1.7,4.4-1.7,1.37,0,2.3.47,3.01,1.52.64.97.96,2.44.96,4.48,0,1.38-.1,2.71-.29,3.96-1.62-.77-3.3-1.22-4.68-1.22-3.57,0-5.9,1.92-5.94,4.9-.06,2.3,1.45,4.85,5.89,5.06.14,0,.29.01.44.01,2.33,0,4.4-.96,6.16-2.85.04.04.08.08.12.12.61.58,1.25,1.17,1.86,1.8l.79.82.71-.9,1.3-1.65.58-.74-.7-.63c-.87-.78-1.83-1.58-2.8-2.33.51-2.13.76-4.26.76-6.36,0-3.3-.64-5.73-1.96-7.43-1.41-1.78-3.57-2.72-6.24-2.72-1.71,0-3.58.65-5.55,1.95-.75.46-1.97,1.33-3.73,2.92v-.1c.77-.92,1.32-1.66,1.96-2.63l.42-.64-.51-.57-.82-.93-.52-.58-.52.27c.02-1.4.05-2.84.09-4.03l.04-1.04h0ZM330.73,88.9c-.71,0-2.05-.3-2.05-1.43,0-.27.15-1.16,2.05-1.16.97,0,2.12.4,3.29,1.13-.85.99-1.92,1.46-3.29,1.46h0Z"/>
    </g>
  </g>
  <g>
    <g>
      <path class="cls-6" d="M82.66,325.69c-2.52,0-3.96-1.15-3.96-3.15,0-2.26,2.11-3.07,3.92-3.07.58,0,1.42.16,2.54.49v-5.3h1.84v5.99c1.57.73,3.03,1.62,4.22,2.58l.18.15-1.08,1.51-.21-.18c-.87-.75-1.96-1.48-3.25-2.18-.44,2.09-1.85,3.15-4.21,3.15ZM82.62,321.09c-.8,0-2.16.3-2.16,1.45,0,1.04.74,1.56,2.21,1.56s2.38-.8,2.45-2.26c-.91-.49-1.75-.74-2.49-.74ZM73.8,321.43l.1-.2c1.53-2.9,2.76-5.8,3.65-8.62-1.06.04-2.36.1-3.41.1h-.25v-1.77h.25c1.19,0,2.41-.04,3.86-.1.35-1.2.69-2.51.93-3.52l.05-.23,1.88.3-.06.26c-.23,1.04-.58,2.18-.86,3.1,1.48-.07,2.9-.22,4.33-.45l.29-.05v1.8l-.21.03c-1.43.22-3.04.38-4.92.46-.88,3.32-2.17,6.61-3.84,9.77l-.13.25-1.67-1.13ZM90.71,315.79c-1.06-1.32-2.2-2.5-3.39-3.52l-.2-.17,1.22-1.25.18.14c1.36,1.08,2.49,2.22,3.46,3.46l.13.16-1.2,1.42-.19-.24Z"/>
      <path class="cls-7" d="M79.17,307.36l1.39.22c-.25,1.12-.63,2.35-.96,3.42,1.68-.07,3.2-.22,4.71-.47v1.3c-1.43.22-3.06.38-5.07.47-.85,3.26-2.15,6.64-3.87,9.9l-1.25-.85c1.54-2.93,2.84-5.97,3.78-9.01-1.1.04-2.59.11-3.75.11v-1.27c1.23,0,2.5-.04,4.04-.11.34-1.14.72-2.55.98-3.71M88.36,311.19c1.34,1.07,2.46,2.19,3.42,3.42l-.87,1.03c-1.07-1.34-2.21-2.52-3.42-3.55l.87-.89M86.75,314.92v5.9c1.63.74,3.13,1.65,4.31,2.61l-.78,1.1c-.96-.83-2.19-1.63-3.6-2.37-.29,1.9-1.34,3.28-4.02,3.28-1.99,0-3.71-.78-3.71-2.9,0-1.99,1.81-2.82,3.66-2.82.63,0,1.56.2,2.79.58v-5.38h1.34M82.66,324.35c1.74,0,2.68-1.03,2.7-2.66-1.03-.58-1.94-.85-2.75-.85-1.12,0-2.41.49-2.41,1.7,0,1.39,1.14,1.81,2.46,1.81M78.79,306.8l-.11.46c-.22.96-.54,2.18-.88,3.34-1.38.06-2.55.1-3.66.1h-.5v2.27h.5c.94,0,2.08-.04,3.06-.08-.88,2.7-2.07,5.47-3.53,8.24l-.21.4.37.25,1.25.85.46.31.26-.49c1.65-3.12,2.93-6.37,3.81-9.65,1.81-.09,3.37-.24,4.76-.46l.42-.07v-2.31l-.58.09c-1.32.21-2.6.35-3.95.43.3-.96.57-1.89.76-2.78l.11-.52-.52-.08-1.39-.22-.46-.07h0ZM88.32,310.51l-.32.32-.87.89-.37.38.41.35c1.18,1,2.3,2.17,3.35,3.48l.38.47.39-.46.87-1.03.26-.31-.25-.32c-.98-1.26-2.13-2.4-3.5-3.5l-.35-.28h0ZM87.25,314.42h-2.34v5.22c-.99-.28-1.74-.41-2.29-.41-2.53,0-4.16,1.3-4.16,3.32,0,2.13,1.57,3.4,4.21,3.4,2.37,0,3.83-1.02,4.37-3.03,1.15.64,2.13,1.31,2.92,1.99l.41.36.32-.45.78-1.1.27-.38-.37-.3c-1.17-.95-2.59-1.83-4.13-2.55v-6.08h0ZM82.66,323.85c-1.96,0-1.96-.95-1.96-1.31,0-.95,1.25-1.2,1.91-1.2s1.42.21,2.23.64c-.09.91-.57,1.87-2.19,1.87h0Z"/>
    </g>
    <g>
      <path class="cls-6" d="M104.22,324.89c-2.44,0-3.92-.28-4.79-.89-.87-.63-1.22-1.51-1.22-3.02v-5.95l-.77.1c-.98.13-2.11.28-3.12.44l-.29.05v-1.94l.21-.03c1.33-.19,2.67-.36,3.96-.51v-5.14h1.84v4.93c1.81-.2,4.36-.42,6.43-.56,0-1.77-.04-3.3-.11-4.56l-.02-.26h1.86v.24c.09,1.37.12,2.78.12,4.45l.42-.02c1.02-.04,2.2-.09,3.15-.11h.25s0,1.93,0,1.93h-.25c-1.07,0-2.24.03-3.57.1-.01,2.05-.19,3.52-.51,4.28-.44,1.11-1.38,1.67-2.78,1.67-.32,0-.81-.04-1.46-.11l-.22-.03v-1.84l.29.05c.53.09.95.15,1.3.15.66,0,1.09-.39,1.32-1.2.12-.5.18-1.46.19-2.86-2.05.14-4.62.36-6.43.56v5.76c0,1.28.4,1.72.99,1.98.54.26,1.7.4,3.18.4,2.46,0,4.49-.13,6.04-.4l.29-.05v2.01l-.21.03c-1.46.23-3.35.34-6.12.34ZM110.13,311.2c-.2-.82-.66-1.97-1.02-2.57l-.15-.25,1.45-.6.11.19c.36.62.89,1.88,1.1,2.65l.06.21-1.48.66-.07-.29ZM112.27,310.46c-.19-.78-.6-1.81-1-2.53l-.14-.25,1.45-.59.11.2c.58,1.08.93,1.94,1.08,2.64l.04.2-1.47.62-.07-.29Z"/>
      <path class="cls-7" d="M112.47,307.41c.49.92.89,1.81,1.05,2.57l-1.01.43c-.2-.83-.63-1.88-1.03-2.59l.98-.4M107.98,307.79c.09,1.68.11,3.26.11,4.69,1.14-.05,2.66-.11,3.82-.13v1.43c-1.23,0-2.53.04-3.82.11,0,2.19-.18,3.69-.49,4.42-.4,1.01-1.25,1.52-2.55,1.52-.34,0-.85-.05-1.43-.11v-1.32c.51.09.96.16,1.34.16.76,0,1.3-.45,1.56-1.38.13-.56.2-1.63.2-3.2-2.06.13-4.94.38-6.93.6v5.99c0,1.3.38,1.88,1.14,2.21.56.27,1.7.42,3.29.42,2.48,0,4.51-.13,6.08-.4v1.5c-1.54.25-3.53.33-6.08.33-2.28,0-3.8-.25-4.65-.85-.74-.54-1.12-1.3-1.12-2.82v-6.23c-1.14.16-2.77.36-4.18.58v-1.43c1.41-.2,2.82-.38,4.18-.54v-5.12h1.34v4.96c1.99-.22,4.87-.47,6.93-.6,0-1.41-.02-3.22-.11-4.8h1.36M110.3,308.1c.36.6.87,1.85,1.07,2.59l-1.01.45c-.2-.83-.67-2.01-1.05-2.64l.98-.4M112.7,306.78l-.42.17-.98.4-.52.21.28.49c.39.7.79,1.71.98,2.47l.14.57.54-.23,1.01-.43.38-.16-.08-.4c-.15-.72-.51-1.6-1.1-2.7l-.21-.4h0ZM108.45,307.29h-2.37l.03.53c.08,1.44.11,3.06.11,4.31-1.91.13-4.2.33-5.93.51v-4.9h-2.34v5.17c-1.28.15-2.54.31-3.75.49l-.43.06v2.45l.58-.09c1-.16,2.11-.31,3.09-.44.17-.02.34-.05.51-.07v5.66c0,1.58.4,2.55,1.32,3.22.92.65,2.44.94,4.94.94,2.78,0,4.68-.11,6.16-.34l.42-.07v-2.52l-.58.1c-1.53.26-3.54.4-5.99.4-2.06,0-2.83-.26-3.07-.38-.55-.24-.86-.6-.86-1.76v-5.54c1.7-.18,4-.38,5.92-.52-.02,1.52-.11,2.22-.18,2.54-.25.89-.71,1-1.08,1-.33,0-.74-.06-1.26-.15l-.59-.1v2.36l.44.05c.67.08,1.16.12,1.49.12,1.88,0,2.68-1,3.01-1.83.32-.76.5-2.15.52-4.13,1.24-.06,2.33-.09,3.32-.09h.5v-2.44h-.51c-.97.03-2.16.08-3.21.12h-.1c0-1.55-.04-2.9-.11-4.19l-.03-.47h0ZM110.51,307.48l-.4.16-.98.4-.54.22.3.5c.35.57.8,1.72.99,2.5l.14.58.55-.24,1.01-.45.39-.17-.11-.41c-.22-.79-.75-2.09-1.13-2.72l-.22-.37h0Z"/>
    </g>
  </g>
  <g>
    <g>
      <path class="cls-6" d="M273.61,44.52c-2.52,0-3.96-1.15-3.96-3.15,0-2.26,2.11-3.07,3.91-3.07.58,0,1.42.16,2.54.49v-5.3h1.84v5.99c1.57.73,3.03,1.62,4.22,2.58l.18.15-1.08,1.51-.21-.18c-.87-.75-1.96-1.48-3.25-2.18-.44,2.09-1.85,3.15-4.21,3.15ZM273.57,39.92c-.8,0-2.16.3-2.16,1.45,0,1.04.74,1.56,2.21,1.56s2.38-.8,2.45-2.26c-.91-.49-1.75-.74-2.49-.74ZM264.75,40.27l.1-.2c1.53-2.9,2.75-5.8,3.65-8.62h0c-1.05.04-2.36.1-3.4.1h-.25v-1.77h.25c1.17,0,2.4-.04,3.86-.1.35-1.21.7-2.51.93-3.52l.05-.23,1.88.3-.06.26c-.22.99-.53,2.03-.86,3.1,1.48-.07,2.9-.22,4.33-.45l.29-.05v1.8l-.21.03c-1.42.22-3.03.37-4.92.46-.88,3.32-2.17,6.61-3.84,9.77l-.13.25-1.67-1.13ZM281.66,34.62c-1.06-1.32-2.2-2.5-3.38-3.52l-.2-.17,1.22-1.25.18.14c1.36,1.08,2.49,2.22,3.46,3.46l.12.16-1.2,1.42-.19-.24Z"/>
      <path class="cls-7" d="M270.13,26.2l1.39.22c-.25,1.12-.63,2.35-.96,3.42,1.68-.07,3.2-.22,4.71-.47v1.3c-1.43.22-3.06.38-5.07.47-.85,3.26-2.14,6.64-3.87,9.9l-1.25-.85c1.54-2.93,2.84-5.97,3.78-9.01-1.1.04-2.59.11-3.75.11v-1.27c1.23,0,2.5-.04,4.04-.11.34-1.14.72-2.55.98-3.71M279.31,30.02c1.34,1.07,2.46,2.19,3.42,3.42l-.87,1.03c-1.07-1.34-2.21-2.52-3.42-3.55l.87-.89M277.7,33.75v5.9c1.63.74,3.13,1.65,4.31,2.61l-.78,1.1c-.96-.83-2.19-1.63-3.6-2.37-.29,1.9-1.34,3.28-4.02,3.28-1.99,0-3.71-.78-3.71-2.9,0-1.99,1.81-2.82,3.66-2.82.63,0,1.56.2,2.79.58v-5.38h1.34M273.61,43.18c1.74,0,2.68-1.03,2.7-2.66-1.03-.58-1.94-.85-2.75-.85-1.12,0-2.41.49-2.41,1.7,0,1.39,1.14,1.81,2.46,1.81M269.74,25.63l-.11.46c-.22.96-.54,2.18-.88,3.34-1.38.06-2.55.1-3.66.1h-.5v2.27h.5c.94,0,2.08-.04,3.06-.08-.88,2.7-2.07,5.47-3.53,8.24l-.21.4.37.25,1.25.85.46.31.26-.49c1.65-3.12,2.93-6.37,3.81-9.65,1.81-.09,3.37-.24,4.76-.46l.42-.07v-2.31l-.58.09c-1.3.21-2.6.35-3.95.43.29-.96.57-1.89.76-2.78l.11-.52-.52-.08-1.39-.22-.46-.07h0ZM279.27,29.34l-.32.32-.87.89-.37.38.41.35c1.18,1,2.3,2.17,3.35,3.48l.38.47.39-.46.87-1.03.26-.31-.25-.32c-.98-1.26-2.13-2.4-3.5-3.5l-.35-.28h0ZM278.2,33.25h-2.34v5.22c-.99-.28-1.74-.41-2.29-.41-2.53,0-4.16,1.3-4.16,3.32,0,2.13,1.57,3.4,4.21,3.4,2.37,0,3.83-1.02,4.37-3.03,1.15.64,2.13,1.31,2.92,1.99l.41.36.32-.45.78-1.1.27-.38-.37-.3c-1.17-.95-2.59-1.83-4.13-2.55v-6.08h0ZM273.61,42.68c-1.96,0-1.96-.95-1.96-1.31,0-.95,1.25-1.2,1.91-1.2s1.42.21,2.23.64c-.09.91-.57,1.87-2.19,1.87h0Z"/>
    </g>
    <g>
      <path class="cls-6" d="M295.17,43.72c-2.44,0-3.92-.28-4.79-.9-.87-.63-1.22-1.51-1.22-3.02v-5.95l-.77.1c-.98.13-2.11.28-3.12.44l-.29.05v-1.94l.21-.03c1.33-.19,2.67-.36,3.96-.51v-5.14h1.84v4.93c1.82-.2,4.38-.42,6.43-.56,0-1.27-.02-3.02-.11-4.56v-.26s1.85,0,1.85,0v.24c.08,1.36.12,2.78.12,4.45h.33c1.04-.06,2.26-.11,3.23-.12h.25s0,1.93,0,1.93h-.25c-1.05,0-2.22.03-3.57.1-.01,2.05-.19,3.52-.51,4.28-.44,1.11-1.38,1.67-2.78,1.67-.32,0-.79-.04-1.46-.11l-.22-.03v-1.84l.29.05c.53.09.95.15,1.3.15.66,0,1.09-.39,1.32-1.2.12-.5.18-1.46.19-2.86-2.06.14-4.62.36-6.43.56v5.76c0,1.28.4,1.72.99,1.98.32.15,1.15.4,3.18.4,2.46,0,4.49-.13,6.04-.4l.29-.05v2.01l-.21.03c-1.47.23-3.35.34-6.12.34ZM301.08,30.03c-.2-.81-.66-1.96-1.02-2.57l-.15-.25,1.45-.59.11.19c.36.61.89,1.88,1.1,2.65l.06.21-1.47.66-.07-.29ZM303.22,29.29c-.19-.77-.6-1.81-1-2.53l-.14-.25,1.45-.6.11.2c.58,1.08.93,1.94,1.08,2.64l.04.2-1.46.62-.07-.29Z"/>
      <path class="cls-7" d="M303.42,26.24c.49.92.89,1.81,1.05,2.57l-1.01.43c-.2-.83-.63-1.88-1.03-2.59l.98-.4M298.93,26.62c.09,1.68.11,3.26.11,4.69,1.14-.05,2.66-.11,3.82-.13v1.43c-1.23,0-2.53.04-3.82.11,0,2.19-.18,3.69-.49,4.42-.4,1.01-1.25,1.52-2.55,1.52-.34,0-.85-.05-1.43-.11v-1.32c.51.09.96.16,1.34.16.76,0,1.3-.45,1.56-1.38.13-.56.2-1.63.2-3.2-2.06.13-4.94.38-6.93.6v5.99c0,1.3.38,1.88,1.14,2.21.56.27,1.7.42,3.28.42,2.48,0,4.51-.13,6.08-.4v1.5c-1.54.25-3.53.33-6.08.33-2.28,0-3.8-.25-4.65-.85-.74-.54-1.12-1.3-1.12-2.82v-6.23c-1.14.16-2.77.36-4.18.58v-1.43c1.41-.2,2.82-.38,4.18-.54v-5.12h1.34v4.96c1.99-.22,4.87-.47,6.93-.6,0-1.41-.02-3.22-.11-4.8h1.36M301.25,26.93c.36.6.87,1.85,1.07,2.59l-1.01.45c-.2-.83-.67-2.01-1.05-2.64l.98-.4M303.65,25.61l-.42.17-.98.4-.52.21.28.49c.39.7.79,1.71.98,2.47l.14.57.54-.23,1.01-.43.38-.16-.08-.4c-.15-.72-.51-1.6-1.1-2.7l-.21-.4h0ZM299.4,26.12h-2.37l.03.53c.08,1.44.11,3.07.11,4.31-1.91.13-4.2.33-5.93.51v-4.9h-2.34v5.17c-1.28.15-2.54.31-3.75.49l-.43.06v2.45l.58-.09c1-.16,2.11-.31,3.09-.44.17-.02.34-.05.51-.07v5.66c0,1.58.4,2.54,1.32,3.22.92.65,2.44.94,4.94.94,2.78,0,4.68-.11,6.16-.34l.42-.07v-2.52l-.58.1c-1.53.26-3.54.4-5.99.4-2.06,0-2.83-.26-3.07-.38-.55-.24-.86-.6-.86-1.76v-5.54c1.7-.18,4-.38,5.92-.52-.02,1.52-.11,2.22-.18,2.54-.25.89-.71,1-1.08,1-.33,0-.74-.06-1.26-.15l-.59-.1v2.36l.44.05c.67.08,1.16.12,1.49.12,1.88,0,2.68-1,3.01-1.83.32-.76.5-2.15.52-4.13,1.24-.06,2.33-.09,3.32-.09h.5v-2.44h-.51c-.97.03-2.16.08-3.21.12h-.1c0-1.55-.04-2.9-.11-4.19l-.03-.47h0ZM301.46,26.31l-.4.16-.98.4-.54.22.3.5c.35.57.8,1.72.99,2.5l.14.58.55-.24,1.01-.45.39-.17-.11-.41c-.22-.79-.75-2.09-1.12-2.72l-.22-.37h0Z"/>
    </g>
  </g>
  <g>
    <g>
      <path class="cls-4" d="M144.25,75.64l.39-.32c2.42-1.98,4.17-3.93,5.48-6.1-1.71-1.59-3.3-2.98-4.75-4.12l-.28-.22.12-.34c.94-2.61,1.73-5.46,2.4-8.69h-3.01v-2.89h3.57c.31-1.88.59-3.9.89-6.32l.06-.49,3.17.35-.12.82c-.29,1.99-.56,3.89-.88,5.64h5.91l-.04.54c-.19,2.38-.41,4.55-.72,6.56h6.86v-5.07h1.32c1.19-1.18,2.77-2.91,3.86-4.45h-11.43v-2.89h14.13l1.93,1.75-.22.36c-1.39,2.21-4.06,5.43-6.4,7.73v2.58h7.44v2.92h-7.44v11.23c0,2.47-1.03,3.35-3.93,3.35-1.12,0-1.84-.07-2.68-.15l-.97-.09-.54-3.42,1.19.18c.93.14,1.73.26,2.57.26,1.18,0,1.18-.15,1.18-.7v-10.64h-7.27v-.65c-.47,2.25-1.11,4.3-2.01,6.27,1.55,1.43,3.12,2.93,4.34,4.15l.31.31-2.08,2.67-.4-.44c-1.1-1.22-2.38-2.54-3.71-3.83-1.49,2.31-3.4,4.38-5.82,6.29l-.38.3-2.01-2.41ZM148.72,63.84c.88.75,1.84,1.6,2.83,2.48,1.16-2.88,1.86-6.25,2.16-10.49h-2.97c-.61,2.91-1.25,5.47-2.03,8.01Z"/>
      <path class="cls-5" d="M149.55,46.7l2.16.24c-.34,2.37-.65,4.53-1.03,6.51h5.97c-.45,5.66-1.1,10.73-3.26,15.26,1.71,1.58,3.36,3.15,4.59,4.39l-1.44,1.85c-1.23-1.37-2.67-2.85-4.18-4.29-1.44,2.37-3.39,4.59-6.03,6.69l-1.37-1.65c2.47-2.02,4.35-4.08,5.79-6.58-1.68-1.58-3.43-3.12-5.07-4.42,1.06-2.95,1.89-6.1,2.54-9.36h-3.12v-1.89h3.5c.38-2.23.69-4.49.96-6.75M154.25,55.34h-3.91c-.62,3.02-1.3,5.79-2.19,8.67,1.1.93,2.33,2.02,3.6,3.15,1.37-3.12,2.19-6.89,2.5-11.83M170.98,48.14l1.47,1.34c-1.41,2.23-4.11,5.49-6.48,7.78v3.29h7.44v1.92h-7.44v11.73c0,2.19-.79,2.85-3.43,2.85-1.34,0-2.09-.1-3.22-.21l-.38-2.37c1.17.17,2.13.34,3.15.34,1.27,0,1.68-.21,1.68-1.2v-11.14h-7.27v-1.92h7.27v-5.07h1.03c1.58-1.54,3.53-3.74,4.59-5.45h-11.86v-1.89h13.44M148.68,45.59l-.12.98c-.27,2.23-.53,4.12-.82,5.88h-3.65v3.89h2.89c-.64,2.96-1.38,5.6-2.25,8.02l-.24.68.56.45c1.35,1.07,2.83,2.35,4.42,3.82-1.26,1.99-2.91,3.79-5.15,5.63l-.78.64.65.77,1.37,1.65.62.75.76-.61c2.28-1.81,4.12-3.75,5.59-5.9,1.17,1.15,2.28,2.31,3.26,3.39l.8.89.73-.94.64-.82.36,2.25.12.77.77.07.58.06c.85.08,1.59.15,2.73.15,2.66,0,4.43-.65,4.43-3.85v-10.73h7.44v-3.92h-7.44v-1.87c2.33-2.31,4.94-5.48,6.33-7.67l.45-.71-.62-.56-1.47-1.34-.29-.26h-14.83v3.89h10.93c-.96,1.23-2.12,2.5-3.07,3.45h-1.62v5.07h-5.77c.27-1.86.47-3.85.64-6.02l.09-1.08h-5.85c.27-1.59.52-3.29.78-5.07l.04-.31.15-1.02-1.03-.11-2.16-.24-.98-.11h0ZM151.15,56.34h2.02c-.29,3.62-.88,6.58-1.82,9.14-.73-.65-1.41-1.25-2.06-1.8.7-2.33,1.3-4.69,1.86-7.34h0ZM156.26,63.47h6.51v10.14c0,.07,0,.12,0,.16-.1.02-.3.04-.67.04-.8,0-1.59-.12-2.5-.26l-.51-.08-.12-.02.35-.45-.62-.62c-1.16-1.16-2.62-2.56-4.09-3.92.7-1.59,1.24-3.24,1.66-5h0Z"/>
    </g>
    <g>
      <path class="cls-4" d="M190.42,76.2c-3.39,0-5.69-.42-7.25-1.34-1.75-1.01-2.68-2.61-2.68-4.62,0-1.67.64-3.02,1.85-3.93,1.54-1.14,3.94-1.71,7.12-1.71,1.51,0,3.38.33,5.7,1.02-.98-1.76-1.77-3.27-2.33-4.44-4.43.57-8.62.92-12.78,1.09l-.49.02-.16-2.86h.52c3.49-.1,7.35-.38,11.78-.86-.28-.68-.67-1.57-1.01-2.34l-.37-.85c-3.87.42-6.83.62-9.56.65h-.49s-.11-2.81-.11-2.81h.51c2.54-.03,5.34-.18,8.55-.46-.26-.68-.52-1.36-.77-2.02-.28-.74-.55-1.47-.84-2.19l-.2-.52,2.96-.82.16.43c.21.57.43,1.15.64,1.73.36.98.73,1.98,1.1,2.95,2.2-.23,4.66-.53,6.73-1.01l.51-.12.49,2.75-.48.1c-1.78.37-3.8.67-6.15.9.53,1.34,1,2.37,1.4,3.21,2.33-.31,4.67-.69,6.81-1.11l.5-.1.47,2.84-.48.09c-1.23.24-3.26.57-6.12.86l.04.09c.94,1.92,2.11,4.31,3.19,6.23l.2.36-2.02,1.69-.27-.1c-2.67-1-5.25-1.51-7.64-1.51-2.07,0-3.64.27-4.67.8-.85.46-1.27,1.1-1.27,1.96,0,.96.54,1.71,1.6,2.23,1.1.54,2.9.81,5.34.81,1.84,0,3.86-.14,6.18-.44l.56-.07v2.99l-.43.06c-1.8.26-3.83.38-6.38.38Z"/>
      <path class="cls-5" d="M190.08,47.83c.62,1.65,1.23,3.39,1.89,5.04,2.67-.27,5.11-.58,7.17-1.06l.31,1.75c-1.99.41-4.22.72-6.75.96.69,1.78,1.27,3.05,1.82,4.18,2.64-.34,5.11-.75,7.2-1.17l.31,1.85c-1.61.31-3.91.65-6.79.93.96,1.95,2.33,4.8,3.57,6.99l-1.47,1.23c-2.74-1.03-5.35-1.54-7.82-1.54-2.23,0-3.84.31-4.9.86-1.03.55-1.54,1.37-1.54,2.4,0,1.13.62,2.06,1.89,2.67,1.2.58,3.09.86,5.55.86,1.82,0,3.84-.14,6.24-.45v1.99c-1.89.27-3.98.38-6.31.38-3.09,0-5.42-.34-6.99-1.27-1.54-.89-2.43-2.3-2.43-4.18,0-1.51.55-2.71,1.65-3.53,1.44-1.06,3.74-1.61,6.82-1.61,1.68,0,3.91.45,6.75,1.37-1.3-2.3-2.4-4.35-3.09-5.83-4.49.58-8.81.96-13.1,1.13l-.1-1.85c4.05-.1,8.2-.45,12.48-.93-.38-.96-1.37-3.19-1.78-4.15-3.43.38-6.72.65-9.88.69l-.07-1.82c3.36-.03,6.62-.27,9.26-.51-.65-1.65-1.23-3.26-1.85-4.83l1.99-.55M190.69,46.62l-.88.24-1.99.55-1.07.3.4,1.03c.28.72.56,1.45.83,2.18.18.47.35.93.53,1.41-2.92.24-5.5.37-7.85.4h-1.03s.04,1.04.04,1.04l.07,1.82.04.97h.97c2.65-.04,5.53-.23,9.24-.62.07.16.15.33.23.51.24.54.51,1.16.74,1.71-4.14.44-7.77.69-11.07.78l-1.03.03.06,1.03.1,1.85.05.98.98-.04c4.06-.16,8.15-.5,12.47-1.05.43.88.97,1.92,1.61,3.09-1.85-.48-3.39-.72-4.69-.72-3.3,0-5.79.61-7.42,1.81-1.34,1.01-2.05,2.51-2.05,4.34,0,2.19,1.01,3.94,2.93,5.05,1.65.97,3.96,1.4,7.49,1.4,2.58,0,4.63-.12,6.45-.39l.86-.12v-3.99l-1.13.14c-2.29.29-4.29.44-6.11.44-2.36,0-4.08-.25-5.12-.76-1.32-.64-1.32-1.5-1.32-1.78,0-.42.11-1.03,1.01-1.52.93-.48,2.47-.74,4.43-.74,2.34,0,4.85.5,7.47,1.48l.55.2.45-.37,1.47-1.23.64-.53-.41-.72c-.97-1.73-2.02-3.85-2.91-5.66,2.5-.27,4.31-.57,5.45-.79l.96-.18-.16-.96-.31-1.85-.17-1.02-1.01.2c-2.02.4-4.22.76-6.42,1.06-.3-.63-.63-1.36-.99-2.23,2.09-.23,3.91-.51,5.54-.84l.95-.2-.17-.96-.31-1.75-.18-1.04-1.03.24c-1.92.45-4.2.74-6.28.96-.33-.85-.65-1.73-.96-2.58-.22-.59-.43-1.17-.64-1.74l-.32-.86h0Z"/>
    </g>
  </g>
  <g>
    <path class="cls-2" d="M5.35,395.98c.66.18,1.46.34,2.17.34,1.17,0,1.92-.71,2.29-2.15.25-.89.34-2.33.34-4.35,0-1.33-.21-2.29-.5-2.93-.32-.69-.96-1.03-1.79-1.03-.71,0-1.51.05-2.43.14-.85,4.26-2.11,8.08-3.73,11.4l-1.37-.69c1.67-3.2,2.86-6.73,3.69-10.57-.89.11-2.36.32-3.57.5l-.16-1.42c1.28-.18,2.56-.34,3.94-.48.21-1.35.48-3.02.64-4.46l1.44.11c-.14,1.3-.41,2.77-.69,4.23,1.08-.11,1.76-.14,2.24-.14,1.26,0,2.15.39,2.75,1.17.69.85,1.01,2.24,1.01,4.17,0,2.61-.23,4.51-.66,5.65-.62,1.53-1.72,2.31-3.36,2.31-.8,0-1.56-.11-2.24-.34v-1.46ZM16.57,392.52c-.6-2.82-1.65-5.52-3.14-8.1l1.28-.64c1.58,2.52,2.68,5.22,3.32,8.03l-1.46.71Z"/>
    <path class="cls-2" d="M30.73,396.39c2.24-.23,3.94-.75,5.04-1.58,1.24-.96,1.85-2.4,1.85-4.28,0-1.28-.34-2.33-1.1-3.14-.82-.89-1.95-1.35-3.41-1.35-1.69,0-3.87,1.33-6.29,3.55v8.86h-1.37v-7.69c-1.1,1.35-2.86,3.52-4.1,5.17l-.89-1.37c1.44-1.72,3.04-3.48,4.99-5.52v-3.18c-1.44.34-2.75.5-4.03.59v-1.4c1.24-.02,2.61-.16,4.03-.37.02-1.42.05-3.11.14-4.49h1.37c-.09,1.6-.14,3.27-.14,4.26l.82-.48.48.57-1.3,1.53v1.9c2.38-2.2,4.39-3.3,6.34-3.3s3.41.5,4.42,1.51c.98,1.01,1.49,2.43,1.49,4.3,0,2.38-.76,4.23-2.31,5.47-1.3,1.05-3.07,1.67-5.4,1.85l-.62-1.44Z"/>
    <path class="cls-2" d="M50.46,392.73c-.55,1.4-1.12,2.54-1.72,3.3-.66.87-1.35,1.3-2.04,1.3-1.03,0-1.95-.69-2.61-2.06-.73-1.46-1.05-3.37-1.05-5.68,0-2.59.11-5.13.3-7.58l1.6.16c-.25,2.31-.34,4.78-.34,7.39.02,1.51.18,2.84.5,3.94.41,1.28.94,1.95,1.58,1.95.48,0,.94-.5,1.49-1.42.41-.69.78-1.4,1.14-2.38l1.14,1.08ZM57.89,394.35c-.32-4.03-1.12-6.89-2.86-10.35l1.4-.53c1.95,3.41,2.95,6.96,3.14,10.44l-1.67.43Z"/>
    <path class="cls-2" d="M71.51,392.73c-.55,1.4-1.12,2.54-1.72,3.3-.66.87-1.35,1.3-2.04,1.3-1.03,0-1.95-.69-2.61-2.06-.73-1.46-1.05-3.37-1.05-5.68,0-2.59.11-5.13.3-7.58l1.6.16c-.25,2.31-.34,4.78-.34,7.39.02,1.51.18,2.84.5,3.94.41,1.28.94,1.95,1.58,1.95.48,0,.94-.5,1.49-1.42.41-.69.78-1.4,1.14-2.38l1.14,1.08ZM78.95,394.35c-.32-4.03-1.12-6.89-2.86-10.35l1.4-.53c1.95,3.41,2.95,6.96,3.14,10.44l-1.67.43Z"/>
  </g>
  <g>
    <path class="cls-2" d="M52.56,100.35c.66.18,1.46.34,2.17.34,1.17,0,1.92-.71,2.29-2.15.25-.89.34-2.33.34-4.35,0-1.33-.21-2.29-.5-2.93-.32-.69-.96-1.03-1.79-1.03-.71,0-1.51.05-2.43.14-.85,4.26-2.11,8.08-3.73,11.4l-1.37-.69c1.67-3.2,2.86-6.73,3.69-10.57-.89.11-2.36.32-3.57.5l-.16-1.42c1.28-.18,2.56-.34,3.94-.48.21-1.35.48-3.02.64-4.46l1.44.11c-.14,1.3-.41,2.77-.69,4.23,1.08-.11,1.76-.14,2.24-.14,1.26,0,2.15.39,2.75,1.17.69.85,1.01,2.24,1.01,4.17,0,2.61-.23,4.51-.66,5.65-.62,1.53-1.72,2.31-3.36,2.31-.8,0-1.56-.11-2.24-.34v-1.46ZM63.78,96.89c-.6-2.82-1.65-5.52-3.14-8.1l1.28-.64c1.58,2.52,2.68,5.22,3.32,8.03l-1.46.71Z"/>
    <path class="cls-2" d="M77.94,100.76c2.24-.23,3.94-.76,5.04-1.58,1.24-.96,1.85-2.4,1.85-4.28,0-1.28-.34-2.33-1.1-3.14-.82-.89-1.95-1.35-3.41-1.35-1.69,0-3.87,1.33-6.29,3.55v8.86h-1.37v-7.69c-1.1,1.35-2.86,3.52-4.1,5.17l-.89-1.37c1.44-1.72,3.04-3.48,4.99-5.52v-3.18c-1.44.34-2.75.5-4.03.6v-1.4c1.24-.02,2.61-.16,4.03-.37.02-1.42.05-3.11.14-4.49h1.37c-.09,1.6-.14,3.27-.14,4.26l.82-.48.48.57-1.3,1.53v1.9c2.38-2.2,4.39-3.3,6.34-3.3s3.41.5,4.42,1.51c.98,1.01,1.49,2.43,1.49,4.3,0,2.38-.76,4.23-2.31,5.47-1.3,1.05-3.07,1.67-5.4,1.85l-.62-1.44Z"/>
    <path class="cls-2" d="M97.66,97.1c-.55,1.4-1.12,2.54-1.72,3.3-.66.87-1.35,1.3-2.04,1.3-1.03,0-1.95-.69-2.61-2.06-.73-1.46-1.05-3.36-1.05-5.68,0-2.59.11-5.13.3-7.58l1.6.16c-.25,2.31-.34,4.78-.34,7.39.02,1.51.18,2.84.5,3.94.41,1.28.94,1.95,1.58,1.95.48,0,.94-.5,1.49-1.42.41-.69.78-1.4,1.14-2.38l1.14,1.08ZM105.1,98.72c-.32-4.03-1.12-6.89-2.86-10.35l1.4-.53c1.95,3.41,2.95,6.96,3.14,10.44l-1.67.44Z"/>
    <path class="cls-2" d="M118.72,97.1c-.55,1.4-1.12,2.54-1.72,3.3-.66.87-1.35,1.3-2.04,1.3-1.03,0-1.95-.69-2.61-2.06-.73-1.46-1.05-3.36-1.05-5.68,0-2.59.11-5.13.3-7.58l1.6.16c-.25,2.31-.34,4.78-.34,7.39.02,1.51.18,2.84.5,3.94.41,1.28.94,1.95,1.58,1.95.48,0,.94-.5,1.49-1.42.41-.69.78-1.4,1.14-2.38l1.14,1.08ZM126.16,98.72c-.32-4.03-1.12-6.89-2.86-10.35l1.4-.53c1.95,3.41,2.95,6.96,3.14,10.44l-1.67.44Z"/>
  </g>
  <g>
    <path class="cls-3" d="M46.55,5.7v32.48c0,3.24-1.5,4.5-4.84,4.6h-.97c-1.26,0-2.61-.15-4.21-.29l-.87-3.49c2.23.34,3.78.48,5.23.48,1.65,0,2.28-.44,2.28-1.55V5.7H14.21v-2.86h37.81v2.86h-5.47ZM21.96,29.9v3.68h-3.29V11.94h16.7v17.96h-13.41ZM21.96,27.14h10.02v-12.44h-10.02v12.44Z"/>
    <path class="cls-3" d="M96.12,42.68c-6.63-.73-12.73-2.32-18.01-5.03-5.08,2.61-11.04,4.41-18.78,5.37l-1.02-2.71c6.49-.53,12.15-1.99,16.99-4.26-2.37-1.5-4.55-3.29-6.49-5.32-2.37,1.84-5.04,3.44-7.94,4.65l-1.5-2.47c5.28-2.08,9.73-5.37,12.83-9.59-1.99-.44-2.18-1.4-2.18-3.24v-5.71h2.9v4.99c0,1.36.44,1.74,5.08,1.74,3.24,0,4.7,0,5.47-.92.48-.58.68-1.5.92-2.95l2.71,1.45c-1.02,4.5-1.89,4.99-9.15,5.04h-2.28c-.77,1.02-1.6,2.03-2.52,3h14.52l1.99,2.08c-2.76,2.86-5.57,5.28-8.76,7.26,4.84,2.18,10.36,3.34,16.56,3.78l-1.36,2.86ZM94.38,2.65c-5.37.97-10.65,1.69-16.07,2.18.73,1.5,1.45,3.39,1.94,4.99h5.32c.97-1.69,1.84-3.87,2.66-5.86l3,.73c-.68,1.55-1.6,3.44-2.47,5.13h7.55v8.33h-3.1v-5.71h-31.03v5.95h-3.15v-8.57h7.89c-.58-1.55-1.07-2.86-1.69-4.21-1.21,0-2.42.05-3.63.05l-1.02-2.61c11.81-.15,22.75-.77,31.61-2.76l2.18,2.37ZM68.53,16.98c-1.31,2.9-3.29,6.29-5.47,8.76l-2.28-1.94c1.84-1.94,3.87-4.79,5.13-8.04l2.61,1.21ZM68.38,5.5c.58,1.26,1.26,2.86,1.74,4.31h6.87c-.44-1.45-1.11-3.24-1.84-4.74-2.23.19-4.5.34-6.78.44ZM70.85,29.08c2.18,2.23,4.6,4.02,7.21,5.52,2.76-1.55,5.18-3.39,7.31-5.52h-14.52ZM80.34,18.91c-1.5-1.6-3.29-3.1-4.94-4.16l1.6-1.89c1.36.87,3.68,2.66,5.13,4.11l-1.79,1.94ZM92.68,24.92c-1.4-2.57-3.87-6.29-5.47-8.13l2.37-1.45c1.89,2.32,3.58,4.65,5.66,7.94l-2.57,1.65Z"/>
    <path class="cls-3" d="M121.43,29.13c-1.16,2.95-2.37,5.37-3.63,6.97-1.4,1.84-2.86,2.76-4.31,2.76-2.18,0-4.11-1.45-5.52-4.36-1.55-3.1-2.23-7.12-2.23-12.01,0-5.47.24-10.84.63-16.02l3.39.34c-.53,4.89-.73,10.12-.73,15.64.05,3.2.39,6,1.07,8.33.87,2.71,1.99,4.11,3.34,4.11,1.02,0,1.98-1.06,3.15-3,.87-1.45,1.65-2.95,2.42-5.03l2.42,2.28ZM137.17,32.57c-.68-8.52-2.37-14.57-6.05-21.88l2.95-1.11c4.11,7.21,6.25,14.72,6.63,22.08l-3.53.92Z"/>
  </g>
  <g>
    <path class="cls-1" d="M117.26,451.93c-8.1-.89-15.55-2.84-21.99-6.15-6.21,3.19-13.48,5.38-22.94,6.56l-1.24-3.31c7.92-.65,14.84-2.42,20.75-5.2-2.9-1.83-5.56-4.02-7.92-6.5-2.9,2.25-6.15,4.2-9.69,5.67l-1.83-3.02c6.44-2.54,11.88-6.56,15.67-11.7-2.42-.53-2.66-1.71-2.66-3.96v-6.98h3.55v6.09c0,1.66.53,2.13,6.21,2.13,3.96,0,5.73,0,6.68-1.12.59-.71.83-1.83,1.12-3.61l3.31,1.77c-1.24,5.5-2.3,6.09-11.17,6.15h-2.78c-.95,1.24-1.95,2.48-3.07,3.66h17.73l2.42,2.54c-3.37,3.49-6.8,6.44-10.7,8.87,5.91,2.66,12.65,4.08,20.22,4.61l-1.66,3.49ZM115.13,403.04c-6.56,1.18-13,2.07-19.62,2.66.89,1.83,1.77,4.14,2.36,6.09h6.5c1.18-2.07,2.25-4.73,3.25-7.15l3.67.89c-.83,1.89-1.95,4.2-3.01,6.27h9.22v10.17h-3.78v-6.97h-37.89v7.27h-3.84v-10.46h9.64c-.71-1.89-1.3-3.49-2.07-5.14-1.48,0-2.96.06-4.43.06l-1.24-3.19c14.42-.18,27.78-.95,38.6-3.37l2.66,2.9ZM83.56,420.54c-1.6,3.55-4.02,7.68-6.68,10.7l-2.78-2.36c2.25-2.37,4.73-5.85,6.27-9.81l3.19,1.48ZM83.39,406.53c.71,1.54,1.54,3.49,2.13,5.26h8.39c-.53-1.77-1.36-3.96-2.25-5.79-2.72.24-5.5.41-8.28.53ZM86.4,435.32c2.66,2.72,5.62,4.91,8.81,6.74,3.37-1.89,6.33-4.14,8.93-6.74h-17.73ZM97.99,422.9c-1.83-1.95-4.02-3.78-6.03-5.08l1.95-2.3c1.66,1.06,4.49,3.25,6.27,5.02l-2.19,2.36ZM113.06,430.23c-1.71-3.13-4.73-7.68-6.68-9.93l2.9-1.77c2.3,2.84,4.37,5.67,6.92,9.69l-3.13,2.01Z"/>
    <path class="cls-1" d="M168.8,434.61c-2.42,4.26-5.02,7.63-8.1,10.17-3.72,3.07-7.8,4.61-12.12,4.61-4.02,0-7.09-1.06-9.4-3.07-2.54-2.19-3.78-5.44-3.78-9.69v-33.34h3.78v32.45c0,3.43.95,5.97,2.78,7.74,1.6,1.6,3.84,2.36,6.62,2.36,3.55,0,7.03-1.48,10.34-4.49,2.6-2.37,4.91-5.5,6.98-9.28l2.9,2.54Z"/>
    <path class="cls-1" d="M219.27,447.97h-4.97c-5.56,0-10.34-1.3-13.89-4.08-3.84-3.02-5.85-7.27-5.85-12.71,0-3.78,1.42-8.16,3.9-11.59,2.96-4.08,6.86-6.68,10.34-8.57-8.45.47-19.27,1.71-26.96,2.96l-.18-3.9c13.18-1.95,27.01-2.9,43.57-2.9l-.24,3.55c-1.83-.12-2.66-.12-4.55-.12-4.85,0-9.63,2.01-14.36,5.97-5.08,4.26-7.57,8.87-7.57,14.66,0,4.08,1.54,7.51,4.85,9.87,2.96,2.19,6.86,3.19,11.59,3.19h4.49l-.18,3.67Z"/>
    <path class="cls-1" d="M271.23,407.89c-3.55,3.9-10.23,10.34-17.08,15.84,1.89-.47,5.44-1.3,8.1-1.3,8.45,0,15.31,4.26,15.31,12.83,0,10.34-9.64,14.54-19.39,14.54s-11.11-5.32-11.11-7.57c0-4.32,3.67-6.38,7.8-6.38,5.91,0,9.22,3.61,11.23,9.34,5.2-2.54,7.86-5.85,7.86-10.05,0-5.97-6.21-8.87-11.64-8.87-4.61,0-8.99.77-13,2.6-2.9,1.3-5.32,3.37-8.57,6.09l-2.31-3.19c9.75-7.51,18.15-15.01,27.19-23.53-7.21.89-13.83,1.12-21.63,1.3v-3.67c7.74-.12,15.49-.47,24.65-1.24l2.6,3.25ZM254.85,438.63c-2.19,0-4.38,1.12-4.38,3.49,0,3.43,4.26,4.67,7.39,4.67,1.36,0,3.01-.24,4.91-.77-1.12-3.9-3.96-7.39-7.92-7.39Z"/>
  </g>
</svg>