<svg width="162" height="113" viewBox="0 0 162 113" fill="none" xmlns="http://www.w3.org/2000/svg">
<path d="M1.00827 26.4248L39.9683 1.00476L126.368 19.6448L160.258 73.8548L84.0182 111.125L7.78827 82.3248L1.00827 26.4248Z" fill="white" style="fill:white;fill-opacity:1;"/>
<path d="M84.0182 112.125C83.8982 112.125 83.7783 112.105 83.6683 112.065L7.42826 83.2648C7.07826 83.1348 6.83827 82.8148 6.78827 82.4448L0.00827223 26.5348C-0.0417278 26.1548 0.138254 25.7848 0.458254 25.5748L39.4183 0.164752C39.6383 0.0147524 39.9183 -0.0352479 40.1783 0.0247521L126.578 18.6648C126.838 18.7248 127.068 18.8848 127.218 19.1148L161.098 73.3248C161.248 73.5648 161.288 73.8548 161.208 74.1348C161.128 74.4048 160.938 74.6348 160.688 74.7548L84.4483 112.025C84.3083 112.095 84.1583 112.125 84.0083 112.125H84.0182ZM8.70825 81.6048L83.9683 110.035L158.818 73.4448L125.748 20.5348L40.1683 2.07475L2.07825 26.9148L8.70825 81.6048Z" fill="black" style="fill:black;fill-opacity:1;"/>
</svg>
