<?xml version="1.0" encoding="UTF-8"?>
<svg id="Layer_2" data-name="Layer 2" xmlns="http://www.w3.org/2000/svg" xmlns:xlink="http://www.w3.org/1999/xlink" viewBox="0 0 323.02 571.88">
  <defs>
    <style>
      .cls-1, .cls-2 {
        fill: #ff5f5f;
      }

      .cls-1, .cls-3 {
        stroke: #ffc23b;
      }

      .cls-1, .cls-3, .cls-4 {
        stroke-linejoin: round;
        stroke-width: 9px;
      }

      .cls-1, .cls-3, .cls-4, .cls-5 {
        stroke-linecap: round;
      }

      .cls-6 {
        fill: #fff;
      }

      .cls-3, .cls-5 {
        fill: none;
      }

      .cls-4 {
        fill: #ffc23b;
        stroke: #6d0b0b;
      }

      .cls-5 {
        stroke: #af6a3c;
        stroke-miterlimit: 10;
        stroke-width: 8.27px;
      }

      .cls-7 {
        clip-path: url(#clippath);
      }
    </style>
    <clipPath id="clippath">
      <path class="cls-1" d="M53.53,208.09s-17.09-71.29,55.5-89.19c0,0-12.69-42.63,15.19-59.54s27.4,14.42,27.4,14.42c0,0,10.16-23.01,24.68-19.43s9.68,27.22,9.68,27.22c0,0,20.01-18.67,34.93-17.28s10.45,13.81,10.45,13.81c0,0,23.35-37.93-30.85-55.42,0,0,19.01-31.53,55.47,10.09,0,0,17.02-41.08,62.55-24.17,0,0-29.96,19.54-24.64,79.93s25.79,96.43-37.92,154.63-168.06,28.87-179.77,12.07-17.2-27.14-22.68-47.13Z"/>
    </clipPath>
  </defs>
  <g id="Layer_1-2" data-name="Layer 1">
    <g>
      <line class="cls-5" x1="4.14" y1="93.25" x2="114.33" y2="567.75"/>
      <g>
        <path class="cls-2" d="M53.53,208.09s-17.09-71.29,55.5-89.19c0,0-12.69-42.63,15.19-59.54s27.4,14.42,27.4,14.42c0,0,10.16-23.01,24.68-19.43s9.68,27.22,9.68,27.22c0,0,20.01-18.67,34.93-17.28s10.45,13.81,10.45,13.81c0,0,23.35-37.93-30.85-55.42,0,0,19.01-31.53,55.47,10.09,0,0,17.02-41.08,62.55-24.17,0,0-29.96,19.54-24.64,79.93s25.79,96.43-37.92,154.63-168.06,28.87-179.77,12.07-17.2-27.14-22.68-47.13Z"/>
        <g class="cls-7">
          <circle class="cls-6" cx="255.97" cy="217.06" r="20.98"/>
          <circle class="cls-6" cx="243.2" cy="249.11" r="20.98"/>
          <ellipse class="cls-6" cx="235.4" cy="138.44" rx="18.79" ry="18.35"/>
          <ellipse class="cls-6" cx="180.88" cy="139.88" rx="10.15" ry="18.35" transform="translate(-44.28 100.02) rotate(-27.68)"/>
          <circle class="cls-6" cx="207.59" cy="71.33" r="21.17"/>
          <path class="cls-3" d="M126.09,104.48s34.63,2.68,57.71,57.66-1,93.08-1,93.08"/>
          <path class="cls-3" d="M114.91,67.57s37.29-2.48,34.78,41.17c0,0,1.51-20.57,17.06-9.03s-.47,26.56-.47,26.56"/>
          <path class="cls-3" d="M171.81,118.54s37.08,3.67,16.51,43.59c0,0,41.13-4.72,33.99,24.89s-27.77,25.54-27.77,25.54"/>
          <path class="cls-3" d="M220.51,193.06s36.75-5.96,9.68,44.67"/>
          <path class="cls-3" d="M196.11,220.59s42.87-5.97,25.7,42.7"/>
          <path class="cls-3" d="M185.15,85.25s32.41,6.27,17.17,45.87"/>
          <path class="cls-3" d="M193,132.63s37.53-6.46,30.41,39.31"/>
          <path class="cls-3" d="M239.53,197.55s23.75-19.68,39.8,20.67"/>
          <path class="cls-3" d="M203.92,90.98s19.49-13.09,26.99,5.27-14.3,39.26-14.3,39.26"/>
          <path class="cls-3" d="M226.36,123.1s16.99-7.61,25.38,8.79-27.44,29.7-27.44,29.7"/>
          <path class="cls-3" d="M247.99,151.28s34.48,9.24,16.39,40.63"/>
          <path class="cls-3" d="M251.74,131.89s31.51-12.32,32.18,12.68-10.53,27.37-10.53,27.37"/>
          <path class="cls-3" d="M283.92,144.57s15.36-17.5,21.32,3.75"/>
          <path class="cls-3" d="M259.72,92.9c1.19-21.1-22.7-19.18-22.7-19.18"/>
          <path class="cls-3" d="M236.54,97.22s37.28-27.26,28.04,31.32"/>
          <path class="cls-3" d="M260.66,81.55s19.15-24.76,34.58-13.06"/>
          <circle cx="108.1" cy="186.04" r="9.05"/>
          <ellipse class="cls-4" cx="61.25" cy="239.79" rx="14.95" ry="31.71" transform="translate(-72.91 31.82) rotate(-18.5)"/>
        </g>
        <path class="cls-3" d="M53.53,208.09s-17.09-71.29,55.5-89.19c0,0-12.69-42.63,15.19-59.54s27.4,14.42,27.4,14.42c0,0,10.16-23.01,24.68-19.43s9.68,27.22,9.68,27.22c0,0,20.01-18.67,34.93-17.28s10.45,13.81,10.45,13.81c0,0,23.35-37.93-30.85-55.42,0,0,19.01-31.53,55.47,10.09,0,0,17.02-41.08,62.55-24.17,0,0-29.96,19.54-24.64,79.93s25.79,96.43-37.92,154.63-168.06,28.87-179.77,12.07-17.2-27.14-22.68-47.13Z"/>
      </g>
      <path class="cls-5" d="M37.87,216.92l16.78-3.92c8.69-2.03,17.37,3.36,19.41,12.05l3.92,16.78c2.03,8.69-3.36,17.37-12.05,19.41l-16.78,3.92"/>
    </g>
  </g>
</svg>