<svg width="396" height="206" viewBox="0 0 396 206" fill="none" xmlns="http://www.w3.org/2000/svg">
<path d="M175.57 148.119C175.57 148.119 146.62 151.37 140.081 147.716C133.542 144.063 135.747 140.007 114.745 139.201C93.744 138.396 47.0483 155.858 28.5854 140.007C10.1226 124.156 5.78894 113.598 5.78894 105.485C5.78894 97.3729 -2.54499 68.9217 7.60958 49.0432C17.7385 29.136 49.2536 10.8684 66.2548 6.00667C83.2817 1.14493 176.314 4.39572 195.136 6.40946C213.958 8.4232 305.682 -5.90317 331.966 12.1054C386.637 49.5322 396.766 92.914 392.791 103.903C388.816 114.892 384.098 165.639 356.224 155.886C328.351 146.134 294.322 140.035 267.526 137.619C240.729 135.174 195.854 140.467 195.11 144.523C194.367 148.579 200.906 178.642 193.674 185.546C186.443 192.45 173.391 204.648 167.621 203.008C161.851 201.368 171.955 194.895 174.493 187.588C177.032 180.281 183.186 153.873 175.57 148.205V148.119Z" fill="white" style="fill:white;fill-opacity:1;"/>
<path d="M168.749 205.971C168.134 205.971 167.544 205.885 166.98 205.741C164.595 205.079 163.749 203.612 163.441 202.49C162.646 199.585 164.698 197.053 167.288 193.86C169.134 191.559 171.237 188.97 172.083 186.496C175.468 176.715 178.878 156.174 174.75 151.111C167.98 151.83 145.363 153.902 138.952 150.306C137.08 149.241 135.824 148.148 134.721 147.199C131.926 144.754 129.516 142.654 114.669 142.078C108.078 141.819 98.4109 143.517 88.2051 145.3C65.7676 149.241 40.3298 153.7 27.0468 142.308C10.7893 128.385 3.22462 116.676 3.22462 105.514C3.22462 103.846 2.76304 100.825 2.22454 97.3157C0.326969 84.773 -2.85274 63.7725 5.35297 47.6339C15.7896 27.1513 47.5868 8.36596 65.5881 3.21654C83.3842 -1.87534 178.34 1.72058 195.341 3.53294C200.598 4.1083 212.547 3.27411 226.394 2.35354C263.346 -0.149246 313.939 -3.60146 333.274 9.63168C391.534 49.5037 399.074 94.0937 395.125 104.968C394.458 106.78 393.714 110.117 392.842 114.001C389.663 128.126 384.842 149.472 372.584 157.181C367.533 160.346 361.763 160.835 355.429 158.62C330.889 150.047 297.938 143.258 267.295 140.467C242.37 138.195 203.752 142.769 197.598 145.847C197.649 147.256 197.982 149.989 198.264 152.463C200.034 167.854 201.111 182.152 195.315 187.704C183.827 198.664 174.801 206 168.724 206L168.749 205.971ZM175.57 145.243C176.083 145.243 176.57 145.415 176.981 145.732C187.802 153.815 176.981 188.222 176.852 188.567C175.647 192.048 173.109 195.183 171.057 197.715C170.416 198.492 169.647 199.47 169.083 200.246C172.698 200.045 180.391 194.349 191.982 183.302C196.162 179.332 194.136 161.669 193.161 153.183C192.572 148.004 192.289 145.415 192.572 143.919C192.931 141.934 193.52 138.626 221.266 135.721C238.113 133.966 255.473 133.592 267.68 134.714C298.682 137.533 332.043 144.408 356.917 153.125C361.917 154.88 366.225 154.563 370.046 152.147C380.38 145.645 385.047 124.933 387.842 112.563C388.791 108.305 389.56 104.968 390.355 102.781C394.278 91.9936 382.252 49.9065 330.581 14.551C312.606 2.23844 260.884 5.7769 226.677 8.10708C212.06 9.11395 200.495 9.8906 194.828 9.28648C175.468 7.18644 83.0252 4.16588 66.8189 8.79748C49.3049 13.8031 19.1232 32.0993 9.76355 50.4818C2.45533 64.8369 5.45554 84.5716 7.2249 96.3376C7.81469 100.25 8.27626 103.357 8.27626 105.486C8.27626 111.297 10.5328 120.963 30.0727 137.734C41.6376 147.659 66.9728 143.2 87.3332 139.633C97.7955 137.792 107.642 136.066 114.771 136.325C131.259 136.958 134.439 139.719 137.798 142.653C138.798 143.516 139.747 144.351 141.183 145.156C145.44 147.544 164.339 146.508 175.263 145.271C175.34 145.271 175.442 145.271 175.519 145.271L175.57 145.243Z" fill="black" style="fill:black;fill-opacity:1;"/>
<path d="M58.1806 103.894V90.043C58.1806 88.1282 59.5848 86.8517 62.1379 86.8517H91.69C93.6686 86.8517 94.9452 87.7453 94.9452 90.3622V107.213C94.9452 109.83 93.6686 110.723 91.69 110.723H66.2867C62.2017 110.723 58.1806 109.702 58.1806 103.894ZM57.4147 84.1709C56.0105 84.5539 54.7339 84.873 53.3297 84.873C51.3511 84.873 49.3086 84.0433 49.3086 81.1072C49.3086 79.2562 50.3298 78.1073 52.117 77.7244C62.84 75.4904 69.0951 69.4906 70.6908 64.1291C70.8823 63.4908 70.627 62.9164 69.9887 62.9164H55.2445C53.2659 62.9164 52.117 61.7037 52.117 59.4059C52.117 57.1081 53.2659 55.6401 55.2445 55.6401H74.1375C78.7969 55.6401 79.9458 59.0229 79.3075 62.8526C76.882 76.8308 64.1804 82.2561 57.4147 84.1709ZM87.4774 80.4689V56.023C87.4774 54.1082 88.7539 52.8317 91.307 52.8317C93.8601 52.8317 95.1367 54.1082 95.1367 56.023V64.5121H100.179C102.158 64.5121 103.434 65.5971 103.434 68.2141C103.434 70.831 102.158 71.9161 100.179 71.9161H95.1367V80.4689C95.1367 82.3838 93.8601 83.6603 91.307 83.6603C88.7539 83.6603 87.4774 82.3838 87.4774 80.4689ZM67.9462 103.702H87.2859V93.8727H66.0952V102.17C66.0952 103 66.542 103.702 67.9462 103.702ZM145.905 103.574V56.023C145.905 54.1082 147.181 52.8317 149.734 52.8317C152.287 52.8317 153.564 54.1082 153.564 56.023V72.8735H158.606C160.585 72.8735 161.861 73.9585 161.861 76.5755C161.861 79.1924 160.585 80.2774 158.606 80.2774H153.564V103.574C153.564 105.489 152.287 106.766 149.734 106.766C147.181 106.766 145.905 105.489 145.905 103.574ZM112.523 94.2556C111.438 95.1492 110.991 95.5322 109.523 95.5322C107.417 95.5322 105.183 93.6812 105.183 91.3834C105.183 90.4898 105.438 89.5324 106.395 88.6388C114.246 81.7455 119.289 71.4693 120.629 59.9165C120.884 57.6825 122.288 56.7251 124.203 56.7251C127.267 56.7251 128.671 58.1293 128.607 60.8739C127.522 75.618 119.863 88.0006 112.523 94.2556ZM126.054 80.9795C125.735 80.5328 125.352 79.7668 125.352 79.0647C125.352 76.8308 126.948 74.7245 129.437 74.7245C130.395 74.7245 131.416 74.9798 132.118 75.6819C135.309 78.6179 139.458 84.1709 141.437 87.8091C142.139 89.0856 142.266 89.8516 142.266 90.809C142.266 93.6812 139.586 94.8301 137.607 94.8301C136.139 94.8301 135.373 94.3195 134.607 93.1706C131.735 88.8303 129.629 85.7666 126.054 80.9795ZM175.035 104.085V92.0217C175.035 90.1069 176.439 88.8303 178.992 88.8303C181.545 88.8303 182.95 90.1069 182.95 92.0217V101.979C182.95 103.255 183.524 103.702 184.928 103.702H204.14V100.383H187.609C185.63 100.383 184.354 99.6171 184.354 97.0002C184.354 94.3833 185.63 93.6174 187.609 93.6174H204.14V92.0217C204.14 90.1069 205.417 88.8303 207.97 88.8303C210.523 88.8303 211.8 90.1069 211.8 92.0217V107.213C211.8 109.83 210.523 110.723 208.544 110.723H182.758C178.801 110.723 175.035 109.319 175.035 104.085ZM190.417 71.4693C193.545 71.4693 197.119 73.9585 197.119 78.235C197.119 83.9156 191.694 87.107 183.46 87.107C174.524 87.107 169.035 83.2773 169.035 76.7031C169.035 73.9585 169.993 71.7884 171.588 70.2565H169.035C167.376 70.2565 165.844 69.363 165.844 66.746C165.844 64.0015 167.376 63.044 169.035 63.044H195.524C197.311 63.044 198.843 64.0015 198.843 66.746C198.843 69.363 197.311 70.2565 195.524 70.2565H185.694C180.397 70.3842 177.078 72.5543 177.078 76.0648C177.078 79.0647 179.694 80.2136 183.524 80.2136C187.162 80.2136 189.524 79.1286 189.524 77.2137C189.524 75.1713 187.418 75.4904 187.418 73.7032C187.418 72.299 188.503 71.4693 190.417 71.4693ZM204.332 82.5752V56.023C204.332 54.1082 205.608 52.8317 208.161 52.8317C210.715 52.8317 211.991 54.1082 211.991 56.023V65.5971H217.033C219.012 65.5971 220.289 66.6822 220.289 69.2991C220.289 71.9161 219.012 73.0011 217.033 73.0011H211.991V82.5752C211.991 84.4901 210.715 85.7666 208.161 85.7666C205.608 85.7666 204.332 84.4901 204.332 82.5752ZM174.333 59.0868C172.929 58.64 172.29 57.4911 172.29 55.7677C172.29 52.7678 174.333 51.6828 176.248 52.1296C180.779 53.1508 184.864 53.2785 189.013 53.2785C190.673 53.2785 192.077 54.2997 192.077 56.789C192.077 59.2144 190.673 60.4271 188.63 60.4271C184.035 60.4271 178.099 60.2995 174.333 59.0868ZM264.674 103.574V56.023C264.674 54.1082 265.95 52.8317 268.503 52.8317C271.057 52.8317 272.333 54.1082 272.333 56.023V103.574C272.333 105.489 271.057 106.766 268.503 106.766C265.95 106.766 264.674 105.489 264.674 103.574ZM227.399 86.0857V60.1718C227.399 58.3208 228.675 56.9804 231.228 56.9804C233.845 56.9804 235.186 58.3846 235.186 60.1718V83.2773C235.058 85.3836 236.079 86.5964 238.568 86.5964C244.887 86.5964 251.717 85.0007 257.398 82.8944C259.631 82.0646 261.929 83.3412 261.929 86.4049C261.929 88.575 261.163 89.4048 259.121 90.2983C253.696 92.66 244.249 94.511 237.547 94.511C232.313 94.511 227.399 92.9153 227.399 86.0857ZM285.188 88.1282V61.5122C285.188 59.2144 286.911 57.6825 289.528 57.6825H310.272C311.995 57.6825 313.591 59.2782 313.591 61.5122C313.591 63.8738 311.995 65.2142 310.272 65.2142H293.23V85.1922C293.102 87.2985 294.123 88.5112 296.613 88.5112C302.932 88.5112 307.91 87.7453 313.208 86.1496C315.506 85.4475 317.74 86.724 317.74 89.7877C317.74 91.9579 317.037 92.9791 314.931 93.6812C309.825 95.3407 301.591 96.4896 295.336 96.4896C290.102 96.4896 285.188 94.9577 285.188 88.1282ZM321.186 103.574V56.023C321.186 54.1082 322.463 52.8317 325.016 52.8317C327.569 52.8317 328.846 54.1082 328.846 56.023V72.8735H333.888C335.867 72.8735 337.143 73.9585 337.143 76.5755C337.143 79.1924 335.867 80.2774 333.888 80.2774H328.846V103.574C328.846 105.489 327.569 106.766 325.016 106.766C322.463 106.766 321.186 105.489 321.186 103.574Z" fill="black" style="fill:black;fill-opacity:1;"/>
</svg>
