<svg width="198" height="128" viewBox="0 0 198 128" fill="none" xmlns="http://www.w3.org/2000/svg">
<path d="M49.406 24.3073C49.406 24.3073 52.746 6.94726 70.776 4.94726C103.316 1.32726 99.486 20.9673 99.486 20.9673C99.486 20.9673 104.156 9.61726 126.196 10.2873C148.226 10.9573 149.566 29.6473 149.566 29.6473C149.566 29.6473 163.586 21.6373 174.266 28.3073C184.946 34.9773 185.616 54.3473 177.606 55.0173C177.606 55.0173 192.296 60.3573 192.966 73.0473C193.636 85.7373 174.266 90.4073 174.266 90.4073C174.266 90.4073 183.616 106.427 163.586 115.107C140.106 125.287 135.546 106.427 135.546 106.427C135.546 106.427 138.216 124.457 115.516 123.117C92.816 121.777 94.146 105.087 94.146 105.087C94.146 105.087 83.156 120.917 69.446 119.777C53.426 118.437 48.746 109.757 48.746 99.7473C48.746 99.7473 32.056 112.437 21.366 104.417C9.93603 95.8473 20.026 83.0473 20.026 83.0473C20.026 83.0473 6.53603 85.0673 4.66603 67.0273C2.66603 47.6673 22.696 51.6673 22.696 51.6673C22.696 51.6673 10.696 38.8373 22.696 26.2973C37.386 10.9373 49.406 24.2973 49.406 24.2973V24.3073Z" fill="white" style="fill:white;fill-opacity:1;"/>
<path d="M117.846 127.697C116.996 127.697 116.136 127.667 115.236 127.617C106.076 127.077 99.1561 124.197 94.6761 119.047C93.3961 117.577 92.446 116.067 91.726 114.597C86.546 119.497 78.486 125.057 69.056 124.277C56.036 123.187 47.7661 117.227 45.1361 107.247C38.326 110.787 27.3161 114.537 18.6461 108.037C14.5861 104.987 12.1261 100.997 11.5361 96.4873C11.0561 92.8373 11.846 89.4073 12.916 86.6473C11.356 86.1073 9.69605 85.2773 8.08605 84.0273C3.60605 80.5573 0.946049 74.9973 0.166049 67.5073C-0.563951 60.4573 1.11605 55.0173 5.14605 51.3473C7.96605 48.7773 11.4161 47.5973 14.5761 47.1173C11.8661 40.4873 11.4461 31.5373 19.416 23.1973C25.076 17.2773 31.1361 14.3173 37.5261 14.4273C41.356 14.4873 44.6261 15.6773 47.1461 17.0573C50.5061 10.0473 57.636 1.86726 70.246 0.467264C84.136 -1.07274 93.996 1.19726 99.556 7.22726C100.776 8.54726 101.696 9.96726 102.376 11.3973C107.386 8.07726 115.086 5.44726 126.306 5.77726C142.416 6.26726 149.926 15.5373 152.716 23.3273C158.596 21.2273 168.256 19.2473 176.636 24.4873C185.576 30.0773 188.956 42.4273 186.956 50.6673C186.646 51.9573 186.196 53.1373 185.636 54.1773C190.706 57.5273 196.946 63.5073 197.436 72.7973C198.046 84.4573 186.846 90.5873 180.136 93.1973C180.966 96.3173 181.436 100.557 179.976 105.017C177.976 111.107 173.056 115.887 165.356 119.227C156.026 123.277 148.036 123.707 141.626 120.507C140.126 119.757 138.836 118.867 137.716 117.907C137.096 119.047 136.306 120.177 135.336 121.237C131.416 125.517 125.536 127.687 117.836 127.687L117.846 127.697ZM94.1461 100.597C94.6561 100.597 95.1661 100.687 95.6561 100.857C97.576 101.537 98.7861 103.427 98.6261 105.457C98.5561 106.657 98.446 117.617 115.776 118.637C121.876 118.997 126.226 117.847 128.666 115.227C131.686 111.987 131.096 107.107 131.086 107.057C130.776 104.687 132.376 102.467 134.726 102.027C137.076 101.587 139.356 103.047 139.916 105.377C139.916 105.387 141.256 110.327 145.746 112.507C149.666 114.417 155.066 113.897 161.796 110.987C167.006 108.727 170.236 105.807 171.416 102.307C173.036 97.4973 170.386 92.6973 170.356 92.6573C169.666 91.4273 169.576 89.9273 170.146 88.6373C170.706 87.3473 171.836 86.3773 173.206 86.0473C173.356 86.0073 188.916 81.9473 188.466 73.2973C187.966 63.7973 176.166 59.2973 176.046 59.2573C174.066 58.5273 172.866 56.5173 173.146 54.4273C173.436 52.3373 175.126 50.7273 177.226 50.5473C177.536 50.4173 178.346 49.2173 178.496 46.6273C178.786 41.7873 176.566 35.0673 171.876 32.1473C163.646 27.0073 151.896 33.5173 151.776 33.5773C150.426 34.3373 148.786 34.3573 147.426 33.6273C146.066 32.8973 145.176 31.5273 145.066 29.9873C144.936 28.5173 143.296 15.3273 126.046 14.7973C108.426 14.2573 104.016 21.9573 103.616 22.7373C102.816 24.9273 100.496 26.0373 98.246 25.4173C95.9761 24.7973 94.606 22.4273 95.056 20.1073C95.076 20.0073 95.6661 16.2073 92.8761 13.2473C90.4361 10.6773 84.716 7.91726 71.256 9.41726C56.696 11.0373 53.8361 25.0173 53.8161 25.1573C53.4961 26.8373 52.2461 28.1873 50.6061 28.6473C48.9761 29.0973 47.2261 28.5973 46.0761 27.3473C45.9961 27.2673 42.3761 23.4673 37.3261 23.4273H37.256C33.556 23.4273 29.7461 25.4473 25.9461 29.4273C16.9861 38.7873 25.6061 48.2173 25.9761 48.6173C27.3161 50.0473 27.5761 52.1773 26.6261 53.8773C25.6761 55.5873 23.7361 56.4873 21.8161 56.0973C19.8761 55.7273 14.1361 55.3373 11.2161 58.0173C9.42605 59.6573 8.73605 62.5373 9.14605 66.5773C9.64605 71.4573 11.1261 74.9173 13.5361 76.8373C16.2061 78.9673 19.2961 78.6173 19.4261 78.6073C21.2461 78.3373 23.0261 79.2073 23.9561 80.8073C24.8861 82.4073 24.7061 84.4073 23.5661 85.8573C22.5461 87.1773 19.9661 91.4973 20.4861 95.3573C20.7661 97.4473 21.9461 99.2373 24.0661 100.837C31.7661 106.607 45.8861 96.2773 46.0261 96.1773C47.3861 95.1473 49.2161 94.9773 50.7461 95.7373C52.2761 96.4973 53.2461 98.0573 53.2461 99.7673C53.2461 109.567 58.3561 114.357 69.8161 115.317C80.6661 116.207 90.356 102.687 90.446 102.547C91.306 101.307 92.6961 100.607 94.1461 100.607V100.597Z" fill="#EFAB22" style="fill:#EFAB22;fill:color(display-p3 0.9373 0.6706 0.1333);fill-opacity:1;"/>
<path d="M58.7461 47.898L62.4761 47.8481L62.5261 46.3481C62.5261 44.9481 62.0061 40.748 65.2761 40.748C65.9461 40.748 66.6761 40.958 67.1961 41.318C68.8561 42.408 68.5961 44.6881 68.6961 47.2781L68.6461 54.8481C68.6461 56.6081 68.7461 59.098 67.6061 61.178C67.3961 61.648 66.8261 62.2681 66.6161 62.4781C65.5761 63.5181 63.1461 63.5681 62.6761 63.618L48.4161 63.6681C46.7561 63.6681 45.2561 63.5081 44.0061 62.5281C42.1861 61.1781 42.3461 57.908 42.3961 57.398V45.828C42.3961 43.858 43.1261 40.8481 45.5561 40.8481C47.3161 40.8481 47.8861 41.578 48.4061 43.078C48.7161 44.008 48.7661 45.0481 48.8161 45.9781V46.078L48.7661 47.9481H52.7061V45.8781C52.7061 45.7781 52.6561 43.178 53.7961 42.038C54.2661 41.568 54.8861 41.3081 55.6661 41.3081C56.4461 41.3081 57.1161 41.6181 57.5861 42.0881C58.5161 43.0781 58.7261 44.158 58.7261 46.498V47.898H58.7461ZM47.4361 79.078V71.608C47.3861 70.828 47.3861 70.0481 47.4361 69.2781C47.5961 67.8281 48.6761 66.8381 50.2361 66.8381C50.5961 66.8381 51.7361 66.888 52.1061 66.998C53.9261 67.568 54.0261 69.3281 54.1261 70.8881C54.1761 71.4581 54.2261 75.4481 54.3361 75.9181C54.5461 75.9681 55.2661 76.1281 57.8061 76.1281C60.0361 76.1281 60.2461 76.0281 60.2961 76.0281H77.2561C77.3061 76.0781 79.3861 76.548 79.5861 77.998C79.7461 79.298 79.5361 80.3281 78.9161 81.0581C78.0861 82.0481 76.8461 82.0981 76.7861 82.0981H52.1461C49.3461 82.0981 47.4261 80.6481 47.4261 79.0881L47.4361 79.078ZM48.5761 57.5981H52.7261V54.118H48.5761C48.6761 55.258 48.5761 56.6081 48.5761 57.5981ZM58.6861 54.078C58.6861 55.328 58.6361 56.5181 58.6361 57.5581H62.6261L62.5761 54.078H58.6861ZM78.5061 56.618V61.3381C78.4561 62.0681 78.3461 62.8981 77.9361 63.6681C77.7261 64.0781 77.4161 64.4481 77.0561 64.6581C76.5361 65.0181 75.9661 65.2281 75.3461 65.2281C74.8261 65.2281 74.3061 65.0681 73.8961 64.8081C72.4961 63.9781 72.2861 62.1081 72.2861 62.0581V44.938C72.2861 44.628 72.3361 43.0681 72.7561 42.2381C73.0661 41.5681 73.8461 41.098 74.8861 40.998C76.0261 40.838 77.1161 41.1581 77.6861 41.7781C78.1061 42.2981 78.2061 42.8181 78.3561 43.3881C78.5661 44.0581 78.5661 44.888 78.5161 45.618V50.8081C79.0861 50.8581 81.9361 50.9681 82.5061 51.118C83.8561 51.378 84.3261 51.898 84.5261 52.678C84.6861 53.408 84.7361 54.5981 84.3161 55.2681C83.4861 56.6181 81.7261 56.618 79.6961 56.618H78.5061Z" fill="#302F2C" style="fill:#302F2C;fill:color(display-p3 0.1882 0.1843 0.1725);fill-opacity:1;"/>
<path d="M111.276 46.6577C111.746 47.5377 111.586 49.1477 110.916 50.0277C109.566 51.7377 103.866 51.1677 102.926 51.2177C102.406 51.2677 101.886 51.2677 101.266 51.2677H99.6062C99.0862 51.2177 98.5662 51.2177 97.9962 51.2177L91.3562 51.1177C87.8262 51.1177 86.4762 50.2377 86.2262 48.3177C86.0662 47.2777 86.3862 46.4477 87.0062 45.8777C87.9362 45.0477 88.4562 44.9477 89.4962 44.9477C89.7562 44.9477 90.0662 44.9977 90.3262 44.9977H91.6262C92.6162 44.9977 94.5862 44.9477 95.5662 44.8977C95.6162 44.3777 95.6662 42.4577 95.7262 41.9977C95.7762 41.4277 95.9862 40.8577 96.2962 40.3877C96.9662 39.4577 97.9562 38.9377 98.9962 38.9877C99.9862 39.0877 101.016 39.1477 101.646 39.9777C102.426 41.0677 102.116 43.4477 102.266 44.9577H104.286C104.856 44.9577 106.156 45.0077 106.676 45.0077H107.606C108.956 45.0077 110.566 45.3177 111.286 46.6677L111.276 46.6577ZM110.086 64.6577C110.446 68.9077 109.516 73.4777 107.756 76.6377C106.146 79.4877 102.466 80.9377 99.1962 80.9977C96.2362 81.0477 92.8162 80.0077 90.8462 77.8877C89.0862 75.9677 88.4562 73.8977 88.0962 71.3477C87.6762 68.3877 87.3662 65.6377 87.7362 62.9477C87.9962 61.0277 88.6162 59.1077 89.7562 57.1877C91.2562 54.5977 96.0362 53.1377 99.8162 53.2977C106.246 53.5577 109.616 58.7977 110.086 64.6577ZM103.866 68.0777C103.816 65.6877 103.706 61.9077 101.586 60.4577C101.016 60.0977 100.236 59.8877 99.4562 59.8377C97.6362 59.7377 95.5162 60.4577 94.8362 61.9677C93.5362 64.7677 93.6462 67.6177 94.2662 70.5777C94.5762 72.0777 95.1462 73.9477 96.4462 74.8277C97.0162 75.1877 99.0362 75.3477 99.6062 75.2477C102.716 74.7777 103.906 70.8877 103.856 68.0877L103.866 68.0777ZM122.946 80.3177C122.846 80.5777 122.736 80.7877 122.636 81.0477C122.426 81.4677 122.116 81.8777 121.706 82.1877C120.926 82.6577 119.946 82.7577 119.066 82.5477C118.546 82.4477 118.076 82.2377 117.716 81.9277C116.466 80.7877 116.526 78.0877 116.526 77.9877V46.5077C116.476 44.8977 116.526 42.3077 117.516 41.3777C118.246 40.6477 119.126 40.5477 120.056 40.5477C121.246 40.5477 122.336 41.2777 122.756 42.4177C123.376 43.8677 123.326 45.4777 123.376 47.0877V47.3477C123.536 52.6377 123.376 58.4977 123.376 63.4777V76.0277C123.376 76.6477 123.426 77.2677 123.376 77.8977C123.276 78.7277 123.216 79.5077 122.956 80.3377L122.946 80.3177Z" fill="#302F2C" style="fill:#302F2C;fill:color(display-p3 0.1882 0.1843 0.1725);fill-opacity:1;"/>
<path d="M131.506 83.9474C129.686 83.9474 128.236 82.4974 128.236 80.6774C128.236 78.8574 129.686 77.3574 131.506 77.3574C133.326 77.3574 134.776 78.8574 134.776 80.6774C134.776 82.4974 133.326 83.9474 131.506 83.9474Z" fill="#302F2C" style="fill:#302F2C;fill:color(display-p3 0.1882 0.1843 0.1725);fill-opacity:1;"/>
<path d="M141.876 83.9474C140.056 83.9474 138.606 82.4974 138.606 80.6774C138.606 78.8574 140.056 77.3574 141.876 77.3574C143.696 77.3574 145.146 78.8574 145.146 80.6774C145.146 82.4974 143.696 83.9474 141.876 83.9474Z" fill="#302F2C" style="fill:#302F2C;fill:color(display-p3 0.1882 0.1843 0.1725);fill-opacity:1;"/>
<path d="M152.246 83.9474C150.426 83.9474 148.976 82.4974 148.976 80.6774C148.976 78.8574 150.426 77.3574 152.246 77.3574C154.066 77.3574 155.516 78.8574 155.516 80.6774C155.516 82.4974 154.066 83.9474 152.246 83.9474Z" fill="#302F2C" style="fill:#302F2C;fill:color(display-p3 0.1882 0.1843 0.1725);fill-opacity:1;"/>
</svg>
