<svg width="171" height="126" viewBox="0 0 171 126" fill="none" xmlns="http://www.w3.org/2000/svg">
<path d="M80.053 11.0387C80.053 11.0387 31.403 26.7187 16.523 36.3687C1.64298 46.0187 -3.17702 61.6987 4.86298 73.3587C12.903 85.0187 34.213 99.4987 48.693 97.8887C63.173 96.2787 71.613 91.4587 81.263 88.6387C90.913 85.8287 104.583 86.2287 116.243 82.6087C127.903 78.9887 146.403 70.6787 155.243 62.3687C160.223 57.6887 177.763 27.9187 165.693 21.0887C153.623 14.2587 163.283 -13.8913 80.053 11.0387Z" fill="white" style="fill:white;fill-opacity:1;"/>
<path d="M46.403 99.0087C31.243 99.0087 11.283 84.4287 4.04298 73.9287C0.462985 68.7387 -0.767017 62.7087 0.462983 56.4787C2.06298 48.4287 7.57298 40.9887 15.983 35.5287C30.803 25.9187 77.763 10.7287 79.753 10.0887C79.753 10.0887 79.763 10.0887 79.773 10.0887C145.593 -9.6213 154.243 3.92866 160.563 13.8287C162.293 16.5287 163.783 18.8687 166.193 20.2287C168.793 21.7087 170.333 24.1987 170.743 27.6587C172.123 39.1987 160.203 59.0987 155.933 63.1087C147.423 71.0987 129.293 79.6187 116.543 83.5687C110.203 85.5387 103.393 86.3187 96.803 87.0787C91.213 87.7187 85.943 88.3287 81.543 89.6087C78.583 90.4687 75.753 91.5187 72.753 92.6387C66.263 95.0487 58.913 97.7687 48.813 98.8987C48.033 98.9887 47.223 99.0287 46.413 99.0287L46.403 99.0087ZM80.353 11.9887C79.433 12.2887 31.603 27.7787 17.073 37.1987C9.12298 42.3587 3.92298 49.3387 2.43298 56.8587C1.30298 62.5487 2.43298 68.0587 5.69298 72.7887C13.633 84.3087 32.933 96.9987 46.433 97.0087C47.173 97.0087 47.883 96.9687 48.583 96.8887C58.443 95.7887 65.363 93.2287 72.053 90.7487C75.083 89.6287 77.953 88.5587 80.983 87.6787C85.543 86.3487 90.903 85.7387 96.573 85.0787C103.073 84.3287 109.783 83.5587 115.953 81.6487C128.483 77.7587 146.273 69.4187 154.563 61.6387C158.523 57.9187 170.043 38.6187 168.763 27.8787C168.423 25.0487 167.263 23.1187 165.213 21.9587C162.373 20.3487 160.673 17.6987 158.883 14.8887C152.903 5.52866 144.713 -7.2913 80.353 11.9887Z" fill="black" style="fill:black;fill-opacity:1;"/>
<path d="M76.153 100.199C76.153 100.199 78.903 107.729 76.153 110.069C73.403 112.409 71.173 111.699 70.553 110.169C69.933 108.639 67.603 109.249 66.793 107.829C65.983 106.409 65.263 103.459 67.103 100.299C68.943 97.1387 73.513 97.0387 76.153 100.199Z" fill="white" style="fill:white;fill-opacity:1;"/>
<path d="M72.783 112.569C72.423 112.569 72.113 112.519 71.873 112.459C70.833 112.199 70.013 111.499 69.623 110.529C69.503 110.229 69.163 110.109 68.403 109.889C67.563 109.649 66.513 109.359 65.923 108.309C64.863 106.449 64.303 103.099 66.233 99.7787C67.203 98.1087 68.883 97.0587 70.843 96.8887C73.083 96.6887 75.363 97.6887 76.913 99.5387C76.983 99.6287 77.043 99.7287 77.083 99.8387C77.393 100.679 79.973 108.099 76.793 110.809C75.143 112.209 73.743 112.559 72.773 112.559L72.783 112.569ZM71.413 98.8787C71.283 98.8787 71.153 98.8787 71.023 98.8987C69.703 99.0087 68.613 99.6887 67.963 100.799C66.463 103.379 66.863 105.929 67.663 107.329C67.843 107.639 68.273 107.779 68.953 107.979C69.813 108.219 70.993 108.559 71.483 109.799C71.633 110.169 71.943 110.429 72.353 110.529C73.193 110.739 74.343 110.289 75.503 109.309C77.083 107.969 76.213 103.399 75.273 100.719C74.243 99.5587 72.823 98.8887 71.403 98.8887L71.413 98.8787Z" fill="black" style="fill:black;fill-opacity:1;"/>
<path d="M64.313 111.099C64.313 111.099 69.643 114.539 69.193 116.199C68.743 117.859 67.863 121.639 65.533 119.639C63.203 117.639 60.203 113.539 64.313 111.089V111.099Z" fill="white" style="fill:white;fill-opacity:1;"/>
<path d="M66.773 121.209C66.253 121.209 65.603 121.019 64.883 120.399C63.973 119.619 61.033 116.849 61.293 113.829C61.383 112.819 61.883 111.379 63.803 110.239C64.133 110.049 64.533 110.049 64.853 110.259C67.073 111.689 70.713 114.399 70.163 116.459L70.113 116.649C69.693 118.219 69.073 120.599 67.403 121.119C67.223 121.179 67.013 121.219 66.773 121.219V121.209ZM64.313 112.299C63.673 112.789 63.343 113.349 63.283 113.999C63.143 115.649 64.753 117.659 66.183 118.879C66.483 119.139 66.713 119.229 66.803 119.199C67.213 119.069 67.673 118.039 68.173 116.129L68.223 115.939C68.173 115.389 66.373 113.709 64.313 112.299Z" fill="black" style="fill:black;fill-opacity:1;"/>
<path d="M58.983 117.989C58.983 117.989 61.433 122.699 59.923 123.449C58.413 124.199 55.973 125.139 55.783 122.889C55.593 120.639 54.463 114.039 58.983 117.999V117.989Z" fill="white" style="fill:white;fill-opacity:1;"/>
<path d="M57.213 125.309C56.733 125.309 56.313 125.209 55.953 124.999C55.483 124.729 54.893 124.169 54.793 122.969C54.773 122.759 54.753 122.499 54.723 122.219C54.413 119.279 54.293 116.779 55.863 115.959C57.183 115.279 58.653 116.359 59.653 117.229C59.743 117.309 59.823 117.409 59.883 117.519C60.353 118.429 61.853 121.529 61.303 123.239C61.143 123.739 60.823 124.119 60.383 124.339C59.103 124.979 58.063 125.299 57.223 125.299L57.213 125.309ZM56.733 117.759C56.473 118.049 56.443 119.489 56.703 122.019C56.733 122.309 56.763 122.579 56.783 122.809C56.803 123.039 56.863 123.219 56.933 123.259C56.953 123.269 57.483 123.549 59.403 122.599C59.553 122.069 58.993 120.229 58.183 118.629C57.193 117.789 56.783 117.759 56.733 117.759Z" fill="black" style="fill:black;fill-opacity:1;"/>
</svg>
