<svg width="183" height="118" viewBox="0 0 183 118" fill="none" xmlns="http://www.w3.org/2000/svg">
<path d="M181.53 50.37C181.53 23.1 141.12 0.98999 91.26 0.98999C41.4 0.98999 0.98999 23.1 0.98999 50.37C0.98999 77.64 41.4 99.75 91.26 99.75C101.34 99.75 111.04 98.85 120.09 97.18C123.52 101.98 131.72 109.74 150.87 116.13C150.87 116.13 137.43 109.03 134.16 93.83C162.37 85.48 181.53 69.15 181.53 50.38V50.37Z" fill="#FEDFDC" style="fill:#FEDFDC;fill:color(display-p3 0.9961 0.8745 0.8627);fill-opacity:1;"/>
<path d="M150.88 117.13C150.78 117.13 150.67 117.11 150.56 117.08C132.2 110.96 123.64 103.57 119.66 98.28C110.52 99.92 100.97 100.76 91.27 100.76C40.94 100.76 0 78.16 0 50.38C0 22.6 40.94 0 91.27 0C141.6 0 182.54 22.6 182.54 50.38C182.54 68.81 164.49 85.67 135.36 94.52C138.81 108.45 151.23 115.18 151.35 115.25C151.81 115.49 152.01 116.05 151.8 116.53C151.64 116.91 151.27 117.14 150.88 117.14V117.13ZM120.09 96.18C120.41 96.18 120.71 96.33 120.9 96.6C124.05 101.01 130.65 107.13 144.4 112.69C140.22 108.99 135.07 102.86 133.18 94.04C133.07 93.53 133.37 93.02 133.87 92.87C162.65 84.35 180.52 68.07 180.52 50.37C180.52 23.69 140.47 1.98999 91.25 1.98999C42.03 1.98999 1.98 23.69 1.98 50.37C1.98 77.05 42.03 98.75 91.25 98.75C101.05 98.75 110.69 97.89 119.9 96.19C119.96 96.18 120.02 96.17 120.08 96.17L120.09 96.18Z" fill="black" style="fill:black;fill-opacity:1;"/>
</svg>
