<svg width="295" height="164" viewBox="0 0 295 164" fill="none" xmlns="http://www.w3.org/2000/svg">
<path d="M51.5578 11.1248C51.5578 11.1248 70.9678 25.2526 99.2078 25.2526C127.448 25.2526 146.28 2.31055 146.28 2.31055C146.28 2.31055 163.345 21.7206 193.351 27.0185C223.357 32.3164 255.129 22.3146 255.129 22.3146C255.129 22.3146 255.723 47.0225 265.725 60.5564C275.727 74.0903 293.371 91.7344 293.371 91.7344C293.371 91.7344 276.305 104.674 273.367 116.442C270.429 128.21 273.961 142.323 273.961 142.323C273.961 142.323 265.725 135.852 237.485 141.15C209.245 146.448 204.541 161.154 204.541 161.154C204.541 161.154 190.413 148.214 161.595 147.62C132.777 147.027 115.117 161.748 115.117 161.748C115.117 161.748 97.4731 148.214 77.4692 141.744C57.4652 135.274 28.0532 149.98 28.0532 149.98C28.0532 149.98 28.0531 117.615 22.177 109.379C16.3008 101.143 1.57919 82.9045 1.57919 82.9045C1.57919 82.9045 31.882 72.6056 39.5242 54.9615C47.1663 37.3174 51.5891 11.1248 51.5891 11.1248H51.5578Z" fill="white" style="fill:white;fill-opacity:1;"/>
<path d="M115.102 163.312C114.773 163.312 114.43 163.203 114.148 162.984C113.976 162.843 96.4729 149.544 76.9691 143.23C57.8091 137.026 29.0221 151.232 28.7252 151.372C28.2407 151.607 27.6625 151.591 27.2093 151.31C26.756 151.029 26.4747 150.528 26.4747 149.981C26.4747 141.12 25.4746 116.709 20.8799 110.286C15.0975 102.175 0.485243 84.0622 0.34459 83.8903C0.0164005 83.4996 -0.0773565 82.9683 0.0632962 82.4682C0.203949 81.9837 0.579046 81.593 1.06352 81.4211C1.36045 81.3273 30.8037 71.1378 38.0864 54.3377C45.5723 37.0686 49.995 11.126 50.0418 10.8604C50.1356 10.329 50.4951 9.87578 50.9952 9.67261C51.4953 9.46945 52.0735 9.53195 52.5111 9.86014C52.6986 10.0008 71.89 23.6754 99.2547 23.6754C126.619 23.6754 144.936 1.53041 145.123 1.29599C145.42 0.93654 145.842 0.733398 146.311 0.733398C146.811 0.749027 147.202 0.920882 147.514 1.2647C147.686 1.45224 164.611 20.3309 193.68 25.4726C222.951 30.6455 254.395 20.9092 254.723 20.8154C255.192 20.6748 255.707 20.7529 256.098 21.0343C256.504 21.3156 256.739 21.7844 256.754 22.2688C256.754 22.5033 257.458 46.6487 267.038 59.62C276.852 72.9038 294.356 90.4541 294.543 90.626C294.856 90.9386 295.028 91.3918 294.996 91.8294C294.965 92.2826 294.746 92.6889 294.387 92.9702C294.215 93.0952 277.727 105.723 274.961 116.819C272.148 128.071 275.508 141.808 275.555 141.949C275.711 142.605 275.446 143.277 274.883 143.636C274.32 143.996 273.586 143.965 273.07 143.558C273.008 143.511 264.725 137.651 237.844 142.683C211.027 147.715 206.135 161.499 206.088 161.64C205.916 162.14 205.51 162.531 204.994 162.656C204.479 162.781 203.932 162.656 203.541 162.296C203.4 162.171 189.429 149.747 161.611 149.169C133.73 148.591 116.336 162.781 116.164 162.921C115.867 163.156 115.524 163.281 115.164 163.281L115.102 163.312ZM65.8575 138.526C70.0301 138.526 74.1247 139.026 77.9224 140.261C95.5352 145.965 111.07 156.858 115.07 159.796C119.212 156.702 135.996 145.59 161.595 146.074C185.49 146.559 199.399 155.295 203.932 158.686C206.323 154.295 214.262 143.918 237.172 139.62C256.864 135.932 267.147 137.885 271.773 139.558C270.882 134.635 269.648 124.805 271.836 116.069C274.399 105.801 286.792 95.0331 291.011 91.5949C286.807 87.3129 272.867 72.8882 264.443 61.4797C255.832 49.8368 254.004 30.6299 253.644 24.363C246.237 26.4103 218.872 33.1147 193.07 28.5513C167.034 23.9567 150.765 9.14129 146.311 4.62477C141.716 9.64139 124.197 26.8166 99.2078 26.8166C75.7032 26.8166 58.4029 17.3616 52.6674 13.7515C51.3702 20.6279 47.2288 41.0538 40.9307 55.5879C34.195 71.1222 11.253 80.921 4.12661 83.6403C7.92423 88.3756 18.6138 101.784 23.4116 108.489C28.6002 115.756 29.4285 139.714 29.5691 147.543C35.3202 144.949 50.9952 138.542 65.8731 138.542L65.8575 138.526Z" fill="black" style="fill:black;fill-opacity:1;"/>
<path d="M102.405 110.574V63.023C102.405 61.1082 103.681 59.8317 106.234 59.8317C108.787 59.8317 110.064 61.1082 110.064 63.023V79.8735H115.106C117.085 79.8735 118.361 80.9585 118.361 83.5755C118.361 86.1924 117.085 87.2774 115.106 87.2774H110.064V110.574C110.064 112.489 108.787 113.766 106.234 113.766C103.681 113.766 102.405 112.489 102.405 110.574ZM69.0229 101.256C67.9378 102.149 67.491 102.532 66.023 102.532C63.9167 102.532 61.6827 100.681 61.6827 98.3834C61.6827 97.4898 61.938 96.5324 62.8954 95.6388C70.7462 88.7455 75.7886 78.4693 77.1289 66.9165C77.3843 64.6825 78.7885 63.7251 80.7033 63.7251C83.767 63.7251 85.1712 65.1293 85.1074 67.8739C84.0223 82.618 76.363 95.0006 69.0229 101.256ZM82.5543 87.9795C82.2351 87.5328 81.8522 86.7668 81.8522 86.0647C81.8522 83.8308 83.4479 81.7245 85.9371 81.7245C86.8945 81.7245 87.9158 81.9798 88.6179 82.6819C91.8092 85.6179 95.958 91.1709 97.9367 94.8091C98.6388 96.0856 98.7664 96.8516 98.7664 97.809C98.7664 100.681 96.0857 101.83 94.107 101.83C92.639 101.83 91.8731 101.319 91.1071 100.171C88.2349 95.8303 86.1286 92.7666 82.5543 87.9795ZM131.79 107.319C131.79 99.5961 138.109 95.7027 150.109 95.7027C161.534 95.7027 168.363 99.5961 168.363 107.319C168.363 115.234 161.47 119.191 150.109 119.191C138.109 119.191 131.79 115.234 131.79 107.319ZM144.428 69.0228H127.833C126.046 69.0228 124.769 67.9377 124.769 65.4485C124.769 62.7677 126.046 61.8741 127.833 61.8741H148.705C152.215 61.938 153.619 64.5549 153.619 66.2144V76.6821C153.619 79.0437 151.896 80.1926 150.236 80.1926H132.173V83.8946C132.173 84.9158 132.812 85.2988 133.705 85.2988C140.599 85.2988 148.194 84.9158 153.938 83.5755C156.236 83.0648 158.598 83.7031 158.598 87.0221C158.598 88.7455 157.896 90.0859 155.789 90.5965C149.853 92.0645 140.726 92.7666 132.748 92.7666C127.386 92.7666 124.514 91.1071 124.514 86.5115V76.6821C124.514 74.3843 125.599 73.2354 127.833 73.2354H146.024V70.1079C146.024 69.0866 145.386 69.0228 144.428 69.0228ZM160.832 91.4262V63.023C160.832 61.1082 162.108 59.8317 164.661 59.8317C167.215 59.8317 168.491 61.1082 168.491 63.023V73.1078H173.533C175.512 73.1078 176.789 74.1928 176.789 76.8098C176.789 79.4267 175.512 80.5117 173.533 80.5117H168.491V91.4262C168.491 93.3411 167.215 94.6176 164.661 94.6176C162.108 94.6176 160.832 93.3411 160.832 91.4262ZM139.896 107.319C139.896 110.766 143.726 111.915 150.109 111.915C156.555 111.915 160.321 110.83 160.321 107.319C160.321 103.873 156.555 102.788 150.109 102.788C143.726 102.788 139.896 103.936 139.896 107.319ZM212.174 109.681V63.406C212.174 61.4912 213.323 60.2146 215.876 60.2146C218.429 60.2146 219.642 61.4912 219.642 63.406V80.8309H224.238V63.023C224.238 61.1082 225.45 59.8317 228.003 59.8317C230.556 59.8317 231.769 61.1082 231.769 63.023V110.574C231.769 112.489 230.556 113.766 228.003 113.766C225.45 113.766 224.238 112.489 224.238 110.574V88.8731H219.642V109.681C219.642 111.596 218.429 112.872 215.876 112.872C213.323 112.872 212.174 111.596 212.174 109.681ZM201.451 83.3201C204.387 83.3201 208.281 86.5753 208.281 92.3836C208.281 99.9791 203.175 103.745 195.898 103.745C188.047 103.745 182.622 98.9579 182.622 90.8518C182.622 86.8307 184.026 83.8308 186.133 81.7245H183.962C182.239 81.7245 180.707 80.5756 180.707 78.0863C180.707 75.3417 182.239 74.1928 183.962 74.1928H205.6C207.323 74.1928 208.919 75.2779 208.919 78.0863C208.919 80.6394 207.323 81.7245 205.6 81.7245H200.813C195.579 81.7245 190.09 84.5329 190.09 90.8518C190.09 94.8091 192.579 96.6601 195.898 96.6601C199.409 96.6601 201.324 95.1282 201.324 92.3198C201.324 88.4902 198.324 88.937 198.324 86.3839C198.324 84.4052 199.664 83.3201 201.451 83.3201ZM188.303 68.7675C186.707 68.3207 185.941 67.0442 185.941 65.3208C185.941 62.7677 187.792 61.0444 190.09 61.555C193.09 62.1933 197.622 62.8316 200.877 62.8316C202.536 62.8316 204.004 63.7251 204.004 66.1506C204.004 69.2143 202.153 70.1717 200.494 70.1717C197.239 70.1717 192.005 69.7249 188.303 68.7675Z" fill="black" style="fill:black;fill-opacity:1;"/>
</svg>
