<svg width="198" height="129" viewBox="0 0 198 129" fill="none" xmlns="http://www.w3.org/2000/svg">
<path d="M49.406 24.85C49.406 24.85 52.746 7.48999 70.776 5.48999C103.316 1.86999 99.486 21.51 99.486 21.51C99.486 21.51 104.156 10.16 126.196 10.83C148.226 11.5 149.566 30.19 149.566 30.19C149.566 30.19 163.586 22.18 174.266 28.85C184.946 35.52 185.616 54.89 177.606 55.56C177.606 55.56 192.296 60.9 192.966 73.59C193.636 86.28 174.266 90.95 174.266 90.95C174.266 90.95 183.616 106.97 163.586 115.65C140.106 125.83 135.546 106.97 135.546 106.97C135.546 106.97 138.216 125 115.516 123.66C92.816 122.32 94.146 105.63 94.146 105.63C94.146 105.63 83.156 121.46 69.446 120.32C53.426 118.98 48.746 110.3 48.746 100.29C48.746 100.29 32.056 112.98 21.366 104.96C9.93603 96.39 20.026 83.59 20.026 83.59C20.026 83.59 6.53603 85.61 4.66603 67.57C2.66603 48.21 22.696 52.21 22.696 52.21C22.696 52.21 10.696 39.38 22.696 26.84C37.386 11.48 49.406 24.84 49.406 24.84V24.85Z" fill="white" style="fill:white;fill-opacity:1;"/>
<path d="M117.846 128.24C116.996 128.24 116.136 128.21 115.236 128.16C106.076 127.62 99.1561 124.74 94.6761 119.59C93.3961 118.12 92.446 116.61 91.726 115.14C86.546 120.04 78.486 125.6 69.056 124.82C56.036 123.73 47.7661 117.77 45.1361 107.79C38.326 111.33 27.3161 115.08 18.6461 108.58C14.5861 105.53 12.1261 101.54 11.5361 97.03C11.0561 93.38 11.846 89.95 12.916 87.19C11.356 86.65 9.69605 85.82 8.08605 84.57C3.60605 81.1 0.946049 75.54 0.166049 68.05C-0.563951 61 1.11605 55.56 5.14605 51.89C7.96605 49.32 11.4161 48.14 14.5761 47.66C11.8661 41.03 11.4461 32.08 19.416 23.74C25.076 17.82 31.1361 14.86 37.5261 14.97C41.356 15.03 44.6261 16.22 47.1461 17.6C50.5061 10.59 57.636 2.40999 70.246 1.00999C84.136 -0.530011 93.996 1.73999 99.556 7.76999C100.776 9.08999 101.696 10.51 102.376 11.94C107.386 8.61999 115.086 5.98999 126.306 6.31999C142.416 6.80999 149.926 16.08 152.716 23.87C158.596 21.77 168.256 19.79 176.636 25.03C185.576 30.62 188.956 42.97 186.956 51.21C186.646 52.5 186.196 53.68 185.636 54.72C190.706 58.07 196.946 64.05 197.436 73.34C198.046 85 186.846 91.13 180.136 93.74C180.966 96.86 181.436 101.1 179.976 105.56C177.976 111.65 173.056 116.43 165.356 119.77C156.026 123.82 148.036 124.25 141.626 121.05C140.126 120.3 138.836 119.41 137.716 118.45C137.096 119.59 136.306 120.72 135.336 121.78C131.416 126.06 125.536 128.23 117.836 128.23L117.846 128.24ZM94.1461 101.14C94.6561 101.14 95.1661 101.23 95.6561 101.4C97.576 102.08 98.7861 103.97 98.6261 106C98.5561 107.2 98.446 118.16 115.776 119.18C121.876 119.54 126.226 118.39 128.666 115.77C131.686 112.53 131.096 107.65 131.086 107.6C130.776 105.23 132.376 103.01 134.726 102.57C137.076 102.13 139.356 103.59 139.916 105.92C139.916 105.93 141.256 110.87 145.746 113.05C149.666 114.96 155.066 114.44 161.796 111.53C167.006 109.27 170.236 106.35 171.416 102.85C173.036 98.04 170.386 93.24 170.356 93.2C169.666 91.97 169.576 90.47 170.146 89.18C170.706 87.89 171.836 86.92 173.206 86.59C173.356 86.55 188.916 82.49 188.466 73.84C187.966 64.34 176.166 59.84 176.046 59.8C174.066 59.07 172.866 57.06 173.146 54.97C173.436 52.88 175.126 51.27 177.226 51.09C177.536 50.96 178.346 49.76 178.496 47.17C178.786 42.33 176.566 35.61 171.876 32.69C163.646 27.55 151.896 34.06 151.776 34.12C150.426 34.88 148.786 34.9 147.426 34.17C146.066 33.44 145.176 32.07 145.066 30.53C144.936 29.06 143.296 15.87 126.046 15.34C108.426 14.8 104.016 22.5 103.616 23.28C102.816 25.47 100.496 26.58 98.246 25.96C95.9761 25.34 94.606 22.97 95.056 20.65C95.076 20.55 95.6661 16.75 92.8761 13.79C90.4361 11.22 84.716 8.45999 71.256 9.95999C56.696 11.58 53.8361 25.56 53.8161 25.7C53.4961 27.38 52.2461 28.73 50.6061 29.19C48.9761 29.64 47.2261 29.14 46.0761 27.89C45.9961 27.81 42.3761 24.01 37.3261 23.97H37.256C33.556 23.97 29.7461 25.99 25.9461 29.97C16.9861 39.33 25.6061 48.76 25.9761 49.16C27.3161 50.59 27.5761 52.72 26.6261 54.42C25.6761 56.13 23.7361 57.03 21.8161 56.64C19.8761 56.27 14.1361 55.88 11.2161 58.56C9.42605 60.2 8.73605 63.08 9.14605 67.12C9.64605 72 11.1261 75.46 13.5361 77.38C16.2061 79.51 19.2961 79.16 19.4261 79.15C21.2461 78.88 23.0261 79.75 23.9561 81.35C24.8861 82.95 24.7061 84.95 23.5661 86.4C22.5461 87.72 19.9661 92.04 20.4861 95.9C20.7661 97.99 21.9461 99.78 24.0661 101.38C31.7661 107.15 45.8861 96.82 46.0261 96.72C47.3861 95.69 49.2161 95.52 50.7461 96.28C52.2761 97.04 53.2461 98.6 53.2461 100.31C53.2461 110.11 58.3561 114.9 69.8161 115.86C80.6661 116.75 90.356 103.23 90.446 103.09C91.306 101.85 92.6961 101.15 94.1461 101.15V101.14Z" fill="#EFAB22" style="fill:#EFAB22;fill:color(display-p3 0.9373 0.6706 0.1333);fill-opacity:1;"/>
<path d="M58.7461 48.44L62.4761 48.39L62.5261 46.89C62.5261 45.49 62.0061 41.29 65.2761 41.29C65.9461 41.29 66.6761 41.5 67.1961 41.86C68.8561 42.95 68.5961 45.23 68.6961 47.82L68.6461 55.39C68.6461 57.15 68.7461 59.64 67.6061 61.72C67.3961 62.19 66.8261 62.81 66.6161 63.02C65.5761 64.06 63.1461 64.11 62.6761 64.16L48.4161 64.21C46.7561 64.21 45.2561 64.05 44.0061 63.07C42.1861 61.72 42.3461 58.45 42.3961 57.94V46.37C42.3961 44.4 43.1261 41.39 45.5561 41.39C47.3161 41.39 47.8861 42.12 48.4061 43.62C48.7161 44.55 48.7661 45.59 48.8161 46.52V46.62L48.7661 48.49H52.7061V46.42C52.7061 46.32 52.6561 43.72 53.7961 42.58C54.2661 42.11 54.8861 41.85 55.6661 41.85C56.4461 41.85 57.1161 42.16 57.5861 42.63C58.5161 43.62 58.7261 44.7 58.7261 47.04V48.44H58.7461ZM47.4361 79.62V72.15C47.3861 71.37 47.3861 70.59 47.4361 69.82C47.5961 68.37 48.6761 67.38 50.2361 67.38C50.5961 67.38 51.7361 67.43 52.1061 67.54C53.9261 68.11 54.0261 69.87 54.1261 71.43C54.1761 72 54.2261 75.99 54.3361 76.46C54.5461 76.51 55.2661 76.67 57.8061 76.67C60.0361 76.67 60.2461 76.57 60.2961 76.57H77.2561C77.3061 76.62 79.3861 77.09 79.5861 78.54C79.7461 79.84 79.5361 80.87 78.9161 81.6C78.0861 82.59 76.8461 82.64 76.7861 82.64H52.1461C49.3461 82.64 47.4261 81.19 47.4261 79.63L47.4361 79.62ZM48.5761 58.14H52.7261V54.66H48.5761C48.6761 55.8 48.5761 57.15 48.5761 58.14ZM58.6861 54.62C58.6861 55.87 58.6361 57.06 58.6361 58.1H62.6261L62.5761 54.62H58.6861ZM78.5061 57.16V61.88C78.4561 62.61 78.3461 63.44 77.9361 64.21C77.7261 64.62 77.4161 64.99 77.0561 65.2C76.5361 65.56 75.9661 65.77 75.3461 65.77C74.8261 65.77 74.3061 65.61 73.8961 65.35C72.4961 64.52 72.2861 62.65 72.2861 62.6V45.48C72.2861 45.17 72.3361 43.61 72.7561 42.78C73.0661 42.11 73.8461 41.64 74.8861 41.54C76.0261 41.38 77.1161 41.7 77.6861 42.32C78.1061 42.84 78.2061 43.36 78.3561 43.93C78.5661 44.6 78.5661 45.43 78.5161 46.16V51.35C79.0861 51.4 81.9361 51.51 82.5061 51.66C83.8561 51.92 84.3261 52.44 84.5261 53.22C84.6861 53.95 84.7361 55.14 84.3161 55.81C83.4861 57.16 81.7261 57.16 79.6961 57.16H78.5061Z" fill="#302F2C" style="fill:#302F2C;fill:color(display-p3 0.1882 0.1843 0.1725);fill-opacity:1;"/>
<path d="M111.276 47.2C111.746 48.08 111.586 49.69 110.916 50.57C109.566 52.28 103.866 51.71 102.926 51.76C102.406 51.81 101.886 51.81 101.266 51.81H99.6062C99.0862 51.76 98.5662 51.76 97.9962 51.76L91.3562 51.66C87.8262 51.66 86.4762 50.78 86.2262 48.86C86.0662 47.82 86.3862 46.99 87.0062 46.42C87.9362 45.59 88.4562 45.49 89.4962 45.49C89.7562 45.49 90.0662 45.54 90.3262 45.54H91.6262C92.6162 45.54 94.5862 45.49 95.5662 45.44C95.6162 44.92 95.6662 43 95.7262 42.54C95.7762 41.97 95.9862 41.4 96.2962 40.93C96.9662 40 97.9562 39.48 98.9962 39.53C99.9862 39.63 101.016 39.69 101.646 40.52C102.426 41.61 102.116 43.99 102.266 45.5H104.286C104.856 45.5 106.156 45.55 106.676 45.55H107.606C108.956 45.55 110.566 45.86 111.286 47.21L111.276 47.2ZM110.086 65.2C110.446 69.45 109.516 74.02 107.756 77.18C106.146 80.03 102.466 81.48 99.1962 81.54C96.2362 81.59 92.8162 80.55 90.8462 78.43C89.0862 76.51 88.4562 74.44 88.0962 71.89C87.6762 68.93 87.3662 66.18 87.7362 63.49C87.9962 61.57 88.6162 59.65 89.7562 57.73C91.2562 55.14 96.0362 53.68 99.8162 53.84C106.246 54.1 109.616 59.34 110.086 65.2ZM103.866 68.62C103.816 66.23 103.706 62.45 101.586 61C101.016 60.64 100.236 60.43 99.4562 60.38C97.6362 60.28 95.5162 61 94.8362 62.51C93.5362 65.31 93.6462 68.16 94.2662 71.12C94.5762 72.62 95.1462 74.49 96.4462 75.37C97.0162 75.73 99.0362 75.89 99.6062 75.79C102.716 75.32 103.906 71.43 103.856 68.63L103.866 68.62ZM122.946 80.86C122.846 81.12 122.736 81.33 122.636 81.59C122.426 82.01 122.116 82.42 121.706 82.73C120.926 83.2 119.946 83.3 119.066 83.09C118.546 82.99 118.076 82.78 117.716 82.47C116.466 81.33 116.526 78.63 116.526 78.53V47.05C116.476 45.44 116.526 42.85 117.516 41.92C118.246 41.19 119.126 41.09 120.056 41.09C121.246 41.09 122.336 41.82 122.756 42.96C123.376 44.41 123.326 46.02 123.376 47.63V47.89C123.536 53.18 123.376 59.04 123.376 64.02V76.57C123.376 77.19 123.426 77.81 123.376 78.44C123.276 79.27 123.216 80.05 122.956 80.88L122.946 80.86Z" fill="#302F2C" style="fill:#302F2C;fill:color(display-p3 0.1882 0.1843 0.1725);fill-opacity:1;"/>
<path d="M131.506 84.49C129.686 84.49 128.236 83.04 128.236 81.22C128.236 79.4 129.686 77.9 131.506 77.9C133.326 77.9 134.776 79.4 134.776 81.22C134.776 83.04 133.326 84.49 131.506 84.49Z" fill="#302F2C" style="fill:#302F2C;fill:color(display-p3 0.1882 0.1843 0.1725);fill-opacity:1;"/>
<path d="M141.876 84.49C140.056 84.49 138.606 83.04 138.606 81.22C138.606 79.4 140.056 77.9 141.876 77.9C143.696 77.9 145.146 79.4 145.146 81.22C145.146 83.04 143.696 84.49 141.876 84.49Z" fill="#302F2C" style="fill:#302F2C;fill:color(display-p3 0.1882 0.1843 0.1725);fill-opacity:1;"/>
<path d="M152.246 84.49C150.426 84.49 148.976 83.04 148.976 81.22C148.976 79.4 150.426 77.9 152.246 77.9C154.066 77.9 155.516 79.4 155.516 81.22C155.516 83.04 154.066 84.49 152.246 84.49Z" fill="#302F2C" style="fill:#302F2C;fill:color(display-p3 0.1882 0.1843 0.1725);fill-opacity:1;"/>
</svg>
