<svg width="295" height="164" viewBox="0 0 295 164" fill="none" xmlns="http://www.w3.org/2000/svg">
<path d="M51.5578 11.1248C51.5578 11.1248 70.9679 25.2526 99.2078 25.2526C127.448 25.2526 146.28 2.31055 146.28 2.31055C146.28 2.31055 163.345 21.7206 193.351 27.0185C223.357 32.3164 255.129 22.3146 255.129 22.3146C255.129 22.3146 255.723 47.0225 265.725 60.5564C275.727 74.0903 293.371 91.7344 293.371 91.7344C293.371 91.7344 276.305 104.674 273.367 116.442C270.429 128.21 273.961 142.323 273.961 142.323C273.961 142.323 265.725 135.852 237.485 141.15C209.245 146.448 204.541 161.154 204.541 161.154C204.541 161.154 190.413 148.214 161.595 147.62C132.777 147.027 115.117 161.748 115.117 161.748C115.117 161.748 97.4731 148.214 77.4692 141.744C57.4652 135.274 28.0532 149.98 28.0532 149.98C28.0532 149.98 28.0532 117.615 22.177 109.379C16.3008 101.143 1.57921 82.9045 1.57921 82.9045C1.57921 82.9045 31.882 72.6056 39.5242 54.9615C47.1663 37.3174 51.5891 11.1248 51.5891 11.1248H51.5578Z" fill="white" style="fill:white;fill-opacity:1;"/>
<path d="M115.102 163.312C114.773 163.312 114.43 163.203 114.148 162.984C113.976 162.843 96.4729 149.544 76.9691 143.23C57.8091 137.026 29.0221 151.232 28.7252 151.372C28.2407 151.607 27.6625 151.591 27.2093 151.31C26.756 151.029 26.4747 150.528 26.4747 149.981C26.4747 141.12 25.4746 116.709 20.8799 110.286C15.0975 102.175 0.485243 84.0622 0.34459 83.8903C0.0164005 83.4996 -0.0773565 82.9683 0.0632962 82.4682C0.203949 81.9837 0.579046 81.593 1.06352 81.4211C1.36045 81.3273 30.8037 71.1378 38.0864 54.3377C45.5723 37.0686 49.995 11.126 50.0418 10.8604C50.1356 10.329 50.4951 9.87578 50.9952 9.67261C51.4953 9.46945 52.0735 9.53195 52.5111 9.86014C52.6986 10.0008 71.89 23.6754 99.2547 23.6754C126.619 23.6754 144.936 1.53041 145.123 1.29599C145.42 0.93654 145.842 0.733398 146.311 0.733398C146.811 0.749027 147.202 0.920882 147.514 1.2647C147.686 1.45224 164.611 20.3309 193.68 25.4726C222.951 30.6455 254.395 20.9092 254.723 20.8154C255.192 20.6748 255.707 20.7529 256.098 21.0343C256.504 21.3156 256.739 21.7844 256.754 22.2688C256.754 22.5033 257.458 46.6487 267.038 59.62C276.852 72.9038 294.356 90.4541 294.543 90.626C294.856 90.9386 295.028 91.3918 294.996 91.8294C294.965 92.2826 294.746 92.6889 294.387 92.9702C294.215 93.0952 277.727 105.723 274.961 116.819C272.148 128.071 275.508 141.808 275.555 141.949C275.711 142.605 275.446 143.277 274.883 143.636C274.32 143.996 273.586 143.965 273.07 143.558C273.008 143.511 264.725 137.651 237.844 142.683C211.027 147.715 206.135 161.499 206.088 161.64C205.916 162.14 205.51 162.531 204.994 162.656C204.479 162.781 203.932 162.656 203.541 162.296C203.4 162.171 189.429 149.747 161.611 149.169C133.73 148.591 116.336 162.781 116.164 162.921C115.867 163.156 115.524 163.281 115.164 163.281L115.102 163.312ZM65.8575 138.526C70.0301 138.526 74.1247 139.026 77.9224 140.261C95.5352 145.965 111.07 156.858 115.07 159.796C119.212 156.702 135.996 145.59 161.595 146.074C185.49 146.559 199.399 155.295 203.932 158.686C206.323 154.295 214.262 143.918 237.172 139.62C256.864 135.932 267.147 137.885 271.773 139.558C270.882 134.635 269.648 124.805 271.836 116.069C274.399 105.801 286.792 95.0331 291.011 91.5949C286.807 87.3129 272.867 72.8882 264.443 61.4797C255.832 49.8368 254.004 30.6299 253.644 24.363C246.237 26.4103 218.872 33.1147 193.07 28.5513C167.034 23.9567 150.765 9.14129 146.311 4.62477C141.716 9.64139 124.197 26.8166 99.2078 26.8166C75.7032 26.8166 58.4029 17.3616 52.6674 13.7515C51.3702 20.6279 47.2288 41.0538 40.9307 55.5879C34.195 71.1222 11.253 80.921 4.12661 83.6403C7.92423 88.3756 18.6138 101.784 23.4116 108.489C28.6002 115.756 29.4285 139.714 29.5691 147.543C35.3202 144.949 50.9952 138.542 65.8731 138.542L65.8575 138.526Z" fill="black" style="fill:black;fill-opacity:1;"/>
<path d="M104.319 110.574V63.023C104.319 61.1082 105.596 59.8317 108.149 59.8317C110.702 59.8317 111.979 61.1082 111.979 63.023V110.574C111.979 112.489 110.702 113.766 108.149 113.766C105.596 113.766 104.319 112.489 104.319 110.574ZM72.2781 93.9155C70.9377 94.6176 70.2994 95.0644 68.8314 95.0644C66.7889 95.0644 65.3209 93.0857 65.3209 91.0433C65.3209 90.1497 65.5124 89.0646 66.7251 88.4263C72.5334 85.2988 76.5545 82.1074 78.8523 78.1501H70.6824C68.959 78.1501 67.4272 77.1927 67.4272 74.7034C67.4272 71.9589 68.959 71.0015 70.6824 71.0015H95.5112C97.2346 71.0015 98.8303 71.895 98.8303 74.7034C98.8303 77.2565 97.2346 78.1501 95.5112 78.1501H87.5328C84.7882 84.7244 78.8523 90.3412 72.2781 93.9155ZM79.682 100.617V94.5538C79.682 93.0857 80.5756 91.5539 83.5755 91.5539C86.2563 91.5539 87.3413 93.0857 87.3413 94.5538V99.9791C91.5539 99.5323 95.1921 98.894 98.3196 98.1281C101.702 97.2983 102.915 99.9791 102.915 101.894C102.915 103.681 102.085 104.702 100.937 105.085C92.5113 107.83 75.4056 108.596 66.9166 108.468C64.6188 108.404 63.2784 106.872 63.2784 104.575C63.2784 102.66 64.172 100.937 66.4059 100.937C71.2568 100.937 75.6609 100.809 79.682 100.617ZM76.0439 66.9803C74.6397 66.5974 74.0014 65.3208 74.0014 63.9166C74.0014 60.8529 75.6609 59.5125 77.9587 59.9593C82.3628 60.8529 85.7456 60.9167 89.8944 60.9167C91.5539 60.9167 92.9581 61.7465 92.9581 64.1719C92.9581 67.2356 91.171 68.0654 89.5115 68.0654C84.9159 68.0654 79.7459 68.0016 76.0439 66.9803ZM86.1924 86.8945C85.5542 86.2562 85.2988 85.6818 85.2988 84.5967C85.2988 82.618 86.9584 81.15 88.7455 81.15C89.5753 81.15 90.2136 81.2777 91.2348 81.8521C93.4688 83.1287 96.6601 85.2988 98.6388 87.2136C99.7238 88.2987 99.7877 89.1284 99.7877 90.0859C99.7877 92.5113 97.8728 93.9155 96.0857 93.9155C94.2347 93.9155 93.5326 93.2772 92.3199 92.1922C90.0221 90.1497 87.7881 88.4263 86.1924 86.8945ZM140.79 101.894V86.6392C140.79 85.1711 141.875 83.6393 144.875 83.6393C147.556 83.6393 148.832 85.1711 148.832 86.6392V101.894H171.363C173.342 101.894 174.619 103.298 174.619 105.66C174.619 108.021 173.342 109.426 171.363 109.426H124.705C122.727 109.426 121.45 108.021 121.45 105.66C121.45 103.298 122.727 101.894 124.705 101.894H140.79ZM168.172 68.959C168.172 74.5758 166.895 84.2137 164.598 91.4901C164.215 92.6389 163.13 93.9155 161.215 93.9155C158.47 93.9155 156.236 92.5751 157.066 89.6391C158.981 82.8095 159.874 75.4055 159.874 72.5333C159.874 71.895 159.364 71.4483 158.598 71.4483H132.492C130.45 71.4483 129.301 70.044 129.301 67.7463C129.301 65.3846 130.514 63.9166 132.492 63.9166H162.555C166.64 63.9166 168.172 66.5974 168.172 68.959ZM181.026 83.2563C181.026 69.4058 187.728 63.9804 197.047 63.9804C206.43 63.9804 212.876 69.3419 212.876 83.2563C212.876 97.7451 206.43 102.596 197.047 102.596C187.728 102.596 181.026 97.6813 181.026 83.2563ZM219.259 110.574V63.023C219.259 61.1082 220.536 59.8317 223.089 59.8317C225.642 59.8317 226.918 61.1082 226.918 63.023V71.7674H231.961C233.939 71.7674 235.216 72.7886 235.216 75.4055C235.216 78.0225 233.939 79.0437 231.961 79.0437H226.918V88.3625H231.961C233.939 88.3625 235.216 89.3838 235.216 92.0007C235.216 94.6176 233.939 95.6388 231.961 95.6388H226.918V110.574C226.918 112.489 225.642 113.766 223.089 113.766C220.536 113.766 219.259 112.489 219.259 110.574ZM205.281 83.2563C205.281 74.9588 202.153 71.3844 197.047 71.3844C191.941 71.3844 188.75 74.9588 188.75 83.2563C188.75 91.5539 191.941 95.192 197.047 95.192C202.153 95.192 205.281 91.5539 205.281 83.2563Z" fill="black" style="fill:black;fill-opacity:1;"/>
</svg>
