<?xml version="1.0" encoding="UTF-8"?>
<svg id="Layer_2" data-name="Layer 2" xmlns="http://www.w3.org/2000/svg" xmlns:xlink="http://www.w3.org/1999/xlink" viewBox="0 0 583.4 651.32">
  <defs>
    <style>
      .cls-1 {
        fill: none;
      }

      .cls-1, .cls-2, .cls-3, .cls-4, .cls-5, .cls-6 {
        stroke-linecap: round;
        stroke-linejoin: round;
      }

      .cls-1, .cls-2, .cls-3, .cls-5, .cls-6 {
        stroke: #1e1e1e;
        stroke-width: 9px;
      }

      .cls-2 {
        fill: #fff78d;
      }

      .cls-3, .cls-7 {
        fill: #83dd8d;
      }

      .cls-4 {
        fill: #b7f9bb;
        stroke: #80d884;
        stroke-width: 7px;
      }

      .cls-5 {
        fill: #fff;
      }

      .cls-6 {
        fill: #aa720f;
      }

      .cls-8 {
        clip-path: url(#clippath);
      }
    </style>
    <clipPath id="clippath">
      <path class="cls-3" d="M67.11,261.76s-2.16-132.53,123-142.89,186.94,56.72,193.07,139.61,6.79,148.12,6.79,148.12c0,0-3.69,53.04,53.14,67.95s159.98,38.13,130.66,87.24-161.07,34.13-171.43,31.69-5.63,18.27-8.73,22.55-65.03,19.87-87.93,11.62c-10.32-3.72-11.92-18.88-9.09-23.75,1.9-3.27-.76-7.3-4.51-6.84l-123.05,15.06s8.25,18-8.64,24.67-72.79,18.82-70.44,0,8.21-18.47,8.21-18.47c0,0-16.91-50.71-23.24-125.56s-10.16-152.08-10.16-152.08c0,0-44.07,5.97-48.32-26.3s19.1-47.19,50.68-52.6Z"/>
    </clipPath>
  </defs>
  <g id="Layer_1-2" data-name="Layer 1">
    <g>
      <path class="cls-6" d="M225.11,113.87S238.52-5.52,261.3,5.18c0,0,17.74-5.92-1.22,54.01,0,0,27.34-20.96,30.02-7.39s-11.44,19.94-28.79,28.13-16.89,43.25-16.89,43.25l-22.01-1.18,2.71-8.12Z"/>
      <path class="cls-6" d="M148.13,124.94S134.71,5.55,111.94,16.25c0,0-17.74-5.92,1.22,54.01,0,0-27.34-20.96-30.02-7.39s11.44,19.94,28.79,28.13,16.89,43.25,16.89,43.25l22.01-1.18-2.71-8.12Z"/>
      <path class="cls-2" d="M284.02,123.18s38.8-51.58,69.85-4.31c0,0,6.99,6.19,0,22.82,0,0,34.38-5.86,37.99,31.5s-6.83,38.16-6.83,38.16c0,0,34.27-1.52,42.84,21.13s-1.07,34.3-15.13,46.75,28.52-2.01,28.12,35.75-29.73,46.19-29.73,46.19c0,0,36.96,1.61,37.36,25.31s-32.14,31.33-32.14,31.33c0,0,27.06-2.33,26.35,16.11s-7.7,31.7-7.7,31.7c0,0,18.02-14.73,27.12-4.22s12.11,18.93,12.11,18.93c0,0,8.97-9.77,19.33-9.67s21.21,21.47,21.21,21.47c0,0,27.53-9.47,32.44.69s7.32,22.21,7.32,22.21l-158.69-55.63-30.67-205.5-81.17-130.72Z"/>
      <g>
        <path class="cls-7" d="M67.11,261.76s-2.16-132.53,123-142.89,186.94,56.72,193.07,139.61,6.79,148.12,6.79,148.12c0,0-3.69,53.04,53.14,67.95s159.98,38.13,130.66,87.24-161.07,34.13-171.43,31.69-5.63,18.27-8.73,22.55-65.03,19.87-87.93,11.62c-10.32-3.72-11.92-18.88-9.09-23.75,1.9-3.27-.76-7.3-4.51-6.84l-123.05,15.06s8.25,18-8.64,24.67-72.79,18.82-70.44,0,8.21-18.47,8.21-18.47c0,0-16.91-50.71-23.24-125.56s-10.16-152.08-10.16-152.08c0,0-44.07,5.97-48.32-26.3s19.1-47.19,50.68-52.6Z"/>
        <g class="cls-8">
          <rect class="cls-4" x="114.67" y="368.38" width="115.84" height="182.03" rx="57.92" ry="57.92" transform="translate(-40.31 17.24) rotate(-5.12)"/>
          <line class="cls-4" x1="132.64" y1="422.34" x2="193.9" y2="416.85"/>
          <line class="cls-4" x1="135.74" y1="449.56" x2="194.81" y2="443.02"/>
          <line class="cls-4" x1="135.74" y1="476.15" x2="202.35" y2="470.49"/>
          <line class="cls-4" x1="142.18" y1="502.2" x2="208.94" y2="494"/>
          <line class="cls-4" x1="151.63" y1="524.41" x2="210.79" y2="517.19"/>
        </g>
        <path class="cls-1" d="M67.11,261.76s-2.16-132.53,123-142.89,186.94,56.72,193.07,139.61,6.79,148.12,6.79,148.12c0,0-3.69,53.04,53.14,67.95s159.98,38.13,130.66,87.24-161.07,34.13-171.43,31.69-5.63,18.27-8.73,22.55-65.03,19.87-87.93,11.62c-10.32-3.72-11.92-18.88-9.09-23.75,1.9-3.27-.76-7.3-4.51-6.84l-123.05,15.06s8.25,18-8.64,24.67-72.79,18.82-70.44,0,8.21-18.47,8.21-18.47c0,0-16.91-50.71-23.24-125.56s-10.16-152.08-10.16-152.08c0,0-44.07,5.97-48.32-26.3s19.1-47.19,50.68-52.6Z"/>
      </g>
      <path class="cls-1" d="M64.74,340.66s238.19,2.93,201.47-48.71"/>
      <circle cx="120.16" cy="252.8" r="8.45"/>
      <circle cx="202.35" cy="252.8" r="8.45"/>
      <path class="cls-3" d="M64.74,374.2S-12.48,414.32,7.94,454.11s60.8-5.02,64.02-8.49-7.21-71.42-7.21-71.42Z"/>
      <path class="cls-3" d="M251.62,363.11s-77.22,40.12-56.81,79.91,60.8-5.02,64.02-8.49"/>
      <rect x="97.92" y="228.4" width="37.81" height="9.52" rx="3.36" ry="3.36"/>
      <rect x="190.04" y="228.4" width="37.81" height="9.52" rx="3.36" ry="3.36"/>
      <path class="cls-5" d="M71.96,340.66l20.15,32.65c.92,1.49,3.19,1.03,3.46-.69l5.11-31.96h-28.72Z"/>
      <path class="cls-5" d="M244.41,326.15l-13.91,35.76c-.63,1.63-2.95,1.59-3.53-.05l-10.81-30.51,28.25-5.2Z"/>
    </g>
  </g>
</svg>