<svg width="220" height="122" viewBox="0 0 220 122" fill="none" xmlns="http://www.w3.org/2000/svg">
<path d="M38.4499 7.75044C38.4499 7.75044 52.9252 18.2864 73.9855 18.2864C95.0457 18.2864 109.09 1.17709 109.09 1.17709C109.09 1.17709 121.817 15.6524 144.194 19.6034C166.571 23.5544 190.266 16.0953 190.266 16.0953C190.266 16.0953 190.709 34.5216 198.168 44.6147C205.627 54.7078 218.785 67.8661 218.785 67.8661C218.785 67.8661 206.058 77.5163 203.867 86.2924C201.676 95.0685 204.31 105.593 204.31 105.593C204.31 105.593 198.168 100.768 177.107 104.719C156.047 108.67 152.539 119.637 152.539 119.637C152.539 119.637 142.003 109.987 120.512 109.544C99.02 109.101 85.8501 120.08 85.8501 120.08C85.8501 120.08 72.6918 109.987 57.7736 105.162C42.8554 100.336 20.921 111.304 20.921 111.304C20.921 111.304 20.921 87.1665 16.5388 81.0244C12.1565 74.8823 1.1777 61.2811 1.1777 61.2811C1.1777 61.2811 23.7764 53.6005 29.4756 40.4422C35.1749 27.2839 38.4732 7.75044 38.4732 7.75044H38.4499Z" fill="#FFC6AA" style="fill:#FFC6AA;fill:color(display-p3 1.0000 0.7765 0.6667);fill-opacity:1;"/>
<path d="M85.8384 121.245C85.5937 121.245 85.3373 121.164 85.1275 121C84.9993 120.896 71.9459 110.977 57.4007 106.269C43.1118 101.642 21.6436 112.236 21.4222 112.341C21.0609 112.516 20.6296 112.504 20.2916 112.294C19.9537 112.085 19.7439 111.712 19.7439 111.304C19.7439 104.695 18.998 86.4905 15.5715 81.7004C11.2592 75.6515 0.361876 62.1435 0.256982 62.0153C0.0122309 61.724 -0.0576896 61.3277 0.0472039 60.9548C0.152097 60.5935 0.431831 60.302 0.79313 60.1738C1.01457 60.1039 22.9723 52.505 28.4034 39.9761C33.9861 27.0975 37.2844 7.75044 37.3193 7.55231C37.3893 7.15605 37.6574 6.81804 38.0303 6.66653C38.4033 6.51502 38.8345 6.56163 39.1608 6.80638C39.3007 6.91128 53.6129 17.1093 74.0205 17.1093C94.4281 17.1093 108.088 0.594379 108.227 0.419557C108.449 0.151496 108.764 0 109.113 0C109.486 0.0116548 109.777 0.139818 110.011 0.396225C110.139 0.536083 122.761 14.6151 144.439 18.4496C166.268 22.3073 189.718 15.0464 189.963 14.9764C190.312 14.8715 190.697 14.9298 190.988 15.1396C191.291 15.3494 191.466 15.699 191.478 16.0603C191.478 16.2351 192.002 34.2419 199.147 43.9154C206.466 53.822 219.519 66.9104 219.659 67.0386C219.892 67.2717 220.021 67.6097 219.997 67.936C219.974 68.274 219.811 68.577 219.543 68.7868C219.415 68.88 207.119 78.2971 205.056 86.5721C202.958 94.9636 205.464 105.208 205.499 105.313C205.615 105.803 205.417 106.304 204.997 106.572C204.578 106.84 204.03 106.817 203.646 106.513C203.599 106.479 197.422 102.108 177.376 105.861C157.376 109.614 153.728 119.893 153.693 119.998C153.565 120.371 153.262 120.662 152.877 120.756C152.492 120.849 152.085 120.756 151.793 120.488C151.688 120.394 141.269 111.129 120.523 110.698C99.731 110.266 86.7592 120.849 86.631 120.954C86.4095 121.129 86.1532 121.222 85.8851 121.222L85.8384 121.245ZM49.114 102.761C52.2259 102.761 55.2795 103.134 58.1116 104.054C71.2466 108.308 82.8315 116.432 85.8152 118.623C88.9037 116.315 101.421 108.029 120.512 108.39C138.332 108.751 148.705 115.266 152.085 117.795C153.868 114.52 159.788 106.782 176.874 103.577C191.559 100.826 199.228 102.283 202.678 103.53C202.014 99.8586 201.093 92.5277 202.725 86.0127C204.636 78.3554 213.878 70.3252 217.025 67.7612C213.89 64.5677 203.494 53.8104 197.212 45.3023C190.79 36.6195 189.427 22.2957 189.159 17.6221C183.634 19.1489 163.227 24.1488 143.984 20.7456C124.567 17.3191 112.435 6.27029 109.113 2.90204C105.687 6.64324 92.6216 19.4519 73.9855 19.4519C56.4566 19.4519 43.5547 12.4007 39.2773 9.70843C38.31 14.8366 35.2215 30.0694 30.5246 40.9084C25.5014 52.4933 8.39207 59.8009 3.07747 61.8289C5.90959 65.3603 13.8815 75.3601 17.4595 80.36C21.3289 85.7795 21.9466 103.646 22.0515 109.485C26.3405 107.551 38.0303 102.772 49.1257 102.772L49.114 102.761Z" fill="black" style="fill:black;fill-opacity:1;"/>
</svg>
