<?xml version="1.0" encoding="UTF-8"?>
<svg id="Layer_2" data-name="Layer 2" xmlns="http://www.w3.org/2000/svg" xmlns:xlink="http://www.w3.org/1999/xlink" viewBox="0 0 408.3 787.12">
  <defs>
    <style>
      .cls-1 {
        stroke: #000;
        stroke-width: 9px;
      }

      .cls-1, .cls-2, .cls-3, .cls-4, .cls-5, .cls-6, .cls-7 {
        fill: none;
      }

      .cls-1, .cls-8, .cls-9, .cls-3, .cls-4, .cls-5 {
        stroke-linejoin: round;
      }

      .cls-1, .cls-8, .cls-9, .cls-3, .cls-4, .cls-5, .cls-10 {
        stroke-linecap: round;
      }

      .cls-11, .cls-9 {
        fill: #ffc23b;
      }

      .cls-2 {
        stroke: #e2ad42;
      }

      .cls-2, .cls-12, .cls-6, .cls-7, .cls-10 {
        stroke-miterlimit: 10;
      }

      .cls-2, .cls-6 {
        stroke-width: 10px;
      }

      .cls-8, .cls-13 {
        fill: #ea5454;
      }

      .cls-8, .cls-4 {
        stroke-width: 11.59px;
      }

      .cls-8, .cls-4, .cls-5, .cls-12, .cls-6, .cls-7, .cls-10 {
        stroke: #ffc23b;
      }

      .cls-14, .cls-12, .cls-10 {
        fill: #d8a33a;
      }

      .cls-15 {
        clip-path: url(#clippath-1);
      }

      .cls-9, .cls-3 {
        stroke: #fffbd7;
        stroke-width: 5px;
      }

      .cls-5 {
        stroke-width: 12px;
      }

      .cls-12, .cls-7, .cls-10 {
        stroke-width: 8px;
      }

      .cls-16 {
        clip-path: url(#clippath);
      }
    </style>
    <clipPath id="clippath">
      <rect class="cls-8" x="5.8" y="252.21" width="396.71" height="329.99" rx="164.13" ry="164.13"/>
    </clipPath>
    <clipPath id="clippath-1">
      <path class="cls-12" d="M155.73,616.06s-64,143.4,29.57,167.03l47.39-2.69s-13.72-14.28-6.86-24.41c6.86-10.13,10.41,20.33,15.2,21.64s69.58,0,69.58,0c0,0-108.3-120.66-58.32-173.17,49.98-52.51-96.56,11.61-96.56,11.61Z"/>
    </clipPath>
  </defs>
  <g id="Layer_1-2" data-name="Layer 1">
    <g>
      <g>
        <rect class="cls-13" x="5.8" y="252.21" width="396.71" height="329.99" rx="164.13" ry="164.13"/>
        <g class="cls-16">
          <g>
            <path class="cls-11" d="M77.9,318.02c22.41,28.29-.52,51.22-28.81,28.81-28.29,22.41-51.22-.52-28.81-28.81-22.41-28.29.52-51.22,28.81-28.81,28.29-22.41,51.22.52,28.81,28.81Z"/>
            <path class="cls-3" d="M77.9,318.02c22.41,28.29-.52,51.22-28.81,28.81-28.29,22.41-51.22-.52-28.81-28.81-22.41-28.29.52-51.22,28.81-28.81,28.29-22.41,51.22.52,28.81,28.81Z"/>
          </g>
          <g>
            <path class="cls-11" d="M404.62,458.27c22.41,28.29-.52,51.22-28.81,28.81-28.29,22.41-51.22-.52-28.81-28.81-22.41-28.29.52-51.22,28.81-28.81,28.29-22.41,51.22.52,28.81,28.81Z"/>
            <path class="cls-3" d="M404.62,458.27c22.41,28.29-.52,51.22-28.81,28.81-28.29,22.41-51.22-.52-28.81-28.81-22.41-28.29.52-51.22,28.81-28.81,28.29-22.41,51.22.52,28.81,28.81Z"/>
          </g>
          <g>
            <path class="cls-11" d="M151.48,502.02c13.31,16.8-.31,30.42-17.11,17.11-16.8,13.31-30.42-.31-17.11-17.11-13.31-16.8.31-30.42,17.11-17.11,16.8-13.31,30.42.31,17.11,17.11Z"/>
            <path class="cls-3" d="M151.48,502.02c13.31,16.8-.31,30.42-17.11,17.11-16.8,13.31-30.42-.31-17.11-17.11-13.31-16.8.31-30.42,17.11-17.11,16.8-13.31,30.42.31,17.11,17.11Z"/>
          </g>
          <g>
            <path class="cls-11" d="M283.08,294.25c13.31,16.8-.31,30.42-17.11,17.11-16.8,13.31-30.42-.31-17.11-17.11-13.31-16.8.31-30.42,17.11-17.11,16.8-13.31,30.42.31,17.11,17.11Z"/>
            <path class="cls-3" d="M283.08,294.25c13.31,16.8-.31,30.42-17.11,17.11-16.8,13.31-30.42-.31-17.11-17.11-13.31-16.8.31-30.42,17.11-17.11,16.8-13.31,30.42.31,17.11,17.11Z"/>
          </g>
          <g>
            <path class="cls-11" d="M238.82,573.63c13.31,16.8-.31,30.42-17.11,17.11-16.8,13.31-30.42-.31-17.11-17.11-13.31-16.8.31-30.42,17.11-17.11,16.8-13.31,30.42.31,17.11,17.11Z"/>
            <path class="cls-3" d="M238.82,573.63c13.31,16.8-.31,30.42-17.11,17.11-16.8,13.31-30.42-.31-17.11-17.11-13.31-16.8.31-30.42,17.11-17.11,16.8-13.31,30.42.31,17.11,17.11Z"/>
          </g>
        </g>
        <rect class="cls-4" x="5.8" y="252.21" width="396.71" height="329.99" rx="164.13" ry="164.13"/>
      </g>
      <g>
        <path class="cls-14" d="M155.73,616.06s-64,143.4,29.57,167.03l47.39-2.69s-13.72-14.28-6.86-24.41c6.86-10.13,10.41,20.33,15.2,21.64s69.58,0,69.58,0c0,0-108.3-120.66-58.32-173.17,49.98-52.51-96.56,11.61-96.56,11.61Z"/>
        <g class="cls-15">
          <path class="cls-10" d="M168.15,654.25s-22.75,107.93,29.99,136.16"/>
          <path class="cls-10" d="M188.53,634.56s-12.05,62.35-2.1,84.88"/>
          <path class="cls-10" d="M189.58,735.69s9.85,47.9,26.15,56.7"/>
          <path class="cls-10" d="M203.9,678.04s14.72,93.26,32.5,105.12"/>
          <path class="cls-10" d="M215.73,638.17s14.04,132.19,70.6,149.2"/>
        </g>
        <path class="cls-7" d="M155.73,616.06s-64,143.4,29.57,167.03l47.39-2.69s-13.72-14.28-6.86-24.41c6.86-10.13,10.41,20.33,15.2,21.64s69.58,0,69.58,0c0,0-108.3-120.66-58.32-173.17,49.98-52.51-96.56,11.61-96.56,11.61Z"/>
      </g>
      <rect class="cls-5" x="89.1" y="252.21" width="230.1" height="329.99" rx="115.05" ry="115.05"/>
      <rect class="cls-11" x="140.73" y="571.88" width="126.84" height="49.96" rx="24.98" ry="24.98"/>
      <path class="cls-2" d="M188.89,204.35S78.97,30.58,207.24,6.87s-34.06,185.01,8.29,197.48-26.64,0-26.64,0Z"/>
      <path class="cls-6" d="M182.99,204.35S73.07,30.58,201.35,6.87s-34.06,185.01,8.29,197.48-26.64,0-26.64,0Z"/>
      <rect class="cls-11" x="130.21" y="187.74" width="147.89" height="64.47" rx="24.98" ry="24.98"/>
      <g>
        <circle cx="159.9" cy="401.33" r="13.11"/>
        <circle cx="242.79" cy="401.33" r="13.11"/>
        <path class="cls-1" d="M222.43,423.37c0,12.03-9.76,21.79-21.79,21.79s-21.79-9.76-21.79-21.79"/>
      </g>
      <circle class="cls-9" cx="242.35" cy="400.97" r=".98"/>
      <circle class="cls-9" cx="159.73" cy="400.97" r=".98"/>
    </g>
  </g>
</svg>