<svg width="375" height="503" viewBox="0 0 375 503" fill="none" xmlns="http://www.w3.org/2000/svg">
<mask id="mask0_3340_54803" style="mask-type:luminance" maskUnits="userSpaceOnUse" x="0" y="0" width="375" height="503">
<path d="M375 0H0V503H375V0Z" fill="white" style="fill:white;fill-opacity:1;"/>
</mask>
<g mask="url(#mask0_3340_54803)">
<path d="M189.55 -30.67C188.51 4.24998 187.94 43.43 187.95 78.37H187.15V64.74C187.06 45.18 186.66 16.22 186.26 -3.41001C186.12 -10.19 185.77 -23.89 185.55 -30.67H189.55Z" fill="#4F4F4F" style="fill:#4F4F4F;fill:color(display-p3 0.3098 0.3098 0.3098);fill-opacity:1;"/>
<path d="M157.49 -27.36C159.07 -2.35999 161.48 22.97 164.22 47.88C164.65 51.45 165.04 55.02 165.51 58.59L164.32 58.73C163.63 52.58 162.42 43.57 161.58 37.33C159.14 19.65 156.39 1.63001 153.42 -16C152.79 -19.54 152.2 -23.09 151.53 -26.64L157.49 -27.36Z" fill="#4F4F4F" style="fill:#4F4F4F;fill:color(display-p3 0.3098 0.3098 0.3098);fill-opacity:1;"/>
<path d="M120.171 -30.16C125.611 -0.180014 132.39 29.54 140.5 58.9L138.571 59.43C134.651 44.73 130.15 30.19 125.51 15.69C120.8 1.18999 115.951 -13.25 110.521 -27.52L120.161 -30.17L120.171 -30.16Z" fill="#4F4F4F" style="fill:#4F4F4F;fill:color(display-p3 0.3098 0.3098 0.3098);fill-opacity:1;"/>
<path d="M84.79 -31.39C91.74 -10.69 100.47 13.48 108.13 33.95L111.67 43.2L110.92 43.49L107.37 34.24C100.75 17.32 92.0301 -4.10999 84.9601 -20.85L81.04 -29.96L84.77 -31.39H84.79Z" fill="#4F4F4F" style="fill:#4F4F4F;fill:color(display-p3 0.3098 0.3098 0.3098);fill-opacity:1;"/>
<path d="M57.8105 -34.77C72.9405 3.77 89.2505 42.32 106.38 80.01L104.921 80.67C102.821 75.92 100.62 71.22 98.4805 66.49C87.6005 43.07 76.2305 19.37 64.6805 -3.69C60.6005 -11.83 54.7205 -23.51 50.5205 -31.47L57.8005 -34.78L57.8105 -34.77Z" fill="#4F4F4F" style="fill:#4F4F4F;fill:color(display-p3 0.3098 0.3098 0.3098);fill-opacity:1;"/>
<path d="M21.3105 -30.29C32.2405 -7.52001 44.0605 15.25 56.0405 37.49C57.7905 40.66 59.5105 43.86 61.2905 47.01L60.2405 47.59C57.2705 42.1 52.7406 34.13 49.6006 28.62C40.6406 13.01 31.2706 -2.80001 21.8406 -18.16C19.9106 -21.24 18.0205 -24.33 16.0605 -27.39L21.3105 -30.29Z" fill="#4F4F4F" style="fill:#4F4F4F;fill:color(display-p3 0.3098 0.3098 0.3098);fill-opacity:1;"/>
<path d="M-23.6694 -16.38C0.250566 17.04 25.2805 49.66 51.3705 81.4L49.8206 82.67C43.3506 74.7 36.7805 66.81 30.1205 59C16.8005 43.36 3.2605 27.91 -10.4895 12.65C-17.3595 5.00999 -24.3294 -2.55 -31.3994 -10.03L-23.6694 -16.37V-16.38Z" fill="#4F4F4F" style="fill:#4F4F4F;fill:color(display-p3 0.3098 0.3098 0.3098);fill-opacity:1;"/>
<path d="M-17.46 28.91C-2.82996 47.03 14.8301 67.98 30.0601 85.64L37.02 93.6L36.42 94.13L29.4601 86.18C16.6101 71.68 0.0100479 53.42 -13.2 39.25L-20.46 31.56L-17.45 28.93L-17.46 28.91Z" fill="#4F4F4F" style="fill:#4F4F4F;fill:color(display-p3 0.3098 0.3098 0.3098);fill-opacity:1;"/>
<path d="M-21.3295 59.49C-0.169468 80.56 23.3005 103.53 44.8105 124.25L44.5305 124.54C29.1505 109.72 9.85054 91.44 -5.81946 76.74C-11.4295 71.45 -17.0695 66.18 -22.7295 60.93L-21.3395 59.49H-21.3295Z" fill="#4F4F4F" style="fill:#4F4F4F;fill:color(display-p3 0.3098 0.3098 0.3098);fill-opacity:1;"/>
<path d="M-21.4198 89.21C-12.5098 97.38 -3.23989 105.16 6.36011 112.51L5.87012 113.15C3.49012 111.29 1.06012 109.5 -1.37988 107.72C-8.73988 102.41 -16.1699 97.22 -23.8599 92.4L-21.4298 89.22L-21.4198 89.21Z" fill="#4F4F4F" style="fill:#4F4F4F;fill:color(display-p3 0.3098 0.3098 0.3098);fill-opacity:1;"/>
<path d="M-23.8596 153.68C-7.21962 162.08 11.2804 170.94 28.2604 178.63L28.0104 179.18C15.8904 173.63 0.630386 167.09 -11.7296 161.89C-16.1696 160.03 -20.6296 158.2 -25.0996 156.41L-23.8596 153.68Z" fill="#4F4F4F" style="fill:#4F4F4F;fill:color(display-p3 0.3098 0.3098 0.3098);fill-opacity:1;"/>
<path d="M-21.8197 217.8C-13.1797 219.81 -4.45969 221.44 4.32031 222.66L4.24023 223.25C2.05023 222.92 -0.149731 222.66 -2.34973 222.4C-8.95973 221.67 -15.5897 221.05 -22.2397 220.77L-21.8297 217.8H-21.8197Z" fill="#4F4F4F" style="fill:#4F4F4F;fill:color(display-p3 0.3098 0.3098 0.3098);fill-opacity:1;"/>
<path d="M-28.4697 275.94C-18.4497 274.54 -7.49975 272.56 2.38025 270.38L2.51025 270.97C-4.55975 272.47 -13.2797 274.75 -20.2897 276.67C-22.8097 277.38 -25.3197 278.09 -27.8197 278.87L-28.4597 275.94H-28.4697Z" fill="#4F4F4F" style="fill:#4F4F4F;fill:color(display-p3 0.3098 0.3098 0.3098);fill-opacity:1;"/>
<path d="M-30.8398 338.61C-12.0498 330.88 8.38011 321.83 26.7401 313.14L27.0802 313.86C13.9202 320.01 -2.21984 328.17 -15.2098 334.86C-19.8698 337.28 -24.5199 339.72 -29.1299 342.23L-30.8398 338.61Z" fill="#4F4F4F" style="fill:#4F4F4F;fill:color(display-p3 0.3098 0.3098 0.3098);fill-opacity:1;"/>
<path d="M-28 380.95C-18.48 376.16 -9.20997 370.89 -0.219971 365.17L0.210083 365.84C-2.04992 367.24 -4.25997 368.72 -6.46997 370.2C-13.07 374.71 -19.59 379.34 -25.85 384.32L-28 380.95Z" fill="#4F4F4F" style="fill:#4F4F4F;fill:color(display-p3 0.3098 0.3098 0.3098);fill-opacity:1;"/>
<path d="M-30.5698 407.35C-17.4998 398.84 -4.72979 389.88 7.71021 380.48L8.19019 381.12C-1.16982 388.12 -10.2599 395.48 -19.2599 402.94C-22.2499 405.44 -25.2298 407.96 -28.1598 410.54L-30.5698 407.35Z" fill="#4F4F4F" style="fill:#4F4F4F;fill:color(display-p3 0.3098 0.3098 0.3098);fill-opacity:1;"/>
<path d="M-29.4197 431.44C-4.02968 409.86 23.7103 385.91 48.7703 363.95L49.0303 364.25C31.1003 379.95 8.93033 399.66 -8.90967 415.67C-15.3297 421.4 -21.7297 427.16 -28.1097 432.94L-29.4297 431.44H-29.4197Z" fill="#4F4F4F" style="fill:#4F4F4F;fill:color(display-p3 0.3098 0.3098 0.3098);fill-opacity:1;"/>
<path d="M-28.2798 467.76C-9.12979 449.4 9.66022 430.08 27.8502 410.76C30.4302 407.96 33.0402 405.19 35.5802 402.35L36.6101 403.3C32.1301 408.08 25.7102 415.26 21.2802 420.24C8.75015 434.39 -3.81979 449.04 -15.9098 463.62C-18.3098 466.58 -20.7499 469.51 -23.1199 472.5L-28.2798 467.77V467.76Z" fill="#4F4F4F" style="fill:#4F4F4F;fill:color(display-p3 0.3098 0.3098 0.3098);fill-opacity:1;"/>
<path d="M-32.4998 522.88C-9.24976 498.28 13.3803 471.85 34.9403 445.75C42.1603 436.96 49.2903 428.12 56.1903 419.08L58.5503 420.93C47.9203 434.26 37.7703 447.98 27.7203 461.75C18.4103 474.61 7.09032 490.55 -1.79968 503.6C-8.22968 513 -14.5797 522.47 -20.6897 532.11L-32.5098 522.88H-32.4998Z" fill="#4F4F4F" style="fill:#4F4F4F;fill:color(display-p3 0.3098 0.3098 0.3098);fill-opacity:1;"/>
<path d="M9.05029 531.92C23.1303 511.81 39.2103 487.82 52.6903 467.27L58.7402 457.91L59.4103 458.34L53.3702 467.7C42.4002 484.92 28.6802 507.03 18.1202 524.51L12.4103 534.08L9.05029 531.91V531.92Z" fill="#4F4F4F" style="fill:#4F4F4F;fill:color(display-p3 0.3098 0.3098 0.3098);fill-opacity:1;"/>
<path d="M40.8506 533.57C62.8006 497.12 84.0506 459.71 104.101 422.18L105.51 422.93C102.95 427.61 100.481 432.34 97.9606 437.05C85.6406 460.56 73.3905 484.64 61.7605 508.45C57.6605 516.86 51.7805 528.95 47.9005 537.34L40.8506 533.56V533.57Z" fill="#4F4F4F" style="fill:#4F4F4F;fill:color(display-p3 0.3098 0.3098 0.3098);fill-opacity:1;"/>
<path d="M77.5901 532.58C87.4701 513.9 96.91 494.63 105.92 475.51C107.18 472.75 108.48 470.01 109.71 467.24L110.62 467.66C108.4 472.38 105.29 479.4 103.15 484.25C97.1 498.04 91.1201 512.2 85.4701 526.18C84.3601 529.01 83.22 531.82 82.13 534.66L77.5801 532.58H77.5901Z" fill="#4F4F4F" style="fill:#4F4F4F;fill:color(display-p3 0.3098 0.3098 0.3098);fill-opacity:1;"/>
<path d="M118.46 533.6C128.6 504.82 137.46 475.59 144.97 446.02L146.91 446.52C143.02 461.26 139.72 476.14 136.56 491.05C133.46 506 130.51 520.97 128.15 536.08L118.46 533.6Z" fill="#4F4F4F" style="fill:#4F4F4F;fill:color(display-p3 0.3098 0.3098 0.3098);fill-opacity:1;"/>
<path d="M151.91 530.92C155.35 510.94 158.82 487.33 161.52 467.21L162.67 458.08L163.46 458.18L162.32 467.31C160.75 480.42 158.72 499.87 157.47 513.07C157.03 517.63 156.23 526.85 155.88 531.42L151.91 530.92Z" fill="#4F4F4F" style="fill:#4F4F4F;fill:color(display-p3 0.3098 0.3098 0.3098);fill-opacity:1;"/>
<path d="M178.43 532.38C180.06 501.77 180.9 470.65 181.36 439.99C181.39 435.59 181.45 431.19 181.44 426.79H182.64C182.58 431.2 182.6 435.6 182.57 440C182.62 461.89 182.95 484.17 183.52 506.01C183.74 513.72 184.07 524.8 184.43 532.42L178.43 532.39V532.38Z" fill="#4F4F4F" style="fill:#4F4F4F;fill:color(display-p3 0.3098 0.3098 0.3098);fill-opacity:1;"/>
<path d="M223.57 -26.69C220 -6.54001 217.17 14.05 214.76 34.37C214.45 37.29 214.11 40.2 213.83 43.13L212.64 43C213.22 37.98 213.89 30.58 214.34 25.47C215.57 10.94 216.57 -3.91001 217.28 -18.5C217.39 -21.44 217.54 -24.38 217.61 -27.32L223.58 -26.69H223.57Z" fill="#4F4F4F" style="fill:#4F4F4F;fill:color(display-p3 0.3098 0.3098 0.3098);fill-opacity:1;"/>
<path d="M264.62 -27.73C255.06 2.05999 246.81 32.26 239.91 62.77L237.96 62.33C241.55 47.12 244.54 31.78 247.39 16.41C250.18 1.00999 252.82 -14.41 254.87 -29.95L264.62 -27.73Z" fill="#4F4F4F" style="fill:#4F4F4F;fill:color(display-p3 0.3098 0.3098 0.3098);fill-opacity:1;"/>
<path d="M294.04 -29.97C286.61 -12.8 278.4 7.63 271.66 25.1L268.67 33.05L267.92 32.77L270.9 24.82C275.11 13.38 281.07 -3.63999 284.99 -15.23C286.35 -19.23 289.01 -27.35 290.3 -31.37L294.04 -29.96V-29.97Z" fill="#4F4F4F" style="fill:#4F4F4F;fill:color(display-p3 0.3098 0.3098 0.3098);fill-opacity:1;"/>
<path d="M324.61 -31.57C311.25 -4.83999 298.65 22.76 286.74 50.16C285.08 54.11 283.36 58.04 281.74 62.01L280.271 61.39C283.201 54.62 287.271 44.57 290.081 37.61C298.031 17.86 305.73 -2.46999 312.98 -22.52C314.4 -26.57 315.87 -30.61 317.24 -34.68L324.61 -31.58V-31.57Z" fill="#4F4F4F" style="fill:#4F4F4F;fill:color(display-p3 0.3098 0.3098 0.3098);fill-opacity:1;"/>
<path d="M359.03 -27.38C346.46 -7.73001 334.39 12.64 322.83 32.89C321.21 35.82 319.54 38.72 317.95 41.66L316.9 41.08C319.74 36.07 323.76 28.62 326.52 23.46C334.33 8.79999 342.08 -6.30001 349.43 -21.23C350.88 -24.25 352.37 -27.25 353.78 -30.29L359.03 -27.38Z" fill="#4F4F4F" style="fill:#4F4F4F;fill:color(display-p3 0.3098 0.3098 0.3098);fill-opacity:1;"/>
<path d="M406.43 -9.96C379.68 17.16 353.92 45.24 329.2 74.21L327.68 72.91C333.9 65.71 340.03 58.44 346.06 51.07C358.14 36.36 370 21.46 381.64 6.38C387.47 -1.15 393.2 -8.77 398.84 -16.47L406.44 -9.97L406.43 -9.96Z" fill="#4F4F4F" style="fill:#4F4F4F;fill:color(display-p3 0.3098 0.3098 0.3098);fill-opacity:1;"/>
<path d="M395.57 31.55C379.55 48.45 361.14 68.74 345.65 86.18L338.69 94.13L338.09 93.6L345.05 85.64C357.72 70.98 373.61 52.1 385.9 37.13L392.56 28.92L395.57 31.55Z" fill="#4F4F4F" style="fill:#4F4F4F;fill:color(display-p3 0.3098 0.3098 0.3098);fill-opacity:1;"/>
<path d="M397.78 60.96C374.2 81.01 348.44 103.27 325.18 123.69L324.92 123.39C341.56 108.79 362.12 90.44 378.67 75.54C384.63 70.21 390.56 64.84 396.47 59.46L397.79 60.96H397.78Z" fill="#4F4F4F" style="fill:#4F4F4F;fill:color(display-p3 0.3098 0.3098 0.3098);fill-opacity:1;"/>
<path d="M398.951 92.39C388.741 98.86 378.821 105.79 369.221 113.15L368.73 112.51C371.15 110.7 373.51 108.82 375.86 106.93C382.9 101.21 389.85 95.38 396.51 89.21L398.941 92.39H398.951Z" fill="#4F4F4F" style="fill:#4F4F4F;fill:color(display-p3 0.3098 0.3098 0.3098);fill-opacity:1;"/>
<path d="M400.19 156.41C382.9 163.39 364.05 171.47 347.08 179.18L346.83 178.63C358.99 173.17 373.96 166 386.02 160.12C390.35 158 394.66 155.85 398.96 153.67L400.2 156.4L400.19 156.41Z" fill="#4F4F4F" style="fill:#4F4F4F;fill:color(display-p3 0.3098 0.3098 0.3098);fill-opacity:1;"/>
<path d="M397.33 220.77C388.47 221.2 379.64 222.02 370.86 223.25L370.78 222.66C372.98 222.38 375.16 222.03 377.35 221.67C383.91 220.56 390.45 219.34 396.92 217.8L397.33 220.77Z" fill="#4F4F4F" style="fill:#4F4F4F;fill:color(display-p3 0.3098 0.3098 0.3098);fill-opacity:1;"/>
<path d="M402.92 278.87C393.24 275.94 382.47 273.13 372.59 270.97L372.72 270.38C379.77 271.99 388.64 273.57 395.81 274.77C398.39 275.19 400.97 275.59 403.57 275.93L402.93 278.86L402.92 278.87Z" fill="#4F4F4F" style="fill:#4F4F4F;fill:color(display-p3 0.3098 0.3098 0.3098);fill-opacity:1;"/>
<path d="M404.22 342.23C386.33 332.61 366.37 322.54 348.01 313.86L348.35 313.14C361.45 319.42 378 326.72 391.41 332.52C396.24 334.58 401.07 336.64 405.94 338.61L404.23 342.23H404.22Z" fill="#4F4F4F" style="fill:#4F4F4F;fill:color(display-p3 0.3098 0.3098 0.3098);fill-opacity:1;"/>
<path d="M400.94 384.33C392.57 377.74 383.87 371.56 374.88 365.85L375.31 365.18C377.54 366.63 379.81 368.01 382.09 369.38C388.97 373.45 395.92 377.4 403.09 380.96L400.94 384.33Z" fill="#4F4F4F" style="fill:#4F4F4F;fill:color(display-p3 0.3098 0.3098 0.3098);fill-opacity:1;"/>
<path d="M403.26 410.54C391.48 400.32 379.36 390.5 366.9 381.12L367.38 380.48C376.69 387.56 386.26 394.28 395.91 400.87C399.14 403.06 402.38 405.23 405.67 407.34L403.26 410.53V410.54Z" fill="#4F4F4F" style="fill:#4F4F4F;fill:color(display-p3 0.3098 0.3098 0.3098);fill-opacity:1;"/>
<path d="M403.19 432.95C380.56 412.52 355.49 390.25 332.54 370.19L332.8 369.89C349.22 384.24 369.8 401.94 386.49 416.16C392.47 421.28 398.48 426.38 404.5 431.45L403.18 432.96L403.19 432.95Z" fill="#4F4F4F" style="fill:#4F4F4F;fill:color(display-p3 0.3098 0.3098 0.3098);fill-opacity:1;"/>
<path d="M398.23 472.51C383.65 454.39 368.15 436.57 352.53 419.34C350.26 416.9 348.02 414.42 345.71 412.01L346.73 411.06C350.59 415.3 356.44 421.39 360.49 425.6C372 437.52 384.04 449.41 396.02 460.89C398.46 463.17 400.87 465.49 403.35 467.74L398.23 472.51Z" fill="#4F4F4F" style="fill:#4F4F4F;fill:color(display-p3 0.3098 0.3098 0.3098);fill-opacity:1;"/>
<path d="M395.71 532.03C378.89 504.61 360.18 477.35 341.48 451.17C335.18 442.4 328.79 433.69 322.16 425.16L324.55 423.35C334.2 436.36 344.35 449 354.59 461.57C364.16 473.23 376.09 487.48 385.96 498.78C393.06 506.95 400.25 515.05 407.67 522.98L395.72 532.05L395.71 532.03Z" fill="#4F4F4F" style="fill:#4F4F4F;fill:color(display-p3 0.3098 0.3098 0.3098);fill-opacity:1;"/>
<path d="M362.66 534.05C341.79 498.04 317.88 457.95 296.11 422.47L296.79 422.05L305.28 435.89C317.53 455.71 335.91 484.91 348.48 504.64C352.82 511.45 361.66 525.18 366.06 531.96L362.65 534.05H362.66Z" fill="#4F4F4F" style="fill:#4F4F4F;fill:color(display-p3 0.3098 0.3098 0.3098);fill-opacity:1;"/>
<path d="M327.19 537.36C315.39 511.5 302.45 485.69 289.22 460.52C287.28 456.93 285.39 453.32 283.4 449.76L284.81 449C288.09 455.21 293.13 464.21 296.63 470.43C306.57 488.07 317.11 505.88 327.71 523.17C329.89 526.63 332.01 530.12 334.23 533.55L327.2 537.36H327.19Z" fill="#4F4F4F" style="fill:#4F4F4F;fill:color(display-p3 0.3098 0.3098 0.3098);fill-opacity:1;"/>
<path d="M292.931 534.6C284.711 512.47 274.381 486.87 265.271 465.04C263.871 461.77 262.491 458.48 261.061 455.21L261.98 454.82C263.36 458.11 264.791 461.37 266.201 464.64C272.341 478.7 281.761 499.37 288.291 513.32C290.951 518.97 294.791 527.08 297.531 532.62L292.931 534.59V534.6Z" fill="#4F4F4F" style="fill:#4F4F4F;fill:color(display-p3 0.3098 0.3098 0.3098);fill-opacity:1;"/>
<path d="M246.9 535.88C242.01 499.89 235.77 464.1 228.18 428.59L230.14 428.17C231.97 437.05 233.93 445.91 236.02 454.74C240.16 472.41 244.59 490.02 249.29 507.55C251.63 516.32 254.1 525.07 256.69 533.79L246.91 535.87L246.9 535.88Z" fill="#4F4F4F" style="fill:#4F4F4F;fill:color(display-p3 0.3098 0.3098 0.3098);fill-opacity:1;"/>
<path d="M219.201 531.35C218.471 513.42 217.031 492.36 215.551 474.46L214.811 466.35L215.61 466.28L216.36 474.39C217.51 486.02 219.51 503.2 220.99 514.84C221.5 518.86 222.601 526.98 223.191 530.99L219.211 531.36L219.201 531.35Z" fill="#4F4F4F" style="fill:#4F4F4F;fill:color(display-p3 0.3098 0.3098 0.3098);fill-opacity:1;"/>
<path d="M199.93 545.77C199.84 520.98 199.15 491.81 198.31 467.01L197.86 455.77L198.66 455.74L199.12 466.98C200.08 487.58 201.62 513.81 203.07 534.38L203.92 545.61L199.92 545.77H199.93Z" fill="#4F4F4F" style="fill:#4F4F4F;fill:color(display-p3 0.3098 0.3098 0.3098);fill-opacity:1;"/>
</g>
</svg>
