<svg width="248" height="127" viewBox="0 0 248 127" fill="none" xmlns="http://www.w3.org/2000/svg">
<path d="M124.024 17.9376L158.978 1.1582L170.578 24.8906L217.806 20.409L202.363 43.5738L246.848 52.7972L209.269 68.0275L236.903 88.0351L189.107 90.5065L191.106 114.937L148.288 103.869L124.024 124.976L99.7472 103.869L56.9296 114.937L58.928 90.5065L11.1321 88.0351L38.7667 68.0275L1.18739 52.7972L45.6724 43.5738L30.2291 20.409L77.4575 24.8906L89.0576 1.1582L124.024 17.9376Z" fill="white" style="fill:white;fill-opacity:1;"/>
<path d="M124.024 126.158C123.752 126.158 123.468 126.064 123.243 125.863L99.4517 105.169L57.2253 116.095C56.8587 116.19 56.4566 116.095 56.1728 115.859C55.8772 115.611 55.7235 115.244 55.759 114.854L57.6628 91.6299L11.0848 89.2177C10.5882 89.194 10.1506 88.8511 10.0087 88.3781C9.86684 87.9051 10.0442 87.3848 10.4463 87.0892L36.3426 68.335L0.738087 53.9087C0.253269 53.7077 -0.0423547 53.2229 0.00494461 52.7026C0.0522439 52.1823 0.430639 51.7566 0.939106 51.6502L43.7095 42.7816L29.2477 21.0831C28.9994 20.7047 28.9876 20.208 29.2122 19.8178C29.4487 19.4276 29.8863 19.2029 30.3356 19.2502L76.7362 23.6609L87.9816 0.661594C88.2654 0.0821777 88.9749 -0.166145 89.5543 0.117651L124 16.6487L158.446 0.117651C159.037 -0.166145 159.735 0.0821777 160.018 0.661594L171.264 23.6609L217.664 19.2502C218.114 19.2147 218.551 19.4276 218.788 19.8178C219.024 20.208 219.012 20.7047 218.752 21.0831L204.291 42.7816L247.061 51.6502C247.569 51.7566 247.948 52.1823 247.995 52.7026C248.042 53.2229 247.747 53.7077 247.262 53.9087L211.657 68.335L237.554 87.0892C237.956 87.3848 238.133 87.9051 237.991 88.3781C237.849 88.8511 237.424 89.194 236.915 89.2177L190.337 91.6299L192.241 114.854C192.277 115.232 192.123 115.611 191.827 115.859C191.532 116.107 191.141 116.19 190.775 116.095L148.548 105.169L124.757 125.863C124.532 126.052 124.26 126.158 123.976 126.158H124.024ZM99.7473 102.686C100.031 102.686 100.303 102.793 100.528 102.982L124.012 123.415L147.496 102.982C147.792 102.722 148.194 102.627 148.572 102.733L189.781 113.399L187.913 90.6248C187.889 90.3055 187.996 89.9863 188.197 89.7498C188.41 89.5133 188.705 89.3596 189.025 89.3477L233.462 87.0537L208.547 69.009C208.205 68.7607 208.015 68.335 208.063 67.9093C208.11 67.4836 208.394 67.1171 208.796 66.9515L242.768 53.1874L202.091 44.7563C201.701 44.6736 201.382 44.4134 201.24 44.0469C201.098 43.6803 201.133 43.2664 201.346 42.9471L215.406 21.8517L170.661 26.0968C170.176 26.1441 169.703 25.8839 169.49 25.4346L158.398 2.75459L124.497 19.0137C124.177 19.1674 123.799 19.1674 123.468 19.0137L89.5661 2.75459L78.4744 25.4346C78.2616 25.8721 77.7886 26.1441 77.3038 26.0968L32.5587 21.8517L46.6184 42.9471C46.8312 43.2782 46.8785 43.6921 46.7248 44.0469C46.5711 44.4016 46.2518 44.6736 45.8734 44.7563L5.19604 53.1874L39.1687 66.9515C39.5708 67.1171 39.8428 67.4836 39.9019 67.9093C39.961 68.335 39.7718 68.7607 39.4171 69.009L14.5022 87.0537L58.9398 89.3477C59.2591 89.3596 59.5547 89.5133 59.7676 89.7498C59.9804 89.9863 60.0869 90.3055 60.0514 90.6248L58.1831 113.399L99.3925 102.733C99.4871 102.71 99.5936 102.698 99.6882 102.698L99.7473 102.686Z" fill="black" style="fill:black;fill-opacity:1;"/>
</svg>
