<svg width="134" height="60" viewBox="0 0 134 60" fill="none" xmlns="http://www.w3.org/2000/svg">
<path d="M27.2 15.1H31.2699V0.97998H39.0199V34.08H31.2699V21.86H27.26C25.91 28.53 20.63 32.96 13.73 32.96C5.77998 32.96 0 27.05 0 18.64C0 10.23 5.77998 4.18997 13.73 4.18997C20.53 4.18997 25.7799 8.49 27.1899 15.09L27.2 15.1ZM7.5 18.65C7.5 23.18 10.06 26.01 13.74 26.01C17.42 26.01 20.04 23.19 20.11 18.65C20.04 13.99 17.35 11.16 13.74 11.16C10.13 11.16 7.5 13.98 7.5 18.65ZM51.4299 48.26C51.3599 55.42 43.2899 59.62 30.6799 59.62C18.0699 59.62 9.98999 55.42 9.98999 48.26C9.98999 41.1 17.9999 36.83 30.6799 36.83C43.3599 36.83 51.3699 41.3 51.4299 48.26ZM18.3999 48.26C18.3299 51.61 22.8699 53.25 30.6799 53.25C38.4899 53.25 42.96 51.61 42.96 48.26C42.96 44.91 38.4299 43.33 30.6799 43.27C22.8699 43.34 18.3299 44.98 18.3999 48.26ZM51.1 35.92H43.09V0H51.1V35.92Z" fill="black" style="fill:black;fill-opacity:1;"/>
<path d="M70.4901 23.96C75.8701 23.96 80.4701 27.7 85.8601 27.7C88.8801 27.7 91.6401 26.45 93.8101 24.09V32.1C91.5801 34.46 88.75 35.71 85.67 35.71C80.28 35.71 75.69 31.97 70.3 31.97C67.28 31.97 64.5201 33.22 62.3501 35.58V27.57C64.5801 25.21 67.4101 23.96 70.4901 23.96Z" fill="black" style="fill:black;fill-opacity:1;"/>
<path d="M118.44 25.54C121.26 23.7 123.43 21.67 123.43 18.64C123.43 15.36 120.87 13.19 117.72 13.19C114.57 13.19 111.81 15.23 111.68 19.1H102.35C102.55 9.83998 109.38 5.43997 117.78 5.43997C126.91 5.43997 133.41 10.23 133.41 18.31C133.41 23.7 130.65 27.18 126.32 29.74C122.64 31.97 121 34.07 120.94 38.67V39.39H112.27V38.67C112.34 30.53 114.5 27.97 118.44 25.54ZM111.28 48.72C111.21 45.7 113.71 43.27 116.8 43.27C119.69 43.27 122.25 45.7 122.25 48.72C122.25 51.74 119.69 54.24 116.8 54.24C113.71 54.24 111.22 51.74 111.28 48.72Z" fill="black" style="fill:black;fill-opacity:1;"/>
</svg>
