<svg width="1125" height="1509" viewBox="0 0 1125 1509" fill="none" xmlns="http://www.w3.org/2000/svg">
<g clip-path="url(#clip0_2379_886)">
<path d="M-0.540039 0V1509H1125V0H-0.540039ZM1066.61 418.59C1066.61 485.77 1030.61 485.77 1030.61 552.95C1030.61 620.13 1066.61 620.13 1066.61 687.31C1066.61 754.49 1030.61 754.49 1030.61 821.67C1030.61 888.85 1066.61 888.85 1066.61 956.03C1066.61 1023.21 1030.61 1023.21 1030.61 1090.39C1030.61 1157.57 1066.61 1157.57 1066.61 1224.76C1066.61 1291.95 1030.61 1291.94 1030.61 1359.13C1030.61 1362.89 1066.01 1369.68 1065.39 1373.26C1065.22 1374.24 1062.56 1374.56 1058.74 1374.56C1051.84 1374.56 1041.15 1373.54 1034.32 1373.54C1030.72 1373.54 1028.21 1373.82 1027.89 1374.69C1026.62 1378.19 1057.54 1396.71 1055.7 1399.89C1055.54 1400.16 1055.18 1400.28 1054.64 1400.28C1049.23 1400.28 1026.37 1388.05 1020.99 1388.05C1020.51 1388.05 1020.17 1388.15 1019.99 1388.36C1017.61 1391.19 1040.35 1419.17 1037.53 1421.54C1037.41 1421.64 1037.26 1421.69 1037.07 1421.69C1032.92 1421.69 1012.44 1398.44 1008.26 1398.44C1008.11 1398.44 1007.98 1398.47 1007.88 1398.53C1004.7 1400.37 1016.52 1434.43 1013.03 1435.71C1012.97 1435.73 1012.9 1435.74 1012.83 1435.74C1009.16 1435.74 996.93 1403.91 993.18 1403.91C993.14 1403.91 993.11 1403.91 993.07 1403.91C989.49 1404.54 988.91 1440.59 985.15 1440.59C938.19 1440.59 938.19 1404.59 891.23 1404.59C844.27 1404.59 844.27 1440.59 797.31 1440.59C750.35 1440.59 750.35 1404.59 703.39 1404.59C656.43 1404.59 656.43 1440.59 609.47 1440.59C562.51 1440.59 562.51 1404.59 515.55 1404.59C468.59 1404.59 468.59 1440.59 421.63 1440.59C374.67 1440.59 374.67 1404.59 327.71 1404.59C280.75 1404.59 280.75 1440.59 233.78 1440.59C186.81 1440.59 186.82 1404.59 139.85 1404.59C136.12 1404.59 129.42 1439.37 125.82 1439.37C125.79 1439.37 125.76 1439.37 125.73 1439.37C122.05 1438.72 127.74 1403.12 124.3 1401.87C124.23 1401.84 124.15 1401.83 124.07 1401.83C120.18 1401.83 103.26 1429.76 99.42 1429.76C99.3 1429.76 99.2 1429.73 99.11 1429.68C95.9 1427.82 113.46 1396.33 110.64 1393.96C110.5 1393.84 110.3 1393.79 110.04 1393.79C105.4 1393.79 82.78 1411.74 78.13 1411.74C77.82 1411.74 77.6 1411.66 77.46 1411.5C75.09 1408.68 102.33 1385.06 100.47 1381.85C100.25 1381.47 99.56 1381.3 98.51 1381.3C92.03 1381.3 71.89 1387.65 65.34 1387.65C64.19 1387.65 63.46 1387.46 63.29 1387C62.04 1383.57 95.72 1370.73 95.08 1367.05C94.45 1363.47 58.4 1362.89 58.4 1359.13C58.4 1291.95 94.4 1291.95 94.4 1224.77C94.4 1157.59 58.4 1157.59 58.4 1090.42C58.4 1023.25 94.4 1023.24 94.4 956.06C94.4 888.88 58.4 888.88 58.4 821.7C58.4 754.52 94.4 754.52 94.4 687.34C94.4 620.16 58.4 620.16 58.4 552.98C58.4 485.8 94.4 485.8 94.4 418.62C94.4 351.44 58.4 351.44 58.4 284.25C58.4 217.06 94.4 217.07 94.4 149.88C94.4 146.12 59 139.33 59.62 135.75C59.79 134.77 62.45 134.45 66.27 134.45C73.17 134.45 83.86 135.47 90.69 135.47C94.29 135.47 96.8 135.19 97.12 134.32C98.39 130.82 67.47 112.3 69.31 109.12C69.47 108.85 69.83 108.73 70.38 108.73C75.79 108.73 98.65 120.96 104.03 120.96C104.51 120.96 104.85 120.86 105.03 120.65C107.41 117.82 84.67 89.84 87.49 87.47C87.61 87.37 87.76 87.32 87.95 87.32C92.1 87.32 112.58 110.57 116.76 110.57C116.91 110.57 117.04 110.54 117.14 110.48C120.32 108.64 108.5 74.58 111.99 73.3C112.05 73.28 112.12 73.27 112.19 73.27C115.86 73.27 128.09 105.1 131.84 105.1C131.88 105.1 131.91 105.1 131.95 105.1C135.53 104.47 136.11 68.42 139.87 68.42C186.83 68.42 186.83 104.42 233.79 104.42C280.75 104.42 280.75 68.42 327.71 68.42C374.67 68.42 374.67 104.42 421.63 104.42C468.59 104.42 468.59 68.42 515.55 68.42C562.51 68.42 562.51 104.42 609.47 104.42C656.43 104.42 656.43 68.42 703.39 68.42C750.35 68.42 750.35 104.42 797.31 104.42C844.27 104.42 844.27 68.42 891.24 68.42C938.21 68.42 938.2 104.42 985.17 104.42C988.9 104.42 995.6 69.64 999.2 69.64C999.23 69.64 999.26 69.64 999.3 69.64C1002.98 70.28 997.29 105.89 1000.73 107.14C1000.8 107.17 1000.88 107.18 1000.96 107.18C1004.85 107.18 1021.77 79.25 1025.61 79.25C1025.73 79.25 1025.83 79.28 1025.92 79.33C1029.13 81.19 1011.57 112.68 1014.39 115.05C1014.53 115.17 1014.73 115.22 1014.99 115.22C1019.63 115.22 1042.25 97.27 1046.9 97.27C1047.21 97.27 1047.43 97.35 1047.57 97.51C1049.94 100.33 1022.7 123.95 1024.56 127.16C1024.78 127.54 1025.47 127.71 1026.52 127.71C1033 127.71 1053.14 121.36 1059.69 121.36C1060.84 121.36 1061.57 121.55 1061.74 122.01C1062.99 125.44 1029.31 138.28 1029.95 141.96C1030.58 145.54 1066.63 146.12 1066.63 149.88C1066.63 217.06 1030.63 217.06 1030.63 284.24C1030.63 351.42 1066.63 351.42 1066.63 418.59H1066.61Z" fill="black" style="fill:black;fill-opacity:1;"/>
<path d="M829.91 26.83C830.67 27.04 831.41 28.35 831.35 29.16C831.21 31.24 827.22 36.39 827.92 38.36C828.7 40.55 837.64 44.95 833.97 47.5C832.17 48.75 825.52 46.23 823.67 47.29C822.16 48.15 820.48 54.08 819.33 55.76C814.19 58.98 815.59 48.72 813.79 46.48C812.35 44.69 805.98 45.64 804.17 44.63C803.41 44.21 802.55 42.93 802.9 42.08C804.45 40.04 811.63 38.04 811.7 35.34C811.74 33.55 809.44 27.21 810.25 26.03C810.81 25.22 812.22 24.71 813.14 25.19C814.8 26.05 818.51 30.98 820.17 31.19C822.69 31.52 828.3 26.39 829.92 26.84L829.91 26.83ZM823.32 35.02C819.27 38.48 819.37 35.27 817.27 34.68C816.84 34.56 815.94 34.86 815.84 35.14C815.69 35.54 817.33 38.07 816.03 39.17C815.42 39.69 813.09 40.43 813.29 41.31C813.57 42.55 816.63 41.78 817.31 42.49C817.99 43.2 817.59 45.73 818.46 46.13C820.37 46.43 820.04 43.62 821.22 43.03C822.4 42.44 824.2 43.78 825.33 42.58C825.28 41.13 823.11 40.6 822.81 39.38C822.51 38.16 825.09 36.52 823.32 35.04V35.02Z" fill="#FC6090" stroke="black" style="fill:#FC6090;fill:color(display-p3 0.9882 0.3765 0.5647);fill-opacity:1;stroke:black;stroke-opacity:1;" stroke-width="0.58" stroke-miterlimit="10"/>
<path d="M1108.4 671.04C1108.79 671.73 1108.38 673.17 1107.77 673.71C1106.2 675.08 1099.74 675.9 1098.84 677.79C1097.84 679.89 1101.05 689.32 1096.66 688.53C1094.5 688.14 1091.58 681.66 1089.53 681.1C1087.85 680.64 1082.47 683.64 1080.47 684.02C1074.56 682.67 1082.8 676.39 1083.11 673.54C1083.36 671.26 1078.18 667.43 1077.61 665.43C1077.37 664.59 1077.67 663.08 1078.51 662.72C1081.05 662.38 1087.54 666.04 1089.5 664.17C1090.8 662.93 1093.65 656.82 1095.06 656.56C1096.03 656.38 1097.39 657.02 1097.7 658C1098.26 659.78 1097.41 665.89 1098.43 667.21C1099.98 669.23 1107.57 669.56 1108.4 671.03V671.04ZM1097.94 672.18C1092.63 671.76 1094.97 669.57 1093.9 667.66C1093.68 667.27 1092.83 666.85 1092.56 666.97C1092.17 667.15 1091.54 670.09 1089.84 669.95C1089.04 669.88 1086.87 668.76 1086.39 669.52C1085.71 670.59 1088.42 672.21 1088.4 673.2C1088.38 674.19 1086.31 675.69 1086.64 676.58C1087.78 678.14 1089.53 675.92 1090.79 676.34C1092.05 676.76 1092.37 678.98 1094.02 678.93C1095.01 677.87 1093.86 675.96 1094.5 674.88C1095.14 673.8 1098.13 674.47 1097.93 672.17L1097.94 672.18Z" fill="#FC6090" stroke="black" style="fill:#FC6090;fill:color(display-p3 0.9882 0.3765 0.5647);fill-opacity:1;stroke:black;stroke-opacity:1;" stroke-width="0.58" stroke-miterlimit="10"/>
<path d="M1093.75 1309.02C1094.49 1309.3 1095.11 1310.66 1094.98 1311.47C1094.66 1313.53 1090.24 1318.32 1090.77 1320.34C1091.36 1322.59 1099.88 1327.75 1096 1329.97C1094.09 1331.06 1087.69 1327.98 1085.76 1328.87C1084.18 1329.6 1081.99 1335.35 1080.7 1336.94C1075.3 1339.71 1077.58 1329.6 1075.99 1327.22C1074.71 1325.31 1068.29 1325.71 1066.56 1324.54C1065.84 1324.05 1065.09 1322.71 1065.51 1321.89C1067.23 1320 1074.56 1318.62 1074.86 1315.93C1075.06 1314.15 1073.31 1307.64 1074.22 1306.53C1074.85 1305.77 1076.3 1305.39 1077.17 1305.94C1078.75 1306.94 1082.02 1312.17 1083.65 1312.53C1086.13 1313.07 1092.16 1308.46 1093.74 1309.04L1093.75 1309.02ZM1086.47 1316.62C1082.13 1319.72 1082.52 1316.53 1080.47 1315.75C1080.05 1315.59 1079.13 1315.82 1079 1316.08C1078.82 1316.47 1080.23 1319.12 1078.84 1320.11C1078.19 1320.57 1075.8 1321.11 1075.92 1322.01C1076.09 1323.27 1079.2 1322.76 1079.83 1323.53C1080.46 1324.3 1079.83 1326.78 1080.66 1327.25C1082.54 1327.71 1082.45 1324.89 1083.68 1324.4C1084.91 1323.91 1086.59 1325.4 1087.82 1324.3C1087.89 1322.85 1085.78 1322.13 1085.59 1320.89C1085.4 1319.65 1088.11 1318.24 1086.47 1316.61V1316.62Z" fill="#FC6090" stroke="black" style="fill:#FC6090;fill:color(display-p3 0.9882 0.3765 0.5647);fill-opacity:1;stroke:black;stroke-opacity:1;" stroke-width="0.58" stroke-miterlimit="10"/>
<path d="M850.26 1471.27C850.59 1471.99 850.06 1473.39 849.4 1473.87C847.72 1475.1 841.21 1475.36 840.15 1477.16C838.97 1479.17 841.36 1488.84 837.04 1487.67C834.92 1487.09 832.57 1480.38 830.58 1479.65C828.95 1479.05 823.33 1481.57 821.3 1481.78C815.53 1479.92 824.29 1474.38 824.84 1471.57C825.28 1469.32 820.46 1465.05 820.07 1463.01C819.9 1462.15 820.33 1460.68 821.2 1460.39C823.76 1460.27 829.91 1464.48 832.02 1462.79C833.42 1461.67 836.79 1455.83 838.22 1455.69C839.2 1455.6 840.5 1456.35 840.72 1457.36C841.13 1459.18 839.75 1465.2 840.65 1466.6C842.02 1468.74 849.55 1469.74 850.25 1471.27H850.26ZM839.74 1471.5C834.48 1470.62 837.01 1468.64 836.11 1466.64C835.93 1466.23 835.11 1465.74 834.84 1465.84C834.44 1465.98 833.56 1468.86 831.87 1468.57C831.08 1468.44 829.02 1467.13 828.47 1467.85C827.7 1468.86 830.26 1470.7 830.16 1471.69C830.06 1472.68 827.86 1473.99 828.12 1474.91C829.12 1476.57 831.05 1474.51 832.27 1475.03C833.49 1475.55 833.62 1477.8 835.26 1477.89C836.33 1476.92 835.35 1474.92 836.09 1473.9C836.83 1472.88 839.75 1473.8 839.74 1471.5Z" fill="#FC6090" stroke="black" style="fill:#FC6090;fill:color(display-p3 0.9882 0.3765 0.5647);fill-opacity:1;stroke:black;stroke-opacity:1;" stroke-width="0.58" stroke-miterlimit="10"/>
<path d="M59.7599 1005.17C59.7099 1005.96 58.5799 1006.95 57.7799 1007.07C55.7199 1007.37 49.8499 1004.53 48.0699 1005.63C46.0899 1006.85 43.6399 1016.51 40.3899 1013.44C38.7899 1011.94 39.8699 1004.91 38.4599 1003.33C37.2999 1002.04 31.1599 1001.62 29.2699 1000.85C25.0499 996.49 35.3799 995.72 37.1899 993.5C38.6399 991.72 36.3899 985.69 36.9999 983.7C37.2599 982.87 38.3299 981.76 39.2299 981.92C41.5399 983.01 44.9999 989.62 47.6599 989.12C49.4199 988.79 55.1399 985.22 56.4699 985.77C57.3799 986.15 58.1699 987.42 57.8999 988.42C57.4099 990.22 53.3599 994.88 53.4899 996.54C53.6899 999.08 59.8699 1003.49 59.7699 1005.17H59.7599ZM50.3699 1000.42C46.1399 997.18 49.2999 996.61 49.4499 994.43C49.4799 993.98 48.9899 993.17 48.6999 993.13C48.2799 993.07 46.1499 995.19 44.7999 994.15C44.1699 993.66 42.9599 991.54 42.1399 991.91C40.9799 992.44 42.3799 995.27 41.8199 996.09C41.2599 996.91 38.7099 997.04 38.4999 997.97C38.6099 999.9 41.2799 998.99 42.1099 1000.02C42.9399 1001.05 41.9999 1003.09 43.4099 1003.95C44.8199 1003.6 44.8899 1001.37 46.0199 1000.82C47.1499 1000.27 49.2899 1002.45 50.3699 1000.42Z" fill="#FC6090" stroke="black" style="fill:#FC6090;fill:color(display-p3 0.9882 0.3765 0.5647);fill-opacity:1;stroke:black;stroke-opacity:1;" stroke-width="0.58" stroke-miterlimit="10"/>
<path d="M196.9 1298.66C196.9 1309.2 191.82 1318.24 181.65 1325.77C172.73 1332.42 161.88 1336.65 149.1 1338.47C148.62 1338.52 148.24 1338.55 147.94 1338.55C146.57 1338.55 143.54 1334.9 138.84 1327.61C134.14 1320.32 131.79 1315.86 131.79 1314.25C131.79 1313.68 132.24 1313.32 133.13 1313.16C141.75 1311.45 147.46 1309.99 150.25 1308.8C156.43 1306.1 159.52 1302.1 159.52 1296.8C159.52 1293.42 157.5 1289.66 153.46 1285.51C146.44 1278.45 142.64 1274.53 142.05 1273.75C137.95 1268.35 135.9 1262.38 135.9 1255.84C135.9 1246.34 140.92 1238.44 150.97 1232.16C159.17 1226.97 169.25 1223.59 181.2 1222.03C181.85 1221.98 182.36 1221.95 182.72 1221.95C183.61 1221.95 184.33 1222.57 184.86 1223.82C186.41 1227.61 190 1234.46 195.65 1244.38C195.83 1244.69 195.92 1244.95 195.92 1245.16C195.92 1246.04 195.38 1246.48 194.31 1246.48C193.83 1246.48 193.03 1246.4 191.9 1246.25C190.77 1246.09 189.91 1246.02 189.31 1246.02C185.03 1246.02 181.28 1246.88 178.07 1248.59C174.2 1250.56 172.27 1253.31 172.27 1256.85C172.27 1260.02 174.41 1263.91 178.69 1268.53C186.24 1276.84 190.19 1281.2 190.55 1281.62C194.77 1287.33 196.88 1293.02 196.88 1298.68L196.9 1298.66Z" fill="black" stroke="black" style="fill:black;fill-opacity:1;stroke:black;stroke-opacity:1;" stroke-width="10" stroke-miterlimit="10"/>
<path d="M302.84 1263.69C302.84 1267.53 302.63 1273.3 302.22 1280.98C301.8 1288.67 301.6 1294.43 301.6 1298.27C301.6 1302.11 301.75 1307.62 302.05 1315.09C302.35 1322.57 302.5 1328.15 302.5 1331.84C302.5 1333.24 301.76 1334.13 300.27 1334.49C298.01 1335.01 293.22 1335.27 285.91 1335.27C279.43 1335.27 274.91 1335.11 272.36 1334.8C271.23 1334.64 270.52 1334.02 270.22 1332.93C270.04 1331.37 269.86 1329.81 269.68 1328.26C269.38 1325.87 268.97 1324.68 268.43 1324.68C269.26 1324.68 266.26 1326.45 259.42 1329.98C252.58 1333.51 246.37 1335.28 240.78 1335.28C225.03 1335.28 215.69 1329.08 212.78 1316.66C211.47 1310.9 210.82 1302.54 210.82 1291.58C210.82 1279.74 211.92 1270.39 214.12 1263.54C214.77 1261.41 215.99 1260.35 217.78 1260.35C220.51 1260.35 224.68 1260.38 230.26 1260.43C235.85 1260.48 240.01 1260.51 242.74 1260.51C244.58 1260.51 245.5 1261.19 245.5 1262.54C245.5 1262.9 245.44 1263.45 245.32 1264.18C244.07 1271.24 243.45 1278.41 243.45 1285.68C243.45 1294.72 243.78 1300.9 244.43 1304.22C245.5 1309.93 249.39 1312.79 256.11 1312.79C258.73 1312.79 261.56 1311.78 264.63 1309.75C267.69 1307.72 269.28 1305.62 269.4 1303.44C269.52 1301.52 269.58 1288.48 269.58 1264.34C269.58 1262.63 269.73 1261.61 270.03 1261.3C270.39 1260.78 271.46 1260.52 273.24 1260.52C276.15 1260.52 280.54 1260.55 286.39 1260.6C292.25 1260.65 296.63 1260.68 299.54 1260.68C301.32 1260.68 302.36 1261.07 302.66 1261.85C302.78 1262.27 302.84 1262.89 302.84 1263.72V1263.69Z" fill="black" stroke="black" style="fill:black;fill-opacity:1;stroke:black;stroke-opacity:1;" stroke-width="10" stroke-miterlimit="10"/>
<path d="M415.92 1297.02C415.92 1308.13 412.17 1317.35 404.68 1324.67C396.95 1332.25 386.81 1336.04 374.27 1336.04C369.69 1336.04 364.79 1335.05 359.56 1333.08C354.33 1331.11 351.95 1330.12 352.43 1330.12C351.66 1330.12 351.27 1330.9 351.27 1332.46C351.27 1335.11 351.42 1339.09 351.72 1344.42C352.02 1349.74 352.17 1353.73 352.17 1356.38C352.17 1358.04 351.19 1358.87 349.23 1358.87L331.04 1358.95C326.94 1358.95 324.29 1358.82 323.1 1358.56C321.32 1358.2 320.42 1357.24 320.42 1355.68L320.6 1295.7C320.6 1283.6 319.56 1273.4 317.48 1265.09C317.36 1264.57 317.3 1264.13 317.3 1263.77C317.3 1262.99 317.66 1262.47 318.37 1262.21C320.69 1261.43 325.12 1260.6 331.66 1259.72C338.02 1258.84 342.63 1258.4 345.48 1258.4C347.8 1258.4 349.12 1259.74 349.45 1262.41C349.78 1265.08 350.18 1266.42 350.65 1266.42C350.06 1266.42 352.6 1265.01 358.28 1262.18C363.96 1259.35 369.11 1257.93 373.75 1257.93C386.65 1257.93 396.96 1261.64 404.69 1269.07C412.18 1276.24 415.93 1285.56 415.93 1297.03L415.92 1297.02ZM382.83 1296.87C382.83 1292.72 381.37 1289.08 378.46 1285.97C375.31 1282.7 371.41 1281.06 366.78 1281.06C362.15 1281.06 358.22 1282.7 355.37 1285.97C352.87 1288.93 351.62 1292.56 351.62 1296.87C351.62 1301.18 352.93 1304.95 355.54 1307.85C358.33 1311.02 362.2 1312.6 367.13 1312.6C377.59 1312.6 382.82 1307.36 382.82 1296.87H382.83Z" fill="black" stroke="black" style="fill:black;fill-opacity:1;stroke:black;stroke-opacity:1;" stroke-width="10" stroke-miterlimit="10"/>
<path d="M509.2 1292.19C509.2 1297.44 507.27 1300.42 503.4 1301.15C502.75 1301.26 496.59 1301.83 484.94 1302.86C477.92 1303.54 467.46 1304.34 453.55 1305.28C454.38 1308.66 456.91 1311.23 461.13 1312.99C464.58 1314.44 468.5 1315.17 472.9 1315.17C478.19 1315.17 483.51 1313.92 488.86 1311.43C491.12 1310.18 493.38 1308.94 495.64 1307.69C496.89 1308.21 498.98 1310.86 501.93 1315.64C504.87 1320.42 506.34 1323.46 506.34 1324.75C506.34 1325.12 505.89 1325.71 505 1326.54C497.75 1333.34 486.48 1336.74 471.2 1336.74C457.05 1336.74 445.64 1333.13 436.96 1325.91C428.04 1318.59 423.58 1308.8 423.58 1296.55C423.58 1284.3 427.56 1274.82 435.53 1267.18C443.73 1259.29 454.61 1255.34 468.17 1255.34C479.58 1255.34 489.27 1258.98 497.24 1266.24C505.21 1273.51 509.19 1282.16 509.19 1292.18L509.2 1292.19ZM477.98 1287.44C477.98 1284.22 476.67 1281.39 474.06 1278.95C471.44 1276.51 468.32 1275.29 464.7 1275.29C461.08 1275.29 457.86 1276.67 455.43 1279.42C453.17 1281.96 452.04 1284.95 452.04 1288.38C452.04 1289.78 452.87 1290.48 454.54 1290.48C458.94 1290.48 465.78 1289.88 475.05 1288.69C477.01 1288.43 477.99 1288.02 477.99 1287.44H477.98Z" fill="black" stroke="black" style="fill:black;fill-opacity:1;stroke:black;stroke-opacity:1;" stroke-width="10" stroke-miterlimit="10"/>
<path d="M578.13 1285.96C578.13 1287.98 576.85 1289 574.3 1289C573.17 1289 571.52 1288.94 569.35 1288.81C567.18 1288.68 565.56 1288.62 564.49 1288.62C559.56 1288.62 556.2 1289.29 554.41 1290.64C552.63 1291.99 551.73 1294.72 551.73 1298.82C551.73 1301.05 551.78 1304.44 551.86 1308.98C551.95 1313.53 551.99 1316.91 551.99 1319.15C551.99 1320.66 552.11 1322.9 552.35 1325.89C552.59 1328.88 552.71 1331.1 552.71 1332.55C552.71 1333.8 551.73 1334.5 549.77 1334.65C546.92 1334.86 542.55 1334.96 536.66 1334.96C530.77 1334.96 526.49 1334.8 523.11 1334.49C521.15 1334.28 520.17 1333.43 520.17 1331.92C520.17 1327.77 520.2 1321.55 520.26 1313.27C520.32 1304.99 520.35 1298.77 520.35 1294.61C520.35 1282.41 519.07 1272.36 516.52 1264.47C516.4 1264 516.34 1263.61 516.34 1263.3C516.34 1262.52 516.79 1262 517.68 1261.74C520.95 1261.43 525.74 1260.86 532.04 1260.03C541.43 1258.42 546.28 1257.62 546.58 1257.62C547.65 1257.62 548.33 1259.26 548.63 1262.53C548.93 1265.8 549.46 1267.44 550.24 1267.44C549.41 1267.44 551.85 1266.08 557.55 1263.35C563.26 1260.62 568.76 1259.26 574.05 1259.26C577.38 1259.26 579.04 1259.88 579.04 1261.13C579.04 1262.64 578.86 1264.77 578.5 1267.52C578.14 1270.48 577.93 1272.61 577.88 1273.91C577.88 1275.42 577.91 1277.42 577.97 1279.91C578.09 1282.97 578.15 1285 578.15 1285.99L578.13 1285.96Z" fill="black" stroke="black" style="fill:black;fill-opacity:1;stroke:black;stroke-opacity:1;" stroke-width="10" stroke-miterlimit="10"/>
<path d="M262.67 1426.09C262.67 1436.63 257.59 1445.67 247.42 1453.2C238.5 1459.85 227.65 1464.08 214.87 1465.9C214.39 1465.95 214.01 1465.98 213.71 1465.98C212.34 1465.98 209.31 1462.33 204.61 1455.04C199.91 1447.75 197.56 1443.29 197.56 1441.68C197.56 1441.11 198.01 1440.75 198.9 1440.59C207.52 1438.88 213.23 1437.42 216.02 1436.23C222.2 1433.53 225.29 1429.53 225.29 1424.23C225.29 1420.85 223.27 1417.09 219.23 1412.94C212.21 1405.88 208.41 1401.96 207.82 1401.18C203.72 1395.78 201.67 1389.81 201.67 1383.27C201.67 1373.77 206.69 1365.87 216.74 1359.59C224.94 1354.4 235.02 1351.02 246.97 1349.46C247.62 1349.41 248.13 1349.38 248.49 1349.38C249.38 1349.38 250.1 1350 250.63 1351.25C252.18 1355.04 255.77 1361.89 261.42 1371.81C261.6 1372.12 261.69 1372.38 261.69 1372.59C261.69 1373.47 261.15 1373.91 260.08 1373.91C259.6 1373.91 258.8 1373.83 257.67 1373.68C256.54 1373.52 255.68 1373.45 255.08 1373.45C250.8 1373.45 247.05 1374.31 243.84 1376.02C239.97 1377.99 238.04 1380.74 238.04 1384.28C238.04 1387.45 240.18 1391.34 244.46 1395.96C252.01 1404.27 255.96 1408.63 256.32 1409.05C260.54 1414.76 262.65 1420.45 262.65 1426.11L262.67 1426.09Z" fill="black" stroke="black" style="fill:black;fill-opacity:1;stroke:black;stroke-opacity:1;" stroke-width="10" stroke-miterlimit="10"/>
<path d="M336.51 1439.1C336.51 1440.66 336.29 1443.02 335.84 1446.19C335.39 1449.36 335.17 1451.68 335.17 1453.16C335.17 1454.64 334.99 1455.59 334.63 1456C334.27 1456.41 333.29 1457.01 331.69 1457.79C324.02 1461.48 315.52 1463.32 306.19 1463.32C289.01 1463.32 280.42 1457.58 280.42 1446.11C280.42 1442.68 280.57 1437.53 280.87 1430.65C281.17 1423.77 281.32 1418.62 281.32 1415.19C281.32 1412.91 279.8 1411.76 276.77 1411.76H275.61C275.07 1411.81 274.69 1411.84 274.45 1411.84C272.19 1411.84 271.06 1411.14 271.06 1409.74C271.06 1408.91 271.13 1407.64 271.28 1405.92C271.43 1404.21 271.5 1402.93 271.5 1402.1C271.5 1401.01 271.42 1399.35 271.28 1397.11C271.13 1394.88 271.06 1393.22 271.06 1392.13C271.06 1391.04 272.96 1390.52 276.77 1390.42C278.91 1390.37 280.07 1389.85 280.25 1388.86C280.61 1386.89 280.72 1383.77 280.61 1379.51C280.37 1372.81 280.25 1369.62 280.25 1369.93C280.25 1363.91 280.9 1360.9 282.21 1360.9C283.82 1360.9 286.1 1361.21 289.08 1361.83C292.47 1362.5 294.82 1362.89 296.13 1363C299.16 1363.36 303.74 1363.86 309.86 1364.48C311.35 1364.58 312.09 1365.02 312.09 1365.8C312.09 1367.88 311.9 1371.02 311.51 1375.22C311.12 1379.43 310.93 1382.59 310.93 1384.72C310.93 1387.26 311.79 1388.54 313.52 1388.54C315.6 1388.54 318.75 1388.46 322.97 1388.31C327.19 1388.15 330.37 1388.08 332.51 1388.08C333.82 1388.08 334.47 1388.47 334.47 1389.25C334.47 1390.44 334.32 1392.24 334.02 1394.62C333.72 1397.01 333.57 1398.8 333.57 1399.99C333.57 1401.18 333.6 1403.05 333.66 1405.44C333.72 1407.83 333.75 1409.65 333.75 1410.89C333.75 1411.98 332.89 1412.53 331.16 1412.53C329.97 1412.53 327.98 1412.49 325.19 1412.41C322.39 1412.33 320.4 1412.29 319.22 1412.29H312.53C311.64 1412.29 311.19 1413.43 311.19 1415.72V1421.25C311.25 1423.74 311.28 1425.59 311.28 1426.78C311.28 1431.14 311.84 1434.15 312.97 1435.81C314.58 1438.04 317.73 1439.16 322.42 1439.16C323.91 1439.16 326.03 1438.86 328.8 1438.26C331.56 1437.66 333.51 1437.37 334.64 1437.37C335.89 1437.37 336.51 1437.94 336.51 1439.08V1439.1Z" fill="black" stroke="black" style="fill:black;fill-opacity:1;stroke:black;stroke-opacity:1;" stroke-width="10" stroke-miterlimit="10"/>
<path d="M435.49 1422.97C435.49 1426.97 435.76 1432.91 436.29 1440.81C436.83 1448.7 437.09 1454.62 437.09 1458.57C437.09 1460.65 436.05 1461.76 433.97 1461.92C426.6 1462.39 418.16 1462.62 408.64 1462.62C407.51 1462.62 406.75 1461.13 406.37 1458.14C405.98 1455.15 405.52 1453.64 404.99 1453.58C404.51 1453.79 403.89 1454.23 403.12 1454.9C396.46 1460.77 389.33 1463.7 381.72 1463.7C370.13 1463.7 360.53 1459.7 352.92 1451.7C345.73 1444.22 342.13 1435.29 342.13 1424.91C342.13 1412.91 345.84 1403.26 353.28 1395.93C361.01 1388.35 371.59 1384.56 385.03 1384.56C394.36 1384.56 401.74 1387.42 407.15 1393.13C407.39 1393.39 407.6 1393.52 407.77 1393.52C408.31 1393.52 408.91 1392.26 409.6 1389.74C410.28 1387.22 411.1 1385.96 412.05 1385.96C414.25 1385.96 418.44 1386.5 424.62 1387.6C430.51 1388.64 434.73 1389.52 437.28 1390.25C438.17 1390.56 438.62 1390.98 438.62 1391.5C438.62 1391.71 438.53 1392.25 438.35 1393.14C436.45 1402.54 435.5 1412.48 435.5 1422.97H435.49ZM406.78 1423.44C406.78 1419.03 405.19 1415.38 402.01 1412.5C398.83 1409.62 394.68 1408.18 389.57 1408.18C384.46 1408.18 380.32 1409.61 377.17 1412.47C374.02 1415.33 372.44 1418.99 372.44 1423.45C372.44 1427.66 374.1 1431.27 377.43 1434.28C380.76 1437.29 384.8 1438.8 389.56 1438.8C394.61 1438.8 398.74 1437.36 401.96 1434.48C405.17 1431.6 406.78 1427.93 406.78 1423.46V1423.44Z" fill="black" stroke="black" style="fill:black;fill-opacity:1;stroke:black;stroke-opacity:1;" stroke-width="10" stroke-miterlimit="10"/>
<path d="M512.36 1413.39C512.36 1415.41 511.08 1416.43 508.53 1416.43C507.4 1416.43 505.75 1416.37 503.58 1416.24C501.41 1416.11 499.79 1416.05 498.72 1416.05C493.79 1416.05 490.43 1416.72 488.64 1418.07C486.86 1419.42 485.96 1422.15 485.96 1426.25C485.96 1428.48 486 1431.87 486.09 1436.41C486.18 1440.96 486.22 1444.34 486.22 1446.58C486.22 1448.09 486.34 1450.33 486.58 1453.32C486.82 1456.31 486.94 1458.53 486.94 1459.98C486.94 1461.23 485.96 1461.93 484 1462.08C481.15 1462.29 476.78 1462.39 470.89 1462.39C465 1462.39 460.72 1462.23 457.34 1461.92C455.38 1461.71 454.4 1460.86 454.4 1459.35C454.4 1455.2 454.43 1448.98 454.49 1440.7C454.55 1432.42 454.58 1426.2 454.58 1422.04C454.58 1409.84 453.3 1399.79 450.74 1391.9C450.62 1391.43 450.56 1391.04 450.56 1390.73C450.56 1389.95 451.01 1389.43 451.9 1389.17C455.17 1388.86 459.96 1388.29 466.26 1387.46C475.65 1385.85 480.5 1385.05 480.8 1385.05C481.87 1385.05 482.55 1386.69 482.85 1389.96C483.15 1393.23 483.68 1394.87 484.46 1394.87C483.63 1394.87 486.06 1393.51 491.77 1390.78C497.48 1388.05 502.98 1386.69 508.27 1386.69C511.6 1386.69 513.26 1387.31 513.26 1388.56C513.26 1390.07 513.08 1392.2 512.72 1394.95C512.36 1397.91 512.15 1400.04 512.1 1401.34C512.1 1402.85 512.13 1404.85 512.19 1407.34C512.31 1410.4 512.37 1412.43 512.37 1413.42L512.36 1413.39Z" fill="black" stroke="black" style="fill:black;fill-opacity:1;stroke:black;stroke-opacity:1;" stroke-width="10" stroke-miterlimit="10"/>
<path d="M172.23 1199.37C197.99 1221.35 270.18 1196.49 301.47 1191.03C360.71 1180.7 420.66 1171.38 480.94 1170.57C485.77 1170.51 487.25 1177.1 482.85 1179.11L465.31 1187.12C465.17 1187.19 465.02 1187.24 464.87 1187.29C398.56 1209.5 332.14 1231.44 271.67 1267.08C256.54 1276 214.99 1300.54 209.06 1315.24C199.16 1339.8 221.95 1357.87 218.24 1378.48C211.71 1414.64 155.43 1349.89 138.18 1350.09C123.71 1350.26 90.1001 1389.35 74.2101 1389.75C43.5501 1390.53 70.4001 1340.87 74.1801 1325.65C78.8301 1306.9 81.4501 1307.3 66.7401 1293.75C56.2401 1284.07 20.0201 1265.49 18.8001 1252.81C15.6801 1220.23 87.2801 1242.55 101.48 1232.34C111.61 1225.05 120.28 1165 131.23 1161.18C156.33 1153.83 158.57 1187.72 172.23 1199.38V1199.37Z" fill="#0F0814" stroke="white" style="fill:#0F0814;fill:color(display-p3 0.0588 0.0314 0.0784);fill-opacity:1;stroke:white;stroke-opacity:1;" stroke-width="10" stroke-miterlimit="10"/>
<path d="M73.5101 1396.84C63.7801 1396.84 58.7701 1392.53 56.2801 1388.91C47.6401 1376.36 56.1601 1354.07 63.0101 1336.16C64.8801 1331.27 66.6401 1326.66 67.3201 1323.94C67.9401 1321.45 68.5101 1319.31 69.0201 1317.43C70.2601 1312.83 71.0801 1309.79 70.6401 1308.46C69.9901 1306.49 65.9901 1302.69 61.9501 1298.96C58.9801 1296.23 53.0401 1292.25 46.7501 1288.05C26.9401 1274.81 12.8301 1264.58 11.7701 1253.49C11.1301 1246.78 12.8201 1241.15 16.8001 1236.77C24.5901 1228.19 39.4101 1227.09 51.4501 1227.09C57.4301 1227.09 63.5801 1227.39 69.5401 1227.68C74.9901 1227.95 80.1401 1228.2 84.7001 1228.2C94.1001 1228.2 96.6901 1227.03 97.3101 1226.62C100.42 1223.75 105.49 1206.38 108.53 1196C115.67 1171.54 120.14 1157.55 128.91 1154.49L129.08 1154.43L129.25 1154.38C132.24 1153.51 135.14 1153.06 137.88 1153.06C154.05 1153.06 161.33 1167.43 167.19 1178.98C170.17 1184.85 173.25 1190.93 176.84 1193.99C182.46 1198.79 192 1201.22 205.19 1201.22C226.77 1201.22 253.65 1194.78 275.26 1189.61C285 1187.28 293.42 1185.26 300.27 1184.07C354.78 1174.56 418.17 1164.35 480.86 1163.51H481.03C486.5 1163.51 491.13 1167.25 492.3 1172.6C493.47 1177.96 490.8 1183.29 485.81 1185.57L468.27 1193.58C467.9 1193.75 467.52 1193.9 467.14 1194.03L463.31 1195.31C399.71 1216.61 333.95 1238.63 275.29 1273.2C268.35 1277.29 253.91 1285.8 240.99 1294.82C220.85 1308.87 216.56 1315.65 215.65 1317.91C211.16 1329.06 214.99 1338.51 219.42 1349.46C223.25 1358.92 227.22 1368.71 225.23 1379.75C222.49 1394.91 212.13 1396.55 207.8 1396.56C195.34 1396.56 179.24 1384.64 163.67 1373.1C155.13 1366.77 142.22 1357.21 138.29 1357.19C133.65 1357.24 120.56 1367.81 111.89 1374.8C98.0201 1386 84.9101 1396.58 74.4201 1396.84C74.1201 1396.84 73.8301 1396.85 73.5401 1396.85L73.5101 1396.84Z" fill="#0F0814" style="fill:#0F0814;fill:color(display-p3 0.0588 0.0314 0.0784);fill-opacity:1;"/>
<path d="M172.23 1199.37C197.99 1221.35 270.18 1196.49 301.47 1191.03C360.71 1180.7 420.66 1171.38 480.94 1170.57C485.77 1170.51 487.25 1177.1 482.85 1179.11L465.31 1187.12C465.17 1187.19 465.02 1187.24 464.87 1187.29C398.56 1209.5 332.14 1231.44 271.67 1267.08C256.54 1276 214.99 1300.54 209.06 1315.24C199.16 1339.8 221.95 1357.87 218.24 1378.48C211.71 1414.64 155.43 1349.89 138.18 1350.09C123.71 1350.26 90.1001 1389.35 74.2101 1389.75C43.5501 1390.53 70.4001 1340.87 74.1801 1325.65C78.8301 1306.9 81.4501 1307.3 66.7401 1293.75C56.2401 1284.07 20.0201 1265.49 18.8001 1252.81C15.6801 1220.23 87.2801 1242.55 101.48 1232.34C111.61 1225.05 120.28 1165 131.23 1161.18C156.33 1153.83 158.57 1187.72 172.23 1199.38V1199.37Z" fill="black" style="fill:black;fill-opacity:1;"/>
<path d="M73.5199 1393.3C67.0199 1393.3 62.2399 1391.2 59.2999 1387.05C51.5399 1376.08 59.7299 1354.65 66.32 1337.43C68.31 1332.22 70.0299 1327.73 70.75 1324.8C71.36 1322.35 71.93 1320.23 72.43 1318.36C74.0499 1312.35 74.74 1309.6 74 1307.36C73.16 1304.8 70.2099 1301.77 64.3399 1296.36C61.1699 1293.44 55.1199 1289.39 48.7099 1285.11C29.7099 1272.42 16.1999 1262.69 15.2799 1253.15C14.7199 1247.31 16.1999 1242.5 19.6799 1238.85C28.8599 1229.24 49.4399 1230.24 69.3399 1231.22C82.0499 1231.84 95.2 1232.49 99.41 1229.46C103.23 1226.71 108.04 1210.23 111.91 1196.99C118.53 1174.33 122.95 1160.31 130.06 1157.83L130.23 1157.77C149.58 1152.11 157.58 1167.89 164.01 1180.57C167.29 1187.04 170.39 1193.15 174.52 1196.67C193.45 1212.82 243.17 1200.91 276.07 1193.03C285.76 1190.71 294.12 1188.71 300.86 1187.53C355.23 1178.05 418.46 1167.86 480.89 1167.02C480.93 1167.02 480.97 1167.02 481.01 1167.02C484.84 1167.02 487.97 1169.52 488.81 1173.28C489.66 1177.08 487.86 1180.71 484.32 1182.33L466.78 1190.34C466.52 1190.46 466.26 1190.56 466 1190.65L462.18 1191.93C398.4 1213.28 332.46 1235.37 273.47 1270.13C236.56 1291.88 216 1307.5 212.34 1316.56C207.31 1329.03 211.59 1339.59 216.11 1350.77C219.75 1359.77 223.52 1369.07 221.71 1379.11C220.49 1385.88 217.52 1390.24 212.9 1392.08C201.39 1396.65 183.26 1383.23 165.73 1370.24C155.22 1362.46 143.31 1353.63 138.26 1353.63C138.24 1353.63 138.23 1353.63 138.21 1353.63C132.34 1353.7 120.27 1363.44 109.63 1372.03C96.2399 1382.84 83.5799 1393.05 74.29 1393.29C74.03 1393.29 73.7599 1393.3 73.5 1393.3H73.5199ZM51.6699 1237.73C40.1299 1237.73 29.4299 1238.9 24.7999 1243.74C22.7699 1245.86 21.9599 1248.72 22.3199 1252.47C22.9799 1259.41 40.83 1271.33 52.63 1279.22C59.56 1283.85 65.5499 1287.85 69.1299 1291.15C82.7199 1303.67 83.0399 1306.19 79.2599 1320.2C78.7599 1322.04 78.2 1324.12 77.61 1326.5C76.7799 1329.84 74.9899 1334.53 72.9199 1339.95C67.57 1353.94 59.5 1375.07 65.07 1382.96C66.7 1385.26 69.67 1386.31 74.12 1386.21C81.01 1386.04 93.8599 1375.67 105.19 1366.52C118.4 1355.86 129.81 1346.65 138.13 1346.55C138.17 1346.55 138.2 1346.55 138.24 1346.55C145.64 1346.55 156.91 1354.89 169.94 1364.55C184.41 1375.27 202.42 1388.61 210.29 1385.49C212.49 1384.62 213.98 1382.05 214.74 1377.85C216.19 1369.83 212.96 1361.86 209.54 1353.43C204.91 1342 199.66 1329.04 205.76 1313.92C211.5 1299.68 245.09 1278.63 269.86 1264.03C329.49 1228.89 395.79 1206.69 459.92 1185.22L463.74 1183.94C463.74 1183.94 463.8 1183.92 463.83 1183.9L481.37 1175.89C481.54 1175.81 482.06 1175.58 481.89 1174.83C481.72 1174.09 481.15 1174.09 480.98 1174.1C419.08 1174.93 356.17 1185.07 302.07 1194.5C295.55 1195.64 287.28 1197.62 277.71 1199.91C241.37 1208.61 191.59 1220.54 169.92 1202.05C164.71 1197.61 161.15 1190.57 157.7 1183.76C150.4 1169.36 145.04 1160.86 132.34 1164.51C131.94 1164.69 129.81 1166.03 126.29 1175.12C123.71 1181.77 121.16 1190.51 118.7 1198.96C112.87 1218.91 108.94 1231.3 103.54 1235.19C97.3199 1239.66 84.1899 1239.02 68.9899 1238.27C63.4499 1238 57.45 1237.7 51.66 1237.7L51.6699 1237.73Z" fill="white" style="fill:white;fill-opacity:1;"/>
<path d="M189.33 1295.1C189.33 1305.64 184.25 1314.68 174.08 1322.21C165.16 1328.86 154.31 1333.09 141.53 1334.91C141.05 1334.96 140.67 1334.99 140.37 1334.99C139 1334.99 135.97 1331.34 131.27 1324.05C126.57 1316.75 124.22 1312.3 124.22 1310.69C124.22 1310.12 124.67 1309.76 125.56 1309.6C134.18 1307.89 139.89 1306.43 142.68 1305.24C148.86 1302.54 151.95 1298.54 151.95 1293.24C151.95 1289.86 149.93 1286.1 145.89 1281.95C138.87 1274.89 135.07 1270.97 134.48 1270.19C130.38 1264.79 128.33 1258.82 128.33 1252.28C128.33 1242.78 133.35 1234.89 143.4 1228.6C151.6 1223.41 161.68 1220.03 173.63 1218.47C174.28 1218.42 174.79 1218.39 175.15 1218.39C176.04 1218.39 176.76 1219.01 177.29 1220.26C178.84 1224.05 182.43 1230.91 188.08 1240.82C188.26 1241.13 188.35 1241.39 188.35 1241.6C188.35 1242.48 187.81 1242.92 186.74 1242.92C186.26 1242.92 185.46 1242.84 184.33 1242.69C183.2 1242.54 182.34 1242.46 181.74 1242.46C177.46 1242.46 173.71 1243.32 170.5 1245.03C166.63 1247 164.7 1249.76 164.7 1253.29C164.7 1256.46 166.84 1260.35 171.12 1264.97C178.67 1273.28 182.62 1277.64 182.98 1278.06C187.2 1283.77 189.31 1289.46 189.31 1295.12L189.33 1295.1Z" fill="#FC6090" stroke="black" style="fill:#FC6090;fill:color(display-p3 0.9882 0.3765 0.5647);fill-opacity:1;stroke:black;stroke-opacity:1;" stroke-width="5" stroke-miterlimit="10"/>
<path d="M295.28 1260.12C295.28 1263.96 295.07 1269.73 294.66 1277.41C294.24 1285.1 294.04 1290.86 294.04 1294.7C294.04 1298.54 294.19 1304.05 294.49 1311.53C294.79 1319.01 294.94 1324.59 294.94 1328.28C294.94 1329.68 294.2 1330.57 292.71 1330.93C290.45 1331.45 285.66 1331.71 278.35 1331.71C271.87 1331.71 267.35 1331.55 264.8 1331.24C263.67 1331.08 262.96 1330.46 262.66 1329.37C262.48 1327.81 262.3 1326.25 262.12 1324.7C261.82 1322.31 261.41 1321.12 260.87 1321.12C261.7 1321.12 258.7 1322.89 251.86 1326.42C245.02 1329.95 238.81 1331.72 233.22 1331.72C217.47 1331.72 208.13 1325.51 205.22 1313.1C203.91 1307.34 203.26 1298.98 203.26 1288.02C203.26 1276.18 204.36 1266.83 206.56 1259.98C207.21 1257.85 208.43 1256.79 210.22 1256.79C212.95 1256.79 217.12 1256.82 222.7 1256.87C228.29 1256.92 232.45 1256.95 235.18 1256.95C237.02 1256.95 237.94 1257.62 237.94 1258.97C237.94 1259.34 237.88 1259.88 237.76 1260.61C236.51 1267.67 235.89 1274.84 235.89 1282.11C235.89 1291.14 236.22 1297.33 236.87 1300.65C237.94 1306.36 241.83 1309.22 248.55 1309.22C251.17 1309.22 254 1308.21 257.07 1306.18C260.13 1304.15 261.72 1302.05 261.84 1299.87C261.96 1297.95 262.02 1284.92 262.02 1260.77C262.02 1259.06 262.17 1258.04 262.47 1257.73C262.83 1257.21 263.9 1256.95 265.68 1256.95C268.59 1256.95 272.98 1256.98 278.83 1257.03C284.69 1257.08 289.07 1257.11 291.98 1257.11C293.76 1257.11 294.8 1257.5 295.1 1258.28C295.22 1258.7 295.28 1259.32 295.28 1260.15V1260.12Z" fill="#FC6090" stroke="black" style="fill:#FC6090;fill:color(display-p3 0.9882 0.3765 0.5647);fill-opacity:1;stroke:black;stroke-opacity:1;" stroke-width="5" stroke-miterlimit="10"/>
<path d="M408.35 1293.46C408.35 1304.57 404.6 1313.79 397.11 1321.11C389.38 1328.69 379.24 1332.48 366.7 1332.48C362.12 1332.48 357.22 1331.49 351.99 1329.52C346.76 1327.55 344.38 1326.56 344.86 1326.56C344.09 1326.56 343.7 1327.34 343.7 1328.9C343.7 1331.55 343.85 1335.53 344.15 1340.86C344.45 1346.18 344.6 1350.17 344.6 1352.82C344.6 1354.48 343.62 1355.31 341.66 1355.31L323.47 1355.39C319.37 1355.39 316.72 1355.26 315.53 1355C313.75 1354.64 312.85 1353.68 312.85 1352.12L313.03 1292.14C313.03 1280.04 311.99 1269.84 309.91 1261.53C309.79 1261.01 309.73 1260.57 309.73 1260.21C309.73 1259.43 310.09 1258.91 310.8 1258.65C313.12 1257.87 317.55 1257.04 324.09 1256.16C330.45 1255.28 335.06 1254.84 337.91 1254.84C340.23 1254.84 341.55 1256.18 341.88 1258.85C342.21 1261.53 342.61 1262.86 343.08 1262.86C342.49 1262.86 345.03 1261.45 350.71 1258.62C356.39 1255.79 361.54 1254.38 366.18 1254.38C379.08 1254.38 389.39 1258.09 397.12 1265.52C404.61 1272.69 408.36 1282.01 408.36 1293.48L408.35 1293.46ZM375.27 1293.3C375.27 1289.15 373.81 1285.51 370.9 1282.4C367.75 1279.13 363.85 1277.49 359.22 1277.49C354.59 1277.49 350.66 1279.13 347.81 1282.4C345.31 1285.36 344.06 1289 344.06 1293.3C344.06 1297.6 345.37 1301.38 347.98 1304.28C350.77 1307.45 354.64 1309.03 359.57 1309.03C370.03 1309.03 375.26 1303.79 375.26 1293.3H375.27Z" fill="#FC6090" stroke="black" style="fill:#FC6090;fill:color(display-p3 0.9882 0.3765 0.5647);fill-opacity:1;stroke:black;stroke-opacity:1;" stroke-width="5" stroke-miterlimit="10"/>
<path d="M501.63 1288.63C501.63 1293.87 499.7 1296.86 495.83 1297.59C495.18 1297.69 489.02 1298.26 477.37 1299.3C470.35 1299.97 459.89 1300.78 445.98 1301.71C446.81 1305.09 449.34 1307.66 453.56 1309.42C457.01 1310.87 460.93 1311.6 465.33 1311.6C470.62 1311.6 475.94 1310.35 481.29 1307.86C483.55 1306.61 485.81 1305.37 488.07 1304.12C489.32 1304.64 491.41 1307.29 494.36 1312.07C497.3 1316.85 498.77 1319.89 498.77 1321.18C498.77 1321.54 498.32 1322.14 497.43 1322.97C490.18 1329.77 478.91 1333.17 463.63 1333.17C449.48 1333.17 438.07 1329.56 429.39 1322.34C420.47 1315.02 416.01 1305.23 416.01 1292.97C416.01 1280.71 419.99 1271.24 427.96 1263.6C436.16 1255.71 447.04 1251.76 460.6 1251.76C472.01 1251.76 481.7 1255.4 489.67 1262.66C497.64 1269.93 501.62 1278.58 501.62 1288.6L501.63 1288.63ZM470.42 1283.88C470.42 1280.66 469.11 1277.83 466.5 1275.39C463.88 1272.95 460.76 1271.73 457.14 1271.73C453.52 1271.73 450.3 1273.11 447.87 1275.86C445.61 1278.41 444.48 1281.39 444.48 1284.82C444.48 1286.22 445.31 1286.92 446.98 1286.92C451.38 1286.92 458.22 1286.32 467.49 1285.13C469.45 1284.87 470.43 1284.46 470.43 1283.88H470.42Z" fill="#FC6090" stroke="black" style="fill:#FC6090;fill:color(display-p3 0.9882 0.3765 0.5647);fill-opacity:1;stroke:black;stroke-opacity:1;" stroke-width="5" stroke-miterlimit="10"/>
<path d="M570.56 1282.4C570.56 1284.43 569.28 1285.44 566.73 1285.44C565.6 1285.44 563.95 1285.38 561.78 1285.25C559.61 1285.12 557.99 1285.06 556.92 1285.06C551.99 1285.06 548.63 1285.74 546.84 1287.09C545.06 1288.44 544.16 1291.17 544.16 1295.27C544.16 1297.5 544.21 1300.89 544.29 1305.43C544.38 1309.97 544.42 1313.36 544.42 1315.59C544.42 1317.1 544.54 1319.34 544.78 1322.33C545.02 1325.32 545.14 1327.54 545.14 1328.99C545.14 1330.24 544.16 1330.94 542.2 1331.09C539.35 1331.3 534.98 1331.4 529.09 1331.4C523.2 1331.4 518.92 1331.25 515.54 1330.93C513.58 1330.72 512.6 1329.87 512.6 1328.36C512.6 1324.21 512.63 1317.99 512.69 1309.71C512.75 1301.43 512.78 1295.21 512.78 1291.06C512.78 1278.86 511.5 1268.81 508.94 1260.92C508.82 1260.45 508.76 1260.06 508.76 1259.75C508.76 1258.97 509.21 1258.45 510.1 1258.19C513.37 1257.88 518.16 1257.31 524.46 1256.48C533.85 1254.87 538.7 1254.07 539 1254.07C540.07 1254.07 540.75 1255.71 541.05 1258.98C541.35 1262.25 541.88 1263.89 542.66 1263.89C541.83 1263.89 544.27 1262.53 549.97 1259.8C555.68 1257.07 561.18 1255.71 566.47 1255.71C569.8 1255.71 571.46 1256.33 571.46 1257.58C571.46 1259.09 571.28 1261.22 570.92 1263.97C570.56 1266.93 570.35 1269.06 570.3 1270.36C570.3 1271.87 570.33 1273.87 570.39 1276.36C570.51 1279.43 570.57 1281.45 570.57 1282.44L570.56 1282.4Z" fill="#FC6090" stroke="black" style="fill:#FC6090;fill:color(display-p3 0.9882 0.3765 0.5647);fill-opacity:1;stroke:black;stroke-opacity:1;" stroke-width="5" stroke-miterlimit="10"/>
<path d="M255.1 1422.53C255.1 1433.07 250.02 1442.11 239.85 1449.64C230.93 1456.29 220.08 1460.52 207.3 1462.34C206.82 1462.39 206.44 1462.42 206.14 1462.42C204.77 1462.42 201.74 1458.77 197.04 1451.48C192.34 1444.18 189.99 1439.73 189.99 1438.12C189.99 1437.55 190.44 1437.19 191.33 1437.03C199.95 1435.32 205.66 1433.86 208.45 1432.67C214.63 1429.97 217.72 1425.97 217.72 1420.67C217.72 1417.29 215.7 1413.53 211.66 1409.38C204.64 1402.32 200.84 1398.4 200.25 1397.62C196.15 1392.22 194.1 1386.25 194.1 1379.71C194.1 1370.21 199.12 1362.32 209.17 1356.03C217.37 1350.84 227.45 1347.46 239.4 1345.9C240.05 1345.85 240.56 1345.82 240.92 1345.82C241.81 1345.82 242.53 1346.44 243.06 1347.69C244.61 1351.48 248.2 1358.34 253.85 1368.25C254.03 1368.56 254.12 1368.82 254.12 1369.03C254.12 1369.91 253.58 1370.35 252.51 1370.35C252.03 1370.35 251.23 1370.27 250.1 1370.12C248.97 1369.97 248.11 1369.89 247.51 1369.89C243.23 1369.89 239.48 1370.75 236.27 1372.46C232.4 1374.43 230.47 1377.19 230.47 1380.72C230.47 1383.89 232.61 1387.78 236.89 1392.4C244.44 1400.71 248.39 1405.07 248.75 1405.49C252.97 1411.2 255.08 1416.89 255.08 1422.55L255.1 1422.53Z" fill="#FC6090" stroke="black" style="fill:#FC6090;fill:color(display-p3 0.9882 0.3765 0.5647);fill-opacity:1;stroke:black;stroke-opacity:1;" stroke-width="5" stroke-miterlimit="10"/>
<path d="M328.94 1435.54C328.94 1437.1 328.72 1439.46 328.27 1442.63C327.82 1445.8 327.6 1448.12 327.6 1449.6C327.6 1451.08 327.42 1452.03 327.06 1452.44C326.7 1452.86 325.72 1453.45 324.12 1454.23C316.45 1457.92 307.95 1459.76 298.62 1459.76C281.44 1459.76 272.85 1454.02 272.85 1442.55C272.85 1439.12 273 1433.97 273.3 1427.09C273.6 1420.21 273.75 1415.06 273.75 1411.63C273.75 1409.35 272.23 1408.2 269.2 1408.2H268.04C267.5 1408.25 267.12 1408.28 266.88 1408.28C264.62 1408.28 263.49 1407.58 263.49 1406.18C263.49 1405.35 263.56 1404.08 263.71 1402.36C263.86 1400.65 263.93 1399.37 263.93 1398.54C263.93 1397.45 263.85 1395.79 263.71 1393.56C263.56 1391.33 263.49 1389.66 263.49 1388.58C263.49 1387.5 265.39 1386.97 269.2 1386.87C271.34 1386.82 272.5 1386.3 272.68 1385.31C273.04 1383.34 273.15 1380.22 273.04 1375.96C272.8 1369.26 272.68 1366.07 272.68 1366.38C272.68 1360.36 273.33 1357.35 274.64 1357.35C276.25 1357.35 278.53 1357.66 281.51 1358.28C284.9 1358.96 287.25 1359.34 288.56 1359.45C291.59 1359.81 296.17 1360.31 302.29 1360.93C303.78 1361.04 304.52 1361.48 304.52 1362.25C304.52 1364.33 304.33 1367.47 303.94 1371.67C303.55 1375.88 303.36 1379.04 303.36 1381.17C303.36 1383.72 304.22 1384.99 305.95 1384.99C308.03 1384.99 311.18 1384.91 315.4 1384.76C319.62 1384.6 322.8 1384.53 324.94 1384.53C326.25 1384.53 326.9 1384.92 326.9 1385.7C326.9 1386.89 326.75 1388.69 326.45 1391.07C326.15 1393.46 326 1395.25 326 1396.44C326 1397.63 326.03 1399.5 326.09 1401.89C326.15 1404.28 326.18 1406.1 326.18 1407.34C326.18 1408.43 325.32 1408.97 323.59 1408.97C322.4 1408.97 320.41 1408.93 317.62 1408.85C314.82 1408.77 312.83 1408.73 311.65 1408.73H304.96C304.07 1408.73 303.62 1409.87 303.62 1412.16V1417.69C303.68 1420.18 303.71 1422.03 303.71 1423.22C303.71 1427.58 304.27 1430.59 305.4 1432.25C307.01 1434.48 310.16 1435.6 314.85 1435.6C316.34 1435.6 318.46 1435.3 321.23 1434.7C323.99 1434.1 325.94 1433.8 327.07 1433.8C328.32 1433.8 328.94 1434.37 328.94 1435.51V1435.54Z" fill="#FC6090" stroke="black" style="fill:#FC6090;fill:color(display-p3 0.9882 0.3765 0.5647);fill-opacity:1;stroke:black;stroke-opacity:1;" stroke-width="5" stroke-miterlimit="10"/>
<path d="M427.92 1419.41C427.92 1423.41 428.19 1429.35 428.72 1437.25C429.25 1445.15 429.52 1451.06 429.52 1455.01C429.52 1457.09 428.48 1458.2 426.4 1458.36C419.03 1458.83 410.59 1459.06 401.07 1459.06C399.94 1459.06 399.18 1457.57 398.8 1454.58C398.41 1451.59 397.95 1450.08 397.42 1450.02C396.94 1450.23 396.32 1450.67 395.55 1451.34C388.89 1457.21 381.76 1460.14 374.15 1460.14C362.56 1460.14 352.96 1456.14 345.35 1448.14C338.16 1440.66 334.56 1431.73 334.56 1421.35C334.56 1409.35 338.27 1399.7 345.71 1392.37C353.44 1384.79 364.02 1381 377.46 1381C386.79 1381 394.17 1383.86 399.58 1389.57C399.82 1389.83 400.03 1389.96 400.2 1389.96C400.74 1389.96 401.34 1388.7 402.03 1386.18C402.71 1383.66 403.53 1382.4 404.48 1382.4C406.68 1382.4 410.87 1382.94 417.05 1384.04C422.94 1385.08 427.16 1385.96 429.71 1386.69C430.6 1387 431.05 1387.42 431.05 1387.94C431.05 1388.15 430.96 1388.69 430.78 1389.58C428.88 1398.98 427.93 1408.92 427.93 1419.41H427.92ZM399.21 1419.88C399.21 1415.47 397.62 1411.82 394.44 1408.94C391.26 1406.06 387.11 1404.62 382 1404.62C376.89 1404.62 372.75 1406.05 369.6 1408.9C366.45 1411.76 364.87 1415.42 364.87 1419.88C364.87 1424.09 366.53 1427.7 369.86 1430.71C373.19 1433.72 377.23 1435.23 381.99 1435.23C387.04 1435.23 391.17 1433.79 394.39 1430.91C397.6 1428.03 399.21 1424.35 399.21 1419.89V1419.88Z" fill="#FC6090" stroke="black" style="fill:#FC6090;fill:color(display-p3 0.9882 0.3765 0.5647);fill-opacity:1;stroke:black;stroke-opacity:1;" stroke-width="5" stroke-miterlimit="10"/>
<path d="M504.79 1409.83C504.79 1411.86 503.51 1412.87 500.96 1412.87C499.83 1412.87 498.18 1412.81 496.01 1412.68C493.84 1412.55 492.22 1412.49 491.15 1412.49C486.22 1412.49 482.86 1413.17 481.07 1414.52C479.29 1415.87 478.39 1418.6 478.39 1422.7C478.39 1424.93 478.43 1428.32 478.52 1432.86C478.61 1437.4 478.65 1440.79 478.65 1443.02C478.65 1444.53 478.77 1446.77 479.01 1449.76C479.25 1452.75 479.37 1454.97 479.37 1456.42C479.37 1457.67 478.39 1458.37 476.43 1458.52C473.58 1458.73 469.21 1458.83 463.32 1458.83C457.43 1458.83 453.15 1458.68 449.77 1458.36C447.81 1458.15 446.83 1457.3 446.83 1455.79C446.83 1451.64 446.86 1445.42 446.92 1437.14C446.98 1428.86 447.01 1422.64 447.01 1418.49C447.01 1406.29 445.73 1396.24 443.17 1388.35C443.05 1387.88 442.99 1387.49 442.99 1387.18C442.99 1386.4 443.44 1385.88 444.33 1385.62C447.6 1385.31 452.39 1384.74 458.69 1383.91C468.08 1382.3 472.93 1381.5 473.23 1381.5C474.3 1381.5 474.98 1383.14 475.28 1386.41C475.58 1389.68 476.11 1391.32 476.89 1391.32C476.06 1391.32 478.49 1389.96 484.2 1387.23C489.91 1384.5 495.41 1383.14 500.7 1383.14C504.03 1383.14 505.69 1383.76 505.69 1385.01C505.69 1386.52 505.51 1388.65 505.15 1391.4C504.79 1394.36 504.58 1396.49 504.53 1397.79C504.53 1399.3 504.56 1401.3 504.62 1403.79C504.74 1406.86 504.8 1408.88 504.8 1409.87L504.79 1409.83Z" fill="#FC6090" stroke="black" style="fill:#FC6090;fill:color(display-p3 0.9882 0.3765 0.5647);fill-opacity:1;stroke:black;stroke-opacity:1;" stroke-width="5" stroke-miterlimit="10"/>
<path d="M19.9902 663.79L52.9202 676.68L76.8302 650.61L109.76 663.5L133.67 637.43L166.61 650.33" stroke="#FC6090" style="stroke:#FC6090;stroke:color(display-p3 0.9882 0.3765 0.5647);stroke-opacity:1;" stroke-width="9" stroke-miterlimit="10"/>
<path d="M577.74 60.55L613.03 58.21L623.57 24.45L658.87 22.11L669.42 -11.66L704.71 -14" stroke="#FC6090" style="stroke:#FC6090;stroke:color(display-p3 0.9882 0.3765 0.5647);stroke-opacity:1;" stroke-width="9" stroke-miterlimit="10"/>
<path d="M987.93 1122.62L1022.26 1114.09L1026.68 1079L1061.01 1070.47L1065.44 1035.38L1099.77 1026.85" stroke="#FC6090" style="stroke:#FC6090;stroke:color(display-p3 0.9882 0.3765 0.5647);stroke-opacity:1;" stroke-width="9" stroke-miterlimit="10"/>
<path d="M41.5898 159.53L52.5198 193.17L87.8298 195.11L98.7598 228.76L134.08 230.7L145 264.35" stroke="#FC6090" style="stroke:#FC6090;stroke:color(display-p3 0.9882 0.3765 0.5647);stroke-opacity:1;" stroke-width="9" stroke-miterlimit="10"/>
<path d="M1043.96 46.3199C1045.52 46.3199 1046.78 45.0574 1046.78 43.4999C1046.78 41.9425 1045.52 40.6799 1043.96 40.6799C1042.4 40.6799 1041.14 41.9425 1041.14 43.4999C1041.14 45.0574 1042.4 46.3199 1043.96 46.3199Z" fill="white" style="fill:white;fill-opacity:1;"/>
<path d="M1103.21 157.14C1104.77 157.14 1106.03 155.877 1106.03 154.32C1106.03 152.763 1104.77 151.5 1103.21 151.5C1101.65 151.5 1100.39 152.763 1100.39 154.32C1100.39 155.877 1101.65 157.14 1103.21 157.14Z" fill="white" style="fill:white;fill-opacity:1;"/>
<path d="M1077.36 223.78C1078.92 223.78 1080.18 222.517 1080.18 220.96C1080.18 219.402 1078.92 218.14 1077.36 218.14C1075.8 218.14 1074.54 219.402 1074.54 220.96C1074.54 222.517 1075.8 223.78 1077.36 223.78Z" fill="white" style="fill:white;fill-opacity:1;"/>
<path d="M1076.31 477.49C1077.87 477.49 1079.13 476.228 1079.13 474.67C1079.13 473.113 1077.87 471.85 1076.31 471.85C1074.75 471.85 1073.49 473.113 1073.49 474.67C1073.49 476.228 1074.75 477.49 1076.31 477.49Z" fill="white" style="fill:white;fill-opacity:1;"/>
<path d="M1110.25 590.37C1111.81 590.37 1113.07 589.107 1113.07 587.55C1113.07 585.993 1111.81 584.73 1110.25 584.73C1108.69 584.73 1107.43 585.993 1107.43 587.55C1107.43 589.107 1108.69 590.37 1110.25 590.37Z" fill="white" style="fill:white;fill-opacity:1;"/>
<path d="M1048.17 826.37C1049.73 826.37 1050.99 825.107 1050.99 823.55C1050.99 821.993 1049.73 820.73 1048.17 820.73C1046.61 820.73 1045.35 821.993 1045.35 823.55C1045.35 825.107 1046.61 826.37 1048.17 826.37Z" fill="white" style="fill:white;fill-opacity:1;"/>
<path d="M1107.42 937.18C1108.98 937.18 1110.24 935.917 1110.24 934.36C1110.24 932.803 1108.98 931.54 1107.42 931.54C1105.86 931.54 1104.6 932.803 1104.6 934.36C1104.6 935.917 1105.86 937.18 1107.42 937.18Z" fill="white" style="fill:white;fill-opacity:1;"/>
<path d="M1081.57 1003.82C1083.13 1003.82 1084.39 1002.56 1084.39 1001C1084.39 999.442 1083.13 998.18 1081.57 998.18C1080.01 998.18 1078.75 999.442 1078.75 1001C1078.75 1002.56 1080.01 1003.82 1081.57 1003.82Z" fill="white" style="fill:white;fill-opacity:1;"/>
<path d="M1106.34 1131.59C1107.9 1131.59 1109.16 1130.33 1109.16 1128.77C1109.16 1127.21 1107.9 1125.95 1106.34 1125.95C1104.78 1125.95 1103.52 1127.21 1103.52 1128.77C1103.52 1130.33 1104.78 1131.59 1106.34 1131.59Z" fill="white" style="fill:white;fill-opacity:1;"/>
<path d="M1080.52 1257.53C1082.08 1257.53 1083.34 1256.27 1083.34 1254.71C1083.34 1253.15 1082.08 1251.89 1080.52 1251.89C1078.96 1251.89 1077.7 1253.15 1077.7 1254.71C1077.7 1256.27 1078.96 1257.53 1080.52 1257.53Z" fill="white" style="fill:white;fill-opacity:1;"/>
<path d="M1050.99 1446.23C1052.55 1446.23 1053.81 1444.97 1053.81 1443.41C1053.81 1441.85 1052.55 1440.59 1050.99 1440.59C1049.43 1440.59 1048.17 1441.85 1048.17 1443.41C1048.17 1444.97 1049.43 1446.23 1050.99 1446.23Z" fill="white" style="fill:white;fill-opacity:1;"/>
<path d="M932.61 1462.6C934.167 1462.6 935.43 1461.34 935.43 1459.78C935.43 1458.22 934.167 1456.96 932.61 1456.96C931.053 1456.96 929.79 1458.22 929.79 1459.78C929.79 1461.34 931.053 1462.6 932.61 1462.6Z" fill="white" style="fill:white;fill-opacity:1;"/>
<path d="M38.5002 1438.05C40.0576 1438.05 41.3202 1436.79 41.3202 1435.23C41.3202 1433.67 40.0576 1432.41 38.5002 1432.41C36.9427 1432.41 35.6802 1433.67 35.6802 1435.23C35.6802 1436.79 36.9427 1438.05 38.5002 1438.05Z" fill="white" style="fill:white;fill-opacity:1;"/>
<path d="M124.24 1484.21C125.797 1484.21 127.06 1482.95 127.06 1481.39C127.06 1479.83 125.797 1478.57 124.24 1478.57C122.682 1478.57 121.42 1479.83 121.42 1481.39C121.42 1482.95 122.682 1484.21 124.24 1484.21Z" fill="white" style="fill:white;fill-opacity:1;"/>
<path d="M344.05 1474.55C345.607 1474.55 346.87 1473.29 346.87 1471.73C346.87 1470.17 345.607 1468.91 344.05 1468.91C342.493 1468.91 341.23 1470.17 341.23 1471.73C341.23 1473.29 342.493 1474.55 344.05 1474.55Z" fill="white" style="fill:white;fill-opacity:1;"/>
<path d="M619.99 1474.55C621.547 1474.55 622.81 1473.29 622.81 1471.73C622.81 1470.17 621.547 1468.91 619.99 1468.91C618.432 1468.91 617.17 1470.17 617.17 1471.73C617.17 1473.29 618.432 1474.55 619.99 1474.55Z" fill="white" style="fill:white;fill-opacity:1;"/>
<path d="M249.26 1492.67C250.817 1492.67 252.08 1491.41 252.08 1489.85C252.08 1488.29 250.817 1487.03 249.26 1487.03C247.702 1487.03 246.44 1488.29 246.44 1489.85C246.44 1491.41 247.702 1492.67 249.26 1492.67Z" fill="white" style="fill:white;fill-opacity:1;"/>
<path d="M1114.47 1370.41C1116.03 1370.41 1117.29 1369.15 1117.29 1367.59C1117.29 1366.03 1116.03 1364.77 1114.47 1364.77C1112.91 1364.77 1111.65 1366.03 1111.65 1367.59C1111.65 1369.15 1112.91 1370.41 1114.47 1370.41Z" fill="white" style="fill:white;fill-opacity:1;"/>
<path d="M726.81 1459.78C728.368 1459.78 729.63 1458.52 729.63 1456.96C729.63 1455.4 728.368 1454.14 726.81 1454.14C725.253 1454.14 723.99 1455.4 723.99 1456.96C723.99 1458.52 725.253 1459.78 726.81 1459.78Z" fill="white" style="fill:white;fill-opacity:1;"/>
<path d="M865.5 43.2201C867.058 43.2201 868.32 41.9575 868.32 40.4001C868.32 38.8426 867.058 37.5801 865.5 37.5801C863.943 37.5801 862.68 38.8426 862.68 40.4001C862.68 41.9575 863.943 43.2201 865.5 43.2201Z" fill="white" style="fill:white;fill-opacity:1;"/>
<path d="M509.2 53.64C510.757 53.64 512.02 52.3774 512.02 50.82C512.02 49.2626 510.757 48 509.2 48C507.642 48 506.38 49.2626 506.38 50.82C506.38 52.3774 507.642 53.64 509.2 53.64Z" fill="white" style="fill:white;fill-opacity:1;"/>
<path d="M344.05 41.16C345.607 41.16 346.87 39.8975 346.87 38.34C346.87 36.7826 345.607 35.52 344.05 35.52C342.493 35.52 341.23 36.7826 341.23 38.34C341.23 39.8975 342.493 41.16 344.05 41.16Z" fill="white" style="fill:white;fill-opacity:1;"/>
<path d="M644.04 67.7401C645.597 67.7401 646.86 66.4775 646.86 64.9201C646.86 63.3627 645.597 62.1001 644.04 62.1001C642.482 62.1001 641.22 63.3627 641.22 64.9201C641.22 66.4775 642.482 67.7401 644.04 67.7401Z" fill="white" style="fill:white;fill-opacity:1;"/>
<path d="M951.49 62.1C953.047 62.1 954.31 60.8374 954.31 59.28C954.31 57.7225 953.047 56.46 951.49 56.46C949.932 56.46 948.67 57.7225 948.67 59.28C948.67 60.8374 949.932 62.1 951.49 62.1Z" fill="white" style="fill:white;fill-opacity:1;"/>
<path d="M750.68 26.09C752.237 26.09 753.5 24.8274 753.5 23.27C753.5 21.7125 752.237 20.45 750.68 20.45C749.122 20.45 747.86 21.7125 747.86 23.27C747.86 24.8274 749.122 26.09 750.68 26.09Z" fill="white" style="fill:white;fill-opacity:1;"/>
<path d="M3.71014 105.86C5.26758 105.86 6.53014 104.597 6.53014 103.04C6.53014 101.483 5.26758 100.22 3.71014 100.22C2.15269 100.22 0.890137 101.483 0.890137 103.04C0.890137 104.597 2.15269 105.86 3.71014 105.86Z" fill="white" style="fill:white;fill-opacity:1;"/>
<path d="M104.73 48.9701C106.288 48.9701 107.55 47.7075 107.55 46.1501C107.55 44.5926 106.288 43.3301 104.73 43.3301C103.173 43.3301 101.91 44.5926 101.91 46.1501C101.91 47.7075 103.173 48.9701 104.73 48.9701Z" fill="white" style="fill:white;fill-opacity:1;"/>
<path d="M62.9601 216.68C64.5176 216.68 65.7801 215.417 65.7801 213.86C65.7801 212.303 64.5176 211.04 62.9601 211.04C61.4027 211.04 60.1401 212.303 60.1401 213.86C60.1401 215.417 61.4027 216.68 62.9601 216.68Z" fill="white" style="fill:white;fill-opacity:1;"/>
<path d="M37.11 283.32C38.6675 283.32 39.93 282.057 39.93 280.5C39.93 278.942 38.6675 277.68 37.11 277.68C35.5526 277.68 34.29 278.942 34.29 280.5C34.29 282.057 35.5526 283.32 37.11 283.32Z" fill="white" style="fill:white;fill-opacity:1;"/>
<path d="M61.8801 411.08C63.4375 411.08 64.7001 409.817 64.7001 408.26C64.7001 406.703 63.4375 405.44 61.8801 405.44C60.3226 405.44 59.0601 406.703 59.0601 408.26C59.0601 409.817 60.3226 411.08 61.8801 411.08Z" fill="white" style="fill:white;fill-opacity:1;"/>
<path d="M41.6198 757.32C43.1772 757.32 44.4398 756.057 44.4398 754.5C44.4398 752.942 43.1772 751.68 41.6198 751.68C40.0624 751.68 38.7998 752.942 38.7998 754.5C38.7998 756.057 40.0624 757.32 41.6198 757.32Z" fill="white" style="fill:white;fill-opacity:1;"/>
<path d="M7.9201 885.91C9.47754 885.91 10.7401 884.647 10.7401 883.09C10.7401 881.533 9.47754 880.27 7.9201 880.27C6.36265 880.27 5.1001 881.533 5.1001 883.09C5.1001 884.647 6.36265 885.91 7.9201 885.91Z" fill="white" style="fill:white;fill-opacity:1;"/>
<path d="M67.1701 996.72C68.7275 996.72 69.9901 995.458 69.9901 993.9C69.9901 992.343 68.7275 991.08 67.1701 991.08C65.6127 991.08 64.3501 992.343 64.3501 993.9C64.3501 995.458 65.6127 996.72 67.1701 996.72Z" fill="white" style="fill:white;fill-opacity:1;"/>
<path d="M41.32 1063.36C42.8774 1063.36 44.14 1062.1 44.14 1060.54C44.14 1058.98 42.8774 1057.72 41.32 1057.72C39.7626 1057.72 38.5 1058.98 38.5 1060.54C38.5 1062.1 39.7626 1063.36 41.32 1063.36Z" fill="white" style="fill:white;fill-opacity:1;"/>
<path d="M66.09 1191.13C67.6475 1191.13 68.91 1189.87 68.91 1188.31C68.91 1186.75 67.6475 1185.49 66.09 1185.49C64.5326 1185.49 63.27 1186.75 63.27 1188.31C63.27 1189.87 64.5326 1191.13 66.09 1191.13Z" fill="white" style="fill:white;fill-opacity:1;"/>
<path d="M40.2702 1317.07C41.8276 1317.07 43.0902 1315.81 43.0902 1314.25C43.0902 1312.69 41.8276 1311.43 40.2702 1311.43C38.7128 1311.43 37.4502 1312.69 37.4502 1314.25C37.4502 1315.81 38.7128 1317.07 40.2702 1317.07Z" fill="white" style="fill:white;fill-opacity:1;"/>
<path d="M225.35 37.6101L244.32 42.7001L263.29 47.7701L249.4 61.6501L235.52 75.5401L230.44 56.5701L225.35 37.6101Z" stroke="white" style="stroke:white;stroke-opacity:1;" stroke-width="6" stroke-miterlimit="10"/>
<path d="M9.37988 452.88L28.3399 457.97L47.3099 463.04L33.4199 476.92L19.5399 490.81L14.4699 471.84L9.37988 452.88Z" stroke="white" style="stroke:white;stroke-opacity:1;" stroke-width="6" stroke-miterlimit="10"/>
<path d="M539.45 1449.94L558.42 1455.03L577.38 1460.11L563.49 1473.99L549.62 1487.88L544.54 1468.91L539.45 1449.94Z" stroke="white" style="stroke:white;stroke-opacity:1;" stroke-width="6" stroke-miterlimit="10"/>
<path d="M1083.35 311.9L1093.16 328.91L1102.99 345.91L1083.35 345.9L1063.72 345.91L1073.54 328.91L1083.35 311.9Z" stroke="white" style="stroke:white;stroke-opacity:1;" stroke-width="6" stroke-miterlimit="10"/>
</g>
<defs>
<clipPath id="clip0_2379_886">
<rect width="1125" height="1509" fill="white" style="fill:white;fill-opacity:1;"/>
</clipPath>
</defs>
</svg>
