<svg width="175" height="100" viewBox="0 0 175 100" fill="none" xmlns="http://www.w3.org/2000/svg">
<path d="M85.4391 77.7515C85.4391 77.7515 12.8889 92.6867 2.75737 53.2092C-7.37416 13.7316 43.2976 0.397673 71.0424 1.46042C98.7872 2.52317 177.204 8.38955 173.463 50.0068C169.722 91.624 99.85 80.4155 99.85 80.4155C99.85 80.4155 101.451 93.2252 109.457 98.0146C109.457 98.0146 88.6557 87.3446 85.4533 77.7374L85.4391 77.7515Z" fill="white" style="fill:white;fill-opacity:1;"/>
<path d="M109.443 99.4316C109.23 99.4316 109.004 99.3749 108.791 99.2757C107.955 98.8506 88.9816 89.0308 84.5464 79.3527C80.1962 80.1462 64.3683 82.711 47.8036 81.6908C21.7451 80.0754 5.69051 70.3548 1.36867 53.5634C-1.66371 41.7457 0.34843 31.3591 7.34839 22.687C21.7451 4.83287 53.3441 -0.636736 71.0849 0.0575922C98.9856 1.13451 148.595 6.12235 167.384 27.4765C173.123 33.9947 175.631 41.6181 174.866 50.1484C174.044 59.2739 170.076 66.6706 163.076 72.1119C154.248 78.9843 140.858 82.6968 123.301 83.1645C113.609 83.4195 105.249 82.5551 101.593 82.0875C102.358 85.6583 104.611 93.466 110.18 96.8101C110.832 97.2069 111.058 98.0429 110.69 98.7089C110.435 99.1765 109.953 99.4316 109.443 99.4316ZM85.4391 76.3345C86.0342 76.3345 86.5869 76.7171 86.7852 77.2981C88.5281 82.541 96.1799 88.294 102.245 92.1766C99.2548 86.792 98.4755 80.9539 98.433 80.5855C98.3763 80.1462 98.5321 79.707 98.858 79.3952C99.1839 79.0835 99.6232 78.9418 100.062 79.0127C100.473 79.0835 141.368 85.4033 161.348 69.8589C167.71 64.9136 171.309 58.1828 172.046 49.8792C172.74 42.1566 170.459 35.2416 165.259 29.3328C147.178 8.77213 98.433 3.92598 70.9857 2.8774C53.8401 2.22558 23.3179 7.42598 9.55891 24.4583C3.15408 32.3935 1.32613 41.9582 4.13178 52.8549C13.8099 90.5754 84.4472 76.5046 85.1557 76.3629C85.2549 76.3487 85.3541 76.3345 85.4391 76.3345Z" fill="black" style="fill:black;fill-opacity:1;"/>
</svg>
