<svg width="1352" height="423" viewBox="0 0 1352 423" fill="none" xmlns="http://www.w3.org/2000/svg">
<g clip-path="url(#clip0_2377_133)">
<path d="M511.03 85.1199C514.01 86.2399 516.98 87.3699 519.96 88.4899C516.69 102.48 512.16 113.93 506.46 122.82C500.75 131.72 492.37 139.58 481.34 146.33C470.31 153.09 457.59 157.91 443.2 160.73C435.53 162.23 426.22 163.6 415.26 164.78V371.86C438.95 361.26 457.83 349.36 471.86 336.59C485.89 323.82 498.92 306.82 510.92 285.66C513.93 286.27 516.95 286.87 519.96 287.46C513.07 307.28 505.09 323.71 496.02 336.72C481.47 357.73 462.68 375.85 439.68 390.75C416.67 405.64 390.06 415.72 359.87 420.36C330.45 424.87 302.91 423.42 277.25 416.09C262.37 411.81 248.75 404.84 236.4 395.26C224.04 385.68 213.9 373.59 206 359.14C198.1 344.69 194.15 328.03 194.15 309.31C194.14 290.44 198.43 272.29 207.04 254.72C215.65 237.14 228.31 220.07 245.03 203.13C255.67 192.51 270.68 180.42 290.04 166.44C280.22 167.03 270.41 167.52 260.59 167.9C249.67 168.29 237.6 171.2 224.35 176.52C211.1 181.84 200.78 188.31 193.37 196.18C185.97 204.05 179.54 215.57 174.08 230.79C171.07 229.28 168.05 227.76 165.04 226.23C170.36 206.83 177.25 191.7 185.69 180.73C196.95 166.15 211.81 154.58 230.26 145.61C248.71 136.64 269.75 131 293.36 128.4C309.79 126.58 338.79 126.17 380.39 125.33C422 124.43 450.6 121.54 466.24 118.39C476.72 116.25 484.73 113.16 490.28 109.17C495.84 105.19 502.76 97.1799 511.04 85.1099L511.03 85.1199ZM316.44 165.45C312.29 165.63 308.14 165.8 304 165.94C283.03 184.12 267.62 201.21 257.76 217.76C244.46 240.05 237.81 262.24 237.81 284.67C237.81 322.86 255.81 353.25 291.79 373.59C303.22 364.01 310.18 356.36 312.69 350.86C315.18 345.35 316.45 334.61 316.44 318.61V165.45ZM404.46 164.88C389.59 165.74 376.44 166 365.02 165.74V288.38C365.03 302.73 364.35 311.97 363.02 316.07C361.68 320.18 358.6 325.06 353.75 330.71C345 340.47 327.48 356.53 301.21 377.91C314.34 381.98 324.98 384.32 333.12 385.12C347.19 386.46 360.73 386.05 373.71 383.96C380.57 382.85 390.85 380.41 404.45 376.49V164.9L404.46 164.88Z" fill="#184F6A" style="fill:#184F6A;fill:color(display-p3 0.0941 0.3098 0.4157);fill-opacity:1;"/>
<path d="M679.9 163.66C679.9 214.78 679.9 265.9 679.9 317.02C656.4 330.95 639.37 341.85 628.89 349.68C620.89 355.55 613.22 362.29 605.85 369.91C583.12 363.26 564.31 359.29 549.44 358.03C538.17 357.06 525.38 357.88 511.13 360.45C510.35 359.25 509.57 358.06 508.79 356.86C514.73 351.19 518.48 346.39 520.05 342.49C522.23 337.36 523.34 329.25 523.34 318.18V205.62C552.02 190.91 576.55 173.41 596.93 153.44C619.19 161.06 646.85 164.41 679.91 163.64L679.9 163.66ZM570.75 322.99C591.17 325.56 611.6 328.04 632.02 330.49V200.29C612.78 197.01 599.16 195.04 591.17 194.43C585.53 193.96 578.72 194.04 570.75 194.64C570.75 237.42 570.75 280.21 570.75 322.99Z" fill="#184F6A" style="fill:#184F6A;fill:color(display-p3 0.0941 0.3098 0.4157);fill-opacity:1;"/>
<path d="M845.37 96.73C861.38 100.49 877.38 104.41 893.39 108.51C886.93 121.6 880.46 134.71 874 147.86C860.47 144.67 846.94 141.61 833.41 138.64C824.95 155.92 816.49 173.25 808.03 190.6C816.03 202.39 824.03 214.22 832.03 226.08C842.62 240.86 851.74 251.9 859.33 259.17C866.92 266.44 873.05 270.82 877.7 272.3C880.34 273.19 882.74 273.44 884.91 273.04C888.02 272.47 892.44 269.62 898.18 264.5C899.86 266.22 901.55 267.94 903.23 269.66C888.32 283.84 873.42 298.2 858.51 312.69C847.94 311.61 838.6 307.81 830.51 301.25C817.57 290.88 802.14 270.3 784.22 239.55C768.14 272.65 752.06 305.85 735.98 339.12C719.51 335.61 703.04 332.18 686.57 328.77C693.32 314.94 700.06 301.12 706.8 287.3C720.46 290.38 734.13 293.5 747.8 296.66C758.12 275.38 768.44 254.13 778.76 232.92C763.65 206.3 747.68 185.68 730.86 171.02C722.29 163.38 714.72 160.35 708.12 161.9C703.55 162.97 697.82 166.93 690.9 173.76C688.99 172.06 687.07 170.36 685.15 168.66C702.09 152.58 719.03 136.53 735.97 120.55C749.04 123.55 759.27 128.44 766.68 135.21C776.61 144.22 788.59 160.42 802.66 183.87C816.89 154.72 831.13 125.66 845.35 96.73H845.37Z" fill="#184F6A" style="fill:#184F6A;fill:color(display-p3 0.0941 0.3098 0.4157);fill-opacity:1;"/>
<path d="M960.37 6.65996C970.31 5.24996 980.24 3.92996 990.19 2.70996C979.39 18.8 968.59 35 957.8 51.31C954.67 51.76 951.54 52.22 948.41 52.69C952.4 37.33 956.39 21.99 960.38 6.65996H960.37ZM942.64 79.4C956.53 87.36 970.42 95.49 984.31 103.81C978.13 109.82 971.94 115.87 965.76 121.96V233.5C965.76 245.25 966.88 252.75 969.15 256C971.41 259.25 973.75 260.7 976.15 260.39C977.85 260.17 979.4 259.62 980.81 258.76C982.76 257.55 986.91 254.29 993.11 249.02C995.03 250.91 996.94 252.8 998.86 254.69C982.08 268.54 965.29 282.68 948.51 297.08C935.95 291.17 927.84 285.16 924.24 278.84C920.62 272.53 918.81 260.76 918.82 243.55V129.14C912.96 124.89 907.08 120.66 901.22 116.46C915.03 103.96 928.84 91.6 942.64 79.41V79.4Z" fill="#184F6A" style="fill:#184F6A;fill:color(display-p3 0.0941 0.3098 0.4157);fill-opacity:1;"/>
<path d="M1073.01 65.2099C1093.32 74.1599 1113.62 83.6299 1133.93 93.6999C1125.6 104.36 1117.27 115.12 1108.93 125.97C1093.63 118.67 1078.33 111.68 1063.04 104.99V235.8C1078.44 240.77 1093.84 246.03 1109.24 251.62C1117.43 246.22 1125.61 240.92 1133.8 235.71C1134.63 238.63 1135.45 241.56 1136.28 244.48C1116.91 256.95 1097.55 269.96 1078.19 283.46C1063.16 276.9 1050.36 272.45 1039.74 269.88C1029.11 267.32 1016.08 265.53 1000.6 264.71V259.79C1006.07 255.88 1009.67 251.94 1011.4 247.92C1013.91 242.32 1015.14 233.86 1015.15 222.51V105.85C1034.68 96.0099 1053.95 82.4399 1073.01 65.1899V65.2099Z" fill="#184F6A" style="fill:#184F6A;fill:color(display-p3 0.0941 0.3098 0.4157);fill-opacity:1;"/>
<path d="M180.53 239.27L251.3 229.93C255.23 229.42 259.04 231.04 260.93 234.03C262.81 237.02 262.39 240.79 259.86 243.54L154.72 357.65C144.09 369.18 128.95 376.83 112.44 379.01L65.99 385.14C62.05 385.66 58.24 384.03 56.36 381.04C54.48 378.04 54.9 374.27 57.43 371.52L149.62 271.47C152.15 268.72 152.58 264.95 150.69 261.96C148.81 258.96 144.99 257.34 141.06 257.86L101.91 263.02C85.4 265.2 68.79 261.74 55.53 253.35L3.84999 220.66C0.689991 218.66 -0.700008 215.13 0.349992 211.75C1.38999 208.37 4.64999 205.81 8.58999 205.29L55.04 199.16C71.56 196.98 88.17 200.45 101.43 208.84L134.21 229.61C147.45 237.99 164.05 241.45 180.54 239.28L180.53 239.27Z" fill="#CEDBEA" style="fill:#CEDBEA;fill:color(display-p3 0.8078 0.8588 0.9176);fill-opacity:1;"/>
<path d="M345.54 236.26C343.65 233.26 339.82 231.64 335.87 232.17L296.81 237.32C280.29 239.5 263.68 236.03 250.43 227.65L198.75 194.95C195.59 192.95 194.21 189.42 195.25 186.04C196.29 182.66 199.56 180.1 203.49 179.58L249.94 173.45C266.46 171.27 283.07 174.74 296.32 183.12L329.1 203.89C342.35 212.28 358.97 215.74 375.48 213.57L446.15 204.25C450.08 203.73 453.89 205.36 455.78 208.35C457.66 211.35 457.24 215.11 454.71 217.86C453.4 219.28 453.18 221.22 454.16 222.77C455.14 224.32 457.1 225.16 459.13 224.89L533.21 215.12C537.14 214.6 540.95 216.23 542.84 219.22C544.72 222.21 544.3 225.98 541.77 228.73L460.09 317.39C449.48 328.92 434.35 336.57 417.85 338.75L260.84 359.46C256.9 359.98 253.09 358.35 251.2 355.36C249.32 352.36 249.74 348.6 252.27 345.85L344.46 245.8C347 243.05 347.43 239.27 345.54 236.26ZM421.9 253.44L364.5 315.76C363.2 317.17 362.98 319.11 363.95 320.65C364.92 322.19 366.88 323.03 368.9 322.76C370.17 322.59 371.34 322 372.16 321.11L429.54 258.79C430.84 257.38 431.06 255.45 430.1 253.91C429.13 252.37 427.17 251.54 425.15 251.81C423.88 251.98 422.71 252.56 421.89 253.44H421.9Z" fill="#CEDBEA" style="fill:#CEDBEA;fill:color(display-p3 0.8078 0.8588 0.9176);fill-opacity:1;"/>
<path d="M693.07 245.75L629.25 254.17C612.74 256.35 597.59 264 586.97 275.54L560.7 304.1C550.08 315.64 534.93 323.3 518.42 325.47L471.96 331.6C468.03 332.12 464.22 330.49 462.33 327.5C460.45 324.51 460.87 320.74 463.4 317.99L504.84 273C515.46 261.47 530.59 253.83 547.09 251.65L586.24 246.49C590.18 245.97 593.44 243.41 594.48 240.03C595.52 236.65 594.13 233.12 590.98 231.12L476 158.4C472.84 156.4 471.45 152.87 472.5 149.49C473.54 146.11 476.81 143.55 480.74 143.03L527.18 136.9C543.69 134.72 560.3 138.18 573.55 146.56L646.89 192.95C651.02 195.56 656.88 194.79 660.19 191.2L718.99 127.38C729.62 115.85 744.76 108.2 761.27 106.02L807.68 99.9C811.62 99.38 815.43 101.01 817.31 104C819.2 107 818.77 110.77 816.24 113.51L724.05 213.56C721.52 216.31 721.09 220.08 722.97 223.07C724.85 226.07 728.67 227.69 732.61 227.17L771.76 222.01C788.27 219.83 804.88 223.3 818.14 231.68L869.83 264.38C872.99 266.38 874.37 269.91 873.33 273.29C872.29 276.67 869.03 279.23 865.09 279.75L818.64 285.88C802.13 288.06 785.51 284.6 772.26 276.21L739.48 255.44C726.22 247.04 709.6 243.57 693.07 245.75Z" fill="#CEDBEA" style="fill:#CEDBEA;fill:color(display-p3 0.8078 0.8588 0.9176);fill-opacity:1;"/>
<path d="M942.62 138.74L1013.27 129.42C1017.2 128.9 1021.01 130.53 1022.9 133.52C1024.79 136.51 1024.36 140.28 1021.83 143.03L916.7 257.14C906.07 268.67 890.93 276.32 874.42 278.5L828.01 284.62C824.08 285.14 820.26 283.52 818.38 280.52C816.5 277.52 816.92 273.76 819.45 271.01L911.64 170.96C914.17 168.21 914.6 164.44 912.71 161.45C910.83 158.45 907.01 156.83 903.07 157.35L863.95 162.51C847.44 164.69 830.83 161.22 817.57 152.83L765.89 120.13C762.73 118.13 761.35 114.6 762.39 111.22C763.43 107.84 766.69 105.28 770.63 104.76L817.08 98.6299C833.6 96.4499 850.21 99.9199 863.46 108.3L896.24 129.07C909.5 137.45 926.11 140.91 942.62 138.73V138.74Z" fill="#CEDBEA" style="fill:#CEDBEA;fill:color(display-p3 0.8078 0.8588 0.9176);fill-opacity:1;"/>
<path d="M1175.8 238.75L989.84 263.28C985.91 263.8 982.1 262.17 980.21 259.18C978.32 256.19 978.75 252.42 981.28 249.67L1062.92 161.02C1073.55 149.48 1088.69 141.83 1105.21 139.65L1262.09 118.95C1266.03 118.43 1269.84 120.06 1271.72 123.05C1273.6 126.05 1273.18 129.81 1270.65 132.56L1236.72 169.38C1226.09 180.91 1210.95 188.56 1194.44 190.74L1147.98 196.87C1144.04 197.39 1140.23 195.76 1138.34 192.77C1136.46 189.77 1136.88 186.01 1139.41 183.26L1158.13 162.95C1159.42 161.55 1159.64 159.63 1158.67 158.1C1157.71 156.57 1155.77 155.74 1153.76 156.01C1152.5 156.18 1151.34 156.76 1150.53 157.64L1101.33 211.06C1098.8 213.81 1098.38 217.57 1100.26 220.57C1102.14 223.57 1105.95 225.19 1109.89 224.67L1237.32 207.86C1253.83 205.68 1270.44 209.15 1283.7 217.54L1347.65 258C1350.81 260 1352.2 263.53 1351.16 266.91C1350.12 270.29 1346.85 272.85 1342.92 273.37L1298.55 279.22C1280.8 281.57 1262.99 277.39 1249.36 267.68L1224.96 250.3C1211.34 240.59 1193.54 236.41 1175.8 238.75Z" fill="#CEDBEA" style="fill:#CEDBEA;fill:color(display-p3 0.8078 0.8588 0.9176);fill-opacity:1;"/>
<path d="M488.77 83.0398C491.75 84.1598 494.72 85.2898 497.7 86.4098C494.43 100.4 489.9 111.85 484.2 120.74C478.49 129.64 470.11 137.5 459.08 144.25C448.05 151.01 435.33 155.83 420.94 158.65C413.27 160.15 403.96 161.52 393 162.7V369.78C416.69 359.18 435.57 347.28 449.6 334.51C463.63 321.74 476.66 304.74 488.66 283.58C491.67 284.19 494.69 284.79 497.7 285.38C490.81 305.2 482.83 321.63 473.76 334.64C459.21 355.65 440.42 373.77 417.42 388.67C394.41 403.56 367.8 413.64 337.61 418.28C308.19 422.79 280.65 421.34 254.99 414.01C240.11 409.73 226.49 402.76 214.14 393.18C201.78 383.6 191.64 371.51 183.74 357.06C175.84 342.61 171.89 325.95 171.89 307.23C171.88 288.36 176.17 270.21 184.78 252.64C193.39 235.06 206.05 217.99 222.77 201.05C233.41 190.43 248.42 178.34 267.78 164.36C257.96 164.95 248.15 165.44 238.33 165.82C227.41 166.21 215.34 169.12 202.09 174.44C188.84 179.76 178.52 186.23 171.11 194.1C163.71 201.97 157.28 213.49 151.82 228.71C148.81 227.2 145.79 225.68 142.78 224.15C148.1 204.75 154.99 189.62 163.43 178.65C174.69 164.07 189.55 152.5 208 143.53C226.45 134.56 247.49 128.92 271.1 126.32C287.53 124.5 316.53 124.09 358.13 123.25C399.74 122.35 428.34 119.46 443.98 116.31C454.46 114.17 462.47 111.08 468.02 107.09C473.58 103.11 480.5 95.0998 488.78 83.0298L488.77 83.0398ZM294.17 163.37C290.02 163.55 285.87 163.72 281.73 163.86C260.76 182.04 245.35 199.13 235.49 215.68C222.19 237.97 215.54 260.16 215.54 282.59C215.54 320.78 233.54 351.17 269.52 371.51C280.95 361.93 287.91 354.28 290.42 348.78C292.91 343.27 294.18 332.53 294.17 316.53V163.37ZM382.2 162.8C367.33 163.66 354.18 163.92 342.76 163.66V286.3C342.77 300.65 342.09 309.89 340.76 313.99C339.42 318.1 336.34 322.98 331.49 328.63C322.74 338.39 305.22 354.45 278.95 375.83C292.08 379.9 302.72 382.24 310.86 383.04C324.93 384.38 338.47 383.97 351.45 381.88C358.31 380.77 368.59 378.33 382.19 374.41V162.82L382.2 162.8Z" fill="#CEFE51" stroke="#184F6A" style="fill:#CEFE51;fill:color(display-p3 0.8078 0.9961 0.3176);fill-opacity:1;stroke:#184F6A;stroke:color(display-p3 0.0941 0.3098 0.4157);stroke-opacity:1;" stroke-miterlimit="10"/>
<path d="M657.64 161.58C657.64 212.7 657.64 263.82 657.64 314.94C634.14 328.87 617.11 339.77 606.63 347.6C598.63 353.47 590.96 360.21 583.59 367.83C560.86 361.18 542.05 357.21 527.18 355.95C515.91 354.98 503.12 355.8 488.87 358.37C488.09 357.17 487.31 355.98 486.53 354.78C492.47 349.11 496.22 344.31 497.79 340.41C499.97 335.28 501.08 327.17 501.08 316.1V203.54C529.76 188.83 554.29 171.33 574.67 151.36C596.93 158.98 624.59 162.33 657.65 161.56L657.64 161.58ZM548.49 320.91C568.91 323.48 589.34 325.96 609.76 328.41V198.21C590.52 194.93 576.9 192.96 568.91 192.35C563.27 191.88 556.46 191.96 548.49 192.56C548.49 235.34 548.49 278.13 548.49 320.91Z" fill="#CEFE51" stroke="#184F6A" style="fill:#CEFE51;fill:color(display-p3 0.8078 0.9961 0.3176);fill-opacity:1;stroke:#184F6A;stroke:color(display-p3 0.0941 0.3098 0.4157);stroke-opacity:1;" stroke-miterlimit="10"/>
<path d="M823.11 94.6499C839.12 98.4099 855.12 102.33 871.13 106.43C864.67 119.52 858.2 132.63 851.74 145.78C838.21 142.59 824.68 139.53 811.15 136.56C802.69 153.84 794.23 171.17 785.77 188.52C793.77 200.31 801.77 212.14 809.77 224C820.36 238.78 829.48 249.82 837.07 257.09C844.66 264.36 850.79 268.74 855.44 270.22C858.08 271.11 860.48 271.36 862.65 270.96C865.76 270.39 870.18 267.54 875.92 262.42C877.6 264.14 879.29 265.86 880.97 267.58C866.06 281.76 851.16 296.12 836.25 310.61C825.68 309.53 816.34 305.73 808.25 299.17C795.31 288.8 779.88 268.22 761.96 237.47C745.88 270.57 729.8 303.77 713.72 337.04C697.25 333.53 680.78 330.1 664.31 326.69C671.06 312.86 677.8 299.04 684.54 285.22C698.2 288.3 711.87 291.42 725.54 294.58C735.86 273.3 746.18 252.05 756.5 230.84C741.39 204.22 725.42 183.6 708.6 168.94C700.03 161.3 692.46 158.27 685.86 159.82C681.29 160.89 675.56 164.85 668.64 171.68C666.73 169.98 664.81 168.28 662.89 166.58C679.83 150.5 696.77 134.45 713.71 118.47C726.78 121.47 737.01 126.36 744.42 133.13C754.35 142.14 766.33 158.34 780.4 181.79C794.63 152.64 808.87 123.58 823.09 94.6499H823.11Z" fill="#CEFE51" stroke="#184F6A" style="fill:#CEFE51;fill:color(display-p3 0.8078 0.9961 0.3176);fill-opacity:1;stroke:#184F6A;stroke:color(display-p3 0.0941 0.3098 0.4157);stroke-opacity:1;" stroke-miterlimit="10"/>
<path d="M938.11 4.57988C948.05 3.16988 957.98 1.84988 967.93 0.629883C957.13 16.7199 946.33 32.9199 935.54 49.2299C932.41 49.6799 929.28 50.1399 926.15 50.6099C930.14 35.2499 934.13 19.9099 938.12 4.57988H938.11ZM920.38 77.3099C934.27 85.2699 948.16 93.3999 962.05 101.72C955.87 107.73 949.68 113.78 943.5 119.87V231.41C943.5 243.16 944.62 250.66 946.89 253.91C949.15 257.16 951.49 258.61 953.89 258.3C955.59 258.08 957.14 257.53 958.55 256.67C960.5 255.46 964.65 252.2 970.85 246.93C972.77 248.82 974.68 250.71 976.6 252.6C959.82 266.45 943.03 280.59 926.25 294.99C913.69 289.08 905.58 283.07 901.98 276.75C898.36 270.44 896.55 258.67 896.56 241.46V127.05C890.7 122.8 884.82 118.57 878.96 114.37C892.77 101.87 906.58 89.5099 920.38 77.3199V77.3099Z" fill="#CEFE51" stroke="#184F6A" style="fill:#CEFE51;fill:color(display-p3 0.8078 0.9961 0.3176);fill-opacity:1;stroke:#184F6A;stroke:color(display-p3 0.0941 0.3098 0.4157);stroke-opacity:1;" stroke-miterlimit="10"/>
<path d="M1050.75 63.1299C1071.06 72.0799 1091.36 81.5499 1111.67 91.6199C1103.34 102.28 1095.01 113.04 1086.67 123.89C1071.37 116.59 1056.07 109.6 1040.78 102.91V233.72C1056.18 238.69 1071.58 243.95 1086.98 249.54C1095.17 244.14 1103.35 238.84 1111.54 233.63C1112.37 236.55 1113.19 239.48 1114.02 242.4C1094.65 254.87 1075.29 267.88 1055.93 281.38C1040.9 274.82 1028.1 270.37 1017.48 267.8C1006.85 265.24 993.82 263.45 978.34 262.63V257.71C983.81 253.8 987.41 249.86 989.14 245.84C991.65 240.24 992.88 231.78 992.89 220.43V103.77C1012.42 93.9299 1031.69 80.3599 1050.75 63.1099V63.1299Z" fill="#CEFE51" stroke="#184F6A" style="fill:#CEFE51;fill:color(display-p3 0.8078 0.9961 0.3176);fill-opacity:1;stroke:#184F6A;stroke:color(display-p3 0.0941 0.3098 0.4157);stroke-opacity:1;" stroke-miterlimit="10"/>
<path d="M239 133.35C210.45 136.57 207.84 139.18 204.62 167.73C201.4 139.18 198.79 136.57 170.24 133.35C198.79 130.13 201.4 127.52 204.62 98.9697C207.84 127.52 210.45 130.13 239 133.35Z" fill="white" style="fill:white;fill-opacity:1;"/>
<path d="M1102.82 269.52C1074.27 272.74 1071.66 275.35 1068.44 303.9C1065.22 275.35 1062.61 272.74 1034.06 269.52C1062.61 266.3 1065.22 263.69 1068.44 235.14C1071.66 263.69 1074.27 266.3 1102.82 269.52Z" fill="white" style="fill:white;fill-opacity:1;"/>
<path d="M925.04 96.7301C896.49 99.9501 893.88 102.56 890.66 131.11C887.44 102.56 884.83 99.9501 856.28 96.7301C884.83 93.5101 887.44 90.9001 890.66 62.3501C893.88 90.9001 896.49 93.5101 925.04 96.7301Z" fill="white" style="fill:white;fill-opacity:1;"/>
<path d="M826.43 229.31C797.88 232.53 795.27 235.14 792.05 263.69C788.83 235.14 786.22 232.53 757.67 229.31C786.22 226.09 788.83 223.48 792.05 194.93C795.27 223.48 797.88 226.09 826.43 229.31Z" fill="white" style="fill:white;fill-opacity:1;"/>
<path d="M582.87 281.39C554.32 284.61 551.71 287.22 548.49 315.77C545.27 287.22 542.66 284.61 514.11 281.39C542.66 278.17 545.27 275.56 548.49 247.01C551.71 275.56 554.32 278.17 582.87 281.39Z" fill="white" style="fill:white;fill-opacity:1;"/>
</g>
<defs>
<clipPath id="clip0_2377_133">
<rect width="1351.5" height="422.93" fill="white" style="fill:white;fill-opacity:1;"/>
</clipPath>
</defs>
</svg>
