<svg width="136" height="76" viewBox="0 0 136 76" fill="none" xmlns="http://www.w3.org/2000/svg">
<path d="M95.3199 1.01001H40.08L1.00995 22.5V52.9L40.08 74.4H95.3199L134.39 52.9V22.5L95.3199 1.01001Z" fill="#FFF5B2" style="fill:#FFF5B2;fill:color(display-p3 1.0000 0.9608 0.6980);fill-opacity:1;"/>
<path d="M95.3199 75.4H40.0699C39.8999 75.4 39.74 75.36 39.59 75.28L0.519958 53.78C0.199959 53.6 0 53.27 0 52.9V22.5C0 22.14 0.199959 21.8 0.519958 21.62L39.59 0.12001C39.74 0.0400104 39.8999 0 40.0699 0H95.3199C95.4899 0 95.65 0.0400104 95.8 0.12001L134.87 21.62C135.19 21.8 135.39 22.13 135.39 22.5V52.9C135.39 53.26 135.19 53.6 134.87 53.78L95.8 75.28C95.65 75.36 95.4899 75.4 95.3199 75.4ZM40.33 73.4H95.06L133.38 52.31V23.09L95.06 2H40.33L2.00995 23.09V52.31L40.33 73.4Z" fill="black" style="fill:black;fill-opacity:1;"/>
</svg>
