<svg width="155" height="72" viewBox="0 0 155 72" fill="none" xmlns="http://www.w3.org/2000/svg">
<path d="M68.4675 51.4881C68.4675 51.4881 57.1775 52.6181 54.6275 51.3481C52.0775 50.0781 52.9375 48.6681 44.7475 48.3881C36.5575 48.1081 18.3475 54.1781 11.1475 48.6681C3.94751 43.1581 2.25751 39.4881 2.25751 36.6681C2.25751 33.8481 -0.992489 23.9581 2.96751 17.0481C6.91751 10.1281 19.2075 3.77808 25.8375 2.08808C32.4775 0.398082 68.7575 1.5281 76.0975 2.2281C83.4375 2.9281 119.208 -2.05192 129.458 4.20808C150.777 17.2181 154.728 32.2981 153.178 36.1181C151.628 39.9381 149.788 57.5781 138.918 54.1881C128.048 50.7981 114.778 48.6781 104.328 47.8381C93.8775 46.9881 76.3775 48.8281 76.0875 50.2381C75.7975 51.6481 78.3475 62.0981 75.5275 64.4981C72.7075 66.8981 67.6175 71.1381 65.3675 70.5681C63.1175 69.9981 67.0575 67.7481 68.0475 65.2081C69.0375 62.6681 71.4375 53.4881 68.4675 51.5181V51.4881Z" fill="#B4CDE9" style="fill:#B4CDE9;fill:color(display-p3 0.7059 0.8039 0.9137);fill-opacity:1;"/>
<path d="M65.8075 71.5981C65.5675 71.5981 65.3375 71.5681 65.1175 71.5181C64.1875 71.2881 63.8575 70.7781 63.7375 70.3881C63.4275 69.3781 64.2275 68.4981 65.2375 67.3881C65.9575 66.5881 66.7775 65.6881 67.1075 64.8281C68.4275 61.4281 69.7575 54.2881 68.1475 52.5281C65.5075 52.7781 56.6875 53.4981 54.1875 52.2481C53.4575 51.8781 52.9675 51.4981 52.5375 51.1681C51.4475 50.3181 50.5075 49.5881 44.7175 49.3881C42.1475 49.2981 38.3775 49.8881 34.3975 50.5081C25.6475 51.8781 15.7275 53.4281 10.5475 49.4681C4.20751 44.6281 1.25751 40.5581 1.25751 36.6781C1.25751 36.0981 1.07751 35.0481 0.867509 33.8281C0.127509 29.4681 -1.11249 22.1681 2.08751 16.5581C6.15751 9.43811 18.5575 2.90811 25.5775 1.11811C32.5175 -0.651892 69.5475 0.598093 76.1775 1.22809C78.2275 1.42809 82.8875 1.13812 88.2875 0.81812C102.698 -0.0518798 122.427 -1.25191 129.967 3.34809C152.688 17.2081 155.628 32.7081 154.088 36.4881C153.828 37.1181 153.538 38.2781 153.198 39.6281C151.958 44.5381 150.077 51.9581 145.298 54.6381C143.327 55.7381 141.077 55.9081 138.607 55.1381C129.038 52.1581 116.188 49.7981 104.238 48.8281C94.5175 48.0381 79.4575 49.6281 77.0575 50.6981C77.0775 51.1881 77.2075 52.1381 77.3175 52.9981C78.0075 58.3481 78.4275 63.3181 76.1675 65.2481C71.6875 69.0581 68.1675 71.6081 65.7975 71.6081L65.8075 71.5981ZM68.4675 50.4881C68.6675 50.4881 68.8575 50.5481 69.0175 50.6581C73.2375 53.4681 69.0175 65.4281 68.9675 65.5481C68.4975 66.7581 67.5075 67.8481 66.7075 68.7281C66.4575 68.9981 66.1575 69.3381 65.9375 69.6081C67.3475 69.5381 70.3475 67.5581 74.8675 63.7181C76.4975 62.3381 75.7075 56.1981 75.3275 53.2481C75.0975 51.4481 74.9875 50.5481 75.0975 50.0281C75.2375 49.3381 75.4675 48.1881 86.2875 47.1781C92.8575 46.5681 99.6275 46.4381 104.388 46.8281C116.478 47.8081 129.488 50.1981 139.188 53.2281C141.137 53.8381 142.818 53.7281 144.308 52.8881C148.338 50.6281 150.158 43.4281 151.248 39.1281C151.618 37.6481 151.918 36.4881 152.228 35.7281C153.758 31.9781 149.068 17.3481 128.918 5.05811C121.908 0.77811 101.738 2.00812 88.3975 2.81812C82.6975 3.16812 78.1875 3.43809 75.9775 3.22809C68.4275 2.49809 32.3775 1.44811 26.0575 3.05811C19.2275 4.79811 7.45751 11.1581 3.80751 17.5481C0.957511 22.5381 2.12751 29.3981 2.81751 33.4881C3.04751 34.8481 3.22751 35.9281 3.22751 36.6681C3.22751 38.6881 4.10751 42.0481 11.7275 47.8781C16.2375 51.3281 26.1175 49.7781 34.0575 48.5381C38.1375 47.8981 41.9775 47.2981 44.7575 47.3881C51.1875 47.6081 52.4275 48.5681 53.7375 49.5881C54.1275 49.8881 54.4975 50.1781 55.0575 50.4581C56.7175 51.2881 64.0875 50.9281 68.3475 50.4981C68.3775 50.4981 68.4175 50.4981 68.4475 50.4981L68.4675 50.4881Z" fill="black" style="fill:black;fill-opacity:1;"/>
</svg>
