<svg width="231" height="170" viewBox="0 0 231 170" fill="none" xmlns="http://www.w3.org/2000/svg">
<path d="M8.34812 72.7107C8.34812 72.7107 17.5401 57.3593 20.8265 47.9034C24.1129 38.4476 26.0147 31.5811 26.0147 31.5811C26.0147 31.5811 30.252 28.6448 42.9639 23.4198C55.6758 18.1948 62.5155 13.964 65.3348 12.6461C68.1541 11.3283 78.9977 14.6113 90.2916 14.935C101.585 15.2586 108.425 11.6751 108.425 11.6751C108.425 11.6751 117.133 10.0336 128.444 11.9988C139.755 13.964 148.229 12.3224 148.229 12.3224C148.229 12.3224 155.302 8.41524 167.314 11.6751C179.325 14.9349 189.685 18.5185 189.685 18.5185C189.685 18.5185 195.574 26.6797 202.163 29.9395C208.753 33.1994 217.711 37.7771 217.711 37.7771C217.711 37.7771 218.178 45.9383 221.948 58.0067C225.718 70.0751 225.952 72.6876 225.952 72.6876C225.952 72.6876 221.715 84.1086 221.715 102.073C221.715 102.073 215.359 115.135 213.474 134.394C213.474 134.394 201.929 136.682 189.918 144.844C189.918 144.844 159.306 146.809 152.466 155.941C152.466 155.941 122.555 162.461 108.659 160.842C108.659 160.842 78.5139 149.098 68.6213 154.323C68.6213 154.323 41.0621 145.514 30.4689 139.965C30.4689 139.965 14.921 113.517 8.0979 107.321C8.0979 107.321 11.6346 86.7674 8.33148 72.7338L8.34812 72.7107Z" fill="white" style="fill:white;fill-opacity:1;"/>
<path d="M107.341 22.0329C106.423 22.0329 105.673 20.9925 105.673 19.721V2.31195C105.673 1.04038 106.423 0 107.341 0C108.258 0 109.009 1.04038 109.009 2.31195V19.721C109.009 20.9925 108.258 22.0329 107.341 22.0329Z" fill="black" style="fill:black;fill-opacity:1;"/>
<path d="M145.01 22.0328C144.759 22.0328 144.509 21.9635 144.259 21.7785C143.441 21.2005 143.108 19.8133 143.508 18.6805L149.163 3.00544C149.58 1.87258 150.581 1.41016 151.399 1.96503C152.216 2.54302 152.55 3.93025 152.15 5.06311L146.494 20.7382C146.194 21.5473 145.61 22.0097 144.993 22.0097L145.01 22.0328Z" fill="black" style="fill:black;fill-opacity:1;"/>
<path d="M185.214 31.6276C184.98 31.6276 184.73 31.5582 184.497 31.3963C183.662 30.8415 183.312 29.4775 183.712 28.3215L189.985 10.0339C190.385 8.87793 191.37 8.39242 192.204 8.94729C193.038 9.50216 193.388 10.8662 192.988 12.0222L186.715 30.3097C186.432 31.142 185.831 31.6276 185.214 31.6276Z" fill="black" style="fill:black;fill-opacity:1;"/>
<path d="M207.818 46.4248C207.201 46.4248 206.601 45.9392 206.317 45.1069C205.917 43.951 206.267 42.5638 207.101 42.0321L222.799 31.5821C223.633 31.0272 224.634 31.5126 225.018 32.6686C225.418 33.8246 225.068 35.2118 224.234 35.7436L208.536 46.1936C208.302 46.3554 208.052 46.4248 207.818 46.4248Z" fill="black" style="fill:black;fill-opacity:1;"/>
<path d="M229.172 76.0156C229.172 76.0156 229.122 76.0156 229.088 76.0156L216.527 75.1371C215.609 75.0677 214.892 73.9811 214.942 72.7095C214.992 71.4379 215.792 70.4438 216.693 70.5132L229.255 71.3917C230.173 71.461 230.89 72.5477 230.84 73.8193C230.79 75.0446 230.056 76.0156 229.172 76.0156Z" fill="black" style="fill:black;fill-opacity:1;"/>
<path d="M229.172 106.466C229.172 106.466 229.038 106.466 228.972 106.466L213.274 103.853C212.356 103.691 211.705 102.559 211.822 101.287C211.939 100.015 212.756 99.1138 213.674 99.2756L229.372 101.888C230.289 102.05 230.94 103.183 230.823 104.454C230.723 105.633 230.006 106.489 229.172 106.489V106.466Z" fill="black" style="fill:black;fill-opacity:1;"/>
<path d="M221.014 142.162C220.68 142.162 220.33 142.023 220.046 141.723L208.736 130.417C207.985 129.678 207.818 128.221 208.352 127.181C208.886 126.14 209.937 125.909 210.688 126.649L221.998 137.954C222.749 138.694 222.916 140.151 222.382 141.191C222.048 141.815 221.548 142.139 221.031 142.139L221.014 142.162Z" fill="black" style="fill:black;fill-opacity:1;"/>
<path d="M194.005 154.346C193.472 154.346 192.938 153.976 192.621 153.306L183.829 135.018C183.312 133.955 183.529 132.521 184.296 131.805C185.064 131.088 186.098 131.389 186.615 132.452L195.407 150.74C195.924 151.803 195.707 153.237 194.94 153.953C194.656 154.208 194.339 154.346 194.022 154.346H194.005Z" fill="black" style="fill:black;fill-opacity:1;"/>
<path d="M156.32 166.53C155.686 166.53 155.069 166.021 154.802 165.166L149.147 147.757C148.763 146.601 149.147 145.213 149.981 144.705C150.815 144.196 151.799 144.705 152.183 145.861L157.838 163.27C158.222 164.426 157.838 165.813 157.004 166.322C156.787 166.46 156.554 166.53 156.32 166.53Z" fill="black" style="fill:black;fill-opacity:1;"/>
<path d="M110.477 169.142C109.626 169.142 108.909 168.263 108.826 167.061L107.574 150.531C107.474 149.259 108.142 148.126 109.059 147.987C109.96 147.849 110.794 148.774 110.894 150.045L112.145 166.576C112.245 167.847 111.578 168.98 110.661 169.119C110.594 169.119 110.544 169.119 110.477 169.119V169.142Z" fill="black" style="fill:black;fill-opacity:1;"/>
<path d="M67.1365 163.039C66.953 163.039 66.7528 162.993 66.5693 162.9C65.7019 162.461 65.2514 161.143 65.5517 159.941L68.688 147.757C69.0049 146.555 69.9558 145.93 70.8233 146.347C71.6908 146.786 72.1412 148.104 71.8409 149.306L68.7047 161.49C68.4544 162.438 67.8205 163.016 67.1365 163.016V163.039Z" fill="black" style="fill:black;fill-opacity:1;"/>
<path d="M25.6977 148.243C25.2306 148.243 24.7468 147.966 24.4131 147.411C23.8126 146.44 23.9127 144.983 24.6133 144.151L36.5412 130.233C37.2419 129.401 38.2928 129.539 38.8934 130.51C39.4939 131.481 39.3938 132.938 38.6932 133.77L26.7654 147.688C26.4484 148.058 26.0647 148.22 25.6977 148.22V148.243Z" fill="black" style="fill:black;fill-opacity:1;"/>
<path d="M4.96177 110.812C4.1777 110.812 3.49376 110.049 3.32694 108.962C3.14343 107.714 3.72731 106.488 4.62815 106.234L17.1899 102.743C18.0908 102.489 18.9749 103.298 19.1584 104.546C19.3419 105.795 18.758 107.02 17.8572 107.274L5.29544 110.766C5.17866 110.789 5.07855 110.812 4.96177 110.812Z" fill="black" style="fill:black;fill-opacity:1;"/>
<path d="M15.6385 76.8727C15.6385 76.8727 15.4883 76.8727 15.4049 76.8496L2.20918 74.237C1.29166 74.0521 0.657718 72.8961 0.791177 71.6245C0.924635 70.353 1.75876 69.4744 2.67628 69.6594L15.872 72.2719C16.7895 72.4568 17.4234 73.6128 17.29 74.8844C17.1732 76.0404 16.4559 76.8727 15.6385 76.8727Z" fill="black" style="fill:black;fill-opacity:1;"/>
<path d="M31.9703 38.5867C31.72 38.5867 31.4698 38.5173 31.2196 38.3323L22.428 32.2288C21.6106 31.6508 21.2769 30.2636 21.6773 29.1307C22.0944 27.9979 23.0953 27.5124 23.9127 28.0904L32.7043 34.1939C33.5217 34.7719 33.8554 36.1591 33.455 37.2919C33.1547 38.1011 32.5709 38.5636 31.9536 38.5636L31.9703 38.5867Z" fill="black" style="fill:black;fill-opacity:1;"/>
<path d="M67.1365 22.9113C66.3024 22.9113 65.585 22.0559 65.4849 20.8768L64.2338 6.95875C64.117 5.68718 64.7676 4.53121 65.6852 4.36937C66.586 4.20754 67.4368 5.10919 67.5536 6.38076L68.8048 20.2988C68.9215 21.5703 68.2709 22.7263 67.3534 22.8881C67.2867 22.8881 67.2199 22.8881 67.1365 22.8881V22.9113Z" fill="black" style="fill:black;fill-opacity:1;"/>
<path d="M66.8087 77.7227V61.9573C66.8087 60.0425 68.4044 58.766 70.9575 58.766H103.829C105.807 58.766 107.084 59.9149 107.084 62.5318C107.084 65.1487 105.807 66.17 103.829 66.17H74.9786V75.2973C74.9786 76.51 75.6169 76.9568 76.9573 76.9568H104.02C105.999 76.9568 107.275 78.0418 107.275 80.6588C107.275 83.2757 105.999 84.3608 104.02 84.3608H74.5318C70.0639 84.3608 66.8087 82.7651 66.8087 77.7227ZM83.5953 98.2751H63.9365C61.9578 98.2751 60.6813 96.8709 60.6813 94.5093C60.6813 92.1477 61.9578 90.7435 63.9365 90.7435H110.594C112.573 90.7435 113.849 92.1477 113.849 94.5093C113.849 96.8709 112.573 98.2751 110.594 98.2751H91.6376V111.807C91.6376 113.721 90.1695 114.998 87.6164 114.998C85.0633 114.998 83.5953 113.721 83.5953 111.807V98.2751ZM165 63.2339C165 66.7444 163.788 75.5526 162 79.8928C161.873 80.1482 161.745 80.4035 161.554 80.5949H169.022C171 80.5949 172.277 81.9353 172.277 84.2969C172.277 86.6585 171 87.9989 169.022 87.9989H122.364C120.385 87.9989 119.108 86.6585 119.108 84.2969C119.108 81.9353 120.385 80.5949 122.364 80.5949H155.171C154.533 79.9567 154.277 79.0631 154.66 78.0418C155.554 74.9781 156.639 69.5528 156.639 66.6806C156.639 66.0423 156.128 65.5955 155.362 65.5955H129.576C127.534 65.5955 126.385 64.2551 126.385 61.9573C126.385 59.5957 127.598 58.1915 129.576 58.1915H159.384C163.469 58.1915 165 60.8723 165 63.2339ZM125.938 107.339V95.9135C125.938 93.9987 127.406 92.7221 129.959 92.7221C132.512 92.7221 133.98 93.9987 133.98 95.9135V104.722C133.98 106.062 134.363 106.637 135.959 106.637H163.979C165.958 106.637 167.234 107.722 167.234 110.339C167.234 112.955 165.958 114.04 163.979 114.04H133.725C129.385 114.04 125.938 112.445 125.938 107.339Z" fill="black" style="fill:black;fill-opacity:1;"/>
</svg>
