<svg width="731" height="336" viewBox="0 0 731 336" fill="none" xmlns="http://www.w3.org/2000/svg">
<g clip-path="url(#clip0_2377_159)">
<path d="M182.17 157.66C161.97 145.58 149.15 164.79 156.74 184.07C163.32 200.79 191.89 227.14 211.06 221.44C217.28 219.59 221.31 207.6 221.71 201.74C222.27 193.59 217.74 186.42 218.99 178.43C238.09 206.29 249.12 238.49 257.69 270.89C252.24 270.51 252.2 265.4 246.15 262.63C232.13 256.21 217.15 262.16 218.44 278.86C221.56 319.35 278.87 328.12 310.54 323.77C305.45 329.52 292.31 332.18 284.83 332.96C253.06 336.27 222.22 331.07 195.44 313.35C191.45 309.58 194.22 310 197.44 311.34C207.2 315.41 216.54 319.4 227.49 318.07L202.91 303.98L180.32 273.72C185.55 271.95 185.95 278.29 192.58 278.65C205.29 279.33 210.53 262.24 207.72 251.97C200.35 225.03 151.8 226.61 153.84 258.6C154.06 262.11 159.67 271.79 154.85 270.89C138.21 256.04 123.88 239.51 121.81 216.18C126.01 219.38 128.16 225.41 133.27 228.28C158.31 242.35 163.71 206.93 144.31 192.7C134.01 185.14 120.73 184.29 108.59 182.17L122.65 168.9C128.8 159.12 126.25 148.78 116.14 143.48V140.7C131.07 135.57 120.38 118.17 114.67 109.1C99.78 85.4704 70.09 62.4704 45.09 50.3404L1 33.1104C77.92 38.0204 151.9 86.2904 182.17 157.66Z" fill="black" stroke="white" style="fill:black;fill-opacity:1;stroke:white;stroke-opacity:1;" stroke-width="2" stroke-linejoin="round"/>
<path d="M227.5 50.0702C230.58 45.7802 263.49 89.1602 265.2 94.4602C265.51 95.4102 265.71 97.5402 264.29 97.2502C223.11 61.4902 230.98 139.26 256.66 138.9C265.73 138.77 265.73 134.79 268.05 127.47C294.16 162.82 298.91 208.23 287.89 250.13L312.42 236.95C304.15 248.67 272.88 253.25 286 270.89L273.73 263.42L265.24 269L270.87 262.41L257.7 251.08C262.19 248.6 271.38 261.01 273.71 261.06C276.02 261.11 281.35 255.56 282.16 252.9C288.13 233.11 282.37 193.32 270.59 175.9C261.25 162.1 254.67 169.71 253.94 168.99C253.63 168.69 253.6 163.39 251.84 160.67C246.43 152.32 235.73 156.49 229.4 161.42C230.98 154.32 235.04 149.47 235.2 141.6C235.65 118.97 210.19 110.22 211.46 138.76C201.85 130.45 195.11 117.72 195.43 104.8C208.59 120.84 227.76 109.88 225.73 90.6002C224.16 75.7502 202.36 70.9402 201.05 87.8102C191.75 79.2702 188.58 62.3102 191.61 50.0602C188.71 50.5502 187.97 53.6702 187.26 56.0702C186.24 59.5002 187.18 66.3002 184.1 67.0402C181.53 42.0402 193.1 16.5702 212.37 0.990234C208.3 10.7202 201.3 22.0502 199.63 32.5802C197.96 43.1102 198.15 57.7302 207.64 65.1902C220.59 75.3602 230.29 64.2702 227.51 50.0602L227.5 50.0702Z" fill="black" stroke="white" style="fill:black;fill-opacity:1;stroke:white;stroke-opacity:1;" stroke-width="2" stroke-linejoin="round"/>
<path d="M57.6001 140.67L52.8901 140.5C46.8401 146.67 55.8401 157.63 62.6201 159.14C72.8701 157.53 75.0301 148.5 68.9401 140.69C84.2401 139.58 97.5401 149.47 97.2301 165.21C75.3201 150.18 72.2901 190.32 88.7701 199.17L104.79 206.72C84.3001 209.44 68.5901 202.68 55.7401 186.91C80.9401 190.34 65.2301 159.37 48.1401 168.02C44.2401 169.99 44.3901 179.52 39.7201 178.42C30.7701 176.31 10.5101 140.43 12.3401 129.37L20.7801 142.61C29.7701 153.93 46.1301 162.3 42.4201 139.83L31.2201 121.8C41.8201 124.21 56.0001 128.28 57.6101 140.68L57.6001 140.67Z" fill="black" stroke="white" style="fill:black;fill-opacity:1;stroke:white;stroke-opacity:1;" stroke-width="2" stroke-linejoin="round"/>
<path d="M729.53 33.1101L682.94 51.6101C659.58 63.2301 632.04 85.2301 617.37 106.83C611.31 115.75 598.85 135.5 614.4 140.71V143.49C597.96 153.06 604.42 168.85 617.17 178.51C619.74 180.46 624.07 179.02 623.85 182.18C604.19 183.68 576.54 189.3 574.74 213.38C573.59 228.85 583.83 235.91 597.28 228.28C602.4 225.38 604.53 219.42 608.74 216.19C606.76 238.85 592.57 257.06 575.7 270.9C570.87 271.79 576.5 262.14 576.71 258.61C578.8 223.83 527.24 226.01 522.33 255.34C519.84 270.23 533.03 286.33 547.42 274.7C548.84 274.4 548.64 276.53 548.33 277.48C546.06 284.44 533.57 299.09 527.62 303.96L503.07 318.07C514 319.71 522.25 315.84 531.97 312.08C533.34 311.55 538.03 308.08 536.11 312.44C503.5 334.77 456.27 341.59 420.02 324.69C452.05 326.86 508.39 320 512.41 279.18C514.28 260.22 495.19 255.8 480.88 264.76C477.21 267.06 477.83 270.28 474.77 270.89C479.34 238.28 493.87 205.96 511.56 178.42C512.74 186.83 508.3 194.79 509.12 203.33C513.55 249.81 583.76 198.35 575.83 167.06C572.57 154.21 559.02 149.89 548.38 157.65C578.63 86.8101 652.49 37.8101 729.55 33.1001L729.53 33.1101Z" fill="black" stroke="white" style="fill:black;fill-opacity:1;stroke:white;stroke-opacity:1;" stroke-width="2" stroke-linejoin="round"/>
<path d="M544.59 67.0602C544.54 61.5502 544.59 53.0102 538.93 50.0702C543.04 62.6902 538.54 76.3002 531.37 86.8902C528.58 88.9702 529.33 82.8802 526.76 80.1502C522.17 75.2502 516.45 76.9102 511.53 80.2802C496.85 90.3102 506.64 116.42 526.16 111.85C531.18 110.67 531.7 106.76 535.11 104.82C535.31 117.4 528.77 131.81 518.16 138.78C523.05 110.7 495.47 118.52 495.33 139.7C495.28 147.49 499.35 154.19 501.13 161.43C500.52 162.2 492.12 152.74 482.75 157.14C476.09 160.27 477.25 168.37 476.59 169C475.9 169.66 469.93 162.42 460.69 174.77C449.13 190.24 442.29 233.02 448.41 250.96C450.32 256.55 460.08 263.1 448.31 265.23C447.64 251.7 434.18 249.35 425.65 241.63C429.36 238.32 441.84 251.16 442.61 250.13C431.87 208.29 436.69 164.26 461.49 128.37C465.23 126.7 462.99 134.78 466.52 137.03C490.15 152.12 507.74 89.3102 484.97 87.8802C478.44 87.4702 470.9 92.9902 466.21 97.2402C464.81 97.5402 464.94 95.3002 465.3 94.4502C471.34 80.1102 490.55 60.5602 502.09 50.0702C502.18 61.4202 505.68 73.4802 519.53 67.5002C536.61 60.1202 531.87 31.8202 526.58 18.0202C524.23 11.8902 519.81 7.10023 518.15 0.990234C536.28 15.4702 546.96 38.6202 547.1 61.8602C547.12 64.3202 548.78 66.0102 544.57 67.0502L544.59 67.0602Z" fill="black" stroke="white" style="fill:black;fill-opacity:1;stroke:white;stroke-opacity:1;" stroke-width="2" stroke-linejoin="round"/>
<path d="M699.34 123.7C675.1 144.5 691.37 170.67 713.43 138.71C715.81 135.26 715.01 130.2 718.2 129.35C716.58 150.12 704.3 167.31 688.95 180.29C681.93 148.59 649.26 180.44 665.89 186.65L674.79 186.89C661.95 202.91 646.35 209.14 625.74 206.7L644.42 198.04C657.45 187.07 654.28 150.43 633.3 165.19C633.02 150.34 647.05 139.36 661.59 140.67C651.78 153.02 666.64 167.57 676.68 152.93C680.79 146.94 682.39 138.28 672.93 140.65C675.52 129.02 688.17 122.75 699.34 123.69V123.7Z" fill="black" stroke="white" style="fill:black;fill-opacity:1;stroke:white;stroke-opacity:1;" stroke-width="2" stroke-linejoin="round"/>
<path d="M391.68 263.371C390.29 266.751 384.25 266.101 380.51 268.211C369.1 274.671 367.56 289.531 366.19 301.101L358.58 276.631C353.54 269.601 347.07 266.201 338.82 264.291C346.07 261.871 354.24 258.801 358.58 251.941C364.14 243.161 361.14 233.771 366.22 225.601C366.78 242.451 371.89 261.641 391.68 263.361V263.371Z" fill="black" stroke="white" style="fill:black;fill-opacity:1;stroke:white;stroke-opacity:1;" stroke-width="2" stroke-linejoin="round"/>
<path d="M182.17 157.66C161.97 145.58 149.15 164.79 156.74 184.07C163.32 200.79 191.89 227.14 211.06 221.44C217.28 219.59 221.31 207.6 221.71 201.74C222.27 193.59 217.74 186.42 218.99 178.43C238.09 206.29 249.12 238.49 257.69 270.89C252.24 270.51 252.2 265.4 246.15 262.63C232.13 256.21 217.15 262.16 218.44 278.86C221.56 319.35 278.87 328.12 310.54 323.77C305.45 329.52 292.31 332.18 284.83 332.96C253.06 336.27 222.22 331.07 195.44 313.35C191.45 309.58 194.22 310 197.44 311.34C207.2 315.41 216.54 319.4 227.49 318.07L202.91 303.98L180.32 273.72C185.55 271.95 185.95 278.29 192.58 278.65C205.29 279.33 210.53 262.24 207.72 251.97C200.35 225.03 151.8 226.61 153.84 258.6C154.06 262.11 159.67 271.79 154.85 270.89C138.21 256.04 123.88 239.51 121.81 216.18C126.01 219.38 128.16 225.41 133.27 228.28C158.31 242.35 163.71 206.93 144.31 192.7C134.01 185.14 120.73 184.29 108.59 182.17L122.65 168.9C128.8 159.12 126.25 148.78 116.14 143.48V140.7C131.07 135.57 120.38 118.17 114.67 109.1C99.78 85.4704 70.09 62.4704 45.09 50.3404L1 33.1104C77.92 38.0204 151.9 86.2904 182.17 157.66Z" fill="black" style="fill:black;fill-opacity:1;"/>
<path d="M227.5 50.0702C230.58 45.7802 263.49 89.1602 265.2 94.4602C265.51 95.4102 265.71 97.5402 264.29 97.2502C223.11 61.4902 230.98 139.26 256.66 138.9C265.73 138.77 265.73 134.79 268.05 127.47C294.16 162.82 298.91 208.23 287.89 250.13L312.42 236.95C304.15 248.67 272.88 253.25 286 270.89L273.73 263.42L265.24 269L270.87 262.41L257.7 251.08C262.19 248.6 271.38 261.01 273.71 261.06C276.02 261.11 281.35 255.56 282.16 252.9C288.13 233.11 282.37 193.32 270.59 175.9C261.25 162.1 254.67 169.71 253.94 168.99C253.63 168.69 253.6 163.39 251.84 160.67C246.43 152.32 235.73 156.49 229.4 161.42C230.98 154.32 235.04 149.47 235.2 141.6C235.65 118.97 210.19 110.22 211.46 138.76C201.85 130.45 195.11 117.72 195.43 104.8C208.59 120.84 227.76 109.88 225.73 90.6002C224.16 75.7502 202.36 70.9402 201.05 87.8102C191.75 79.2702 188.58 62.3102 191.61 50.0602C188.71 50.5502 187.97 53.6702 187.26 56.0702C186.24 59.5002 187.18 66.3002 184.1 67.0402C181.53 42.0402 193.1 16.5702 212.37 0.990234C208.3 10.7202 201.3 22.0502 199.63 32.5802C197.96 43.1102 198.15 57.7302 207.64 65.1902C220.59 75.3602 230.29 64.2702 227.51 50.0602L227.5 50.0702Z" fill="black" style="fill:black;fill-opacity:1;"/>
<path d="M57.6001 140.67L52.8901 140.5C46.8401 146.67 55.8401 157.63 62.6201 159.14C72.8701 157.53 75.0301 148.5 68.9401 140.69C84.2401 139.58 97.5401 149.47 97.2301 165.21C75.3201 150.18 72.2901 190.32 88.7701 199.17L104.79 206.72C84.3001 209.44 68.5901 202.68 55.7401 186.91C80.9401 190.34 65.2301 159.37 48.1401 168.02C44.2401 169.99 44.3901 179.52 39.7201 178.42C30.7701 176.31 10.5101 140.43 12.3401 129.37L20.7801 142.61C29.7701 153.93 46.1301 162.3 42.4201 139.83L31.2201 121.8C41.8201 124.21 56.0001 128.28 57.6101 140.68L57.6001 140.67Z" fill="black" style="fill:black;fill-opacity:1;"/>
<path d="M729.53 33.1101L682.94 51.6101C659.58 63.2301 632.04 85.2301 617.37 106.83C611.31 115.75 598.85 135.5 614.4 140.71V143.49C597.96 153.06 604.42 168.85 617.17 178.51C619.74 180.46 624.07 179.02 623.85 182.18C604.19 183.68 576.54 189.3 574.74 213.38C573.59 228.85 583.83 235.91 597.28 228.28C602.4 225.38 604.53 219.42 608.74 216.19C606.76 238.85 592.57 257.06 575.7 270.9C570.87 271.79 576.5 262.14 576.71 258.61C578.8 223.83 527.24 226.01 522.33 255.34C519.84 270.23 533.03 286.33 547.42 274.7C548.84 274.4 548.64 276.53 548.33 277.48C546.06 284.44 533.57 299.09 527.62 303.96L503.07 318.07C514 319.71 522.25 315.84 531.97 312.08C533.34 311.55 538.03 308.08 536.11 312.44C503.5 334.77 456.27 341.59 420.02 324.69C452.05 326.86 508.39 320 512.41 279.18C514.28 260.22 495.19 255.8 480.88 264.76C477.21 267.06 477.83 270.28 474.77 270.89C479.34 238.28 493.87 205.96 511.56 178.42C512.74 186.83 508.3 194.79 509.12 203.33C513.55 249.81 583.76 198.35 575.83 167.06C572.57 154.21 559.02 149.89 548.38 157.65C578.63 86.8101 652.49 37.8101 729.55 33.1001L729.53 33.1101Z" fill="black" style="fill:black;fill-opacity:1;"/>
<path d="M544.59 67.0602C544.54 61.5502 544.59 53.0102 538.93 50.0702C543.04 62.6902 538.54 76.3002 531.37 86.8902C528.58 88.9702 529.33 82.8802 526.76 80.1502C522.17 75.2502 516.45 76.9102 511.53 80.2802C496.85 90.3102 506.64 116.42 526.16 111.85C531.18 110.67 531.7 106.76 535.11 104.82C535.31 117.4 528.77 131.81 518.16 138.78C523.05 110.7 495.47 118.52 495.33 139.7C495.28 147.49 499.35 154.19 501.13 161.43C500.52 162.2 492.12 152.74 482.75 157.14C476.09 160.27 477.25 168.37 476.59 169C475.9 169.66 469.93 162.42 460.69 174.77C449.13 190.24 442.29 233.02 448.41 250.96C450.32 256.55 460.08 263.1 448.31 265.23C447.64 251.7 434.18 249.35 425.65 241.63C429.36 238.32 441.84 251.16 442.61 250.13C431.87 208.29 436.69 164.26 461.49 128.37C465.23 126.7 462.99 134.78 466.52 137.03C490.15 152.12 507.74 89.3102 484.97 87.8802C478.44 87.4702 470.9 92.9902 466.21 97.2402C464.81 97.5402 464.94 95.3002 465.3 94.4502C471.34 80.1102 490.55 60.5602 502.09 50.0702C502.18 61.4202 505.68 73.4802 519.53 67.5002C536.61 60.1202 531.87 31.8202 526.58 18.0202C524.23 11.8902 519.81 7.10023 518.15 0.990234C536.28 15.4702 546.96 38.6202 547.1 61.8602C547.12 64.3202 548.78 66.0102 544.57 67.0502L544.59 67.0602Z" fill="black" style="fill:black;fill-opacity:1;"/>
<path d="M699.34 123.7C675.1 144.5 691.37 170.67 713.43 138.71C715.81 135.26 715.01 130.2 718.2 129.35C716.58 150.12 704.3 167.31 688.95 180.29C681.93 148.59 649.26 180.44 665.89 186.65L674.79 186.89C661.95 202.91 646.35 209.14 625.74 206.7L644.42 198.04C657.45 187.07 654.28 150.43 633.3 165.19C633.02 150.34 647.05 139.36 661.59 140.67C651.78 153.02 666.64 167.57 676.68 152.93C680.79 146.94 682.39 138.28 672.93 140.65C675.52 129.02 688.17 122.75 699.34 123.69V123.7Z" fill="black" style="fill:black;fill-opacity:1;"/>
<path d="M391.68 263.371C390.29 266.751 384.25 266.101 380.51 268.211C369.1 274.671 367.56 289.531 366.19 301.101L358.58 276.631C353.54 269.601 347.07 266.201 338.82 264.291C346.07 261.871 354.24 258.801 358.58 251.941C364.14 243.161 361.14 233.771 366.22 225.601C366.78 242.451 371.89 261.641 391.68 263.361V263.371Z" fill="black" style="fill:black;fill-opacity:1;"/>
<path d="M86.1499 287.411C75.8499 287.411 67.1699 284.501 60.3399 278.761C53.2599 272.801 49.6699 265.101 49.6699 255.881C49.6699 249.001 51.6699 242.361 55.6199 236.151C59.4499 230.121 64.8999 224.881 71.7999 220.591C77.4999 217.071 84.1699 214.261 91.6399 212.221C99.0599 210.201 106.47 209.171 113.67 209.171L122.54 208.951L133.8 184.791L134.56 183.051C137.56 176.761 142.65 173.431 149.28 173.431C152.52 173.431 155.34 174.351 157.66 176.151C161.01 178.771 161.72 181.931 161.72 184.131C161.72 186.191 161 188.711 159.45 192.051L151.63 208.881H161.22L172.35 184.961L173.11 183.291C176.18 176.821 181.32 173.431 188 173.431C191.17 173.431 193.96 174.361 196.28 176.211C198.91 178.301 200.3 181.101 200.3 184.301C200.3 186.391 199.58 188.881 197.97 192.381L190.27 208.911C198.4 209.341 201.33 214.541 201.33 219.411C201.33 223.531 199.42 227.091 195.94 229.411C193 231.371 189.13 232.371 184.44 232.371H179.36L176.84 237.781H181.86C190.88 237.781 194.1 243.221 194.1 248.311C194.1 252.431 192.19 255.981 188.71 258.311C185.77 260.271 181.88 261.271 177.14 261.271H163.89C158.71 261.271 154.41 260.131 151.12 257.891C147.28 255.271 145.25 251.471 145.25 246.901C145.25 244.361 145.91 241.671 147.21 238.901L150.27 232.371H140.7L129.44 256.521C119.93 277.011 105.36 287.401 86.1299 287.401L86.1499 287.411ZM111.59 232.491C101.94 233.001 94.0899 235.241 88.2099 239.161C84.8199 241.411 82.1299 244.001 80.2299 246.861C78.5099 249.431 77.6399 251.901 77.6399 254.191C77.6399 256.731 78.4399 258.671 80.1599 260.301C81.9499 262.001 84.1199 262.791 86.9899 262.791C94.0599 262.791 99.9999 257.401 105.14 246.321L111.6 232.481L111.59 232.491Z" fill="white" style="fill:white;fill-opacity:1;"/>
<path d="M219.73 261.281C211.76 261.281 205.46 259.411 201 255.731C196.26 251.811 193.85 246.191 193.85 239.001C193.85 230.331 197.22 222.781 203.86 216.551C210.41 210.411 218.32 207.301 227.35 207.301C234.08 207.301 239.66 208.941 243.96 212.171C248.63 215.681 251.09 220.591 251.09 226.351C251.09 231.681 249.11 236.111 245.32 239.381C253.24 241.021 253.94 246.961 253.94 248.981C253.94 252.931 252.13 256.311 248.84 258.501C246.1 260.331 242.46 261.261 238.02 261.261H219.73V261.281Z" fill="white" style="fill:white;fill-opacity:1;"/>
<path d="M291.6 261.281C287.88 261.281 285.2 260.321 283.26 258.971C280.4 260.501 277.52 261.281 274.67 261.281H267.3C261.19 261.281 256.13 259.291 252.27 255.361C248.42 251.451 246.47 246.371 246.47 240.251C246.47 231.681 249.84 223.971 256.5 217.321C263.15 210.681 270.85 207.311 279.39 207.311C284.23 207.311 288.28 208.401 291.48 210.551C293.94 208.941 296.79 208.101 299.94 208.101C303.09 208.101 305.69 209.021 307.88 210.831C310.31 212.851 311.6 215.521 311.6 218.571C311.6 220.381 311.11 222.311 310.09 224.481L309.38 225.991L303.36 238.981C314.88 239.271 315.79 246.651 315.79 248.941C315.79 252.881 313.97 256.271 310.67 258.481C307.9 260.331 304.27 261.271 299.87 261.271H291.6V261.281ZM271.77 239.251C271.85 239.251 271.96 239.261 272.08 239.261H273.7C275.8 239.261 276.07 238.671 276.2 238.381L280.68 228.721C280.58 228.721 280.47 228.711 280.36 228.711C278.68 228.711 276.82 229.791 274.85 231.911C272.75 234.171 271.73 236.311 271.73 238.441C271.73 238.801 271.76 239.061 271.78 239.241L271.77 239.251Z" fill="white" style="fill:white;fill-opacity:1;"/>
<path d="M340.84 261.281C335.23 261.281 330.51 259.511 326.83 256.011C323.07 252.441 321.17 247.821 321.17 242.281C321.17 241.991 321.17 241.691 321.19 241.401C320.58 241.491 320 241.531 319.45 241.531C316.37 241.531 313.7 240.661 311.51 238.941C309.03 236.991 307.66 234.251 307.66 231.231C307.66 229.561 308.22 227.621 309.54 224.741L316.85 208.971C320.33 201.491 325.88 200.371 328.88 200.371C334.33 200.371 338.23 203.141 339.58 207.981L339.62 208.101C339.81 208.101 340.03 208.101 340.26 208.101H355.38C367.88 208.101 368.85 215.901 368.85 218.291C368.85 221.781 367.45 229.701 354.97 230.411C349.1 235.411 347.63 238.001 347.26 238.931C347.47 238.951 347.75 238.971 348.09 238.971H356.23C368.48 238.971 369.44 246.601 369.44 248.941C369.44 252.921 367.63 256.321 364.34 258.521C361.6 260.351 357.96 261.281 353.52 261.281H340.85H340.84Z" fill="white" style="fill:white;fill-opacity:1;"/>
<path d="M378.45 261.281C374.16 261.281 370.59 260.321 367.83 258.431C364.58 256.201 362.79 252.831 362.79 248.951C362.79 246.841 363.33 244.581 364.41 242.241L365.68 239.681L370.48 229.341C365.12 227.161 364.61 222.291 364.61 220.511C364.61 216.541 366.41 213.141 369.68 210.921C372.39 209.091 375.96 208.141 380.31 208.111L382.39 203.611L383.11 202.071C385.98 196.141 390.98 192.921 397.21 192.921C400.1 192.921 402.77 193.841 404.92 195.591C407.38 197.591 408.67 200.231 408.67 203.221C408.67 204.921 408.25 206.771 407.41 208.831C414.18 210.811 414.81 216.211 414.81 218.121C414.81 222.081 412.98 225.461 409.65 227.661C406.89 229.481 403.27 230.411 398.88 230.411H397.35L393.35 238.991C405.03 239.241 405.95 246.701 405.95 249.011C405.95 252.961 404.14 256.341 400.85 258.531C398.11 260.361 394.47 261.291 390.03 261.291H378.46L378.45 261.281Z" fill="white" style="fill:white;fill-opacity:1;"/>
<path d="M413.87 306.161C405.21 306.161 397.87 303.821 392.05 299.211C385.88 294.321 382.76 287.971 382.76 280.331C382.76 275.511 384.09 270.971 386.7 266.841C389.29 262.761 392.84 259.551 397.25 257.301C402.72 254.541 409.71 253.201 418.65 253.201H438.02L463.86 197.721H462.66C453.64 197.721 450.42 192.341 450.42 187.301C450.42 183.501 452.11 180.161 455.3 177.641C458.18 175.371 461.65 174.221 465.63 174.221H493.61C503.11 174.221 510.69 176.171 516.14 180.021C522.05 184.191 525.17 190.421 525.17 198.021C525.17 204.391 523.03 210.181 518.8 215.231C516.68 217.761 514.19 219.921 511.35 221.691C515.64 225.891 517.87 231.451 517.87 238.151C517.87 244.341 515.96 250.431 512.19 256.251C508.51 261.931 503.58 266.541 497.56 269.941C489.53 274.481 478.07 276.681 462.53 276.681H456.11C453.23 282.181 450.97 286.071 449.21 288.531C447.23 291.301 444.68 293.951 441.62 296.401C433.54 302.871 424.2 306.141 413.86 306.141L413.87 306.161ZM418.13 276.691C410.46 276.691 410.46 278.871 410.46 279.591C410.46 279.911 410.46 280.351 411.33 281.051C412.27 281.801 413.4 282.151 414.89 282.151C417.7 282.151 420.36 281.151 423.01 279.101C423.93 278.391 424.8 277.591 425.63 276.681H418.11L418.13 276.691ZM467.21 253.161C474.2 252.931 479.53 251.771 483.09 249.701C485.46 248.331 487.33 246.501 488.82 244.101C490.25 241.801 490.94 239.621 490.94 237.431C490.94 234.741 490 234.171 489.6 233.931C488.82 233.471 486.22 232.381 479.01 232.381H476.84L467.21 253.161ZM487.91 208.581C490.72 208.211 492.89 207.421 494.4 206.241C495.52 205.371 496.43 204.251 497.2 202.821C497.88 201.551 498.25 200.421 498.25 199.551C498.25 198.791 498.25 198.501 497 198.101C496.88 198.061 496.01 197.831 492.98 197.751L487.92 208.581H487.91Z" fill="white" style="fill:white;fill-opacity:1;"/>
<path d="M540.99 261.281C533.02 261.281 526.72 259.411 522.26 255.731C517.52 251.811 515.11 246.191 515.11 239.001C515.11 230.331 518.48 222.781 525.12 216.551C531.67 210.411 539.58 207.301 548.61 207.301C555.34 207.301 560.92 208.941 565.22 212.171C569.89 215.681 572.35 220.591 572.35 226.351C572.35 231.681 570.37 236.111 566.58 239.381C574.5 241.021 575.2 246.961 575.2 248.981C575.2 252.931 573.39 256.311 570.1 258.501C567.36 260.331 563.72 261.261 559.28 261.261H540.99V261.281Z" fill="white" style="fill:white;fill-opacity:1;"/>
<path d="M612.85 261.281C609.13 261.281 606.45 260.321 604.51 258.971C601.65 260.501 598.77 261.281 595.92 261.281H588.55C582.44 261.281 577.38 259.291 573.52 255.361C569.67 251.451 567.72 246.371 567.72 240.251C567.72 231.681 571.09 223.971 577.75 217.321C584.4 210.681 592.1 207.311 600.64 207.311C605.48 207.311 609.53 208.401 612.73 210.551C615.19 208.941 618.04 208.101 621.19 208.101C624.34 208.101 626.94 209.021 629.13 210.831C631.56 212.851 632.85 215.521 632.85 218.571C632.85 220.381 632.36 222.311 631.34 224.481L630.63 225.991L624.61 238.981C636.13 239.271 637.04 246.651 637.04 248.941C637.04 252.881 635.22 256.271 631.92 258.481C629.15 260.331 625.52 261.271 621.12 261.271H612.85V261.281ZM593.03 239.251C593.11 239.251 593.22 239.261 593.34 239.261H594.96C597.06 239.261 597.33 238.671 597.46 238.381L601.94 228.721C601.84 228.721 601.73 228.711 601.62 228.711C599.94 228.711 598.08 229.791 596.11 231.911C594.01 234.171 592.99 236.311 592.99 238.441C592.99 238.801 593.02 239.061 593.04 239.241L593.03 239.251Z" fill="white" style="fill:white;fill-opacity:1;"/>
<path d="M645.68 261.281C641.39 261.281 637.82 260.321 635.06 258.431C631.81 256.201 630.02 252.831 630.02 248.951C630.02 246.841 630.56 244.581 631.64 242.241L632.91 239.681L637.71 229.341C632.35 227.161 631.84 222.291 631.84 220.511C631.84 216.541 633.64 213.141 636.91 210.921C639.62 209.091 643.19 208.141 647.54 208.111L649.62 203.611L650.34 202.071C653.21 196.141 658.21 192.921 664.44 192.921C667.33 192.921 670 193.841 672.15 195.591C674.61 197.591 675.9 200.231 675.9 203.221C675.9 204.921 675.48 206.771 674.64 208.831C681.41 210.811 682.04 216.211 682.04 218.121C682.04 222.081 680.21 225.461 676.88 227.661C674.12 229.481 670.5 230.411 666.11 230.411H664.58L660.58 238.991C672.26 239.241 673.18 246.701 673.18 249.011C673.18 252.961 671.37 256.341 668.08 258.531C665.34 260.361 661.7 261.291 657.26 261.291H645.69L645.68 261.281Z" fill="white" style="fill:white;fill-opacity:1;"/>
<path d="M176.17 227.381L169 242.791H181.86C186.69 242.791 189.1 244.631 189.1 248.321C189.1 250.801 188.04 252.751 185.93 254.161C183.82 255.571 180.89 256.281 177.14 256.281H163.89C159.71 256.281 156.39 255.441 153.94 253.771C151.48 252.101 150.26 249.811 150.26 246.911C150.26 245.101 150.76 243.151 151.75 241.041L152.78 238.841L158.14 227.381H137.52L124.92 254.421C116.26 273.081 103.34 282.421 86.1399 282.421C77.0099 282.421 69.4799 279.931 63.5499 274.941C57.6299 269.951 54.6599 263.601 54.6599 255.891C54.6599 249.941 56.3799 244.261 59.8299 238.841C63.2799 233.421 68.1399 228.761 74.4399 224.841C79.7399 221.571 85.9099 218.971 92.9599 217.051C99.9999 215.131 106.93 214.171 113.74 214.171L122.92 213.941L125.76 213.881L138.36 186.841L139.07 185.201C141.22 180.681 144.63 178.431 149.28 178.431C151.39 178.431 153.16 178.991 154.58 180.101C156 181.211 156.71 182.561 156.71 184.141C156.71 185.421 156.11 187.361 154.9 189.951L143.78 213.881H164.4L176.87 187.071L177.65 185.381C179.85 180.751 183.29 178.441 187.99 178.441C190.01 178.441 191.74 179.001 193.16 180.131C194.58 181.261 195.29 182.651 195.29 184.311C195.29 185.591 194.67 187.581 193.42 190.291L182.43 213.881H189.15C193.93 213.881 196.32 215.721 196.32 219.411C196.32 221.891 195.26 223.841 193.15 225.251C191.04 226.661 188.13 227.371 184.43 227.371H176.16L176.17 227.381ZM119.5 227.381H116.01C103.26 227.381 93.0699 229.921 85.4399 235.001C81.4799 237.631 78.3499 240.661 76.0699 244.091C73.7899 247.511 72.6399 250.881 72.6399 254.191C72.6399 258.101 73.9999 261.351 76.7099 263.931C79.4199 266.511 82.8499 267.801 86.9899 267.801C96.1199 267.801 103.68 261.341 109.67 248.441L119.49 227.391L119.5 227.381Z" stroke="black" style="stroke:black;stroke-opacity:1;" stroke-width="4" stroke-miterlimit="10"/>
<path d="M214.3 239.741C214.3 242.561 216.73 243.971 221.6 243.971H240.79C246.22 243.971 248.93 245.641 248.93 248.991C248.93 251.281 247.97 253.071 246.05 254.351C244.13 255.631 241.45 256.271 238 256.271H219.71C212.9 256.271 207.72 254.801 204.17 251.871C200.62 248.941 198.84 244.651 198.84 239.001C198.84 231.741 201.65 225.471 207.27 220.201C212.89 214.931 219.58 212.301 227.34 212.301C232.98 212.301 237.52 213.591 240.94 216.171C244.37 218.751 246.08 222.141 246.08 226.361C246.08 231.441 243.71 235.201 238.97 237.651C236.34 239.041 232.42 239.741 227.21 239.741H214.28H214.3ZM217.4 229.471H224.51C229.12 229.471 231.36 228.591 231.23 226.821C231.1 224.831 229.61 223.831 226.77 223.831C222.81 223.831 219.68 225.711 217.4 229.471Z" stroke="black" style="stroke:black;stroke-opacity:1;" stroke-width="4" stroke-miterlimit="10"/>
<path d="M295.54 243.971H302.65C308.08 243.971 310.79 245.631 310.79 248.941C310.79 251.241 309.82 253.031 307.88 254.331C305.94 255.631 303.27 256.281 299.87 256.281H291.6C287.89 256.281 285.37 255.021 284.04 252.501C280.81 255.021 277.68 256.281 274.67 256.281H267.3C262.56 256.281 258.74 254.801 255.83 251.851C252.92 248.901 251.47 245.031 251.47 240.251C251.47 233.021 254.32 226.561 260.03 220.861C265.74 215.161 272.19 212.311 279.39 212.311C284.9 212.311 288.93 213.981 291.48 217.331C293.63 214.511 296.46 213.101 299.95 213.101C301.85 213.101 303.43 213.631 304.7 214.681C305.97 215.731 306.61 217.031 306.61 218.571C306.61 219.621 306.26 220.881 305.58 222.351L304.87 223.871L295.56 243.971H295.54ZM272.08 244.261H273.7C277.23 244.261 279.58 243.001 280.74 240.481L285.26 230.721C285.86 229.441 286.16 228.371 286.16 227.501C286.16 226.481 285.59 225.601 284.45 224.851C283.31 224.101 281.94 223.721 280.35 223.721C277.2 223.721 274.15 225.321 271.17 228.521C268.2 231.721 266.71 235.031 266.71 238.451C266.71 242.331 268.5 244.261 272.07 244.261H272.08Z" stroke="black" style="stroke:black;stroke-opacity:1;" stroke-width="4" stroke-miterlimit="10"/>
<path d="M329.4 225.461L327.2 230.201C325.22 234.421 322.63 236.521 319.45 236.521C317.51 236.521 315.9 236.011 314.6 235.001C313.31 233.981 312.66 232.721 312.66 231.221C312.66 230.351 313.13 228.891 314.08 226.821L321.38 211.071C323.15 207.271 325.65 205.371 328.88 205.371C332.11 205.371 334.03 206.691 334.76 209.321L335.28 211.071C335.54 211.971 335.93 212.541 336.44 212.761C336.96 212.991 338.23 213.101 340.25 213.101H355.37C361.01 213.101 363.84 214.831 363.84 218.291C363.84 223.071 360.26 225.461 353.11 225.461L352.4 226.021C345.55 231.741 342.12 236.161 342.12 239.291C342.12 242.421 344.1 243.971 348.07 243.971H356.21C361.68 243.971 364.42 245.631 364.42 248.941C364.42 251.271 363.46 253.081 361.54 254.361C359.62 255.641 356.94 256.281 353.49 256.281H340.82C336.51 256.281 332.99 254.981 330.25 252.391C327.51 249.801 326.15 246.431 326.15 242.291C326.15 239.661 326.88 237.101 328.35 234.611C329.81 232.131 332.4 229.081 336.1 225.471H329.38L329.4 225.461Z" stroke="black" style="stroke:black;stroke-opacity:1;" stroke-width="4" stroke-miterlimit="10"/>
<path d="M399.59 213.1H401.59C407.06 213.1 409.8 214.77 409.8 218.12C409.8 220.42 408.83 222.2 406.89 223.48C404.95 224.76 402.28 225.4 398.88 225.4H394.16L385.5 243.97H392.74C398.21 243.97 400.95 245.64 400.95 248.99C400.95 251.28 399.99 253.07 398.07 254.35C396.15 255.63 393.47 256.27 390.02 256.27H378.45C375.18 256.27 372.58 255.61 370.66 254.29C368.74 252.97 367.78 251.19 367.78 248.93C367.78 247.54 368.17 245.99 368.94 244.3L370.17 241.82L377.8 225.39H376.83C372 225.39 369.59 223.75 369.59 220.48C369.59 218.15 370.55 216.33 372.47 215.03C374.39 213.73 377.07 213.08 380.52 213.08H383.49L386.92 205.69L387.63 204.17C389.65 199.99 392.84 197.9 397.19 197.9C398.96 197.9 400.47 198.42 401.75 199.45C403.02 200.49 403.66 201.74 403.66 203.2C403.66 204.66 403.1 206.44 401.98 208.62L399.59 213.08V213.1Z" stroke="black" style="stroke:black;stroke-opacity:1;" stroke-width="4" stroke-miterlimit="10"/>
<path d="M471.71 192.72H462.66C457.83 192.72 455.42 190.91 455.42 187.3C455.42 185.04 456.41 183.13 458.39 181.57C460.37 180.01 462.78 179.23 465.63 179.23H493.61C502.1 179.23 508.65 180.86 513.26 184.11C517.87 187.36 520.18 192 520.18 198.02C520.18 203.21 518.44 207.88 514.98 212.02C511.51 216.16 506.87 219.11 501.05 220.88C508.93 224.23 512.88 229.99 512.88 238.15C512.88 243.38 511.25 248.51 508 253.53C504.75 258.55 500.45 262.57 495.11 265.58C487.91 269.64 477.06 271.68 462.54 271.68H453.04L452.26 273.26C449.24 279.09 446.87 283.21 445.15 285.62C443.43 288.03 441.21 290.32 438.49 292.51C431.29 298.27 423.09 301.15 413.87 301.15C406.33 301.15 400.09 299.19 395.16 295.28C390.23 291.37 387.76 286.38 387.76 280.32C387.76 276.44 388.82 272.84 390.93 269.51C393.04 266.18 395.91 263.59 399.53 261.75C404.23 259.38 410.6 258.19 418.66 258.19H441.21L471.71 192.71V192.72ZM434.94 271.69H418.14C409.69 271.69 405.47 274.32 405.47 279.59C405.47 281.7 406.39 283.49 408.22 284.95C410.05 286.42 412.28 287.15 414.91 287.15C418.83 287.15 422.56 285.79 426.09 283.06C429.62 280.33 432.57 276.54 434.94 271.69ZM459.36 258.2H464.59C473.81 258.2 480.81 256.81 485.59 254.02C488.65 252.25 491.14 249.82 493.05 246.74C494.97 243.66 495.93 240.55 495.93 237.43C495.93 233.74 494.67 231.15 492.15 229.64C489.63 228.14 485.24 227.38 479 227.38H473.64L459.36 258.2ZM479.92 213.89L483.8 213.83C489.83 213.83 494.4 212.61 497.5 210.16C499.14 208.88 500.5 207.22 501.6 205.19C502.7 203.16 503.25 201.28 503.25 199.55C503.25 196.43 501.68 194.36 498.53 193.34C497.28 192.93 494.69 192.72 490.77 192.72H489.8L479.91 213.89H479.92Z" stroke="black" style="stroke:black;stroke-opacity:1;" stroke-width="4" stroke-miterlimit="10"/>
<path d="M535.56 239.741C535.56 242.561 537.99 243.971 542.86 243.971H562.05C567.48 243.971 570.19 245.641 570.19 248.991C570.19 251.281 569.23 253.071 567.31 254.351C565.39 255.631 562.71 256.271 559.26 256.271H540.97C534.16 256.271 528.98 254.801 525.43 251.871C521.88 248.941 520.1 244.651 520.1 239.001C520.1 231.741 522.91 225.471 528.53 220.201C534.15 214.931 540.84 212.301 548.6 212.301C554.24 212.301 558.78 213.591 562.2 216.171C565.63 218.751 567.34 222.141 567.34 226.361C567.34 231.441 564.97 235.201 560.23 237.651C557.6 239.041 553.68 239.741 548.47 239.741H535.54H535.56ZM538.66 229.471H545.77C550.38 229.471 552.62 228.591 552.49 226.821C552.36 224.831 550.87 223.831 548.03 223.831C544.07 223.831 540.94 225.711 538.66 229.471Z" stroke="black" style="stroke:black;stroke-opacity:1;" stroke-width="4" stroke-miterlimit="10"/>
<path d="M616.79 243.971H623.9C629.33 243.971 632.04 245.631 632.04 248.941C632.04 251.241 631.07 253.031 629.13 254.331C627.19 255.631 624.52 256.281 621.12 256.281H612.85C609.14 256.281 606.62 255.021 605.29 252.501C602.06 255.021 598.93 256.281 595.92 256.281H588.55C583.81 256.281 579.99 254.801 577.08 251.851C574.17 248.901 572.72 245.031 572.72 240.251C572.72 233.021 575.57 226.561 581.28 220.861C586.99 215.161 593.44 212.311 600.64 212.311C606.15 212.311 610.18 213.981 612.73 217.331C614.88 214.511 617.71 213.101 621.2 213.101C623.1 213.101 624.68 213.631 625.95 214.681C627.22 215.731 627.86 217.031 627.86 218.571C627.86 219.621 627.51 220.881 626.83 222.351L626.12 223.871L616.81 243.971H616.79ZM593.33 244.261H594.95C598.48 244.261 600.83 243.001 601.99 240.481L606.51 230.721C607.11 229.441 607.41 228.371 607.41 227.501C607.41 226.481 606.84 225.601 605.7 224.851C604.56 224.101 603.19 223.721 601.6 223.721C598.45 223.721 595.4 225.321 592.42 228.521C589.45 231.721 587.96 235.031 587.96 238.451C587.96 242.331 589.75 244.261 593.32 244.261H593.33Z" stroke="black" style="stroke:black;stroke-opacity:1;" stroke-width="4" stroke-miterlimit="10"/>
<path d="M666.81 213.1H668.81C674.28 213.1 677.02 214.77 677.02 218.12C677.02 220.42 676.05 222.2 674.11 223.48C672.17 224.76 669.5 225.4 666.1 225.4H661.38L652.72 243.97H659.96C665.43 243.97 668.17 245.64 668.17 248.99C668.17 251.28 667.21 253.07 665.29 254.35C663.37 255.63 660.69 256.27 657.24 256.27H645.67C642.4 256.27 639.8 255.61 637.88 254.29C635.96 252.97 635 251.19 635 248.93C635 247.54 635.39 245.99 636.16 244.3L637.39 241.82L645.02 225.39H644.05C639.22 225.39 636.81 223.75 636.81 220.48C636.81 218.15 637.77 216.33 639.69 215.03C641.61 213.73 644.29 213.08 647.74 213.08H650.71L654.14 205.69L654.85 204.17C656.87 199.99 660.06 197.9 664.41 197.9C666.18 197.9 667.69 198.42 668.97 199.45C670.24 200.49 670.88 201.74 670.88 203.2C670.88 204.66 670.32 206.44 669.2 208.62L666.81 213.08V213.1Z" stroke="black" style="stroke:black;stroke-opacity:1;" stroke-width="4" stroke-miterlimit="10"/>
<path d="M176.17 227.381L169 242.791H181.86C186.69 242.791 189.1 244.631 189.1 248.321C189.1 250.801 188.04 252.751 185.93 254.161C183.82 255.571 180.89 256.281 177.14 256.281H163.89C159.71 256.281 156.39 255.441 153.94 253.771C151.48 252.101 150.26 249.811 150.26 246.911C150.26 245.101 150.76 243.151 151.75 241.041L152.78 238.841L158.14 227.381H137.52L124.92 254.421C116.26 273.081 103.34 282.421 86.1399 282.421C77.0099 282.421 69.4799 279.931 63.5499 274.941C57.6299 269.951 54.6599 263.601 54.6599 255.891C54.6599 249.941 56.3799 244.261 59.8299 238.841C63.2799 233.421 68.1399 228.761 74.4399 224.841C79.7399 221.571 85.9099 218.971 92.9599 217.051C99.9999 215.131 106.93 214.171 113.74 214.171L122.92 213.941L125.76 213.881L138.36 186.841L139.07 185.201C141.22 180.681 144.63 178.431 149.28 178.431C151.39 178.431 153.16 178.991 154.58 180.101C156 181.211 156.71 182.561 156.71 184.141C156.71 185.421 156.11 187.361 154.9 189.951L143.78 213.881H164.4L176.87 187.071L177.65 185.381C179.85 180.751 183.29 178.441 187.99 178.441C190.01 178.441 191.74 179.001 193.16 180.131C194.58 181.261 195.29 182.651 195.29 184.311C195.29 185.591 194.67 187.581 193.42 190.291L182.43 213.881H189.15C193.93 213.881 196.32 215.721 196.32 219.411C196.32 221.891 195.26 223.841 193.15 225.251C191.04 226.661 188.13 227.371 184.43 227.371H176.16L176.17 227.381ZM119.5 227.381H116.01C103.26 227.381 93.0699 229.921 85.4399 235.001C81.4799 237.631 78.3499 240.661 76.0699 244.091C73.7899 247.511 72.6399 250.881 72.6399 254.191C72.6399 258.101 73.9999 261.351 76.7099 263.931C79.4199 266.511 82.8499 267.801 86.9899 267.801C96.1199 267.801 103.68 261.341 109.67 248.441L119.49 227.391L119.5 227.381Z" fill="#7E5AFF" style="fill:#7E5AFF;fill:color(display-p3 0.4941 0.3529 1.0000);fill-opacity:1;"/>
<path d="M214.3 239.741C214.3 242.561 216.73 243.971 221.6 243.971H240.79C246.22 243.971 248.93 245.641 248.93 248.991C248.93 251.281 247.97 253.071 246.05 254.351C244.13 255.631 241.45 256.271 238 256.271H219.71C212.9 256.271 207.72 254.801 204.17 251.871C200.62 248.941 198.84 244.651 198.84 239.001C198.84 231.741 201.65 225.471 207.27 220.201C212.89 214.931 219.58 212.301 227.34 212.301C232.98 212.301 237.52 213.591 240.94 216.171C244.37 218.751 246.08 222.141 246.08 226.361C246.08 231.441 243.71 235.201 238.97 237.651C236.34 239.041 232.42 239.741 227.21 239.741H214.28H214.3ZM217.4 229.471H224.51C229.12 229.471 231.36 228.591 231.23 226.821C231.1 224.831 229.61 223.831 226.77 223.831C222.81 223.831 219.68 225.711 217.4 229.471Z" fill="#7E5AFF" style="fill:#7E5AFF;fill:color(display-p3 0.4941 0.3529 1.0000);fill-opacity:1;"/>
<path d="M295.54 243.971H302.65C308.08 243.971 310.79 245.631 310.79 248.941C310.79 251.241 309.82 253.031 307.88 254.331C305.94 255.631 303.27 256.281 299.87 256.281H291.6C287.89 256.281 285.37 255.021 284.04 252.501C280.81 255.021 277.68 256.281 274.67 256.281H267.3C262.56 256.281 258.74 254.801 255.83 251.851C252.92 248.901 251.47 245.031 251.47 240.251C251.47 233.021 254.32 226.561 260.03 220.861C265.74 215.161 272.19 212.311 279.39 212.311C284.9 212.311 288.93 213.981 291.48 217.331C293.63 214.511 296.46 213.101 299.95 213.101C301.85 213.101 303.43 213.631 304.7 214.681C305.97 215.731 306.61 217.031 306.61 218.571C306.61 219.621 306.26 220.881 305.58 222.351L304.87 223.871L295.56 243.971H295.54ZM272.08 244.261H273.7C277.23 244.261 279.58 243.001 280.74 240.481L285.26 230.721C285.86 229.441 286.16 228.371 286.16 227.501C286.16 226.481 285.59 225.601 284.45 224.851C283.31 224.101 281.94 223.721 280.35 223.721C277.2 223.721 274.15 225.321 271.17 228.521C268.2 231.721 266.71 235.031 266.71 238.451C266.71 242.331 268.5 244.261 272.07 244.261H272.08Z" fill="#7E5AFF" style="fill:#7E5AFF;fill:color(display-p3 0.4941 0.3529 1.0000);fill-opacity:1;"/>
<path d="M329.4 225.461L327.2 230.201C325.22 234.421 322.63 236.521 319.45 236.521C317.51 236.521 315.9 236.011 314.6 235.001C313.31 233.981 312.66 232.721 312.66 231.221C312.66 230.351 313.13 228.891 314.08 226.821L321.38 211.071C323.15 207.271 325.65 205.371 328.88 205.371C332.11 205.371 334.03 206.691 334.76 209.321L335.28 211.071C335.54 211.971 335.93 212.541 336.44 212.761C336.96 212.991 338.23 213.101 340.25 213.101H355.37C361.01 213.101 363.84 214.831 363.84 218.291C363.84 223.071 360.26 225.461 353.11 225.461L352.4 226.021C345.55 231.741 342.12 236.161 342.12 239.291C342.12 242.421 344.1 243.971 348.07 243.971H356.21C361.68 243.971 364.42 245.631 364.42 248.941C364.42 251.271 363.46 253.081 361.54 254.361C359.62 255.641 356.94 256.281 353.49 256.281H340.82C336.51 256.281 332.99 254.981 330.25 252.391C327.51 249.801 326.15 246.431 326.15 242.291C326.15 239.661 326.88 237.101 328.35 234.611C329.81 232.131 332.4 229.081 336.1 225.471H329.38L329.4 225.461Z" fill="#7E5AFF" style="fill:#7E5AFF;fill:color(display-p3 0.4941 0.3529 1.0000);fill-opacity:1;"/>
<path d="M399.59 213.1H401.59C407.06 213.1 409.8 214.77 409.8 218.12C409.8 220.42 408.83 222.2 406.89 223.48C404.95 224.76 402.28 225.4 398.88 225.4H394.16L385.5 243.97H392.74C398.21 243.97 400.95 245.64 400.95 248.99C400.95 251.28 399.99 253.07 398.07 254.35C396.15 255.63 393.47 256.27 390.02 256.27H378.45C375.18 256.27 372.58 255.61 370.66 254.29C368.74 252.97 367.78 251.19 367.78 248.93C367.78 247.54 368.17 245.99 368.94 244.3L370.17 241.82L377.8 225.39H376.83C372 225.39 369.59 223.75 369.59 220.48C369.59 218.15 370.55 216.33 372.47 215.03C374.39 213.73 377.07 213.08 380.52 213.08H383.49L386.92 205.69L387.63 204.17C389.65 199.99 392.84 197.9 397.19 197.9C398.96 197.9 400.47 198.42 401.75 199.45C403.02 200.49 403.66 201.74 403.66 203.2C403.66 204.66 403.1 206.44 401.98 208.62L399.59 213.08V213.1Z" fill="#7E5AFF" style="fill:#7E5AFF;fill:color(display-p3 0.4941 0.3529 1.0000);fill-opacity:1;"/>
<path d="M471.71 192.72H462.66C457.83 192.72 455.42 190.91 455.42 187.3C455.42 185.04 456.41 183.13 458.39 181.57C460.37 180.01 462.78 179.23 465.63 179.23H493.61C502.1 179.23 508.65 180.86 513.26 184.11C517.87 187.36 520.18 192 520.18 198.02C520.18 203.21 518.44 207.88 514.98 212.02C511.51 216.16 506.87 219.11 501.05 220.88C508.93 224.23 512.88 229.99 512.88 238.15C512.88 243.38 511.25 248.51 508 253.53C504.75 258.55 500.45 262.57 495.11 265.58C487.91 269.64 477.06 271.68 462.54 271.68H453.04L452.26 273.26C449.24 279.09 446.87 283.21 445.15 285.62C443.43 288.03 441.21 290.32 438.49 292.51C431.29 298.27 423.09 301.15 413.87 301.15C406.33 301.15 400.09 299.19 395.16 295.28C390.23 291.37 387.76 286.38 387.76 280.32C387.76 276.44 388.82 272.84 390.93 269.51C393.04 266.18 395.91 263.59 399.53 261.75C404.23 259.38 410.6 258.19 418.66 258.19H441.21L471.71 192.71V192.72ZM434.94 271.69H418.14C409.69 271.69 405.47 274.32 405.47 279.59C405.47 281.7 406.39 283.49 408.22 284.95C410.05 286.42 412.28 287.15 414.91 287.15C418.83 287.15 422.56 285.79 426.09 283.06C429.62 280.33 432.57 276.54 434.94 271.69ZM459.36 258.2H464.59C473.81 258.2 480.81 256.81 485.59 254.02C488.65 252.25 491.14 249.82 493.05 246.74C494.97 243.66 495.93 240.55 495.93 237.43C495.93 233.74 494.67 231.15 492.15 229.64C489.63 228.14 485.24 227.38 479 227.38H473.64L459.36 258.2ZM479.92 213.89L483.8 213.83C489.83 213.83 494.4 212.61 497.5 210.16C499.14 208.88 500.5 207.22 501.6 205.19C502.7 203.16 503.25 201.28 503.25 199.55C503.25 196.43 501.68 194.36 498.53 193.34C497.28 192.93 494.69 192.72 490.77 192.72H489.8L479.91 213.89H479.92Z" fill="#7E5AFF" style="fill:#7E5AFF;fill:color(display-p3 0.4941 0.3529 1.0000);fill-opacity:1;"/>
<path d="M535.56 239.741C535.56 242.561 537.99 243.971 542.86 243.971H562.05C567.48 243.971 570.19 245.641 570.19 248.991C570.19 251.281 569.23 253.071 567.31 254.351C565.39 255.631 562.71 256.271 559.26 256.271H540.97C534.16 256.271 528.98 254.801 525.43 251.871C521.88 248.941 520.1 244.651 520.1 239.001C520.1 231.741 522.91 225.471 528.53 220.201C534.15 214.931 540.84 212.301 548.6 212.301C554.24 212.301 558.78 213.591 562.2 216.171C565.63 218.751 567.34 222.141 567.34 226.361C567.34 231.441 564.97 235.201 560.23 237.651C557.6 239.041 553.68 239.741 548.47 239.741H535.54H535.56ZM538.66 229.471H545.77C550.38 229.471 552.62 228.591 552.49 226.821C552.36 224.831 550.87 223.831 548.03 223.831C544.07 223.831 540.94 225.711 538.66 229.471Z" fill="#7E5AFF" style="fill:#7E5AFF;fill:color(display-p3 0.4941 0.3529 1.0000);fill-opacity:1;"/>
<path d="M616.79 243.971H623.9C629.33 243.971 632.04 245.631 632.04 248.941C632.04 251.241 631.07 253.031 629.13 254.331C627.19 255.631 624.52 256.281 621.12 256.281H612.85C609.14 256.281 606.62 255.021 605.29 252.501C602.06 255.021 598.93 256.281 595.92 256.281H588.55C583.81 256.281 579.99 254.801 577.08 251.851C574.17 248.901 572.72 245.031 572.72 240.251C572.72 233.021 575.57 226.561 581.28 220.861C586.99 215.161 593.44 212.311 600.64 212.311C606.15 212.311 610.18 213.981 612.73 217.331C614.88 214.511 617.71 213.101 621.2 213.101C623.1 213.101 624.68 213.631 625.95 214.681C627.22 215.731 627.86 217.031 627.86 218.571C627.86 219.621 627.51 220.881 626.83 222.351L626.12 223.871L616.81 243.971H616.79ZM593.33 244.261H594.95C598.48 244.261 600.83 243.001 601.99 240.481L606.51 230.721C607.11 229.441 607.41 228.371 607.41 227.501C607.41 226.481 606.84 225.601 605.7 224.851C604.56 224.101 603.19 223.721 601.6 223.721C598.45 223.721 595.4 225.321 592.42 228.521C589.45 231.721 587.96 235.031 587.96 238.451C587.96 242.331 589.75 244.261 593.32 244.261H593.33Z" fill="#7E5AFF" style="fill:#7E5AFF;fill:color(display-p3 0.4941 0.3529 1.0000);fill-opacity:1;"/>
<path d="M666.81 213.1H668.81C674.28 213.1 677.02 214.77 677.02 218.12C677.02 220.42 676.05 222.2 674.11 223.48C672.17 224.76 669.5 225.4 666.1 225.4H661.38L652.72 243.97H659.96C665.43 243.97 668.17 245.64 668.17 248.99C668.17 251.28 667.21 253.07 665.29 254.35C663.37 255.63 660.69 256.27 657.24 256.27H645.67C642.4 256.27 639.8 255.61 637.88 254.29C635.96 252.97 635 251.19 635 248.93C635 247.54 635.39 245.99 636.16 244.3L637.39 241.82L645.02 225.39H644.05C639.22 225.39 636.81 223.75 636.81 220.48C636.81 218.15 637.77 216.33 639.69 215.03C641.61 213.73 644.29 213.08 647.74 213.08H650.71L654.14 205.69L654.85 204.17C656.87 199.99 660.06 197.9 664.41 197.9C666.18 197.9 667.69 198.42 668.97 199.45C670.24 200.49 670.88 201.74 670.88 203.2C670.88 204.66 670.32 206.44 669.2 208.62L666.81 213.08V213.1Z" fill="#7E5AFF" style="fill:#7E5AFF;fill:color(display-p3 0.4941 0.3529 1.0000);fill-opacity:1;"/>
</g>
<defs>
<clipPath id="clip0_2377_159">
<rect width="730.53" height="335.13" fill="white" style="fill:white;fill-opacity:1;"/>
</clipPath>
</defs>
</svg>
