<svg width="295" height="164" viewBox="0 0 295 164" fill="none" xmlns="http://www.w3.org/2000/svg">
<path d="M51.5578 11.1248C51.5578 11.1248 70.9679 25.2526 99.2078 25.2526C127.448 25.2526 146.28 2.31055 146.28 2.31055C146.28 2.31055 163.345 21.7206 193.351 27.0185C223.357 32.3164 255.129 22.3146 255.129 22.3146C255.129 22.3146 255.723 47.0225 265.725 60.5564C275.727 74.0903 293.371 91.7344 293.371 91.7344C293.371 91.7344 276.305 104.674 273.367 116.442C270.429 128.21 273.961 142.323 273.961 142.323C273.961 142.323 265.725 135.852 237.485 141.15C209.245 146.448 204.541 161.154 204.541 161.154C204.541 161.154 190.413 148.214 161.595 147.62C132.777 147.027 115.117 161.748 115.117 161.748C115.117 161.748 97.4731 148.214 77.4692 141.744C57.4653 135.274 28.0532 149.98 28.0532 149.98C28.0532 149.98 28.0532 117.615 22.177 109.379C16.3009 101.143 1.57922 82.9045 1.57922 82.9045C1.57922 82.9045 31.8821 72.6056 39.5242 54.9615C47.1663 37.3174 51.5891 11.1248 51.5891 11.1248H51.5578Z" fill="white" style="fill:white;fill-opacity:1;"/>
<path d="M115.102 163.312C114.773 163.312 114.43 163.203 114.148 162.984C113.976 162.843 96.4729 149.544 76.9691 143.23C57.8091 137.026 29.0221 151.232 28.7252 151.372C28.2407 151.607 27.6625 151.591 27.2093 151.31C26.756 151.029 26.4747 150.528 26.4747 149.981C26.4747 141.12 25.4746 116.709 20.8799 110.286C15.0975 102.175 0.485243 84.0622 0.34459 83.8903C0.0164005 83.4996 -0.0773565 82.9683 0.0632962 82.4682C0.203949 81.9837 0.579046 81.593 1.06352 81.4211C1.36045 81.3273 30.8037 71.1378 38.0864 54.3377C45.5723 37.0686 49.995 11.126 50.0418 10.8604C50.1356 10.329 50.4951 9.87578 50.9952 9.67261C51.4953 9.46945 52.0735 9.53195 52.5111 9.86014C52.6986 10.0008 71.89 23.6754 99.2547 23.6754C126.619 23.6754 144.936 1.53041 145.123 1.29599C145.42 0.93654 145.842 0.733398 146.311 0.733398C146.811 0.749027 147.202 0.920882 147.514 1.2647C147.686 1.45224 164.611 20.3309 193.68 25.4726C222.951 30.6455 254.395 20.9092 254.723 20.8154C255.192 20.6748 255.707 20.7529 256.098 21.0343C256.504 21.3156 256.739 21.7844 256.754 22.2688C256.754 22.5033 257.458 46.6487 267.038 59.62C276.852 72.9038 294.356 90.4541 294.543 90.626C294.856 90.9386 295.028 91.3918 294.996 91.8294C294.965 92.2826 294.746 92.6889 294.387 92.9702C294.215 93.0952 277.727 105.723 274.961 116.819C272.148 128.071 275.508 141.808 275.555 141.949C275.711 142.605 275.446 143.277 274.883 143.636C274.32 143.996 273.586 143.965 273.07 143.558C273.008 143.511 264.725 137.651 237.844 142.683C211.027 147.715 206.135 161.499 206.088 161.64C205.916 162.14 205.51 162.531 204.994 162.656C204.479 162.781 203.932 162.656 203.541 162.296C203.4 162.171 189.429 149.747 161.611 149.169C133.73 148.591 116.336 162.781 116.164 162.921C115.867 163.156 115.524 163.281 115.164 163.281L115.102 163.312ZM65.8575 138.526C70.0301 138.526 74.1247 139.026 77.9224 140.261C95.5352 145.965 111.07 156.858 115.07 159.796C119.212 156.702 135.996 145.59 161.595 146.074C185.49 146.559 199.399 155.295 203.932 158.686C206.323 154.295 214.262 143.918 237.172 139.62C256.864 135.932 267.147 137.885 271.773 139.558C270.882 134.635 269.648 124.805 271.836 116.069C274.399 105.801 286.792 95.0331 291.011 91.5949C286.807 87.3129 272.867 72.8882 264.443 61.4797C255.832 49.8368 254.004 30.6299 253.644 24.363C246.237 26.4103 218.872 33.1147 193.07 28.5513C167.034 23.9567 150.765 9.14129 146.311 4.62477C141.716 9.64139 124.197 26.8166 99.2078 26.8166C75.7032 26.8166 58.4029 17.3616 52.6674 13.7515C51.3702 20.6279 47.2288 41.0538 40.9307 55.5879C34.195 71.1222 11.253 80.921 4.12661 83.6403C7.92423 88.3756 18.6138 101.784 23.4116 108.489C28.6002 115.756 29.4285 139.714 29.5691 147.543C35.3202 144.949 50.9952 138.542 65.8731 138.542L65.8575 138.526Z" fill="black" style="fill:black;fill-opacity:1;"/>
<path d="M66.9166 97.8728C64.6188 97.8728 63.2784 96.2771 63.2784 93.9793C63.2784 92.0645 64.172 90.3412 66.4059 90.3412C80.6395 90.3412 90.5965 89.8305 98.3196 87.7242C101.702 86.7668 102.915 89.4476 102.915 91.3624C102.915 93.1496 102.085 94.1708 100.937 94.5538C97.1707 95.8303 92.1922 96.6601 86.9584 97.1707V110.383C86.9584 112.298 85.4903 113.574 82.9372 113.574C80.3841 113.574 78.9161 112.298 78.9161 110.383V97.7451C74.512 97.9366 70.2994 97.9366 66.9166 97.8728ZM104.319 110.574V63.023C104.319 61.1082 105.596 59.8317 108.149 59.8317C110.702 59.8317 111.979 61.1082 111.979 63.023V110.574C111.979 112.489 110.702 113.766 108.149 113.766C105.596 113.766 104.319 112.489 104.319 110.574ZM98.0643 68.576C98.0643 71.895 97.6175 78.3416 95.7665 83.8946C95.2559 85.4265 94.1709 86.32 92.1284 86.32C89.3838 86.32 87.6605 84.5329 88.2987 82.3627C89.5115 78.214 90.0859 73.2992 90.0859 71.4483C90.0859 70.81 89.5753 70.3632 88.8094 70.3632H71.3207C69.2782 70.3632 68.1293 68.8952 68.1293 66.5974C68.1293 64.2358 69.342 62.7039 71.3207 62.7039H92.3199C96.4048 62.7039 98.0643 65.3846 98.0643 68.576ZM123.237 83.2563C123.237 69.4058 129.493 63.9804 138.811 63.9804C148.194 63.9804 154.194 69.3419 154.194 83.2563C154.194 97.7451 148.194 102.596 138.811 102.596C129.493 102.596 123.237 97.6813 123.237 83.2563ZM164.023 94.4261H158.087C156.109 94.4261 154.832 93.2772 154.832 90.6603C154.832 88.0434 156.109 86.8945 158.087 86.8945H164.023V79.4267H158.087C156.109 79.4267 154.832 78.2778 154.832 75.6609C154.832 73.0439 156.109 71.895 158.087 71.895H164.023V63.023C164.023 61.1082 165.3 59.8317 167.853 59.8317C170.406 59.8317 171.682 61.1082 171.682 63.023V110.574C171.682 112.489 170.406 113.766 167.853 113.766C165.3 113.766 164.023 112.489 164.023 110.574V94.4261ZM146.598 83.2563C146.598 74.9588 143.918 71.3844 138.811 71.3844C133.705 71.3844 130.961 74.9588 130.961 83.2563C130.961 91.5539 133.705 95.192 138.811 95.192C143.918 95.192 146.598 91.5539 146.598 83.2563ZM183.133 74.512C183.133 65.5123 189.771 61.0444 199.09 61.0444C208.472 61.0444 214.855 65.5123 214.855 74.512C214.855 83.8308 208.472 87.9157 199.09 87.9157C189.771 87.9157 183.133 83.8308 183.133 74.512ZM222.45 107.894H214.6C212.621 107.894 211.344 106.872 211.344 104.256C211.344 101.639 212.621 100.617 214.6 100.617H222.45V63.023C222.45 61.1082 223.727 59.8317 226.28 59.8317C228.833 59.8317 230.11 61.1082 230.11 63.023V110.574C230.11 112.489 228.833 113.766 226.28 113.766C223.727 113.766 222.45 112.489 222.45 110.574V107.894ZM183.771 100.554C181.473 100.554 180.133 98.9579 180.133 96.6601C180.133 94.7453 181.026 93.0219 183.26 93.0219C197.494 93.0219 207.451 91.873 215.174 89.7667C218.557 88.8093 219.77 91.4901 219.77 93.4049C219.77 95.192 218.94 96.2133 217.791 96.5962C214.153 97.8728 209.302 98.7664 204.196 99.4047V110.383C204.196 112.298 202.728 113.574 200.175 113.574C197.622 113.574 196.153 112.298 196.153 110.383V100.171C191.622 100.49 187.218 100.617 183.771 100.554ZM207.196 74.512C207.196 69.5973 203.557 68.0654 199.09 68.0654C194.622 68.0654 190.92 69.5973 190.92 74.512C190.92 79.4267 194.622 80.8947 199.09 80.8947C203.557 80.8947 207.196 79.4267 207.196 74.512Z" fill="black" style="fill:black;fill-opacity:1;"/>
</svg>
