<svg width="243" height="113" viewBox="0 0 243 113" fill="none" xmlns="http://www.w3.org/2000/svg">
<path d="M46.5119 19.7451C51.6719 14.0651 69.9519 1.10514 87.4519 4.21514C104.952 7.32514 108.632 -2.27487 124.442 2.23513C140.252 6.74513 175.832 2.79514 185.992 12.6851C196.152 22.5751 200.112 37.8151 221.852 47.6951C243.592 57.5751 242.462 61.8151 240.202 77.3451C237.942 92.8751 234.842 110.945 213.092 110.945C191.342 110.945 194.172 102.475 178.642 110.095C163.112 117.715 133.182 96.8251 117.092 101.055C101.002 105.295 92.2419 110.655 73.0419 107.545C53.8419 104.435 37.1819 105.285 23.9119 103.305C10.6419 101.325 -1.21805 82.1251 1.32195 66.8851C3.86195 51.6451 4.14195 32.4351 20.5219 31.3051C20.5219 31.3051 40.852 25.9451 46.502 19.7251L46.5119 19.7451Z" fill="#FFF5B2" style="fill:#FFF5B2;fill:color(display-p3 1.0000 0.9608 0.6980);fill-opacity:1;"/>
<path d="M170.412 112.785C162.872 112.785 153.982 109.855 145.302 106.995C135.092 103.625 124.542 100.145 117.362 102.035C113.752 102.985 110.542 103.985 107.432 104.955C96.5819 108.335 88.0019 110.995 72.9019 108.555C62.1819 106.825 52.1219 106.315 43.2419 105.875C36.2519 105.525 29.6619 105.195 23.7819 104.325C18.0119 103.465 12.0719 99.3652 7.49192 93.0652C1.71192 85.1152 -1.02808 75.0252 0.351923 66.7452C0.681923 64.7552 0.981921 62.6451 1.27192 60.6051C3.22192 46.9351 5.42191 31.4352 20.3719 30.3352C21.8319 29.9452 40.5719 24.7951 45.7719 19.0751C51.4819 12.7951 69.9319 0.0951483 87.6319 3.23515C95.9219 4.70515 100.992 3.25514 105.902 1.85514C111.262 0.325144 116.332 -1.12484 124.722 1.27516C130.712 2.98516 139.592 3.46516 149.002 3.96516C164.332 4.78516 180.182 5.63516 186.692 11.9652C189.982 15.1552 192.592 18.8552 195.362 22.7752C201.122 30.9152 207.662 40.1452 222.262 46.7852C244.222 56.7652 243.492 61.7352 241.332 76.4952L241.192 77.4851C239.072 92.0251 236.182 111.945 213.092 111.945C203.662 111.945 198.682 110.345 195.042 109.175C190.262 107.645 187.622 106.795 179.082 110.995C176.502 112.255 173.572 112.785 170.402 112.785H170.412ZM122.002 99.4851C128.932 99.4851 137.242 102.225 145.932 105.085C157.892 109.025 170.262 113.105 178.222 109.195C187.492 104.645 190.572 105.635 195.672 107.275C199.382 108.465 203.992 109.945 213.112 109.945C234.462 109.945 237.102 91.7852 239.232 77.2052L239.372 76.2151C241.472 61.8351 242.042 57.9652 221.452 48.6152C206.352 41.7552 199.652 32.2852 193.742 23.9352C191.022 20.0952 188.462 16.4752 185.312 13.4052C179.332 7.59516 163.172 6.72516 148.902 5.96516C139.382 5.45516 130.382 4.97515 124.182 3.20515C116.332 0.96515 111.542 2.33517 106.462 3.78517C101.582 5.17517 96.0419 6.75515 87.3019 5.20515C70.0919 2.14515 51.9419 15.2852 47.2719 20.4252C41.4919 26.7852 21.6519 32.0751 20.8119 32.2951C20.7519 32.3151 20.6919 32.3251 20.6219 32.3251C7.20191 33.2551 5.20192 47.2952 3.27192 60.8852C2.98192 62.9352 2.68191 65.0552 2.34191 67.0652C1.04191 74.8352 3.64191 84.3452 9.12191 91.8752C13.3919 97.7352 18.8419 101.555 24.0919 102.335C29.8719 103.195 36.4219 103.525 43.3519 103.865C52.2819 104.315 62.4019 104.815 73.2319 106.565C87.8719 108.935 96.2419 106.325 106.852 103.035C109.982 102.065 113.212 101.055 116.862 100.095C118.472 99.6751 120.192 99.4851 122.012 99.4851H122.002Z" fill="black" style="fill:black;fill-opacity:1;"/>
</svg>
