<?xml version="1.0" encoding="UTF-8"?>
<svg id="Layer_2" data-name="Layer 2" xmlns="http://www.w3.org/2000/svg" xmlns:xlink="http://www.w3.org/1999/xlink" viewBox="0 0 565.64 982.55">
  <defs>
    <style>
      .cls-1 {
        fill: #ba2b2b;
      }

      .cls-2, .cls-3, .cls-4, .cls-5 {
        fill: #ffc23b;
      }

      .cls-6, .cls-7, .cls-8 {
        fill: #659956;
      }

      .cls-9, .cls-10, .cls-11, .cls-8, .cls-12, .cls-13, .cls-14, .cls-15, .cls-16, .cls-17, .cls-18, .cls-19 {
        stroke: #ffc23b;
      }

      .cls-9, .cls-10, .cls-11, .cls-15, .cls-16, .cls-17, .cls-18, .cls-19, .cls-20 {
        stroke-miterlimit: 10;
      }

      .cls-9, .cls-21 {
        fill: #dd5252;
      }

      .cls-9, .cls-8, .cls-12, .cls-14, .cls-15, .cls-5 {
        stroke-width: 12.71px;
      }

      .cls-22 {
        opacity: .3;
      }

      .cls-22, .cls-23, .cls-12 {
        fill: #fff;
      }

      .cls-24 {
        fill: #ffcaca;
      }

      .cls-10 {
        fill: #bf3c3c;
      }

      .cls-10, .cls-11 {
        stroke-width: 7.01px;
      }

      .cls-25 {
        clip-path: url(#clippath-1);
      }

      .cls-26 {
        clip-path: url(#clippath-3);
      }

      .cls-27 {
        clip-path: url(#clippath-2);
      }

      .cls-11 {
        fill: #c3193c;
      }

      .cls-7 {
        stroke-width: 8px;
      }

      .cls-7, .cls-8, .cls-12, .cls-28, .cls-13, .cls-14, .cls-3, .cls-4, .cls-5 {
        stroke-linejoin: round;
      }

      .cls-7, .cls-8, .cls-12, .cls-28, .cls-13, .cls-14, .cls-3, .cls-4, .cls-5, .cls-20 {
        stroke-linecap: round;
      }

      .cls-7, .cls-20 {
        stroke: #427c50;
      }

      .cls-29 {
        fill: #282828;
      }

      .cls-28 {
        stroke: #282828;
        stroke-width: 10.74px;
      }

      .cls-28, .cls-13, .cls-14, .cls-15, .cls-16, .cls-17, .cls-18, .cls-19, .cls-20 {
        fill: none;
      }

      .cls-13 {
        stroke-width: 8.98px;
      }

      .cls-16 {
        stroke-width: 10.89px;
      }

      .cls-17 {
        stroke-width: 8.98px;
      }

      .cls-18 {
        stroke-width: 12.25px;
      }

      .cls-19 {
        stroke-width: 6.24px;
      }

      .cls-30 {
        fill: #d00000;
      }

      .cls-3 {
        stroke-width: 13.53px;
      }

      .cls-3, .cls-4, .cls-5 {
        stroke: #dd5252;
      }

      .cls-31 {
        fill: #ea2f2f;
      }

      .cls-4 {
        stroke-width: 7.53px;
      }

      .cls-32 {
        clip-path: url(#clippath);
      }

      .cls-20 {
        stroke-width: 6px;
      }
    </style>
    <clipPath id="clippath">
      <path class="cls-8" d="M523.98,277.32c-1.65,18.49-10.06,53.94,11.68,114.09,3.07,8.49,5.3,17.29,6.46,26.25,22.74,176.6-141.26,167.9-141.26,167.9l-205.19-139.55s105.76,2.57,167.96-33.12c62.2-35.69,1.31-98.76,1.31-98.76l142.19-49.81c8.67-3.04,17.67,3.85,16.86,13Z"/>
    </clipPath>
    <clipPath id="clippath-1">
      <ellipse class="cls-9" cx="237.78" cy="592.72" rx="175.36" ry="258.26"/>
    </clipPath>
    <clipPath id="clippath-2">
      <path class="cls-8" d="M70.66,514.28s-134.69,140.53-14.23,221.31,371.85-27.15,345.9,113.46-178.45,118.58-178.45,118.58c0,0,193.59,66.63,269.88-171.92,76.29-238.54-504.03-116.68-423.1-281.44Z"/>
    </clipPath>
    <clipPath id="clippath-3">
      <circle class="cls-12" cx="438.77" cy="218.88" r="120.51"/>
    </clipPath>
  </defs>
  <g id="Layer_1-2" data-name="Layer 1">
    <g>
      <path class="cls-2" d="M441.62,89h-19.52c-.52,0-.97-3.26-1.11-8.01l-2.02-66.78c-.22-7.11.34-14.21,1.11-14.21h23.51c.77,0,1.32,7.03,1.12,14.11l-1.96,66.78c-.14,4.79-.6,8.11-1.12,8.11Z"/>
      <circle class="cls-11" cx="431.83" cy="111.52" r="76.35"/>
      <g>
        <path class="cls-6" d="M523.98,277.32c-1.65,18.49-10.06,53.94,11.68,114.09,3.07,8.49,5.3,17.29,6.46,26.25,22.74,176.6-141.26,167.9-141.26,167.9l-205.19-139.55s105.76,2.57,167.96-33.12c62.2-35.69,1.31-98.76,1.31-98.76l142.19-49.81c8.67-3.04,17.67,3.85,16.86,13Z"/>
        <g class="cls-32">
          <ellipse class="cls-22" cx="391.65" cy="516.65" rx="81.5" ry="46.73" transform="translate(-171.59 195.59) rotate(-23.15)"/>
          <g>
            <path class="cls-31" d="M371.75,345.01l-36.16,63.77s12.81,77,109.93,90.01,132.18-23.55,132.18-23.55l-44.93-143.22-161.03,12.99Z"/>
            <circle class="cls-17" cx="425.75" cy="390.85" r="3.48"/>
            <circle class="cls-17" cx="424.57" cy="421.12" r="3.48"/>
            <circle class="cls-17" cx="424.84" cy="451.94" r="3.48"/>
            <circle class="cls-17" cx="484.23" cy="390.85" r="3.48"/>
            <circle class="cls-17" cx="484.23" cy="421.12" r="3.48"/>
            <circle class="cls-17" cx="484.23" cy="453.26" r="3.48"/>
            <path class="cls-13" d="M452.92,348.19s9.5,108.75.44,125.13"/>
          </g>
          <polygon class="cls-2" points="371.75 322.24 536.47 289.45 538.47 345.01 369.86 359.59 371.75 322.24"/>
        </g>
        <path class="cls-14" d="M523.98,277.32c-1.65,18.49-10.06,53.94,11.68,114.09,3.07,8.49,5.3,17.29,6.46,26.25,22.74,176.6-141.26,167.9-141.26,167.9l-205.19-139.55s105.76,2.57,167.96-33.12c62.2-35.69,1.31-98.76,1.31-98.76l142.19-49.81c8.67-3.04,17.67,3.85,16.86,13Z"/>
      </g>
      <g>
        <ellipse class="cls-21" cx="237.78" cy="592.72" rx="175.36" ry="258.26"/>
        <g class="cls-25">
          <path class="cls-1" d="M80.13,380.17s97.73-12.61,120.46,50.86c22.72,63.47,77.03,17.83,69.1-33.02-7.93-50.86,109.47-11.23,109.47-11.23l-61.91-54.75h-187.58l-49.54,48.15Z"/>
          <path class="cls-1" d="M366.93,839.32s-97.5-14.3-102.21-81.55c-4.71-67.25-69.33-38.01-75.46,13.1s-108.42-18.8-108.42-18.8l44.79,69.46,180.58,50.74,60.71-32.95Z"/>
          <path class="cls-5" d="M179.96,509.51s-9.78,64.4-41.27,67.77,50.45,41.99,48.2,95.63,10.52-94.25,36.99-101.23c26.47-6.98-47.7,20.5-43.92-62.18Z"/>
          <path class="cls-4" d="M309.23,446.88s-5.8,38.19-24.47,40.18,29.91,24.89,28.58,56.7c-1.33,31.81,6.24-55.88,21.93-60.02s-28.28,12.16-26.04-36.86Z"/>
          <path class="cls-3" d="M358.15,661.34s-14.34,49.8-60.5,52.41c-46.16,2.6,73.96,32.47,70.67,73.95-3.29,41.48,15.42-72.88,54.22-78.28,38.8-5.4-69.92,15.85-64.39-48.08Z"/>
        </g>
        <ellipse class="cls-15" cx="237.78" cy="592.72" rx="175.36" ry="258.26"/>
      </g>
      <ellipse class="cls-18" cx="237.78" cy="592.72" rx="76.69" ry="258.26"/>
      <path class="cls-2" d="M295.96,355.56h-115.96c-3.06,0-5.76-2.02-6.61-4.96l-12.03-41.38c-1.28-4.4,2.02-8.81,6.61-8.81h139.61c4.56,0,7.86,4.35,6.63,8.75l-11.62,41.38c-.83,2.97-3.54,5.02-6.63,5.02Z"/>
      <path class="cls-2" d="M246.59,316.95h-19.52c-.52,0-.97-3.26-1.11-8.01l-2.02-66.78c-.22-7.11.34-14.21,1.11-14.21h23.51c.77,0,1.32,7.03,1.12,14.11l-1.96,66.78c-.14,4.79-.6,8.11-1.12,8.11Z"/>
      <path class="cls-2" d="M179.6,834.38h115.96c3.06,0,5.76,1.65,6.61,4.04l12.03,33.72c1.28,3.59-2.02,7.17-6.61,7.17h-139.61c-4.56,0-7.86-3.55-6.63-7.13l11.62-33.72c.83-2.42,3.54-4.09,6.63-4.09Z"/>
      <g>
        <path class="cls-6" d="M70.66,514.28s-134.69,140.53-14.23,221.31,371.85-27.15,345.9,113.46-178.45,118.58-178.45,118.58c0,0,193.59,66.63,269.88-171.92,76.29-238.54-504.03-116.68-423.1-281.44Z"/>
        <g class="cls-27">
          <line class="cls-7" x1="116.52" y1="651.28" x2="116.52" y2="707.92"/>
          <path class="cls-7" d="M144.31,663.04s-10.69,47.02,3.21,57.71"/>
          <line class="cls-7" x1="95.15" y1="675.86" x2="155" y2="700.44"/>
          <line class="cls-7" x1="319.61" y1="699.77" x2="319.91" y2="737.79"/>
          <line class="cls-7" x1="337.48" y1="679.08" x2="342.18" y2="745.24"/>
          <line class="cls-20" x1="417.41" y1="765.6" x2="452.2" y2="770.3"/>
          <line class="cls-20" x1="436.35" y1="745.24" x2="442.4" y2="797.3"/>
        </g>
        <path class="cls-14" d="M70.66,514.28s-134.69,140.53-14.23,221.31,371.85-27.15,345.9,113.46-178.45,118.58-178.45,118.58c0,0,193.59,66.63,269.88-171.92,76.29-238.54-504.03-116.68-423.1-281.44Z"/>
      </g>
      <g>
        <circle class="cls-23" cx="438.77" cy="218.88" r="120.51"/>
        <g class="cls-26">
          <path class="cls-6" d="M309.58,238.72s45.77-44.74,78.64-1.16c32.87,43.59,83.88,20.74,87.47-2.92s36.23-58.11,90.08-27.56,10.33-120.12,10.33-120.12l-166.82-31-76.32,35.91-56.57,58.19,33.18,88.66Z"/>
          <circle class="cls-24" cx="355.91" cy="310.53" r="62.2"/>
          <circle class="cls-24" cx="542.79" cy="281.22" r="62.2"/>
        </g>
        <circle class="cls-14" cx="438.77" cy="218.88" r="120.51"/>
      </g>
      <ellipse class="cls-29" cx="391.71" cy="203.33" rx="17.25" ry="17.28"/>
      <ellipse class="cls-29" cx="476.65" cy="199.7" rx="17.25" ry="17.28"/>
      <circle class="cls-23" cx="475.65" cy="198.7" r="7.4"/>
      <circle class="cls-23" cx="391.71" cy="202.48" r="7.56"/>
      <path class="cls-30" d="M442.46,256.17c13.9,33.12-7.81,57.96-7.81,57.96l-1.3-5.77-7.76,1.21c4.17-2.41,7.3-5.38,9.6-8.67,2.48-3.54,4.02-7.45,4.89-11.44,3.45-15.83-3.59-32.9-3.59-32.9l5.96-.39Z"/>
      <path class="cls-10" d="M357.12,91.86h149.43v19.57c0,6.27-5.09,11.37-11.37,11.37h-126.7c-6.27,0-11.37-5.09-11.37-11.37v-19.57h0Z"/>
      <path class="cls-16" d="M429.7,32.73s-51.12,24.12-40.03,59.13"/>
      <path class="cls-16" d="M431.66,32.73s51.12,24.12,40.03,59.13"/>
      <path class="cls-19" d="M429.7,32.73s0,25.05,1.44,59.14"/>
      <path class="cls-28" d="M425.53,256.16s18.54,8.94,29.56-4.19"/>
    </g>
  </g>
</svg>