<?xml version="1.0" encoding="UTF-8"?>
<svg id="_레이어_1" data-name="레이어 1" xmlns="http://www.w3.org/2000/svg" viewBox="0 0 116.81 88.35">
  <defs>
    <style>
      .cls-1 {
        fill: #231815;
        stroke: #231815;
        stroke-miterlimit: 10;
      }
    </style>
  </defs>
  <path class="cls-1" d="M56.14,81.04c-3.14,0-5.56-.28-7.28-.84-1.72-.56-3-1.54-3.86-2.93-.86-1.39-1.55-3.27-2.08-5.63-.3-1.36-.64-2.93-1.02-4.7-.39-1.77-.79-3.46-1.2-5.06-.3-1.06-.8-2.03-1.51-2.88-.71-.86-1.86-1.29-3.46-1.29-1.3,0-2.63.22-3.99.67-1.36.44-2.72,1.23-4.08,2.35-2.07,1.66-4.04,3.55-5.9,5.68s-3.58,4.21-5.15,6.26c-1.57,2.04-2.97,3.8-4.21,5.28-.41.53-.87.96-1.38,1.29-.5.32-1.08.49-1.73.49s-1.2-.24-1.64-.71c-.44-.47-.67-1.06-.67-1.77,0-.95.21-1.79.62-2.53.41-.74.95-1.46,1.6-2.17.65-.71,1.33-1.42,2.04-2.13,1.24-1.24,2.79-2.74,4.66-4.48,1.86-1.74,3.78-3.55,5.77-5.41,1.98-1.86,3.74-3.56,5.28-5.1,2.31-2.25,4.7-4.6,7.19-7.05,2.48-2.45,4.82-4.82,7.01-7.1,2.19-2.28,3.9-4.16,5.15-5.63.53-.65.68-1.12.44-1.42-.24-.3-.77-.38-1.6-.27-1.36.3-3.19.77-5.5,1.42-2.31.65-4.66,1.33-7.05,2.04s-4.48,1.45-6.26,2.22c-1.12.47-2,.96-2.62,1.46-.62.5-1.35.75-2.17.75-1.18,0-2.32-.31-3.42-.93-1.1-.62-2.01-1.38-2.75-2.26-.74-.89-1.26-1.71-1.55-2.48-.24-.71-.34-1.45-.31-2.22.03-.77.1-1.57.22-2.4l1.42-.35c.65,1.54,1.39,2.77,2.22,3.68.83.92,1.66,1.38,2.48,1.38s2.29-.21,4.39-.62c2.1-.41,4.42-.9,6.97-1.46,2.54-.56,4.94-1.12,7.19-1.69,2.25-.56,4.02-.99,5.32-1.29,1.12-.3,1.97-.68,2.53-1.15.56-.47,1.14-.71,1.73-.71s1.3.16,2.13.49c.83.33,1.64.75,2.44,1.29.8.53,1.45,1.09,1.95,1.69.5.59.75,1.18.75,1.77,0,.53-.27.99-.8,1.38s-1.23.81-2.08,1.29c-.86.47-1.82,1.09-2.88,1.86-.89.77-2.08,1.82-3.59,3.15-1.51,1.33-3.12,2.79-4.83,4.39-1.72,1.6-3.4,3.17-5.06,4.7-1.66,1.54-3.08,2.9-4.26,4.08.89-.24,1.8-.37,2.75-.4.95-.03,1.77-.04,2.48-.04,1.48,0,2.87.34,4.17,1.02,1.3.68,2.22,1.82,2.75,3.42.53,1.48,1.05,3.08,1.55,4.79.5,1.72.96,3.43,1.38,5.15.65,2.6,1.46,4.39,2.44,5.37.98.98,2.59,1.46,4.84,1.46,2.66,0,4.82-.09,6.48-.27,1.66-.18,2.97-.38,3.95-.62.98-.24,1.83-.44,2.57-.62.74-.18,1.49-.27,2.26-.27,1.66,0,2.88.24,3.68.71.8.47,1.2,1.12,1.2,1.95s-.64,1.49-1.91,2c-1.27.5-2.88.9-4.84,1.2-1.95.29-3.95.5-5.99.62-2.04.12-3.83.18-5.37.18ZM28.55,22.04c1.83-.65,3.8-1.39,5.9-2.22,2.1-.83,3.8-1.57,5.1-2.22-.95-.18-2.28-.55-3.99-1.11-1.72-.56-3.56-1.46-5.55-2.71-1.98-1.24-3.89-2.96-5.72-5.15l1.24-1.33c2.9,2.07,5.72,3.7,8.47,4.88,2.75,1.18,5.63,1.83,8.65,1.95,1.06.06,1.91.03,2.53-.09.62-.12,1.29-.18,2-.18.83,0,1.64.15,2.44.44.8.3,1.49.71,2.09,1.24.59.53.89,1.15.89,1.86,0,.53-.22,1.01-.67,1.42-.44.42-1.17.62-2.17.62-.71,0-1.42.03-2.13.09-.71.06-1.69.12-2.93.18-1.36.12-3,.44-4.92.98-1.92.53-3.83,1.12-5.72,1.78-1.89.65-3.46,1.18-4.7,1.6l-.8-2.04Z"/>
  <path class="cls-1" d="M109.82,32.51c0,3.31-.72,6-2.17,8.07-1.45,2.07-3.68,3.81-6.7,5.23l-3.46,1.69c-2.19,1.07-3.62,1.98-4.3,2.75-.68.77-.99,1.92-.93,3.46l.27,6.57h-2.31l-.89-3.64c-.35-1.6-.65-2.87-.89-3.82-.24-.95-.35-1.8-.35-2.57,0-1.48.53-2.78,1.6-3.9,1.07-1.12,2.9-2.31,5.5-3.55l4.08-1.69c2.66-1.48,4.5-2.96,5.5-4.44,1-1.48,1.51-3.34,1.51-5.59,0-2.84-.86-5.31-2.57-7.41-1.72-2.1-4.41-4.15-8.07-6.17l10.12,5.59-16.15-2.31c-1.95-.29-3.28-.83-3.99-1.6-.71-.77-1.06-1.66-1.06-2.66,0-1.18.31-2.07.93-2.66.62-.59,1.49-1.03,2.62-1.33,2.54.53,5.1,1.32,7.67,2.35,2.57,1.04,4.92,2.37,7.05,3.99,2.13,1.63,3.83,3.56,5.1,5.81,1.27,2.25,1.91,4.85,1.91,7.81ZM91.19,79.8c-1.36,0-2.5-.47-3.42-1.42-.92-.95-1.38-2.07-1.38-3.37s.46-2.4,1.38-3.28c.92-.89,2.05-1.33,3.42-1.33s2.59.44,3.5,1.33c.92.89,1.38,1.98,1.38,3.28s-.46,2.43-1.38,3.37c-.92.95-2.08,1.42-3.5,1.42Z"/>
</svg>