<?xml version="1.0" encoding="UTF-8"?>
<svg id="Layer_2" data-name="Layer 2" xmlns="http://www.w3.org/2000/svg" xmlns:xlink="http://www.w3.org/1999/xlink" viewBox="0 0 748.09 669.27">
  <defs>
    <style>
      .cls-1 {
        fill: #ffc23b;
      }

      .cls-2, .cls-3, .cls-4, .cls-5, .cls-6, .cls-7 {
        fill: none;
      }

      .cls-2, .cls-8, .cls-9, .cls-7 {
        stroke: #efca6f;
      }

      .cls-2, .cls-4, .cls-5, .cls-6 {
        stroke-linecap: round;
        stroke-linejoin: round;
      }

      .cls-2, .cls-9, .cls-7 {
        stroke-width: 13.51px;
      }

      .cls-10 {
        fill: url(#linear-gradient-2);
      }

      .cls-3, .cls-8, .cls-11, .cls-9, .cls-7 {
        stroke-miterlimit: 10;
      }

      .cls-3, .cls-6 {
        stroke: #ffa543;
        stroke-width: 18.01px;
      }

      .cls-12 {
        fill: url(#linear-gradient);
      }

      .cls-8 {
        fill: #5b140a;
        stroke-width: 12.48px;
      }

      .cls-11 {
        fill: #efca6f;
        stroke: #e56d29;
        stroke-width: 3px;
      }

      .cls-4 {
        stroke-width: 14px;
      }

      .cls-4, .cls-5 {
        stroke: #ffead7;
      }

      .cls-5 {
        stroke-width: 10.34px;
      }

      .cls-13, .cls-9 {
        fill: #c13340;
      }

      .cls-14 {
        fill: #ce9228;
      }

      .cls-15 {
        clip-path: url(#clippath);
      }
    </style>
    <clipPath id="clippath">
      <path class="cls-9" d="M549.34,208.64c-.62.28-1.22.57-1.87.85-76.56,32.74-228.2,6.15-228.61,6.07-75.08,42.87-144.1,118.59-144.1,204.87,0,202.83,117.73,242.08,262.95,242.08s262.95-39.26,262.95-242.08c0-91.14-71.24-170.5-151.33-211.8Z"/>
    </clipPath>
    <linearGradient id="linear-gradient" x1="147.53" y1="328.08" x2="762.3" y2="600.98" gradientUnits="userSpaceOnUse">
      <stop offset=".48" stop-color="#c13340"/>
      <stop offset="1" stop-color="#993440"/>
    </linearGradient>
    <linearGradient id="linear-gradient-2" x1="-440.05" y1="376.5" x2=".49" y2="376.5" gradientTransform="translate(582.83 28.75) rotate(12.7)" gradientUnits="userSpaceOnUse">
      <stop offset="0" stop-color="#ff8000"/>
      <stop offset=".43" stop-color="#cce0f4" stop-opacity="0"/>
    </linearGradient>
  </defs>
  <g id="Layer_1-2" data-name="Layer 1">
    <g>
      <g>
        <path class="cls-9" d="M554.43,110.14c-12.07-2.54-48.65,8.09-69.11,15.47-8.31,3-18.16,1.26-23.96-4.26-8.02-7.63-17.24-15.5-27.83-15.5-9.87,0-19.76,6.86-28.3,13.97-7.58,6.31-19.77,7.6-29.3,3.17-18.51-8.6-46.55-18.68-58.02-18.68-31.36,0-35.67,33.7-35.67,57.68s37.42,43.42,68.78,43.42c15.85,0,31.16,5.22,41.46-2.78,10.3,8,23.64,2.78,39.49,2.78s31.54,4.65,41.84-3.39c10.31,8.04,23.37,3.39,39.26,3.39,31.36,0,64.11-23.96,64.11-47.94s4.1-41.67-22.75-47.33Z"/>
        <path class="cls-8" d="M323.52,215.51c-4.39-1.48-8.31-4.23-10.9-8.07-3.4-5.03-.39-15.4,7.25-16.65,42.56-6.99,90.63,28.55,226.59-6.6,5.06-1.31,10.6.78,13.57,4.48,3.3,4.11,3.5,10.55-10.69,19.36-26.71,16.58-154.54,31.48-154.54,31.48l-71.28-24Z"/>
        <g>
          <path class="cls-13" d="M549.34,208.64c-.62.28-1.22.57-1.87.85-76.56,32.74-228.2,6.15-228.61,6.07-75.08,42.87-144.1,118.59-144.1,204.87,0,202.83,117.73,242.08,262.95,242.08s262.95-39.26,262.95-242.08c0-91.14-71.24-170.5-151.33-211.8Z"/>
          <g class="cls-15">
            <path class="cls-12" d="M577.41,226.55s-38.2,331.57-401.98,400.04c-363.79,68.47,494.39,118.01,494.39,118.01l88.36-324.16-92.38-229.64-88.39,35.76Z"/>
            <path class="cls-10" d="M137.41,545.68S211.21,181.09,483.75,178.3s-382.31-15.01-382.31-15.01l-11.85,366.99,47.81,15.4Z"/>
          </g>
          <path class="cls-7" d="M549.34,208.64c-.62.28-1.22.57-1.87.85-76.56,32.74-228.2,6.15-228.61,6.07-75.08,42.87-144.1,118.59-144.1,204.87,0,202.83,117.73,242.08,262.95,242.08s262.95-39.26,262.95-242.08c0-91.14-71.24-170.5-151.33-211.8Z"/>
        </g>
        <g>
          <ellipse class="cls-3" cx="382.82" cy="281.86" rx="58.34" ry="32.57" transform="translate(-89.64 229.17) rotate(-30)"/>
          <ellipse class="cls-3" cx="489.89" cy="274.98" rx="32.57" ry="58.34" transform="translate(6.81 561.74) rotate(-60)"/>
          <path class="cls-6" d="M433.34,252.69s-5.79,74.43-44.35,117.91"/>
          <path class="cls-6" d="M438.8,249.46s-8.09,83.59,51.09,123.73"/>
        </g>
        <g>
          <ellipse class="cls-7" cx="382.82" cy="281.86" rx="58.34" ry="32.57" transform="translate(-89.64 229.17) rotate(-30)"/>
          <ellipse class="cls-7" cx="489.89" cy="274.98" rx="32.57" ry="58.34" transform="translate(6.81 561.74) rotate(-60)"/>
          <path class="cls-2" d="M433.34,252.69s-5.79,74.43-44.35,117.91"/>
          <path class="cls-2" d="M438.8,249.46s-8.09,83.59,51.09,123.73"/>
        </g>
        <path class="cls-11" d="M372.65,490.09c0,28.36-2.03,60.78-9.23,79.91l-16.21-10.58c6.53-18.68,8.1-41.42,8.1-70.01v-20.03h17.33v20.71ZM379.62,583.73v-126.5h-28.59v-21.38h75.63v21.38h-27.91v126.5h-19.13ZM357.57,416.93v-20.93h63.03v20.93h-63.03ZM405.74,557.39v-88.01h16.88v88.01h-16.88ZM428.7,416.03v-20.03h99.72v20.03h-99.72ZM503.65,580.58v-9h-52.67v11.93h-20.71v-99.04h94.09v96.12h-20.71ZM436.35,475.46v-50.65h82.16v50.65h-82.16ZM450.98,518.23h15.76v-14.63h-15.76v14.63ZM450.98,552.44h15.76v-15.76h-15.76v15.76ZM456.83,457.45h40.97v-14.86h-40.97v14.86ZM486.77,503.59v14.63h16.88v-14.63h-16.88ZM486.77,552.44h16.88v-15.76h-16.88v15.76Z"/>
        <g>
          <path class="cls-14" d="M158.41,200.04c-33.98-15.49-88.99,8.58-122.87,53.77-33.88,45.19-33.8,94.37.18,109.86,33.98,15.49,88.99-8.58,122.87-53.77,33.88-45.19,33.8-94.37-.18-109.86ZM119.78,295.73c-35.15-4.13-47.53,36.07-65.14,28.72-3.92-17.97,14.01-44.15,1.36-55.34,18.36-23.21,27.13-8.89,65.14-28.72-21.53,33.52,17,32.13-1.36,55.34Z"/>
          <path class="cls-1" d="M148.23,185.05c-33.98-15.49-88.99,8.58-122.87,53.77-33.88,45.19-33.8,94.37.18,109.86,33.98,15.49,88.99-8.58,122.87-53.77,33.88-45.19,33.8-94.37-.18-109.86ZM109.6,280.74c-35.15-4.13-47.53,36.07-65.14,28.72-3.92-17.97,14.01-44.15,1.36-55.34,18.36-23.21,27.13-8.89,65.14-28.72-21.53,33.52,17,32.13-1.36,55.34Z"/>
        </g>
        <g>
          <path class="cls-14" d="M402.7,23.7c-15.23-17.03-51.97-17.07-82.06-.09-30.09,16.98-42.14,44.56-26.91,61.59,15.23,17.03,51.97,17.07,82.06.09,30.09-16.98,42.14-44.56,26.91-61.59ZM357.54,67.81c-18.68-10.96-35.49,8.52-43.55.08,2.22-11.03,18.71-21.29,14.37-30.67,15.99-8.49,17.39,1.69,43.55-.08-20.3,13.48,1.62,22.18-14.37,30.67Z"/>
          <path class="cls-1" d="M400.68,12.8c-15.23-17.03-51.97-17.07-82.06-.09-30.09,16.98-42.14,44.56-26.91,61.59,15.23,17.03,51.97,17.07,82.06.09,30.09-16.98,42.14-44.56,26.91-61.59ZM355.52,56.91c-18.68-10.96-35.49,8.52-43.55.08,2.22-11.03,18.71-21.29,14.37-30.67,15.99-8.49,17.39,1.69,43.55-.08-20.3,13.48,1.62,22.18-14.37,30.67Z"/>
        </g>
        <g>
          <path class="cls-14" d="M712.85,251.28c25.33-22.65,25.39-77.29.13-122.04-25.26-44.75-66.27-62.67-91.6-40.02-25.33,22.65-25.39,77.29-.13,122.04,25.26,44.75,66.27,62.67,91.6,40.02ZM647.24,184.11c16.29-27.78-12.67-52.79-.11-64.77,16.4,3.3,31.66,27.82,45.61,21.37,12.62,23.79-2.51,25.86.11,64.77-20.05-30.19-32.98,2.42-45.61-21.37Z"/>
          <path class="cls-1" d="M729.06,248.28c25.33-22.65,25.39-77.29.13-122.04-25.26-44.75-66.27-62.67-91.6-40.02-25.33,22.65-25.39,77.29-.13,122.04,25.26,44.75,66.27,62.67,91.6,40.02ZM663.46,181.11c16.29-27.78-12.67-52.79-.11-64.77,16.4,3.3,31.66,27.82,45.61,21.37,12.62,23.79-2.51,25.86.11,64.77-20.05-30.19-32.98,2.42-45.61-21.37Z"/>
        </g>
      </g>
      <path class="cls-4" d="M573.48,267.78s45.33,13.37,75.54,77.49"/>
      <circle class="cls-5" cx="655.42" cy="374.24" r="2.46"/>
    </g>
  </g>
</svg>