<svg width="567" height="316" viewBox="0 0 567 316" fill="none" xmlns="http://www.w3.org/2000/svg">
<g clip-path="url(#clip0_2411_74)">
<path d="M64.8108 25.7293L145.231 15.8696L277.127 37.8476L342.604 62.8699L449.282 39.3796L512.896 54.7976L516.387 119.592L507.504 151.705L541.664 219.78L513.524 261.202L461.303 295.416L306.973 278.918L250.712 259.16L130.288 285.262L91.0684 231.132L101.54 162.625L27.1598 119.592L14.4526 79.1521L41.1613 54.6601L45.397 34.4498L64.8108 25.7293Z" fill="white" style="fill:white;fill-opacity:1;"/>
<path d="M385.373 316C383.805 316 382.236 315.627 380.824 314.939C375.666 312.366 373.098 308.085 371.411 305.257C370.862 304.353 370.038 302.978 369.666 302.684C365.077 301.034 355.704 299.718 347.448 298.579C340.349 297.597 332.995 296.556 327.25 295.181C320.759 293.629 310.581 290.408 299.815 286.991C285.265 282.395 265.341 276.09 259.517 275.815H259.282C253.144 275.815 235.672 281.314 222.905 285.321C212.532 288.582 202.727 291.665 195.962 293.06C168.625 298.638 144.368 301.466 123.876 301.466C96.01 301.466 74.9294 296.143 61.2221 285.635C52.1035 278.643 46.848 269.844 45.593 259.513C42.6123 234.943 63.5164 208.781 78.7729 189.69C79.1259 189.239 79.4789 188.807 79.8318 188.374C53.3389 169.598 4.96133 128.136 0.353011 89.9939C-1.33344 76.0686 2.90229 63.3611 12.5896 53.2657C16.6096 49.0626 21.061 46.8432 24.63 45.0559C26.591 44.0738 28.454 43.1507 29.3952 42.2669C30.4934 41.2456 31.4151 39.3011 32.4936 37.0425C33.8467 34.1945 35.3959 30.9538 38.0236 27.9488C53.6527 10.1543 84.597 1.13916 129.994 1.13916C136.544 1.13916 143.289 1.33557 149.996 1.72839C156.742 2.1212 163.939 3.59426 171.567 5.12624C180.058 6.85462 188.824 8.62229 196.138 8.62229C205.002 8.62229 208.12 5.95115 209.708 3.94779C211.669 1.43377 214.63 0 217.827 0C220.552 0 223.2 1.09988 225.121 3.02468C227.063 4.98875 228.122 7.58133 228.122 10.3507V10.5667C228.122 11.4898 228.122 12.8254 228.181 13.8467C234.789 16.9892 254.85 21.978 264.949 24.492C271.675 26.1615 276.97 27.4774 280.108 28.4791C284.363 29.8343 290.991 32.4072 298.658 35.3926C309.15 39.4779 328.701 47.0592 333.231 47.3342C337.368 47.2164 355.488 40.892 366.313 37.121C375.823 33.8017 384.785 30.6592 390.374 29.2647C403.944 25.8276 451.419 14.6324 492.914 14.6324C529.447 14.6324 552.567 23.5689 561.646 41.167C580.923 78.5826 544.076 114.604 517.171 140.922C514.151 143.868 511.229 146.716 508.563 149.427C518.466 157.578 526.172 166.966 532.84 178.888C533.389 179.89 533.781 180.95 533.977 182.03C534.957 182.639 535.84 183.405 536.585 184.309C557.077 209.37 558.332 236.16 539.938 255.998C535.605 260.672 529.643 263.54 524.858 265.857C523.407 266.564 521.466 267.487 520.623 268.018C520.603 268.057 520.583 268.077 520.583 268.077C520.525 268.194 520.407 268.725 520.328 269.078C519.015 274.637 516.524 279.154 508.543 284.123C508.347 284.398 508.151 284.673 507.915 284.928C494.6 300.582 465.382 308.183 418.592 308.183C414.925 308.183 411.553 308.144 408.591 308.085C404.924 308.006 401.571 307.201 398.865 306.553C397.884 306.317 396.845 306.062 395.982 305.905C395.825 306.376 395.629 307.024 395.453 307.849C394.414 312.563 390.178 315.98 385.373 315.98V316ZM393.629 275.835C395.335 279.056 401.61 284.516 424.221 284.516C432.025 284.516 439.83 283.887 446.086 283.377L448.576 283.18C453.773 282.768 459.322 281.864 464.891 280.529C460.616 280.764 456.243 280.882 451.772 280.882C432.025 280.882 412.357 278.584 393.433 275.54C393.492 275.638 393.551 275.736 393.59 275.835H393.629ZM292.481 261.615C297.443 262.931 302.365 264.306 307.208 265.661C318.386 268.784 329.917 272.024 341.29 274.283C344.055 274.833 346.997 275.579 350.095 276.365C356.272 277.936 363.293 279.704 368.646 279.704C374 279.704 374.451 278.211 374.902 277.033C375.529 275.403 376.529 273.969 377.804 272.869C376.098 272.555 374.411 272.24 372.725 271.926C351.017 267.9 328.603 262.381 305.816 255.506C305.051 256.155 304.169 256.705 303.208 257.097L292.501 261.634L292.481 261.615ZM121.091 214.143C116.267 224.081 113.031 235.394 117.542 243.29C123.758 254.21 144.466 260.22 175.861 260.24C188.098 260.24 200.099 259.317 210.414 258.158L121.091 214.143ZM158.879 167.084C273.244 226.851 371.646 257.156 451.478 257.156C460.518 257.156 469.46 256.763 478.05 255.998C499.444 254.092 501.817 250.459 501.915 250.321C503.189 248.161 497.934 236.121 494.796 228.933C493.6 226.183 492.326 223.256 491.012 220.173C489.659 216.971 489.992 213.338 491.914 210.451C493.836 207.544 497.052 205.815 500.523 205.815C503.091 205.815 505.543 206.778 507.445 208.506C517.073 217.207 521.525 229.208 523.545 238.989C525.27 237.26 526.545 235.335 527.368 233.234C530.526 225.122 527.898 212.768 519.328 195.445C518.897 194.581 518.603 193.677 518.426 192.754C517.603 192.244 516.858 191.635 516.21 190.908C500.209 173.271 492.11 166.396 488.502 163.765L475.265 172.446C477.187 174.056 479.344 175.726 480.991 176.963C489.835 183.759 500.836 192.204 494.404 202.85C492.541 205.914 489.188 207.799 485.619 207.799C483.325 207.799 481.07 207.013 479.246 205.599L454.028 185.821L371.372 228.52L360.018 212.768C365.705 207.21 379.196 199.354 394.825 190.28C406.179 183.68 423.652 173.526 431.966 167.064C431.653 166.868 431.359 166.691 431.084 166.534C427.809 164.55 424.887 162.783 422.75 160.543C344.977 107.199 202.825 52.1658 98.6769 52.1658C86.7149 52.1658 75.4196 52.9122 65.1048 54.3852C55.6725 55.7208 51.8485 57.4295 50.4955 58.2152C47.4952 81.352 97.6572 127.449 129.249 147.738C137.485 142.945 145.584 137.839 154.094 132.457C176.665 118.218 200.021 103.487 226.004 95.0612L227.475 94.5898H229.181C233.632 94.5702 237.574 97.4181 238.966 101.68C240.358 105.923 238.888 110.558 235.319 113.209C225.612 120.417 215.238 126.958 205.217 133.282C190.432 142.611 176.45 151.43 164.154 162.331L163.39 162.999C161.546 164.609 160.075 165.964 158.918 167.084H158.879ZM133.798 194.542C148.584 203.223 163.272 211.511 178.352 218.68C227.298 241.994 245.633 248.298 252.379 249.477C252.614 249.516 253.007 249.555 253.615 249.555C258.144 249.555 265.616 247.041 272.597 244.567C247.124 235.551 221.454 224.945 196.099 212.925C177.567 204.146 159.526 193.795 143.191 184.23L133.798 194.522V194.542ZM29.8659 69.7639C26.14 74.3009 23.3358 80.9395 23.3554 85.9086C23.3946 111.913 70.1838 154.474 99.1084 172.269L110.423 161.84C64.34 131.848 37.8275 101.562 29.8855 69.7639H29.8659ZM317.366 78.8183C362.94 97.9288 407.376 121.989 449.282 150.428L460.813 141.197C459.185 140.019 457.597 138.939 456.675 138.31C455.459 137.485 454.42 136.759 453.714 136.248C433.476 121.183 346.918 73.2796 331.819 73.2796C330.191 73.4171 327.034 74.8116 324.249 76.0293C322.073 76.9917 319.778 77.9934 317.366 78.838V78.8183ZM370.352 63.5575C405.199 78.779 440.32 98.6162 476.912 123.756C486.815 115.92 495.326 101.7 497.267 88.9922C498.601 80.2325 496.895 73.26 492.188 68.2516C484.639 60.2382 466.205 55.819 440.32 55.819C414.435 55.819 387.923 59.9436 370.352 63.5575ZM217.513 45.488C246.045 52.6176 274.558 61.7898 302.659 72.8475L301.325 61.8094L303.855 60.847C280.637 52.1658 234.064 38.0048 224.337 37.6317C224.337 37.6317 223.808 37.6317 223.788 37.6317C223.729 37.7495 223.67 37.8477 223.611 37.9459C222.553 39.8707 220.846 42.915 217.513 45.488ZM102.226 28.5184C136.7 28.5184 171.959 35.2551 198.825 41.1081C199.374 41.2259 199.903 41.3438 200.433 41.4616L194.275 32.0341C172.136 28.5969 147.211 24.7866 123.562 24.7866C109.051 24.7866 96.3826 26.1811 85.1461 29.0683C90.6761 28.6951 96.363 28.5184 102.226 28.5184Z" fill="white" style="fill:white;fill-opacity:1;"/>
<path d="M136.818 128.824C133.896 128.824 131.092 127.567 129.151 125.387C126.582 122.519 124.738 119.632 123.111 117.098C119.502 111.461 118.777 110.538 114.463 110.538H113.796C110.168 110.538 106.756 108.594 104.913 105.451C103.069 102.309 103.011 98.3805 104.795 95.1987C108.07 89.2672 113.894 88.2262 117.012 87.6763C119.071 87.3227 119.914 87.1263 120.699 86.4978C122.228 85.2997 124.307 81.5876 124.876 78.1898C125.719 73.1814 129.974 69.5479 135.034 69.5479C136.642 69.5479 138.25 69.9407 139.681 70.6674C146.054 73.9081 147.466 80.1539 148.211 83.5124C148.447 84.5337 148.819 86.2425 149.133 86.4978C150.231 87.4406 152.604 88.0298 156.173 88.2851C159.644 88.5208 162.762 90.4849 164.468 93.5488C166.174 96.5932 166.233 100.266 164.605 103.35C161.33 109.576 155.192 110.97 151.898 111.697C150.741 111.952 149.153 112.306 148.878 112.64C148.447 113.15 147.388 114.82 147.133 119.121C146.799 124.562 142.289 128.824 136.838 128.824H136.818Z" fill="white" style="fill:white;fill-opacity:1;"/>
<path d="M385.766 308.34C385.511 308.34 385.256 308.301 385.02 308.203C381.491 306.749 379.726 303.803 378.157 301.191C376.588 298.579 375.255 296.32 372.392 295.299C366.999 293.335 357.625 292.038 348.546 290.762C341.624 289.799 334.486 288.798 329.113 287.501C322.896 286.009 312.856 282.827 302.208 279.468C285.579 274.204 266.753 268.253 259.909 267.939C259.713 267.939 259.517 267.939 259.321 267.939C251.967 267.939 235.299 273.183 220.591 277.818C210.414 281.02 200.805 284.044 194.432 285.341C167.606 290.821 143.878 293.59 123.915 293.59C97.7945 293.59 78.3218 288.817 66.0265 279.37C58.6531 273.713 54.3978 266.702 53.4173 258.531C50.8288 237.241 70.5367 212.572 84.95 194.561C87.2051 191.733 89.3818 189.023 91.2448 186.567C69.3013 172.249 12.9033 127.842 8.17732 89.1101C6.7458 77.4042 10.1383 67.1713 18.2568 58.6865C21.3355 55.4655 24.9634 53.6781 28.1402 52.0872C30.6306 50.8499 32.9642 49.6714 34.7487 48.0216C36.945 45.979 38.2197 43.2882 39.5727 40.4403C40.7689 37.9263 42.0044 35.3337 43.9261 33.1536C61.4574 13.1789 100.403 8.99544 129.994 8.99544C136.406 8.99544 142.976 9.19185 149.525 9.58467C155.722 9.95784 162.664 11.3523 169.998 12.845C178.862 14.652 188.02 16.4982 196.118 16.4982C206.08 16.4982 212.61 13.7092 216.65 7.69915C217.023 7.14921 217.63 6.83496 218.278 6.83496C218.474 6.83496 218.65 6.8546 218.846 6.91352C219.67 7.16885 220.239 7.9152 220.239 8.77939C220.239 9.34898 220.239 9.9382 220.239 10.5274C220.239 13.4343 220.219 16.4393 221.376 18.7569C223.298 22.2529 250.124 28.9112 263.008 32.1126C269.342 33.6839 274.793 35.0391 277.695 35.9622C281.715 37.2388 288.246 39.7725 295.795 42.7186C309.326 47.9823 327.858 55.1708 333.093 55.1708C338.349 55.1708 354.547 49.5143 368.842 44.5256C378.176 41.2652 387.001 38.1816 392.256 36.846C405.591 33.4678 452.282 22.4494 492.875 22.4494C526.231 22.4494 547.018 29.9521 554.646 44.7416C571.255 76.9917 536.82 110.676 511.661 135.266C506.131 140.687 500.856 145.833 496.777 150.35C510.386 159.797 519.76 170.639 527.878 186.194C537.762 197.252 557.705 225.26 534.173 250.616C530.859 254.191 525.623 256.724 521.446 258.747C518.622 260.122 515.936 261.399 514.995 262.459C513.387 264.286 513.053 265.641 512.681 267.232C511.818 270.866 510.641 273.772 503.287 278.074C492.659 292.804 464.146 300.287 418.553 300.287C414.945 300.287 411.651 300.248 408.748 300.189C405.944 300.13 403.277 299.502 400.708 298.873C398.512 298.343 396.433 297.852 394.668 297.852C392.903 297.852 389.491 297.852 387.687 306.73C387.57 307.299 387.197 307.79 386.687 308.065C386.393 308.222 386.079 308.301 385.766 308.301V308.34ZM384.432 277.386C385.197 277.386 385.903 277.838 386.217 278.545C390.393 287.855 402.826 292.372 424.22 292.372C432.359 292.372 440.32 291.724 446.733 291.213L449.203 291.017C466.088 289.681 485.717 283.612 500.562 275.167C502.111 272.83 504.346 268.45 505.229 265.818C489.09 270.669 471.578 273.026 451.792 273.026C425.358 273.026 398.845 268.784 374.117 264.188C351.389 259.965 327.858 254.092 303.934 246.707C304.012 247.552 303.58 248.377 302.776 248.711L272.009 261.733L270.204 264.423C282.01 266.78 293.717 270.041 305.071 273.222C316.386 276.385 328.073 279.665 339.741 281.982C342.31 282.493 345.153 283.2 348.154 283.966C354.782 285.635 362.292 287.541 368.626 287.541C376.314 287.541 380.726 284.752 382.549 278.781C382.785 277.995 383.491 277.445 384.295 277.386C384.334 277.386 384.373 277.386 384.412 277.386H384.432ZM117.738 203.753C107.148 222.117 104.776 236.71 110.698 247.159C120.503 264.463 151.545 268.096 175.842 268.096C200.864 268.096 224.612 264.443 236.495 262.263L117.718 203.753H117.738ZM147.015 169.696C267.694 233.823 367.293 264.993 451.498 264.993C460.773 264.993 469.951 264.6 478.775 263.815C496.522 262.224 505.739 259.297 508.7 254.308C512.014 248.691 507.817 239.087 502.013 225.77C500.581 222.49 499.032 218.955 497.463 215.164C497.13 214.339 497.385 213.397 498.091 212.847C498.444 212.572 498.856 212.454 499.287 212.454C499.718 212.454 500.15 212.591 500.503 212.866C512.151 221.999 516.799 239.067 517.387 252.109C526.349 248.298 532.055 242.995 534.761 235.984C540.233 221.803 532.271 203.184 524.662 188.473C498.052 158.874 490.208 154.985 488.109 154.612L463.538 170.737C464.617 174.213 471.01 179.143 476.245 183.17C483.501 188.748 487.972 192.361 488.325 196.074C488.443 197.331 488.051 198.509 487.207 199.471C486.815 199.904 486.286 200.12 485.737 200.12C485.305 200.12 484.893 199.982 484.521 199.707L454.93 176.511L367.803 221.528C367.509 221.685 367.215 221.744 366.901 221.744C366.293 221.744 365.685 221.449 365.312 220.919C364.744 220.133 364.842 219.053 365.528 218.366C370.509 213.475 384.256 205.501 398.786 197.056C417.573 186.135 440.948 172.544 443.379 166.298C443.87 165.041 437.3 161.093 435.143 159.777C432.025 157.892 429.299 156.242 427.986 154.592C349.232 100.345 204.649 44.3095 98.6573 44.3095C86.3227 44.3095 74.6548 45.0755 63.9674 46.6075C46.2793 49.1215 43.4555 53.3835 43.0633 55.1119C36.0037 85.7711 101.638 140.313 129.053 156.89C138.838 151.352 148.702 145.125 158.232 139.115C181.254 124.601 205.06 109.576 231.24 101.641C231.436 101.582 231.612 101.562 231.808 101.562C232.534 101.562 233.22 101.955 233.554 102.623C233.985 103.467 233.75 104.508 233.005 105.078C222.827 112.836 211.728 119.848 201.001 126.624C186.608 135.718 171.704 145.125 158.918 156.439L158.193 157.067C148.29 165.729 147.074 168.773 146.996 169.696H147.015ZM121.483 196.388C139.348 206.974 156.918 217.168 174.999 225.79C214.944 244.822 240.535 255.389 251.065 257.235C251.85 257.372 252.712 257.431 253.634 257.431C259.968 257.431 268.753 254.308 277.264 251.284C284.775 248.613 292.481 245.863 298.894 245.136C266.008 234.727 232.475 221.508 199.472 205.855C179.254 196.27 160.173 185.114 141.701 174.272L121.483 196.407V196.388ZM35.5527 56.9778C24.3162 59.1186 15.4918 75.3812 15.4918 85.889C15.531 118.159 70.674 165.63 100.128 181.952L123.228 160.642C67.9286 126.486 39.2198 92.5275 35.5331 56.9582L35.5527 56.9778ZM102.226 36.3746C135.955 36.3746 170.684 43.0132 197.158 48.7876C284.245 67.7998 371.509 106.315 449.654 160.19L472.833 141.629C472.167 139.98 468.245 136.66 461.107 131.789C460.008 131.043 459.067 130.395 458.42 129.904C441.065 116.98 350.468 65.384 331.838 65.384C331.623 65.384 331.427 65.384 331.25 65.4037C328.269 65.659 324.798 67.1713 321.112 68.7819C316.366 70.8638 311.444 73.0243 306.444 73.0243C305.816 73.0243 305.189 72.985 304.561 72.9064C303.659 72.8082 302.953 72.1012 302.835 71.1977C302.718 70.2942 303.247 69.43 304.09 69.1158L323.837 61.6916C322.955 60.4346 321.249 59.59 318.974 58.5883C318.445 58.3526 317.915 58.117 317.405 57.8813C302.796 50.8695 238.319 30.286 224.631 29.7557C224.357 29.7557 224.102 29.7557 223.866 29.7557C219.18 29.7557 218.258 31.3859 216.748 34.116C215.65 36.08 214.297 38.5351 211.179 40.2439C210.885 40.401 210.551 40.4796 210.237 40.4796C209.59 40.4796 208.963 40.1653 208.59 39.5957L198.903 24.7866L196.687 24.4527C173.979 20.9174 148.231 16.9107 123.523 16.9107C103.579 16.9107 86.8325 19.4836 72.3605 24.767C62.8693 28.2237 51.6524 33.4482 46.2205 43.5435C63.183 38.7119 81.5379 36.355 102.187 36.355L102.226 36.3746ZM345.389 61.8291C388.354 78.2291 431.398 101.621 476.873 133.282C490.365 125.308 502.346 107.101 504.974 90.3671C506.209 82.55 505.974 71.4334 497.875 62.8504C488.698 53.1086 468.794 47.9627 440.301 47.9627C407.591 47.9627 372.568 54.6013 357.017 58.5294C356.253 58.7258 355.272 58.9026 354.174 59.099C351.585 59.5704 347.232 60.3756 345.389 61.8291Z" fill="white" style="fill:white;fill-opacity:1;"/>
<path d="M218.297 8.79886C218.336 12.3538 218.023 16.3802 219.65 19.6406C222.592 25.4935 266.773 34.5479 277.107 37.8475C288.932 41.6186 324.7 57.1544 333.113 57.1544C342.251 57.1544 379.431 42.1489 392.747 38.7706C412.18 33.8605 455.675 24.4525 492.894 24.4525C520.505 24.4525 544.645 29.6377 552.92 45.6842C572.922 84.4943 515.132 126.172 493.836 150.762C508.621 160.622 518.112 171.699 526.251 187.373C520.25 180.695 495.11 152.648 487.756 152.648C487.678 152.648 487.6 152.648 487.521 152.648L461.381 169.814C461.381 178.966 491.07 192.145 485.697 198.175L455.126 174.194L366.881 219.78C378.451 208.447 440.595 178.79 445.183 167.005C446.948 162.468 431.809 156.831 429.358 153.158C350.174 98.5178 204.962 42.3453 98.6769 42.3453C86.4599 42.3453 74.7528 43.0916 63.7125 44.6629C57.1628 45.586 42.6907 48.0607 41.1611 54.66C33.5525 87.6958 103.207 143.888 129.033 159.168C162.507 140.353 194.608 114.8 231.828 103.526C208.1 121.655 180.097 135.089 157.624 154.985C154.643 157.617 142.917 167.476 145.407 171.09C233.514 217.973 347.448 266.977 451.478 266.977C460.714 266.977 469.872 266.584 478.932 265.778C525.113 261.654 513.387 248.495 499.267 214.418C510.72 223.394 515.465 240.894 515.465 254.976C549.469 242.386 539.252 212.415 526.251 187.353C541.958 204.833 551.587 228.991 532.741 249.319C527.368 255.113 516.328 258.02 513.524 261.202C508.366 267.035 514.034 269.687 501.934 276.64C503.503 274.401 508.739 264.934 507.307 263.107C489.345 268.862 470.637 271.062 451.792 271.062C425.828 271.062 399.571 266.918 374.49 262.263C315.66 251.342 254.36 229.698 200.295 204.087C179.999 194.463 160.644 183.13 141.309 171.778L118.404 196.859C136.583 207.661 154.977 218.444 174.136 227.577C190.745 235.492 234.985 256.449 250.712 259.179C251.634 259.336 252.595 259.415 253.634 259.415C266.949 259.415 288.814 246.923 301.992 246.923H302.07L270.754 260.161L266.969 265.798C291.422 270.335 314.993 279.056 339.408 283.907C347.742 285.557 359.233 289.504 368.666 289.504C376.019 289.504 382.118 287.108 384.471 279.35C389.962 291.586 407.454 294.336 424.26 294.336C433.574 294.336 442.673 293.492 449.4 292.961C466.695 291.586 486.952 285.262 501.974 276.64C488.56 295.907 445.399 298.382 418.612 298.382C415.023 298.382 411.709 298.343 408.827 298.284C403.787 298.186 398.826 295.947 394.708 295.947C390.688 295.947 387.491 298.068 385.805 306.395C379.706 303.901 379.883 295.927 373.097 293.472C363.312 289.917 341.879 288.581 329.603 285.616C313.582 281.766 271.558 266.525 260.027 265.994C259.811 265.994 259.576 265.994 259.341 265.994C246.633 265.994 209.826 280.214 194.059 283.435C175.94 287.128 149.27 291.645 123.934 291.645C101.854 291.645 80.7731 288.228 67.2422 277.838C34.2192 252.521 77.5963 208.231 94.1078 186.096C63.6144 166.868 -18.3353 99.7355 19.6687 60.0612C24.8457 54.66 31.6699 53.5798 36.1018 49.4552C40.612 45.2325 41.5925 38.8099 45.4165 34.43C62.3202 15.1625 100.403 10.9397 130.013 10.9397C137.112 10.9397 143.721 11.1754 149.427 11.5289C163.036 12.3342 181.195 18.4621 196.138 18.4621C205.355 18.4621 213.355 16.1445 218.297 8.79886ZM42.7495 46.6466C61.8495 40.6758 81.93 38.3386 102.226 38.3386C134.092 38.3386 166.527 44.1129 196.746 50.7122C286.383 70.2744 374.627 110.636 449.733 162.645L474.834 142.533C475.696 138.585 463.068 130.945 459.557 128.352C441.85 115.173 351.134 63.4591 331.819 63.4591C331.564 63.4591 331.309 63.4591 331.074 63.4984C323.818 64.1072 314.876 71.119 306.424 71.119C305.875 71.119 305.326 71.0797 304.777 71.0208L326.367 62.9091C325.681 58.9024 321.406 57.6847 318.268 56.1724C303.914 49.2785 238.868 28.4003 224.729 27.8504C224.435 27.8504 224.16 27.8504 223.886 27.8504C214.081 27.8504 216.728 35.0193 210.257 38.5742L200.099 23.0384C176.254 19.3459 149.525 15.0053 123.562 15.0053C105.501 15.0053 87.813 17.1069 71.7329 22.9795C59.7709 27.3397 47.2598 33.8997 42.7691 46.6859M476.775 135.6C499.189 123.304 519.289 82.6874 499.287 61.495C488.325 49.8677 465.323 45.9984 440.301 45.9984C409.101 45.9984 374.745 52.0282 356.547 56.6241C352.762 57.5865 343.173 58.2739 342.585 62.8895C390.295 80.8411 435.025 106.453 476.775 135.619M100.442 184.368L126.484 160.347C89.323 137.662 40.9258 101.739 37.3372 54.7975C23.826 55.426 13.5308 73.8883 13.5504 85.9084C13.5896 120.024 71.9486 169.048 100.442 184.368ZM175.861 270.06C200.746 270.06 226.533 266.368 242.633 263.088L116.973 201.18C83.9891 256.587 128.288 270.06 175.861 270.06ZM218.297 4.87071C217.022 4.87071 215.787 5.49922 215.042 6.5991C211.394 12.0003 205.374 14.534 196.118 14.534C188.216 14.534 179.156 12.6877 170.39 10.9201C162.978 9.40773 155.977 7.99359 149.643 7.62042C143.054 7.2276 136.445 7.0312 129.994 7.0312C99.9907 7.0312 60.4572 11.3325 42.4554 31.8571C40.3571 34.2533 39.0629 36.9637 37.8078 39.5956C36.5332 42.2667 35.337 44.8004 33.4152 46.5877C31.8464 48.0607 29.7089 49.1213 27.2577 50.339C23.924 52.0085 20.1589 53.894 16.8253 57.3508C8.27535 66.2677 4.70635 77.0505 6.1967 89.3652C10.9031 127.822 65.0852 171.464 88.3817 187.058C86.8325 189.042 85.1461 191.144 83.4008 193.343C68.7914 211.629 48.7697 236.671 51.4563 258.786C52.5152 267.487 57.0059 274.951 64.8302 280.941C77.4786 290.644 97.363 295.554 123.915 295.554C144.015 295.554 167.88 292.765 194.824 287.265C201.295 285.949 210.963 282.905 221.18 279.684C235.75 275.088 252.261 269.903 259.321 269.903C259.497 269.903 259.654 269.903 259.831 269.903C266.42 270.198 285.951 276.384 301.639 281.354C312.307 284.732 322.367 287.914 328.662 289.426C334.113 290.742 341.329 291.743 348.291 292.706C357.272 293.963 366.548 295.259 371.744 297.145C373.843 297.911 374.921 299.56 376.51 302.212C378.137 304.942 380.157 308.32 384.314 310.029C384.785 310.225 385.295 310.324 385.805 310.324C386.452 310.324 387.079 310.167 387.648 309.852C388.687 309.302 389.413 308.32 389.648 307.161C391.119 299.855 393.374 299.855 394.708 299.855C396.237 299.855 398.218 300.326 400.296 300.837C402.846 301.446 405.748 302.153 408.768 302.192C412.376 302.251 415.514 302.291 418.632 302.291C464.538 302.291 493.483 294.65 504.699 279.605C512.406 275.029 513.74 271.631 514.661 267.723C515.014 266.23 515.249 265.248 516.524 263.795C517.21 263.029 520.191 261.595 522.348 260.534C526.682 258.433 532.094 255.84 535.663 251.971C552.744 233.548 550.449 208.565 529.545 185.075C521.682 170.03 512.602 159.326 499.777 150.035C503.582 145.95 508.229 141.413 513.092 136.66C538.683 111.638 573.726 77.3647 556.45 43.838C548.469 28.3414 527.094 20.4851 492.953 20.4851C452.106 20.4851 405.238 31.5429 391.845 34.9407C386.511 36.2959 377.647 39.3795 368.273 42.6595C354.821 47.3537 338.094 53.2066 333.172 53.2066C328.309 53.2066 309.208 45.7824 296.56 40.8722C288.971 37.9261 282.421 35.3728 278.362 34.0765C275.401 33.1338 270.185 31.8375 263.557 30.1876C251.536 27.2022 226.631 21.0154 223.121 17.6372C222.278 15.7517 222.278 13.1002 222.298 10.5076C222.298 9.89875 222.298 9.30952 222.298 8.7203C222.278 7.01156 221.141 5.49922 219.493 5.0082C219.121 4.89036 218.748 4.85107 218.376 4.85107L218.297 4.87071ZM50.8092 40.3026C56.4764 33.4284 65.3597 29.4413 73.0664 26.6327C87.3228 21.4279 103.854 18.8942 123.562 18.8942C148.113 18.8942 173.783 22.8813 196.432 26.4166L197.766 26.613L206.982 40.6954C207.727 41.8346 208.982 42.4631 210.257 42.4631C210.904 42.4631 211.551 42.306 212.14 41.9721C215.728 39.9884 217.317 37.1405 218.474 35.0782C219.866 32.5838 220.337 31.7393 223.886 31.7393C224.102 31.7393 224.337 31.7393 224.572 31.7393C237.691 32.2499 302.443 52.912 316.562 59.688C317.072 59.9434 317.621 60.1791 318.19 60.4344C318.778 60.6897 319.308 60.9254 319.778 61.1611L303.384 67.3283C301.698 67.9568 300.659 69.6852 300.874 71.4725C301.09 73.2794 302.522 74.6936 304.306 74.89C304.992 74.9685 305.698 75.0078 306.424 75.0078C311.836 75.0078 317.17 72.6706 321.876 70.5887C325.406 69.037 328.72 67.5836 331.387 67.3676C331.525 67.3676 331.662 67.3676 331.819 67.3676C348.801 67.3676 437.849 117.078 457.224 131.495C457.91 132.005 458.871 132.673 459.989 133.419C465.185 136.955 468.578 139.587 470.108 141.276L449.556 157.735C371.529 104.135 284.461 65.816 197.569 46.8626C170.998 41.0686 136.132 34.3908 102.226 34.3908C83.44 34.3908 66.5167 36.3156 50.8092 40.283V40.3026ZM129.092 154.612C115.169 146.009 92.9312 128.765 75.3607 110.833C52.8486 87.8725 42.0632 68.2318 44.985 55.5635C45.0831 55.1118 46.5146 51.105 64.2615 48.5714C74.8509 47.059 86.4403 46.2931 98.6769 46.2931C204.178 46.2931 348.095 102.053 426.652 156.085C428.103 157.813 430.535 159.326 434.143 161.506C436.222 162.763 439.908 165.002 441.183 166.357C437.339 172.406 413.69 186.155 397.826 195.386C382.549 204.264 369.332 211.943 364.175 217.01C362.783 218.366 362.606 220.546 363.744 222.117C364.508 223.178 365.705 223.747 366.92 223.747C367.528 223.747 368.136 223.61 368.724 223.315L454.733 178.888L483.325 201.317C484.031 201.887 484.893 202.162 485.737 202.162C486.815 202.162 487.894 201.71 488.678 200.846C489.894 199.491 490.463 197.762 490.286 195.975C489.835 191.222 484.364 187.019 477.442 181.696C473.971 179.025 468.048 174.469 466.029 171.542L488.443 156.831C490.757 157.754 498.856 162.802 523.035 189.69C529.859 202.928 538.154 221.842 532.938 235.355C530.702 241.169 526.172 245.725 519.171 249.202C518.073 235.846 513.073 220.29 501.719 211.393C501.013 210.843 500.15 210.549 499.307 210.549C498.463 210.549 497.64 210.824 496.934 211.354C495.522 212.434 495.012 214.339 495.679 215.989C497.267 219.799 498.777 223.276 500.248 226.634C505.817 239.401 509.857 248.632 507.033 253.385C504.464 257.726 495.444 260.436 478.618 261.929C469.853 262.714 460.734 263.107 451.517 263.107C369.195 263.107 267.596 231.407 149.545 168.891C150.506 167.339 152.996 164.334 159.507 158.638L160.252 157.99C172.92 146.775 187.745 137.406 202.08 128.372C212.846 121.576 223.984 114.545 234.24 106.728C235.75 105.569 236.221 103.507 235.358 101.817C234.671 100.482 233.299 99.6766 231.867 99.6766C231.495 99.6766 231.102 99.7355 230.73 99.8534C204.296 107.867 180.372 122.951 157.232 137.544C148.035 143.338 138.544 149.328 129.131 154.71L129.092 154.612ZM350.762 61.8092C352.213 61.4557 353.684 61.1807 354.527 61.0236C355.625 60.8272 356.645 60.6308 357.488 60.4148C372.941 56.5062 407.768 49.907 440.281 49.907C468.205 49.907 487.619 54.8368 496.424 64.1858C503.974 72.1992 504.19 82.6677 503.013 90.0526C500.542 105.824 489.521 122.912 476.912 130.925C433.339 100.678 391.962 78.0129 350.723 61.7896L350.762 61.8092ZM99.8731 179.556C69.5366 162.272 17.5116 115.723 17.4724 85.8888C17.4724 76.6969 24.5319 62.8109 33.8858 59.4524C38.5334 94.354 66.7716 127.625 120.032 160.956L99.8731 179.556ZM124.542 195.916L142.054 176.747C159.409 186.94 178.822 198.234 198.609 207.603C229.298 222.156 260.439 234.609 291.109 244.665C286.422 245.902 281.461 247.67 276.597 249.398C268.243 252.364 259.615 255.447 253.615 255.447C252.791 255.447 252.046 255.388 251.379 255.271C241.025 253.464 215.591 242.956 175.822 224.003C158.526 215.753 141.662 206.051 124.542 195.916ZM175.861 266.132C141.76 266.132 119.816 259.238 112.423 246.177C107.031 236.671 109.09 223.276 118.542 206.326L230.259 261.359C217.415 263.48 197.099 266.132 175.861 266.132ZM273.734 263.127L303.561 250.518C304.247 250.223 304.836 249.752 305.247 249.162C328.583 256.292 351.566 261.988 373.764 266.112C398.571 270.728 425.181 274.99 451.792 274.99C470.166 274.99 486.599 272.967 501.817 268.842C500.973 270.59 499.973 272.437 499.169 273.694C484.599 281.884 465.48 287.756 449.047 289.053L446.556 289.249C440.183 289.76 432.26 290.408 424.201 290.408C403.944 290.408 391.766 286.146 387.981 277.74C387.354 276.326 385.942 275.422 384.412 275.422C384.334 275.422 384.255 275.422 384.157 275.422C382.53 275.52 381.138 276.64 380.647 278.191C379.078 283.357 375.47 285.557 368.587 285.557C362.508 285.557 355.115 283.691 348.605 282.041C345.585 281.275 342.722 280.548 340.094 280.038C328.505 277.74 316.856 274.479 305.581 271.317C295.187 268.41 284.5 265.425 273.695 263.127H273.734Z" fill="black" style="fill:black;fill-opacity:1;"/>
<path d="M137.269 121.674C136.739 121.674 136.229 121.458 135.857 121.084C133.249 118.394 131.366 115.467 129.719 112.855C125.934 106.943 123.208 102.681 114.462 102.681C114.031 102.681 113.56 102.681 113.09 102.72C113.051 102.72 113.031 102.72 112.992 102.72C112.384 102.72 111.796 102.426 111.423 101.935C111.031 101.424 110.933 100.737 111.129 100.108C112.384 96.4745 115.541 95.9049 118.345 95.4139C120.679 95.0014 123.091 94.5693 125.503 92.7035C128.915 90.0323 131.994 84.1008 132.68 78.9157C132.759 78.3264 133.092 77.7961 133.602 77.5015C133.915 77.3051 134.268 77.2266 134.621 77.2266C134.857 77.2266 135.072 77.2658 135.288 77.3444C139.053 78.7193 139.838 82.1957 140.524 85.24C141.112 87.8522 141.72 90.543 144.015 92.4874C147.329 95.3157 152.329 95.9442 156.29 96.1602C156.918 96.1995 157.487 96.5138 157.82 97.0441C158.153 97.5547 158.232 98.2225 158.016 98.7921C156.624 102.563 153.172 103.349 150.133 104.036C147.544 104.625 144.858 105.234 142.877 107.532C140.583 110.203 139.387 114.21 139.21 119.788C139.191 120.574 138.7 121.281 137.955 121.556C137.72 121.634 137.484 121.693 137.249 121.693L137.269 121.674Z" fill="white" style="fill:white;fill-opacity:1;"/>
<path d="M134.622 79.1518C140.054 81.1355 137.034 89.1096 142.74 93.9609C146.387 97.0641 151.564 97.8301 156.173 98.1051C154.173 103.546 146.289 100.521 141.387 106.256C138.289 109.89 137.406 115.075 137.249 119.73C129.19 111.422 128.562 100.737 114.443 100.737C113.972 100.737 113.482 100.737 112.992 100.776C114.639 95.9643 120.797 98.8907 126.719 94.2752C130.837 91.0541 133.935 84.4155 134.622 79.1911M134.622 75.2236C133.916 75.2236 133.21 75.42 132.582 75.7932C131.562 76.4021 130.876 77.4627 130.719 78.6411C130.111 83.3156 127.268 88.7954 124.287 91.1523C122.267 92.7235 120.208 93.0967 118.012 93.4895C115.012 94.0198 110.913 94.7465 109.286 99.48C108.854 100.717 109.07 102.073 109.854 103.113C110.599 104.096 111.756 104.685 112.992 104.685C113.051 104.685 113.11 104.685 113.188 104.685C113.619 104.665 114.051 104.645 114.463 104.645C122.13 104.645 124.366 108.142 128.052 113.916C129.758 116.587 131.7 119.612 134.445 122.44C135.19 123.226 136.21 123.638 137.249 123.638C137.72 123.638 138.21 123.56 138.661 123.383C140.132 122.813 141.112 121.419 141.171 119.847C141.328 114.819 142.407 111.107 144.368 108.809C145.917 106.983 148.074 106.511 150.564 105.942C153.741 105.215 158.095 104.233 159.84 99.48C160.271 98.3212 160.114 97.0052 159.448 95.9643C158.781 94.9233 157.624 94.2752 156.389 94.1966C152.721 93.9805 148.152 93.4306 145.27 90.9952C143.466 89.4632 142.995 87.3027 142.426 84.8083C141.701 81.6069 140.72 77.227 135.955 75.479C135.524 75.3218 135.073 75.2433 134.602 75.2433L134.622 75.2236Z" fill="black" style="fill:black;fill-opacity:1;"/>
<path d="M526.251 187.353C520.191 180.616 494.561 152.039 487.521 152.648L461.381 169.814C461.381 178.966 491.07 192.145 485.697 198.175L455.126 174.194L366.881 219.78C378.451 208.447 440.595 178.79 445.183 167.005C446.948 162.468 431.809 156.831 429.358 153.158C341.075 92.2328 170.704 29.4021 63.7124 44.6629C57.1627 45.5861 42.6906 48.0608 41.1611 54.6601C33.5524 87.6958 103.226 143.888 129.033 159.149C162.507 140.333 194.608 114.78 231.828 103.507C208.1 121.635 180.097 135.069 157.624 154.965C154.643 157.597 142.917 167.457 145.407 171.071C241.339 222.097 367.862 275.677 478.932 265.759C525.113 261.634 513.387 248.475 499.267 214.398C510.72 223.374 515.465 240.874 515.465 254.956C549.469 242.367 539.252 212.395 526.251 187.333C541.958 204.814 551.587 228.972 532.741 249.3C527.368 255.094 516.328 258.001 513.524 261.183C508.366 267.016 514.034 269.667 501.934 276.62C503.503 274.381 508.739 264.934 507.307 263.088C464.597 276.777 417.788 270.276 374.49 262.223C315.66 251.284 254.36 229.659 200.295 204.028C179.999 194.404 160.644 183.071 141.309 171.719L118.385 196.8C136.563 207.603 154.957 218.385 174.116 227.518C190.726 235.434 234.965 256.39 250.693 259.12C263.517 261.359 287.853 246.806 302.031 246.864L270.714 260.102L266.93 265.739C291.383 270.276 314.954 278.997 339.368 283.848C354.213 286.794 379.039 296.988 384.432 279.291C392.962 298.323 430.476 294.395 449.36 292.902C466.656 291.528 486.913 285.203 501.934 276.581C486.717 298.421 433.241 298.677 408.787 298.225C398.826 298.029 389.178 289.485 385.765 306.337C379.667 303.842 379.843 295.868 373.058 293.393C363.273 289.838 341.839 288.503 329.564 285.557C313.542 281.707 271.518 266.466 259.988 265.936C247.967 265.386 210.1 280.097 194.04 283.377C160.134 290.29 96.2844 300.071 67.2226 277.779C34.1996 252.462 77.5766 208.172 94.0685 186.037C63.6144 166.868 -18.3353 99.7356 19.6686 60.0613C24.8457 54.6601 31.6699 53.5602 36.0821 49.4553C40.4943 45.3504 41.5729 38.81 45.3968 34.4301C66.3402 10.5666 119.856 9.76134 149.427 11.5094C171.429 12.8057 205.315 28.0076 218.297 8.7793C218.336 12.3343 218.003 16.3606 219.65 19.621C222.592 25.4739 266.773 34.5283 277.127 37.828C288.951 41.599 324.72 57.1348 333.133 57.1348C342.271 57.1348 379.451 42.1293 392.766 38.7511C426.632 30.1877 533.506 7.99367 552.92 45.645C572.922 84.4551 515.132 126.133 493.835 150.723C508.621 160.583 518.112 171.66 526.251 187.333V187.353ZM210.257 38.535L200.099 22.9992C159.664 16.7338 110.953 8.62217 71.7329 22.9206C59.7709 27.2809 47.2597 33.8409 42.7691 46.627C91.8526 31.2876 147.29 39.8902 196.765 50.673C286.402 70.2352 374.647 110.597 449.752 162.606L474.853 142.494C475.716 138.546 463.087 130.905 459.577 128.313C441.614 114.938 348.664 61.9861 331.073 63.4395C323.347 64.0876 313.68 72.0225 304.777 70.9619L326.367 62.8503C325.681 58.8436 321.406 57.6258 318.268 56.1135C303.914 49.2196 238.868 28.3415 224.729 27.7915C213.924 27.3791 216.905 34.8426 210.257 38.4958V38.535ZM342.604 62.8699C390.315 80.8216 435.045 106.433 476.794 135.6C499.209 123.304 519.309 82.6678 499.307 61.4951C474.696 35.3925 389.354 48.3358 356.566 56.6045C352.782 57.5669 343.192 58.2543 342.604 62.8699ZM37.3372 54.7976C23.8259 55.4261 13.5308 73.8884 13.5504 85.9085C13.5896 120.024 71.9486 169.048 100.442 184.368L126.484 160.347C89.3229 137.662 40.9258 101.739 37.3372 54.7976ZM242.633 263.088L116.973 201.18C66.7324 285.576 195.765 272.672 242.633 263.088Z" fill="#FF88F9" style="fill:#FF88F9;fill:color(display-p3 1.0000 0.5333 0.9765);fill-opacity:1;"/>
<path d="M156.173 98.1056C154.173 103.546 146.29 100.521 141.387 106.256C138.289 109.89 137.406 115.075 137.25 119.73C128.915 111.147 128.523 100.011 112.992 100.757C114.639 95.9451 120.797 98.8715 126.719 94.256C130.837 91.0349 133.936 84.3963 134.622 79.1719C140.054 81.1556 137.034 89.1297 142.74 93.981C146.388 97.0842 151.565 97.8502 156.173 98.1252V98.1056Z" fill="#FF88F9" style="fill:#FF88F9;fill:color(display-p3 1.0000 0.5333 0.9765);fill-opacity:1;"/>
<path d="M116.424 148.248V157.597C116.424 163.254 115.933 167.241 114.973 169.598C112.894 174.567 108.344 178.141 101.305 180.38C97.0296 181.755 92.2252 182.443 86.8324 182.443C77.4589 182.443 69.9483 180.479 64.3007 176.57C61.5553 174.645 59.6532 172.426 58.5942 169.892C57.5353 167.359 57.0254 163.705 57.0254 158.933C57.0254 157.067 57.1039 154.003 57.2411 149.721C57.3196 146.697 57.3784 144.713 57.3784 143.731C57.3784 141.61 57.2019 140.137 56.8293 139.312C56.4567 138.487 55.6724 137.721 54.4369 137.014C52.5152 135.914 51.5347 134.696 51.5347 133.321C51.5347 132.32 52.0249 131.436 53.0054 130.67C53.9859 129.904 55.2802 129.373 56.8882 129.098C60.1042 128.529 63.9085 128.254 68.2815 128.254C73.1055 128.254 77.1059 128.568 80.2827 129.216C83.4007 129.825 84.9695 131.22 84.9695 133.4C84.9695 134.48 84.5185 135.325 83.6164 135.973C83.4203 136.13 82.5379 136.523 80.9887 137.171C80.0474 137.524 79.4199 138.172 79.0865 139.135C78.7532 140.078 78.5767 141.649 78.5767 143.809C78.5767 145.97 78.459 150.841 78.2237 158.226C78.0864 162.625 79.4395 165.964 82.3026 168.282C84.6361 170.167 87.6561 171.13 91.3231 171.13C93.6567 171.13 95.7745 170.756 97.6767 169.99C99.5789 169.225 101.03 168.203 102.01 166.907C102.795 165.905 103.344 164.805 103.638 163.568C103.932 162.35 104.07 160.661 104.07 158.54V150.114C103.932 143.652 103.717 139.862 103.442 138.742C103.167 137.623 102.226 136.758 100.618 136.11C99.0886 135.521 98.0689 134.991 97.5002 134.5C96.9511 134.009 96.6766 133.419 96.6766 132.693C96.6766 131.161 97.7159 130.041 99.8142 129.334C101.893 128.627 105.266 128.274 109.874 128.274C114.482 128.274 117.679 128.627 119.718 129.314C121.758 130.002 122.758 131.102 122.758 132.614C122.758 133.36 122.581 133.91 122.228 134.264C121.875 134.618 120.954 135.167 119.463 135.914C117.914 136.68 117.032 137.505 116.816 138.389C116.6 139.272 116.463 142.552 116.404 148.229L116.424 148.248Z" stroke="black" style="stroke:black;stroke-opacity:1;" stroke-width="7" stroke-miterlimit="10"/>
<path d="M145.387 130.925L167.213 147.639C169.253 149.191 170.743 149.977 171.645 149.977C173.175 149.977 173.92 148.563 173.92 145.715C173.92 142.494 173.704 140.294 173.253 139.115C172.822 137.937 171.9 137.053 170.488 136.464C169.351 135.973 168.547 135.462 168.076 134.912C167.605 134.362 167.37 133.655 167.37 132.791C167.37 130.65 169.057 129.256 172.41 128.647C173.782 128.391 176.175 128.254 179.607 128.254C184.019 128.254 187.078 128.49 188.764 128.941C191.451 129.668 192.804 131.004 192.804 133.007C192.804 134.677 191.706 135.914 189.51 136.758C188.627 137.092 188.039 137.387 187.706 137.642C187.372 137.898 187.098 138.29 186.882 138.781C186.098 140.471 185.686 143.672 185.646 148.366V160.877C185.646 162.802 185.646 165.414 185.686 168.734C185.705 173.231 185.411 176.472 184.764 178.475C183.98 180.95 182.548 182.188 180.469 182.188C179.567 182.188 178.783 182.03 178.116 181.696C177.469 181.363 176.371 180.597 174.841 179.399L148.839 159.031C147.035 157.597 145.525 156.89 144.328 156.89C142.544 156.89 141.662 159.051 141.662 163.372C141.662 166.927 141.897 169.362 142.348 170.658C142.799 171.955 143.721 172.917 145.132 173.526C147.093 174.37 148.074 175.47 148.074 176.826C148.074 180.381 143.701 182.148 134.975 182.148C131.033 182.148 127.974 181.696 125.797 180.793C123.62 179.89 122.522 178.593 122.522 176.943C122.522 176.079 122.718 175.431 123.13 174.979C123.542 174.547 124.464 173.958 125.895 173.212C127.268 172.505 128.091 171.228 128.386 169.421C128.876 166.121 129.131 161.388 129.131 155.201C129.131 148.602 128.699 143.79 127.817 140.785C127.503 139.685 127.091 138.86 126.582 138.33C126.091 137.799 125.268 137.289 124.13 136.798C122.816 136.228 121.895 135.678 121.385 135.148C120.875 134.618 120.62 133.95 120.62 133.184C120.62 130.729 123.032 129.177 127.856 128.549C129.484 128.352 132.347 128.234 136.445 128.234C138.779 128.234 140.485 128.391 141.544 128.706C142.603 129.02 143.877 129.747 145.329 130.866L145.387 130.925Z" stroke="black" style="stroke:black;stroke-opacity:1;" stroke-width="7" stroke-miterlimit="10"/>
<path d="M210.061 128.273C213.395 128.273 216.532 128.529 219.493 129.039C223.474 129.727 225.455 131.2 225.455 133.459C225.455 134.205 225.259 134.755 224.866 135.128C224.474 135.501 223.474 136.051 221.866 136.758C220.513 137.347 219.63 138.644 219.219 140.627C218.787 142.631 218.591 146.5 218.591 152.294C218.591 162.056 218.866 168.105 219.415 170.442C219.611 171.188 219.925 171.758 220.356 172.151C220.787 172.544 221.513 172.976 222.572 173.428C224.494 174.194 225.474 175.313 225.474 176.766C225.474 178.809 223.69 180.223 220.121 180.989C216.258 181.814 211.551 182.207 205.962 182.207C196.432 182.207 191.667 180.616 191.667 177.454C191.667 176.295 192.608 175.234 194.471 174.233C195.903 173.467 196.746 172.426 197.02 171.09C197.569 168.183 197.844 161.997 197.844 152.53C197.844 145.989 197.471 141.786 196.707 139.96C196.295 138.919 195.314 137.976 193.765 137.131C192.569 136.444 191.765 135.874 191.353 135.403C190.941 134.951 190.745 134.362 190.745 133.635C190.745 132.535 191.353 131.671 192.569 131.004C193.785 130.336 195.922 129.766 198.981 129.255C202.629 128.607 206.335 128.293 210.08 128.293L210.061 128.273Z" stroke="black" style="stroke:black;stroke-opacity:1;" stroke-width="7" stroke-miterlimit="10"/>
<path d="M284.304 140.961L264.184 176.59C262.949 178.789 261.792 180.302 260.674 181.127C259.556 181.952 258.164 182.364 256.458 182.364C255.065 182.364 253.791 182.089 252.693 181.559C251.849 181.146 251.183 180.675 250.692 180.125C250.202 179.575 249.594 178.593 248.869 177.159L230.945 142.611C229.945 140.667 229.063 139.351 228.239 138.644C227.435 137.937 226.298 137.465 224.807 137.249C223.062 136.974 222.18 136.032 222.18 134.401C222.18 132.437 223.709 130.925 226.788 129.864C229.867 128.804 234.259 128.273 239.985 128.273C245.712 128.273 250.339 128.666 253.144 129.472C255.948 130.277 257.36 131.495 257.36 133.144C257.36 134.225 256.595 135.207 255.085 136.13C253.908 136.817 253.34 137.465 253.34 138.094C253.34 138.663 253.595 139.469 254.124 140.51L259.595 151.332C260.38 152.923 261.282 153.708 262.262 153.708C263.243 153.708 264.086 153.296 264.851 152.451C265.616 151.607 266.635 149.937 267.91 147.462C270.224 143.024 271.557 140.392 271.95 139.587C272.342 138.781 272.518 138.153 272.518 137.721C272.518 136.856 271.832 136.11 270.459 135.501C268.93 134.814 268.184 133.93 268.184 132.85C268.184 129.805 272.852 128.293 282.166 128.293C286.814 128.293 290.089 128.627 292.01 129.275C293.932 129.923 294.873 131.043 294.873 132.634C294.873 134.519 293.618 135.619 291.108 135.894C289.324 136.071 288.167 136.326 287.637 136.66C286.696 137.249 285.598 138.703 284.304 141.001V140.961Z" stroke="black" style="stroke:black;stroke-opacity:1;" stroke-width="7" stroke-miterlimit="10"/>
<path d="M300.6 129.079H323.131C327.7 129.079 331.014 129 333.113 128.823C335.211 128.666 337.231 128.313 339.231 127.802C339.839 127.645 340.329 127.566 340.682 127.566C342.212 127.566 343.545 128.293 344.722 129.707C346.644 132.025 347.624 134.853 347.624 138.153C347.624 139.822 347.212 141.119 346.428 142.081C345.624 143.043 344.526 143.515 343.114 143.515C342.153 143.515 341.388 143.338 340.859 143.004C340.31 142.651 339.584 141.885 338.682 140.686C337.388 138.978 335.76 137.839 333.799 137.249C331.838 136.66 328.583 136.385 324.092 136.385C320.739 136.385 318.68 136.915 317.954 137.956C317.582 138.526 317.346 139.272 317.268 140.215C317.19 141.158 317.15 143.574 317.15 147.462C317.15 148.994 317.444 149.957 318.033 150.31C318.621 150.684 320.151 150.86 322.641 150.86C323.876 150.86 324.759 150.644 325.308 150.193C325.857 149.741 326.21 148.955 326.367 147.796C326.563 146.323 326.779 145.302 326.994 144.752C327.21 144.202 327.622 143.731 328.21 143.318C328.818 142.867 329.544 142.631 330.348 142.631C331.544 142.631 332.564 143.122 333.426 144.124C334.034 144.87 334.564 146.166 334.976 148.052C335.387 149.937 335.603 151.901 335.603 153.944C335.603 157.99 334.878 161.29 333.466 163.882C332.681 165.296 331.485 165.984 329.877 165.984C328.877 165.984 328.191 165.768 327.818 165.316C327.445 164.864 327.151 163.941 326.936 162.527C326.504 159.64 324.563 158.186 321.151 158.186C319.837 158.186 318.935 158.56 318.464 159.286C317.974 160.013 317.739 161.368 317.739 163.332C317.739 164.53 317.837 166.082 318.033 167.987C318.229 169.892 318.425 171.149 318.621 171.758C318.856 172.524 319.582 173.054 320.798 173.349C322.014 173.644 324.033 173.781 326.877 173.781C331.269 173.781 334.564 173.29 336.78 172.308C338.996 171.326 340.819 169.539 342.212 166.966C343.035 165.493 343.761 164.491 344.428 163.98C345.075 163.47 345.938 163.214 346.997 163.214C348.232 163.214 349.232 163.686 350.036 164.609C350.84 165.552 351.232 166.71 351.232 168.125C351.232 169.657 350.781 171.581 349.879 173.879C348.977 176.177 347.859 178.22 346.546 180.007C345.879 180.871 345.31 181.461 344.879 181.755C344.447 182.05 343.879 182.187 343.212 182.187C342.663 182.187 341.859 182.109 340.8 181.952C338.937 181.637 336.427 181.461 333.309 181.382H296.129C294.638 181.382 293.481 181.087 292.658 180.518C291.834 179.948 291.422 179.123 291.422 178.082C291.422 177.336 291.599 176.806 291.952 176.472C292.305 176.138 293.109 175.726 294.364 175.215C295.246 174.881 295.893 174.469 296.305 173.997C296.736 173.506 297.05 172.799 297.286 171.856C298.246 167.987 298.737 162.802 298.737 156.242C298.737 146.382 298.031 140.156 296.638 137.564C296.344 137.053 296.03 136.699 295.677 136.483C295.325 136.267 294.599 136.032 293.481 135.757C291.814 135.325 290.991 134.342 290.991 132.85C290.991 132.025 291.265 131.298 291.814 130.67C292.363 130.041 293.109 129.609 294.011 129.413C295.148 129.177 297.364 129.059 300.639 129.059L300.6 129.079Z" stroke="black" style="stroke:black;stroke-opacity:1;" stroke-width="7" stroke-miterlimit="10"/>
<path d="M377.726 159.423C376.608 159.423 375.902 159.718 375.608 160.307C375.294 160.896 375.137 162.271 375.137 164.412C375.137 167.653 375.372 170.187 375.843 172.013C376 172.524 376.216 172.917 376.51 173.192C376.804 173.467 377.353 173.82 378.177 174.233C379.922 175.077 380.804 176.197 380.804 177.571C380.804 179.261 379.589 180.459 377.137 181.166C374.686 181.873 370.568 182.226 364.744 182.226C353.939 182.226 348.526 180.439 348.526 176.864C348.526 176.256 348.683 175.765 349.017 175.391C349.33 175.018 350.076 174.508 351.213 173.84C352.507 173.093 353.37 172.229 353.821 171.208C354.272 170.187 354.586 168.458 354.762 165.964C354.9 164.157 354.978 157.636 354.978 146.441C354.978 142.886 354.782 140.47 354.37 139.193C353.958 137.917 353.076 136.994 351.742 136.404C350.448 135.874 349.585 135.383 349.154 134.931C348.723 134.48 348.507 133.91 348.507 133.183C348.507 132.241 348.919 131.416 349.762 130.709C350.605 130.002 351.762 129.491 353.252 129.157C354.507 128.882 356.233 128.745 358.429 128.745C359.39 128.745 361.802 128.882 365.665 129.137C366.391 129.196 367.548 129.216 369.136 129.216C371.764 129.216 375.274 129.059 379.667 128.764C382.452 128.587 384.393 128.489 385.491 128.489C391.747 128.489 396.924 129.805 401.002 132.437C404.689 134.814 406.532 138.113 406.532 142.336C406.532 144.693 405.885 146.834 404.611 148.759C403.316 150.683 401.552 152.137 399.316 153.119C398.375 153.531 397.904 154.022 397.904 154.572C397.904 155.319 398.63 155.908 400.061 156.379C403.12 157.361 405.375 158.815 406.807 160.798C408.239 162.762 409.258 165.787 409.866 169.853C410.121 171.542 410.513 172.642 411.004 173.133C411.494 173.624 412.651 174.115 414.474 174.566C415.024 174.724 415.494 175.038 415.867 175.548C416.239 176.059 416.435 176.609 416.435 177.218C416.435 178.004 416.082 178.809 415.377 179.614C414.671 180.419 413.768 181.048 412.651 181.519C410.199 182.521 406.827 183.012 402.571 183.012C396.865 183.012 392.786 181.696 390.335 179.064C389.217 177.886 388.276 176.413 387.511 174.625C386.726 172.838 385.824 170.049 384.766 166.258C384.099 163.823 383.236 162.114 382.197 161.113C381.157 160.111 379.667 159.581 377.745 159.502L377.726 159.423ZM375.196 139.861L374.706 148.798V149.151C374.706 150.074 374.863 150.683 375.176 150.998C375.49 151.312 376.098 151.449 377.039 151.449C379.608 151.449 381.491 150.86 382.648 149.701C383.824 148.542 384.393 146.677 384.393 144.123C384.393 139.193 382.393 136.719 378.392 136.719C377.255 136.719 376.451 136.954 375.98 137.406C375.51 137.858 375.255 138.683 375.196 139.861Z" stroke="black" style="stroke:black;stroke-opacity:1;" stroke-width="7" stroke-miterlimit="10"/>
<path d="M440.751 127.998C443.771 127.998 447.713 128.646 452.596 129.962C453.184 130.119 453.655 130.198 453.988 130.198C454.282 130.198 455.165 129.962 456.616 129.51C457.087 129.353 457.577 129.275 458.106 129.275C460.067 129.275 462.126 130.63 464.303 133.34C466.48 136.051 467.578 138.643 467.578 141.079C467.578 142.513 467.088 143.711 466.107 144.693C465.127 145.675 463.93 146.166 462.538 146.166C461.361 146.166 460.42 145.969 459.695 145.557C458.969 145.145 457.361 143.927 454.871 141.923C451.36 139.056 447.909 137.622 444.517 137.622C442.889 137.622 441.575 137.976 440.595 138.663C439.614 139.35 439.124 140.254 439.124 141.393C439.124 143.613 441.359 145.302 445.83 146.421C451.87 147.973 455.753 149.112 457.44 149.839C464.891 153.001 468.617 157.675 468.617 163.843C468.617 169.283 466.068 173.741 460.989 177.179C455.792 180.714 448.988 182.462 440.614 182.462C436.869 182.462 432.927 182.069 428.77 181.284C424.613 180.498 421.632 179.594 419.789 178.534C418.377 177.709 417.122 175.922 416.004 173.192C414.886 170.442 414.317 167.771 414.317 165.158C414.317 163.901 414.612 162.959 415.2 162.311C415.925 161.486 416.847 161.093 417.965 161.093C419.083 161.093 420.142 161.584 421.161 162.586C421.769 163.155 423.22 164.942 425.495 167.987C426.574 169.42 428.299 170.599 430.652 171.561C433.006 172.504 435.437 172.975 437.947 172.975C440.104 172.975 441.869 172.622 443.203 171.915C444.556 171.208 445.223 170.304 445.223 169.204C445.223 168.183 444.693 167.299 443.654 166.553C442.595 165.807 440.889 165.119 438.516 164.491C434.339 163.332 431.143 162.291 428.966 161.328C426.77 160.366 424.73 159.168 422.828 157.695C418.22 154.12 415.906 150.055 415.906 145.498C415.906 143.259 416.494 141.059 417.71 138.918C418.906 136.778 420.612 134.931 422.789 133.38C427.691 129.785 433.692 127.979 440.771 127.979L440.751 127.998Z" stroke="black" style="stroke:black;stroke-opacity:1;" stroke-width="7" stroke-miterlimit="10"/>
<path d="M476.755 129.079H499.287C503.856 129.079 507.17 129 509.269 128.823C511.367 128.666 513.387 128.313 515.387 127.802C515.995 127.645 516.485 127.566 516.838 127.566C518.367 127.566 519.701 128.293 520.878 129.707C522.799 132.025 523.78 134.853 523.78 138.153C523.78 139.822 523.368 141.119 522.584 142.081C521.78 143.043 520.681 143.515 519.27 143.515C518.309 143.515 517.544 143.338 517.014 143.004C516.465 142.651 515.74 141.885 514.838 140.686C513.543 138.978 511.916 137.839 509.955 137.249C507.994 136.66 504.739 136.385 500.248 136.385C496.895 136.385 494.836 136.915 494.11 137.956C493.737 138.526 493.502 139.272 493.424 140.215C493.345 141.158 493.306 143.574 493.306 147.462C493.306 148.994 493.6 149.957 494.188 150.31C494.777 150.684 496.306 150.86 498.797 150.86C500.032 150.86 500.915 150.644 501.464 150.193C502.013 149.741 502.366 148.955 502.523 147.796C502.719 146.323 502.934 145.302 503.15 144.752C503.366 144.202 503.778 143.731 504.366 143.318C504.974 142.867 505.7 142.631 506.504 142.631C507.7 142.631 508.719 143.122 509.582 144.124C510.19 144.87 510.72 146.166 511.131 148.052C511.543 149.937 511.759 151.901 511.759 153.944C511.759 157.99 511.033 161.29 509.621 163.882C508.837 165.296 507.641 165.984 506.033 165.984C505.033 165.984 504.346 165.768 503.974 165.316C503.601 164.864 503.307 163.941 503.091 162.527C502.66 159.64 500.719 158.186 497.306 158.186C495.993 158.186 495.091 158.56 494.62 159.286C494.13 160.013 493.894 161.368 493.894 163.332C493.894 164.53 493.992 166.082 494.188 167.987C494.385 169.892 494.581 171.149 494.777 171.758C495.012 172.524 495.738 173.054 496.953 173.349C498.169 173.644 500.189 173.781 503.033 173.781C507.425 173.781 510.72 173.29 512.936 172.308C515.151 171.326 516.975 169.539 518.367 166.966C519.191 165.493 519.917 164.491 520.583 163.98C521.231 163.47 522.093 163.214 523.152 163.214C524.388 163.214 525.388 163.686 526.192 164.609C526.996 165.552 527.388 166.71 527.388 168.125C527.388 169.657 526.937 171.581 526.035 173.879C525.133 176.177 524.015 178.22 522.701 180.007C522.035 180.871 521.466 181.461 521.034 181.755C520.603 182.05 520.034 182.187 519.368 182.187C518.819 182.187 518.014 182.109 516.956 181.952C515.093 181.637 512.583 181.461 509.465 181.382H472.284C470.794 181.382 469.637 181.087 468.813 180.518C467.99 179.948 467.578 179.123 467.578 178.082C467.578 177.336 467.754 176.806 468.107 176.472C468.46 176.138 469.264 175.726 470.519 175.215C471.402 174.881 472.049 174.469 472.461 173.997C472.892 173.506 473.206 172.799 473.441 171.856C474.402 167.987 474.892 162.802 474.892 156.242C474.892 146.382 474.186 140.156 472.794 137.564C472.5 137.053 472.186 136.699 471.833 136.483C471.48 136.267 470.755 136.032 469.637 135.757C467.97 135.325 467.146 134.342 467.146 132.85C467.146 132.025 467.421 131.298 467.97 130.67C468.519 130.041 469.264 129.609 470.166 129.413C471.304 129.177 473.52 129.059 476.795 129.059L476.755 129.079Z" stroke="black" style="stroke:black;stroke-opacity:1;" stroke-width="7" stroke-miterlimit="10"/>
<path d="M116.424 148.248V157.597C116.424 163.254 115.933 167.241 114.973 169.598C112.894 174.567 108.344 178.141 101.305 180.38C97.0296 181.755 92.2252 182.443 86.8324 182.443C77.4589 182.443 69.9483 180.479 64.3007 176.57C61.5553 174.645 59.6532 172.426 58.5942 169.892C57.5353 167.359 57.0254 163.705 57.0254 158.933C57.0254 157.067 57.1039 154.003 57.2411 149.721C57.3196 146.697 57.3784 144.713 57.3784 143.731C57.3784 141.61 57.2019 140.137 56.8293 139.312C56.4567 138.487 55.6724 137.721 54.4369 137.014C52.5152 135.914 51.5347 134.696 51.5347 133.321C51.5347 132.32 52.0249 131.436 53.0054 130.67C53.9859 129.904 55.2802 129.373 56.8882 129.098C60.1042 128.529 63.9085 128.254 68.2815 128.254C73.1055 128.254 77.1059 128.568 80.2827 129.216C83.4007 129.825 84.9695 131.22 84.9695 133.4C84.9695 134.48 84.5185 135.325 83.6164 135.973C83.4203 136.13 82.5379 136.523 80.9887 137.171C80.0474 137.524 79.4199 138.172 79.0865 139.135C78.7532 140.078 78.5767 141.649 78.5767 143.809C78.5767 145.97 78.459 150.841 78.2237 158.226C78.0864 162.625 79.4395 165.964 82.3026 168.282C84.6361 170.167 87.6561 171.13 91.3231 171.13C93.6567 171.13 95.7745 170.756 97.6767 169.99C99.5789 169.225 101.03 168.203 102.01 166.907C102.795 165.905 103.344 164.805 103.638 163.568C103.932 162.35 104.07 160.661 104.07 158.54V150.114C103.932 143.652 103.717 139.862 103.442 138.742C103.167 137.623 102.226 136.758 100.618 136.11C99.0886 135.521 98.0689 134.991 97.5002 134.5C96.9511 134.009 96.6766 133.419 96.6766 132.693C96.6766 131.161 97.7159 130.041 99.8142 129.334C101.893 128.627 105.266 128.274 109.874 128.274C114.482 128.274 117.679 128.627 119.718 129.314C121.758 130.002 122.758 131.102 122.758 132.614C122.758 133.36 122.581 133.91 122.228 134.264C121.875 134.618 120.954 135.167 119.463 135.914C117.914 136.68 117.032 137.505 116.816 138.389C116.6 139.272 116.463 142.552 116.404 148.229L116.424 148.248Z" stroke="white" style="stroke:white;stroke-opacity:1;" stroke-width="5" stroke-miterlimit="10"/>
<path d="M145.387 130.925L167.213 147.639C169.253 149.191 170.743 149.977 171.645 149.977C173.175 149.977 173.92 148.563 173.92 145.715C173.92 142.494 173.704 140.294 173.253 139.115C172.822 137.937 171.9 137.053 170.488 136.464C169.351 135.973 168.547 135.462 168.076 134.912C167.605 134.362 167.37 133.655 167.37 132.791C167.37 130.65 169.057 129.256 172.41 128.647C173.782 128.391 176.175 128.254 179.607 128.254C184.019 128.254 187.078 128.49 188.764 128.941C191.451 129.668 192.804 131.004 192.804 133.007C192.804 134.677 191.706 135.914 189.51 136.758C188.627 137.092 188.039 137.387 187.706 137.642C187.372 137.898 187.098 138.29 186.882 138.781C186.098 140.471 185.686 143.672 185.646 148.366V160.877C185.646 162.802 185.646 165.414 185.686 168.734C185.705 173.231 185.411 176.472 184.764 178.475C183.98 180.95 182.548 182.188 180.469 182.188C179.567 182.188 178.783 182.03 178.116 181.696C177.469 181.363 176.371 180.597 174.841 179.399L148.839 159.031C147.035 157.597 145.525 156.89 144.328 156.89C142.544 156.89 141.662 159.051 141.662 163.372C141.662 166.927 141.897 169.362 142.348 170.658C142.799 171.955 143.721 172.917 145.132 173.526C147.093 174.37 148.074 175.47 148.074 176.826C148.074 180.381 143.701 182.148 134.975 182.148C131.033 182.148 127.974 181.696 125.797 180.793C123.62 179.89 122.522 178.593 122.522 176.943C122.522 176.079 122.718 175.431 123.13 174.979C123.542 174.547 124.464 173.958 125.895 173.212C127.268 172.505 128.091 171.228 128.386 169.421C128.876 166.121 129.131 161.388 129.131 155.201C129.131 148.602 128.699 143.79 127.817 140.785C127.503 139.685 127.091 138.86 126.582 138.33C126.091 137.799 125.268 137.289 124.13 136.798C122.816 136.228 121.895 135.678 121.385 135.148C120.875 134.618 120.62 133.95 120.62 133.184C120.62 130.729 123.032 129.177 127.856 128.549C129.484 128.352 132.347 128.234 136.445 128.234C138.779 128.234 140.485 128.391 141.544 128.706C142.603 129.02 143.877 129.747 145.329 130.866L145.387 130.925Z" stroke="white" style="stroke:white;stroke-opacity:1;" stroke-width="5" stroke-miterlimit="10"/>
<path d="M210.061 128.273C213.395 128.273 216.532 128.529 219.493 129.039C223.474 129.727 225.455 131.2 225.455 133.459C225.455 134.205 225.259 134.755 224.866 135.128C224.474 135.501 223.474 136.051 221.866 136.758C220.513 137.347 219.63 138.644 219.219 140.627C218.787 142.631 218.591 146.5 218.591 152.294C218.591 162.056 218.866 168.105 219.415 170.442C219.611 171.188 219.925 171.758 220.356 172.151C220.787 172.544 221.513 172.976 222.572 173.428C224.494 174.194 225.474 175.313 225.474 176.766C225.474 178.809 223.69 180.223 220.121 180.989C216.258 181.814 211.551 182.207 205.962 182.207C196.432 182.207 191.667 180.616 191.667 177.454C191.667 176.295 192.608 175.234 194.471 174.233C195.903 173.467 196.746 172.426 197.02 171.09C197.569 168.183 197.844 161.997 197.844 152.53C197.844 145.989 197.471 141.786 196.707 139.96C196.295 138.919 195.314 137.976 193.765 137.131C192.569 136.444 191.765 135.874 191.353 135.403C190.941 134.951 190.745 134.362 190.745 133.635C190.745 132.535 191.353 131.671 192.569 131.004C193.785 130.336 195.922 129.766 198.981 129.255C202.629 128.607 206.335 128.293 210.08 128.293L210.061 128.273Z" stroke="white" style="stroke:white;stroke-opacity:1;" stroke-width="5" stroke-miterlimit="10"/>
<path d="M284.304 140.961L264.184 176.59C262.949 178.789 261.792 180.302 260.674 181.127C259.556 181.952 258.164 182.364 256.458 182.364C255.065 182.364 253.791 182.089 252.693 181.559C251.849 181.146 251.183 180.675 250.692 180.125C250.202 179.575 249.594 178.593 248.869 177.159L230.945 142.611C229.945 140.667 229.063 139.351 228.239 138.644C227.435 137.937 226.298 137.465 224.807 137.249C223.062 136.974 222.18 136.032 222.18 134.401C222.18 132.437 223.709 130.925 226.788 129.864C229.867 128.804 234.259 128.273 239.985 128.273C245.712 128.273 250.339 128.666 253.144 129.472C255.948 130.277 257.36 131.495 257.36 133.144C257.36 134.225 256.595 135.207 255.085 136.13C253.908 136.817 253.34 137.465 253.34 138.094C253.34 138.663 253.595 139.469 254.124 140.51L259.595 151.332C260.38 152.923 261.282 153.708 262.262 153.708C263.243 153.708 264.086 153.296 264.851 152.451C265.616 151.607 266.635 149.937 267.91 147.462C270.224 143.024 271.557 140.392 271.95 139.587C272.342 138.781 272.518 138.153 272.518 137.721C272.518 136.856 271.832 136.11 270.459 135.501C268.93 134.814 268.184 133.93 268.184 132.85C268.184 129.805 272.852 128.293 282.166 128.293C286.814 128.293 290.089 128.627 292.01 129.275C293.932 129.923 294.873 131.043 294.873 132.634C294.873 134.519 293.618 135.619 291.108 135.894C289.324 136.071 288.167 136.326 287.637 136.66C286.696 137.249 285.598 138.703 284.304 141.001V140.961Z" stroke="white" style="stroke:white;stroke-opacity:1;" stroke-width="5" stroke-miterlimit="10"/>
<path d="M300.6 129.079H323.131C327.7 129.079 331.014 129 333.113 128.823C335.211 128.666 337.231 128.313 339.231 127.802C339.839 127.645 340.329 127.566 340.682 127.566C342.212 127.566 343.545 128.293 344.722 129.707C346.644 132.025 347.624 134.853 347.624 138.153C347.624 139.822 347.212 141.119 346.428 142.081C345.624 143.043 344.526 143.515 343.114 143.515C342.153 143.515 341.388 143.338 340.859 143.004C340.31 142.651 339.584 141.885 338.682 140.686C337.388 138.978 335.76 137.839 333.799 137.249C331.838 136.66 328.583 136.385 324.092 136.385C320.739 136.385 318.68 136.915 317.954 137.956C317.582 138.526 317.346 139.272 317.268 140.215C317.19 141.158 317.15 143.574 317.15 147.462C317.15 148.994 317.444 149.957 318.033 150.31C318.621 150.684 320.151 150.86 322.641 150.86C323.876 150.86 324.759 150.644 325.308 150.193C325.857 149.741 326.21 148.955 326.367 147.796C326.563 146.323 326.779 145.302 326.994 144.752C327.21 144.202 327.622 143.731 328.21 143.318C328.818 142.867 329.544 142.631 330.348 142.631C331.544 142.631 332.564 143.122 333.426 144.124C334.034 144.87 334.564 146.166 334.976 148.052C335.387 149.937 335.603 151.901 335.603 153.944C335.603 157.99 334.878 161.29 333.466 163.882C332.681 165.296 331.485 165.984 329.877 165.984C328.877 165.984 328.191 165.768 327.818 165.316C327.445 164.864 327.151 163.941 326.936 162.527C326.504 159.64 324.563 158.186 321.151 158.186C319.837 158.186 318.935 158.56 318.464 159.286C317.974 160.013 317.739 161.368 317.739 163.332C317.739 164.53 317.837 166.082 318.033 167.987C318.229 169.892 318.425 171.149 318.621 171.758C318.856 172.524 319.582 173.054 320.798 173.349C322.014 173.644 324.033 173.781 326.877 173.781C331.269 173.781 334.564 173.29 336.78 172.308C338.996 171.326 340.819 169.539 342.212 166.966C343.035 165.493 343.761 164.491 344.428 163.98C345.075 163.47 345.938 163.214 346.997 163.214C348.232 163.214 349.232 163.686 350.036 164.609C350.84 165.552 351.232 166.71 351.232 168.125C351.232 169.657 350.781 171.581 349.879 173.879C348.977 176.177 347.859 178.22 346.546 180.007C345.879 180.871 345.31 181.461 344.879 181.755C344.447 182.05 343.879 182.187 343.212 182.187C342.663 182.187 341.859 182.109 340.8 181.952C338.937 181.637 336.427 181.461 333.309 181.382H296.129C294.638 181.382 293.481 181.087 292.658 180.518C291.834 179.948 291.422 179.123 291.422 178.082C291.422 177.336 291.599 176.806 291.952 176.472C292.305 176.138 293.109 175.726 294.364 175.215C295.246 174.881 295.893 174.469 296.305 173.997C296.736 173.506 297.05 172.799 297.286 171.856C298.246 167.987 298.737 162.802 298.737 156.242C298.737 146.382 298.031 140.156 296.638 137.564C296.344 137.053 296.03 136.699 295.677 136.483C295.325 136.267 294.599 136.032 293.481 135.757C291.814 135.325 290.991 134.342 290.991 132.85C290.991 132.025 291.265 131.298 291.814 130.67C292.363 130.041 293.109 129.609 294.011 129.413C295.148 129.177 297.364 129.059 300.639 129.059L300.6 129.079Z" stroke="white" style="stroke:white;stroke-opacity:1;" stroke-width="5" stroke-miterlimit="10"/>
<path d="M377.726 159.423C376.608 159.423 375.902 159.718 375.608 160.307C375.294 160.896 375.137 162.271 375.137 164.412C375.137 167.653 375.372 170.187 375.843 172.013C376 172.524 376.216 172.917 376.51 173.192C376.804 173.467 377.353 173.82 378.177 174.233C379.922 175.077 380.804 176.197 380.804 177.571C380.804 179.261 379.589 180.459 377.137 181.166C374.686 181.873 370.568 182.226 364.744 182.226C353.939 182.226 348.526 180.439 348.526 176.864C348.526 176.256 348.683 175.765 349.017 175.391C349.33 175.018 350.076 174.508 351.213 173.84C352.507 173.093 353.37 172.229 353.821 171.208C354.272 170.187 354.586 168.458 354.762 165.964C354.9 164.157 354.978 157.636 354.978 146.441C354.978 142.886 354.782 140.47 354.37 139.193C353.958 137.917 353.076 136.994 351.742 136.404C350.448 135.874 349.585 135.383 349.154 134.931C348.723 134.48 348.507 133.91 348.507 133.183C348.507 132.241 348.919 131.416 349.762 130.709C350.605 130.002 351.762 129.491 353.252 129.157C354.507 128.882 356.233 128.745 358.429 128.745C359.39 128.745 361.802 128.882 365.665 129.137C366.391 129.196 367.548 129.216 369.136 129.216C371.764 129.216 375.274 129.059 379.667 128.764C382.452 128.587 384.393 128.489 385.491 128.489C391.747 128.489 396.924 129.805 401.002 132.437C404.689 134.814 406.532 138.113 406.532 142.336C406.532 144.693 405.885 146.834 404.611 148.759C403.316 150.683 401.552 152.137 399.316 153.119C398.375 153.531 397.904 154.022 397.904 154.572C397.904 155.319 398.63 155.908 400.061 156.379C403.12 157.361 405.375 158.815 406.807 160.798C408.239 162.762 409.258 165.787 409.866 169.853C410.121 171.542 410.513 172.642 411.004 173.133C411.494 173.624 412.651 174.115 414.474 174.566C415.024 174.724 415.494 175.038 415.867 175.548C416.239 176.059 416.435 176.609 416.435 177.218C416.435 178.004 416.082 178.809 415.377 179.614C414.671 180.419 413.768 181.048 412.651 181.519C410.199 182.521 406.827 183.012 402.571 183.012C396.865 183.012 392.786 181.696 390.335 179.064C389.217 177.886 388.276 176.413 387.511 174.625C386.726 172.838 385.824 170.049 384.766 166.258C384.099 163.823 383.236 162.114 382.197 161.113C381.157 160.111 379.667 159.581 377.745 159.502L377.726 159.423ZM375.196 139.861L374.706 148.798V149.151C374.706 150.074 374.863 150.683 375.176 150.998C375.49 151.312 376.098 151.449 377.039 151.449C379.608 151.449 381.491 150.86 382.648 149.701C383.824 148.542 384.393 146.677 384.393 144.123C384.393 139.193 382.393 136.719 378.392 136.719C377.255 136.719 376.451 136.954 375.98 137.406C375.51 137.858 375.255 138.683 375.196 139.861Z" stroke="white" style="stroke:white;stroke-opacity:1;" stroke-width="5" stroke-miterlimit="10"/>
<path d="M440.751 127.998C443.771 127.998 447.713 128.646 452.596 129.962C453.184 130.119 453.655 130.198 453.988 130.198C454.282 130.198 455.165 129.962 456.616 129.51C457.087 129.353 457.577 129.275 458.106 129.275C460.067 129.275 462.126 130.63 464.303 133.34C466.48 136.051 467.578 138.643 467.578 141.079C467.578 142.513 467.088 143.711 466.107 144.693C465.127 145.675 463.93 146.166 462.538 146.166C461.361 146.166 460.42 145.969 459.695 145.557C458.969 145.145 457.361 143.927 454.871 141.923C451.36 139.056 447.909 137.622 444.517 137.622C442.889 137.622 441.575 137.976 440.595 138.663C439.614 139.35 439.124 140.254 439.124 141.393C439.124 143.613 441.359 145.302 445.83 146.421C451.87 147.973 455.753 149.112 457.44 149.839C464.891 153.001 468.617 157.675 468.617 163.843C468.617 169.283 466.068 173.741 460.989 177.179C455.792 180.714 448.988 182.462 440.614 182.462C436.869 182.462 432.927 182.069 428.77 181.284C424.613 180.498 421.632 179.594 419.789 178.534C418.377 177.709 417.122 175.922 416.004 173.192C414.886 170.442 414.317 167.771 414.317 165.158C414.317 163.901 414.612 162.959 415.2 162.311C415.925 161.486 416.847 161.093 417.965 161.093C419.083 161.093 420.142 161.584 421.161 162.586C421.769 163.155 423.22 164.942 425.495 167.987C426.574 169.42 428.299 170.599 430.652 171.561C433.006 172.504 435.437 172.975 437.947 172.975C440.104 172.975 441.869 172.622 443.203 171.915C444.556 171.208 445.223 170.304 445.223 169.204C445.223 168.183 444.693 167.299 443.654 166.553C442.595 165.807 440.889 165.119 438.516 164.491C434.339 163.332 431.143 162.291 428.966 161.328C426.77 160.366 424.73 159.168 422.828 157.695C418.22 154.12 415.906 150.055 415.906 145.498C415.906 143.259 416.494 141.059 417.71 138.918C418.906 136.778 420.612 134.931 422.789 133.38C427.691 129.785 433.692 127.979 440.771 127.979L440.751 127.998Z" stroke="white" style="stroke:white;stroke-opacity:1;" stroke-width="5" stroke-miterlimit="10"/>
<path d="M476.755 129.079H499.287C503.856 129.079 507.17 129 509.269 128.823C511.367 128.666 513.387 128.313 515.387 127.802C515.995 127.645 516.485 127.566 516.838 127.566C518.367 127.566 519.701 128.293 520.878 129.707C522.799 132.025 523.78 134.853 523.78 138.153C523.78 139.822 523.368 141.119 522.584 142.081C521.78 143.043 520.681 143.515 519.27 143.515C518.309 143.515 517.544 143.338 517.014 143.004C516.465 142.651 515.74 141.885 514.838 140.686C513.543 138.978 511.916 137.839 509.955 137.249C507.994 136.66 504.739 136.385 500.248 136.385C496.895 136.385 494.836 136.915 494.11 137.956C493.737 138.526 493.502 139.272 493.424 140.215C493.345 141.158 493.306 143.574 493.306 147.462C493.306 148.994 493.6 149.957 494.188 150.31C494.777 150.684 496.306 150.86 498.797 150.86C500.032 150.86 500.915 150.644 501.464 150.193C502.013 149.741 502.366 148.955 502.523 147.796C502.719 146.323 502.934 145.302 503.15 144.752C503.366 144.202 503.778 143.731 504.366 143.318C504.974 142.867 505.7 142.631 506.504 142.631C507.7 142.631 508.719 143.122 509.582 144.124C510.19 144.87 510.72 146.166 511.131 148.052C511.543 149.937 511.759 151.901 511.759 153.944C511.759 157.99 511.033 161.29 509.621 163.882C508.837 165.296 507.641 165.984 506.033 165.984C505.033 165.984 504.346 165.768 503.974 165.316C503.601 164.864 503.307 163.941 503.091 162.527C502.66 159.64 500.719 158.186 497.306 158.186C495.993 158.186 495.091 158.56 494.62 159.286C494.13 160.013 493.894 161.368 493.894 163.332C493.894 164.53 493.992 166.082 494.188 167.987C494.385 169.892 494.581 171.149 494.777 171.758C495.012 172.524 495.738 173.054 496.953 173.349C498.169 173.644 500.189 173.781 503.033 173.781C507.425 173.781 510.72 173.29 512.936 172.308C515.151 171.326 516.975 169.539 518.367 166.966C519.191 165.493 519.917 164.491 520.583 163.98C521.231 163.47 522.093 163.214 523.152 163.214C524.388 163.214 525.388 163.686 526.192 164.609C526.996 165.552 527.388 166.71 527.388 168.125C527.388 169.657 526.937 171.581 526.035 173.879C525.133 176.177 524.015 178.22 522.701 180.007C522.035 180.871 521.466 181.461 521.034 181.755C520.603 182.05 520.034 182.187 519.368 182.187C518.819 182.187 518.014 182.109 516.956 181.952C515.093 181.637 512.583 181.461 509.465 181.382H472.284C470.794 181.382 469.637 181.087 468.813 180.518C467.99 179.948 467.578 179.123 467.578 178.082C467.578 177.336 467.754 176.806 468.107 176.472C468.46 176.138 469.264 175.726 470.519 175.215C471.402 174.881 472.049 174.469 472.461 173.997C472.892 173.506 473.206 172.799 473.441 171.856C474.402 167.987 474.892 162.802 474.892 156.242C474.892 146.382 474.186 140.156 472.794 137.564C472.5 137.053 472.186 136.699 471.833 136.483C471.48 136.267 470.755 136.032 469.637 135.757C467.97 135.325 467.146 134.342 467.146 132.85C467.146 132.025 467.421 131.298 467.97 130.67C468.519 130.041 469.264 129.609 470.166 129.413C471.304 129.177 473.52 129.059 476.795 129.059L476.755 129.079Z" stroke="white" style="stroke:white;stroke-opacity:1;" stroke-width="5" stroke-miterlimit="10"/>
<path d="M116.424 148.248V157.597C116.424 163.254 115.933 167.241 114.973 169.598C112.894 174.567 108.344 178.141 101.305 180.38C97.0296 181.755 92.2252 182.443 86.8324 182.443C77.4589 182.443 69.9483 180.479 64.3007 176.57C61.5553 174.645 59.6532 172.426 58.5942 169.892C57.5353 167.359 57.0254 163.705 57.0254 158.933C57.0254 157.067 57.1039 154.003 57.2411 149.721C57.3196 146.697 57.3784 144.713 57.3784 143.731C57.3784 141.61 57.2019 140.137 56.8293 139.312C56.4567 138.487 55.6724 137.721 54.4369 137.014C52.5152 135.914 51.5347 134.696 51.5347 133.321C51.5347 132.32 52.0249 131.436 53.0054 130.67C53.9859 129.904 55.2802 129.373 56.8882 129.098C60.1042 128.529 63.9085 128.254 68.2815 128.254C73.1055 128.254 77.1059 128.568 80.2827 129.216C83.4007 129.825 84.9695 131.22 84.9695 133.4C84.9695 134.48 84.5185 135.325 83.6164 135.973C83.4203 136.13 82.5379 136.523 80.9887 137.171C80.0474 137.524 79.4199 138.172 79.0865 139.135C78.7532 140.078 78.5767 141.649 78.5767 143.809C78.5767 145.97 78.459 150.841 78.2237 158.226C78.0864 162.625 79.4395 165.964 82.3026 168.282C84.6361 170.167 87.6561 171.13 91.3231 171.13C93.6567 171.13 95.7745 170.756 97.6767 169.99C99.5789 169.225 101.03 168.203 102.01 166.907C102.795 165.905 103.344 164.805 103.638 163.568C103.932 162.35 104.07 160.661 104.07 158.54V150.114C103.932 143.652 103.717 139.862 103.442 138.742C103.167 137.623 102.226 136.758 100.618 136.11C99.0886 135.521 98.0689 134.991 97.5002 134.5C96.9511 134.009 96.6766 133.419 96.6766 132.693C96.6766 131.161 97.7159 130.041 99.8142 129.334C101.893 128.627 105.266 128.274 109.874 128.274C114.482 128.274 117.679 128.627 119.718 129.314C121.758 130.002 122.758 131.102 122.758 132.614C122.758 133.36 122.581 133.91 122.228 134.264C121.875 134.618 120.954 135.167 119.463 135.914C117.914 136.68 117.032 137.505 116.816 138.389C116.6 139.272 116.463 142.552 116.404 148.229L116.424 148.248Z" fill="#0000FF" style="fill:#0000FF;fill:color(display-p3 0.0000 0.0000 1.0000);fill-opacity:1;"/>
<path d="M145.387 130.925L167.213 147.639C169.253 149.191 170.743 149.977 171.645 149.977C173.175 149.977 173.92 148.563 173.92 145.715C173.92 142.494 173.704 140.294 173.253 139.115C172.822 137.937 171.9 137.053 170.488 136.464C169.351 135.973 168.547 135.462 168.076 134.912C167.605 134.362 167.37 133.655 167.37 132.791C167.37 130.65 169.057 129.256 172.41 128.647C173.782 128.391 176.175 128.254 179.607 128.254C184.019 128.254 187.078 128.49 188.764 128.941C191.451 129.668 192.804 131.004 192.804 133.007C192.804 134.677 191.706 135.914 189.51 136.758C188.627 137.092 188.039 137.387 187.706 137.642C187.372 137.898 187.098 138.29 186.882 138.781C186.098 140.471 185.686 143.672 185.646 148.366V160.877C185.646 162.802 185.646 165.414 185.686 168.734C185.705 173.231 185.411 176.472 184.764 178.475C183.98 180.95 182.548 182.188 180.469 182.188C179.567 182.188 178.783 182.03 178.116 181.696C177.469 181.363 176.371 180.597 174.841 179.399L148.839 159.031C147.035 157.597 145.525 156.89 144.328 156.89C142.544 156.89 141.662 159.051 141.662 163.372C141.662 166.927 141.897 169.362 142.348 170.658C142.799 171.955 143.721 172.917 145.132 173.526C147.093 174.37 148.074 175.47 148.074 176.826C148.074 180.381 143.701 182.148 134.975 182.148C131.033 182.148 127.974 181.696 125.797 180.793C123.62 179.89 122.522 178.593 122.522 176.943C122.522 176.079 122.718 175.431 123.13 174.979C123.542 174.547 124.464 173.958 125.895 173.212C127.268 172.505 128.091 171.228 128.386 169.421C128.876 166.121 129.131 161.388 129.131 155.201C129.131 148.602 128.699 143.79 127.817 140.785C127.503 139.685 127.091 138.86 126.582 138.33C126.091 137.799 125.268 137.289 124.13 136.798C122.816 136.228 121.895 135.678 121.385 135.148C120.875 134.618 120.62 133.95 120.62 133.184C120.62 130.729 123.032 129.177 127.856 128.549C129.484 128.352 132.347 128.234 136.445 128.234C138.779 128.234 140.485 128.391 141.544 128.706C142.603 129.02 143.877 129.747 145.329 130.866L145.387 130.925Z" fill="#0000FF" style="fill:#0000FF;fill:color(display-p3 0.0000 0.0000 1.0000);fill-opacity:1;"/>
<path d="M210.061 128.273C213.395 128.273 216.532 128.529 219.493 129.039C223.474 129.727 225.455 131.2 225.455 133.459C225.455 134.205 225.259 134.755 224.866 135.128C224.474 135.501 223.474 136.051 221.866 136.758C220.513 137.347 219.63 138.644 219.219 140.627C218.787 142.631 218.591 146.5 218.591 152.294C218.591 162.056 218.866 168.105 219.415 170.442C219.611 171.188 219.925 171.758 220.356 172.151C220.787 172.544 221.513 172.976 222.572 173.428C224.494 174.194 225.474 175.313 225.474 176.766C225.474 178.809 223.69 180.223 220.121 180.989C216.258 181.814 211.551 182.207 205.962 182.207C196.432 182.207 191.667 180.616 191.667 177.454C191.667 176.295 192.608 175.234 194.471 174.233C195.903 173.467 196.746 172.426 197.02 171.09C197.569 168.183 197.844 161.997 197.844 152.53C197.844 145.989 197.471 141.786 196.707 139.96C196.295 138.919 195.314 137.976 193.765 137.131C192.569 136.444 191.765 135.874 191.353 135.403C190.941 134.951 190.745 134.362 190.745 133.635C190.745 132.535 191.353 131.671 192.569 131.004C193.785 130.336 195.922 129.766 198.981 129.255C202.629 128.607 206.335 128.293 210.08 128.293L210.061 128.273Z" fill="#0000FF" style="fill:#0000FF;fill:color(display-p3 0.0000 0.0000 1.0000);fill-opacity:1;"/>
<path d="M284.304 140.961L264.184 176.59C262.949 178.789 261.792 180.302 260.674 181.127C259.556 181.952 258.164 182.364 256.458 182.364C255.065 182.364 253.791 182.089 252.693 181.559C251.849 181.146 251.183 180.675 250.692 180.125C250.202 179.575 249.594 178.593 248.869 177.159L230.945 142.611C229.945 140.667 229.063 139.351 228.239 138.644C227.435 137.937 226.298 137.465 224.807 137.249C223.062 136.974 222.18 136.032 222.18 134.401C222.18 132.437 223.709 130.925 226.788 129.864C229.867 128.804 234.259 128.273 239.985 128.273C245.712 128.273 250.339 128.666 253.144 129.472C255.948 130.277 257.36 131.495 257.36 133.144C257.36 134.225 256.595 135.207 255.085 136.13C253.908 136.817 253.34 137.465 253.34 138.094C253.34 138.663 253.595 139.469 254.124 140.51L259.595 151.332C260.38 152.923 261.282 153.708 262.262 153.708C263.243 153.708 264.086 153.296 264.851 152.451C265.616 151.607 266.635 149.937 267.91 147.462C270.224 143.024 271.557 140.392 271.95 139.587C272.342 138.781 272.518 138.153 272.518 137.721C272.518 136.856 271.832 136.11 270.459 135.501C268.93 134.814 268.184 133.93 268.184 132.85C268.184 129.805 272.852 128.293 282.166 128.293C286.814 128.293 290.089 128.627 292.01 129.275C293.932 129.923 294.873 131.043 294.873 132.634C294.873 134.519 293.618 135.619 291.108 135.894C289.324 136.071 288.167 136.326 287.637 136.66C286.696 137.249 285.598 138.703 284.304 141.001V140.961Z" fill="#0000FF" style="fill:#0000FF;fill:color(display-p3 0.0000 0.0000 1.0000);fill-opacity:1;"/>
<path d="M300.6 129.079H323.131C327.7 129.079 331.014 129 333.113 128.823C335.211 128.666 337.231 128.313 339.231 127.802C339.839 127.645 340.329 127.566 340.682 127.566C342.212 127.566 343.545 128.293 344.722 129.707C346.644 132.025 347.624 134.853 347.624 138.153C347.624 139.822 347.212 141.119 346.428 142.081C345.624 143.043 344.526 143.515 343.114 143.515C342.153 143.515 341.388 143.338 340.859 143.004C340.31 142.651 339.584 141.885 338.682 140.686C337.388 138.978 335.76 137.839 333.799 137.249C331.838 136.66 328.583 136.385 324.092 136.385C320.739 136.385 318.68 136.915 317.954 137.956C317.582 138.526 317.346 139.272 317.268 140.215C317.19 141.158 317.15 143.574 317.15 147.462C317.15 148.994 317.444 149.957 318.033 150.31C318.621 150.684 320.151 150.86 322.641 150.86C323.876 150.86 324.759 150.644 325.308 150.193C325.857 149.741 326.21 148.955 326.367 147.796C326.563 146.323 326.779 145.302 326.994 144.752C327.21 144.202 327.622 143.731 328.21 143.318C328.818 142.867 329.544 142.631 330.348 142.631C331.544 142.631 332.564 143.122 333.426 144.124C334.034 144.87 334.564 146.166 334.976 148.052C335.388 149.937 335.603 151.901 335.603 153.944C335.603 157.99 334.878 161.29 333.466 163.882C332.681 165.296 331.485 165.984 329.877 165.984C328.877 165.984 328.191 165.768 327.818 165.316C327.445 164.864 327.151 163.941 326.936 162.527C326.504 159.64 324.563 158.186 321.151 158.186C319.837 158.186 318.935 158.56 318.464 159.286C317.974 160.013 317.739 161.368 317.739 163.332C317.739 164.53 317.837 166.082 318.033 167.987C318.229 169.892 318.425 171.149 318.621 171.758C318.856 172.524 319.582 173.054 320.798 173.349C322.014 173.644 324.033 173.781 326.877 173.781C331.269 173.781 334.564 173.29 336.78 172.308C338.996 171.326 340.819 169.539 342.212 166.966C343.035 165.493 343.761 164.491 344.428 163.98C345.075 163.47 345.938 163.214 346.997 163.214C348.232 163.214 349.232 163.686 350.036 164.609C350.84 165.552 351.232 166.71 351.232 168.125C351.232 169.657 350.781 171.581 349.879 173.879C348.977 176.177 347.859 178.22 346.546 180.007C345.879 180.871 345.31 181.461 344.879 181.755C344.447 182.05 343.879 182.187 343.212 182.187C342.663 182.187 341.859 182.109 340.8 181.952C338.937 181.637 336.427 181.461 333.309 181.382H296.129C294.638 181.382 293.481 181.087 292.658 180.518C291.834 179.948 291.422 179.123 291.422 178.082C291.422 177.336 291.599 176.806 291.952 176.472C292.305 176.138 293.109 175.726 294.364 175.215C295.246 174.881 295.893 174.469 296.305 173.997C296.736 173.506 297.05 172.799 297.286 171.856C298.246 167.987 298.737 162.802 298.737 156.242C298.737 146.382 298.031 140.156 296.638 137.564C296.344 137.053 296.03 136.699 295.677 136.483C295.325 136.267 294.599 136.032 293.481 135.757C291.814 135.325 290.991 134.342 290.991 132.85C290.991 132.025 291.265 131.298 291.814 130.67C292.363 130.041 293.109 129.609 294.011 129.413C295.148 129.177 297.364 129.059 300.639 129.059L300.6 129.079Z" fill="#0000FF" style="fill:#0000FF;fill:color(display-p3 0.0000 0.0000 1.0000);fill-opacity:1;"/>
<path d="M377.726 159.423C376.608 159.423 375.902 159.718 375.608 160.307C375.294 160.896 375.137 162.271 375.137 164.412C375.137 167.653 375.372 170.187 375.843 172.013C376 172.524 376.216 172.917 376.51 173.192C376.804 173.467 377.353 173.82 378.177 174.233C379.922 175.077 380.804 176.197 380.804 177.571C380.804 179.261 379.589 180.459 377.137 181.166C374.686 181.873 370.568 182.226 364.744 182.226C353.939 182.226 348.526 180.439 348.526 176.864C348.526 176.256 348.683 175.765 349.017 175.391C349.33 175.018 350.076 174.508 351.213 173.84C352.507 173.093 353.37 172.229 353.821 171.208C354.272 170.187 354.586 168.458 354.762 165.964C354.9 164.157 354.978 157.636 354.978 146.441C354.978 142.886 354.782 140.47 354.37 139.193C353.958 137.917 353.076 136.994 351.742 136.404C350.448 135.874 349.585 135.383 349.154 134.931C348.723 134.48 348.507 133.91 348.507 133.183C348.507 132.241 348.919 131.416 349.762 130.709C350.605 130.002 351.762 129.491 353.252 129.157C354.507 128.882 356.233 128.745 358.429 128.745C359.39 128.745 361.802 128.882 365.665 129.137C366.391 129.196 367.548 129.216 369.136 129.216C371.764 129.216 375.274 129.059 379.667 128.764C382.452 128.587 384.393 128.489 385.491 128.489C391.747 128.489 396.924 129.805 401.002 132.437C404.689 134.814 406.532 138.113 406.532 142.336C406.532 144.693 405.885 146.834 404.611 148.759C403.316 150.683 401.552 152.137 399.316 153.119C398.375 153.531 397.904 154.022 397.904 154.572C397.904 155.319 398.63 155.908 400.061 156.379C403.12 157.361 405.375 158.815 406.807 160.798C408.239 162.762 409.258 165.787 409.866 169.853C410.121 171.542 410.513 172.642 411.004 173.133C411.494 173.624 412.651 174.115 414.474 174.566C415.024 174.724 415.494 175.038 415.867 175.548C416.239 176.059 416.435 176.609 416.435 177.218C416.435 178.004 416.082 178.809 415.377 179.614C414.671 180.419 413.768 181.048 412.651 181.519C410.199 182.521 406.827 183.012 402.571 183.012C396.865 183.012 392.786 181.696 390.335 179.064C389.217 177.886 388.276 176.413 387.511 174.625C386.726 172.838 385.824 170.049 384.766 166.258C384.099 163.823 383.236 162.114 382.197 161.113C381.157 160.111 379.667 159.581 377.745 159.502L377.726 159.423ZM375.196 139.861L374.706 148.798V149.151C374.706 150.074 374.863 150.683 375.176 150.998C375.49 151.312 376.098 151.449 377.039 151.449C379.608 151.449 381.491 150.86 382.648 149.701C383.824 148.542 384.393 146.677 384.393 144.123C384.393 139.193 382.393 136.719 378.392 136.719C377.255 136.719 376.451 136.954 375.98 137.406C375.51 137.858 375.255 138.683 375.196 139.861Z" fill="#0000FF" style="fill:#0000FF;fill:color(display-p3 0.0000 0.0000 1.0000);fill-opacity:1;"/>
<path d="M440.751 127.998C443.771 127.998 447.713 128.646 452.596 129.962C453.184 130.119 453.655 130.198 453.988 130.198C454.282 130.198 455.165 129.962 456.616 129.51C457.087 129.353 457.577 129.275 458.106 129.275C460.067 129.275 462.126 130.63 464.303 133.34C466.48 136.051 467.578 138.643 467.578 141.079C467.578 142.513 467.088 143.711 466.107 144.693C465.127 145.675 463.93 146.166 462.538 146.166C461.361 146.166 460.42 145.969 459.695 145.557C458.969 145.145 457.361 143.927 454.871 141.923C451.36 139.056 447.909 137.622 444.517 137.622C442.889 137.622 441.575 137.976 440.595 138.663C439.614 139.35 439.124 140.254 439.124 141.393C439.124 143.613 441.359 145.302 445.83 146.421C451.87 147.973 455.753 149.112 457.44 149.839C464.891 153.001 468.617 157.675 468.617 163.843C468.617 169.283 466.068 173.741 460.989 177.179C455.792 180.714 448.988 182.462 440.614 182.462C436.869 182.462 432.927 182.069 428.77 181.284C424.613 180.498 421.632 179.594 419.789 178.534C418.377 177.709 417.122 175.922 416.004 173.192C414.886 170.442 414.317 167.771 414.317 165.158C414.317 163.901 414.612 162.959 415.2 162.311C415.925 161.486 416.847 161.093 417.965 161.093C419.083 161.093 420.142 161.584 421.161 162.586C421.769 163.155 423.22 164.942 425.495 167.987C426.574 169.42 428.299 170.599 430.652 171.561C433.006 172.504 435.437 172.975 437.947 172.975C440.104 172.975 441.869 172.622 443.203 171.915C444.556 171.208 445.223 170.304 445.223 169.204C445.223 168.183 444.693 167.299 443.654 166.553C442.595 165.807 440.889 165.119 438.516 164.491C434.339 163.332 431.143 162.291 428.966 161.328C426.77 160.366 424.73 159.168 422.828 157.695C418.22 154.12 415.906 150.055 415.906 145.498C415.906 143.259 416.494 141.059 417.71 138.918C418.906 136.778 420.612 134.931 422.789 133.38C427.691 129.785 433.692 127.979 440.771 127.979L440.751 127.998Z" fill="#0000FF" style="fill:#0000FF;fill:color(display-p3 0.0000 0.0000 1.0000);fill-opacity:1;"/>
<path d="M476.755 129.079H499.287C503.856 129.079 507.17 129 509.269 128.823C511.367 128.666 513.387 128.313 515.387 127.802C515.995 127.645 516.485 127.566 516.838 127.566C518.367 127.566 519.701 128.293 520.878 129.707C522.799 132.025 523.78 134.853 523.78 138.153C523.78 139.822 523.368 141.119 522.584 142.081C521.78 143.043 520.681 143.515 519.27 143.515C518.309 143.515 517.544 143.338 517.014 143.004C516.465 142.651 515.74 141.885 514.838 140.686C513.543 138.978 511.916 137.839 509.955 137.249C507.994 136.66 504.739 136.385 500.248 136.385C496.895 136.385 494.836 136.915 494.11 137.956C493.737 138.526 493.502 139.272 493.424 140.215C493.345 141.158 493.306 143.574 493.306 147.462C493.306 148.994 493.6 149.957 494.188 150.31C494.777 150.684 496.306 150.86 498.797 150.86C500.032 150.86 500.915 150.644 501.464 150.193C502.013 149.741 502.366 148.955 502.523 147.796C502.719 146.323 502.934 145.302 503.15 144.752C503.366 144.202 503.778 143.731 504.366 143.318C504.974 142.867 505.7 142.631 506.504 142.631C507.7 142.631 508.719 143.122 509.582 144.124C510.19 144.87 510.72 146.166 511.131 148.052C511.543 149.937 511.759 151.901 511.759 153.944C511.759 157.99 511.033 161.29 509.621 163.882C508.837 165.296 507.641 165.984 506.033 165.984C505.033 165.984 504.346 165.768 503.974 165.316C503.601 164.864 503.307 163.941 503.091 162.527C502.66 159.64 500.719 158.186 497.306 158.186C495.993 158.186 495.091 158.56 494.62 159.286C494.13 160.013 493.894 161.368 493.894 163.332C493.894 164.53 493.992 166.082 494.188 167.987C494.385 169.892 494.581 171.149 494.777 171.758C495.012 172.524 495.738 173.054 496.953 173.349C498.169 173.644 500.189 173.781 503.033 173.781C507.425 173.781 510.72 173.29 512.936 172.308C515.151 171.326 516.975 169.539 518.367 166.966C519.191 165.493 519.917 164.491 520.583 163.98C521.231 163.47 522.093 163.214 523.152 163.214C524.388 163.214 525.388 163.686 526.192 164.609C526.996 165.552 527.388 166.71 527.388 168.125C527.388 169.657 526.937 171.581 526.035 173.879C525.133 176.177 524.015 178.22 522.701 180.007C522.035 180.871 521.466 181.461 521.034 181.755C520.603 182.05 520.034 182.187 519.368 182.187C518.819 182.187 518.014 182.109 516.956 181.952C515.093 181.637 512.583 181.461 509.465 181.382H472.284C470.794 181.382 469.637 181.087 468.813 180.518C467.99 179.948 467.578 179.123 467.578 178.082C467.578 177.336 467.754 176.806 468.107 176.472C468.46 176.138 469.264 175.726 470.519 175.215C471.402 174.881 472.049 174.469 472.461 173.997C472.892 173.506 473.206 172.799 473.441 171.856C474.402 167.987 474.892 162.802 474.892 156.242C474.892 146.382 474.186 140.156 472.794 137.564C472.5 137.053 472.186 136.699 471.833 136.483C471.48 136.267 470.755 136.032 469.637 135.757C467.97 135.325 467.146 134.342 467.146 132.85C467.146 132.025 467.421 131.298 467.97 130.67C468.519 130.041 469.264 129.609 470.166 129.413C471.304 129.177 473.52 129.059 476.795 129.059L476.755 129.079Z" fill="#0000FF" style="fill:#0000FF;fill:color(display-p3 0.0000 0.0000 1.0000);fill-opacity:1;"/>
</g>
<defs>
<clipPath id="clip0_2411_74">
<rect width="567" height="316" fill="white" style="fill:white;fill-opacity:1;"/>
</clipPath>
</defs>
</svg>
