<?xml version="1.0" encoding="UTF-8"?>
<svg id="_레이어_1" data-name="레이어 1" xmlns="http://www.w3.org/2000/svg" viewBox="0 0 392.32 119.62">
  <defs>
    <style>
      .cls-1, .cls-2 {
        fill: #f5e73d;
      }

      .cls-3 {
        fill: #e38522;
      }

      .cls-2 {
        stroke: #e38522;
        stroke-linecap: round;
        stroke-linejoin: round;
        stroke-width: 3px;
      }
    </style>
  </defs>
  <g>
    <g>
      <path class="cls-1" d="M73.8,96.27c-.83,0-1.5-.67-1.5-1.5v-38.82c-10.68,7.82-17.77,12.45-24.77,16.19-.22.12-.47.18-.71.18-.44,0-.88-.2-1.17-.56l-4.88-6.12c-.28-.35-.39-.82-.29-1.26.1-.44.39-.82.79-1.02,19.45-9.77,34.22-21.23,47.89-37.17.29-.34.71-.52,1.14-.52.28,0,.57.08.82.24l5.86,3.82c.36.24.61.62.67,1.05.06.43-.07.86-.35,1.19-5.65,6.57-10.26,11.42-15.79,16.62v46.2c0,.83-.67,1.5-1.5,1.5h-6.21Z"/>
      <path class="cls-3" d="M90.31,27.16l5.86,3.82c-6.03,7.01-10.65,11.8-16.15,16.95v46.85h-6.21v-41.79c-11.27,8.34-19.17,13.66-26.97,17.83l-4.88-6.12c19.96-10.03,34.96-21.92,48.36-37.53M90.31,24.16c-.85,0-1.69.36-2.28,1.05-13.54,15.78-28.17,27.13-47.43,36.81-.81.41-1.39,1.15-1.58,2.04-.19.88.02,1.81.58,2.51l4.88,6.12c.59.73,1.46,1.13,2.35,1.13.48,0,.96-.12,1.41-.35,6.53-3.49,13.12-7.73,22.56-14.56v35.87c0,1.66,1.34,3,3,3h6.21c1.66,0,3-1.34,3-3v-45.55c5.36-5.07,9.9-9.87,15.42-16.29.56-.66.82-1.52.7-2.38-.12-.86-.61-1.62-1.33-2.09l-5.86-3.82c-.5-.33-1.07-.49-1.64-.49h0Z"/>
    </g>
    <g>
      <path class="cls-1" d="M138.58,96.45c-.48,0-.94-.23-1.23-.64l-3.64-5.23c-.25-.36-.33-.8-.22-1.22.11-.42.39-.77.78-.97,21.41-10.84,25.8-22.77,25.8-37.35v-3.11h-20.63c-3.11,6.32-7.15,12.26-12.33,18.13-.27.31-.65.49-1.06.51-.02,0-.04,0-.06,0-.39,0-.76-.15-1.04-.42l-4.79-4.61c-.59-.57-.62-1.5-.06-2.1,8.85-9.5,14.69-21.29,17.37-35.02.14-.71.76-1.21,1.47-1.21.04,0,.09,0,.13,0l6.12.53c.43.04.82.26,1.08.61.26.35.35.79.26,1.21-1.02,4.61-2.04,8.78-3.57,13.62h45.49c.83,0,1.5.67,1.5,1.5v5.77c0,.83-.67,1.5-1.5,1.5h-19.26v3.11c0,21.12-9.23,35.08-29.94,45.27-.21.1-.44.15-.66.15Z"/>
      <path class="cls-3" d="M138.93,24.67l6.12.53c-1.15,5.24-2.31,9.85-4.17,15.44h47.56v5.77h-20.76v4.61c0,18.54-7.28,33.19-29.1,43.92l-3.64-5.23c20.5-10.38,26.62-22.01,26.62-38.69v-4.61h-23.07c-3.46,7.28-7.81,13.31-12.51,18.63l-4.79-4.61c8.34-8.96,14.82-20.76,17.75-35.76M138.93,21.67c-1.42,0-2.66,1.01-2.94,2.43-2.63,13.46-8.35,24.99-17,34.29-1.12,1.2-1.06,3.07.12,4.2l4.79,4.61c.56.54,1.31.84,2.08.84.04,0,.08,0,.12,0,.82-.03,1.59-.4,2.13-1.01,5.04-5.71,9.02-11.49,12.13-17.62h18.2v1.61c0,14.02-4.25,25.51-24.97,36.01-.77.39-1.34,1.1-1.55,1.94-.21.84-.05,1.73.45,2.45l3.64,5.23c.58.83,1.51,1.29,2.47,1.29.45,0,.9-.1,1.32-.31,21-10.33,30.78-25.14,30.78-46.61v-1.61h17.76c1.66,0,3-1.34,3-3v-5.77c0-1.66-1.34-3-3-3h-43.46c1.23-4.08,2.12-7.77,3-11.79.19-.84,0-1.73-.51-2.42-.51-.7-1.3-1.14-2.16-1.21l-6.12-.53c-.09,0-.18-.01-.26-.01h0Z"/>
    </g>
    <g>
      <path class="cls-1" d="M210.44,94.67c-.4,0-.8-.16-1.09-.47l-4.97-5.24c-.3-.32-.45-.75-.4-1.19.04-.44.28-.83.64-1.08,10.57-7.33,18.44-14.7,26.84-25.19-5.57-4.07-11.12-7.24-18.08-10.93-.38-.2-.66-.56-.76-.99-.1-.42,0-.87.25-1.22l3.55-4.88c.29-.4.75-.62,1.21-.62.23,0,.46.05.68.17,6.46,3.31,12.17,6.46,18.71,10.87,5.32-7.92,9.25-15.58,13.38-26.06.15-.39.46-.7.85-.85.17-.07.36-.1.54-.1.23,0,.45.05.66.15l6.12,3.02c.7.35,1.02,1.17.73,1.9-3.97,10.1-8.24,18.15-14.58,27.47,6.97,4.9,12.42,9.47,17.54,14.68.55.56.58,1.46.05,2.04l-4.79,5.41c-.28.32-.69.51-1.12.51h0c-.43,0-.84-.18-1.12-.51-4.58-5.17-9.49-9.69-15.81-14.52-9.96,12.92-18.21,20.9-28.22,27.38-.25.16-.53.24-.81.24Z"/>
      <path class="cls-3" d="M251.79,28.4l6.12,3.02c-4.26,10.83-8.7,18.9-15.26,28.39,8.34,5.77,13.84,10.56,18.54,15.35l-4.79,5.41c-4.79-5.41-10.12-10.29-17.21-15.62-9.94,13.04-18.19,21.38-28.75,28.22l-4.97-5.24c11-7.63,19.25-15.44,28.13-26.71-6.12-4.61-12.16-8.07-19.52-11.98l3.55-4.88c7.1,3.64,12.95,6.92,19.79,11.62,5.68-8.25,9.94-16.33,14.38-27.6M251.79,25.4c-.37,0-.73.07-1.08.2-.78.3-1.4.92-1.71,1.7-3.86,9.82-7.55,17.13-12.4,24.53-6.08-4.02-11.51-7-17.6-10.13-.44-.22-.9-.33-1.37-.33-.93,0-1.85.44-2.43,1.24l-3.55,4.88c-.51.7-.69,1.59-.5,2.44.2.85.75,1.57,1.52,1.97,6.37,3.38,11.54,6.31,16.62,9.9-7.94,9.72-15.5,16.71-25.53,23.67-.72.5-1.18,1.29-1.27,2.16-.09.87.21,1.74.81,2.37l4.97,5.24c.58.62,1.38.93,2.18.93.56,0,1.13-.16,1.63-.48,9.85-6.37,18-14.17,27.67-26.54,5.67,4.43,10.19,8.64,14.42,13.41.57.64,1.39,1.01,2.25,1.01.86,0,1.68-.37,2.25-1.01l4.79-5.41c1.04-1.18,1-2.97-.11-4.09-4.88-4.97-10.06-9.36-16.54-14,5.96-8.9,10.07-16.78,13.91-26.54.57-1.45-.07-3.1-1.47-3.79l-6.12-3.02c-.42-.21-.87-.31-1.33-.31h0Z"/>
    </g>
    <g>
      <path class="cls-1" d="M293.58,94.67c-.56,0-1.09-.32-1.35-.85l-2.93-6.03c-.2-.4-.2-.87-.01-1.28.19-.41.54-.71.98-.83,23.67-6.35,40.24-16.95,55.39-35.44.29-.35.71-.55,1.16-.55.03,0,.05,0,.08,0,.48.03.91.28,1.17.68l3.55,5.41c.36.55.32,1.27-.1,1.78-16.23,19.65-33.44,30.73-57.56,37.05-.13.03-.25.05-.38.05ZM308.67,50.84c-.39,0-.77-.15-1.05-.43-5.99-5.88-11.53-10.28-16.92-13.44-.39-.23-.66-.62-.72-1.07-.07-.45.07-.9.38-1.24l4.35-4.7c.29-.32.7-.48,1.1-.48.27,0,.54.07.79.22,6.14,3.8,12.7,8.82,17.55,13.41.58.55.63,1.46.1,2.07l-4.44,5.15c-.27.31-.66.5-1.07.52-.02,0-.04,0-.06,0Z"/>
      <path class="cls-3" d="M295.8,30.97c5.59,3.46,12.16,8.34,17.3,13.22l-4.44,5.15c-4.7-4.61-10.56-9.76-17.21-13.66l4.35-4.7M346.82,51.21l3.55,5.41c-15.97,19.34-32.74,30.26-56.79,36.56l-2.93-6.03c24.13-6.48,40.82-17.21,56.17-35.94M295.8,27.97c-.81,0-1.62.33-2.2.96l-4.35,4.7c-.62.67-.9,1.58-.76,2.48.13.9.67,1.69,1.45,2.15,5.29,3.1,10.73,7.42,16.63,13.22.56.55,1.32.86,2.1.86.04,0,.08,0,.13,0,.83-.03,1.61-.41,2.15-1.04l4.44-5.15c1.05-1.21.95-3.03-.21-4.14-4.91-4.66-11.56-9.74-17.79-13.59-.49-.3-1.04-.45-1.58-.45h0ZM346.82,48.21c-.9,0-1.75.4-2.32,1.1-14.94,18.23-31.28,28.67-54.62,34.94-.86.23-1.58.84-1.95,1.65-.37.81-.36,1.75.03,2.56l2.93,6.03c.51,1.05,1.57,1.69,2.7,1.69.25,0,.51-.03.76-.1,24.45-6.41,41.9-17.64,58.34-37.55.84-1.01.92-2.46.2-3.56l-3.55-5.41c-.52-.8-1.4-1.3-2.35-1.35-.05,0-.11,0-.16,0h0Z"/>
    </g>
  </g>
  <polygon class="cls-2" points="364.85 19.02 368.8 8.34 372.75 19.02 383.42 22.96 372.75 26.91 368.8 37.59 364.85 26.91 354.18 22.96 364.85 19.02"/>
  <polygon class="cls-2" points="19.57 92.71 23.52 82.04 27.47 92.71 38.14 96.66 27.47 100.61 23.52 111.28 19.57 100.61 8.9 96.66 19.57 92.71"/>
</svg>