<svg width="148" height="53" viewBox="0 0 148 53" fill="none" xmlns="http://www.w3.org/2000/svg">
<path d="M102.598 47.1308C95.8076 47.7408 89.6676 43.0708 88.4676 36.3508C86.1276 23.2008 87.3277 3.33077 114.758 0.310774C142.178 -2.70923 147.498 16.9408 147.938 30.6408C148.168 37.6108 142.898 43.5308 135.948 44.1508L102.588 47.1308H102.598Z" fill="black" style="fill:black;fill-opacity:1;"/>
<path d="M104.518 22.7008C101.628 23.5208 98.9876 20.6208 99.9076 17.7608C101.098 14.0308 103.428 9.36077 107.428 10.5608C113.888 12.5008 113.128 17.4308 109.018 20.3708C107.368 21.5508 105.888 22.3108 104.518 22.7008Z" fill="white" style="fill:white;fill-opacity:1;"/>
<path d="M100.228 52.4108C96.2576 52.0208 92.9776 52.3708 93.1776 48.3808C93.3076 45.7508 94.9376 43.1708 100.438 42.4708C112.668 40.9208 137.768 40.1608 139.978 41.2608C142.188 42.3608 146.368 47.1708 139.108 49.8108C133.208 51.9608 110.838 53.4608 100.228 52.4108Z" fill="#3AC5EC" style="fill:#3AC5EC;fill:color(display-p3 0.2275 0.7725 0.9255);fill-opacity:1;"/>
<path d="M14.9277 47.1308C8.13771 47.7408 1.9977 43.0708 0.797704 36.3508C-1.5423 23.2008 -0.342287 3.33077 27.0877 0.310774C54.5077 -2.70923 59.8277 16.9408 60.2677 30.6408C60.4977 37.6108 55.2277 43.5308 48.2777 44.1508L14.9177 47.1308H14.9277Z" fill="black" style="fill:black;fill-opacity:1;"/>
<path d="M16.8577 22.7008C13.9677 23.5208 11.3277 20.6208 12.2477 17.7608C13.4377 14.0308 15.7677 9.36077 19.7677 10.5608C26.2277 12.5008 25.4677 17.4308 21.3577 20.3708C19.7077 21.5508 18.2277 22.3108 16.8577 22.7008Z" fill="white" style="fill:white;fill-opacity:1;"/>
<path d="M12.5677 52.4108C8.59771 52.0208 5.31772 52.3708 5.51772 48.3808C5.64772 45.7508 7.27773 43.1708 12.7777 42.4708C25.0077 40.9208 50.1077 40.1608 52.3177 41.2608C54.5277 42.3608 58.7077 47.1708 51.4477 49.8108C45.5477 51.9608 23.1777 53.4608 12.5677 52.4108Z" fill="#3AC5EC" style="fill:#3AC5EC;fill:color(display-p3 0.2275 0.7725 0.9255);fill-opacity:1;"/>
</svg>
