<svg width="183" height="137" viewBox="0 0 183 137" fill="none" xmlns="http://www.w3.org/2000/svg">
<path d="M92.0119 118.202C92.0119 118.202 68.703 118.202 64.3301 117.841C59.9573 117.48 32.6496 120.395 27.1803 118.564C21.711 116.732 2.05259 109.818 1.31733 98.8923C0.44018 85.8125 15.1582 65.0189 20.6146 61.0201C26.071 57.0213 27.1674 53.732 26.8062 50.8168C26.445 47.9016 25.3486 37.7112 31.5403 30.7843C37.7319 23.8574 57.0292 4.19893 65.4137 2.38014C73.7982 0.561347 91.999 1.2837 101.467 2.74132C110.935 4.19893 121.138 11.487 127.691 10.0294C134.244 8.57177 153.554 13.667 157.927 21.6903C162.3 29.7007 155.012 42.8193 158.649 49.0109C162.287 55.2025 165.937 63.5741 165.937 67.947C165.937 72.3198 165.215 82.8843 175.044 89.7983C184.874 96.7123 182.332 108.734 176.863 111.288C171.394 113.843 138.617 122.949 125.872 117.841C113.128 112.733 102.202 114.926 102.202 114.926C102.202 114.926 104.382 132.779 111.67 135.32C111.67 135.32 94.9142 132.766 91.999 118.202H92.0119Z" fill="#C9E2A8" style="fill:#C9E2A8;fill:color(display-p3 0.7882 0.8863 0.6588);fill-opacity:1;"/>
<path d="M111.683 136.61C111.619 136.61 111.554 136.61 111.49 136.597C111.322 136.571 94.6045 133.862 90.9799 119.492C86.3619 119.492 68.1224 119.454 64.2268 119.118C62.7821 119.002 58.3448 119.273 53.2109 119.608C43.1108 120.253 30.5598 121.053 26.7803 119.789C17.093 116.564 0.749638 109.573 0.0401796 98.9826C-0.888566 85.0772 14.5389 63.8838 19.8663 59.9753C25.3872 55.9249 25.8 53.0355 25.542 50.9716C24.4327 42.1357 26.187 34.8476 30.5985 29.9201C36.7385 23.0577 56.2551 3.05091 65.1556 1.11602C73.9529 -0.793067 92.3601 0.0325103 101.686 1.46433C105.93 2.12219 110.2 3.85068 114.315 5.52758C119.345 7.57856 124.105 9.50056 127.433 8.7653C134.424 7.21739 154.393 12.4803 159.075 21.0583C161.577 25.6504 160.597 31.6744 159.733 36.9759C158.998 41.5165 158.288 45.799 159.784 48.3402C163.383 54.4544 167.253 63.1872 167.253 67.9341V68.7984C167.202 73.6227 167.124 82.6135 175.805 88.7406C180.836 92.2879 183.442 97.5508 182.939 103.201C182.564 107.432 180.397 111.069 177.418 112.462C172.271 114.862 138.72 124.368 125.408 119.041C115.592 115.107 106.794 115.648 103.673 116.023C104.511 121.44 107.181 132.379 112.109 134.107C112.741 134.327 113.089 134.984 112.934 135.642C112.792 136.223 112.264 136.623 111.683 136.623V136.61ZM63.311 116.513C63.7625 116.513 64.1495 116.513 64.4461 116.551C68.7158 116.913 91.7925 116.913 92.0247 116.913C92.6439 116.913 93.1727 117.351 93.2888 117.944C94.9657 126.303 101.609 130.47 106.485 132.443C102.46 126.484 101.119 116.526 100.938 115.081C100.861 114.41 101.299 113.791 101.97 113.662C102.434 113.572 113.425 111.456 126.375 116.642C138.243 121.389 170.22 112.965 176.334 110.115C178.463 109.121 180.075 106.258 180.372 102.968C180.565 100.75 180.372 95.1128 174.322 90.8561C164.518 83.955 164.622 73.713 164.66 68.7855V67.947C164.66 63.8708 161.087 55.6669 157.566 49.6559C155.605 46.315 156.366 41.581 157.192 36.5761C158.03 31.4422 158.894 26.1277 156.818 22.3095C152.78 14.9053 134.063 9.95202 128.001 11.2935C123.886 12.2094 118.765 10.1326 113.347 7.92682C109.361 6.30152 105.246 4.63753 101.299 4.03126C92.3859 2.66394 74.0947 1.82548 65.7102 3.65717C58.1642 5.29538 39.757 23.5736 32.5205 31.6615C28.6249 36.0214 27.0899 42.5871 28.1089 50.6749C28.612 54.7253 26.4836 58.35 21.4013 62.0779C16.5125 65.6638 1.76868 86.0059 2.62003 98.8278C3.0586 105.458 12.1655 112.217 27.6059 117.351C30.9081 118.448 44.233 117.609 53.0561 117.042C57.5321 116.758 61.2342 116.526 63.3239 116.526L63.311 116.513Z" fill="black" style="fill:black;fill-opacity:1;"/>
</svg>
