<svg width="185" height="118" viewBox="0 0 185 118" fill="none" xmlns="http://www.w3.org/2000/svg">
<path d="M43.9224 23.9728C43.9224 23.9728 46.3079 7.61096 63.072 4.97286C93.3353 0.21119 90.5849 18.734 90.5849 18.734C90.5849 18.734 94.4766 7.92903 115.095 7.62032C135.713 7.3116 137.753 24.7305 137.753 24.7305C137.753 24.7305 150.513 16.6479 160.785 22.4386C171.047 28.2293 172.497 46.2937 165.032 47.2573C165.032 47.2573 178.989 51.626 180.149 63.4507C181.309 75.2754 163.413 80.4674 163.413 80.4674C163.413 80.4674 172.824 95.0424 154.479 104.004C132.963 114.51 127.902 97.0818 127.902 97.0818C127.902 97.0818 131.157 113.818 109.894 113.528C88.6297 113.238 89.163 97.5869 89.163 97.5869C89.163 97.5869 79.5648 112.845 66.7017 112.358C51.6683 111.788 46.9347 103.873 46.5137 94.5185C46.5137 94.5185 31.4523 107.082 21.1244 100.047C10.0762 92.5165 18.9727 80.1399 18.9727 80.1399C18.9727 80.1399 4.09837 80.2803 4.21998 63.6565C4.35095 45.4424 20.376 47.6034 20.376 47.6034C20.376 47.6034 8.38293 39.2214 19.0663 26.9851C32.1445 12.0078 43.9411 23.9821 43.9411 23.9821L43.9224 23.9728Z" fill="white" style="fill:white;fill-opacity:1;"/>
<path d="M110.417 117.738C110.221 117.738 110.025 117.738 109.828 117.738C101.25 117.625 94.6637 115.221 90.2575 110.6C89.0039 109.281 88.0404 107.905 87.3107 106.568C82.68 111.367 75.3831 116.924 66.5333 116.568C54.3157 116.11 46.3453 110.88 43.464 101.666C37.2429 105.267 27.1115 109.224 18.7482 103.527C14.8191 100.852 12.3494 97.2221 11.6104 93.0311C10.9649 89.392 11.6852 85.94 12.6862 83.2271C10.3849 82.4413 7.79354 81.1035 5.51093 78.8302C1.80636 75.135 -0.0459106 70.0179 0.000864157 63.6284C0.0476389 56.6216 2.17121 51.2518 6.28739 47.6782C8.16774 46.0505 10.2352 45.0121 12.2184 44.3666C11.4139 42.8043 10.7778 40.9801 10.5252 38.922C9.91711 33.9358 11.7226 28.987 15.8856 24.2253C20.9279 18.4533 26.4941 15.441 32.4345 15.2633C36.0081 15.151 39.1233 16.1333 41.5369 17.312C44.3808 10.6139 50.6954 2.67153 62.4265 0.828602C75.3457 -1.20142 84.6539 0.501178 90.0984 5.90834C91.2959 7.09642 92.2127 8.37805 92.9049 9.68775C97.4421 6.37609 104.561 3.57896 115.029 3.41993C130.128 3.19541 137.519 11.54 140.447 18.7059C145.854 16.4888 154.797 14.2343 162.852 18.7714C171.44 23.6173 175.126 35.0116 173.61 42.8043C173.376 44.0298 173.002 45.143 172.525 46.144C177.399 49.0628 183.498 54.3764 184.35 63.0484C185.416 73.9189 175.201 80.1212 169.045 82.8435C169.952 85.7248 170.57 89.6633 169.4 93.9011C167.791 99.6731 163.395 104.351 156.341 107.803C147.79 111.975 140.344 112.714 134.216 110.001C132.785 109.365 131.541 108.588 130.446 107.737C129.913 108.832 129.23 109.917 128.36 110.955C124.581 115.474 118.556 117.766 110.436 117.766L110.417 117.738ZM89.1536 93.3772C89.5652 93.3772 89.9862 93.4333 90.3978 93.5643C92.2127 94.1256 93.4288 95.8282 93.3633 97.7272C93.354 98.8498 93.7095 109.094 109.94 109.318C115.675 109.402 119.669 108.139 121.84 105.585C124.525 102.423 123.767 97.8956 123.758 97.8489C123.365 95.6504 124.768 93.5082 126.948 92.9936C129.127 92.4885 131.316 93.7514 131.943 95.903C131.943 95.9124 133.403 100.468 137.687 102.321C141.429 103.939 146.453 103.228 152.627 100.216C157.398 97.8863 160.298 95.0237 161.252 91.6933C162.562 87.1281 159.886 82.7593 159.858 82.7125C159.157 81.5899 159.016 80.1961 159.484 78.9612C159.952 77.7263 160.972 76.7721 162.235 76.4073C162.375 76.3699 176.744 71.9076 175.958 63.8436C175.088 54.9844 163.872 51.2892 163.759 51.2518C161.879 50.6531 160.663 48.8195 160.85 46.855C161.028 44.8904 162.543 43.3095 164.498 43.0569C164.779 42.9259 165.481 41.7659 165.518 39.343C165.584 34.8058 163.226 28.6222 158.717 26.0776C150.803 21.6153 140.101 28.2012 139.998 28.2667C138.772 29.0338 137.238 29.118 135.938 28.4912C134.637 27.8644 133.739 26.6202 133.571 25.1889C133.393 23.8324 131.335 11.802 115.628 11.802C115.469 11.802 115.319 11.802 115.16 11.802C98.6395 12.0452 94.8788 19.4263 94.542 20.1747C93.8872 22.2515 91.773 23.3928 89.6401 22.9063C87.4884 22.4198 86.1132 20.2588 86.4313 18.0791C86.4407 17.9856 86.8429 14.4026 84.1019 11.7645C81.7164 9.46323 76.2531 7.13384 63.7362 9.09838C50.1902 11.2313 48.1228 24.4124 48.104 24.5434C47.8702 26.1244 46.7663 27.4435 45.2508 27.9393C43.7446 28.4351 42.0795 28.0328 40.9662 26.9196C40.8633 26.8167 37.3365 23.4489 32.631 23.6266C29.1509 23.7576 25.6521 25.8063 22.2469 29.7167C19.7398 32.5887 18.6172 35.3016 18.8979 37.7994C19.3282 41.5601 22.7895 44.1046 22.827 44.1327C24.3892 45.2646 24.9973 47.3227 24.277 49.1189C23.5566 50.915 21.7324 52.0002 19.824 51.7383C19.8053 51.7383 14.9969 51.1957 11.7881 54.0302C9.59905 55.9574 8.47645 59.1942 8.44838 63.6471C8.41096 68.8391 10.02 72.3098 13.3784 74.2744C16.0727 75.846 18.9634 75.8928 18.9914 75.8928C20.5631 75.9021 22.0224 76.7909 22.7334 78.1941C23.4444 79.5973 23.3321 81.2812 22.4153 82.5535C21.5173 83.8351 19.2908 87.9794 19.9363 91.5623C20.2918 93.5082 21.4611 95.1266 23.5192 96.5298C30.9564 101.6 43.7166 91.3472 43.8475 91.2443C45.073 90.2246 46.785 89.9907 48.2444 90.6362C49.7037 91.2817 50.6767 92.6943 50.7515 94.294C51.1631 103.452 56.1493 107.709 66.8982 108.121C77.1793 108.504 85.5613 95.4353 85.6455 95.3043C86.4313 94.0601 87.7878 93.3491 89.2097 93.3491L89.1536 93.3772Z" fill="#2AC41E" style="fill:#2AC41E;fill:color(display-p3 0.1647 0.7686 0.1176);fill-opacity:1;"/>
</svg>
