<svg width="208" height="122" viewBox="0 0 208 122" fill="none" xmlns="http://www.w3.org/2000/svg">
<path d="M107.044 90.845C107.044 90.845 157.116 112.086 187.466 90.0927C217.815 68.0996 210.225 40.7728 178.357 21.0503C146.489 1.3277 94.1462 -6.26303 41.0377 10.4232C-12.0708 27.1095 -2.20954 62.0136 15.2425 75.6635C32.6946 89.3135 74.4236 97.67 92.6281 93.1156C92.6281 93.1156 96.6048 103.353 73.6579 120.429C73.6579 120.429 101.724 118.158 107.044 90.845Z" fill="white" style="fill:white;fill-opacity:1;"/>
<path d="M73.6713 121.772C73.1205 121.772 72.61 121.423 72.4084 120.899C72.1935 120.335 72.3816 119.703 72.8652 119.354C90.1695 106.483 91.6473 97.7507 91.5398 94.7412C72.7174 98.5433 32.2378 90.6704 14.423 76.7249C5.7037 69.8999 -1.99457 56.9217 0.464038 43.3389C2.35837 32.8999 10.8761 18.4976 40.6346 9.13343C89.4037 -6.1959 143.748 -1.9773 179.069 19.8949C197.219 31.1265 207.484 44.8168 207.981 58.4398C208.411 70.182 201.586 81.4943 188.245 91.1675C175.549 100.384 157.358 103.447 135.66 100.035C122.615 97.9925 111.854 94.15 108.025 92.6722C101.831 119.179 74.0609 121.746 73.7653 121.759C73.725 121.759 73.6982 121.759 73.6579 121.759L73.6713 121.772ZM92.6415 91.7721C93.1789 91.7721 93.6894 92.108 93.891 92.6319C94.0522 93.0618 97.4781 102.641 78.7632 118.145C86.8913 116.089 102.019 109.721 105.741 90.5898C105.821 90.1867 106.076 89.8508 106.426 89.6628C106.789 89.4747 107.205 89.4613 107.581 89.609C107.702 89.6628 120.183 94.9024 136.157 97.4013C150.775 99.6853 171.397 100.088 186.686 89.0045C199.262 79.8821 205.697 69.3625 205.307 58.5474C204.851 45.8513 195.03 32.9403 177.658 22.1923C142.969 0.723164 89.5111 -3.38801 41.4408 11.7129C12.9586 20.6606 4.87072 34.1225 3.11073 43.8226C0.840219 56.3037 7.98763 68.2877 16.0755 74.6155C33.5007 88.2521 75.1089 96.1115 92.3056 91.8258C92.4131 91.7989 92.5206 91.7855 92.6281 91.7855L92.6415 91.7721Z" fill="black" style="fill:black;fill-opacity:1;"/>
</svg>
