<svg width="255" height="96" viewBox="0 0 255 96" fill="none" xmlns="http://www.w3.org/2000/svg">
<path d="M246.2 66.12V28.97C246.2 12.97 233.23 0 217.23 0H28.9701C12.9701 0 0 12.97 0 28.97V66.12C0 82.12 12.9701 95.09 28.9701 95.09H217.23C224.24 95.09 230.67 92.6 235.68 88.45L235.81 88.58C243.89 96.66 253.77 94.82 254.85 94.59C253.88 94.77 246.2 95.23 246.2 66.12Z" fill="#0D86FE" style="fill:#0D86FE;fill:color(display-p3 0.0510 0.5255 0.9961);fill-opacity:1;"/>
<path d="M254.85 94.59C254.92 94.58 254.95 94.57 254.95 94.57C254.95 94.57 254.91 94.57 254.85 94.59Z" fill="#0D86FE" style="fill:#0D86FE;fill:color(display-p3 0.0510 0.5255 0.9961);fill-opacity:1;"/>
</svg>
