<?xml version="1.0" encoding="UTF-8"?>
<svg id="Layer_2" data-name="Layer 2" xmlns="http://www.w3.org/2000/svg" xmlns:xlink="http://www.w3.org/1999/xlink" viewBox="0 0 525.63 613.3">
  <defs>
    <style>
      .cls-1, .cls-2, .cls-3, .cls-4, .cls-5, .cls-6, .cls-7 {
        stroke: #efca6f;
      }

      .cls-1, .cls-8, .cls-9, .cls-10, .cls-11, .cls-12, .cls-6, .cls-13, .cls-7, .cls-14, .cls-15 {
        fill: none;
      }

      .cls-1, .cls-9, .cls-10, .cls-11, .cls-12, .cls-16, .cls-17, .cls-13 {
        stroke-linecap: round;
      }

      .cls-1, .cls-11, .cls-12, .cls-16, .cls-17, .cls-13 {
        stroke-linejoin: round;
      }

      .cls-1, .cls-4, .cls-6 {
        stroke-width: 5.86px;
      }

      .cls-18 {
        fill: #ffc23b;
      }

      .cls-19 {
        fill: #659956;
      }

      .cls-20 {
        fill: #ffcae3;
      }

      .cls-21, .cls-5 {
        fill: url(#linear-gradient-3);
      }

      .cls-22 {
        fill: url(#linear-gradient-2);
      }

      .cls-2 {
        fill: #4a7c39;
      }

      .cls-2, .cls-8, .cls-3, .cls-23, .cls-9, .cls-10, .cls-24, .cls-4, .cls-5, .cls-25, .cls-6, .cls-7, .cls-14, .cls-15 {
        stroke-miterlimit: 10;
      }

      .cls-2, .cls-5, .cls-7 {
        stroke-width: 8.27px;
      }

      .cls-8, .cls-11 {
        stroke: #ffa543;
        stroke-width: 7.82px;
      }

      .cls-26 {
        fill: url(#linear-gradient);
      }

      .cls-3 {
        fill: #5b140a;
        stroke-width: 5.42px;
      }

      .cls-23 {
        fill: #bf3c3c;
      }

      .cls-23, .cls-24 {
        stroke-width: 7.01px;
      }

      .cls-23, .cls-24, .cls-17, .cls-13, .cls-14, .cls-15 {
        stroke: #ffc23b;
      }

      .cls-9 {
        stroke-width: 8.28px;
      }

      .cls-9, .cls-10 {
        stroke: #85b772;
      }

      .cls-10 {
        stroke-width: 7px;
      }

      .cls-27 {
        clip-path: url(#clippath-1);
      }

      .cls-28 {
        clip-path: url(#clippath-2);
      }

      .cls-12 {
        stroke: #ffead7;
        stroke-width: 6.08px;
      }

      .cls-16 {
        fill: #ffa9a9;
        stroke: #000;
        stroke-width: 4.8px;
      }

      .cls-29, .cls-4 {
        fill: #c13340;
      }

      .cls-24 {
        fill: #c3193c;
      }

      .cls-30, .cls-17 {
        fill: #fff;
      }

      .cls-31 {
        fill: #a6cc9a;
      }

      .cls-17, .cls-13 {
        stroke-width: 12.08px;
      }

      .cls-25 {
        fill: #efca6f;
        stroke: #e56d29;
        stroke-width: 1.3px;
      }

      .cls-14 {
        stroke-width: 10.89px;
      }

      .cls-15 {
        stroke-width: 6.24px;
      }

      .cls-32 {
        clip-path: url(#clippath);
      }
    </style>
    <clipPath id="clippath">
      <path class="cls-4" d="M394.88,326.68c-.3.02-.58.04-.89.06-36.12,1.48-93.55-32.7-93.7-32.8-37.08,5.82-76.76,25.9-90.07,60.91-31.28,82.3,10.43,116.39,69.36,138.79,58.93,22.4,112.76,24.63,144.04-57.68,14.06-36.98-2.61-80.17-28.74-109.28Z"/>
    </clipPath>
    <linearGradient id="linear-gradient" x1="-700.84" y1="-319.12" x2="-433.97" y2="-200.65" gradientTransform="translate(755.15 860.48) rotate(20.81)" gradientUnits="userSpaceOnUse">
      <stop offset=".48" stop-color="#c13340"/>
      <stop offset="1" stop-color="#993440"/>
    </linearGradient>
    <linearGradient id="linear-gradient-2" x1="-1443.59" y1="-805.11" x2="-1252.35" y2="-805.11" gradientTransform="translate(945.97 1757.9) rotate(33.51)" gradientUnits="userSpaceOnUse">
      <stop offset="0" stop-color="#ff8000"/>
      <stop offset=".43" stop-color="#cce0f4" stop-opacity="0"/>
    </linearGradient>
    <linearGradient id="linear-gradient-3" x1="26.69" y1="425.57" x2="455.48" y2="425.57" gradientUnits="userSpaceOnUse">
      <stop offset="0" stop-color="#659956"/>
      <stop offset="1" stop-color="#3e882b"/>
    </linearGradient>
    <clipPath id="clippath-1">
      <path class="cls-5" d="M68.21,259.38s-111.53,267.04,31.02,331.23,454.83-45.71,325.59-214.4c0,0,3.93,122.83-117.8,120.06s-78.9-68.44-63.21-173.14c19.69-131.39-175.6-63.75-175.6-63.75Z"/>
    </clipPath>
    <clipPath id="clippath-2">
      <ellipse class="cls-17" cx="131.89" cy="219.04" rx="125.85" ry="117.74"/>
    </clipPath>
  </defs>
  <g id="Layer_1-2" data-name="Layer 1">
    <g>
      <path class="cls-2" d="M424.82,376.21s68.8-9.24,73.58-60.83,69.67,116.89-41.89,141.71-31.7-80.87-31.7-80.87Z"/>
      <g>
        <path class="cls-4" d="M412.14,287.5c-4.5-2.89-20.99-4.22-30.43-4.38-3.84-.07-7.56-2.29-9.07-5.42-2.08-4.33-4.6-8.95-8.9-10.58-4.01-1.52-9.08-.26-13.64,1.31-4.05,1.39-9.19.03-12.38-3.23-6.18-6.35-16.01-14.76-20.66-16.53-12.73-4.84-19.67,8.18-23.37,17.91-3.7,9.73,8.49,23.39,21.21,28.23,6.43,2.44,11.84,6.92,17.25,5.26,2.95,4.84,9.16,4.78,15.59,7.22,6.45,2.45,12.08,6.75,17.5,5.08,2.94,4.85,8.96,4.98,15.41,7.43,12.73,4.84,29.71.17,33.41-9.57s8.09-16.28-1.93-22.72Z"/>
        <path class="cls-3" d="M302.19,294.64c-1.55-1.28-2.72-3-3.18-4.96-.6-2.56,2.22-6.31,5.51-5.64,18.35,3.73,32.37,25.56,92.96,32.27,2.25.25,4.18,1.95,4.82,3.91.71,2.18-.21,4.82-7.32,6.21-13.4,2.61-67.57-11.06-67.57-11.06l-25.22-20.73Z"/>
        <g>
          <path class="cls-29" d="M394.88,326.68c-.3.02-.58.04-.89.06-36.12,1.48-93.55-32.7-93.7-32.8-37.08,5.82-76.76,25.9-90.07,60.91-31.28,82.3,10.43,116.39,69.36,138.79,58.93,22.4,112.76,24.63,144.04-57.68,14.06-36.98-2.61-80.17-28.74-109.28Z"/>
          <g class="cls-32">
            <path class="cls-26" d="M403.51,338.28s-66.64,128.65-224.82,100.33c-158.18-28.32,182.41,124.14,182.41,124.14l85.85-117.91-2.07-107.43-41.38.88Z"/>
            <path class="cls-22" d="M175.75,399.92s86.18-136.56,197.2-95.66c111.02,40.9-152.82-65.05-152.82-65.05l-61.41,147.09,17.03,13.62Z"/>
          </g>
          <path class="cls-6" d="M394.88,326.68c-.3.02-.58.04-.89.06-36.12,1.48-93.55-32.7-93.7-32.8-37.08,5.82-76.76,25.9-90.07,60.91-31.28,82.3,10.43,116.39,69.36,138.79,58.93,22.4,112.76,24.63,144.04-57.68,14.06-36.98-2.61-80.17-28.74-109.28Z"/>
        </g>
        <g>
          <ellipse class="cls-8" cx="316.02" cy="330.71" rx="25.33" ry="14.14" transform="translate(-48.76 54.71) rotate(-9.19)"/>
          <ellipse class="cls-8" cx="360.53" cy="344.43" rx="14.14" ry="25.33" transform="translate(-136.55 305.28) rotate(-39.19)"/>
          <path class="cls-11" d="M341.02,326.67s-13.83,29.31-36.18,41"/>
          <path class="cls-11" d="M343.73,326.2s-16.18,32.67,1.65,58.09"/>
        </g>
        <g>
          <ellipse class="cls-6" cx="316.02" cy="330.71" rx="25.33" ry="14.14" transform="translate(-48.76 54.71) rotate(-9.19)"/>
          <ellipse class="cls-6" cx="360.53" cy="344.43" rx="14.14" ry="25.33" transform="translate(-136.55 305.28) rotate(-39.19)"/>
          <path class="cls-1" d="M341.02,326.67s-13.83,29.31-36.18,41"/>
          <path class="cls-1" d="M343.73,326.2s-16.18,32.67,1.65,58.09"/>
        </g>
        <path class="cls-25" d="M279.78,413.64c-4.37,11.51-10.2,24.35-16.07,31l-4.94-6.79c5.53-6.57,9.68-15.56,14.09-27.16l3.09-8.13,7.03,2.67-3.2,8.4ZM268.17,452.72l19.51-51.33-11.6-4.41,3.3-8.68,30.69,11.67-3.3,8.68-11.33-4.3-19.51,51.33-7.76-2.95ZM282.83,446.06l13.58-35.71,6.85,2.6-13.57,35.72-6.85-2.6ZM284.94,381.63l3.23-8.49,25.58,9.72-3.23,8.49-25.58-9.72ZM318.98,470.56l1.39-3.65-21.37-8.12-1.84,4.84-8.4-3.19,15.28-40.19,38.18,14.51-14.83,39-8.4-3.19ZM301.95,451.02l6.39,2.43,2.43-6.39-6.39-2.43-2.43,6.39ZM307.23,437.14l6.39,2.43,2.26-5.94-6.39-2.43-2.26,5.94ZM307.89,417.53l7.81-20.55,33.34,12.67-7.81,20.55-33.34-12.67ZM313.94,392.23l3.09-8.13,40.46,15.38-3.09,8.13-40.46-15.38ZM316.47,456.54l6.85,2.6,2.43-6.39-6.85-2.6-2.43,6.39ZM318.98,413.38l16.62,6.32,2.29-6.03-16.62-6.32-2.29,6.03ZM324.01,436.72l-2.26,5.94,6.85,2.6,2.26-5.94-6.85-2.6Z"/>
        <path class="cls-12" d="M395.56,354.41s16.33,12.41,18.7,43.09"/>
      </g>
      <path class="cls-18" d="M137.32,89h-19.52c-.52,0-.97-3.26-1.11-8.01l-2.02-66.78c-.22-7.11.34-14.21,1.11-14.21h23.51c.77,0,1.32,7.03,1.12,14.11l-1.96,66.78c-.14,4.79-.6,8.11-1.12,8.11Z"/>
      <circle class="cls-24" cx="127.53" cy="111.52" r="76.35"/>
      <path class="cls-14" d="M125.4,32.73s-51.12,24.12-40.03,59.13"/>
      <path class="cls-14" d="M127.36,32.73s51.12,24.12,40.03,59.13"/>
      <path class="cls-15" d="M125.4,32.73s0,25.05,1.44,59.14"/>
      <g>
        <path class="cls-21" d="M68.21,259.38s-111.53,267.04,31.02,331.23,454.83-45.71,325.59-214.4c0,0,3.93,122.83-117.8,120.06s-78.9-68.44-63.21-173.14c19.69-131.39-175.6-63.75-175.6-63.75Z"/>
        <g class="cls-27">
          <path class="cls-31" d="M49.25,268.64l168.09-4.1s-73.97,111.41-41.02,203.79c26.65,74.71-164.07,10.52-164.07,10.52l37-210.21Z"/>
          <path class="cls-31" d="M185.58,493.68c21.35,70.45-38.38,134.56-90.91,136.22S-2.33,573.25-4.64,499.67s38.38-134.56,90.91-136.22,72.91,43.09,99.31,130.22Z"/>
          <line class="cls-10" x1="48.19" y1="424.92" x2="131.53" y2="424.92"/>
          <line class="cls-10" x1="38.43" y1="397.5" x2="121.77" y2="397.5"/>
          <line class="cls-10" x1="60.03" y1="375.95" x2="143.37" y2="375.95"/>
          <line class="cls-10" x1="50.39" y1="352.51" x2="133.74" y2="352.51"/>
          <line class="cls-9" x1="31.53" y1="447.05" x2="148.19" y2="447.05"/>
          <line class="cls-9" x1="31.53" y1="469.18" x2="148.19" y2="469.18"/>
          <line class="cls-9" x1="31.53" y1="491.31" x2="148.19" y2="491.31"/>
          <line class="cls-9" x1="31.53" y1="513.44" x2="148.19" y2="513.44"/>
          <line class="cls-9" x1="31.53" y1="535.57" x2="148.19" y2="535.57"/>
        </g>
        <path class="cls-7" d="M68.21,259.38s-111.53,267.04,31.02,331.23,454.83-45.71,325.59-214.4c0,0,3.93,122.83-117.8,120.06s-78.9-68.44-63.21-173.14c19.69-131.39-175.6-63.75-175.6-63.75Z"/>
      </g>
      <g>
        <ellipse class="cls-30" cx="131.89" cy="219.04" rx="125.85" ry="117.74"/>
        <g class="cls-28">
          <ellipse class="cls-19" cx="13.81" cy="169.42" rx="98.26" ry="108.8"/>
          <ellipse class="cls-20" cx="36.36" cy="282.43" rx="58.47" ry="64.74"/>
          <ellipse class="cls-19" cx="186.25" cy="143.97" rx="98.26" ry="108.8"/>
          <ellipse class="cls-20" cx="223.63" cy="282.43" rx="58.47" ry="64.74"/>
          <ellipse class="cls-19" cx="128.71" cy="108.23" rx="34.62" ry="19.34"/>
          <rect class="cls-19" x="90.89" y="201.29" width="57.45" height="23.91"/>
        </g>
        <ellipse class="cls-13" cx="131.89" cy="219.04" rx="125.85" ry="117.74"/>
      </g>
      <circle cx="140.67" cy="204.47" r="12.72"/>
      <path class="cls-23" d="M52.82,91.86h149.43v19.57c0,6.27-5.09,11.37-11.37,11.37h-126.7c-6.27,0-11.37-5.09-11.37-11.37v-19.57h0Z"/>
      <circle cx="75.27" cy="204.47" r="12.72"/>
      <path class="cls-16" d="M91.42,226.68c0,6.57,7.41,11.89,16.56,11.89s16.56-5.32,16.56-11.89h-33.11Z"/>
    </g>
  </g>
</svg>