<svg width="647" height="288" viewBox="0 0 647 288" fill="none" xmlns="http://www.w3.org/2000/svg">
<g clip-path="url(#clip0_2377_102)">
<path d="M227.74 287.59C172.88 287.59 124.76 279.87 88.57 265.27C50.4 249.87 27.57 227.53 22.54 200.65C14.83 159.45 50.17 113.56 119.5 74.73C120.82 73.99 122.31 73.6 123.81 73.6C128.69 73.6 132.65 77.56 132.65 82.44V86.38C132.65 89.41 131.12 92.19 128.55 93.83C81.15 124.04 57.07 157.99 62.5 186.99C66.38 207.73 84.84 225.32 115.88 237.84C147.18 250.47 189.07 257.14 237.01 257.14C271.94 257.14 308.52 253.61 345.72 246.65C416.6 233.39 480.97 209.24 526.97 178.65C549.07 163.96 565.64 148.63 576.22 133.1C586.79 117.59 590.81 102.63 588.19 88.62C584.31 67.88 565.85 50.29 534.81 37.77C503.51 25.14 461.62 18.47 413.68 18.47C378.75 18.47 342.18 22 304.97 28.96C284.89 32.72 265.02 37.43 245.92 42.97C245.11 43.2 244.28 43.32 243.45 43.32C238.58 43.32 234.62 39.36 234.62 34.49C234.62 30.54 237.27 27.04 241.07 25.98C260.78 20.47 281.17 15.74 301.66 11.9C343.84 4 385.33 0 424.97 0C479.82 0 527.95 7.72 564.14 22.32C602.31 37.72 625.14 60.06 630.17 86.94C636.91 122.96 611.02 162.47 557.28 198.2C504.77 233.11 431.52 260.63 351.04 275.7C308.87 283.59 267.39 287.59 227.76 287.59H227.74Z" fill="black" style="fill:black;fill-opacity:1;"/>
<path d="M622.25 87.8601C609.13 17.7301 464.67 -14.0799 299.59 16.8101C278.8 20.7001 258.69 25.4101 239.42 30.7901C237.76 31.2501 236.63 32.7701 236.63 34.4901C236.63 37.0501 239.08 38.8801 241.54 38.1601C260.5 32.6701 280.41 27.9001 301.06 24.0401C448.94 -3.62987 578.36 24.8601 590.11 87.6901C601.86 150.52 491.52 223.89 343.63 251.56C195.74 279.23 66.3298 250.74 54.5798 187.91C48.4898 155.36 75.1798 120 122.86 89.6101C123.96 88.9101 124.64 87.6901 124.64 86.3801V82.4401C124.64 79.5101 121.49 77.6701 118.93 79.0901C54.3898 115.25 16.9198 159.43 24.4598 199.73C37.5798 269.86 182.04 301.67 347.12 270.78C512.2 239.89 635.38 157.99 622.25 87.8601Z" fill="white" style="fill:white;fill-opacity:1;"/>
<path d="M15.75 156.2C11.89 156.2 8.67997 154.26 7.15997 151C4.35997 145 9.07997 139.39 12.2 135.68C12.42 135.41 12.61 135.19 12.74 135.03C15.19 131.93 21.56 125.66 31.76 115.69C36.85 110.71 43.86 103.87 47.84 99.6999L33.03 76.0399C32.6 75.3499 32.27 74.5999 32.07 73.8099C30.18 66.5499 37.49 60.2799 40.86 58.8899C44.39 57.4299 48.94 56.7599 55.2 56.7599C59.41 56.7599 64.02 57.0599 68.47 57.3399C72.77 57.6199 77.22 57.9099 81.1 57.9099C83.95 57.9099 86.27 57.7499 88.06 57.4399L127.78 16.2999C128.4 15.6599 129.12 15.1199 129.92 14.7199L136.18 11.5499C137.3 10.9799 138.54 10.6899 139.79 10.6899H139.84C142.58 10.7099 145.16 12.0599 146.74 14.3099C149.93 18.8699 149.5 23.2099 137.94 55.4699C137.7 56.1299 137.46 56.7999 137.22 57.4699H173.34C177.43 57.4699 180.87 60.5599 181.3 64.6299C182.15 72.6799 175.56 77.2499 172.39 79.4399L172.19 79.5799C166.85 83.2799 157.81 87.2699 148.24 91.4899C139.02 95.5499 125.1 101.69 122.41 104.85C120.34 107.28 117.56 117.8 115.72 124.75C111.38 141.16 108.59 150.62 101.71 154.1C99.89 155.02 97.42 156.08 94.49 156.08C92.09 156.08 89.77 155.36 87.76 154C87.03 153.5 86.38 152.89 85.86 152.18L70.31 131.46L20.03 155.34C19.32 155.68 18.56 155.91 17.78 156.03C17.07 156.14 16.41 156.19 15.76 156.19L15.75 156.2Z" fill="black" style="fill:black;fill-opacity:1;"/>
<path d="M611.58 217.22C611.42 217.22 611.25 217.22 611.09 217.2C608.94 217.07 606.94 216.07 605.53 214.45L601.45 209.73L587.12 215.16C586.19 215.51 585.24 215.68 584.29 215.68C581.61 215.68 579.02 214.33 577.52 211.95C575.49 208.74 576 204.54 578.75 201.91L588.34 192.71L585.04 186.54C583.29 183.28 584.01 179.24 586.78 176.78C589.32 174.53 592.32 174.53 594.3 174.53C595.75 174.53 597.59 174.61 599.53 174.68C601.64 174.77 604.04 174.86 606.04 174.86C607.08 174.86 607.8 174.83 608.29 174.8C609.36 173.81 611.1 171.99 612.34 170.69C617.99 164.75 622.07 160.46 627.31 160.46C629.77 160.46 632.05 161.43 633.74 163.19C635.79 165.33 636.49 168.43 635.55 171.25L634.21 175.27L639.28 175.52C642.33 175.67 645.03 177.56 646.24 180.37C647.44 183.18 646.93 186.44 644.93 188.75C641.08 193.19 635.63 195.03 631.25 196.51C629.24 197.19 626.48 198.12 625.66 198.86C624.89 199.57 624.21 201.6 623.56 203.56C622.37 207.14 620.89 211.6 616.96 215.15C615.49 216.48 613.57 217.22 611.59 217.22H611.58Z" fill="black" style="fill:black;fill-opacity:1;"/>
<path d="M28.3799 76.6702C25.0099 76.6702 22.2699 75.1802 20.1899 72.2402C19.6199 72.5002 18.9599 72.8402 18.1599 73.2602C15.7699 74.5302 12.7899 76.1102 8.84991 76.5302C8.55991 76.5602 8.26991 76.5802 7.98991 76.5802C4.88991 76.5802 2.02991 74.7702 0.71991 71.9002C-0.71009 68.7702 0.0199099 65.0702 2.53991 62.7202L8.26991 57.3902L6.63991 52.3702C5.76991 49.7102 6.35991 46.7902 8.18991 44.6702C9.71991 42.8902 11.9399 41.8902 14.2499 41.8902C14.6899 41.8902 15.1399 41.9302 15.5799 42.0002C17.4699 42.3202 19.1399 42.4802 20.5499 42.4802C25.3299 42.4802 27.1699 40.9002 33.4599 34.8702C34.0299 34.3202 34.6199 33.7602 35.2299 33.1702C36.7599 31.7202 38.7399 30.9702 40.7499 30.9702C42.1699 30.9702 43.5999 31.3502 44.8899 32.1202C47.9799 33.9902 49.4299 37.6802 48.4499 41.1502L47.8599 43.2402L49.6899 43.5002C53.4999 44.0402 56.3799 47.2202 56.5599 51.0602C56.7299 54.9002 54.1499 58.3202 50.4099 59.2102C42.7199 61.0302 39.7199 63.6902 36.4599 71.6302C35.4799 74.0102 33.4199 75.7702 30.9099 76.3702C30.0699 76.5702 29.2299 76.6702 28.3999 76.6702H28.3799Z" fill="black" style="fill:black;fill-opacity:1;"/>
<path d="M50.0999 36.0502C48.1199 36.0502 46.1799 35.3202 44.6799 33.9302C44.4599 33.7202 44.2699 33.5602 44.1199 33.4402C43.6699 33.5502 43.0899 33.7102 42.5899 33.8502C42.1699 33.9702 41.7299 34.0902 41.2599 34.2102C40.5799 34.3902 39.8799 34.4802 39.1999 34.4802C36.6099 34.4802 34.1199 33.2102 32.5999 31.0002C30.6799 28.2002 30.7399 24.5002 32.7299 21.7602C32.7299 21.7602 33.5099 20.7102 33.5599 20.6402C32.3199 18.0802 32.5199 15.0402 34.1299 12.6602C35.6299 10.4402 38.1199 9.1502 40.7499 9.1502C41.1299 9.1502 41.5199 9.18019 41.8999 9.2302C42.7699 9.3602 43.5299 9.4202 44.1499 9.4202C45.4499 9.4202 46.3099 9.4202 49.2899 6.6202C50.7999 5.2002 52.7699 4.4502 54.7699 4.4502C55.7799 4.4502 56.8099 4.6402 57.7799 5.0402C59.9899 5.9402 61.6499 7.7602 62.3699 9.9602C63.8499 10.6502 64.8399 11.6002 65.4099 12.2902C66.4299 13.5002 68.0199 16.1202 67.3199 20.0702C66.6999 23.5902 63.8099 26.2702 60.2599 26.6302C58.3799 26.8202 58.1699 27.3302 58.0499 28.7202C57.7899 31.7602 55.8199 34.3902 52.9699 35.5002C52.0299 35.8602 51.0499 36.0402 50.0799 36.0402L50.0999 36.0502Z" fill="black" style="fill:black;fill-opacity:1;"/>
<path d="M172.34 63.4702C172.7 66.9002 169.09 69.3002 166.62 71.0102C155.62 78.6402 122.08 89.7102 115.3 97.6702C108.52 105.63 104.56 141.19 97.0899 144.97C95.1999 145.93 93.1899 146.71 91.2499 145.39L71.7699 119.45L15.5899 146.13C9.87988 146.98 16.5799 139.8 18.0099 137.99C23.1599 131.49 56.1499 101.04 56.6799 98.3202L38.8099 69.7802C38.3399 67.9702 41.5599 64.8302 42.9099 64.2802C53.2399 60.0202 79.0899 66.4202 91.1899 62.6602L132.52 19.8502L138.78 16.6802C142.68 16.7002 126.65 57.2602 126.15 60.2402L127.87 63.4702H172.32H172.34Z" fill="#CCFF4F" style="fill:#CCFF4F;fill:color(display-p3 0.8000 1.0000 0.3098);fill-opacity:1;"/>
<path d="M626.95 166.72L622.29 180.73L637.87 181.51C633.41 186.67 623.75 186.83 619.24 190.96C614.6 195.21 615.29 202.96 610.58 207.21L602.85 198.26L583.29 205.67L597.27 192.27L591.1 180.75C592.02 179.94 606.36 181.58 610.27 180.42C613.46 179.47 624.65 164.3 626.96 166.72H626.95Z" fill="white" style="fill:white;fill-opacity:1;"/>
<path d="M36.64 47.8697L47.54 49.4197C36.86 51.9397 32.09 56.7097 28.03 66.5797C24.6 67.3997 25.7 61.9797 21.82 61.7297C15.77 61.3397 12.43 65.9897 7 66.5697L16.46 57.7597L13.24 47.8897C27.02 50.2097 30.75 45.5097 39.73 36.9697L36.63 47.8697H36.64Z" fill="white" style="fill:white;fill-opacity:1;"/>
<path d="M53.9799 14.9302C55.1099 16.0902 58.9999 13.6602 58.4599 16.6802C52.9999 17.2402 49.5599 20.5802 49.0899 26.0502C44.9099 22.1902 43.2699 23.1202 38.1899 24.4802C40.8399 20.8402 42.3099 19.5802 39.7499 15.1502C46.1699 16.0802 49.2999 14.6602 53.7699 10.4502L53.9699 14.9202L53.9799 14.9302Z" fill="white" style="fill:white;fill-opacity:1;"/>
<path d="M172.34 63.4702C172.7 66.9002 169.09 69.3002 166.62 71.0102C155.62 78.6402 122.08 89.7102 115.3 97.6702C108.52 105.63 104.56 141.19 97.0899 144.97C95.1999 145.93 93.1899 146.71 91.2499 145.39L71.7699 119.45L15.5899 146.13C9.87988 146.98 16.5799 139.8 18.0099 137.99C23.1599 131.49 56.1499 101.04 56.6799 98.3202L38.8099 69.7802C38.3399 67.9702 41.5599 64.8302 42.9099 64.2802C53.2399 60.0202 79.0899 66.4202 91.1899 62.6602L132.52 19.8502L138.78 16.6802C142.68 16.7002 126.65 57.2602 126.15 60.2402L127.87 63.4702H172.32H172.34Z" fill="#CCFF4F" style="fill:#CCFF4F;fill:color(display-p3 0.8000 1.0000 0.3098);fill-opacity:1;"/>
<path d="M91.0398 176.46V110.6H155.79L216.92 151.78H148.9L136 143.08V152.19H194.17V176.46H91.0398Z" fill="black" style="fill:black;fill-opacity:1;"/>
<path d="M176.86 176.46V110.6H279.99V176.46H176.86ZM235.03 152.19V134.88H221.82V152.19H235.03Z" fill="black" style="fill:black;fill-opacity:1;"/>
<path d="M302.46 176.46L243.38 136.66H264.08V110.6H367.2V176.46H302.46Z" fill="black" style="fill:black;fill-opacity:1;"/>
<path d="M353.16 176.46V110.6H398.12V115.26L405.03 110.6H469.78V176.46H353.16Z" fill="black" style="fill:black;fill-opacity:1;"/>
<path d="M501.35 110.6H456.39V176.46H501.35V110.6Z" fill="black" style="fill:black;fill-opacity:1;"/>
<path d="M487.94 176.46V110.6H552.69L613.81 151.78H545.8L532.9 143.08V152.19H591.07V176.46H487.94Z" fill="black" style="fill:black;fill-opacity:1;"/>
<path d="M626.95 166.72L622.29 180.73L637.87 181.51C633.41 186.67 623.75 186.83 619.24 190.96C614.6 195.21 615.29 202.96 610.58 207.21L602.85 198.26L583.29 205.67L597.27 192.27L591.1 180.75C592.02 179.94 606.36 181.58 610.27 180.42C613.46 179.47 624.65 164.3 626.96 166.72H626.95Z" fill="white" style="fill:white;fill-opacity:1;"/>
<path d="M36.64 47.8697L47.54 49.4197C36.86 51.9397 32.09 56.7097 28.03 66.5797C24.6 67.3997 25.7 61.9797 21.82 61.7297C15.77 61.3397 12.43 65.9897 7 66.5697L16.46 57.7597L13.24 47.8897C27.02 50.2097 30.75 45.5097 39.73 36.9697L36.63 47.8697H36.64Z" fill="white" style="fill:white;fill-opacity:1;"/>
<path d="M53.9799 14.9302C55.1099 16.0902 58.9999 13.6602 58.4599 16.6802C52.9999 17.2402 49.5599 20.5802 49.0899 26.0502C44.9099 22.1902 43.2699 23.1202 38.1899 24.4802C40.8399 20.8402 42.3099 19.5802 39.7499 15.1502C46.1699 16.0802 49.2999 14.6602 53.7699 10.4502L53.9699 14.9202L53.9799 14.9302Z" fill="white" style="fill:white;fill-opacity:1;"/>
<path d="M123 121.28V159.19H181.17V163.46H98.0398V117.6H149.73L181.17 138.78H148.95L123 121.28Z" fill="#C4A8FF" style="fill:#C4A8FF;fill:color(display-p3 0.7686 0.6588 1.0000);fill-opacity:1;"/>
<path d="M183.86 163.46V117.6H266.99V163.46H183.86ZM242.03 159.19V121.88H208.82V159.19H242.03Z" fill="#C4A8FF" style="fill:#C4A8FF;fill:color(display-p3 0.7686 0.6588 1.0000);fill-opacity:1;"/>
<path d="M302.51 163.46L273.12 143.66H305.33L329.24 159.78V137.4H271.07V117.6H354.2V121.87H296.03V133.13H354.2V163.46H302.51Z" fill="#C4A8FF" style="fill:#C4A8FF;fill:color(display-p3 0.7686 0.6588 1.0000);fill-opacity:1;"/>
<path d="M385.12 163.46H360.16V117.6H385.12V131.05L405.09 117.6H456.78V163.46H431.82V121.28L420.95 128.61V163.46H395.99V138.78H385.12V163.46Z" fill="#C4A8FF" style="fill:#C4A8FF;fill:color(display-p3 0.7686 0.6588 1.0000);fill-opacity:1;"/>
<path d="M463.39 163.46V117.6H488.35V163.46H463.39Z" fill="#C4A8FF" style="fill:#C4A8FF;fill:color(display-p3 0.7686 0.6588 1.0000);fill-opacity:1;"/>
<path d="M519.9 121.28V159.19H578.07V163.46H494.94V117.6H546.63L578.07 138.78H545.85L519.9 121.28Z" fill="#C4A8FF" style="fill:#C4A8FF;fill:color(display-p3 0.7686 0.6588 1.0000);fill-opacity:1;"/>
</g>
<defs>
<clipPath id="clip0_2377_102">
<rect width="646.87" height="287.59" fill="white" style="fill:white;fill-opacity:1;"/>
</clipPath>
</defs>
</svg>
