<svg width="375" height="503" viewBox="0 0 375 503" fill="none" xmlns="http://www.w3.org/2000/svg">
<path d="M62.145 425.85H25V463H62.145V425.85Z" fill="url(#paint0_linear_3340_54805)" style=""/>
<path d="M350 411H62.1265V425.86H350V411Z" fill="#107BA3" style="fill:#107BA3;fill:color(display-p3 0.0627 0.4824 0.6392);fill-opacity:1;"/>
<path d="M350 425.85H62.1265V463H350V425.85Z" fill="white" style="fill:white;fill-opacity:1;"/>
<path d="M75.5544 418.253L75.1272 418.894C74.2357 418.597 73.5671 417.993 73.2142 417.213C72.8613 418.058 72.1742 418.717 71.2548 419.042L70.8276 418.392C72.0256 417.984 72.7685 416.981 72.7778 415.922V415.588H71.0412V414.919H75.3129V415.588H73.6135V415.922C73.6135 416.925 74.3564 417.863 75.5451 418.244L75.5544 418.253ZM77.4023 421.884H72.0999V419.432H72.9263V421.225H77.393V421.893L77.4023 421.884ZM77.1702 419.971H76.353V414.316H77.1702V419.971Z" fill="white" style="fill:white;fill-opacity:1;"/>
<path d="M82.2777 415.839H78.3589V415.188H79.919V414.371H80.7362V415.188H82.2777V415.839ZM81.9991 417.529C81.9991 418.337 81.3026 418.857 80.3183 418.857C79.3339 418.857 78.6561 418.327 78.6561 417.529C78.6561 416.73 79.3525 416.201 80.3183 416.201C81.284 416.201 81.9991 416.73 81.9991 417.529ZM79.3989 417.529C79.3989 417.965 79.7797 418.262 80.3276 418.262C80.8755 418.262 81.2655 417.965 81.2655 417.529C81.2655 417.092 80.894 416.804 80.3276 416.804C79.7611 416.804 79.3989 417.092 79.3989 417.529ZM85.0543 420.677C85.0543 421.54 84.0606 422.042 82.417 422.032C80.7733 422.032 79.789 421.54 79.7982 420.677C79.7982 419.794 80.7733 419.302 82.417 419.302C84.0606 419.302 85.045 419.794 85.0543 420.677ZM80.6062 420.677C80.6062 421.141 81.2655 421.41 82.417 421.401C83.5778 421.401 84.2278 421.141 84.2371 420.677C84.2371 420.194 83.5778 419.934 82.417 419.934C81.2562 419.934 80.5969 420.194 80.6062 420.677ZM85.0078 419.191H84.2278V417.027H83.327V418.922H82.5563V414.455H83.327V416.359H84.2278V414.306H85.0078V419.191Z" fill="white" style="fill:white;fill-opacity:1;"/>
<path d="M90.7375 419.739L90.2732 420.379C89.4003 419.962 88.7224 419.089 88.3696 418.067C88.0074 419.182 87.2831 420.129 86.4009 420.575L85.918 419.924C87.0973 419.367 87.9517 417.9 87.9517 416.591V415.774H86.2059V415.086H90.4497V415.774H88.7596V416.591C88.7596 417.816 89.5675 419.182 90.7375 419.739ZM92.0933 417.38H93.3377V418.067H92.0933V422.051H91.2762V414.306H92.0933V417.371V417.38Z" fill="white" style="fill:white;fill-opacity:1;"/>
<path d="M29.8659 448.122C29.8473 446.088 31.1381 444.425 32.7725 444.147V444.063C31.3517 443.692 30.3859 442.252 30.3859 440.525C30.3859 438.101 32.3268 436.308 34.9827 436.308C37.6385 436.308 39.5422 438.101 39.5608 440.525C39.5422 442.252 38.5764 443.692 37.1742 444.063V444.147C38.79 444.435 40.0808 446.088 40.0994 448.122C40.0808 450.703 37.9635 452.561 34.9827 452.561C32.0018 452.561 29.8473 450.703 29.8659 448.122ZM37.945 447.945C37.945 446.311 36.6913 445.122 34.9827 445.122C33.274 445.122 31.9832 446.301 32.0203 447.945C31.9832 449.496 33.1347 450.564 34.9827 450.564C36.8306 450.564 37.945 449.496 37.945 447.945ZM37.4899 440.738C37.4899 439.271 36.4684 438.268 34.9919 438.268C33.5154 438.268 32.4475 439.252 32.4475 440.738C32.4475 442.224 33.5061 443.227 34.9919 443.227C36.4777 443.227 37.4899 442.224 37.4899 440.738Z" fill="white" style="fill:white;fill-opacity:1;"/>
<path d="M42.4302 438.481H46.414V439.326H43.4052V441.267H46.1261V442.103H43.4052V444.907H42.4302V438.481Z" fill="white" style="fill:white;fill-opacity:1;"/>
<path d="M47.5005 438.481H51.5307V439.326H48.4756V441.267H51.3171V442.103H48.4756V444.062H51.5586V444.907H47.4912V438.481H47.5005Z" fill="white" style="fill:white;fill-opacity:1;"/>
<path d="M54.8925 439.233C54.1031 439.233 53.611 439.633 53.611 440.18C53.611 440.793 54.2796 441.026 54.781 441.146L55.4032 441.313C56.2297 441.508 57.2512 441.963 57.2605 443.124C57.2605 444.211 56.3875 445 54.8739 445C53.4345 445 52.5338 444.285 52.4688 443.115H53.4438C53.5088 443.811 54.1217 444.155 54.8739 444.155C55.6911 444.155 56.2854 443.737 56.2947 443.106C56.2947 442.548 55.7654 442.316 55.0782 442.14L54.3167 441.936C53.2859 441.648 52.6359 441.128 52.6359 440.236C52.6359 439.131 53.6295 438.388 54.9203 438.388C56.2111 438.388 57.1397 439.131 57.1676 440.171H56.2204C56.1554 439.577 55.6354 439.233 54.9017 439.233H54.8925Z" fill="white" style="fill:white;fill-opacity:1;"/>
<path d="M45.5039 450.397H44.9654L43.0152 447.592H42.9874V450.397H42.4023V446.552H42.9409L44.8911 449.366H44.9282V446.552H45.5039V450.397Z" fill="white" style="fill:white;fill-opacity:1;"/>
<path d="M46.3027 446.552H48.7171V447.054H46.8877V448.214H48.5871V448.716H46.8877V449.886H48.7357V450.387H46.3027V446.543V446.552Z" fill="white" style="fill:white;fill-opacity:1;"/>
<path d="M49.1255 446.552H49.7384L50.4906 449.524H50.5184L51.2985 446.552H51.9021L52.6821 449.524H52.71L53.4622 446.552H54.0751L53.0072 450.397H52.4221L51.6142 447.527H51.5864L50.7784 450.397H50.1934L49.1255 446.552Z" fill="white" style="fill:white;fill-opacity:1;"/>
<path d="M55.8676 446.998C55.394 446.998 55.0969 447.239 55.0969 447.564C55.0969 447.926 55.4962 448.066 55.7933 448.14L56.1648 448.242C56.6569 448.363 57.2698 448.632 57.2698 449.329C57.2698 449.979 56.7498 450.452 55.8397 450.452C54.9761 450.452 54.4375 450.025 54.4004 449.319H54.9854C55.0225 449.737 55.3847 449.942 55.8397 449.942C56.3319 449.942 56.6848 449.691 56.6848 449.319C56.6848 448.985 56.3691 448.846 55.9605 448.744L55.5054 448.623C54.8925 448.456 54.5025 448.14 54.5025 447.601C54.5025 446.942 55.0968 446.496 55.8676 446.496C56.6384 446.496 57.1955 446.942 57.2141 447.564H56.6476C56.6105 447.211 56.2948 446.998 55.8583 446.998H55.8676Z" fill="white" style="fill:white;fill-opacity:1;"/>
<path d="M76.8819 434.534C76.8819 436.16 75.5633 437.302 73.8917 437.302C72.2202 437.302 70.883 436.16 70.9016 434.534C70.8923 432.946 72.2202 431.785 73.8917 431.785C75.5633 431.785 76.8819 432.937 76.8819 434.534ZM80.1042 441.751H72.4988V438.073H74.2168V440.395H80.0949V441.751H80.1042ZM72.5359 434.534C72.5359 435.38 73.1117 435.835 73.8824 435.835C74.6532 435.835 75.1918 435.389 75.1918 434.534C75.1918 433.68 74.616 433.253 73.8824 433.262C73.1117 433.253 72.5359 433.726 72.5359 434.534ZM79.8349 438.853H78.1356V431.117H79.8349V438.853Z" fill="black" style="fill:black;fill-opacity:1;"/>
<path d="M91.0622 438.741H88.8799V441.927H87.162V438.741H85.1005V441.927H83.3918V438.741H81.1724V437.423H91.0622V438.741ZM89.9386 434.664H84.0418V435.398H90.1986V436.754H82.3238V433.438H88.1928V432.77H82.296V431.414H89.9386V434.664Z" fill="black" style="fill:black;fill-opacity:1;"/>
<path d="M101.49 437.135H91.6006V435.899H101.49V437.135ZM100.33 440.218H94.4143V440.701H100.636V441.843H92.7242V439.159H98.6395V438.732H92.7057V437.58H100.32V440.218H100.33ZM100.33 433.893H94.5072V434.358H100.506V435.491H92.8171V432.835H98.621V432.398H92.8078V431.265H100.33V433.893Z" fill="black" style="fill:black;fill-opacity:1;"/>
<path d="M110.898 433.401H110.006V437.952C110.396 437.924 110.786 437.878 111.158 437.831L111.241 439.048C109.059 439.447 106.617 439.494 104.778 439.494L104.602 438.128H105.753V433.401H104.871V432.045H110.898V433.401ZM108.381 438.054V433.401H107.406V438.082L108.381 438.054ZM113.331 435.156H114.863V436.522H113.331V441.918H111.631V431.098H113.331V435.156Z" fill="black" style="fill:black;fill-opacity:1;"/>
<path d="M118.874 438.435C119.998 438.398 121.131 438.333 122.199 438.203L122.338 439.429C119.933 439.828 117.407 439.874 115.383 439.874L115.169 438.491C115.8 438.491 116.488 438.491 117.193 438.481V435.621H118.865V438.435H118.874ZM121.604 433.15C121.595 434.172 121.595 435.389 121.344 437.051L119.673 436.884C119.886 435.547 119.914 434.506 119.933 433.615H115.893V432.259H121.614V433.141L121.604 433.15ZM124.474 441.946H122.774V431.098H124.474V441.946Z" fill="black" style="fill:black;fill-opacity:1;"/>
<path d="M131.884 434.023H125.551V432.677H127.9V431.274H129.6V432.677H131.884V434.023ZM131.54 437.153C131.531 438.686 130.324 439.763 128.745 439.763C127.167 439.763 125.932 438.686 125.941 437.153C125.932 435.63 127.12 434.544 128.745 434.544C130.37 434.544 131.531 435.63 131.54 437.153ZM127.575 437.153C127.566 437.952 128.058 438.379 128.755 438.379C129.451 438.379 129.906 437.952 129.925 437.153C129.915 436.373 129.432 435.927 128.755 435.918C128.058 435.927 127.566 436.382 127.575 437.153ZM134.196 435.268H135.728V436.67H134.196V441.927H132.525V431.107H134.196V435.268Z" fill="black" style="fill:black;fill-opacity:1;"/>
<path d="M145.916 440.664H136.045V439.299H139.472V435.621H141.162V439.299H145.916V440.664ZM145.034 433.002C145.034 434.358 145.034 435.899 144.598 438.24L142.88 438.063C143.288 436.085 143.325 434.581 143.344 433.336H137.076V431.989H145.043V433.002H145.034Z" fill="black" style="fill:black;fill-opacity:1;"/>
<path d="M155.899 435.454L155.1 436.8C153.865 436.457 153.038 435.751 152.556 434.841C152.063 435.834 151.2 436.605 149.918 436.977L149.101 435.649C150.977 435.119 151.655 433.782 151.655 432.528V431.488H153.419V432.528C153.41 433.745 154.078 434.989 155.899 435.463V435.454ZM158.332 438.871H157.106V440.45H158.415V441.806H150.773V440.45H152.091V438.871H150.856V437.543H158.332V438.871ZM155.425 440.45V438.871H153.772V440.45H155.425ZM158.267 437.107H156.567V431.116H158.267V437.107Z" fill="black" style="fill:black;fill-opacity:1;"/>
<path d="M161.841 437.85C163.244 437.822 164.767 437.683 166.271 437.385L166.485 438.788C164.599 439.178 162.779 439.299 161.136 439.28H160.161V432.119H161.851V437.841L161.841 437.85ZM168.76 441.927H167.07V431.107H168.76V441.927Z" fill="black" style="fill:black;fill-opacity:1;"/>
<path d="M173.032 435.732C173.552 435.398 173.951 435.073 173.951 434.553C173.951 434.033 173.543 433.708 173.032 433.708C172.521 433.708 172.076 434.06 172.066 434.655H170.19C170.218 432.918 171.5 432.147 173.041 432.147C174.75 432.147 175.985 432.974 175.985 434.469C175.985 435.463 175.456 436.076 174.666 436.54C174.026 436.921 173.719 437.274 173.719 438.026V438.193H171.983V438.026C171.983 436.596 172.345 436.159 173.023 435.741L173.032 435.732ZM171.825 439.837C171.816 439.261 172.298 438.788 172.883 438.788C173.468 438.788 173.942 439.261 173.961 439.837C173.951 440.441 173.45 440.915 172.883 440.915C172.317 440.915 171.806 440.441 171.825 439.837Z" fill="black" style="fill:black;fill-opacity:1;"/>
<path d="M185.057 438.435L184.082 439.67C183.144 439.131 182.541 438.24 182.188 437.144C181.826 438.333 181.204 439.327 180.256 439.912L179.244 438.658C180.86 437.655 181.352 435.723 181.352 433.931V433.494H179.681V432.138H184.528V433.494H182.996V433.931C182.996 435.714 183.469 437.506 185.067 438.426L185.057 438.435ZM186.636 441.444H185.057V436.113H183.757V434.757H185.057V431.256H186.636V441.444ZM188.865 441.927H187.258V431.107H188.865V441.927Z" fill="black" style="fill:black;fill-opacity:1;"/>
<path d="M191.874 432.797H193.796V431.599H195.495V436.327H190.202V431.599H191.874V432.797ZM198.532 439.995H192.96V440.534H198.82V441.862H191.289V438.788H196.842V438.249H191.279V436.949H198.541V439.995H198.532ZM193.787 435.008V434.061H191.864V435.008H193.787ZM198.532 433.132H199.934V434.497H198.532V436.587H196.833V431.107H198.532V433.132Z" fill="black" style="fill:black;fill-opacity:1;"/>
<path d="M208.858 435.714C208.849 438.119 207.632 439.614 205.97 439.614C204.308 439.614 203.054 438.119 203.073 435.714C203.064 433.345 204.289 431.85 205.97 431.85C207.651 431.85 208.849 433.345 208.858 435.714ZM204.717 435.714C204.707 437.283 205.209 438.073 205.97 438.073C206.732 438.073 207.224 437.283 207.233 435.714C207.224 434.172 206.741 433.383 205.97 433.383C205.2 433.383 204.707 434.172 204.717 435.714ZM211.626 435.11H213.158V436.512H211.626V441.927H209.926V431.107H211.626V435.119V435.11Z" fill="black" style="fill:black;fill-opacity:1;"/>
<path d="M215.712 437.85C217.114 437.822 218.637 437.683 220.141 437.385L220.355 438.788C218.47 439.178 216.649 439.299 215.006 439.28H214.031V432.119H215.721V437.841L215.712 437.85ZM222.63 441.927H220.94V431.107H222.63V441.927Z" fill="black" style="fill:black;fill-opacity:1;"/>
<path d="M229.381 436.271H226.056V438.054C227.505 438.054 228.759 437.98 230.124 437.757L230.282 439.104C228.647 439.41 227.134 439.466 225.295 439.466H224.376V434.952H227.691V433.345H224.366V431.989H229.39V436.271H229.381ZM232.492 435.119H234.024V436.522H232.492V441.946H230.82V431.098H232.492V435.119Z" fill="black" style="fill:black;fill-opacity:1;"/>
<path d="M244.211 440.664H234.339V439.299H237.766V435.621H239.456V439.299H244.211V440.664ZM243.328 433.002C243.328 434.358 243.328 435.899 242.892 438.24L241.174 438.063C241.583 436.085 241.62 434.581 241.638 433.336H235.37V431.989H243.338V433.002H243.328Z" fill="black" style="fill:black;fill-opacity:1;"/>
<path d="M253.005 436.122H247.758V431.572H253.005V436.122ZM256.097 439.93H250.526V440.487H256.385V441.806H248.854V438.714H254.407V438.175H248.845V436.875H256.107V439.93H256.097ZM249.439 434.794H251.333V432.918H249.439V434.794ZM256.097 433.123H257.5V434.516H256.097V436.485H254.398V431.107H256.097V433.123Z" fill="black" style="fill:black;fill-opacity:1;"/>
<path d="M263.062 434.023H257.898V432.677H259.663V431.395H261.334V432.677H263.052V434.023H263.062ZM262.894 437.033C262.894 438.565 261.901 439.652 260.517 439.652C259.134 439.652 258.112 438.565 258.112 437.033C258.112 435.5 259.124 434.441 260.517 434.441C261.91 434.441 262.894 435.519 262.894 437.033ZM259.598 437.033C259.598 437.813 259.96 438.212 260.517 438.212C261.037 438.212 261.409 437.813 261.409 437.033C261.409 436.252 261.028 435.834 260.517 435.844C259.96 435.834 259.598 436.271 259.598 437.033ZM267.305 441.927H265.69V436.81H264.993V441.481H263.414V431.302H264.993V435.454H265.69V431.107H267.305V441.927Z" fill="black" style="fill:black;fill-opacity:1;"/>
<path d="M275.264 436.29L275.357 437.525C274.456 437.692 273.527 437.803 272.608 437.868V441.602H270.89V437.961C270.036 437.989 269.219 437.998 268.494 437.998L268.309 436.633C270.268 436.633 272.952 436.605 275.264 436.29ZM274.735 433.085H272.729C272.775 433.773 273.481 434.451 275.106 434.664L274.437 435.974C273.202 435.769 272.348 435.277 271.856 434.618C271.354 435.324 270.463 435.853 269.116 436.067L268.448 434.766C270.184 434.543 270.909 433.819 270.974 433.076H268.931V431.757H274.735V433.076V433.085ZM277.669 441.918H275.933V439.679H273.825V438.416H275.933V431.116H277.669V441.918Z" fill="black" style="fill:black;fill-opacity:1;"/>
<path d="M279.192 439.837C279.183 439.261 279.666 438.788 280.251 438.788C280.836 438.788 281.309 439.261 281.328 439.837C281.318 440.441 280.817 440.914 280.251 440.914C279.684 440.914 279.173 440.441 279.192 439.837Z" fill="black" style="fill:black;fill-opacity:1;"/>
<path d="M76.3249 454.261L75.3499 455.496C74.412 454.957 73.8083 454.066 73.4555 452.97C73.0933 454.158 72.4711 455.152 71.5239 455.737L70.5117 454.483C72.1275 453.48 72.6197 451.549 72.6197 449.756V449.32H70.9482V447.964H75.7956V449.32H74.2634V449.756C74.2634 451.539 74.737 453.332 76.3342 454.251L76.3249 454.261ZM77.9036 457.27H76.3249V451.939H75.0248V450.583H76.3249V447.081H77.9036V457.27ZM80.1323 457.753H78.5258V446.933H80.1323V457.753Z" fill="#107BA3" style="fill:#107BA3;fill:color(display-p3 0.0627 0.4824 0.6392);fill-opacity:1;"/>
<path d="M83.1408 448.623H85.063V447.425H86.7624V452.152H81.4692V447.425H83.1408V448.623ZM89.799 455.821H84.2273V456.36H90.0869V457.688H82.5557V454.613H88.1089V454.075H82.5464V452.775H89.8083V455.821H89.799ZM85.063 450.834V449.886H83.1408V450.834H85.063ZM89.799 448.957H91.2012V450.323H89.799V452.412H88.0996V446.933H89.799V448.957Z" fill="#107BA3" style="fill:#107BA3;fill:color(display-p3 0.0627 0.4824 0.6392);fill-opacity:1;"/>
<path d="M100.125 451.539C100.116 453.945 98.8996 455.44 97.2374 455.44C95.5751 455.44 94.3215 453.945 94.34 451.539C94.3308 449.171 95.5565 447.676 97.2374 447.676C98.9182 447.676 100.116 449.171 100.125 451.539ZM95.9837 451.539C95.9744 453.109 96.4759 453.898 97.2374 453.898C97.9988 453.898 98.491 453.109 98.5003 451.539C98.491 449.998 98.0081 449.208 97.2374 449.208C96.4666 449.208 95.9744 449.998 95.9837 451.539ZM102.893 450.936H104.425V452.338H102.893V457.753H101.193V446.933H102.893V450.945V450.936Z" fill="#107BA3" style="fill:#107BA3;fill:color(display-p3 0.0627 0.4824 0.6392);fill-opacity:1;"/>
<path d="M106.979 453.675C108.381 453.648 109.904 453.508 111.408 453.211L111.622 454.613C109.737 455.004 107.917 455.124 106.273 455.106H105.298V447.945H106.988V453.666L106.979 453.675ZM113.897 457.753H112.207V446.933H113.897V457.753Z" fill="#107BA3" style="fill:#107BA3;fill:color(display-p3 0.0627 0.4824 0.6392);fill-opacity:1;"/>
<path d="M115.596 455.663C115.587 455.087 116.07 454.613 116.655 454.613C117.24 454.613 117.713 455.087 117.732 455.663C117.723 456.266 117.221 456.74 116.655 456.74C116.088 456.74 115.578 456.266 115.596 455.663Z" fill="#107BA3" style="fill:#107BA3;fill:color(display-p3 0.0627 0.4824 0.6392);fill-opacity:1;"/>
<defs>
<linearGradient id="paint0_linear_3340_54805" x1="34.1562" y1="435.927" x2="55.7398" y2="455.4" gradientUnits="userSpaceOnUse">
<stop stop-color="#107BA3" style="stop-color:#107BA3;stop-color:color(display-p3 0.0627 0.4824 0.6392);stop-opacity:1;"/>
<stop offset="0.33" stop-color="#0D6D9A" style="stop-color:#0D6D9A;stop-color:color(display-p3 0.0510 0.4275 0.6039);stop-opacity:1;"/>
<stop offset="0.96" stop-color="#074985" style="stop-color:#074985;stop-color:color(display-p3 0.0275 0.2863 0.5216);stop-opacity:1;"/>
<stop offset="1" stop-color="#074784" style="stop-color:#074784;stop-color:color(display-p3 0.0275 0.2784 0.5176);stop-opacity:1;"/>
</linearGradient>
</defs>
</svg>
