<svg width="213" height="221" viewBox="0 0 213 221" fill="none" xmlns="http://www.w3.org/2000/svg">
<path d="M38.44 98.41L24.61 33.83L62.53 64.07L65.61 27.16L87.14 59.97L102 0L115.33 57.4L144.54 21.53L142.49 72.27L182.98 51.25L166.07 81.49L212.71 69.19L172.22 107.12L212.2 115.83L180.93 137.36L208.61 180.42L157.35 164.53L164.53 195.28L131.21 178.88L129.68 212.71L104.56 181.95L77.4 201.94L82.01 174.78L16.92 220.39L49.21 169.14L18.97 165.04L45.62 137.87L0 115.32L38.44 98.41Z" fill="#FAE151" style="fill:#FAE151;fill:color(display-p3 0.9804 0.8824 0.3176);fill-opacity:1;"/>
</svg>
