<?xml version="1.0" encoding="UTF-8"?>
<svg id="Layer_2" data-name="Layer 2" xmlns="http://www.w3.org/2000/svg" xmlns:xlink="http://www.w3.org/1999/xlink" viewBox="0 0 793.68 712.09">
  <defs>
    <style>
      .cls-1 {
        stroke: #000;
        stroke-width: 9px;
      }

      .cls-1, .cls-2, .cls-3, .cls-4 {
        stroke-linecap: round;
        stroke-linejoin: round;
      }

      .cls-1, .cls-3 {
        fill: none;
      }

      .cls-5, .cls-2 {
        fill: #9add73;
      }

      .cls-6 {
        fill: #49a847;
      }

      .cls-2, .cls-3, .cls-4 {
        stroke: #49a847;
        stroke-width: 8.9px;
      }

      .cls-7 {
        fill: #ffdee6;
      }

      .cls-4 {
        fill: #7ec953;
      }

      .cls-8 {
        fill: #fcfcfc;
      }

      .cls-9 {
        fill: #92d864;
      }

      .cls-10 {
        clip-path: url(#clippath);
      }
    </style>
    <clipPath id="clippath">
      <path class="cls-2" d="M687.96,614.65h0c-2.85-15.94-16.28-27.32-31.77-28.23l-18.55-129.95h0c16.91-3.02,29.23-17.73,29.23-34.91v-5.19c-3.28-18.36-20.6-30.68-38.93-27.9l-18.99-133.03h0c16.92-2.41,29.49-16.91,29.49-34v-.34c0-21.58-17.48-36.74-38.84-33.69l-.35.05-19.22-134.66-228.33,32.59,19.22,134.66-.35.05c-18.77,2.68-31.82,20.07-29.14,38.84h0c2.68,18.77,20.07,31.82,38.84,29.14l.35-.05,20.13,141.03h0c-16.91,3.02-29.23,17.73-29.23,34.91v5.19c3.28,18.36,20.6,30.68,38.93,27.9l18.42,129.03-8.5,1.52c-18.67,3.34-31.09,21.17-27.76,39.84h0c0,19.18,17.58,20.94,36.47,17.56l48.66,2.1,154.98-22.12c7.24-1.03,17.01,1.29,21.97-3.35l5.51-7.14c18.67-3.34,31.09-21.17,27.76-39.84Z"/>
    </clipPath>
  </defs>
  <g id="Layer_1-2" data-name="Layer 1">
    <g>
      <path class="cls-4" d="M584.88,86.79s14.66-82.13,127.86-82.34c0,0,33.13,53.7-23.27,116.92s74.7-44.43,99.76,101.44c0,0-44.34-22.44-71.33-10.9-26.99,11.54-38.13,80.43-89.08,33.68-50.95-46.76-43.94-158.8-43.94-158.8Z"/>
      <path class="cls-3" d="M595.08,158.19s11.02-72.93,52.14-87.7"/>
      <path class="cls-3" d="M599.25,187.46s60.17-29.56,103.87-7.71"/>
      <circle cx="65.35" cy="415.85" r="65.35"/>
      <circle class="cls-8" cx="344.51" cy="608.05" r="104.04"/>
      <circle cx="312.26" cy="121.37" r="65.35"/>
      <path class="cls-8" d="M472.53,183.68c-19-16.28-45.17-21.76-75.01-17.83-78.79-62.2-201.62-42.17-277.59,46.52-19.11,22.31-33.46,46.88-43.09,72.26-4.44-.25-11.71.2-20.99,3.88-15.84,6.27,3.07,28.95,3.07,28.95,0,0-29.7-19.68-28.29,1.65,1.18,17.9,24.18,35.9,31.56,41.23-.6,48.02,15.52,93.78,48.33,127.57-2.05,36,7.16,66.03,28.89,84.65,56.76,48.63,177.35,1,269.34-106.38,91.99-107.38,120.54-233.85,63.78-282.48Z"/>
      <circle class="cls-7" cx="388.47" cy="269.81" r="71.14"/>
      <path d="M252.9,575.92c-1.61-5.96-3.35-11.58.81-16.89,82.77-100.12,99.02-282.18,174.99-265.96,95.02,20.29,43.13,93.61,22.58,127.72s-85.97,112.46-103.4,135.44c-16.93,22.33-82.39,59.42-94.99,19.68Z"/>
      <g>
        <path class="cls-1" d="M240.47,415.01s33.85,30.15,36.18-49.44"/>
        <path class="cls-1" d="M316.94,320.21s36.64,26.69-40.64,45.84"/>
      </g>
      <path d="M375.87,694.6c-12.55-3.31-21.55-14.31-22.87-27.21-1.79-17.61-.09-47.54,22.62-79.56,35.8-50.47,50.74-84.92,63.63-126.01s105.09,26.42,89.54,81.52-88.14,121.41-93.8,126.04c-4.64,3.8-29.84,32.93-59.13,25.21Z"/>
      <g>
        <path class="cls-5" d="M687.96,614.65h0c-2.85-15.94-16.28-27.32-31.77-28.23l-18.55-129.95h0c16.91-3.02,29.23-17.73,29.23-34.91v-5.19c-3.28-18.36-20.6-30.68-38.93-27.9l-18.99-133.03h0c16.92-2.41,29.49-16.91,29.49-34v-.34c0-21.58-17.48-36.74-38.84-33.69l-.35.05-19.22-134.66-228.33,32.59,19.22,134.66-.35.05c-18.77,2.68-31.82,20.07-29.14,38.84h0c2.68,18.77,20.07,31.82,38.84,29.14l.35-.05,20.13,141.03h0c-16.91,3.02-29.23,17.73-29.23,34.91v5.19c3.28,18.36,20.6,30.68,38.93,27.9l18.42,129.03-8.5,1.52c-18.67,3.34-31.09,21.17-27.76,39.84h0c0,19.18,17.58,20.94,36.47,17.56l48.66,2.1,154.98-22.12c7.24-1.03,17.01,1.29,21.97-3.35l5.51-7.14c18.67-3.34,31.09-21.17,27.76-39.84Z"/>
        <g class="cls-10">
          <path class="cls-9" d="M501.72,15.42s159.72,593.91-64.61,712.05c-224.33,118.13,333.36-59.96,333.36-59.96L595.45-12.38l-93.74,27.8Z"/>
        </g>
        <path class="cls-3" d="M687.96,614.65h0c-2.85-15.94-16.28-27.32-31.77-28.23l-18.55-129.95h0c16.91-3.02,29.23-17.73,29.23-34.91v-5.19c-3.28-18.36-20.6-30.68-38.93-27.9l-18.99-133.03h0c16.92-2.41,29.49-16.91,29.49-34v-.34c0-21.58-17.48-36.74-38.84-33.69l-.35.05-19.22-134.66-228.33,32.59,19.22,134.66-.35.05c-18.77,2.68-31.82,20.07-29.14,38.84h0c2.68,18.77,20.07,31.82,38.84,29.14l.35-.05,20.13,141.03h0c-16.91,3.02-29.23,17.73-29.23,34.91v5.19c3.28,18.36,20.6,30.68,38.93,27.9l18.42,129.03-8.5,1.52c-18.67,3.34-31.09,21.17-27.76,39.84h0c0,19.18,17.58,20.94,36.47,17.56l48.66,2.1,154.98-22.12c7.24-1.03,17.01,1.29,21.97-3.35l5.51-7.14c18.67-3.34,31.09-21.17,27.76-39.84Z"/>
      </g>
      <path class="cls-3" d="M385.5,217.93s101.77,28,192.37-19.1"/>
      <path class="cls-3" d="M389.72,271.38s101.77,28,192.37-19.1"/>
      <path class="cls-3" d="M413.73,434.95s101.77,28,192.37-19.1"/>
      <path class="cls-3" d="M434.37,486.62s101.77,28,192.37-19.1"/>
      <path class="cls-3" d="M449.14,637.7s101.77,28,192.37-19.1"/>
      <line class="cls-3" x1="390.79" y1="191.91" x2="393.45" y2="216.45"/>
      <line class="cls-3" x1="568.91" y1="536.7" x2="572.3" y2="568.02"/>
      <line class="cls-3" x1="599.41" y1="558.46" x2="602.8" y2="589.78"/>
      <line class="cls-3" x1="408.45" y1="194.13" x2="411.11" y2="218.66"/>
      <line class="cls-3" x1="562.92" y1="286.23" x2="572.47" y2="374.41"/>
      <circle class="cls-7" cx="201.84" cy="504.01" r="71.14"/>
      <line class="cls-3" x1="580.58" y1="288.44" x2="586.24" y2="340.73"/>
      <ellipse class="cls-2" cx="466.1" cy="69.64" rx="115.59" ry="49.65" transform="translate(-4.66 47.69) rotate(-5.83)"/>
      <ellipse class="cls-6" cx="463.86" cy="71.31" rx="79.02" ry="22.49" transform="translate(-4.84 47.48) rotate(-5.83)"/>
      <path d="M240.92,302.65c-.89-3.13-.77-6.45.34-9.51,3.35-9.32,13.7-29.01,43.48-41.72,40.14-17.12,51.65,2.35,55.41,13.36s-5.93,29.48-50.8,48.6c-33.99,14.49-45.99-2.1-48.43-10.74Z"/>
      <path d="M210.85,348.29c-3.21-.5-6.38.26-9.4,1.48-12.49,5.02-27.16,17.08-36.19,48.18-12.17,41.91,8.54,50.99,19.92,53.41,11.38,2.41,28.55-9.43,42.14-56.27,10.3-35.49-7.61-45.4-16.48-46.79Z"/>
      <circle class="cls-8" cx="276.29" cy="288.44" r="15.25"/>
      <circle class="cls-8" cx="201.84" cy="381.56" r="15.25"/>
    </g>
  </g>
</svg>