<svg width="304" height="178" viewBox="0 0 304 178" fill="none" xmlns="http://www.w3.org/2000/svg">
<path d="M156.449 132.772C156.449 132.772 229.631 163.816 273.988 131.672C318.345 99.5286 307.251 59.5895 260.675 30.7642C214.099 1.93888 137.598 -9.15526 59.9782 15.2323C-17.642 39.6199 -3.22935 90.6336 22.2775 110.584C47.7843 130.533 108.773 142.747 135.379 136.09C135.379 136.09 141.192 151.053 107.654 176.01C107.654 176.01 148.673 172.691 156.449 132.772Z" fill="white" style="fill:white;fill-opacity:1;"/>
<path d="M107.673 177.975C106.868 177.975 106.122 177.464 105.828 176.699C105.514 175.874 105.788 174.951 106.495 174.441C131.786 155.63 133.946 142.866 133.789 138.468C106.279 144.025 47.1168 132.518 21.0798 112.136C8.33618 102.161 -2.91513 83.1933 0.678209 63.3415C3.44685 48.0845 15.8959 27.035 59.3891 13.3489C130.667 -9.05554 210.094 -2.8899 261.716 29.0771C288.244 45.4926 303.246 65.5014 303.972 85.4121C304.6 102.574 294.625 119.107 275.127 133.245C256.571 146.715 229.985 151.192 198.273 146.204C179.206 143.22 163.478 137.604 157.882 135.444C148.83 174.185 108.243 177.936 107.811 177.955C107.752 177.955 107.713 177.955 107.654 177.955L107.673 177.975ZM135.399 134.128C136.185 134.128 136.931 134.619 137.225 135.385C137.461 136.013 142.468 150.014 115.115 172.673C126.995 169.669 149.105 160.362 154.544 132.4C154.662 131.811 155.035 131.32 155.545 131.046C156.076 130.771 156.684 130.751 157.234 130.967C157.411 131.046 175.652 138.704 198.999 142.356C220.363 145.694 250.504 146.283 272.849 130.083C291.228 116.751 300.634 101.376 300.065 85.5692C299.397 67.0134 285.043 48.1435 259.654 32.4349C208.955 1.05693 130.824 -4.9517 60.5673 17.1189C18.9395 30.1963 7.11874 49.8714 4.54645 64.0484C1.22801 82.29 11.6742 99.8051 23.4949 109.053C48.9625 128.984 109.774 140.471 134.908 134.207C135.065 134.168 135.222 134.148 135.38 134.148L135.399 134.128Z" fill="black" style="fill:black;fill-opacity:1;"/>
<path d="M69.0017 74.2776V54.8102C69.0017 52.8954 70.2783 51.6188 72.8314 51.6188C75.3845 51.6188 76.661 52.8954 76.661 54.8102V73.2563C76.661 74.5967 77.4908 75.1073 78.6397 75.1073H91.0222V67.7033H81.1289C79.1503 67.7033 77.8737 66.8098 77.8737 64.1928C77.8737 61.5759 79.1503 60.6185 81.1289 60.6185H91.0222V54.8102C91.0222 52.8954 92.2349 51.6188 94.788 51.6188C97.3411 51.6188 98.5538 52.8954 98.5538 54.8102V78.937C98.49 80.9794 97.1496 82.3198 94.788 82.3198H77.8737C72.1293 82.3198 69.0017 80.022 69.0017 74.2776ZM77.2355 100.957V90.2982C77.2355 88.3834 78.7673 87.1069 81.3204 87.1069C83.8735 87.1069 85.4054 88.3834 85.4054 90.2982V98.7873C85.4054 100 86.0437 100.447 87.384 100.447H112.532C114.511 100.447 115.787 101.468 115.787 104.085C115.787 106.702 114.511 107.723 112.532 107.723H84.9586C80.4907 107.723 77.2355 106 77.2355 100.957ZM106.405 87.7451V53.023C106.405 51.1082 107.681 49.8317 110.234 49.8317C112.787 49.8317 114.064 51.1082 114.064 53.023V64.129H119.106C121.085 64.129 122.361 65.2141 122.361 67.831C122.361 70.4479 121.085 71.533 119.106 71.533H114.064V87.7451C114.064 89.66 112.787 90.9365 110.234 90.9365C107.681 90.9365 106.405 89.66 106.405 87.7451ZM135.471 92.979C134.195 93.5534 133.237 93.8726 131.897 93.8726C129.918 93.8726 128.386 92.0216 128.386 89.7876C128.386 88.5111 128.961 87.3622 130.046 86.8516C139.875 82.1922 147.407 74.5329 148.237 64.512C148.301 63.746 148.109 63.1716 147.088 63.1716H132.216C130.493 63.1716 128.961 62.2142 128.961 59.5334C128.961 56.8527 130.493 55.64 132.216 55.64H150.343C155.258 55.64 156.853 58.959 156.662 62.7886C155.704 80.022 143.258 89.5961 135.471 92.979ZM164.832 100.574V53.023C164.832 51.1082 166.108 49.8317 168.661 49.8317C171.215 49.8317 172.491 51.1082 172.491 53.023V69.8735H177.533C179.512 69.8735 180.789 70.9585 180.789 73.5755C180.789 76.1924 179.512 77.2774 177.533 77.2774H172.491V100.574C172.491 102.489 171.215 103.766 168.661 103.766C166.108 103.766 164.832 102.489 164.832 100.574ZM187.133 64.512C187.133 55.5123 193.771 51.0444 203.09 51.0444C212.472 51.0444 218.855 55.5123 218.855 64.512C218.855 73.8308 212.472 77.9157 203.09 77.9157C193.771 77.9157 187.133 73.8308 187.133 64.512ZM226.45 97.8937H218.6C216.621 97.8937 215.344 96.8725 215.344 94.2555C215.344 91.6386 216.621 90.6174 218.6 90.6174H226.45V53.023C226.45 51.1082 227.727 49.8317 230.28 49.8317C232.833 49.8317 234.11 51.1082 234.11 53.023V100.574C234.11 102.489 232.833 103.766 230.28 103.766C227.727 103.766 226.45 102.489 226.45 100.574V97.8937ZM187.771 90.5535C185.473 90.5535 184.133 88.9579 184.133 86.6601C184.133 84.7453 185.026 83.0219 187.26 83.0219C201.494 83.0219 211.451 81.873 219.174 79.7667C222.557 78.8093 223.77 81.4901 223.77 83.4049C223.77 85.192 222.94 86.2133 221.791 86.5962C218.153 87.8728 213.302 88.7664 208.196 89.4047V100.383C208.196 102.298 206.728 103.574 204.175 103.574C201.622 103.574 200.153 102.298 200.153 100.383V90.1706C195.622 90.4897 191.218 90.6174 187.771 90.5535ZM211.196 64.512C211.196 59.5973 207.557 58.0654 203.09 58.0654C198.622 58.0654 194.92 59.5973 194.92 64.512C194.92 69.4267 198.622 70.8947 203.09 70.8947C207.557 70.8947 211.196 69.4267 211.196 64.512Z" fill="black" style="fill:black;fill-opacity:1;"/>
</svg>
