<svg width="53" height="87" viewBox="0 0 53 87" fill="none" xmlns="http://www.w3.org/2000/svg">
<path d="M28.9399 35.68C33.9399 32.54 37.6599 28.59 37.6599 22.78C37.6599 16.27 32.6599 12.09 26.2699 12.09C20.4599 12.09 14.8799 15.81 14.5299 23.6H0C0.35 8.01999 12.0899 0 26.3899 0C42.0799 0 52.8899 8.71999 52.8899 22.55C52.8899 31.97 48.1199 38.13 40.5699 42.66C33.8299 46.73 31.0399 50.8 30.9199 59.51V60.56H17.3199V59.51C17.4399 44.75 21.6199 40.21 28.9399 35.68ZM15.45 77.18C15.45 72.3 19.5199 68.23 24.5199 68.23C29.5199 68.23 33.47 72.3 33.47 77.18C33.47 82.06 29.2899 86.25 24.5199 86.25C19.5199 86.25 15.45 82.18 15.45 77.18Z" fill="black" style="fill:black;fill-opacity:1;"/>
</svg>
