<svg width="213" height="113" viewBox="0 0 213 113" fill="none" xmlns="http://www.w3.org/2000/svg">
<path d="M7.01282 48.5733C7.01282 48.5733 15.5228 38.3181 18.5654 32.0012C21.608 25.6844 23.3687 21.0974 23.3687 21.0974C23.3687 21.0974 27.2916 19.1358 39.0604 15.6454C50.8292 12.1549 57.1615 9.32855 59.7716 8.44821C62.3818 7.56786 72.4208 9.76098 82.8768 9.97721C93.3328 10.1934 99.6651 7.79951 99.6651 7.79951C99.6651 7.79951 107.727 6.70297 118.199 8.01576C128.67 9.32855 136.516 8.23196 136.516 8.23196C136.516 8.23196 143.064 5.62182 154.185 7.79951C165.305 9.9772 174.896 12.3711 174.896 12.3711C174.896 12.3711 180.348 17.8231 186.448 20.0007C192.549 22.1784 200.843 25.2365 200.843 25.2365C200.843 25.2365 201.275 30.6884 204.766 38.7505C208.256 46.8126 208.472 48.5579 208.472 48.5579C208.472 48.5579 204.549 56.1875 204.549 68.188C204.549 68.188 198.665 76.9141 196.92 89.7795C196.92 89.7795 186.232 91.3086 175.112 96.7605C175.112 96.7605 146.771 98.0733 140.439 104.174C140.439 104.174 112.747 108.529 99.8813 107.448C99.8813 107.448 71.9729 99.6023 62.8142 103.093C62.8142 103.093 37.2997 97.2084 27.4924 93.5017C27.4924 93.5017 13.098 75.833 6.78116 71.6939C6.78116 71.6939 10.0554 57.9636 6.99741 48.5887L7.01282 48.5733Z" fill="white" style="fill:white;fill-opacity:1;"/>
<path d="M98.6612 14.7187C97.8117 14.7187 97.1167 14.0237 97.1167 13.1743V1.54446C97.1167 0.695008 97.8117 0 98.6612 0C99.5106 0 100.206 0.695008 100.206 1.54446V13.1743C100.206 14.0237 99.5106 14.7187 98.6612 14.7187Z" fill="black" style="fill:black;fill-opacity:1;"/>
<path d="M133.535 14.7187C133.303 14.7187 133.072 14.6724 132.84 14.5488C132.083 14.1627 131.774 13.236 132.145 12.4792L137.381 2.00779C137.767 1.251 138.694 0.942092 139.45 1.31276C140.207 1.69888 140.516 2.6256 140.145 3.38238L134.91 13.8538C134.632 14.3944 134.091 14.7033 133.52 14.7033L133.535 14.7187Z" fill="black" style="fill:black;fill-opacity:1;"/>
<path d="M170.757 21.1282C170.54 21.1282 170.309 21.0819 170.092 20.9738C169.32 20.6031 168.996 19.6919 169.367 18.9196L175.174 6.70295C175.544 5.93072 176.456 5.60638 177.228 5.97705C178 6.34772 178.324 7.25894 177.954 8.03117L172.147 20.2479C171.884 20.8039 171.328 21.1282 170.757 21.1282Z" fill="black" style="fill:black;fill-opacity:1;"/>
<path d="M191.684 31.0128C191.113 31.0128 190.557 30.6884 190.294 30.1324C189.923 29.3602 190.248 28.4335 191.02 28.0783L205.553 21.0974C206.326 20.7267 207.252 21.051 207.607 21.8232C207.978 22.5954 207.654 23.5221 206.882 23.8774L192.348 30.8583C192.132 30.9664 191.9 31.0128 191.684 31.0128Z" fill="black" style="fill:black;fill-opacity:1;"/>
<path d="M211.453 50.7819C211.453 50.7819 211.407 50.7819 211.376 50.7819L199.746 50.195C198.897 50.1487 198.233 49.4228 198.279 48.5733C198.325 47.7239 199.067 47.0598 199.901 47.1061L211.53 47.693C212.38 47.7393 213.044 48.4652 212.998 49.3147C212.951 50.1332 212.272 50.7819 211.453 50.7819Z" fill="black" style="fill:black;fill-opacity:1;"/>
<path d="M211.453 71.1224C211.453 71.1224 211.33 71.1224 211.268 71.1224L196.734 69.3772C195.885 69.2691 195.283 68.5123 195.391 67.6629C195.499 66.8134 196.256 66.2111 197.105 66.3192L211.639 68.0644C212.488 68.1725 213.09 68.9293 212.982 69.7788C212.89 70.5664 212.225 71.1379 211.453 71.1379V71.1224Z" fill="black" style="fill:black;fill-opacity:1;"/>
<path d="M203.901 94.9689C203.592 94.9689 203.268 94.8763 203.005 94.6755L192.534 87.1231C191.839 86.6289 191.684 85.6558 192.178 84.9608C192.673 84.2658 193.646 84.1114 194.341 84.6056L204.812 92.158C205.507 92.6522 205.662 93.6252 205.167 94.3202C204.858 94.7372 204.395 94.9535 203.916 94.9535L203.901 94.9689Z" fill="black" style="fill:black;fill-opacity:1;"/>
<path d="M178.896 103.108C178.402 103.108 177.908 102.861 177.614 102.413L169.475 90.1965C168.996 89.4861 169.197 88.5285 169.907 88.0497C170.618 87.5709 171.575 87.7717 172.054 88.4822L180.193 100.699C180.672 101.409 180.471 102.367 179.761 102.846C179.498 103.016 179.205 103.108 178.911 103.108H178.896Z" fill="black" style="fill:black;fill-opacity:1;"/>
<path d="M144.007 111.248C143.42 111.248 142.848 110.908 142.601 110.336L137.365 98.7066C137.01 97.9343 137.365 97.0076 138.138 96.6679C138.91 96.3281 139.821 96.6679 140.176 97.4401L145.412 109.07C145.767 109.842 145.412 110.769 144.64 111.109C144.439 111.201 144.223 111.248 144.007 111.248Z" fill="black" style="fill:black;fill-opacity:1;"/>
<path d="M101.565 112.993C100.777 112.993 100.113 112.406 100.036 111.603L98.8774 100.56C98.7847 99.7104 99.4025 98.9536 100.252 98.8609C101.086 98.7683 101.858 99.3861 101.951 100.236L103.109 111.278C103.202 112.128 102.584 112.885 101.735 112.977C101.673 112.977 101.626 112.977 101.565 112.977V112.993Z" fill="black" style="fill:black;fill-opacity:1;"/>
<path d="M61.4397 108.915C61.2698 108.915 61.0844 108.885 60.9145 108.823C60.1114 108.529 59.6944 107.649 59.9724 106.846L62.876 98.7065C63.1694 97.9034 64.0498 97.4864 64.8529 97.7644C65.656 98.0578 66.073 98.9382 65.795 99.7413L62.8915 107.881C62.6598 108.514 62.0729 108.9 61.4397 108.9V108.915Z" fill="black" style="fill:black;fill-opacity:1;"/>
<path d="M23.0752 99.0309C22.6427 99.0309 22.1948 98.8455 21.8859 98.4748C21.3299 97.8262 21.4226 96.8531 22.0713 96.2971L33.1142 86.9995C33.7629 86.4435 34.7358 86.5361 35.2918 87.1848C35.8479 87.8335 35.7552 88.8065 35.1065 89.3625L24.0636 98.6602C23.7702 98.9073 23.415 99.0154 23.0752 99.0154V99.0309Z" fill="black" style="fill:black;fill-opacity:1;"/>
<path d="M3.87759 74.0261C3.15169 74.0261 2.51849 73.5164 2.36405 72.7905C2.19416 71.9564 2.73472 71.1379 3.56873 70.968L15.1985 68.6359C16.0325 68.466 16.8511 69.0066 17.021 69.8406C17.1909 70.6746 16.6503 71.4931 15.8163 71.663L4.1865 73.9952C4.07839 74.0106 3.9857 74.0261 3.87759 74.0261Z" fill="black" style="fill:black;fill-opacity:1;"/>
<path d="M13.7622 51.3534C13.7622 51.3534 13.6231 51.3534 13.5459 51.3379L1.32923 49.5927C0.479771 49.4691 -0.107134 48.6969 0.0164232 47.8474C0.13998 46.998 0.912218 46.4111 1.76167 46.5346L13.9784 48.2799C14.8278 48.4034 15.4147 49.1757 15.2912 50.0251C15.1831 50.7973 14.519 51.3534 13.7622 51.3534Z" fill="black" style="fill:black;fill-opacity:1;"/>
<path d="M28.8824 25.7771C28.6507 25.7771 28.4191 25.7307 28.1874 25.6072L20.0481 21.5298C19.2913 21.1437 18.9824 20.217 19.3531 19.4602C19.7392 18.7034 20.6659 18.3791 21.4227 18.7652L29.562 22.8426C30.3188 23.2287 30.6277 24.1554 30.257 24.9121C29.979 25.4527 29.4385 25.7616 28.867 25.7616L28.8824 25.7771Z" fill="black" style="fill:black;fill-opacity:1;"/>
<path d="M61.4396 15.3057C60.6674 15.3057 60.0032 14.7342 59.9106 13.9465L58.7522 4.64883C58.6441 3.79938 59.2465 3.02716 60.096 2.91905C60.93 2.81093 61.7176 3.41327 61.8257 4.26272L62.9841 13.5604C63.0922 14.4099 62.4899 15.1821 61.6404 15.2902C61.5786 15.2902 61.5169 15.2902 61.4396 15.2902V15.3057Z" fill="black" style="fill:black;fill-opacity:1;"/>
</svg>
