<svg width="807" height="447" viewBox="0 0 807 447" fill="none" xmlns="http://www.w3.org/2000/svg">
<g clip-path="url(#clip0_2377_74)">
<path d="M261.71 205.66C261.71 220.55 254.53 233.31 240.17 243.95C227.57 253.34 212.25 259.32 194.19 261.88C193.52 261.95 192.97 261.99 192.55 261.99C190.62 261.99 186.33 256.84 179.7 246.53C173.07 236.23 169.75 229.94 169.75 227.66C169.75 226.85 170.38 226.34 171.64 226.12C183.81 223.7 191.88 221.65 195.82 219.96C204.55 216.15 208.92 210.5 208.92 203.02C208.92 198.25 206.06 192.94 200.35 187.07C190.44 177.1 185.06 171.56 184.23 170.46C178.44 162.83 175.54 154.4 175.54 145.16C175.54 131.74 182.63 120.59 196.83 111.71C208.42 104.38 222.65 99.6098 239.53 97.4098C240.45 97.3398 241.17 97.2998 241.67 97.2998C242.93 97.2998 243.94 98.1798 244.69 99.9398C246.87 105.29 251.95 114.98 259.93 128.98C260.18 129.42 260.31 129.79 260.31 130.08C260.31 131.33 259.55 131.95 258.04 131.95C257.37 131.95 256.23 131.84 254.64 131.62C253.04 131.4 251.83 131.29 250.99 131.29C244.94 131.29 239.65 132.5 235.12 134.92C229.66 137.71 226.93 141.59 226.93 146.58C226.93 151.05 229.95 156.55 236 163.08C246.66 174.82 252.25 180.98 252.75 181.56C258.71 189.63 261.69 197.66 261.69 205.66H261.71Z" fill="black" stroke="black" style="fill:black;fill-opacity:1;stroke:black;stroke-opacity:1;" stroke-width="10" stroke-miterlimit="10"/>
<path d="M411.35 156.26C411.35 161.69 411.05 169.83 410.47 180.68C409.88 191.54 409.59 199.68 409.59 205.11C409.59 210.54 409.8 218.31 410.22 228.87C410.64 239.43 410.85 247.32 410.85 252.52C410.85 254.5 409.8 255.75 407.7 256.26C404.51 256.99 397.75 257.36 387.42 257.36C378.27 257.36 371.88 257.14 368.27 256.7C366.67 256.48 365.67 255.6 365.25 254.06C365 251.86 364.75 249.66 364.49 247.46C364.07 244.09 363.48 242.4 362.73 242.4C363.91 242.4 359.66 244.89 350.01 249.88C340.35 254.87 331.58 257.36 323.68 257.36C301.43 257.36 288.24 248.6 284.13 231.07C282.28 222.93 281.36 211.12 281.36 195.64C281.36 178.92 282.91 165.71 286.02 156.03C286.94 153.02 288.67 151.52 291.19 151.52C295.05 151.52 300.93 151.56 308.82 151.63C316.71 151.7 322.59 151.74 326.45 151.74C329.05 151.74 330.35 152.7 330.35 154.6C330.35 155.11 330.27 155.88 330.1 156.91C328.34 166.89 327.45 177.01 327.45 187.28C327.45 200.04 327.91 208.77 328.84 213.47C330.35 221.54 335.85 225.57 345.34 225.57C349.03 225.57 353.04 224.14 357.37 221.28C361.69 218.42 363.94 215.45 364.11 212.37C364.28 209.66 364.36 191.25 364.36 157.14C364.36 154.72 364.57 153.29 364.99 152.85C365.49 152.12 367.01 151.75 369.53 151.75C373.64 151.75 379.84 151.79 388.11 151.86C396.38 151.93 402.57 151.97 406.69 151.97C409.21 151.97 410.68 152.52 411.1 153.62C411.27 154.21 411.35 155.09 411.35 156.26Z" fill="black" stroke="black" style="fill:black;fill-opacity:1;stroke:black;stroke-opacity:1;" stroke-width="10" stroke-miterlimit="10"/>
<path d="M571.07 203.35C571.07 219.05 565.78 232.06 555.2 242.41C544.28 253.12 529.96 258.47 512.25 258.47C505.78 258.47 498.86 257.08 491.47 254.29C484.08 251.5 480.72 250.11 481.39 250.11C480.3 250.11 479.75 251.21 479.75 253.41C479.75 257.15 479.96 262.78 480.38 270.3C480.8 277.82 481.01 283.45 481.01 287.19C481.01 289.54 479.62 290.71 476.85 290.71L451.15 290.82C445.36 290.82 441.62 290.63 439.94 290.27C437.42 289.76 436.16 288.4 436.16 286.2L436.41 201.48C436.41 184.39 434.94 169.98 432 158.24C431.83 157.51 431.75 156.88 431.75 156.37C431.75 155.27 432.25 154.54 433.26 154.17C436.53 153.07 442.79 151.9 452.03 150.65C461.02 149.4 467.52 148.78 471.55 148.78C474.83 148.78 476.69 150.67 477.16 154.45C477.62 158.23 478.19 160.12 478.86 160.12C478.02 160.12 481.61 158.12 489.63 154.12C497.65 150.12 504.93 148.12 511.48 148.12C529.7 148.12 544.27 153.37 555.19 163.85C565.77 173.97 571.06 187.14 571.06 203.35H571.07ZM524.34 203.12C524.34 197.25 522.28 192.12 518.17 187.72C513.72 183.1 508.22 180.79 501.67 180.79C495.12 180.79 489.58 183.1 485.55 187.72C482.02 191.9 480.26 197.03 480.26 203.12C480.26 209.21 482.11 214.53 485.8 218.63C489.75 223.1 495.2 225.34 502.18 225.34C516.96 225.34 524.35 217.93 524.35 203.12H524.34Z" fill="black" stroke="black" style="fill:black;fill-opacity:1;stroke:black;stroke-opacity:1;" stroke-width="10" stroke-miterlimit="10"/>
<path d="M702.83 196.52C702.83 203.93 700.1 208.15 694.64 209.17C693.72 209.32 685.02 210.13 668.57 211.59C658.66 212.55 643.88 213.68 624.23 215C625.41 219.77 628.97 223.4 634.94 225.89C639.81 227.94 645.35 228.97 651.57 228.97C659.04 228.97 666.56 227.21 674.12 223.69C677.31 221.93 680.5 220.17 683.69 218.41C685.45 219.14 688.41 222.88 692.57 229.63C696.73 236.38 698.81 240.67 698.81 242.5C698.81 243.02 698.18 243.86 696.92 245.03C686.67 254.64 670.76 259.44 649.18 259.44C629.19 259.44 613.07 254.34 600.81 244.15C588.21 233.81 581.92 219.98 581.92 202.67C581.92 185.36 587.54 171.97 598.8 161.19C610.39 150.04 625.76 144.47 644.9 144.47C661.02 144.47 674.71 149.6 685.96 159.87C697.21 170.14 702.84 182.35 702.84 196.51L702.83 196.52ZM658.74 189.81C658.74 185.26 656.89 181.27 653.2 177.82C649.5 174.37 645.1 172.65 639.97 172.65C634.84 172.65 630.31 174.6 626.87 178.48C623.68 182.07 622.08 186.29 622.08 191.13C622.08 193.11 623.25 194.1 625.61 194.1C631.82 194.1 641.48 193.26 654.58 191.57C657.35 191.2 658.74 190.62 658.74 189.81Z" fill="black" stroke="black" style="fill:black;fill-opacity:1;stroke:black;stroke-opacity:1;" stroke-width="10" stroke-miterlimit="10"/>
<path d="M800.2 187.72C800.2 190.58 798.39 192.01 794.78 192.01C793.18 192.01 790.85 191.92 787.79 191.73C784.72 191.55 782.44 191.45 780.92 191.45C773.95 191.45 769.21 192.4 766.69 194.31C764.17 196.22 762.91 200.07 762.91 205.86C762.91 209.01 762.97 213.8 763.1 220.22C763.23 226.64 763.29 231.43 763.29 234.58C763.29 236.71 763.46 239.88 763.79 244.1C764.12 248.32 764.29 251.46 764.29 253.51C764.29 255.27 762.9 256.26 760.13 256.48C756.1 256.77 749.93 256.92 741.61 256.92C733.29 256.92 727.25 256.7 722.46 256.26C719.69 255.97 718.3 254.76 718.3 252.63C718.3 246.76 718.34 237.98 718.43 226.28C718.51 214.58 718.55 205.8 718.55 199.93C718.55 182.7 716.74 168.5 713.13 157.35C712.96 156.69 712.88 156.14 712.88 155.7C712.88 154.6 713.51 153.87 714.77 153.5C719.39 153.06 726.15 152.25 735.05 151.08C748.32 148.81 755.16 147.67 755.58 147.67C757.09 147.67 758.06 149.98 758.48 154.6C758.9 159.22 759.66 161.53 760.75 161.53C759.57 161.53 763.02 159.6 771.08 155.75C779.14 151.9 786.91 149.97 794.38 149.97C799.08 149.97 801.43 150.85 801.43 152.61C801.43 154.74 801.18 157.74 800.67 161.63C800.17 165.81 799.87 168.82 799.79 170.65C799.79 172.78 799.83 175.6 799.91 179.12C800.08 183.45 800.16 186.31 800.16 187.7L800.2 187.72Z" fill="black" stroke="black" style="fill:black;fill-opacity:1;stroke:black;stroke-opacity:1;" stroke-width="10" stroke-miterlimit="10"/>
<path d="M354.61 385.66C354.61 400.55 347.43 413.31 333.07 423.95C320.47 433.34 305.15 439.32 287.09 441.88C286.42 441.95 285.87 441.99 285.45 441.99C283.52 441.99 279.23 436.84 272.6 426.53C265.97 416.23 262.65 409.94 262.65 407.66C262.65 406.85 263.28 406.34 264.54 406.12C276.71 403.7 284.78 401.65 288.72 399.96C297.45 396.15 301.82 390.5 301.82 383.02C301.82 378.25 298.96 372.94 293.25 367.07C283.34 357.1 277.96 351.56 277.13 350.46C271.34 342.83 268.44 334.4 268.44 325.16C268.44 311.74 275.53 300.59 289.73 291.71C301.32 284.38 315.55 279.61 332.43 277.41C333.35 277.34 334.07 277.3 334.57 277.3C335.83 277.3 336.84 278.18 337.59 279.94C339.77 285.29 344.85 294.98 352.83 308.98C353.08 309.42 353.21 309.79 353.21 310.08C353.21 311.33 352.45 311.95 350.94 311.95C350.27 311.95 349.13 311.84 347.54 311.62C345.94 311.4 344.73 311.29 343.89 311.29C337.84 311.29 332.55 312.5 328.02 314.92C322.56 317.71 319.83 321.59 319.83 326.58C319.83 331.05 322.85 336.55 328.9 343.08C339.56 354.82 345.15 360.98 345.65 361.56C351.61 369.63 354.59 377.66 354.59 385.66H354.61Z" fill="black" stroke="black" style="fill:black;fill-opacity:1;stroke:black;stroke-opacity:1;" stroke-width="10" stroke-miterlimit="10"/>
<path d="M458.9 404.03C458.9 406.23 458.58 409.57 457.96 414.04C457.33 418.51 457.01 421.8 457.01 423.89C457.01 425.98 456.76 427.32 456.25 427.91C455.74 428.5 454.36 429.34 452.09 430.44C441.26 435.65 429.25 438.25 416.06 438.25C391.79 438.25 379.66 430.15 379.66 413.94C379.66 409.1 379.87 401.82 380.29 392.1C380.71 382.38 380.92 375.1 380.92 370.26C380.92 367.03 378.78 365.42 374.5 365.42H372.86C372.1 365.49 371.56 365.53 371.22 365.53C368.03 365.53 366.43 364.54 366.43 362.56C366.43 361.39 366.53 359.59 366.74 357.17C366.95 354.75 367.06 352.95 367.06 351.78C367.06 350.24 366.95 347.89 366.74 344.74C366.53 341.59 366.43 339.24 366.43 337.7C366.43 336.16 369.12 335.43 374.49 335.28C377.51 335.21 379.15 334.47 379.4 333.08C379.9 330.29 380.07 325.89 379.9 319.88C379.56 310.42 379.4 305.91 379.4 306.35C379.4 297.84 380.32 293.59 382.17 293.59C384.44 293.59 387.67 294.03 391.87 294.91C396.66 295.86 399.97 296.41 401.82 296.56C406.1 297.07 412.57 297.77 421.22 298.65C423.32 298.8 424.37 299.42 424.37 300.52C424.37 303.46 424.1 307.89 423.55 313.83C423 319.77 422.73 324.25 422.73 327.25C422.73 330.84 423.95 332.64 426.38 332.64C429.32 332.64 433.77 332.53 439.73 332.31C445.69 332.09 450.19 331.98 453.21 331.98C455.06 331.98 455.98 332.53 455.98 333.63C455.98 335.32 455.77 337.85 455.35 341.22C454.93 344.6 454.72 347.12 454.72 348.81C454.72 350.5 454.76 353.14 454.85 356.51C454.93 359.89 454.98 362.45 454.98 364.21C454.98 365.75 453.76 366.52 451.33 366.52C449.65 366.52 446.84 366.47 442.89 366.35C438.94 366.24 436.13 366.19 434.45 366.19H425C423.74 366.19 423.11 367.8 423.11 371.03V378.84C423.19 382.36 423.24 384.96 423.24 386.65C423.24 392.81 424.04 397.06 425.63 399.41C427.9 402.56 432.35 404.14 438.98 404.14C441.08 404.14 444.08 403.72 447.99 402.87C451.89 402.03 454.64 401.61 456.24 401.61C458 401.61 458.89 402.42 458.89 404.03H458.9Z" fill="black" stroke="black" style="fill:black;fill-opacity:1;stroke:black;stroke-opacity:1;" stroke-width="10" stroke-miterlimit="10"/>
<path d="M598.72 381.25C598.72 386.9 599.1 395.3 599.85 406.45C600.61 417.6 600.98 425.96 600.98 431.54C600.98 434.47 599.51 436.05 596.57 436.27C586.16 436.93 574.23 437.26 560.8 437.26C559.2 437.26 558.13 435.15 557.59 430.93C557.04 426.71 556.39 424.57 555.64 424.49C554.97 424.78 554.09 425.41 552.99 426.36C543.58 434.65 533.51 438.79 522.76 438.79C506.38 438.79 492.82 433.14 482.07 421.85C471.91 411.29 466.83 398.67 466.83 384C466.83 367.06 472.08 353.41 482.58 343.07C493.5 332.36 508.44 327.01 527.42 327.01C540.6 327.01 551.02 331.05 558.66 339.11C558.99 339.48 559.29 339.66 559.54 339.66C560.3 339.66 561.16 337.88 562.12 334.32C563.08 330.76 564.24 328.98 565.58 328.98C568.69 328.98 574.61 329.75 583.34 331.29C591.65 332.76 597.62 334 601.23 335.03C602.49 335.47 603.12 336.06 603.12 336.79C603.12 337.08 602.99 337.85 602.74 339.1C600.05 352.38 598.71 366.42 598.71 381.24L598.72 381.25ZM558.16 381.91C558.16 375.68 555.91 370.52 551.42 366.45C546.93 362.38 541.07 360.34 533.85 360.34C526.63 360.34 520.79 362.36 516.34 366.39C511.89 370.42 509.66 375.6 509.66 381.9C509.66 387.84 512.01 392.94 516.71 397.19C521.41 401.45 527.12 403.57 533.84 403.57C540.98 403.57 546.81 401.53 551.35 397.46C555.88 393.39 558.15 388.2 558.15 381.89L558.16 381.91Z" fill="black" stroke="black" style="fill:black;fill-opacity:1;stroke:black;stroke-opacity:1;" stroke-width="10" stroke-miterlimit="10"/>
<path d="M707.3 367.72C707.3 370.58 705.49 372.01 701.88 372.01C700.28 372.01 697.95 371.92 694.89 371.73C691.82 371.55 689.54 371.45 688.02 371.45C681.05 371.45 676.31 372.4 673.79 374.31C671.27 376.22 670.01 380.07 670.01 385.86C670.01 389.01 670.07 393.8 670.2 400.22C670.33 406.64 670.39 411.43 670.39 414.58C670.39 416.71 670.56 419.88 670.89 424.1C671.22 428.32 671.39 431.46 671.39 433.51C671.39 435.27 670 436.26 667.23 436.48C663.2 436.77 657.03 436.92 648.71 436.92C640.39 436.92 634.35 436.7 629.56 436.26C626.79 435.97 625.4 434.76 625.4 432.63C625.4 426.76 625.44 417.98 625.53 406.28C625.61 394.58 625.66 385.8 625.66 379.93C625.66 362.7 623.85 348.5 620.24 337.35C620.07 336.69 619.99 336.14 619.99 335.7C619.99 334.6 620.62 333.87 621.88 333.5C626.5 333.06 633.26 332.25 642.16 331.08C655.43 328.81 662.27 327.67 662.69 327.67C664.2 327.67 665.17 329.98 665.59 334.6C666.01 339.22 666.76 341.53 667.86 341.53C666.68 341.53 670.13 339.6 678.19 335.75C686.25 331.9 694.02 329.97 701.49 329.97C706.19 329.97 708.54 330.85 708.54 332.61C708.54 334.74 708.29 337.74 707.78 341.63C707.28 345.81 706.98 348.82 706.9 350.65C706.9 352.78 706.94 355.6 707.03 359.12C707.2 363.45 707.28 366.31 707.28 367.7L707.3 367.72Z" fill="black" stroke="black" style="fill:black;fill-opacity:1;stroke:black;stroke-opacity:1;" stroke-width="10" stroke-miterlimit="10"/>
<path d="M226.86 65.4102C263.25 96.4602 365.22 61.3402 409.42 53.6302C493.1 39.0302 577.78 25.8702 662.92 24.7402C669.74 24.6502 671.83 33.9702 665.62 36.8002L640.85 48.1102C640.65 48.2002 640.44 48.2802 640.23 48.3502C546.56 79.7202 452.74 110.71 367.33 161.05C345.96 173.64 287.26 208.31 278.89 229.08C264.9 263.77 297.1 289.3 291.85 318.41C282.63 369.49 203.13 278.03 178.77 278.31C158.33 278.55 110.85 333.76 88.42 334.33C45.11 335.43 83.04 265.29 88.38 243.78C94.95 217.29 98.64 217.86 77.87 198.73C63.03 185.06 11.87 158.81 10.16 140.9C5.74996 94.8802 106.89 126.41 126.95 111.98C141.26 101.68 153.51 16.8602 168.97 11.4602C204.43 1.08022 207.58 48.9502 226.88 65.4202L226.86 65.4102Z" fill="#0F0814" stroke="white" style="fill:#0F0814;fill:color(display-p3 0.0588 0.0314 0.0784);fill-opacity:1;stroke:white;stroke-opacity:1;" stroke-width="10" stroke-miterlimit="10"/>
<path d="M87.41 344.34C73.66 344.34 66.59 338.25 63.07 333.14C50.87 315.42 62.9 283.93 72.58 258.63C75.22 251.73 77.71 245.21 78.66 241.37C79.53 237.85 80.35 234.84 81.06 232.17C82.81 225.67 83.97 221.38 83.35 219.49C82.44 216.71 76.78 211.33 71.07 206.07C66.88 202.21 58.48 196.6 49.59 190.66C21.62 171.97 1.68998 157.52 0.189975 141.85C-0.720025 132.37 1.66998 124.42 7.28998 118.24C18.3 106.13 39.23 104.57 56.23 104.57C64.68 104.57 73.37 105 81.78 105.41C89.48 105.79 96.75 106.14 103.2 106.14C116.47 106.14 120.14 104.49 121.01 103.9C125.41 99.84 132.57 75.32 136.85 60.64C146.94 26.09 153.25 6.33 165.64 2.01L165.88 1.93L166.13 1.86C170.35 0.63 174.45 0 178.32 0C201.16 0 211.45 20.3 219.72 36.61C223.93 44.91 228.28 53.49 233.34 57.81C241.28 64.59 254.76 68.02 273.39 68.02C303.87 68.02 341.84 58.92 372.36 51.61C386.12 48.31 398.01 45.47 407.68 43.78C484.67 30.35 574.22 15.92 662.77 14.74H663C670.73 14.74 677.27 20.02 678.92 27.59C680.57 35.16 676.8 42.69 669.75 45.9L644.98 57.21C644.46 57.45 643.92 57.66 643.38 57.84L637.97 59.65C548.14 89.73 455.25 120.83 372.39 169.67C362.59 175.45 342.19 187.47 323.94 200.2C295.5 220.05 289.43 229.62 288.14 232.82C281.79 248.57 287.2 261.92 293.47 277.39C298.89 290.76 304.49 304.58 301.67 320.18C297.81 341.6 283.16 343.92 277.05 343.92C259.45 343.92 236.71 327.08 214.71 310.79C202.64 301.85 184.41 288.34 178.87 288.31C172.31 288.39 153.82 303.31 141.58 313.19C121.98 329.01 103.47 343.95 88.65 344.33C88.23 344.34 87.81 344.35 87.41 344.35V344.34Z" fill="#0F0814" style="fill:#0F0814;fill:color(display-p3 0.0588 0.0314 0.0784);fill-opacity:1;"/>
<path d="M226.86 65.4102C263.25 96.4602 365.22 61.3402 409.42 53.6302C493.1 39.0302 577.78 25.8702 662.92 24.7402C669.74 24.6502 671.83 33.9702 665.62 36.8002L640.85 48.1102C640.65 48.2002 640.44 48.2802 640.23 48.3502C546.56 79.7202 452.74 110.71 367.33 161.05C345.96 173.64 287.26 208.31 278.89 229.08C264.9 263.77 297.1 289.3 291.85 318.41C282.63 369.49 203.13 278.03 178.77 278.31C158.33 278.55 110.85 333.76 88.42 334.33C45.11 335.43 83.04 265.29 88.38 243.78C94.95 217.29 98.64 217.86 77.87 198.73C63.03 185.06 11.87 158.81 10.16 140.9C5.74996 94.8802 106.89 126.41 126.95 111.98C141.26 101.68 153.51 16.8602 168.97 11.4602C204.43 1.08022 207.58 48.9502 226.88 65.4202L226.86 65.4102Z" fill="black" style="fill:black;fill-opacity:1;"/>
<path d="M87.42 339.34C78.23 339.34 71.48 336.37 67.34 330.51C56.38 315.02 67.95 284.74 77.25 260.42C80.06 253.07 82.49 246.71 83.51 242.59C84.37 239.12 85.18 236.13 85.89 233.49C88.18 225 89.15 221.12 88.11 217.95C86.92 214.33 82.76 210.06 74.46 202.42C69.98 198.3 61.43 192.58 52.38 186.53C25.55 168.6 6.44997 154.87 5.15997 141.39C4.36997 133.14 6.45997 126.35 11.38 121.2C24.34 107.62 53.42 109.04 81.53 110.42C99.49 111.3 118.06 112.21 124 107.93C129.39 104.05 136.19 80.7701 141.65 62.0701C151 30.0601 157.24 10.2701 167.29 6.7601L167.54 6.6801C194.87 -1.3199 206.18 20.9701 215.26 38.8901C219.89 48.0301 224.27 56.6601 230.1 61.6301C256.84 84.4501 327.06 67.6301 373.54 56.4901C387.22 53.2101 399.04 50.3801 408.56 48.7201C485.36 35.3201 574.68 20.9301 662.85 19.7501C662.9 19.7501 662.96 19.7501 663.02 19.7501C668.43 19.7501 672.85 23.2801 674.04 28.5901C675.24 33.9501 672.7 39.0901 667.7 41.3701L642.93 52.6801C642.57 52.8501 642.2 52.9901 641.82 53.1201L636.43 54.9301C546.35 85.0901 453.19 116.28 369.87 165.39C317.74 196.11 288.69 218.18 283.53 230.98C276.43 248.6 282.47 263.51 288.86 279.3C294.01 292.01 299.33 305.15 296.78 319.33C295.05 328.89 290.87 335.06 284.33 337.65C268.07 344.1 242.46 325.14 217.7 306.81C202.85 295.81 186.03 283.35 178.9 283.35C178.88 283.35 178.85 283.35 178.83 283.35C170.54 283.45 153.5 297.2 138.46 309.34C119.54 324.61 101.67 339.04 88.54 339.37C88.17 339.37 87.79 339.38 87.43 339.38L87.42 339.34ZM56.56 119.59C40.26 119.59 25.14 121.24 18.61 128.08C15.75 131.08 14.6 135.11 15.11 140.42C16.05 150.22 41.25 167.06 57.93 178.2C67.72 184.74 76.18 190.4 81.23 195.05C100.42 212.73 100.88 216.29 95.54 236.08C94.84 238.67 94.05 241.62 93.21 244.98C92.04 249.7 89.51 256.32 86.58 263.98C79.03 283.74 67.62 313.59 75.49 324.73C77.79 327.98 81.98 329.46 88.27 329.32C98 329.07 116.15 314.43 132.16 301.51C150.82 286.45 166.93 273.44 178.7 273.3C178.75 273.3 178.81 273.3 178.86 273.3C189.32 273.3 205.23 285.09 223.64 298.72C244.08 313.86 269.52 332.71 280.63 328.3C283.73 327.07 285.85 323.44 286.92 317.51C288.96 306.19 284.4 294.93 279.58 283.01C273.04 266.86 265.63 248.57 274.24 227.2C282.35 207.09 329.8 177.35 364.78 156.74C449.01 107.1 542.66 75.7401 633.24 45.4101L638.63 43.6001C638.63 43.6001 638.72 43.5701 638.76 43.5501L663.53 32.2401C663.77 32.1301 664.5 31.8001 664.27 30.7501C664.04 29.7101 663.23 29.7101 662.98 29.7301C575.54 30.9001 486.69 45.2201 410.27 58.5501C401.06 60.1601 389.38 62.9501 375.86 66.1901C324.52 78.4801 254.22 95.3301 223.61 69.2101C216.26 62.9401 211.22 53.0001 206.34 43.3801C196.03 23.0401 188.45 11.0401 170.53 16.2001C169.97 16.4501 166.96 18.3401 161.99 31.1801C158.35 40.5801 154.75 52.9201 151.26 64.8501C143.03 93.0301 137.48 110.53 129.85 116.03C121.07 122.35 102.52 121.44 81.05 120.39C73.22 120.01 64.74 119.59 56.57 119.59H56.56Z" fill="white" style="fill:white;fill-opacity:1;"/>
<path d="M251.02 200.62C251.02 215.51 243.84 228.27 229.48 238.91C216.88 248.3 201.56 254.28 183.5 256.84C182.83 256.91 182.28 256.95 181.86 256.95C179.93 256.95 175.64 251.8 169.01 241.49C162.38 231.19 159.06 224.9 159.06 222.62C159.06 221.81 159.69 221.3 160.95 221.08C173.12 218.66 181.19 216.61 185.13 214.92C193.86 211.11 198.23 205.46 198.23 197.98C198.23 193.21 195.37 187.9 189.66 182.03C179.75 172.06 174.37 166.52 173.54 165.42C167.75 157.79 164.85 149.36 164.85 140.12C164.85 126.7 171.94 115.55 186.14 106.67C197.73 99.3398 211.96 94.5698 228.84 92.3698C229.76 92.2998 230.48 92.2598 230.98 92.2598C232.24 92.2598 233.25 93.1398 234 94.8998C236.18 100.26 241.26 109.94 249.24 123.94C249.49 124.38 249.62 124.75 249.62 125.04C249.62 126.29 248.86 126.91 247.35 126.91C246.68 126.91 245.54 126.8 243.95 126.58C242.35 126.36 241.14 126.25 240.3 126.25C234.25 126.25 228.96 127.46 224.43 129.88C218.97 132.67 216.24 136.56 216.24 141.54C216.24 146.01 219.26 151.52 225.31 158.04C235.97 169.78 241.56 175.94 242.06 176.52C248.02 184.59 251 192.62 251 200.61L251.02 200.62Z" fill="#FC6090" stroke="black" style="fill:#FC6090;fill:color(display-p3 0.9882 0.3765 0.5647);fill-opacity:1;stroke:black;stroke-opacity:1;" stroke-width="5" stroke-miterlimit="10"/>
<path d="M400.66 151.22C400.66 156.65 400.36 164.79 399.78 175.65C399.19 186.51 398.9 194.65 398.9 200.07C398.9 205.49 399.11 213.27 399.53 223.84C399.95 234.4 400.16 242.29 400.16 247.49C400.16 249.47 399.11 250.72 397.01 251.23C393.82 251.96 387.06 252.33 376.73 252.33C367.58 252.33 361.19 252.11 357.58 251.67C355.98 251.45 354.98 250.57 354.56 249.03C354.31 246.83 354.06 244.63 353.8 242.43C353.38 239.06 352.79 237.37 352.04 237.37C353.22 237.37 348.97 239.86 339.32 244.85C329.66 249.84 320.89 252.33 312.99 252.33C290.74 252.33 277.55 243.56 273.44 226.03C271.59 217.89 270.67 206.08 270.67 190.6C270.67 173.88 272.22 160.67 275.33 150.99C276.25 147.98 277.98 146.48 280.5 146.48C284.36 146.48 290.24 146.52 298.13 146.59C306.02 146.66 311.9 146.7 315.76 146.7C318.36 146.7 319.66 147.65 319.66 149.56C319.66 150.08 319.58 150.85 319.41 151.87C317.65 161.85 316.76 171.97 316.76 182.24C316.76 195 317.22 203.73 318.15 208.43C319.66 216.5 325.16 220.53 334.65 220.53C338.34 220.53 342.35 219.1 346.68 216.24C351 213.38 353.25 210.41 353.42 207.33C353.59 204.62 353.67 186.21 353.67 152.1C353.67 149.68 353.88 148.25 354.3 147.81C354.8 147.08 356.32 146.71 358.84 146.71C362.95 146.71 369.15 146.75 377.42 146.82C385.69 146.89 391.88 146.93 396 146.93C398.52 146.93 399.99 147.48 400.41 148.58C400.58 149.17 400.66 150.05 400.66 151.22Z" fill="#FC6090" stroke="black" style="fill:#FC6090;fill:color(display-p3 0.9882 0.3765 0.5647);fill-opacity:1;stroke:black;stroke-opacity:1;" stroke-width="5" stroke-miterlimit="10"/>
<path d="M560.38 198.31C560.38 214.01 555.09 227.02 544.51 237.37C533.59 248.08 519.27 253.43 501.56 253.43C495.09 253.43 488.17 252.04 480.78 249.25C473.39 246.46 470.03 245.07 470.7 245.07C469.61 245.07 469.06 246.17 469.06 248.37C469.06 252.11 469.27 257.74 469.69 265.26C470.11 272.78 470.32 278.41 470.32 282.15C470.32 284.5 468.93 285.67 466.16 285.67L440.46 285.78C434.67 285.78 430.93 285.6 429.25 285.23C426.73 284.72 425.47 283.36 425.47 281.16L425.72 196.44C425.72 179.35 424.25 164.94 421.31 153.2C421.14 152.47 421.06 151.84 421.06 151.33C421.06 150.23 421.56 149.5 422.57 149.13C425.84 148.03 432.1 146.86 441.34 145.61C450.33 144.36 456.83 143.74 460.86 143.74C464.14 143.74 466 145.63 466.47 149.41C466.93 153.19 467.5 155.08 468.17 155.08C467.33 155.08 470.92 153.08 478.94 149.08C486.96 145.08 494.24 143.08 500.79 143.08C519.01 143.08 533.58 148.32 544.5 158.81C555.08 168.93 560.37 182.1 560.37 198.31H560.38ZM513.65 198.09C513.65 192.22 511.59 187.09 507.48 182.69C503.03 178.07 497.53 175.76 490.98 175.76C484.43 175.76 478.89 178.07 474.86 182.69C471.33 186.87 469.57 192.01 469.57 198.09C469.57 204.17 471.42 209.5 475.11 213.6C479.06 218.07 484.51 220.31 491.49 220.31C506.27 220.31 513.66 212.9 513.66 198.09H513.65Z" fill="#FC6090" stroke="black" style="fill:#FC6090;fill:color(display-p3 0.9882 0.3765 0.5647);fill-opacity:1;stroke:black;stroke-opacity:1;" stroke-width="5" stroke-miterlimit="10"/>
<path d="M692.14 191.49C692.14 198.9 689.41 203.11 683.95 204.14C683.03 204.29 674.33 205.09 657.88 206.56C647.97 207.51 633.19 208.65 613.54 209.97C614.72 214.74 618.28 218.37 624.25 220.86C629.12 222.91 634.66 223.94 640.88 223.94C648.35 223.94 655.87 222.18 663.43 218.66C666.62 216.9 669.81 215.14 673 213.38C674.76 214.11 677.72 217.86 681.88 224.6C686.04 231.35 688.12 235.64 688.12 237.47C688.12 237.98 687.49 238.83 686.23 240C675.98 249.61 660.07 254.41 638.49 254.41C618.5 254.41 602.38 249.31 590.12 239.12C577.52 228.78 571.23 214.95 571.23 197.64C571.23 180.33 576.85 166.94 588.11 156.16C599.7 145.01 615.07 139.44 634.21 139.44C650.33 139.44 664.02 144.57 675.27 154.84C686.52 165.11 692.15 177.32 692.15 191.48L692.14 191.49ZM648.05 184.78C648.05 180.23 646.2 176.24 642.51 172.79C638.81 169.34 634.41 167.62 629.28 167.62C624.15 167.62 619.62 169.56 616.18 173.45C612.99 177.05 611.39 181.26 611.39 186.1C611.39 188.08 612.56 189.07 614.92 189.07C621.13 189.07 630.79 188.23 643.89 186.54C646.66 186.17 648.05 185.59 648.05 184.78Z" fill="#FC6090" stroke="black" style="fill:#FC6090;fill:color(display-p3 0.9882 0.3765 0.5647);fill-opacity:1;stroke:black;stroke-opacity:1;" stroke-width="5" stroke-miterlimit="10"/>
<path d="M789.51 182.69C789.51 185.55 787.7 186.98 784.09 186.98C782.49 186.98 780.16 186.89 777.1 186.7C774.03 186.52 771.75 186.42 770.23 186.42C763.26 186.42 758.52 187.38 756 189.28C753.48 191.19 752.22 195.04 752.22 200.83C752.22 203.98 752.28 208.77 752.41 215.19C752.54 221.61 752.6 226.4 752.6 229.55C752.6 231.68 752.77 234.85 753.1 239.07C753.43 243.29 753.6 246.42 753.6 248.48C753.6 250.24 752.21 251.23 749.44 251.45C745.41 251.74 739.24 251.89 730.92 251.89C722.6 251.89 716.56 251.67 711.77 251.23C709 250.94 707.61 249.73 707.61 247.6C707.61 241.73 707.65 232.95 707.74 221.25C707.82 209.55 707.87 200.77 707.87 194.9C707.87 177.66 706.06 163.47 702.45 152.32C702.28 151.66 702.2 151.11 702.2 150.67C702.2 149.57 702.83 148.84 704.09 148.47C708.71 148.03 715.47 147.22 724.37 146.05C737.64 143.78 744.48 142.64 744.9 142.64C746.41 142.64 747.38 144.95 747.8 149.57C748.22 154.19 748.98 156.5 750.07 156.5C748.89 156.5 752.34 154.58 760.4 150.72C768.46 146.87 776.23 144.94 783.7 144.94C788.4 144.94 790.75 145.82 790.75 147.58C790.75 149.71 790.5 152.71 789.99 156.6C789.49 160.78 789.19 163.79 789.11 165.62C789.11 167.75 789.15 170.57 789.23 174.09C789.4 178.42 789.48 181.28 789.48 182.67L789.51 182.69Z" fill="#FC6090" stroke="black" style="fill:#FC6090;fill:color(display-p3 0.9882 0.3765 0.5647);fill-opacity:1;stroke:black;stroke-opacity:1;" stroke-width="5" stroke-miterlimit="10"/>
<path d="M343.92 380.62C343.92 395.51 336.74 408.27 322.38 418.91C309.78 428.3 294.46 434.28 276.4 436.84C275.73 436.91 275.18 436.95 274.76 436.95C272.83 436.95 268.54 431.8 261.91 421.49C255.28 411.19 251.96 404.9 251.96 402.62C251.96 401.81 252.59 401.3 253.85 401.08C266.02 398.66 274.09 396.61 278.03 394.92C286.76 391.11 291.13 385.46 291.13 377.98C291.13 373.21 288.27 367.9 282.56 362.03C272.65 352.06 267.27 346.52 266.44 345.42C260.65 337.79 257.75 329.36 257.75 320.12C257.75 306.7 264.84 295.55 279.04 286.67C290.63 279.34 304.86 274.57 321.74 272.37C322.66 272.3 323.38 272.26 323.88 272.26C325.14 272.26 326.15 273.14 326.9 274.9C329.08 280.26 334.16 289.94 342.14 303.94C342.39 304.38 342.52 304.75 342.52 305.04C342.52 306.29 341.76 306.91 340.25 306.91C339.58 306.91 338.44 306.8 336.85 306.58C335.25 306.36 334.04 306.25 333.2 306.25C327.15 306.25 321.86 307.46 317.33 309.88C311.87 312.67 309.14 316.56 309.14 321.54C309.14 326.01 312.16 331.52 318.21 338.04C328.87 349.78 334.46 355.94 334.96 356.52C340.92 364.59 343.9 372.62 343.9 380.61L343.92 380.62Z" fill="#FC6090" stroke="black" style="fill:#FC6090;fill:color(display-p3 0.9882 0.3765 0.5647);fill-opacity:1;stroke:black;stroke-opacity:1;" stroke-width="5" stroke-miterlimit="10"/>
<path d="M448.21 399C448.21 401.2 447.89 404.54 447.27 409.01C446.64 413.48 446.32 416.77 446.32 418.86C446.32 420.95 446.07 422.29 445.56 422.88C445.06 423.47 443.67 424.31 441.4 425.41C430.57 430.62 418.56 433.22 405.37 433.22C381.1 433.22 368.97 425.12 368.97 408.91C368.97 404.07 369.18 396.79 369.6 387.07C370.02 377.35 370.23 370.07 370.23 365.23C370.23 362 368.09 360.39 363.81 360.39H362.17C361.41 360.46 360.87 360.5 360.53 360.5C357.34 360.5 355.74 359.51 355.74 357.53C355.74 356.36 355.84 354.56 356.05 352.14C356.26 349.72 356.37 347.92 356.37 346.75C356.37 345.21 356.26 342.86 356.05 339.71C355.84 336.56 355.74 334.21 355.74 332.67C355.74 331.13 358.43 330.4 363.8 330.25C366.82 330.18 368.46 329.45 368.71 328.05C369.21 325.26 369.38 320.86 369.21 314.85C368.87 305.39 368.71 300.88 368.71 301.32C368.71 292.81 369.63 288.56 371.48 288.56C373.75 288.56 376.98 289 381.18 289.88C385.97 290.84 389.28 291.38 391.13 291.53C395.41 292.04 401.88 292.74 410.53 293.62C412.63 293.77 413.68 294.39 413.68 295.49C413.68 298.42 413.41 302.86 412.86 308.8C412.31 314.74 412.04 319.22 412.04 322.22C412.04 325.82 413.26 327.61 415.69 327.61C418.63 327.61 423.08 327.5 429.04 327.28C435 327.06 439.5 326.95 442.52 326.95C444.37 326.95 445.29 327.5 445.29 328.6C445.29 330.29 445.08 332.82 444.66 336.19C444.24 339.57 444.03 342.1 444.03 343.78C444.03 345.46 444.07 348.11 444.16 351.48C444.24 354.86 444.29 357.42 444.29 359.18C444.29 360.72 443.07 361.49 440.64 361.49C438.96 361.49 436.15 361.44 432.2 361.33C428.25 361.22 425.44 361.16 423.76 361.16H414.31C413.05 361.16 412.42 362.78 412.42 366V373.81C412.5 377.33 412.55 379.93 412.55 381.62C412.55 387.78 413.35 392.04 414.94 394.38C417.21 397.54 421.66 399.11 428.29 399.11C430.39 399.11 433.39 398.69 437.3 397.84C441.2 397 443.95 396.57 445.55 396.57C447.31 396.57 448.2 397.38 448.2 398.99L448.21 399Z" fill="#FC6090" stroke="black" style="fill:#FC6090;fill:color(display-p3 0.9882 0.3765 0.5647);fill-opacity:1;stroke:black;stroke-opacity:1;" stroke-width="5" stroke-miterlimit="10"/>
<path d="M588.03 376.22C588.03 381.87 588.41 390.27 589.16 401.42C589.91 412.57 590.29 420.93 590.29 426.5C590.29 429.43 588.82 431.01 585.88 431.23C575.47 431.89 563.54 432.22 550.11 432.22C548.51 432.22 547.44 430.11 546.9 425.89C546.35 421.67 545.7 419.53 544.95 419.45C544.28 419.74 543.4 420.37 542.3 421.32C532.89 429.61 522.82 433.75 512.07 433.75C495.69 433.75 482.13 428.1 471.38 416.81C461.22 406.25 456.14 393.63 456.14 378.96C456.14 362.02 461.39 348.37 471.89 338.03C482.81 327.32 497.75 321.97 516.73 321.97C529.91 321.97 540.33 326 547.97 334.07C548.3 334.44 548.6 334.62 548.85 334.62C549.61 334.62 550.47 332.84 551.43 329.28C552.39 325.72 553.55 323.94 554.89 323.94C558 323.94 563.92 324.71 572.65 326.25C580.96 327.72 586.93 328.96 590.54 329.99C591.8 330.43 592.43 331.02 592.43 331.75C592.43 332.04 592.3 332.81 592.05 334.06C589.36 347.34 588.02 361.38 588.02 376.2L588.03 376.22ZM547.47 376.88C547.47 370.65 545.22 365.49 540.73 361.42C536.24 357.35 530.38 355.31 523.16 355.31C515.94 355.31 510.1 357.33 505.65 361.36C501.2 365.4 498.97 370.57 498.97 376.87C498.97 382.81 501.32 387.91 506.02 392.16C510.72 396.41 516.43 398.54 523.15 398.54C530.29 398.54 536.12 396.5 540.66 392.43C545.19 388.36 547.46 383.17 547.46 376.86L547.47 376.88Z" fill="#FC6090" stroke="black" style="fill:#FC6090;fill:color(display-p3 0.9882 0.3765 0.5647);fill-opacity:1;stroke:black;stroke-opacity:1;" stroke-width="5" stroke-miterlimit="10"/>
<path d="M696.61 362.69C696.61 365.55 694.8 366.98 691.19 366.98C689.59 366.98 687.26 366.89 684.2 366.7C681.13 366.52 678.85 366.42 677.33 366.42C670.36 366.42 665.62 367.38 663.1 369.28C660.58 371.19 659.32 375.04 659.32 380.83C659.32 383.98 659.38 388.77 659.51 395.19C659.64 401.61 659.7 406.4 659.7 409.55C659.7 411.68 659.87 414.85 660.2 419.07C660.53 423.29 660.7 426.42 660.7 428.48C660.7 430.24 659.31 431.23 656.54 431.45C652.51 431.74 646.34 431.89 638.02 431.89C629.7 431.89 623.66 431.67 618.87 431.23C616.1 430.94 614.71 429.73 614.71 427.6C614.71 421.73 614.75 412.95 614.84 401.25C614.92 389.55 614.97 380.77 614.97 374.9C614.97 357.66 613.16 343.47 609.55 332.32C609.38 331.66 609.3 331.11 609.3 330.67C609.3 329.57 609.93 328.84 611.19 328.47C615.81 328.03 622.57 327.22 631.47 326.05C644.74 323.78 651.58 322.64 652 322.64C653.51 322.64 654.48 324.95 654.9 329.57C655.32 334.19 656.07 336.5 657.17 336.5C655.99 336.5 659.44 334.58 667.5 330.72C675.56 326.86 683.33 324.94 690.8 324.94C695.5 324.94 697.85 325.82 697.85 327.58C697.85 329.71 697.6 332.71 697.09 336.6C696.59 340.78 696.29 343.79 696.21 345.62C696.21 347.75 696.25 350.57 696.34 354.09C696.51 358.42 696.59 361.28 696.59 362.67L696.61 362.69Z" fill="#FC6090" stroke="black" style="fill:#FC6090;fill:color(display-p3 0.9882 0.3765 0.5647);fill-opacity:1;stroke:black;stroke-opacity:1;" stroke-width="5" stroke-miterlimit="10"/>
</g>
<defs>
<clipPath id="clip0_2377_74">
<rect width="806.46" height="446.99" fill="white" style="fill:white;fill-opacity:1;"/>
</clipPath>
</defs>
</svg>
