<?xml version="1.0" encoding="UTF-8"?>
<svg id="Layer_2" data-name="Layer 2" xmlns="http://www.w3.org/2000/svg" xmlns:xlink="http://www.w3.org/1999/xlink" viewBox="0 0 323.02 571.88">
  <defs>
    <style>
      .cls-1, .cls-2 {
        fill: #4480d8;
      }

      .cls-1, .cls-3 {
        stroke: #ffc23b;
      }

      .cls-1, .cls-3, .cls-4 {
        stroke-linejoin: round;
        stroke-width: 9px;
      }

      .cls-1, .cls-3, .cls-4, .cls-5 {
        stroke-linecap: round;
      }

      .cls-6 {
        fill: #fff;
      }

      .cls-3, .cls-5 {
        fill: none;
      }

      .cls-4 {
        fill: #ffc23b;
        stroke: #6d0b0b;
      }

      .cls-5 {
        stroke: #af6a3c;
        stroke-miterlimit: 10;
        stroke-width: 8.27px;
      }

      .cls-7 {
        clip-path: url(#clippath);
      }
    </style>
    <clipPath id="clippath">
      <path class="cls-1" d="M269.49,208.09s17.09-71.29-55.5-89.19c0,0,12.69-42.63-15.19-59.54s-27.4,14.42-27.4,14.42c0,0-10.16-23.01-24.68-19.43s-9.68,27.22-9.68,27.22c0,0-20.01-18.67-34.93-17.28s-10.45,13.81-10.45,13.81c0,0-23.35-37.93,30.85-55.42,0,0-19.01-31.53-55.47,10.09,0,0-17.02-41.08-62.55-24.17,0,0,29.96,19.54,24.64,79.93S3.34,184.94,67.05,243.14s168.06,28.87,179.77,12.07,17.2-27.14,22.68-47.13Z"/>
    </clipPath>
  </defs>
  <g id="Layer_1-2" data-name="Layer 1">
    <g>
      <line class="cls-5" x1="318.89" y1="93.25" x2="208.69" y2="567.75"/>
      <g>
        <path class="cls-2" d="M269.49,208.09s17.09-71.29-55.5-89.19c0,0,12.69-42.63-15.19-59.54s-27.4,14.42-27.4,14.42c0,0-10.16-23.01-24.68-19.43s-9.68,27.22-9.68,27.22c0,0-20.01-18.67-34.93-17.28s-10.45,13.81-10.45,13.81c0,0-23.35-37.93,30.85-55.42,0,0-19.01-31.53-55.47,10.09,0,0-17.02-41.08-62.55-24.17,0,0,29.96,19.54,24.64,79.93S3.34,184.94,67.05,243.14s168.06,28.87,179.77,12.07,17.2-27.14,22.68-47.13Z"/>
        <g class="cls-7">
          <circle class="cls-6" cx="67.05" cy="217.06" r="20.98"/>
          <circle class="cls-6" cx="79.82" cy="249.11" r="20.98"/>
          <ellipse class="cls-6" cx="87.62" cy="138.44" rx="18.79" ry="18.35"/>
          <ellipse class="cls-6" cx="142.14" cy="139.88" rx="18.35" ry="10.15" transform="translate(-47.76 200.78) rotate(-62.32)"/>
          <circle class="cls-6" cx="115.43" cy="71.33" r="21.17"/>
          <path class="cls-3" d="M196.93,104.48s-34.63,2.68-57.71,57.66,1,93.08,1,93.08"/>
          <path class="cls-3" d="M208.11,67.57s-37.29-2.48-34.78,41.17c0,0-1.51-20.57-17.06-9.03s.47,26.56.47,26.56"/>
          <path class="cls-3" d="M151.21,118.54s-37.08,3.67-16.51,43.59c0,0-41.13-4.72-33.99,24.89s27.77,25.54,27.77,25.54"/>
          <path class="cls-3" d="M102.51,193.06s-36.75-5.96-9.68,44.67"/>
          <path class="cls-3" d="M126.91,220.59s-42.87-5.97-25.7,42.7"/>
          <path class="cls-3" d="M137.87,85.25s-32.41,6.27-17.17,45.87"/>
          <path class="cls-3" d="M130.02,132.63s-37.53-6.46-30.41,39.31"/>
          <path class="cls-3" d="M83.49,197.55s-23.75-19.68-39.8,20.67"/>
          <path class="cls-3" d="M119.1,90.98s-19.49-13.09-26.99,5.27,14.3,39.26,14.3,39.26"/>
          <path class="cls-3" d="M96.66,123.1s-16.99-7.61-25.38,8.79,27.44,29.7,27.44,29.7"/>
          <path class="cls-3" d="M75.03,151.28s-34.48,9.24-16.39,40.63"/>
          <path class="cls-3" d="M71.28,131.89s-31.51-12.32-32.18,12.68,10.53,27.37,10.53,27.37"/>
          <path class="cls-3" d="M39.1,144.57s-15.36-17.5-21.32,3.75"/>
          <path class="cls-3" d="M63.3,92.9c-1.19-21.1,22.7-19.18,22.7-19.18"/>
          <path class="cls-3" d="M86.48,97.22s-37.28-27.26-28.04,31.32"/>
          <path class="cls-3" d="M62.36,81.55s-19.15-24.76-34.58-13.06"/>
          <circle cx="214.92" cy="186.04" r="9.05"/>
          <ellipse class="cls-4" cx="261.77" cy="239.79" rx="31.71" ry="14.95" transform="translate(-48.68 411.97) rotate(-71.5)"/>
        </g>
        <path class="cls-3" d="M269.49,208.09s17.09-71.29-55.5-89.19c0,0,12.69-42.63-15.19-59.54s-27.4,14.42-27.4,14.42c0,0-10.16-23.01-24.68-19.43s-9.68,27.22-9.68,27.22c0,0-20.01-18.67-34.93-17.28s-10.45,13.81-10.45,13.81c0,0-23.35-37.93,30.85-55.42,0,0-19.01-31.53-55.47,10.09,0,0-17.02-41.08-62.55-24.17,0,0,29.96,19.54,24.64,79.93S3.34,184.94,67.05,243.14s168.06,28.87,179.77,12.07,17.2-27.14,22.68-47.13Z"/>
      </g>
      <path class="cls-5" d="M285.15,216.92l-16.78-3.92c-8.69-2.03-17.37,3.36-19.41,12.05l-3.92,16.78c-2.03,8.69,3.36,17.37,12.05,19.41l16.78,3.92"/>
    </g>
  </g>
</svg>