<?xml version="1.0" encoding="UTF-8"?>
<svg id="_레이어_1" data-name="레이어 1" xmlns="http://www.w3.org/2000/svg" viewBox="0 0 297.23 85.99">
  <defs>
    <style>
      .cls-1 {
        fill: #a61f26;
      }

      .cls-2 {
        fill: #fff;
      }
    </style>
  </defs>
  <g>
    <path class="cls-1" d="M33.18,78.15c-1.38,0-2.5-1.12-2.5-2.5v-24.73L9.97,13.6c-.43-.77-.42-1.72.03-2.48.45-.76,1.27-1.23,2.15-1.23h6.48c.91,0,1.74.49,2.19,1.29l15.73,28.32,15.57-28.32c.44-.8,1.28-1.3,2.19-1.3h6.03c1.38,0,2.5,1.12,2.5,2.5,0,.46-.13.91-.37,1.31l-20.66,37.23v24.73c0,1.38-1.12,2.5-2.5,2.5h-6.12Z"/>
    <path class="cls-2" d="M60.34,10.38c1.1,0,2,.9,2,2,0,.38-.11.74-.3,1.05l-20.74,37.36v24.86c0,1.1-.9,2-2,2h-6.12c-1.1,0-2-.9-2-2v-24.86L10.41,13.35c-.34-.62-.33-1.37.03-1.99.36-.61,1.02-.99,1.72-.99h6.48c.73,0,1.4.39,1.75,1.03l16.17,29.12,16-29.11c.35-.64,1.02-1.04,1.75-1.04h6.04M60.34,9.38h-6.04c-1.09,0-2.1.6-2.63,1.55l-15.13,27.52-15.29-27.53c-.53-.95-1.53-1.54-2.62-1.54h-6.48c-1.06,0-2.05.57-2.59,1.48-.54.91-.55,2.05-.04,2.98l20.65,37.21v24.6c0,1.65,1.35,3,3,3h6.12c1.65,0,3-1.35,3-3v-24.6L62.92,13.91c.27-.43.42-.98.42-1.53,0-1.65-1.34-3-3-3h0Z"/>
  </g>
  <g>
    <path class="cls-1" d="M110.29,78.15c-1.04,0-1.98-.65-2.34-1.63l-6.58-17.71h-22.78l-6.5,17.7c-.36.98-1.3,1.64-2.35,1.64h-5.86c-.82,0-1.58-.4-2.05-1.07-.47-.67-.58-1.53-.29-2.3l23.42-63.27c.36-.98,1.3-1.63,2.34-1.63h6.03c1.04,0,1.98.66,2.35,1.64l23.34,63.26c.28.77.17,1.62-.29,2.29-.47.67-1.23,1.07-2.05,1.07h-6.39ZM97.66,48.57l-7.7-21.02-7.76,21.02h15.46Z"/>
    <path class="cls-2" d="M93.34,10.38c.84,0,1.59.52,1.88,1.31l23.34,63.26c.23.61.14,1.3-.24,1.84-.37.54-.99.86-1.64.86h-6.39c-.84,0-1.58-.52-1.87-1.3l-6.7-18.04h-23.48l-6.62,18.03c-.29.79-1.04,1.31-1.88,1.31h-5.86c-.65,0-1.27-.32-1.64-.86-.37-.54-.46-1.22-.23-1.84l23.42-63.26c.29-.78,1.04-1.31,1.88-1.31h6.03M81.48,49.07h16.89l-8.41-22.97-8.48,22.97M93.34,9.38h-6.03c-1.25,0-2.38.79-2.81,1.96l-23.42,63.26c-.34.92-.21,1.95.35,2.76.56.81,1.48,1.29,2.46,1.29h5.86c1.25,0,2.38-.79,2.82-1.97l6.38-17.38h22.08l6.46,17.39c.43,1.17,1.56,1.96,2.81,1.96h6.39c.98,0,1.9-.48,2.46-1.28.56-.8.69-1.83.35-2.75l-23.34-63.26c-.43-1.17-1.56-1.96-2.81-1.96h0ZM82.92,48.07l7.04-19.07,6.99,19.07h-14.03Z"/>
  </g>
  <g>
    <path class="cls-1" d="M135.93,78.15c-1.38,0-2.5-1.12-2.5-2.5V20.03h-17.46c-1.38,0-2.5-1.12-2.5-2.5v-5.15c0-1.38,1.12-2.5,2.5-2.5h46.14c1.38,0,2.5,1.12,2.5,2.5v5.15c0,1.38-1.12,2.5-2.5,2.5h-17.55v55.62c0,1.38-1.12,2.5-2.5,2.5h-6.12Z"/>
    <path class="cls-2" d="M162.11,10.38c1.1,0,2,.9,2,2v5.15c0,1.1-.9,2-2,2h-18.05v56.12c0,1.1-.9,2-2,2h-6.12c-1.1,0-2-.9-2-2V19.53h-17.96c-1.1,0-2-.9-2-2v-5.15c0-1.1.9-2,2-2h46.14M162.11,9.38h-46.14c-1.65,0-3,1.35-3,3v5.15c0,1.65,1.35,3,3,3h16.96v55.12c0,1.65,1.35,3,3,3h6.12c1.65,0,3-1.35,3-3V20.53h17.05c1.65,0,3-1.35,3-3v-5.15c0-1.65-1.35-3-3-3h0Z"/>
  </g>
  <g>
    <path class="cls-1" d="M188.72,78.15c-1.38,0-2.5-1.12-2.5-2.5V20.03h-17.46c-1.38,0-2.5-1.12-2.5-2.5v-5.15c0-1.38,1.12-2.5,2.5-2.5h46.14c1.38,0,2.5,1.12,2.5,2.5v5.15c0,1.38-1.12,2.5-2.5,2.5h-17.55v55.62c0,1.38-1.12,2.5-2.5,2.5h-6.12Z"/>
    <path class="cls-2" d="M214.9,10.38c1.1,0,2,.9,2,2v5.15c0,1.1-.9,2-2,2h-18.05v56.12c0,1.1-.9,2-2,2h-6.12c-1.1,0-2-.9-2-2V19.53h-17.96c-1.1,0-2-.9-2-2v-5.15c0-1.1.9-2,2-2h46.14M214.9,9.38h-46.14c-1.65,0-3,1.35-3,3v5.15c0,1.65,1.35,3,3,3h16.96v55.12c0,1.65,1.35,3,3,3h6.12c1.65,0,3-1.35,3-3V20.53h17.05c1.65,0,3-1.35,3-3v-5.15c0-1.65-1.35-3-3-3h0Z"/>
  </g>
  <g>
    <path class="cls-1" d="M260.59,78.15c-1.04,0-1.98-.65-2.34-1.63l-6.58-17.71h-22.78l-6.5,17.7c-.36.98-1.3,1.64-2.35,1.64h-5.86c-.82,0-1.58-.4-2.05-1.07-.47-.67-.58-1.53-.29-2.3l23.42-63.26c.36-.98,1.3-1.63,2.34-1.63h6.03c1.04,0,1.99.66,2.35,1.64l23.34,63.26c.28.77.17,1.62-.29,2.29-.47.67-1.23,1.07-2.05,1.07h-6.39ZM247.96,48.57l-7.7-21.02-7.76,21.02h15.46Z"/>
    <path class="cls-2" d="M243.64,10.38c.84,0,1.59.52,1.88,1.31l23.34,63.26c.23.61.14,1.3-.24,1.84-.37.54-.99.86-1.64.86h-6.39c-.84,0-1.58-.52-1.87-1.3l-6.7-18.04h-23.48l-6.62,18.03c-.29.79-1.04,1.31-1.88,1.31h-5.86c-.65,0-1.27-.32-1.64-.86-.37-.54-.46-1.22-.23-1.84l23.42-63.26c.29-.78,1.04-1.31,1.88-1.31h6.03M231.79,49.07h16.89l-8.41-22.97-8.48,22.97M243.64,9.38h-6.03c-1.25,0-2.38.79-2.81,1.96l-23.42,63.26c-.34.92-.21,1.95.35,2.76.56.81,1.48,1.29,2.46,1.29h5.86c1.25,0,2.38-.79,2.82-1.97l6.38-17.38h22.08l6.46,17.39c.43,1.17,1.56,1.96,2.81,1.96h6.39c.98,0,1.9-.48,2.46-1.28.56-.8.69-1.83.35-2.75l-23.34-63.26c-.43-1.17-1.56-1.96-2.81-1.96h0ZM233.22,48.07l7.04-19.07,6.99,19.07h-14.03Z"/>
  </g>
  <g>
    <path class="cls-1" d="M279.05,64.93c-1.37,0-2.47-1.07-2.5-2.44l-1.33-53.68c-.02-.67.24-1.33.71-1.81.47-.48,1.12-.75,1.79-.75h7.36c.67,0,1.33.28,1.8.76.47.48.72,1.15.7,1.82l-1.69,53.68c-.04,1.36-1.14,2.42-2.5,2.42h-4.35Z"/>
    <path class="cls-2" d="M285.08,6.74c.54,0,1.06.22,1.44.61.38.39.58.91.56,1.45l-1.69,53.68c-.03,1.08-.92,1.94-2,1.94h-4.35c-1.09,0-1.97-.87-2-1.95l-1.33-53.68c-.01-.54.19-1.06.57-1.45.38-.39.89-.6,1.43-.6h7.36M285.08,5.74h-7.36c-.8,0-1.59.33-2.15.91-.56.58-.87,1.37-.85,2.17l1.33,53.68c.04,1.64,1.36,2.93,3,2.93h4.35c1.63,0,2.95-1.28,3-2.91l1.69-53.68c.03-.81-.28-1.6-.84-2.18-.56-.58-1.35-.91-2.15-.91h0Z"/>
  </g>
  <g>
    <rect class="cls-1" x="275.21" y="67.11" width="11.83" height="12.63" rx="2.5" ry="2.5"/>
    <path class="cls-2" d="M284.55,67.61c1.1,0,2,.9,2,2v7.63c0,1.1-.9,2-2,2h-6.83c-1.1,0-2-.9-2-2v-7.63c0-1.1.9-2,2-2h6.83M284.55,66.61h-6.83c-1.65,0-3,1.35-3,3v7.63c0,1.65,1.35,3,3,3h6.83c1.65,0,3-1.35,3-3v-7.63c0-1.65-1.35-3-3-3h0Z"/>
  </g>
</svg>