<svg width="245" height="194" viewBox="0 0 245 194" fill="none" xmlns="http://www.w3.org/2000/svg">
<path d="M126.856 149.406C126.856 149.406 241.061 154.709 241.811 93.455C242.561 32.2012 180.557 3.46252 110.224 2.71258C39.8901 1.96264 -0.177959 51.1104 2.84857 88.1787C5.87511 125.247 47.4698 163.038 108.724 154.736C108.724 154.736 117.803 176.671 133.686 188.001C149.568 199.33 134.436 180.448 126.883 149.433L126.856 149.406Z" fill="white" style="fill:white;fill-opacity:1;"/>
<path d="M139.819 194C137.703 194 135.105 192.312 132.106 190.17C118.366 180.367 109.688 163.333 107.063 157.628C76.8513 161.271 48.8626 154.119 28.0786 137.38C11.821 124.309 1.64335 106.445 0.170261 88.366C-1.27605 70.5282 6.54467 51.003 21.6238 34.799C42.8898 11.9795 74.3604 -0.341002 110.25 0.00718274C158.702 0.516069 199.654 14.256 222.553 37.6915C237.391 52.8778 244.757 71.6262 244.489 93.4547C244.328 106.177 239.507 117.131 230.106 125.97C202.841 151.655 145.417 152.405 130.338 152.164C133.204 162.824 136.819 171.796 139.551 178.546C143.247 187.706 144.64 191.134 141.989 193.223C141.319 193.732 140.623 193.973 139.819 193.973V194ZM108.697 152.03C109.768 152.03 110.759 152.673 111.161 153.691C111.241 153.905 120.16 175.064 135.212 185.804C135.962 186.34 136.578 186.768 137.114 187.117C136.444 185.242 135.48 182.831 134.57 180.581C131.516 173.002 127.311 162.61 124.258 150.048C124.071 149.218 124.258 148.361 124.794 147.718C125.329 147.075 126.106 146.7 126.99 146.754C127.686 146.781 197.243 149.646 226.464 122.113C234.74 114.292 238.999 104.65 239.159 93.4279C239.4 73.0725 232.544 55.583 218.75 41.4681C196.841 19.0503 157.282 5.89957 110.224 5.39069C63.9417 4.8818 37.2921 25.9069 25.5609 38.4684C11.7139 53.3332 4.21457 71.8405 5.52696 87.9374C6.89291 104.543 16.3207 121.042 31.4533 133.201C51.5409 149.352 78.8601 156.048 108.375 152.057C108.509 152.057 108.616 152.057 108.75 152.057L108.697 152.03Z" fill="black" style="fill:black;fill-opacity:1;"/>
<path d="M58.4147 68.8677C58.4147 59.2912 65.2065 53.0428 75.1225 53.0428C85.1064 53.0428 91.6265 59.2912 91.6265 68.8677C91.6265 78.7837 85.1064 84.7605 75.1225 84.7605C65.2065 84.7605 58.4147 78.7837 58.4147 68.8677ZM67.8553 106.019V93.9973C67.8553 91.9598 69.4853 90.6014 72.202 90.6014C74.9187 90.6014 76.5488 91.9598 76.5488 93.9973V103.71C76.5488 105 77.2279 105.475 78.6542 105.475H105.414C107.519 105.475 108.878 106.562 108.878 109.347C108.878 112.131 107.519 113.218 105.414 113.218H76.0733C71.3191 113.218 67.8553 111.384 67.8553 106.019ZM98.8938 91.9598V55.0124C98.8938 52.9749 100.252 51.6165 102.969 51.6165C105.686 51.6165 107.044 52.9749 107.044 55.0124V66.8301H112.409C114.515 66.8301 115.873 67.9847 115.873 70.7694C115.873 73.554 114.515 74.7086 112.409 74.7086H107.044V91.9598C107.044 93.9973 105.686 95.3557 102.969 95.3557C100.252 95.3557 98.8938 93.9973 98.8938 91.9598ZM83.4764 68.8677C83.4764 63.638 79.8767 60.5138 75.1225 60.5138C70.3682 60.5138 66.7007 63.638 66.7007 68.8677C66.7007 74.0973 70.3682 77.2895 75.1225 77.2895C79.8767 77.2895 83.4764 74.0973 83.4764 68.8677ZM132.779 100.449C132.779 91.8918 139.232 86.3226 152.679 86.3226C165.516 86.3226 172.511 91.8918 172.511 100.449C172.511 109.211 165.448 114.78 152.679 114.78C139.232 114.78 132.779 109.211 132.779 100.449ZM123.814 76.6782V57.3216C123.814 55.352 125.241 53.9257 127.957 53.9257C130.742 53.9257 132.168 55.4199 132.168 57.3216V72.9427C132.168 74.6407 132.779 75.7953 135.089 75.7953C140.726 75.7953 147.11 74.9803 152.34 73.0786V72.4673C152.34 69.6827 153.698 68.5281 155.804 68.5281H164.497V64.9284H155.804C153.698 64.9284 152.34 63.7738 152.34 60.9892C152.34 58.2045 153.698 57.0499 155.804 57.0499H164.497V55.0124C164.497 52.9749 165.856 51.6165 168.572 51.6165C171.289 51.6165 172.647 52.9749 172.647 55.0124V81.7721C172.647 83.8096 171.289 85.168 168.572 85.168C165.856 85.168 164.497 83.8096 164.497 81.7721V76.4065H156.89V76.6782C156.89 78.9874 156.143 80.0062 153.902 80.8212C147.925 82.9267 139.096 83.8775 133.187 83.8775C127.821 83.8775 123.814 82.1117 123.814 76.6782ZM141.269 100.449C141.269 104.864 145.208 106.97 152.679 106.97C160.218 106.97 164.09 104.932 164.09 100.449C164.09 96.0348 160.218 93.9294 152.679 93.9294C145.208 93.9294 141.269 96.0348 141.269 100.449Z" fill="black" style="fill:black;fill-opacity:1;"/>
</svg>
