<svg width="159" height="117" viewBox="0 0 159 117" fill="none" xmlns="http://www.w3.org/2000/svg">
<path d="M120.72 1.80025C120.72 1.80025 39.4296 -2.75977 0.999634 9.71023C0.999634 9.71023 9.44961 50.3802 22.4096 83.4802C31.2896 106.14 55.2496 119.08 79.1096 114.29C105.09 109.07 150.93 99.4402 157.98 93.8502C157.98 93.8502 120.14 56.5803 120.71 1.80025H120.72Z" fill="#FFDFDF" style="fill:#FFDFDF;fill:color(display-p3 1.0000 0.8745 0.8745);fill-opacity:1;"/>
<path d="M69.0897 116.29C48.3497 116.29 29.2696 103.73 21.4796 83.8502C8.62964 51.0502 0.0996753 10.3202 0.0196753 9.92022C-0.0803247 9.42022 0.209658 8.9202 0.689658 8.7702C20.6597 2.2902 52.2597 0.480205 75.2497 0.0902047C100.13 -0.319795 120.57 0.800237 120.77 0.810237C121.3 0.840236 121.72 1.28019 121.71 1.82019C121.16 55.5502 158.31 92.7702 158.68 93.1402C158.88 93.3402 158.99 93.6202 158.98 93.9102C158.97 94.2002 158.83 94.4602 158.6 94.6402C153.26 98.8702 127.32 105.62 79.2996 115.27C75.8796 115.96 72.4597 116.29 69.0797 116.29H69.0897ZM2.16964 10.3902C3.48964 16.5102 11.6096 53.1502 23.3496 83.1202C32.0596 105.34 55.4296 118.04 78.9196 113.31C123.59 104.33 149.64 97.7302 156.45 93.6902C150.88 87.7602 119.61 52.2502 119.72 2.75024C115.42 2.54024 97.0497 1.71019 75.2797 2.08019C43.0997 2.62019 17.8596 5.49018 2.17965 10.3802L2.16964 10.3902Z" fill="black" style="fill:black;fill-opacity:1;"/>
<path d="M69.0396 116.49C68.6196 116.49 68.2297 116.22 68.0897 115.8C68.0297 115.6 61.4997 96.1802 52.0897 93.3802C42.4697 90.5202 28.6697 94.5203 28.5297 94.5603C27.9997 94.7203 27.4496 94.4102 27.2896 93.8802C27.1296 93.3502 27.4396 92.7902 27.9696 92.6402C28.5596 92.4702 42.4696 88.4302 52.6596 91.4602C63.0696 94.5502 69.7096 114.33 69.9896 115.17C70.1596 115.69 69.8796 116.26 69.3496 116.43C69.2496 116.46 69.1396 116.48 69.0396 116.48V116.49Z" fill="black" style="fill:black;fill-opacity:1;"/>
</svg>
