<svg width="295" height="164" viewBox="0 0 295 164" fill="none" xmlns="http://www.w3.org/2000/svg">
<path d="M51.5578 11.1248C51.5578 11.1248 70.9679 25.2526 99.2078 25.2526C127.448 25.2526 146.28 2.31055 146.28 2.31055C146.28 2.31055 163.345 21.7206 193.351 27.0185C223.357 32.3164 255.129 22.3146 255.129 22.3146C255.129 22.3146 255.723 47.0225 265.725 60.5564C275.727 74.0903 293.371 91.7344 293.371 91.7344C293.371 91.7344 276.305 104.674 273.367 116.442C270.429 128.21 273.961 142.323 273.961 142.323C273.961 142.323 265.725 135.852 237.485 141.15C209.245 146.448 204.541 161.154 204.541 161.154C204.541 161.154 190.413 148.214 161.595 147.62C132.777 147.027 115.117 161.748 115.117 161.748C115.117 161.748 97.4731 148.214 77.4692 141.744C57.4652 135.274 28.0532 149.98 28.0532 149.98C28.0532 149.98 28.0532 117.615 22.177 109.379C16.3008 101.143 1.57921 82.9045 1.57921 82.9045C1.57921 82.9045 31.882 72.6056 39.5242 54.9615C47.1663 37.3174 51.5891 11.1248 51.5891 11.1248H51.5578Z" fill="white" style="fill:white;fill-opacity:1;"/>
<path d="M115.102 163.312C114.773 163.312 114.43 163.203 114.148 162.984C113.976 162.843 96.4729 149.544 76.9691 143.23C57.8091 137.026 29.0221 151.232 28.7252 151.372C28.2407 151.607 27.6625 151.591 27.2093 151.31C26.756 151.029 26.4747 150.528 26.4747 149.981C26.4747 141.12 25.4746 116.709 20.8799 110.286C15.0975 102.175 0.485243 84.0622 0.34459 83.8903C0.0164005 83.4996 -0.0773565 82.9683 0.0632962 82.4682C0.203949 81.9837 0.579046 81.593 1.06352 81.4211C1.36045 81.3273 30.8037 71.1378 38.0864 54.3377C45.5723 37.0686 49.995 11.126 50.0418 10.8604C50.1356 10.329 50.4951 9.87578 50.9952 9.67261C51.4953 9.46945 52.0735 9.53195 52.5111 9.86014C52.6986 10.0008 71.89 23.6754 99.2547 23.6754C126.619 23.6754 144.936 1.53041 145.123 1.29599C145.42 0.93654 145.842 0.733398 146.311 0.733398C146.811 0.749027 147.202 0.920882 147.514 1.2647C147.686 1.45224 164.611 20.3309 193.68 25.4726C222.951 30.6455 254.395 20.9092 254.723 20.8154C255.192 20.6748 255.707 20.7529 256.098 21.0343C256.504 21.3156 256.739 21.7844 256.754 22.2688C256.754 22.5033 257.458 46.6487 267.038 59.62C276.852 72.9038 294.356 90.4541 294.543 90.626C294.856 90.9386 295.028 91.3918 294.996 91.8294C294.965 92.2826 294.746 92.6889 294.387 92.9702C294.215 93.0952 277.727 105.723 274.961 116.819C272.148 128.071 275.508 141.808 275.555 141.949C275.711 142.605 275.446 143.277 274.883 143.636C274.32 143.996 273.586 143.965 273.07 143.558C273.008 143.511 264.725 137.651 237.844 142.683C211.027 147.715 206.135 161.499 206.088 161.64C205.916 162.14 205.51 162.531 204.994 162.656C204.479 162.781 203.932 162.656 203.541 162.296C203.4 162.171 189.429 149.747 161.611 149.169C133.73 148.591 116.336 162.781 116.164 162.921C115.867 163.156 115.524 163.281 115.164 163.281L115.102 163.312ZM65.8575 138.526C70.0301 138.526 74.1247 139.026 77.9224 140.261C95.5352 145.965 111.07 156.858 115.07 159.796C119.212 156.702 135.996 145.59 161.595 146.074C185.49 146.559 199.399 155.295 203.932 158.686C206.323 154.295 214.262 143.918 237.172 139.62C256.864 135.932 267.147 137.885 271.773 139.558C270.882 134.635 269.648 124.805 271.836 116.069C274.399 105.801 286.792 95.0331 291.011 91.5949C286.807 87.3129 272.867 72.8882 264.443 61.4797C255.832 49.8368 254.004 30.6299 253.644 24.363C246.237 26.4103 218.872 33.1147 193.07 28.5513C167.034 23.9567 150.765 9.14129 146.311 4.62477C141.716 9.64139 124.197 26.8166 99.2078 26.8166C75.7032 26.8166 58.4029 17.3616 52.6674 13.7515C51.3702 20.6279 47.2288 41.0538 40.9307 55.5879C34.195 71.1222 11.253 80.921 4.12661 83.6403C7.92423 88.3756 18.6138 101.784 23.4116 108.489C28.6002 115.756 29.4285 139.714 29.5691 147.543C35.3202 144.949 50.9952 138.542 65.8731 138.542L65.8575 138.526Z" fill="black" style="fill:black;fill-opacity:1;"/>
<path d="M83.1221 83.8946C83.1221 70.044 88.0368 63.9804 96.7173 63.9804C102.526 63.9804 106.547 66.6612 108.589 72.5971H114.589V63.406C114.589 61.4912 115.738 60.2146 118.291 60.2146C120.844 60.2146 122.057 61.4912 122.057 63.406V109.681C122.057 111.596 120.844 112.872 118.291 112.872C115.738 112.872 114.589 111.596 114.589 109.681V95.3197H108.653C106.611 101.383 102.589 103.873 96.7173 103.873C88.0368 103.873 83.1221 98.3196 83.1221 83.8946ZM126.333 110.574V63.023C126.333 61.1082 127.546 59.8317 130.099 59.8317C132.652 59.8317 133.865 61.1082 133.865 63.023V110.574C133.865 112.489 132.652 113.766 130.099 113.766C127.546 113.766 126.333 112.489 126.333 110.574ZM102.526 83.8946C102.526 75.597 101.185 71.5759 96.7173 71.5759C92.2494 71.5759 90.8452 75.597 90.8452 83.8946C90.8452 92.1922 92.2494 96.2771 96.7173 96.2771C101.185 96.2771 102.526 92.1922 102.526 83.8946ZM110.121 83.8946C110.121 85.2988 110.057 86.6392 109.993 87.8519H114.589V80.065H109.993C110.057 81.2777 110.121 82.5542 110.121 83.8946ZM167.399 76.8098V66.5974C167.399 64.6825 168.548 63.406 171.101 63.406C173.654 63.406 174.803 64.6825 174.803 66.5974V101.128C174.803 103.17 173.463 104.575 171.038 104.575H151.953C146.209 104.575 142.379 101.575 142.379 95.8303V66.5974C142.379 64.6825 143.528 63.406 146.081 63.406C148.634 63.406 149.847 64.6825 149.847 66.5974V76.8098H155.145V68.0016C155.145 66.0868 156.23 64.8102 158.783 64.8102C161.336 64.8102 162.421 66.0868 162.421 68.0016V76.8098H167.399ZM182.973 86.6392H178.824C176.846 86.6392 175.569 85.1711 175.569 82.5542C175.569 79.9373 176.846 78.4693 178.824 78.4693H182.973V63.023C182.973 61.1082 184.25 59.8317 186.803 59.8317C189.356 59.8317 190.633 61.1082 190.633 63.023V110.574C190.633 112.489 189.356 113.766 186.803 113.766C184.25 113.766 182.973 112.489 182.973 110.574V86.6392ZM152.464 97.043H155.145V84.469H149.847V94.2346C149.847 95.8303 150.613 96.9154 152.464 97.043ZM162.421 84.469V97.043H167.399V84.469H162.421ZM211.848 67.2356L210.508 96.2133C210.38 98.4472 209.487 99.7238 206.934 99.7238C204.381 99.7238 203.423 98.4472 203.296 96.2133L202.019 67.2356C201.891 63.9166 203.104 61.8103 206.934 61.8103C210.763 61.8103 211.976 63.9166 211.848 67.2356ZM201.381 109.298C201.381 105.787 203.934 103.745 206.934 103.745C209.934 103.745 212.487 105.787 212.487 109.298C212.487 112.936 209.934 114.851 206.934 114.851C203.934 114.851 201.381 112.936 201.381 109.298Z" fill="black" style="fill:black;fill-opacity:1;"/>
</svg>
