<svg width="220" height="193" viewBox="0 0 220 193" fill="none" xmlns="http://www.w3.org/2000/svg">
<path d="M20.1402 62.2508C20.1402 62.2508 16.5296 51.7225 22.249 39.3889C27.9685 27.0553 42.0914 29.4677 42.0914 29.4677C42.0914 29.4677 38.7843 16.8306 54.7285 8.4112C70.6727 -0.008219 82.9903 11.4147 82.9903 11.4147C82.9903 11.4147 88.7097 -0.615312 104.047 2.99529C119.384 6.6059 127.5 13.22 127.5 13.22C127.5 13.22 137.117 3.88996 152.758 8.10766C168.399 12.3254 173.511 28.2536 173.511 28.2536C173.511 28.2536 186.436 25.8412 193.96 37.5836C201.485 49.3261 198.769 69.1524 198.769 69.1524C198.769 69.1524 219.826 77.5719 217.413 100.721C215.001 123.871 205.991 122.369 205.991 122.369C205.991 122.369 209.298 137.099 192.459 144.927C175.62 152.756 160.283 141.924 160.283 141.924C160.283 141.924 144.642 152.756 127.803 150.95C110.964 149.145 100.74 141.333 100.74 141.333C100.74 141.333 92.6239 150.95 77.8779 149.448C63.1319 147.947 55.6232 139.224 55.6232 139.224C55.6232 139.224 33.9755 149.448 19.5331 135.917C5.09065 122.385 13.8136 110.962 13.8136 110.962C13.8136 110.962 2.69423 107.655 2.39069 87.2055C2.08714 66.756 20.1402 62.2508 20.1402 62.2508Z" fill="white" style="fill:white;fill-opacity:1;"/>
<path d="M131.702 152.772C130.36 152.772 129.002 152.708 127.628 152.564C113.617 151.063 104.127 145.551 100.932 143.442C98.2315 146.03 90.2754 152.341 77.7022 151.063C65.113 149.785 57.6202 143.49 55.2238 141.158C53.2587 141.956 48.7535 143.586 43.1618 144.257C33.2406 145.439 24.6774 142.979 18.4148 137.1C6.36879 125.804 9.56401 115.596 11.5291 111.682C8.12616 109.764 1.03276 103.773 0.79312 87.2381C0.633359 76.0388 5.77767 69.4247 10.1392 65.8301C13.2545 63.2579 16.3858 61.868 18.1911 61.197C17.3763 57.6982 16.1142 48.8155 20.7952 38.7186C25.5721 28.398 35.8607 27.5673 40.2701 27.7111C40.0465 23.4614 41.1169 13.7958 53.9777 7.00599C67.4455 -0.103385 78.6448 6.23914 82.5749 9.06691C84.9554 5.64802 91.6654 -1.55721 104.414 1.4463C116.94 4.38591 124.72 9.2746 127.436 11.1917C130.439 8.82727 139.642 2.93208 153.173 6.57464C167.057 10.3131 172.984 22.5667 174.581 26.5448C178.288 26.2732 188.784 26.5448 195.303 36.7216C202.06 47.2658 200.958 63.6573 200.495 68.1946C204.984 70.4312 221.184 80.0169 219.011 100.898C217.877 111.857 215.129 119.047 210.863 122.306C209.713 123.184 208.643 123.616 207.764 123.823C208.067 128.233 207.38 139.768 193.13 146.398C177.841 153.491 163.957 146.126 160.283 143.842C156.96 145.934 145.169 152.756 131.702 152.756V152.772ZM100.74 139.752C101.075 139.752 101.427 139.863 101.714 140.071C101.81 140.151 111.827 147.644 127.979 149.369C144.019 151.079 159.228 140.726 159.372 140.614C159.915 140.231 160.65 140.231 161.193 140.614C161.337 140.71 176.003 150.807 191.772 143.474C207.189 136.317 204.537 123.264 204.409 122.721C204.297 122.21 204.441 121.667 204.808 121.283C205.176 120.9 205.703 120.724 206.23 120.804C206.23 120.804 207.476 120.916 209.058 119.622C211.422 117.705 214.522 112.848 215.8 100.562C218.053 78.9145 198.961 70.9584 198.146 70.6389C197.475 70.3673 197.06 69.6644 197.156 68.9454C197.188 68.7537 199.696 49.5344 192.587 38.447C185.733 27.743 173.894 29.8199 173.783 29.8359C172.984 29.9797 172.217 29.5164 171.977 28.7495C171.929 28.6057 166.913 13.5722 152.327 9.65803C137.804 5.74388 128.954 14.0195 128.586 14.371C128.011 14.9302 127.1 14.9621 126.477 14.4668C126.397 14.4029 118.409 8.02846 103.663 4.56164C89.8121 1.30251 84.6358 11.671 84.4122 12.1184C84.1885 12.5817 83.7731 12.9012 83.2619 12.997C82.7666 13.0929 82.2554 12.9491 81.872 12.5976C81.4087 12.1663 70.1455 2.06937 55.4315 9.83377C40.7814 17.5662 43.5772 28.9572 43.5932 29.069C43.737 29.5962 43.5932 30.1554 43.2257 30.5548C42.8583 30.9542 42.3151 31.1459 41.7719 31.0501C41.2447 30.9702 28.7673 29.0211 23.639 40.0766C18.255 51.6912 21.5621 61.6443 21.594 61.7402C21.7378 62.1556 21.7059 62.6349 21.4822 63.0183C21.2745 63.4177 20.9071 63.6893 20.4757 63.8011C19.7887 63.9769 3.66882 68.2904 3.94042 87.1902C4.21201 106.058 13.8296 109.317 14.245 109.445C14.7403 109.605 15.1397 109.988 15.2994 110.483C15.4592 110.979 15.3634 111.522 15.0598 111.937C14.7403 112.353 7.45517 122.434 20.6035 134.767C34.0554 147.388 54.7126 137.898 54.9202 137.803C55.5753 137.499 56.3421 137.659 56.8054 138.202C56.8693 138.282 64.1385 146.462 78.0058 147.883C91.7452 149.289 99.3978 140.407 99.4777 140.327C99.7972 139.959 100.245 139.768 100.692 139.768L100.74 139.752Z" fill="black" style="fill:black;fill-opacity:1;"/>
<path d="M114.863 169.916C114.863 169.916 115.47 158.796 129.593 160.586C143.716 162.375 136.207 174.421 131.398 176.53C126.589 178.639 117.259 177.728 114.863 169.916Z" fill="white" style="fill:white;fill-opacity:1;"/>
<path d="M126.254 179.101C124.161 179.101 121.924 178.701 119.831 177.743C116.604 176.273 114.368 173.717 113.345 170.378C113.297 170.202 113.265 170.01 113.281 169.819C113.281 169.627 113.585 164.946 117.467 161.719C120.438 159.242 124.592 158.332 129.816 159.003C136.958 159.913 138.907 163.268 139.29 165.936C140.009 170.969 135.408 176.529 132.053 177.998C130.519 178.669 128.474 179.101 126.254 179.101ZM116.492 169.755C117.291 172.087 118.857 173.797 121.173 174.851C124.56 176.401 128.522 176.049 130.775 175.075C133.171 174.02 136.59 169.627 136.127 166.4C135.728 163.572 132.245 162.549 129.401 162.182C125.104 161.639 121.78 162.294 119.528 164.163C117.163 166.112 116.604 168.892 116.492 169.755Z" fill="black" style="fill:black;fill-opacity:1;"/>
<path d="M147.038 181.337C147.038 181.337 148.54 174.419 154.563 175.026C160.586 175.633 159.979 184.644 155.17 186.753C150.362 188.861 147.054 181.337 147.054 181.337H147.038Z" fill="white" style="fill:white;fill-opacity:1;"/>
<path d="M153.429 188.75C149.659 188.75 146.815 184.772 145.585 181.992C145.457 181.688 145.409 181.337 145.489 181.001C146.112 178.125 148.828 172.837 154.723 173.429C157.79 173.732 159.915 175.809 160.41 178.972C160.922 182.247 159.484 186.593 155.793 188.206C154.963 188.574 154.164 188.734 153.413 188.734L153.429 188.75ZM148.748 181.177C149.483 182.583 151.799 186.481 154.531 185.283C156.64 184.356 157.599 181.544 157.263 179.467C157.071 178.269 156.432 176.815 154.403 176.608C150.665 176.24 149.179 179.819 148.748 181.177Z" fill="black" style="fill:black;fill-opacity:1;"/>
<path d="M170.204 190.668C170.204 190.668 169.9 184.661 172.904 184.948C175.907 185.236 179.518 185.252 178.911 188.256C178.304 191.259 174.997 192.17 170.188 190.668H170.204Z" fill="white" style="fill:white;fill-opacity:1;"/>
<path d="M174.31 192.984C172.952 192.984 171.402 192.728 169.725 192.201C169.086 192.009 168.638 191.418 168.606 190.763C168.574 189.996 168.479 186.098 170.364 184.293C171.099 183.59 172.025 183.27 173.064 183.382L173.91 183.462C176.243 183.67 178.655 183.877 179.902 185.539C180.333 186.114 180.78 187.105 180.477 188.59C180.173 190.108 179.326 191.322 178.048 192.089C177.026 192.696 175.764 193 174.294 193L174.31 192.984ZM171.802 189.453C173.815 189.932 175.46 189.884 176.419 189.325C176.93 189.022 177.218 188.59 177.345 187.951C177.393 187.712 177.393 187.504 177.345 187.44C176.962 186.929 174.869 186.737 173.623 186.625L172.744 186.545C172.632 186.545 172.616 186.545 172.568 186.593C172.153 186.977 171.882 188.239 171.802 189.453Z" fill="black" style="fill:black;fill-opacity:1;"/>
<path d="M76.9422 81.2707C79.9985 81.2707 83.5982 85.4816 83.5982 90.983C83.5982 99.6086 78.3006 104.567 68.6563 104.567C58.5365 104.567 52.9672 98.1144 52.9672 90.168C52.9672 85.2779 54.3935 82.0178 56.5669 79.9124H53.171C51.3372 79.9124 49.7071 78.6898 49.7071 76.041C49.7071 73.1206 51.3372 71.898 53.171 71.898H82.3078C84.1415 71.898 85.8395 73.0526 85.8395 76.041C85.8395 78.7578 84.1415 79.9124 82.3078 79.9124H70.8296C65.2604 79.9124 61.457 84.327 61.457 89.0813C61.457 93.7676 64.3095 96.4843 68.6563 96.4843C72.8672 96.4843 75.2443 94.1072 75.2443 91.1188C75.2443 87.7229 72.9351 86.9758 72.9351 85.142C72.9351 82.8328 74.4293 81.2707 76.9422 81.2707ZM92.0879 110.611V60.0124C92.0879 57.9749 93.4463 56.6165 96.163 56.6165C98.8797 56.6165 100.238 57.9749 100.238 60.0124V110.611C100.238 112.649 98.8797 114.007 96.163 114.007C93.4463 114.007 92.0879 112.649 92.0879 110.611ZM59.4194 66.125C57.7215 65.6496 56.9064 64.2912 56.9064 62.4574C56.9064 59.7407 58.8761 57.9749 61.3211 58.4503C65.9395 59.3332 70.4221 59.8086 74.8368 59.8086C76.6027 59.8086 78.1648 60.7595 78.1648 63.3404C78.1648 66.6004 76.1951 67.6192 74.4293 67.6192C69.5392 67.6192 63.3587 67.1438 59.4194 66.125ZM139.15 81.2707C142.206 81.2707 145.806 85.4816 145.806 90.983C145.806 99.6086 140.508 104.567 130.864 104.567C120.744 104.567 115.175 98.1144 115.175 90.168C115.175 85.2779 116.601 82.0178 118.774 79.9124H115.378C113.545 79.9124 111.915 78.6898 111.915 76.041C111.915 73.1206 113.545 71.898 115.378 71.898H144.515C146.349 71.898 148.047 73.0526 148.047 76.041C148.047 78.7578 146.349 79.9124 144.515 79.9124H133.037C127.468 79.9124 123.664 84.327 123.664 89.0813C123.664 93.7676 126.517 96.4843 130.864 96.4843C135.075 96.4843 137.452 94.1072 137.452 91.1188C137.452 87.7229 135.143 86.9758 135.143 85.142C135.143 82.8328 136.637 81.2707 139.15 81.2707ZM154.295 110.611V60.0124C154.295 57.9749 155.654 56.6165 158.371 56.6165C161.087 56.6165 162.446 57.9749 162.446 60.0124V110.611C162.446 112.649 161.087 114.007 158.371 114.007C155.654 114.007 154.295 112.649 154.295 110.611ZM121.627 66.125C119.929 65.6496 119.114 64.2912 119.114 62.4574C119.114 59.7407 121.084 57.9749 123.529 58.4503C128.147 59.3332 132.63 59.8086 137.044 59.8086C138.81 59.8086 140.372 60.7595 140.372 63.3404C140.372 66.6004 138.403 67.6192 136.637 67.6192C131.747 67.6192 125.566 67.1438 121.627 66.125Z" fill="black" style="fill:black;fill-opacity:1;"/>
</svg>
