<?xml version="1.0" encoding="UTF-8"?>
<svg id="_레이어_1" data-name="레이어 1" xmlns="http://www.w3.org/2000/svg" viewBox="0 0 375 110.53">
  <defs>
    <style>
      .cls-1 {
        stroke: #231815;
        stroke-miterlimit: 10;
      }

      .cls-1, .cls-2 {
        fill: #231815;
      }
    </style>
  </defs>
  <g>
    <path class="cls-2" d="M45.68,102.54c-.47,0-.87-.32-.98-.78l-.56-2.48c-.06-.28,0-.57.16-.8s.42-.38.7-.42c8.98-1.04,16.88-2.82,23.5-5.3,6.54-2.45,11.7-5.75,15.33-9.82,3.57-4,5.38-8.93,5.38-14.67,0-3.86-.98-7.44-2.9-10.65-1.93-3.21-4.72-5.84-8.31-7.81-2.44-1.34-5.25-2.23-8.36-2.67-1.16,2.38-2.62,4.97-4.35,7.73-2.53,4.04-5.47,8.18-8.74,12.32-2.58,3.26-5.34,6.41-8.22,9.4.56,1.26,1.07,2.39,1.52,3.37.73,1.59,1.11,3.12,1.11,4.53,0,1.55-.73,2.38-1.34,2.8-.77.53-1.64.8-2.6.8-1.74,0-3.23-1.12-4.43-3.34-.32-.59-.62-1.23-.92-1.92-3.23,2.68-6.49,4.86-9.7,6.51-4.67,2.39-9.01,3.6-12.91,3.6-2.75,0-4.91-.78-6.41-2.33-1.5-1.54-2.26-3.9-2.26-7.01,0-4.05.97-8.01,2.87-11.78,1.88-3.72,4.38-7.21,7.44-10.39,3.04-3.15,6.33-6,9.78-8.46,2.62-1.87,5.21-3.47,7.69-4.76.07-.72.15-1.46.24-2.21.49-4.17,1.04-8.33,1.64-12.37l.04-.27c-.84.08-1.7.15-2.57.23-2.27.19-4.5.29-6.62.29-2.25,0-4.34-.24-6.22-.71-1.93-.48-3.78-1.4-5.5-2.71-1.68-1.29-3.47-3.19-5.32-5.66-.3-.4-.26-.96.09-1.31l1.92-1.92c.19-.19.45-.29.71-.29.22,0,.45.07.63.23,1.97,1.61,3.72,2.82,5.19,3.61,1.44.77,2.87,1.29,4.27,1.53,1.43.25,3.08.38,4.9.38,2.07,0,4.2-.09,6.34-.28,1.07-.09,2.15-.2,3.22-.32.19-1.28.38-2.51.56-3.68.48-3.13.72-5.3.72-6.44s-.19-1.43-.22-1.46c-.05-.07-.28-.33-1.16-.65-.97-.35-1.99-.6-3.01-.74-1.06-.15-2.2-.26-3.36-.33-.54-.03-.96-.5-.94-1.04l.11-2.59c.02-.47.37-.87.83-.94.92-.15,1.85-.29,2.81-.4.99-.12,1.78-.18,2.43-.18,2.37,0,4.5.36,6.34,1.08,1.83.72,3.33,1.59,4.47,2.61,1.31,1.17,1.91,2.14,1.91,3.06,0,.97-.24,1.78-.71,2.4l-1.18,1.58c-.25.33-.62,1.05-.95,2.55-.33,1.14-.69,2.47-1.07,3.99,4.14-.8,7.73-1.74,10.69-2.78,4-1.41,7.17-2.66,9.43-3.74,3.23-1.53,4.37-1.73,5-1.73,1.93,0,3.37.31,4.41.93,1.47.9,1.78,2.06,1.78,2.88s-.19,1.49-.55,2.06c-.37.58-1.05,1.11-2.14,1.65-1.37.57-3.22,1.22-5.55,1.97-2.33.75-5.05,1.57-8.09,2.43-3.05.87-6.32,1.65-9.72,2.33-2.31.46-4.63.88-6.89,1.24-.33,1.65-.65,3.38-.94,5.16-.41,2.47-.78,4.96-1.09,7.43,2-.73,4.21-1.37,6.59-1.91,3.8-.86,7.81-1.36,11.95-1.47,0-.56-.14-1-.4-1.35-.77-1.01-2.46-2.2-5.03-3.56-.24-.13-.42-.35-.5-.61-.07-.26-.04-.54.1-.78l1.13-1.92c.18-.31.51-.49.86-.49.09,0,.17.01.26.03,1.99.54,3.88,1.2,5.61,1.97,1.81.8,3.34,1.87,4.55,3.16.83.92,1.29,1.85,1.39,2.78.04.36.03.74-.02,1.14,4.32.59,8.2,1.84,11.53,3.73,4.83,2.74,8.54,6.3,11.02,10.57,2.48,4.27,3.74,8.84,3.74,13.58,0,5.44-1.37,10.24-4.06,14.25-2.67,3.99-6.45,7.34-11.23,9.96-4.72,2.59-10.3,4.61-16.61,6.02-6.27,1.4-13.09,2.18-20.26,2.34h-.02ZM37.73,55.05c-3.2,2.07-6.13,4.37-8.72,6.85-3.6,3.45-6.42,6.96-8.39,10.43-1.93,3.4-2.91,6.44-2.91,9.03,0,1.37.24,2.37.7,2.88.44.49,1.23.74,2.36.74,2.04,0,4.28-.5,6.66-1.5,2.44-1.02,4.93-2.42,7.42-4.18,1.62-1.15,3.19-2.37,4.65-3.64-.58-2.6-1.01-5.39-1.3-8.3-.34-3.47-.51-6.84-.51-10.02,0-.74.01-1.51.04-2.3ZM44.41,51.42c-.14,1.84-.21,3.56-.21,5.14,0,4.19.33,7.8.99,10.72.18.78.36,1.53.55,2.25.8-.87,1.6-1.76,2.39-2.69,2.11-2.44,4.16-5.02,6.09-7.66,1.92-2.62,3.65-5.23,5.13-7.75.93-1.58,1.75-3.08,2.44-4.49-3.13.19-6.09.65-8.82,1.4-2.77.75-5.65,1.79-8.58,3.08Z"/>
    <path class="cls-2" d="M39.94,8.99c2.25,0,4.24.34,5.97,1.01,1.73.68,3.12,1.48,4.17,2.42,1.05.94,1.58,1.71,1.58,2.31,0,.75-.17,1.35-.51,1.8-.34.45-.73.98-1.18,1.58-.45.6-.83,1.58-1.13,2.93-.43,1.46-.9,3.29-1.43,5.47-.96.17-1.95.34-2.97.5-.8.11-1.61.22-2.42.32.23-1.56.46-3.04.67-4.43.49-3.19.73-5.39.73-6.6,0-.98-.13-1.65-.39-2.03-.26-.38-.81-.71-1.63-1.02-1.05-.38-2.12-.64-3.21-.79-1.09-.15-2.24-.26-3.44-.34l.11-2.59c.9-.15,1.82-.28,2.76-.39.94-.11,1.71-.17,2.31-.17M73.87,18.01c1.73,0,3.02.26,3.89.79.86.53,1.3,1.2,1.3,2.03,0,.6-.13,1.11-.39,1.52-.26.41-.85.85-1.75,1.3-1.28.53-3.08,1.17-5.41,1.92-2.33.75-5.02,1.56-8.06,2.42-3.04.86-6.26,1.63-9.64,2.31-2.56.51-5.07.96-7.54,1.34.25-1.22.51-2.4.77-3.54.13-.54.25-1.07.37-1.57,4.85-.88,8.98-1.91,12.37-3.11,4.06-1.43,7.23-2.69,9.53-3.78,2.29-1.09,3.81-1.63,4.57-1.63M16.6,22.29c2.03,1.65,3.81,2.89,5.35,3.72,1.54.83,3.06,1.37,4.57,1.63,1.5.26,3.19.39,5.07.39,2.1,0,4.25-.09,6.43-.28,1.35-.12,2.68-.25,4.01-.41-.23,1.56-.48,3.19-.73,4.91-1.24.12-2.52.24-3.83.35-2.25.19-4.44.28-6.54.28s-4.17-.23-5.97-.68c-1.8-.45-3.51-1.3-5.13-2.54-1.62-1.24-3.33-3.06-5.13-5.47l1.92-1.92M46.26,31.63c-.38,1.87-.74,3.83-1.09,5.87-.51,3.06-.94,6.1-1.3,9.12-1.04.43-2.01.88-2.93,1.36-.6.27-1.2.56-1.81.87.08-.89.18-1.8.29-2.73.49-4.17,1.03-8.29,1.63-12.34.08-.52.15-1.03.23-1.53.88-.09,1.75-.18,2.59-.27.79-.11,1.58-.23,2.38-.35M59.78,34.01c1.95.53,3.78,1.17,5.47,1.92,1.69.75,3.1,1.73,4.23,2.93.68.75,1.05,1.49,1.13,2.2.06.55-.02,1.18-.23,1.89-1.59-.17-3.24-.26-4.96-.26-.3,0-.59,0-.89,0,.21-1.23.04-2.21-.52-2.94-.86-1.13-2.65-2.4-5.35-3.83l1.13-1.92M64.53,42.7c-.11.67-.35,1.42-.69,2.25-.13.3-.27.61-.41.92-3.84.1-7.41.61-10.7,1.5-3,.82-6.09,1.95-9.27,3.38.08-1.01.18-2.06.31-3.15.04-.32.07-.64.11-.97,2.36-.97,5.03-1.79,8.01-2.47,4.02-.91,8.23-1.4,12.64-1.46M70.37,42.95c4.65.51,8.73,1.75,12.24,3.74,4.7,2.67,8.25,6.07,10.65,10.2,2.4,4.13,3.61,8.49,3.61,13.08,0,5.26-1.3,9.83-3.89,13.7-2.59,3.87-6.22,7.08-10.88,9.64-4.66,2.56-10.11,4.53-16.35,5.92-6.24,1.39-12.93,2.16-20.07,2.31l-.56-2.48c9.09-1.05,17-2.84,23.73-5.35,6.73-2.52,11.97-5.88,15.73-10.09,3.76-4.21,5.64-9.32,5.64-15.33,0-4.06-1.01-7.78-3.04-11.16-2.03-3.38-4.92-6.11-8.68-8.17-2.74-1.51-5.89-2.47-9.43-2.87.4-.85.77-1.68,1.09-2.48.08-.22.16-.44.22-.64M64.96,45.85c1.42,0,2.79.08,4.1.23-1.19,2.52-2.72,5.28-4.6,8.29-2.52,4.02-5.41,8.1-8.68,12.23-2.71,3.42-5.58,6.69-8.62,9.8-.18-.42-.37-.85-.57-1.29-.47-1.07-.91-2.28-1.32-3.61,1.2-1.26,2.41-2.6,3.63-4,2.14-2.48,4.19-5.05,6.14-7.72,1.95-2.67,3.68-5.28,5.19-7.83,1.29-2.19,2.35-4.21,3.2-6.07.51-.01,1.02-.02,1.54-.02M39.14,48.86c-.14,1.51-.25,2.95-.33,4.33-3.92,2.37-7.41,5.04-10.49,7.99-3.68,3.53-6.54,7.08-8.57,10.65-2.03,3.57-3.04,6.75-3.04,9.53,0,1.65.32,2.84.96,3.55.64.71,1.67,1.07,3.1,1.07,2.18,0,4.53-.53,7.05-1.58,2.52-1.05,5.05-2.48,7.61-4.28,1.82-1.29,3.55-2.65,5.19-4.09.07.31.15.63.23.94.39,1.56.81,2.96,1.27,4.21-3.54,3.06-7.06,5.48-10.57,7.28-4.55,2.33-8.7,3.49-12.46,3.49-2.48,0-4.38-.68-5.69-2.03-1.32-1.35-1.97-3.46-1.97-6.31,0-3.91.92-7.68,2.76-11.33,1.84-3.65,4.26-7.03,7.27-10.15,3-3.12,6.22-5.9,9.64-8.34,2.77-1.98,5.45-3.62,8.05-4.94M43.46,50.75c-.17,2.1-.26,4.04-.26,5.81,0,4.28.34,7.93,1.01,10.94.32,1.44.68,2.78,1.05,4-.92.96-1.83,1.88-2.74,2.76-.62.6-1.26,1.19-1.92,1.77-.64-2.74-1.11-5.66-1.41-8.76-.34-3.46-.51-6.76-.51-9.92,0-1.32.04-2.7.12-4.15.77-.47,1.56-.92,2.36-1.37.77-.38,1.53-.73,2.29-1.08M47.15,76.4c.67,1.52,1.27,2.86,1.8,4.01.68,1.47,1.01,2.84,1.01,4.11,0,.9-.3,1.56-.9,1.97-.6.41-1.28.62-2.03.62-1.35,0-2.54-.94-3.55-2.82-.49-.91-.95-1.94-1.38-3.11,1.04-.9,2.08-1.85,3.12-2.86.65-.63,1.29-1.27,1.92-1.92M39.94,6.99c-.69,0-1.52.06-2.55.18-.95.11-1.91.25-2.85.41-.93.16-1.63.94-1.67,1.89l-.11,2.59c-.05,1.09.78,2.01,1.87,2.08,1.14.07,2.25.18,3.29.32.95.13,1.9.36,2.81.69.34.12.53.23.64.29.03.14.06.41.06.87,0,.75-.12,2.45-.71,6.29-.14.94-.29,1.91-.44,2.92-.81.09-1.62.16-2.43.23-2.11.18-4.22.27-6.25.27-1.76,0-3.35-.12-4.73-.36-1.29-.23-2.62-.7-3.96-1.43-1.42-.76-3.12-1.94-5.04-3.51-.37-.3-.82-.45-1.26-.45-.51,0-1.03.2-1.41.59l-1.92,1.92c-.7.7-.78,1.82-.19,2.61,1.93,2.58,3.73,4.49,5.51,5.85,1.83,1.4,3.8,2.37,5.86,2.89,1.95.49,4.13.74,6.46.74,2.15,0,4.41-.1,6.71-.29.44-.04.88-.07,1.32-.11-.54,3.73-1.05,7.56-1.5,11.42-.07.57-.13,1.13-.19,1.69-2.38,1.27-4.84,2.8-7.33,4.59-3.5,2.5-6.84,5.39-9.92,8.58-3.13,3.25-5.69,6.83-7.62,10.63-1.98,3.91-2.98,8.02-2.98,12.23,0,3.38.85,5.98,2.54,7.71,1.7,1.75,4.09,2.63,7.13,2.63,4.06,0,8.56-1.25,13.37-3.71,2.94-1.51,5.91-3.45,8.87-5.8.14.28.27.55.41.8,1.73,3.2,3.84,3.87,5.31,3.87,1.16,0,2.22-.33,3.16-.97,1.14-.78,1.77-2.07,1.77-3.62s-.4-3.23-1.2-4.95c-.38-.82-.8-1.74-1.24-2.75,2.74-2.86,5.36-5.88,7.82-8.98,3.29-4.16,6.26-8.34,8.81-12.41,1.59-2.54,2.95-4.94,4.07-7.17,2.71.45,5.16,1.27,7.31,2.45,3.43,1.89,6.09,4.39,7.93,7.45,1.83,3.05,2.76,6.46,2.76,10.13,0,5.56-1.68,10.13-5.13,14-3.52,3.94-8.55,7.16-14.94,9.55-6.54,2.45-14.36,4.21-23.26,5.24-.56.07-1.07.37-1.4.83-.33.46-.44,1.04-.32,1.6l.56,2.48c.21.91,1.02,1.56,1.95,1.56.01,0,.03,0,.04,0,7.24-.15,14.12-.95,20.46-2.36,6.4-1.43,12.07-3.49,16.87-6.12,4.92-2.7,8.82-6.16,11.58-10.28,2.8-4.19,4.23-9.17,4.23-14.81,0-4.92-1.3-9.66-3.88-14.08-2.58-4.42-6.41-8.1-11.39-10.94-3.21-1.82-6.89-3.07-10.98-3.72,0-.13-.01-.26-.03-.38-.12-1.14-.67-2.26-1.63-3.33-1.33-1.42-2.97-2.56-4.9-3.42-1.78-.79-3.72-1.47-5.76-2.02-.17-.05-.35-.07-.52-.07-.7,0-1.36.36-1.72.99l-1.13,1.92c-.28.47-.35,1.03-.2,1.56.15.53.51.97.99,1.22,2.8,1.48,4.01,2.5,4.52,3.07-3.73.17-7.35.66-10.8,1.44-1.82.42-3.55.89-5.17,1.42.26-1.93.55-3.86.87-5.79.25-1.53.52-3.02.8-4.45,2.05-.34,4.15-.72,6.24-1.14,3.42-.68,6.72-1.47,9.79-2.35,3.05-.86,5.78-1.69,8.13-2.44,2.36-.76,4.23-1.42,5.56-1.97.04-.02.09-.04.13-.06,1.26-.63,2.07-1.27,2.54-2.01.47-.74.71-1.61.71-2.6,0-1.52-.8-2.85-2.25-3.74-1.2-.73-2.81-1.08-4.93-1.08-.78,0-2.03.22-5.42,1.83-2.23,1.06-5.37,2.3-9.33,3.7-2.54.9-5.56,1.71-9,2.43.23-.87.44-1.66.65-2.35.01-.04.02-.09.03-.13.32-1.45.65-2,.78-2.16l1.08-1.43.11-.14c.6-.8.91-1.81.91-3,0-1.61-1.28-2.94-2.25-3.8-1.23-1.1-2.83-2.04-4.78-2.8-1.95-.76-4.21-1.15-6.7-1.15h0ZM43.78,29.14c.32-.04.63-.09.95-.13.02,0,.04,0,.05,0-.06.29-.13.58-.19.87-.32.05-.63.09-.94.14.04-.29.09-.58.13-.86h0ZM45.37,52.09c2.69-1.16,5.34-2.1,7.89-2.79,2.14-.58,4.43-.99,6.84-1.23-.49.92-1.02,1.87-1.6,2.85-1.47,2.49-3.17,5.07-5.08,7.67-1.92,2.62-3.95,5.18-6.04,7.6-.37.43-.75.86-1.12,1.28-.03-.14-.06-.27-.09-.41-.64-2.85-.97-6.38-.97-10.5,0-1.38.05-2.88.16-4.46h0ZM20.77,83.98c-.79,0-1.38-.15-1.61-.4-.11-.12-.45-.63-.45-2.22,0-2.42.94-5.29,2.78-8.54,1.92-3.38,4.69-6.81,8.21-10.2,2.11-2.02,4.45-3.93,6.99-5.68,0,.14,0,.27,0,.4,0,3.21.17,6.61.52,10.12.27,2.73.67,5.36,1.19,7.83-1.31,1.11-2.7,2.18-4.13,3.19-2.43,1.71-4.86,3.08-7.23,4.07-2.26.94-4.37,1.42-6.28,1.42h0ZM42.84,76.71c.37-.34.73-.68,1.08-1.02.18-.17.35-.34.53-.52.1.25.2.49.3.72,0,.02.01.03.02.05-.31.31-.63.62-.94.93-.25.24-.51.49-.76.72-.08-.29-.16-.59-.24-.9h0Z"/>
  </g>
  <path class="cls-1" d="M122.23,98.5c-1.8,0-3.27-.6-4.4-1.8-1.13-1.2-1.69-2.63-1.69-4.28s.56-3.04,1.69-4.17c1.13-1.13,2.59-1.69,4.4-1.69s3.29.56,4.45,1.69c1.16,1.13,1.75,2.52,1.75,4.17s-.58,3.08-1.75,4.28c-1.17,1.2-2.65,1.8-4.45,1.8ZM122.23,13.16c1.65,0,2.93.49,3.83,1.47.9.98,1.35,2.44,1.35,4.4,0,3.01-.24,6.99-.73,11.95-.49,4.96-1.07,11.46-1.75,19.5l-1.24,23h-2.93l-1.13-23c-.68-8.04-1.26-14.54-1.75-19.5-.49-4.96-.73-8.94-.73-11.95,0-1.95.45-3.42,1.35-4.4.9-.98,2.14-1.47,3.72-1.47Z"/>
  <path class="cls-1" d="M155.83,98.5c-1.8,0-3.27-.6-4.4-1.8-1.13-1.2-1.69-2.63-1.69-4.28s.56-3.04,1.69-4.17c1.13-1.13,2.59-1.69,4.4-1.69s3.29.56,4.45,1.69c1.16,1.13,1.75,2.52,1.75,4.17s-.58,3.08-1.75,4.28c-1.17,1.2-2.65,1.8-4.45,1.8ZM155.83,13.16c1.65,0,2.93.49,3.83,1.47.9.98,1.35,2.44,1.35,4.4,0,3.01-.24,6.99-.73,11.95-.49,4.96-1.07,11.46-1.75,19.5l-1.24,23h-2.93l-1.13-23c-.68-8.04-1.26-14.54-1.75-19.5-.49-4.96-.73-8.94-.73-11.95,0-1.95.45-3.42,1.35-4.4.9-.98,2.14-1.47,3.72-1.47Z"/>
  <path class="cls-1" d="M189.42,98.5c-1.8,0-3.27-.6-4.4-1.8-1.13-1.2-1.69-2.63-1.69-4.28s.56-3.04,1.69-4.17c1.13-1.13,2.59-1.69,4.4-1.69s3.29.56,4.45,1.69c1.16,1.13,1.75,2.52,1.75,4.17s-.58,3.08-1.75,4.28c-1.17,1.2-2.65,1.8-4.45,1.8ZM189.42,13.16c1.65,0,2.93.49,3.83,1.47.9.98,1.35,2.44,1.35,4.4,0,3.01-.24,6.99-.73,11.95-.49,4.96-1.07,11.46-1.75,19.5l-1.24,23h-2.93l-1.13-23c-.68-8.04-1.26-14.54-1.75-19.5-.49-4.96-.73-8.94-.73-11.95,0-1.95.45-3.42,1.35-4.4.9-.98,2.14-1.47,3.72-1.47Z"/>
  <path class="cls-1" d="M223.01,98.5c-1.8,0-3.27-.6-4.4-1.8-1.13-1.2-1.69-2.63-1.69-4.28s.56-3.04,1.69-4.17c1.13-1.13,2.59-1.69,4.4-1.69s3.29.56,4.45,1.69c1.16,1.13,1.75,2.52,1.75,4.17s-.58,3.08-1.75,4.28c-1.17,1.2-2.65,1.8-4.45,1.8ZM223.01,13.16c1.65,0,2.93.49,3.83,1.47.9.98,1.35,2.44,1.35,4.4,0,3.01-.24,6.99-.73,11.95-.49,4.96-1.07,11.46-1.75,19.5l-1.24,23h-2.93l-1.13-23c-.68-8.04-1.26-14.54-1.75-19.5-.49-4.96-.73-8.94-.73-11.95,0-1.95.45-3.42,1.35-4.4.9-.98,2.14-1.47,3.72-1.47Z"/>
  <path class="cls-1" d="M256.61,98.5c-1.8,0-3.27-.6-4.4-1.8-1.13-1.2-1.69-2.63-1.69-4.28s.56-3.04,1.69-4.17c1.13-1.13,2.59-1.69,4.4-1.69s3.29.56,4.45,1.69c1.16,1.13,1.75,2.52,1.75,4.17s-.58,3.08-1.75,4.28c-1.17,1.2-2.65,1.8-4.45,1.8ZM256.61,13.16c1.65,0,2.93.49,3.83,1.47.9.98,1.35,2.44,1.35,4.4,0,3.01-.24,6.99-.73,11.95-.49,4.96-1.07,11.46-1.75,19.5l-1.24,23h-2.93l-1.13-23c-.68-8.04-1.26-14.54-1.75-19.5-.49-4.96-.73-8.94-.73-11.95,0-1.95.45-3.42,1.35-4.4.9-.98,2.14-1.47,3.72-1.47Z"/>
  <path class="cls-1" d="M290.2,98.5c-1.8,0-3.27-.6-4.4-1.8-1.13-1.2-1.69-2.63-1.69-4.28s.56-3.04,1.69-4.17c1.13-1.13,2.59-1.69,4.4-1.69s3.29.56,4.45,1.69c1.16,1.13,1.75,2.52,1.75,4.17s-.58,3.08-1.75,4.28c-1.17,1.2-2.65,1.8-4.45,1.8ZM290.2,13.16c1.65,0,2.93.49,3.83,1.47.9.98,1.35,2.44,1.35,4.4,0,3.01-.24,6.99-.73,11.95-.49,4.96-1.07,11.46-1.75,19.5l-1.24,23h-2.93l-1.13-23c-.68-8.04-1.26-14.54-1.75-19.5-.49-4.96-.73-8.94-.73-11.95,0-1.95.45-3.42,1.35-4.4.9-.98,2.14-1.47,3.72-1.47Z"/>
  <path class="cls-1" d="M323.79,98.5c-1.8,0-3.27-.6-4.4-1.8-1.13-1.2-1.69-2.63-1.69-4.28s.56-3.04,1.69-4.17c1.13-1.13,2.59-1.69,4.4-1.69s3.29.56,4.45,1.69c1.16,1.13,1.75,2.52,1.75,4.17s-.58,3.08-1.75,4.28c-1.17,1.2-2.65,1.8-4.45,1.8ZM323.79,13.16c1.65,0,2.93.49,3.83,1.47.9.98,1.35,2.44,1.35,4.4,0,3.01-.24,6.99-.73,11.95-.49,4.96-1.07,11.46-1.75,19.5l-1.24,23h-2.93l-1.13-23c-.68-8.04-1.26-14.54-1.75-19.5-.49-4.96-.73-8.94-.73-11.95,0-1.95.45-3.42,1.35-4.4.9-.98,2.14-1.47,3.72-1.47Z"/>
  <path class="cls-1" d="M357.39,98.5c-1.8,0-3.27-.6-4.4-1.8-1.13-1.2-1.69-2.63-1.69-4.28s.56-3.04,1.69-4.17c1.13-1.13,2.59-1.69,4.4-1.69s3.29.56,4.45,1.69c1.16,1.13,1.75,2.52,1.75,4.17s-.58,3.08-1.75,4.28c-1.17,1.2-2.65,1.8-4.45,1.8ZM357.39,13.16c1.65,0,2.93.49,3.83,1.47.9.98,1.35,2.44,1.35,4.4,0,3.01-.24,6.99-.73,11.95-.49,4.96-1.07,11.46-1.75,19.5l-1.24,23h-2.93l-1.13-23c-.68-8.04-1.26-14.54-1.75-19.5-.49-4.96-.73-8.94-.73-11.95,0-1.95.45-3.42,1.35-4.4.9-.98,2.14-1.47,3.72-1.47Z"/>
</svg>