<?xml version="1.0" encoding="UTF-8"?>
<svg id="Layer_2" data-name="Layer 2" xmlns="http://www.w3.org/2000/svg" xmlns:xlink="http://www.w3.org/1999/xlink" viewBox="0 0 589.58 500.61">
  <defs>
    <style>
      .cls-1 {
        fill: #ad612d;
      }

      .cls-2 {
        stroke-width: 13.1px;
      }

      .cls-2, .cls-3, .cls-4, .cls-5, .cls-6, .cls-7 {
        fill: none;
      }

      .cls-2, .cls-3, .cls-5, .cls-6 {
        stroke-linecap: round;
      }

      .cls-2, .cls-4, .cls-5, .cls-7 {
        stroke-miterlimit: 10;
      }

      .cls-2, .cls-7 {
        stroke: #ffc23b;
      }

      .cls-8 {
        fill: #ffc23b;
      }

      .cls-3 {
        stroke-width: 1.94px;
      }

      .cls-3, .cls-6 {
        stroke: #fffbd7;
        stroke-linejoin: round;
      }

      .cls-4 {
        stroke: #8c4f22;
      }

      .cls-4, .cls-5 {
        stroke-width: 40px;
      }

      .cls-9 {
        fill: #ffe0a1;
      }

      .cls-5 {
        stroke: #ad612d;
      }

      .cls-6 {
        stroke-width: 5px;
      }

      .cls-7 {
        stroke-width: 10px;
      }

      .cls-10 {
        fill: #d63030;
      }

      .cls-11 {
        clip-path: url(#clippath);
      }

      .cls-12 {
        fill: #ff5a5a;
      }
    </style>
    <clipPath id="clippath">
      <path class="cls-7" d="M558.57,132.99S480.11,5,294.79,5,36.67,130.54,36.67,130.54l258.12,252.07,263.78-249.61Z"/>
    </clipPath>
  </defs>
  <g id="Layer_1-2" data-name="Layer 1">
    <g>
      <polyline class="cls-4" points="569.58 135.95 294.79 410.75 20 135.95"/>
      <g>
        <g class="cls-11">
          <polygon class="cls-12" points="135.85 16.71 297.62 394.4 -10.86 105.68 135.85 16.71"/>
          <polygon class="cls-10" points="250.99 -10.08 299.89 397.87 85.16 33.99 250.99 -10.08"/>
          <polygon class="cls-12" points="372.29 11.82 297.88 415.9 200.85 4.68 372.29 11.82"/>
          <polygon class="cls-10" points="473.95 45.92 287.42 412.01 311.67 -9.8 473.95 45.92"/>
          <polygon class="cls-12" points="576.13 119.82 285.67 410.42 438.99 16.71 576.13 119.82"/>
          <polygon class="cls-10" points="644.72 189.3 288.94 394.82 538.93 54.2 644.72 189.3"/>
        </g>
        <path class="cls-7" d="M558.57,132.99S480.11,5,294.79,5,36.67,130.54,36.67,130.54l258.12,252.07,263.78-249.61Z"/>
      </g>
      <polyline class="cls-5" points="20 135.95 294.79 410.75 569.58 135.95"/>
      <polygon class="cls-9" points="237.38 440.33 220.24 471.42 230.2 499.39 352.53 499.78 361.17 469.46 343.37 433.89 237.38 440.33"/>
      <path class="cls-2" d="M230.13,493.61c-39.26-26.54,26.94-59.71,26.94-59.71"/>
      <path class="cls-2" d="M282.13,433.89s-66.2,33.17-26.94,59.71"/>
      <path class="cls-2" d="M289.01,433.44s-.88,36.37-1.33,60.62"/>
      <path class="cls-2" d="M294.79,433.89s66.2,33.17,26.94,59.71"/>
      <path class="cls-2" d="M322.6,433.89s66.2,33.17,26.94,59.71"/>
      <rect class="cls-1" x="239.29" y="401.02" width="111.01" height="47.45" rx="12.01" ry="12.01"/>
      <g>
        <path class="cls-8" d="M246.97,278.96c8.7,10.98-.2,19.89-11.19,11.19-10.98,8.7-19.89-.2-11.19-11.19-8.7-10.98.2-19.89,11.19-11.19,10.98-8.7,19.89.2,11.19,11.19Z"/>
        <path class="cls-3" d="M246.97,278.96c8.7,10.98-.2,19.89-11.19,11.19-10.98,8.7-19.89-.2-11.19-11.19-8.7-10.98.2-19.89,11.19-11.19,10.98-8.7,19.89.2,11.19,11.19Z"/>
      </g>
      <g>
        <path class="cls-8" d="M421.55,214.17c-4.16,35.84-36.58,35.84-40.74,0-35.84-4.16-35.84-36.58,0-40.74,4.16-35.84,36.58-35.84,40.74,0,35.84,4.16,35.84,36.58,0,40.74Z"/>
        <path class="cls-6" d="M421.55,214.17c-4.16,35.84-36.58,35.84-40.74,0-35.84-4.16-35.84-36.58,0-40.74,4.16-35.84,36.58-35.84,40.74,0,35.84,4.16,35.84,36.58,0,40.74Z"/>
      </g>
      <g>
        <path class="cls-8" d="M187.47,124.18c22.41,28.29-.52,51.22-28.81,28.81-28.29,22.41-51.22-.52-28.81-28.81-22.41-28.29.52-51.22,28.81-28.81,28.29-22.41,51.22.52,28.81,28.81Z"/>
        <path class="cls-6" d="M187.47,124.18c22.41,28.29-.52,51.22-28.81,28.81-28.29,22.41-51.22-.52-28.81-28.81-22.41-28.29.52-51.22,28.81-28.81,28.29-22.41,51.22.52,28.81,28.81Z"/>
      </g>
    </g>
  </g>
</svg>