<svg width="1125" height="1509" viewBox="0 0 1125 1509" fill="none" xmlns="http://www.w3.org/2000/svg">
<g clip-path="url(#clip0_2384_997)">
<path d="M0 0V1509H1125V0H0ZM1034.75 813.01C1034.75 824.72 1035.98 824.72 1035.98 836.42C1035.98 848.13 1083.2 848.13 1083.2 859.84C1083.2 871.55 1060.43 871.55 1060.43 883.25C1060.43 894.95 1077.12 894.96 1077.12 906.67C1077.12 918.38 1032.89 918.38 1032.89 930.09C1032.89 941.8 1090.62 941.8 1090.62 953.51C1090.62 965.22 1053.18 965.22 1053.18 976.93C1053.18 988.64 1100.36 988.64 1100.36 1000.35C1100.36 1012.06 1071.6 1012.06 1071.6 1023.77C1071.6 1035.48 1055.04 1035.48 1055.04 1047.19C1055.04 1058.9 1055.22 1058.9 1055.22 1070.61C1055.22 1082.32 1031.06 1082.32 1031.06 1094.03C1031.06 1105.74 1042.34 1105.74 1042.34 1117.45C1042.34 1129.16 1039.66 1129.16 1039.66 1140.87C1039.66 1152.58 1093.06 1152.58 1093.06 1164.29C1093.06 1176 1090.14 1176 1090.14 1187.71C1090.14 1199.42 1048.16 1199.42 1048.16 1211.13C1048.16 1222.84 1066.11 1222.84 1066.11 1234.54C1066.11 1246.24 1105.5 1246.25 1105.5 1257.96C1105.5 1269.67 1093.32 1269.67 1093.32 1281.38C1093.32 1293.09 1036.87 1293.09 1036.87 1304.8C1036.87 1316.51 1091.77 1316.51 1091.77 1328.22C1091.77 1339.93 1101.87 1339.93 1101.87 1351.64C1101.87 1363.35 1050.7 1363.35 1050.7 1375.06C1050.7 1386.77 1076.95 1385.83 1078.14 1397.48C1079.16 1407.48 1071.64 1408.75 1063.34 1417.01C1055.01 1425.31 1056.46 1450.46 1044.7 1450.46C1032.94 1450.46 1032.94 1408.47 1021.18 1408.47C1009.42 1408.47 1009.42 1390.77 997.66 1390.77C985.9 1390.77 985.9 1411.8 974.14 1411.8C962.38 1411.8 962.38 1460.52 950.62 1460.52C938.86 1460.52 938.86 1407.04 927.1 1407.04C915.34 1407.04 915.34 1382.66 903.58 1382.66C891.82 1382.66 891.82 1382.62 880.06 1382.62C868.3 1382.62 868.3 1432.38 856.54 1432.38C844.78 1432.38 844.78 1450.09 833.02 1450.09C821.26 1450.09 821.26 1458.89 809.5 1458.89C797.74 1458.89 797.74 1394.42 785.98 1394.42C774.22 1394.42 774.22 1406.37 762.46 1406.37C750.7 1406.37 750.7 1434.47 738.94 1434.47C727.18 1434.47 727.18 1390.62 715.42 1390.62C703.66 1390.62 703.66 1449.67 691.9 1449.67C680.14 1449.67 680.14 1455.94 668.38 1455.94C656.62 1455.94 656.62 1424.83 644.86 1424.83C633.1 1424.83 633.1 1404.14 621.34 1404.14C609.58 1404.14 609.58 1446.68 597.82 1446.68C586.06 1446.68 586.06 1446.05 574.3 1446.05C562.54 1446.05 562.54 1440.45 550.78 1440.45C539.02 1440.45 539.02 1402.53 527.26 1402.53C515.5 1402.53 515.5 1444.26 503.74 1444.26C491.98 1444.26 491.98 1438.03 480.22 1438.03C468.46 1438.03 468.46 1392.41 456.7 1392.41C444.94 1392.41 444.94 1435.69 433.18 1435.69C421.42 1435.69 421.42 1452.16 409.66 1452.16C397.9 1452.16 397.9 1432 386.14 1432C374.38 1432 374.38 1453.74 362.62 1453.74C350.86 1453.74 350.86 1408.96 339.1 1408.96C327.34 1408.96 327.34 1450.69 315.58 1450.69C303.82 1450.69 303.82 1420.41 292.06 1420.41C280.3 1420.41 280.3 1423.84 268.54 1423.84C256.78 1423.84 256.78 1424.66 245.02 1424.66C233.26 1424.66 233.26 1421.83 221.5 1421.83C209.74 1421.83 209.74 1404.85 197.98 1404.85C186.22 1404.85 186.22 1451.89 174.45 1451.89C162.68 1451.89 162.69 1387.23 150.92 1387.23C139.15 1387.23 139.16 1454.28 127.39 1454.28C115.62 1454.28 115.63 1388.58 103.86 1388.58C98.66 1388.58 95.76 1390.62 93.12 1392.89C93.89 1394.44 94.37 1396.25 94.37 1398.49C94.37 1405.25 78.03 1410.29 65.84 1414.94C61.66 1422.55 57.92 1429.19 53.72 1425.01C50.22 1421.52 56.92 1418.34 65.84 1414.94C69.95 1407.45 74.5 1399.01 80.33 1399.01C86.89 1399.01 89.79 1395.77 93.12 1392.9C89.86 1386.36 81.36 1384.55 81.36 1375.08C81.36 1363.37 34.41 1363.37 34.41 1351.66C34.41 1339.95 30.43 1339.95 30.43 1328.25C30.43 1316.55 81.87 1316.54 81.87 1304.84C81.87 1293.14 17.68 1293.13 17.68 1281.43C17.68 1269.73 23.79 1269.72 23.79 1258.02C23.79 1246.32 27.61 1246.31 27.61 1234.6C27.61 1222.89 32.51 1222.89 32.51 1211.19C32.51 1199.49 30.39 1199.48 30.39 1187.77C30.39 1176.06 73.93 1176.06 73.93 1164.36C73.93 1152.66 86.08 1152.65 86.08 1140.94C86.08 1129.23 76.56 1129.23 76.56 1117.53C76.56 1105.83 70.9 1105.82 70.9 1094.11C70.9 1082.4 75.72 1082.4 75.72 1070.7C75.72 1059 32.02 1058.99 32.02 1047.28C32.02 1035.57 96.79 1035.57 96.79 1023.87C96.79 1012.17 52.02 1012.16 52.02 1000.45C52.02 988.74 23.99 988.74 23.99 977.03C23.99 965.32 40.89 965.32 40.89 953.61C40.89 941.9 27.74 941.9 27.74 930.19C27.74 918.48 58.3 918.48 58.3 906.77C58.3 895.06 41.22 895.06 41.22 883.35C41.22 871.64 69.55 871.64 69.55 859.94C69.55 848.24 43.78 848.23 43.78 836.53C43.78 824.83 92.9 824.82 92.9 813.12C92.9 801.42 63.38 801.41 63.38 789.71C63.38 778.01 84.67 778 84.67 766.29C84.67 754.58 92.37 754.58 92.37 742.88C92.37 731.18 68.66 731.17 68.66 719.46C68.66 707.75 66.02 707.75 66.02 696.05C66.02 684.35 93.86 684.34 93.86 672.64C93.86 660.94 31.6 660.93 31.6 649.22C31.6 637.51 71.33 637.51 71.33 625.81C71.33 614.11 67.58 614.1 67.58 602.39C67.58 590.68 67.2 590.68 67.2 578.97C67.2 567.26 69.25 567.26 69.25 555.55C69.25 543.84 81.47 543.84 81.47 532.13C81.47 520.42 67.46 520.42 67.46 508.71C67.46 497 36.9 497 36.9 485.29C36.9 473.58 39.02 473.58 39.02 461.87C39.02 450.16 63.35 450.16 63.35 438.45C63.35 426.74 36.42 426.74 36.42 415.03C36.42 403.32 62.29 403.32 62.29 391.61C62.29 379.9 94.52 379.9 94.52 368.19C94.52 356.48 88.13 356.48 88.13 344.77C88.13 333.06 37.04 333.06 37.04 321.35C37.04 309.64 27.59 309.64 27.59 297.93C27.59 286.22 75.37 286.22 75.37 274.52C75.37 262.82 38.43 262.81 38.43 251.1C38.43 239.39 31.17 239.39 31.17 227.68C31.17 215.97 80.89 215.97 80.89 204.26C80.89 192.55 45.67 192.55 45.67 180.84C45.67 169.13 82.78 169.13 82.78 157.42C82.78 145.71 92.63 145.71 92.63 134C92.63 122.29 79.93 122.29 79.93 110.57C79.93 98.85 50.88 97.79 59.18 89.53C67.51 81.23 68.57 55.99 80.33 55.99C92.09 55.99 92.09 51.97 103.85 51.97C115.61 51.97 115.61 84.88 127.37 84.88C139.13 84.88 139.13 87.12 150.89 87.12C162.65 87.12 162.65 113.62 174.41 113.62C186.17 113.62 186.17 70.54 197.93 70.54C209.69 70.54 209.69 81.69 221.45 81.69C233.21 81.69 233.21 123.32 244.97 123.32C256.73 123.32 256.73 99.8 268.49 99.8C280.25 99.8 280.25 73.75 292.01 73.75C303.77 73.75 303.77 119.39 315.53 119.39C327.29 119.39 327.29 93.07 339.05 93.07C350.81 93.07 350.81 52.4 362.57 52.4C374.33 52.4 374.33 77.05 386.09 77.05C397.85 77.05 397.85 61.94 409.61 61.94C421.37 61.94 421.37 103.11 433.13 103.11C444.89 103.11 444.89 85.86 456.65 85.86C468.41 85.86 468.41 55.31 480.17 55.31C491.93 55.31 491.93 57.81 503.69 57.81C515.45 57.81 515.45 84.48 527.21 84.48C538.97 84.48 538.97 97.69 550.73 97.69C562.49 97.69 562.49 51.99 574.25 51.99C586.01 51.99 586.01 71.2 597.77 71.2C609.53 71.2 609.53 58.29 621.29 58.29C633.05 58.29 633.05 77.32 644.81 77.32C656.57 77.32 656.57 115.45 668.33 115.45C680.09 115.45 680.09 114.54 691.85 114.54C703.61 114.54 703.61 112.4 715.37 112.4C727.13 112.4 727.13 123.92 738.89 123.92C750.65 123.92 750.65 59.99 762.41 59.99C774.17 59.99 774.17 108.53 785.93 108.53C797.69 108.53 797.69 66.26 809.45 66.26C821.21 66.26 821.21 120.54 832.97 120.54C844.73 120.54 844.73 49.99 856.49 49.99C868.25 49.99 868.25 97.99 880.01 97.99C891.77 97.99 891.77 122.89 903.53 122.89C915.29 122.89 915.29 93.11 927.05 93.11C938.81 93.11 938.81 82.81 950.58 82.81C962.35 82.81 962.34 70.3 974.11 70.3C985.88 70.3 985.87 82.98 997.64 82.98C1009.41 82.98 1009.4 80.84 1021.17 80.84C1032.94 80.84 1032.94 89.7 1044.7 89.7C1056.46 89.7 1047.5 91.27 1055.84 99.57C1064.14 107.83 1053.6 98.82 1053.6 110.53C1053.6 122.24 1089.63 122.24 1089.63 133.94C1089.63 145.64 1063.81 145.65 1063.81 157.36C1063.81 169.07 1056.41 169.07 1056.41 180.77C1056.41 192.47 1072.55 192.48 1072.55 204.18C1072.55 215.88 1086.39 215.89 1086.39 227.59C1086.39 239.29 1028.62 239.3 1028.62 251C1028.62 262.7 1033.01 262.71 1033.01 274.42C1033.01 286.13 1106.07 286.13 1106.07 297.83C1106.07 309.53 1073.82 309.54 1073.82 321.25C1073.82 332.96 1046.5 332.96 1046.5 344.66C1046.5 356.36 1074.54 356.37 1074.54 368.08C1074.54 379.79 1047.24 379.79 1047.24 391.49C1047.24 403.19 1058.85 403.2 1058.85 414.91C1058.85 426.62 1103.27 426.62 1103.27 438.32C1103.27 450.02 1092.08 450.03 1092.08 461.74C1092.08 473.45 1050.32 473.45 1050.32 485.15C1050.32 496.85 1084.86 496.86 1084.86 508.56C1084.86 520.26 1054.2 520.27 1054.2 531.98C1054.2 543.69 1100.15 543.69 1100.15 555.39C1100.15 567.09 1086.38 567.1 1086.38 578.81C1086.38 590.52 1073.31 590.52 1073.31 602.23C1073.31 613.94 1072.1 613.94 1072.1 625.65C1072.1 637.36 1087.12 637.36 1087.12 649.06C1087.12 660.76 1053.29 660.77 1053.29 672.47C1053.29 684.17 1041.48 684.18 1041.48 695.88C1041.48 707.58 1054.55 707.59 1054.55 719.29C1054.55 730.99 1062.88 731 1062.88 742.71C1062.88 754.42 1062.35 754.42 1062.35 766.12C1062.35 777.82 1108.27 777.83 1108.27 789.54C1108.27 801.25 1034.75 801.25 1034.75 812.95V813.01Z" fill="#262626" style="fill:#262626;fill:color(display-p3 0.1490 0.1490 0.1490);fill-opacity:1;"/>
<path d="M65.84 1414.94C78.03 1410.29 94.37 1405.25 94.37 1398.49C94.37 1396.25 93.89 1394.44 93.12 1392.89C95.76 1390.62 98.66 1388.58 103.86 1388.58C115.63 1388.58 115.62 1454.28 127.39 1454.28C139.16 1454.28 139.15 1387.23 150.92 1387.23C162.69 1387.23 162.68 1451.89 174.45 1451.89C186.22 1451.89 186.22 1404.85 197.98 1404.85C209.74 1404.85 209.74 1421.83 221.5 1421.83C233.26 1421.83 233.26 1424.66 245.02 1424.66C256.78 1424.66 256.78 1423.84 268.54 1423.84C280.3 1423.84 280.3 1420.41 292.06 1420.41C303.82 1420.41 303.82 1450.69 315.58 1450.69C327.34 1450.69 327.34 1408.96 339.1 1408.96C350.86 1408.96 350.86 1453.74 362.62 1453.74C374.38 1453.74 374.38 1432 386.14 1432C397.9 1432 397.9 1452.16 409.66 1452.16C421.42 1452.16 421.42 1435.69 433.18 1435.69C444.94 1435.69 444.94 1392.41 456.7 1392.41C468.46 1392.41 468.46 1438.03 480.22 1438.03C491.98 1438.03 491.98 1444.26 503.74 1444.26C515.5 1444.26 515.5 1402.53 527.26 1402.53C539.02 1402.53 539.02 1440.45 550.78 1440.45C562.54 1440.45 562.54 1446.05 574.3 1446.05C586.06 1446.05 586.06 1446.68 597.82 1446.68C609.58 1446.68 609.58 1404.14 621.34 1404.14C633.1 1404.14 633.1 1424.83 644.86 1424.83C656.62 1424.83 656.62 1455.94 668.38 1455.94C680.14 1455.94 680.14 1449.67 691.9 1449.67C703.66 1449.67 703.66 1390.62 715.42 1390.62C727.18 1390.62 727.18 1434.47 738.94 1434.47C750.7 1434.47 750.7 1406.37 762.46 1406.37C774.22 1406.37 774.22 1394.42 785.98 1394.42C797.74 1394.42 797.74 1458.89 809.5 1458.89C821.26 1458.89 821.26 1450.09 833.02 1450.09C844.78 1450.09 844.78 1432.38 856.54 1432.38C868.3 1432.38 868.3 1382.62 880.06 1382.62C891.82 1382.62 891.82 1382.66 903.58 1382.66C915.34 1382.66 915.34 1407.04 927.1 1407.04C938.86 1407.04 938.86 1460.52 950.62 1460.52C962.38 1460.52 962.38 1411.8 974.14 1411.8C985.9 1411.8 985.9 1390.77 997.66 1390.77C1009.42 1390.77 1009.42 1408.47 1021.18 1408.47C1032.94 1408.47 1032.94 1450.46 1044.7 1450.46C1056.46 1450.46 1055.01 1425.31 1063.34 1417.01C1071.64 1408.75 1079.16 1407.48 1078.14 1397.48C1076.95 1385.83 1050.7 1386.77 1050.7 1375.06C1050.7 1363.35 1101.87 1363.35 1101.87 1351.64C1101.87 1339.93 1091.77 1339.93 1091.77 1328.22C1091.77 1316.51 1036.87 1316.51 1036.87 1304.8C1036.87 1293.09 1093.32 1293.09 1093.32 1281.38C1093.32 1269.67 1105.5 1269.67 1105.5 1257.96C1105.5 1246.25 1066.11 1246.24 1066.11 1234.54C1066.11 1222.84 1048.16 1222.84 1048.16 1211.13C1048.16 1199.42 1090.14 1199.42 1090.14 1187.71C1090.14 1176 1093.06 1176 1093.06 1164.29C1093.06 1152.58 1039.66 1152.58 1039.66 1140.87C1039.66 1129.16 1042.34 1129.16 1042.34 1117.45C1042.34 1105.74 1031.06 1105.74 1031.06 1094.03C1031.06 1082.32 1055.22 1082.32 1055.22 1070.61C1055.22 1058.9 1055.04 1058.9 1055.04 1047.19C1055.04 1035.48 1071.6 1035.48 1071.6 1023.77C1071.6 1012.06 1100.36 1012.06 1100.36 1000.35C1100.36 988.64 1053.18 988.64 1053.18 976.93C1053.18 965.22 1090.62 965.22 1090.62 953.51C1090.62 941.8 1032.89 941.8 1032.89 930.09C1032.89 918.38 1077.12 918.38 1077.12 906.67C1077.12 894.96 1060.43 894.95 1060.43 883.25C1060.43 871.55 1083.2 871.55 1083.2 859.84C1083.2 848.13 1035.98 848.13 1035.98 836.42C1035.98 824.72 1034.75 824.72 1034.75 813.01V812.95C1034.75 801.25 1108.27 801.25 1108.27 789.54C1108.27 777.83 1062.35 777.82 1062.35 766.12C1062.35 754.42 1062.88 754.42 1062.88 742.71C1062.88 731 1054.55 730.99 1054.55 719.29C1054.55 707.59 1041.48 707.58 1041.48 695.88C1041.48 684.18 1053.29 684.17 1053.29 672.47C1053.29 660.77 1087.12 660.76 1087.12 649.06C1087.12 637.36 1072.1 637.36 1072.1 625.65C1072.1 613.94 1073.31 613.94 1073.31 602.23C1073.31 590.52 1086.38 590.52 1086.38 578.81C1086.38 567.1 1100.15 567.09 1100.15 555.39C1100.15 543.69 1054.2 543.69 1054.2 531.98C1054.2 520.27 1084.86 520.26 1084.86 508.56C1084.86 496.86 1050.32 496.85 1050.32 485.15C1050.32 473.45 1092.08 473.45 1092.08 461.74C1092.08 450.03 1103.27 450.02 1103.27 438.32C1103.27 426.62 1058.85 426.62 1058.85 414.91C1058.85 403.2 1047.24 403.19 1047.24 391.49C1047.24 379.79 1074.54 379.79 1074.54 368.08C1074.54 356.37 1046.5 356.36 1046.5 344.66C1046.5 332.96 1073.82 332.96 1073.82 321.25C1073.82 309.54 1106.07 309.53 1106.07 297.83C1106.07 286.13 1033.01 286.13 1033.01 274.42C1033.01 262.71 1028.62 262.7 1028.62 251C1028.62 239.3 1086.39 239.29 1086.39 227.59C1086.39 215.89 1072.55 215.88 1072.55 204.18C1072.55 192.48 1056.41 192.47 1056.41 180.77C1056.41 169.07 1063.81 169.07 1063.81 157.36C1063.81 145.65 1089.63 145.64 1089.63 133.94C1089.63 122.24 1053.6 122.24 1053.6 110.53C1053.6 98.82 1064.14 107.83 1055.84 99.57C1047.5 91.27 1056.46 89.7 1044.7 89.7C1032.94 89.7 1032.94 80.84 1021.17 80.84C1009.4 80.84 1009.41 82.98 997.64 82.98C985.87 82.98 985.88 70.3 974.11 70.3C962.34 70.3 962.35 82.81 950.58 82.81C938.81 82.81 938.81 93.11 927.05 93.11C915.29 93.11 915.29 122.89 903.53 122.89C891.77 122.89 891.77 97.99 880.01 97.99C868.25 97.99 868.25 49.99 856.49 49.99C844.73 49.99 844.73 120.54 832.97 120.54C821.21 120.54 821.21 66.26 809.45 66.26C797.69 66.26 797.69 108.53 785.93 108.53C774.17 108.53 774.17 59.99 762.41 59.99C750.65 59.99 750.65 123.92 738.89 123.92C727.13 123.92 727.13 112.4 715.37 112.4C703.61 112.4 703.61 114.54 691.85 114.54C680.09 114.54 680.09 115.45 668.33 115.45C656.57 115.45 656.57 77.32 644.81 77.32C633.05 77.32 633.05 58.29 621.29 58.29C609.53 58.29 609.53 71.2 597.77 71.2C586.01 71.2 586.01 51.99 574.25 51.99C562.49 51.99 562.49 97.69 550.73 97.69C538.97 97.69 538.97 84.48 527.21 84.48C515.45 84.48 515.45 57.81 503.69 57.81C491.93 57.81 491.93 55.31 480.17 55.31C468.41 55.31 468.41 85.86 456.65 85.86C444.89 85.86 444.89 103.11 433.13 103.11C421.37 103.11 421.37 61.94 409.61 61.94C397.85 61.94 397.85 77.05 386.09 77.05C374.33 77.05 374.33 52.4 362.57 52.4C350.81 52.4 350.81 93.07 339.05 93.07C327.29 93.07 327.29 119.39 315.53 119.39C303.77 119.39 303.77 73.75 292.01 73.75C280.25 73.75 280.25 99.8 268.49 99.8C256.73 99.8 256.73 123.32 244.97 123.32C233.21 123.32 233.21 81.69 221.45 81.69C209.69 81.69 209.69 70.54 197.93 70.54C186.17 70.54 186.17 113.62 174.41 113.62C162.65 113.62 162.65 87.12 150.89 87.12C139.13 87.12 139.13 84.88 127.37 84.88C115.61 84.88 115.61 51.97 103.85 51.97C92.09 51.97 92.09 55.99 80.33 55.99C68.57 55.99 67.51 81.23 59.18 89.53C50.88 97.79 79.93 98.85 79.93 110.57C79.93 122.29 92.63 122.29 92.63 134C92.63 145.71 82.78 145.71 82.78 157.42C82.78 169.13 45.67 169.13 45.67 180.84C45.67 192.55 80.89 192.55 80.89 204.26C80.89 215.97 31.17 215.97 31.17 227.68C31.17 239.39 38.43 239.39 38.43 251.1C38.43 262.81 75.37 262.82 75.37 274.52C75.37 286.22 27.59 286.22 27.59 297.93C27.59 309.64 37.04 309.64 37.04 321.35C37.04 333.06 88.13 333.06 88.13 344.77C88.13 356.48 94.52 356.48 94.52 368.19C94.52 379.9 62.29 379.9 62.29 391.61C62.29 403.32 36.42 403.32 36.42 415.03C36.42 426.74 63.35 426.74 63.35 438.45C63.35 450.16 39.02 450.16 39.02 461.87C39.02 473.58 36.9 473.58 36.9 485.29C36.9 497 67.46 497 67.46 508.71C67.46 520.42 81.47 520.42 81.47 532.13C81.47 543.84 69.25 543.84 69.25 555.55C69.25 567.26 67.2 567.26 67.2 578.97C67.2 590.68 67.58 590.68 67.58 602.39C67.58 614.1 71.33 614.11 71.33 625.81C71.33 637.51 31.6 637.51 31.6 649.22C31.6 660.93 93.86 660.94 93.86 672.64C93.86 684.34 66.02 684.35 66.02 696.05C66.02 707.75 68.66 707.75 68.66 719.46C68.66 731.17 92.37 731.18 92.37 742.88C92.37 754.58 84.67 754.58 84.67 766.29C84.67 778 63.38 778.01 63.38 789.71C63.38 801.41 92.9 801.42 92.9 813.12C92.9 824.82 43.78 824.83 43.78 836.53C43.78 848.23 69.55 848.24 69.55 859.94C69.55 871.64 41.22 871.64 41.22 883.35C41.22 895.06 58.3 895.06 58.3 906.77C58.3 918.48 27.74 918.48 27.74 930.19C27.74 941.9 40.89 941.9 40.89 953.61C40.89 965.32 23.99 965.32 23.99 977.03C23.99 988.74 52.02 988.74 52.02 1000.45C52.02 1012.16 96.79 1012.17 96.79 1023.87C96.79 1035.57 32.02 1035.57 32.02 1047.28C32.02 1058.99 75.72 1059 75.72 1070.7C75.72 1082.4 70.9 1082.4 70.9 1094.11C70.9 1105.82 76.56 1105.83 76.56 1117.53C76.56 1129.23 86.08 1129.23 86.08 1140.94C86.08 1152.65 73.93 1152.66 73.93 1164.36C73.93 1176.06 30.39 1176.06 30.39 1187.77C30.39 1199.48 32.51 1199.49 32.51 1211.19C32.51 1222.89 27.61 1222.89 27.61 1234.6C27.61 1246.31 23.79 1246.32 23.79 1258.02C23.79 1269.72 17.68 1269.73 17.68 1281.43C17.68 1293.13 81.87 1293.14 81.87 1304.84C81.87 1316.54 30.43 1316.55 30.43 1328.25C30.43 1339.95 34.41 1339.95 34.41 1351.66C34.41 1363.37 81.36 1363.37 81.36 1375.08C81.36 1384.55 89.86 1386.36 93.12 1392.9C89.79 1395.77 86.89 1399.01 80.33 1399.01C74.5 1399.01 69.95 1407.45 65.84 1414.94ZM65.84 1414.94C61.66 1422.55 57.92 1429.19 53.72 1425.01C50.22 1421.52 56.92 1418.34 65.84 1414.94ZM0 0V1509H1125V0H0Z" stroke="white" style="stroke:white;stroke-opacity:1;" stroke-width="1.02" stroke-miterlimit="10"/>
<path d="M450.35 1256.96C452.43 1257.86 454.51 1258.76 456.6 1259.66C453.8 1269.52 450.18 1277.52 445.81 1283.67C441.44 1289.82 435.2 1295.14 427.11 1299.57C419.02 1304.01 409.79 1307.02 399.44 1308.53C393.92 1309.34 387.24 1310 379.39 1310.47C377.04 1359.66 374.7 1408.86 372.35 1458.05C389.6 1451.3 403.45 1443.46 413.89 1434.84C424.32 1426.21 434.19 1414.54 443.46 1399.87C445.59 1400.4 447.71 1400.93 449.84 1401.46C444.25 1415.35 438.01 1426.79 431.1 1435.75C420.02 1450.23 406.01 1462.5 389.11 1472.34C372.2 1482.17 352.9 1488.45 331.23 1490.73C310.11 1492.95 290.53 1490.98 272.49 1484.88C262.03 1481.32 252.56 1475.89 244.09 1468.65C235.61 1461.41 228.79 1452.45 223.65 1441.88C218.51 1431.31 216.26 1419.31 216.9 1405.96C217.53 1392.51 221.21 1379.72 227.94 1367.49C234.67 1355.26 244.27 1343.52 256.77 1332.02C264.71 1324.81 275.82 1316.7 290.1 1307.4C283.08 1307.49 276.07 1307.5 269.06 1307.44C261.27 1307.35 252.56 1309.01 242.94 1312.35C233.32 1315.69 225.74 1319.95 220.2 1325.31C214.66 1330.67 209.68 1338.66 205.28 1349.32C203.18 1348.14 201.09 1346.96 198.99 1345.76C203.44 1332.12 208.86 1321.56 215.25 1314.04C223.77 1304.04 234.75 1296.29 248.21 1290.53C261.67 1284.76 276.85 1281.46 293.77 1280.41C305.54 1279.67 326.22 1280.37 355.9 1281.18C385.59 1281.95 406.06 1280.86 417.32 1279.15C424.86 1277.98 430.67 1276.05 434.76 1273.4C438.86 1270.75 444.06 1265.28 450.37 1256.96H450.35ZM308.94 1307.6C305.98 1307.59 303.02 1307.56 300.06 1307.53C284.5 1319.78 272.94 1331.43 265.34 1342.89C255.11 1358.32 249.61 1373.91 248.85 1389.9C247.55 1417.12 259.35 1439.39 284.3 1455.1C292.77 1448.66 297.99 1443.45 299.96 1439.61C301.92 1435.77 303.19 1428.15 303.73 1416.75C305.46 1380.37 307.2 1343.98 308.93 1307.6H308.94ZM371.69 1310.19C361.06 1310.3 351.68 1310.04 343.56 1309.46C342.17 1338.59 340.78 1367.73 339.39 1396.86C338.91 1407.09 338.11 1413.65 337.03 1416.52C335.93 1419.4 333.58 1422.78 329.93 1426.64C323.36 1433.3 310.33 1444.15 290.88 1458.49C300.1 1461.84 307.6 1463.87 313.38 1464.71C323.36 1466.14 333.03 1466.31 342.35 1465.26C347.28 1464.7 354.68 1463.31 364.51 1460.98C366.91 1410.72 369.3 1360.45 371.7 1310.18L371.69 1310.19Z" fill="#184F6A" style="fill:#184F6A;fill:color(display-p3 0.0941 0.3098 0.4157);fill-opacity:1;"/>
<path d="M568.03 1318.67C566.29 1355.1 564.55 1391.54 562.82 1427.97C545.6 1437.1 533.09 1444.29 525.35 1449.51C519.45 1453.42 513.75 1457.97 508.24 1463.14C492.27 1457.63 479 1454.16 468.44 1452.76C460.44 1451.68 451.3 1451.83 441.05 1453.19C440.53 1452.31 440.02 1451.43 439.5 1450.55C443.93 1446.71 446.76 1443.42 448.01 1440.69C449.74 1437.1 450.8 1431.36 451.18 1423.48C452.45 1396.74 453.73 1370 455 1343.26C475.94 1333.75 494.02 1322.12 509.22 1308.58C524.83 1314.76 544.42 1318.09 568.01 1318.67H568.03ZM484.82 1428.51C499.29 1431.04 513.76 1433.49 528.23 1435.93L532.65 1343.14C519.05 1340.15 509.41 1338.28 503.74 1337.57C499.74 1337.04 494.88 1336.87 489.18 1337.03C487.73 1367.52 486.27 1398.01 484.82 1428.5V1428.51Z" fill="#184F6A" style="fill:#184F6A;fill:color(display-p3 0.0941 0.3098 0.4157);fill-opacity:1;"/>
<path d="M688.231 1276.59C699.511 1279.82 710.781 1283.15 722.051 1286.62C717.001 1295.73 711.951 1304.85 706.901 1314C697.361 1311.27 687.831 1308.62 678.291 1306.05C671.671 1318.08 665.061 1330.14 658.441 1342.22C663.741 1350.9 669.041 1359.6 674.341 1368.32C681.381 1379.21 687.511 1387.39 692.671 1392.83C697.831 1398.27 702.051 1401.6 705.321 1402.81C707.171 1403.53 708.871 1403.79 710.431 1403.58C712.661 1403.28 715.911 1401.4 720.181 1397.95C721.321 1399.23 722.461 1400.51 723.601 1401.8C712.491 1411.4 701.381 1421.12 690.271 1430.95C682.771 1429.82 676.251 1426.8 670.701 1421.85C661.831 1414.02 651.531 1398.83 639.801 1376.3C627.221 1399.34 614.631 1422.46 602.041 1445.62C590.421 1442.56 578.801 1439.55 567.181 1436.57C572.461 1426.94 577.731 1417.32 583.011 1407.7C592.641 1410.36 602.281 1413.04 611.911 1415.77C619.991 1400.95 628.061 1386.16 636.141 1371.4C626.281 1351.92 615.601 1336.68 604.111 1325.66C598.261 1319.93 592.971 1317.51 588.211 1318.39C584.921 1319 580.701 1321.62 575.541 1326.25C574.231 1324.97 572.921 1323.7 571.621 1322.42C584.241 1311.53 596.861 1300.67 609.471 1289.86C618.681 1292.44 625.811 1296.28 630.861 1301.35C637.631 1308.11 645.621 1320.06 654.851 1337.25C665.981 1316.96 677.111 1296.74 688.241 1276.6L688.231 1276.59Z" fill="#184F6A" style="fill:#184F6A;fill:color(display-p3 0.0941 0.3098 0.4157);fill-opacity:1;"/>
<path d="M773.24 1216.31C780.37 1215.64 787.5 1215.04 794.62 1214.51C786.38 1225.61 778.13 1236.79 769.88 1248.05C767.63 1248.26 765.39 1248.48 763.14 1248.71C766.51 1237.9 769.87 1227.1 773.23 1216.31H773.24ZM758.14 1267.55C767.77 1273.69 777.39 1279.96 787.01 1286.36C782.4 1290.43 777.79 1294.53 773.18 1298.66L769.39 1378.15C768.98 1386.52 769.54 1391.91 771.04 1394.3C772.54 1396.69 774.16 1397.81 775.88 1397.67C777.1 1397.57 778.22 1397.23 779.26 1396.66C780.69 1395.87 783.76 1393.68 788.35 1390.14C789.65 1391.55 790.95 1392.96 792.25 1394.38C779.82 1403.68 767.38 1413.19 754.93 1422.88C746.18 1418.24 740.6 1413.68 738.25 1409.05C735.89 1404.43 734.99 1395.98 735.58 1383.71C736.88 1356.53 738.17 1329.35 739.47 1302.17C735.44 1298.94 731.39 1295.73 727.36 1292.54C737.62 1284.1 747.89 1275.76 758.14 1267.54V1267.55Z" fill="#184F6A" style="fill:#184F6A;fill:color(display-p3 0.0941 0.3098 0.4157);fill-opacity:1;"/>
<path d="M851.531 1261.87C865.701 1268.94 879.851 1276.38 893.971 1284.25C887.671 1291.56 881.371 1298.95 875.061 1306.4C864.411 1300.67 853.741 1295.18 843.071 1289.89L838.631 1383.11C849.441 1387.17 860.231 1391.45 871.021 1395.96C877.041 1392.39 883.051 1388.89 889.061 1385.46C889.551 1387.57 890.041 1389.68 890.531 1391.79C876.301 1400.02 862.071 1408.63 847.801 1417.6C837.311 1412.42 828.341 1408.81 820.861 1406.62C813.371 1404.43 804.141 1402.72 793.141 1401.61L793.311 1398.1C797.341 1395.5 800.041 1392.81 801.411 1390.01C803.391 1386.1 804.551 1380.11 804.951 1372.03C806.271 1344.32 807.591 1316.6 808.911 1288.89C823.161 1282.54 837.361 1273.53 851.521 1261.88L851.531 1261.87Z" fill="#184F6A" style="fill:#184F6A;fill:color(display-p3 0.0941 0.3098 0.4157);fill-opacity:1;"/>
<path d="M209.57 1355.59L260.33 1351.34C263.15 1351.11 265.81 1352.39 267.05 1354.59C268.29 1356.79 267.86 1359.46 265.97 1361.33L187.16 1439.08C179.19 1446.94 168.14 1451.87 156.3 1452.87L122.99 1455.66C120.17 1455.9 117.5 1454.61 116.26 1452.41C115.02 1450.21 115.45 1447.54 117.35 1445.66L186.45 1377.49C188.35 1375.62 188.78 1372.95 187.54 1370.75C186.3 1368.55 183.64 1367.26 180.81 1367.5L152.73 1369.85C140.89 1370.84 129.17 1367.81 120.01 1361.38L84.2801 1336.32C82.1001 1334.79 81.2301 1332.23 82.0901 1329.85C82.9501 1327.47 85.3601 1325.76 88.1801 1325.53L121.49 1322.74C133.34 1321.75 145.05 1324.78 154.22 1331.21L176.87 1347.13C186.02 1353.55 197.73 1356.58 209.56 1355.59H209.57Z" fill="#CEDBEA" style="fill:#CEDBEA;fill:color(display-p3 0.8078 0.8588 0.9176);fill-opacity:1;"/>
<path d="M327.27 1359.05C326.02 1356.85 323.35 1355.56 320.52 1355.81L292.51 1358.15C280.67 1359.14 268.94 1356.11 259.78 1349.68L224.06 1324.62C221.88 1323.09 221.01 1320.53 221.87 1318.15C222.73 1315.77 225.14 1314.06 227.96 1313.83L261.27 1311.04C273.11 1310.05 284.84 1313.08 294 1319.51L316.65 1335.43C325.81 1341.86 337.53 1344.89 349.37 1343.9L400.05 1339.66C402.87 1339.43 405.53 1340.71 406.77 1342.91C408.01 1345.11 407.58 1347.78 405.69 1349.65C404.71 1350.62 404.49 1352 405.13 1353.13C405.77 1354.26 407.15 1354.93 408.6 1354.81L461.73 1350.36C464.55 1350.12 467.21 1351.41 468.45 1353.61C469.69 1355.81 469.26 1358.48 467.37 1360.35L406.15 1420.76C398.19 1428.61 387.15 1433.55 375.32 1434.55L262.72 1443.98C259.9 1444.22 257.23 1442.93 255.99 1440.73C254.75 1438.53 255.18 1435.86 257.08 1433.99L326.18 1365.82C328.09 1363.94 328.52 1361.27 327.27 1359.06V1359.05ZM381.11 1373.89L338.09 1416.36C337.11 1417.32 336.89 1418.7 337.53 1419.83C338.17 1420.96 339.54 1421.62 340.99 1421.5C341.9 1421.42 342.76 1421.04 343.37 1420.43L386.38 1377.96C387.36 1377 387.58 1375.63 386.94 1374.5C386.3 1373.37 384.94 1372.71 383.49 1372.83C382.58 1372.91 381.73 1373.28 381.11 1373.88V1373.89Z" fill="#CEDBEA" style="fill:#CEDBEA;fill:color(display-p3 0.8078 0.8588 0.9176);fill-opacity:1;"/>
<path d="M574.62 1377.63L528.85 1381.46C517.01 1382.45 505.96 1387.39 497.99 1395.25L478.3 1414.71C470.34 1422.57 459.28 1427.52 447.44 1428.5L414.12 1431.29C411.3 1431.52 408.64 1430.24 407.4 1428.04C406.16 1425.84 406.59 1423.17 408.48 1421.3L439.54 1390.64C447.5 1382.79 458.55 1377.85 470.38 1376.86L498.46 1374.51C501.28 1374.27 503.69 1372.56 504.55 1370.19C505.41 1367.81 504.54 1365.25 502.36 1363.72L422.89 1307.99C420.71 1306.46 419.84 1303.9 420.7 1301.52C421.56 1299.14 423.97 1297.43 426.79 1297.2L460.1 1294.41C471.94 1293.42 483.66 1296.45 492.82 1302.87L543.51 1338.42C546.36 1340.42 550.56 1340.07 553.05 1337.62L597.13 1294.13C605.1 1286.27 616.15 1281.34 627.99 1280.35L661.27 1277.56C664.09 1277.32 666.76 1278.61 668 1280.81C669.24 1283.01 668.81 1285.68 666.91 1287.55L597.81 1355.72C595.91 1357.59 595.48 1360.26 596.72 1362.46C597.96 1364.66 600.63 1365.95 603.45 1365.71L631.53 1363.36C643.37 1362.37 655.09 1365.4 664.25 1371.83L699.98 1396.89C702.16 1398.42 703.03 1400.98 702.17 1403.36C701.31 1405.74 698.9 1407.45 696.08 1407.68L662.77 1410.47C650.93 1411.46 639.2 1408.43 630.04 1402L607.38 1386.08C598.22 1379.64 586.49 1376.61 574.63 1377.6L574.62 1377.63Z" fill="#CEDBEA" style="fill:#CEDBEA;fill:color(display-p3 0.8078 0.8588 0.9176);fill-opacity:1;"/>
<path d="M756.11 1309.84L806.78 1305.6C809.6 1305.36 812.26 1306.65 813.5 1308.85C814.74 1311.05 814.31 1313.72 812.42 1315.59L733.62 1393.34C725.65 1401.2 714.6 1406.13 702.76 1407.12L669.48 1409.91C666.66 1410.15 663.99 1408.86 662.75 1406.66C661.51 1404.46 661.94 1401.79 663.84 1399.92L732.94 1331.75C734.84 1329.88 735.27 1327.21 734.03 1325.01C732.79 1322.81 730.12 1321.52 727.3 1321.76L699.25 1324.11C687.41 1325.1 675.69 1322.07 666.53 1315.64L630.81 1290.58C628.63 1289.05 627.76 1286.49 628.62 1284.11C629.48 1281.73 631.89 1280.02 634.71 1279.79L668.02 1277C679.86 1276.01 691.59 1279.04 700.75 1285.47L723.4 1301.39C732.56 1307.81 744.28 1310.85 756.12 1309.85L756.11 1309.84Z" fill="#CEDBEA" style="fill:#CEDBEA;fill:color(display-p3 0.8078 0.8588 0.9176);fill-opacity:1;"/>
<path d="M918.89 1389.04L785.52 1400.21C782.7 1400.44 780.04 1399.16 778.8 1396.96C777.56 1394.76 777.99 1392.09 779.88 1390.22L841.08 1329.82C849.05 1321.96 860.1 1317.02 871.94 1316.03L984.45 1306.61C987.27 1306.37 989.94 1307.66 991.18 1309.86C992.42 1312.06 991.99 1314.73 990.09 1316.6L964.66 1341.69C956.69 1349.55 945.64 1354.48 933.8 1355.48L900.48 1358.27C897.66 1358.51 894.99 1357.22 893.75 1355.02C892.51 1352.82 892.94 1350.15 894.84 1348.28L908.87 1334.44C909.84 1333.49 910.06 1332.12 909.42 1331C908.79 1329.88 907.43 1329.22 905.99 1329.34C905.08 1329.42 904.24 1329.79 903.63 1330.4L866.75 1366.8C864.86 1368.67 864.43 1371.34 865.67 1373.54C866.91 1375.74 869.57 1377.02 872.39 1376.79L963.78 1369.14C975.62 1368.15 987.34 1371.18 996.5 1377.61L1040.7 1408.62C1042.88 1410.15 1043.75 1412.71 1042.9 1415.09C1042.04 1417.47 1039.63 1419.18 1036.81 1419.41L1004.99 1422.07C992.26 1423.14 979.71 1419.55 970.33 1412.17L953.53 1398.95C944.15 1391.57 931.61 1387.99 918.88 1389.05L918.89 1389.04Z" fill="#CEDBEA" style="fill:#CEDBEA;fill:color(display-p3 0.8078 0.8588 0.9176);fill-opacity:1;"/>
<path d="M434.55 1254.72C436.63 1255.62 438.71 1256.52 440.8 1257.42C438 1267.28 434.38 1275.28 430.01 1281.43C425.64 1287.58 419.4 1292.9 411.31 1297.33C403.22 1301.77 393.99 1304.78 383.64 1306.29C378.12 1307.1 371.44 1307.76 363.59 1308.23C361.24 1357.42 358.9 1406.62 356.55 1455.81C373.8 1449.06 387.65 1441.22 398.09 1432.6C408.52 1423.97 418.39 1412.3 427.66 1397.63C429.79 1398.16 431.91 1398.69 434.04 1399.22C428.45 1413.11 422.21 1424.55 415.3 1433.51C404.22 1447.99 390.21 1460.26 373.31 1470.1C356.4 1479.93 337.1 1486.21 315.43 1488.49C294.31 1490.71 274.73 1488.74 256.69 1482.64C246.23 1479.08 236.76 1473.65 228.29 1466.41C219.81 1459.17 212.99 1450.21 207.85 1439.64C202.71 1429.07 200.46 1417.07 201.1 1403.72C201.73 1390.27 205.41 1377.48 212.14 1365.25C218.87 1353.02 228.47 1341.28 240.97 1329.78C248.91 1322.57 260.02 1314.46 274.3 1305.16C267.28 1305.25 260.27 1305.26 253.26 1305.2C245.47 1305.11 236.76 1306.77 227.14 1310.11C217.52 1313.45 209.94 1317.71 204.4 1323.07C198.86 1328.43 193.88 1336.42 189.48 1347.08C187.38 1345.9 185.29 1344.72 183.19 1343.52C187.64 1329.88 193.06 1319.32 199.45 1311.8C207.97 1301.8 218.95 1294.05 232.41 1288.29C245.87 1282.52 261.05 1279.22 277.97 1278.17C289.74 1277.43 310.42 1278.13 340.1 1278.94C369.79 1279.71 390.26 1278.62 401.52 1276.91C409.06 1275.74 414.87 1273.81 418.96 1271.16C423.06 1268.51 428.26 1263.04 434.57 1254.72H434.55ZM293.14 1305.36C290.18 1305.35 287.22 1305.32 284.26 1305.29C268.7 1317.54 257.14 1329.19 249.54 1340.65C239.31 1356.08 233.81 1371.67 233.05 1387.66C231.75 1414.88 243.55 1437.15 268.5 1452.86C276.97 1446.42 282.19 1441.21 284.16 1437.37C286.12 1433.53 287.39 1425.91 287.93 1414.51C289.66 1378.13 291.4 1341.74 293.13 1305.36H293.14ZM355.9 1307.95C345.27 1308.06 335.89 1307.8 327.77 1307.22C326.38 1336.35 324.99 1365.49 323.6 1394.62C323.12 1404.85 322.32 1411.41 321.24 1414.28C320.14 1417.16 317.79 1420.54 314.14 1424.4C307.57 1431.06 294.54 1441.91 275.09 1456.25C284.31 1459.6 291.81 1461.63 297.59 1462.47C307.57 1463.9 317.24 1464.07 326.56 1463.02C331.49 1462.46 338.89 1461.07 348.72 1458.74C351.12 1408.48 353.51 1358.21 355.91 1307.94L355.9 1307.95Z" fill="#CEFE51" stroke="#184F6A" style="fill:#CEFE51;fill:color(display-p3 0.8078 0.9961 0.3176);fill-opacity:1;stroke:#184F6A;stroke:color(display-p3 0.0941 0.3098 0.4157);stroke-opacity:1;" stroke-width="0.71" stroke-miterlimit="10"/>
<path d="M552.23 1316.43C550.49 1352.86 548.75 1389.3 547.02 1425.73C529.8 1434.86 517.29 1442.05 509.55 1447.27C503.65 1451.18 497.95 1455.73 492.44 1460.9C476.47 1455.39 463.2 1451.92 452.64 1450.52C444.64 1449.44 435.5 1449.59 425.25 1450.95C424.73 1450.07 424.22 1449.19 423.7 1448.31C428.13 1444.47 430.96 1441.18 432.21 1438.45C433.94 1434.86 435 1429.12 435.38 1421.24C436.65 1394.5 437.93 1367.76 439.2 1341.02C460.14 1331.51 478.22 1319.88 493.42 1306.34C509.03 1312.52 528.62 1315.85 552.21 1316.43H552.23ZM469.03 1426.27C483.5 1428.8 497.97 1431.25 512.44 1433.69C513.91 1402.76 515.39 1371.83 516.86 1340.9C503.26 1337.91 493.62 1336.04 487.95 1335.33C483.95 1334.8 479.09 1334.63 473.39 1334.79C471.94 1365.28 470.48 1395.77 469.03 1426.26V1426.27Z" fill="#CEFE51" stroke="#184F6A" style="fill:#CEFE51;fill:color(display-p3 0.8078 0.9961 0.3176);fill-opacity:1;stroke:#184F6A;stroke:color(display-p3 0.0941 0.3098 0.4157);stroke-opacity:1;" stroke-width="0.71" stroke-miterlimit="10"/>
<path d="M672.43 1274.35C683.71 1277.58 694.98 1280.91 706.25 1284.38C701.2 1293.49 696.15 1302.61 691.1 1311.76C681.56 1309.03 672.03 1306.38 662.49 1303.81C655.87 1315.84 649.26 1327.9 642.64 1339.98C647.94 1348.66 653.24 1357.36 658.54 1366.08C665.58 1376.97 671.71 1385.15 676.87 1390.59C682.03 1396.03 686.25 1399.36 689.52 1400.57C691.37 1401.29 693.07 1401.55 694.63 1401.34C696.86 1401.04 700.11 1399.16 704.38 1395.71C705.52 1396.99 706.66 1398.27 707.8 1399.56C696.69 1409.16 685.58 1418.88 674.47 1428.71C666.97 1427.58 660.45 1424.56 654.9 1419.61C646.03 1411.78 635.73 1396.59 624 1374.06C611.42 1397.1 598.83 1420.22 586.24 1443.38C574.62 1440.32 563 1437.31 551.38 1434.33C556.66 1424.7 561.93 1415.08 567.21 1405.46C576.84 1408.12 586.48 1410.8 596.11 1413.53C604.19 1398.71 612.26 1383.92 620.34 1369.16C610.48 1349.68 599.8 1334.44 588.31 1323.42C582.46 1317.69 577.17 1315.27 572.41 1316.15C569.12 1316.76 564.9 1319.38 559.74 1324.01C558.43 1322.73 557.12 1321.46 555.82 1320.18C568.44 1309.29 581.06 1298.43 593.67 1287.62C602.88 1290.2 610.01 1294.04 615.06 1299.11C621.83 1305.87 629.82 1317.82 639.05 1335.01C650.18 1314.72 661.31 1294.5 672.44 1274.36L672.43 1274.35Z" fill="#CEFE51" stroke="#184F6A" style="fill:#CEFE51;fill:color(display-p3 0.8078 0.9961 0.3176);fill-opacity:1;stroke:#184F6A;stroke:color(display-p3 0.0941 0.3098 0.4157);stroke-opacity:1;" stroke-width="0.71" stroke-miterlimit="10"/>
<path d="M757.45 1214.07C764.58 1213.4 771.71 1212.8 778.83 1212.27C770.59 1223.37 762.34 1234.55 754.09 1245.81C751.84 1246.02 749.6 1246.24 747.35 1246.47C750.72 1235.66 754.08 1224.86 757.44 1214.07H757.45ZM742.34 1265.31C751.97 1271.45 761.59 1277.72 771.21 1284.12C766.6 1288.19 761.99 1292.29 757.38 1296.42L753.59 1375.91C753.18 1384.28 753.74 1389.67 755.24 1392.06C756.74 1394.45 758.36 1395.57 760.08 1395.43C761.3 1395.33 762.42 1394.99 763.46 1394.42C764.89 1393.63 767.96 1391.44 772.55 1387.9C773.85 1389.31 775.15 1390.72 776.45 1392.14C764.02 1401.44 751.58 1410.95 739.13 1420.64C730.38 1416 724.8 1411.44 722.45 1406.81C720.09 1402.19 719.19 1393.74 719.78 1381.47C721.08 1354.29 722.37 1327.11 723.67 1299.93C719.64 1296.7 715.59 1293.49 711.56 1290.3C721.82 1281.86 732.09 1273.52 742.34 1265.3V1265.31Z" fill="#CEFE51" stroke="#184F6A" style="fill:#CEFE51;fill:color(display-p3 0.8078 0.9961 0.3176);fill-opacity:1;stroke:#184F6A;stroke:color(display-p3 0.0941 0.3098 0.4157);stroke-opacity:1;" stroke-width="0.71" stroke-miterlimit="10"/>
<path d="M835.74 1259.62C849.91 1266.69 864.06 1274.13 878.18 1282C871.88 1289.31 865.58 1296.7 859.27 1304.15C848.62 1298.42 837.95 1292.93 827.28 1287.64L822.84 1380.86C833.65 1384.92 844.44 1389.2 855.23 1393.71C861.25 1390.14 867.26 1386.64 873.27 1383.21C873.76 1385.32 874.25 1387.43 874.74 1389.54C860.51 1397.77 846.28 1406.38 832.01 1415.35C821.52 1410.17 812.55 1406.56 805.07 1404.37C797.58 1402.18 788.35 1400.47 777.35 1399.36L777.52 1395.85C781.55 1393.25 784.25 1390.56 785.62 1387.76C787.6 1383.85 788.76 1377.86 789.16 1369.78C790.48 1342.07 791.8 1314.35 793.12 1286.64C807.37 1280.29 821.57 1271.28 835.73 1259.63L835.74 1259.62Z" fill="#CEFE51" stroke="#184F6A" style="fill:#CEFE51;fill:color(display-p3 0.8078 0.9961 0.3176);fill-opacity:1;stroke:#184F6A;stroke:color(display-p3 0.0941 0.3098 0.4157);stroke-opacity:1;" stroke-width="0.71" stroke-miterlimit="10"/>
<path d="M254.84 1282.09C234.38 1283.42 232.43 1285.19 229.17 1305.43C227.84 1284.97 226.07 1283.02 205.83 1279.76C226.29 1278.43 228.24 1276.66 231.5 1256.42C232.83 1276.88 234.6 1278.83 254.84 1282.09Z" fill="white" style="fill:white;fill-opacity:1;"/>
<path d="M865.84 1408.49C845.38 1409.82 843.43 1411.59 840.17 1431.83C838.84 1411.37 837.07 1409.42 816.83 1406.16C837.29 1404.83 839.24 1403.06 842.5 1382.82C843.83 1403.28 845.6 1405.23 865.84 1408.49Z" fill="white" style="fill:white;fill-opacity:1;"/>
<path d="M745.01 1279.3C724.55 1280.63 722.6 1282.4 719.34 1302.64C718.01 1282.18 716.24 1280.23 696 1276.97C716.46 1275.64 718.41 1273.87 721.67 1253.63C723 1274.09 724.77 1276.04 745.01 1279.3Z" fill="white" style="fill:white;fill-opacity:1;"/>
<path d="M670.22 1370.44C649.76 1371.77 647.81 1373.54 644.55 1393.78C643.22 1373.32 641.45 1371.37 621.21 1368.11C641.67 1366.78 643.62 1365.01 646.88 1344.77C648.21 1365.23 649.98 1367.18 670.22 1370.44Z" fill="white" style="fill:white;fill-opacity:1;"/>
<path d="M494.88 1399.28C474.42 1400.61 472.47 1402.38 469.21 1422.62C467.88 1402.16 466.11 1400.21 445.87 1396.95C466.33 1395.62 468.28 1393.85 471.54 1373.61C472.87 1394.07 474.64 1396.02 494.88 1399.28Z" fill="white" style="fill:white;fill-opacity:1;"/>
</g>
<defs>
<clipPath id="clip0_2384_997">
<rect width="1125" height="1509" fill="white" style="fill:white;fill-opacity:1;"/>
</clipPath>
</defs>
</svg>
