<svg width="181" height="127" viewBox="0 0 181 127" fill="none" xmlns="http://www.w3.org/2000/svg">
<path d="M16.0411 32.3437C16.0411 32.3437 12.611 10.1737 30.401 6.11368C48.201 2.05368 58.1911 19.5437 57.8811 22.0337C57.8811 22.0337 61.6311 3.29368 80.9911 1.11368C100.351 -1.07632 105.971 20.1637 105.971 20.1637C105.971 20.1637 110.971 3.30368 127.201 3.30368C143.431 3.30368 144.371 17.3537 143.121 23.2837C143.121 23.2837 161.231 4.23369 175.281 28.5937C189.331 52.9537 162.481 57.9437 162.481 57.9437C162.481 57.9437 179.031 70.4337 168.411 83.5437C157.791 96.6537 140.931 86.9737 140.931 86.9737C140.931 86.9737 137.501 108.524 116.261 108.204C95.0211 107.884 89.7211 90.4037 89.7211 90.4037C89.7211 90.4037 85.9711 104.764 75.9811 107.574C65.9911 110.384 56.3111 105.704 56.3111 105.704L31.8011 125.534L47.8811 100.394C47.8811 100.394 43.2011 96.6437 43.5111 91.0237C43.5111 91.0237 33.8311 105.384 21.9611 95.7037C10.0911 86.0237 19.151 71.9737 19.151 71.9737C19.151 71.9737 1.98106 69.1637 1.04106 51.9937C0.10106 34.8237 16.0311 32.3237 16.0311 32.3237L16.0411 32.3437Z" fill="#C9E2A8" style="fill:#C9E2A8;fill:color(display-p3 0.7882 0.8863 0.6588);fill-opacity:1;"/>
<path d="M31.8011 126.554C31.5611 126.554 31.321 126.464 31.131 126.304C30.761 125.974 30.6911 125.434 30.9511 125.024L46.5811 100.604C45.4811 99.5237 43.351 97.0737 42.691 93.6837C40.681 95.9237 36.961 99.2637 32.191 99.9737C28.461 100.524 24.8111 99.3637 21.3311 96.5337C14.8311 91.2337 14.371 84.6737 15.121 80.1037C15.661 76.8537 16.861 74.1737 17.621 72.7037C13.401 71.5637 0.851053 66.9537 0.0410527 52.1037C-0.468947 42.7837 3.87105 37.6337 7.60105 34.9637C10.5111 32.8737 13.471 31.9537 14.931 31.5937C14.521 27.2137 13.8311 8.90368 30.1711 5.18368C40.1211 2.91368 47.401 7.12368 51.751 11.0537C54.581 13.6137 56.6711 16.5237 57.8311 18.8137C59.8911 13.2337 65.901 1.85368 80.871 0.163678C96.641 -1.61632 103.711 11.5837 106.021 17.3437C108.241 12.4637 114.391 2.34369 127.201 2.34369C133.261 2.34369 137.861 4.22367 140.861 7.92367C143.931 11.7037 144.741 16.7337 144.471 20.7737C147.461 18.3537 153.361 14.5437 160.171 15.3537C166.301 16.0837 171.671 20.3837 176.151 28.1437C180.541 35.7437 181.501 42.3437 179.001 47.7437C175.871 54.5237 168.241 57.4537 164.621 58.4937C167.171 60.8137 172.061 66.0337 172.861 72.5437C173.361 76.6637 172.131 80.6037 169.191 84.2337C164.621 89.8837 158.171 92.3037 150.551 91.2337C146.581 90.6737 143.301 89.3237 141.631 88.5237C140.431 93.2937 135.051 109.274 116.721 109.284C116.561 109.284 116.411 109.284 116.251 109.284C104.921 109.114 98.0611 104.114 94.2911 99.9337C92.1011 97.5037 90.691 95.1037 89.841 93.3637C88.201 97.7937 84.0811 106.414 76.2611 108.614C67.3211 111.134 58.761 107.924 56.471 106.944L32.441 126.384C32.261 126.534 32.031 126.604 31.811 126.604L31.8011 126.554ZM43.5111 90.0537C43.6211 90.0537 43.7211 90.0737 43.8311 90.1037C44.2611 90.2437 44.5311 90.6537 44.5111 91.1037C44.2311 96.1537 48.4711 99.6037 48.5111 99.6337C48.9111 99.9537 49.0011 100.524 48.7311 100.954L35.971 120.894L55.691 104.944C55.991 104.704 56.411 104.654 56.751 104.824C56.841 104.874 66.221 109.304 75.721 106.634C85.041 104.014 88.7311 90.3037 88.7611 90.1737C88.8711 89.7437 89.2611 89.4337 89.7111 89.4237C90.1411 89.4437 90.5611 89.7037 90.691 90.1337C90.701 90.1737 92.031 94.4037 95.841 98.6037C100.931 104.204 107.801 107.104 116.291 107.224C116.431 107.224 116.581 107.224 116.721 107.224C136.481 107.224 139.921 87.0337 139.961 86.8337C140.011 86.5137 140.221 86.2337 140.521 86.0937C140.821 85.9537 141.161 85.9637 141.451 86.1237C142.111 86.5037 157.711 95.2137 167.651 82.9237C170.231 79.7337 171.321 76.3137 170.891 72.7437C169.941 64.9137 161.971 58.8037 161.891 58.7437C161.571 58.5037 161.431 58.1037 161.521 57.7137C161.611 57.3237 161.921 57.0337 162.311 56.9637C162.421 56.9437 173.561 54.7737 177.201 46.8537C179.401 42.0737 178.471 36.0937 174.431 29.0937C170.291 21.9237 165.421 17.9537 159.961 17.2937C151.331 16.2637 143.931 23.8937 143.861 23.9737C143.551 24.2937 143.071 24.3737 142.671 24.1637C142.271 23.9537 142.071 23.5137 142.161 23.0737C142.811 19.9937 142.941 13.5937 139.321 9.13368C136.721 5.92368 132.641 4.29368 127.211 4.29368C111.931 4.29368 107.131 19.7837 106.941 20.4437C106.811 20.8737 106.401 21.1437 105.971 21.1537C105.521 21.1537 105.131 20.8437 105.021 20.4137C104.801 19.5837 99.381 0.0436804 81.121 2.10368C62.701 4.18368 58.9211 22.0437 58.8811 22.2237C58.771 22.7537 58.2711 23.1037 57.7411 23.0137C57.2111 22.9237 56.841 22.4337 56.911 21.9037C56.9711 20.9437 54.6011 15.9937 49.7711 11.9037C45.8711 8.60368 39.3911 5.08368 30.6411 7.07368C23.6811 8.66368 19.2811 13.3137 17.5511 20.9037C16.2311 26.7037 17.0411 32.1237 17.0411 32.1737C17.1211 32.7137 16.7511 33.2237 16.2111 33.3137C15.6011 33.4137 1.19104 35.9037 2.06104 51.9437C2.94104 68.0937 18.6711 70.8837 19.3311 70.9937C19.6611 71.0537 19.9411 71.2637 20.0811 71.5737C20.2211 71.8837 20.1911 72.2337 20.0111 72.5237C19.9911 72.5537 17.831 75.9637 17.101 80.4437C16.151 86.3037 18.0011 91.1837 22.6111 94.9437C25.6311 97.4037 28.761 98.4237 31.901 97.9637C38.191 97.0437 42.651 90.5437 42.691 90.4737C42.881 90.1937 43.1911 90.0337 43.5211 90.0337L43.5111 90.0537Z" fill="black" style="fill:black;fill-opacity:1;"/>
</svg>
