<svg width="216" height="121" viewBox="0 0 216 121" fill="none" xmlns="http://www.w3.org/2000/svg">
<path d="M78.5219 119.269C78.5219 119.269 92.5315 119.269 93.8985 111.417C95.2656 103.566 106.88 100.481 110.981 101.848C115.082 103.215 140.355 110.389 154.703 109.022C169.052 107.655 182.372 113.801 198.087 106.288C213.802 98.7749 218.581 88.8666 211.746 75.8854C204.91 62.9042 204.233 60.17 202.866 44.8055C201.499 29.441 205.6 19.1818 188.856 10.6406C172.112 2.09939 175.197 -0.973582 125.656 2.78891C76.1144 6.55141 68.2628 -3.69563 51.8699 7.56766C35.477 18.843 39.2274 34.5584 35.1262 36.603C31.0249 38.6476 -1.08325 59.4925 1.31217 74.1795C3.70758 88.8666 17.0275 105.259 34.4487 101.17C51.8699 97.0812 68.9523 110.74 79.1994 105.61C89.4464 100.481 88.4181 117.902 78.5219 119.269Z" fill="white" style="fill:white;fill-opacity:1;"/>
<path d="M78.5219 120.479C77.8807 120.479 77.3605 119.983 77.3121 119.354C77.2637 118.725 77.7235 118.156 78.3526 118.071C82.0062 117.563 84.1112 114.563 84.8734 111.913C85.5388 109.578 85.2243 107.304 84.1112 106.385C82.9498 105.417 81.0988 106.022 79.7439 106.699C74.3481 109.397 67.6579 107.425 59.9031 105.151C52.1724 102.888 43.4134 100.311 34.7391 102.356C27.9884 103.941 21.274 102.683 15.3217 98.7023C7.66365 93.5849 1.71142 84.0395 0.138677 74.3853C-2.40191 58.7425 30.7588 37.4619 34.606 35.5384C35.4771 35.1028 35.961 32.8768 36.5175 30.2878C37.8846 23.9243 39.9655 14.3184 51.2046 6.58772C60.7983 -0.0178193 67.8273 0.514519 80.5907 1.47027C90.499 2.20825 104.085 3.22445 125.583 1.59122C168.894 -1.69945 172.318 0.199925 183.666 6.49091C185.336 7.41037 187.211 8.45086 189.425 9.57598C203.386 16.7017 203.531 25.1946 203.713 35.9618C203.761 38.7323 203.809 41.5995 204.088 44.7087C205.455 60.1458 206.193 62.7227 212.835 75.341C216.028 81.4021 216.803 86.9793 215.169 91.9395C213.173 97.9764 207.753 103.033 198.631 107.401C188.179 112.397 178.742 111.526 169.62 110.679C164.575 110.208 159.809 109.772 154.836 110.244C140.355 111.623 115.01 104.473 110.618 103.009C108.513 102.308 103.771 103.033 100.069 105.247C98.1087 106.421 95.6528 108.478 95.1084 111.635C93.584 120.394 79.1632 120.491 78.5462 120.491L78.5219 120.479ZM82.5869 103.445C83.9782 103.445 84.9702 103.941 85.6477 104.509C87.535 106.07 88.1399 109.24 87.1963 112.567C86.7366 114.176 85.8776 115.894 84.5831 117.321C88.1399 116.511 92.0718 114.793 92.7009 111.212C93.2574 107.994 95.3745 105.211 98.7983 103.167C102.803 100.783 108.307 99.7064 111.356 100.711C115.663 102.15 140.524 109.167 154.582 107.824C159.772 107.328 164.878 107.8 169.814 108.26C179.02 109.107 187.707 109.917 197.555 105.211C205.939 101.195 211.08 96.4762 212.847 91.1773C214.298 86.8099 213.585 81.9949 210.669 76.4661C203.894 63.5938 203.047 60.6418 201.656 44.9265C201.378 41.7326 201.317 38.829 201.269 36.0102C201.087 25.2913 200.966 18.2019 188.3 11.7415C186.062 10.6043 184.15 9.53962 182.468 8.60807C171.604 2.59534 168.338 0.780646 125.741 4.01083C104.061 5.65616 90.3781 4.62786 80.3851 3.88988C67.7789 2.94623 61.4516 2.47442 52.5475 8.59604C42.0947 15.7823 40.1469 24.8316 38.8524 30.808C38.1024 34.256 37.57 36.7603 35.6585 37.7161C33.989 38.5508 24.9881 44.128 16.58 51.5925C6.4418 60.5814 1.56626 68.3362 2.49781 74.0223C3.97377 83.0474 9.51469 91.9637 16.6404 96.7182C22.0241 100.311 28.0852 101.461 34.1584 100.021C43.4497 97.8313 52.5354 100.505 60.5564 102.852C67.8273 104.981 74.0941 106.832 78.643 104.558C80.2036 103.771 81.5102 103.481 82.5748 103.481L82.5869 103.445Z" fill="black" style="fill:black;fill-opacity:1;"/>
</svg>
