<svg width="148" height="109" viewBox="0 0 148 109" fill="none" xmlns="http://www.w3.org/2000/svg">
<path d="M31.7715 4.41809C31.7715 4.41809 44.7887 15.4844 65.6091 15.4844C86.4295 15.4844 105.961 1.16666 105.961 1.16666C105.961 1.16666 105.311 14.1838 118.328 27.201C131.345 40.2181 146.313 40.2181 146.313 40.2181C146.313 40.2181 119.628 53.2352 119.628 66.9027C119.628 80.5701 118.978 87.7231 118.978 87.7231C118.978 87.7231 92.2936 83.8214 76.0251 95.538L59.7566 107.255C59.7566 107.255 55.855 96.8386 42.1875 92.9369C28.5201 89.0352 13.5522 90.9861 13.5522 90.9861C13.5522 90.9861 17.4538 72.1164 13.5522 64.9518C9.65051 57.7871 1.17371 57.613 1.17371 57.613C1.17371 57.613 10.9511 56.4982 17.4538 44.7816C23.9566 33.065 35.0229 14.8457 31.7715 4.42965V4.41809Z" fill="white" style="fill:white;fill-opacity:1;"/>
<path d="M59.7566 108.404C59.6405 108.404 59.536 108.393 59.4198 108.358C59.0715 108.253 58.7928 107.998 58.6651 107.649C58.6302 107.557 54.7518 97.7211 41.8624 94.0401C28.6014 90.2546 13.8425 92.1009 13.6915 92.1241C13.3199 92.1705 12.9483 92.0428 12.6929 91.7641C12.4374 91.4854 12.3329 91.1022 12.4026 90.7422C12.4374 90.5565 16.1765 72.2094 12.5187 65.4976C9.00023 59.0413 1.20853 58.7626 1.12725 58.7626C0.52342 58.751 0.0240998 58.2633 0.000875687 57.6478C-0.0223485 57.044 0.418907 56.5099 1.02273 56.4402C1.39432 56.3938 10.3124 55.1977 16.4203 44.201C16.9661 43.2256 17.5351 42.2038 18.1273 41.1587C24.6069 29.6279 33.4785 13.8355 30.6451 4.76648C30.4942 4.27878 30.68 3.733 31.1096 3.45431C31.5393 3.16401 32.1082 3.19886 32.5031 3.53561C32.6308 3.64012 45.4738 14.3232 65.5975 14.3232C85.7212 14.3232 105.067 0.377081 105.253 0.226125C105.613 -0.0409532 106.1 -0.0757979 106.495 0.144832C106.89 0.353849 107.122 0.771946 107.099 1.22482C107.099 1.35255 106.669 13.9168 119.129 26.3765C131.589 38.8363 146.15 39.0569 146.29 39.0569C146.824 39.0569 147.3 39.4285 147.416 39.9627C147.532 40.4852 147.277 41.031 146.789 41.2632C146.534 41.391 120.755 54.1178 120.755 66.9027C120.755 80.4656 120.105 87.7579 120.105 87.8276C120.081 88.1411 119.919 88.4314 119.663 88.6288C119.408 88.8262 119.094 88.9192 118.781 88.8611C118.514 88.8263 92.3633 85.1684 76.6754 96.467L60.4069 108.184C60.2095 108.323 59.9656 108.404 59.7334 108.404H59.7566ZM22.7721 89.314C28.2879 89.314 35.5338 89.8133 42.5127 91.8105C53.7532 95.0271 58.6302 102.412 60.2211 105.478L75.3516 94.5858C90.006 84.0421 112.383 85.7839 117.921 86.411C118.096 83.8447 118.479 77.2026 118.479 66.8911C118.479 55.5925 134.991 45.1068 142.365 40.9845C136.93 40.1136 126.781 37.2802 117.515 28.0138C107.32 17.8184 105.276 7.68112 104.893 3.31498C99.586 6.83343 83.2014 16.634 65.6323 16.634C49.6077 16.634 38.2162 10.3055 33.4785 7.10052C34.3145 17.1682 26.2442 31.5207 20.1943 42.2851C19.6021 43.3418 19.0331 44.352 18.4873 45.3274C14.574 52.376 9.53439 55.7435 5.93464 57.3459C8.81444 58.3097 12.3677 60.2954 14.5856 64.3828C18.0112 70.665 15.8514 84.8898 15.0037 89.6507C16.6294 89.4998 19.3698 89.314 22.7838 89.314H22.7721Z" fill="black" style="fill:black;fill-opacity:1;"/>
</svg>
