<svg width="198" height="126" viewBox="0 0 198 126" fill="none" xmlns="http://www.w3.org/2000/svg">
<path d="M46.941 25.6257C46.941 25.6257 49.491 8.13574 67.411 5.31574C99.761 0.225736 96.821 20.0257 96.821 20.0257C96.821 20.0257 100.981 8.47574 123.021 8.14574C145.061 7.81574 147.241 26.4357 147.241 26.4357C147.241 26.4357 160.881 17.7957 171.861 23.9857C182.841 30.1757 184.381 49.4857 176.401 50.5157C176.401 50.5157 191.321 55.1857 192.561 67.8257C193.801 80.4657 174.671 86.0157 174.671 86.0157C174.671 86.0157 184.731 101.596 165.121 111.176C142.121 122.406 136.711 103.776 136.711 103.776C136.711 103.776 140.191 121.666 117.461 121.356C94.731 121.046 95.301 104.316 95.301 104.316C95.301 104.316 85.041 120.626 71.291 120.106C55.221 119.496 50.161 111.036 49.711 101.036C49.711 101.036 33.611 114.466 22.571 106.946C10.761 98.8957 20.271 85.6657 20.271 85.6657C20.271 85.6657 4.37104 85.8157 4.50104 68.0457C4.64104 48.5757 21.771 50.8857 21.771 50.8857C21.771 50.8857 8.95103 41.9257 20.371 28.8457C34.351 12.8357 46.961 25.6357 46.961 25.6357L46.941 25.6257Z" fill="white" style="fill:white;fill-opacity:1;"/>
<path d="M118.031 125.846C117.821 125.846 117.611 125.846 117.401 125.846C108.231 125.726 101.191 123.156 96.4809 118.216C95.1409 116.806 94.1109 115.336 93.3309 113.906C88.3809 119.036 80.5909 124.976 71.1209 124.596C58.0609 124.106 49.5409 118.516 46.4609 108.666C39.8209 112.516 28.9909 116.746 20.0409 110.656C15.8409 107.796 13.2109 103.916 12.4109 99.4357C11.7209 95.5457 12.4909 91.8557 13.5609 88.9557C11.1009 88.1157 8.33092 86.6857 5.89092 84.2557C1.93092 80.3057 -0.0490763 74.8357 0.000923739 68.0057C0.0509237 60.5157 2.32092 54.7757 6.72092 50.9557C8.73092 49.2157 10.9409 48.1057 13.0609 47.4157C12.2009 45.7457 11.5209 43.7957 11.2509 41.5957C10.6009 36.2657 12.5309 30.9757 16.9809 25.8857C22.3709 19.7157 28.3209 16.4957 34.6809 16.3057C38.4809 16.1857 41.8309 17.2357 44.4109 18.5057C47.4509 11.3457 54.2009 2.85574 66.7409 0.885737C80.5509 -1.28426 90.5009 0.535729 96.3209 6.31573C97.6009 7.58573 98.5809 8.95574 99.3209 10.3557C104.171 6.81574 111.781 3.82573 122.971 3.65573C139.061 3.40573 147.011 12.3357 150.141 19.9957C155.921 17.6257 165.481 15.2157 174.091 20.0657C183.271 25.2457 187.211 37.4257 185.591 45.7557C185.341 47.0657 184.941 48.2557 184.431 49.3257C189.641 52.4457 196.161 58.1257 197.061 67.3957C198.201 79.0157 187.281 85.6457 180.701 88.5557C181.671 91.6357 182.331 95.8457 181.081 100.376C179.361 106.546 174.661 111.546 167.121 115.236C157.981 119.696 150.021 120.486 143.471 117.586C141.941 116.906 140.601 116.076 139.441 115.166C138.871 116.336 138.141 117.496 137.211 118.606C133.171 123.436 126.731 125.886 118.051 125.886L118.031 125.846ZM95.2909 99.8057C95.7309 99.8057 96.1809 99.8657 96.6209 100.006C98.5609 100.606 99.8609 102.426 99.7909 104.456C99.7809 105.656 100.161 116.606 117.511 116.846C123.661 116.926 127.911 115.586 130.231 112.856C133.101 109.476 132.291 104.636 132.281 104.586C131.861 102.236 133.361 99.9457 135.691 99.3957C138.021 98.8557 140.361 100.206 141.031 102.506C141.031 102.516 142.591 107.386 147.171 109.366C151.171 111.096 156.541 110.336 163.141 107.116C168.241 104.626 171.341 101.566 172.361 98.0057C173.761 93.1257 170.901 88.4557 170.871 88.4057C170.121 87.2057 169.971 85.7157 170.481 84.3957C170.981 83.0757 172.071 82.0557 173.421 81.6657C173.571 81.6257 188.931 76.8557 188.081 68.2357C187.701 64.3457 185.461 60.9257 181.411 58.0757C178.191 55.7957 175.081 54.7857 175.051 54.7857C173.031 54.1557 171.731 52.2057 171.911 50.0957C172.091 47.9857 173.721 46.2957 175.821 46.0257C176.121 45.8857 176.871 44.6457 176.911 42.0557C176.981 37.2157 174.461 30.5957 169.641 27.8857C161.191 23.1257 149.741 30.1557 149.631 30.2257C148.321 31.0457 146.681 31.1357 145.291 30.4657C143.901 29.7957 142.941 28.4657 142.761 26.9357C142.571 25.4757 140.301 12.3557 123.081 12.6257C105.411 12.8857 101.401 20.7757 101.041 21.5757C100.331 23.7957 98.0809 25.0157 95.8009 24.4957C93.5009 23.9757 92.0309 21.6657 92.3709 19.3357C92.3809 19.2357 92.8109 15.4057 89.8809 12.5857C87.3309 10.1257 81.4909 7.63573 68.1109 9.73573C53.6309 12.0157 51.4209 26.1057 51.4009 26.2457C51.1509 27.9357 49.9709 29.3457 48.3509 29.8757C46.7309 30.4057 44.9609 29.9757 43.7709 28.7857C43.6609 28.6757 39.8809 25.0757 34.8509 25.2657C31.1309 25.4057 27.3909 27.5957 23.7509 31.7757C21.0709 34.8457 19.8709 37.7457 20.1709 40.4157C20.6309 44.4357 24.3309 47.1557 24.3709 47.1857C26.0409 48.3957 26.6909 50.5957 25.9309 52.5157C25.1609 54.4257 23.2209 55.5957 21.1709 55.3157C21.1509 55.3157 16.0109 54.7457 12.5809 57.7657C10.2409 59.8257 9.04093 63.2857 9.01093 68.0457C8.97093 73.5957 10.6909 77.3057 14.2809 79.4057C17.1609 81.0857 20.2509 81.1357 20.2809 81.1357C21.9609 81.1457 23.5209 82.0957 24.2809 83.5957C25.0409 85.0957 24.9209 86.8957 23.9409 88.2557C22.9809 89.6257 20.6009 94.0557 21.2909 97.8857C21.6709 99.9657 22.9209 101.696 25.1209 103.196C33.1209 108.646 46.7009 97.6657 46.8409 97.5457C48.1509 96.4557 49.9709 96.1957 51.5409 96.8857C53.1009 97.5757 54.1409 99.0957 54.2209 100.796C54.6609 110.586 59.9909 115.146 71.4809 115.576C82.4709 115.976 91.4309 102.016 91.5209 101.876C92.3609 100.546 93.8109 99.7857 95.3309 99.7857L95.2909 99.8057Z" fill="#EFAB22" style="fill:#EFAB22;fill:color(display-p3 0.9373 0.6706 0.1333);fill-opacity:1;"/>
<path d="M58.541 46.9657L62.271 46.9157L62.321 45.4157C62.321 44.0157 61.801 39.8157 65.071 39.8157C65.741 39.8157 66.471 40.0257 66.991 40.3857C68.651 41.4757 68.391 43.7557 68.491 46.3457L68.441 53.9157C68.441 55.6757 68.541 58.1657 67.401 60.2457C67.191 60.7157 66.621 61.3357 66.411 61.5457C65.371 62.5857 62.941 62.6357 62.471 62.6857L48.211 62.7357C46.551 62.7357 45.051 62.5757 43.801 61.5957C41.981 60.2457 42.141 56.9757 42.191 56.4657V44.8957C42.191 42.9257 42.921 39.9157 45.351 39.9157C47.111 39.9157 47.681 40.6457 48.201 42.1457C48.511 43.0757 48.561 44.1157 48.611 45.0457V45.1457L48.561 47.0157H52.501V44.9457C52.501 44.8457 52.451 42.2457 53.591 41.1057C54.061 40.6357 54.681 40.3757 55.461 40.3757C56.241 40.3757 56.911 40.6857 57.381 41.1557C58.311 42.1457 58.521 43.2257 58.521 45.5657V46.9657H58.541ZM47.231 78.1357V70.6657C47.181 69.8857 47.181 69.1057 47.231 68.3357C47.391 66.8857 48.471 65.8957 50.031 65.8957C50.391 65.8957 51.531 65.9457 51.901 66.0557C53.721 66.6257 53.821 68.3857 53.921 69.9457C53.971 70.5157 54.021 74.5057 54.131 74.9757C54.341 75.0257 55.061 75.1857 57.601 75.1857C59.831 75.1857 60.041 75.0857 60.091 75.0857H77.051C77.101 75.1357 79.181 75.6057 79.381 77.0557C79.541 78.3557 79.331 79.3857 78.711 80.1157C77.881 81.1057 76.641 81.1557 76.581 81.1557H51.941C49.141 81.1557 47.221 79.7057 47.221 78.1457L47.231 78.1357ZM48.371 56.6657H52.521V53.1857H48.371C48.471 54.3257 48.371 55.6757 48.371 56.6657ZM58.491 53.1357C58.491 54.3857 58.441 55.5757 58.441 56.6157H62.431L62.381 53.1357H58.491ZM78.301 55.6757V60.3957C78.251 61.1257 78.141 61.9557 77.731 62.7257C77.521 63.1357 77.211 63.5057 76.851 63.7157C76.331 64.0757 75.761 64.2857 75.141 64.2857C74.621 64.2857 74.101 64.1257 73.691 63.8657C72.291 63.0357 72.081 61.1657 72.081 61.1157V43.9957C72.081 43.6857 72.131 42.1257 72.551 41.2957C72.861 40.6257 73.641 40.1557 74.681 40.0557C75.821 39.8957 76.911 40.2157 77.481 40.8357C77.901 41.3557 78.001 41.8757 78.151 42.4457C78.361 43.1157 78.361 43.9457 78.311 44.6757V49.8657C78.881 49.9157 81.731 50.0257 82.301 50.1757C83.651 50.4357 84.121 50.9557 84.321 51.7357C84.481 52.4657 84.531 53.6557 84.111 54.3257C83.281 55.6757 81.521 55.6757 79.491 55.6757H78.301Z" fill="#302F2C" style="fill:#302F2C;fill:color(display-p3 0.1882 0.1843 0.1725);fill-opacity:1;"/>
<path d="M89.6611 83.0057C87.8411 83.0057 86.3911 81.5557 86.3911 79.7357C86.3911 77.9157 87.8411 76.4157 89.6611 76.4157C91.4811 76.4157 92.9311 77.9157 92.9311 79.7357C92.9311 81.5557 91.4811 83.0057 89.6611 83.0057Z" fill="#302F2C" style="fill:#302F2C;fill:color(display-p3 0.1882 0.1843 0.1725);fill-opacity:1;"/>
<path d="M100.031 83.0057C98.211 83.0057 96.761 81.5557 96.761 79.7357C96.761 77.9157 98.211 76.4157 100.031 76.4157C101.851 76.4157 103.301 77.9157 103.301 79.7357C103.301 81.5557 101.851 83.0057 100.031 83.0057Z" fill="#302F2C" style="fill:#302F2C;fill:color(display-p3 0.1882 0.1843 0.1725);fill-opacity:1;"/>
<path d="M110.401 83.0057C108.581 83.0057 107.131 81.5557 107.131 79.7357C107.131 77.9157 108.581 76.4157 110.401 76.4157C112.221 76.4157 113.671 77.9157 113.671 79.7357C113.671 81.5557 112.221 83.0057 110.401 83.0057Z" fill="#302F2C" style="fill:#302F2C;fill:color(display-p3 0.1882 0.1843 0.1725);fill-opacity:1;"/>
<path d="M142.191 45.7157C142.661 46.5957 142.501 48.2057 141.831 49.0857C140.481 50.7957 134.781 50.2257 133.841 50.2757C133.321 50.3257 132.801 50.3257 132.181 50.3257H130.521C130.001 50.2757 129.481 50.2757 128.911 50.2757L122.271 50.1757C118.741 50.1757 117.391 49.2957 117.141 47.3757C116.981 46.3357 117.301 45.5057 117.921 44.9357C118.851 44.1057 119.371 44.0057 120.411 44.0057C120.671 44.0057 120.981 44.0557 121.241 44.0557H122.541C123.531 44.0557 125.501 44.0057 126.481 43.9557C126.531 43.4357 126.581 41.5157 126.641 41.0557C126.691 40.4857 126.901 39.9157 127.211 39.4457C127.881 38.5157 128.871 37.9957 129.911 38.0457C130.901 38.1457 131.931 38.2057 132.561 39.0357C133.341 40.1257 133.031 42.5057 133.181 44.0157H135.201C135.771 44.0157 137.071 44.0657 137.591 44.0657H138.521C139.871 44.0657 141.481 44.3757 142.201 45.7257L142.191 45.7157ZM141.001 63.7157C141.361 67.9657 140.431 72.5357 138.671 75.6957C137.061 78.5457 133.381 79.9957 130.111 80.0557C127.151 80.1057 123.731 79.0657 121.761 76.9457C120.001 75.0257 119.371 72.9557 119.011 70.4057C118.591 67.4457 118.281 64.6957 118.651 62.0057C118.911 60.0857 119.531 58.1657 120.671 56.2457C122.171 53.6557 126.951 52.1957 130.731 52.3557C137.161 52.6157 140.531 57.8557 141.001 63.7157ZM134.781 67.1357C134.731 64.7457 134.621 60.9657 132.501 59.5157C131.931 59.1557 131.151 58.9457 130.371 58.8957C128.551 58.7957 126.431 59.5157 125.751 61.0257C124.451 63.8257 124.561 66.6757 125.181 69.6357C125.491 71.1357 126.061 73.0057 127.361 73.8857C127.931 74.2457 129.951 74.4057 130.521 74.3057C133.631 73.8357 134.821 69.9457 134.771 67.1457L134.781 67.1357ZM153.861 79.3757C153.761 79.6357 153.651 79.8457 153.551 80.1057C153.341 80.5257 153.031 80.9357 152.621 81.2457C151.841 81.7157 150.861 81.8157 149.981 81.6057C149.461 81.5057 148.991 81.2957 148.631 80.9857C147.381 79.8457 147.441 77.1457 147.441 77.0457V45.5657C147.391 43.9557 147.441 41.3657 148.431 40.4357C149.161 39.7057 150.041 39.6057 150.971 39.6057C152.161 39.6057 153.251 40.3357 153.671 41.4757C154.291 42.9257 154.241 44.5357 154.291 46.1457V46.4057C154.451 51.6957 154.291 57.5557 154.291 62.5357V75.0857C154.291 75.7057 154.341 76.3257 154.291 76.9557C154.191 77.7857 154.131 78.5657 153.871 79.3957L153.861 79.3757Z" fill="#302F2C" style="fill:#302F2C;fill:color(display-p3 0.1882 0.1843 0.1725);fill-opacity:1;"/>
</svg>
