<svg width="104" height="83" viewBox="0 0 104 83" fill="none" xmlns="http://www.w3.org/2000/svg">
<path d="M53.9601 63.5518C53.9601 63.5518 102.539 65.8075 102.858 39.7523C103.177 13.6971 76.8025 1.47272 46.8852 1.15372C16.9679 0.834726 -0.0756781 21.7404 1.2117 37.508C2.49908 53.2756 20.192 69.3507 46.2472 65.8189C46.2472 65.8189 50.1093 75.1496 56.8652 79.9687C63.6211 84.7878 57.1842 76.756 53.9715 63.5632L53.9601 63.5518Z" fill="#E7F0FB" style="fill:#E7F0FB;fill:color(display-p3 0.9059 0.9412 0.9843);fill-opacity:1;"/>
<path d="M59.4742 82.5207C58.5741 82.5207 57.469 81.8029 56.193 80.8915C50.3486 76.7218 46.6573 69.476 45.5409 67.0494C32.6898 68.5988 20.7844 65.5569 11.9436 58.4365C5.02824 52.8768 0.699024 45.2779 0.072423 37.5878C-0.542785 30.0002 2.78387 21.6949 9.19798 14.8023C18.2438 5.09567 31.6303 -0.14505 46.8966 0.00305528C67.506 0.219517 84.9255 6.064 94.6663 16.0326C100.978 22.4923 104.111 30.4673 103.997 39.7523C103.929 45.1639 101.878 49.8235 97.8791 53.5831C86.2813 64.5088 61.8552 64.8277 55.4411 64.7252C56.6601 69.2595 58.1982 73.0761 59.3602 75.9471C60.9324 79.8434 61.5248 81.3017 60.397 82.1903C60.1121 82.4068 59.8159 82.5093 59.4742 82.5093V82.5207ZM46.2358 64.6683C46.6915 64.6683 47.113 64.9417 47.2839 65.3746C47.3181 65.4657 51.1119 74.466 57.5146 79.0345C57.8336 79.2623 58.0956 79.4447 58.3235 79.5928C58.0387 78.7953 57.6285 77.77 57.2412 76.813C55.9424 73.5888 54.1537 69.1684 52.855 63.8252C52.7752 63.472 52.855 63.1075 53.0828 62.834C53.3107 62.5606 53.6411 62.4011 54.017 62.4239C54.3132 62.4353 83.9002 63.6543 96.3296 51.9426C99.85 48.6159 101.661 44.5145 101.73 39.7409C101.832 31.0825 98.9158 23.643 93.0486 17.6391C83.7293 8.10334 66.9022 2.50947 46.8852 2.29301C27.1985 2.07655 15.8627 11.0199 10.8727 16.3631C4.98267 22.6861 1.79273 30.5584 2.35097 37.4054C2.932 44.4689 6.94224 51.4869 13.3791 56.6592C21.9237 63.529 33.5443 66.3772 46.0991 64.6797C46.156 64.6797 46.2016 64.6797 46.2586 64.6797L46.2358 64.6683Z" fill="black" style="fill:black;fill-opacity:1;"/>
</svg>
