<svg width="252" height="59" viewBox="0 0 252 59" fill="none" xmlns="http://www.w3.org/2000/svg">
<path d="M7.31579 25.19C7.50579 25.38 7.83579 25.41 8.31579 25.3C12.6658 24.45 16.8758 23.3 20.9458 21.87C23.6058 20.93 26.1558 19.86 28.5958 18.66L45.7858 23.23C46.1558 23.34 46.5358 23.4 46.9258 23.4C47.3158 23.4 47.6358 23.36 47.9058 23.29C48.3858 23.1 48.7958 22.77 49.1358 22.29C49.4658 21.81 49.5958 21.31 49.5258 20.79C49.4858 20.27 49.0758 19.75 48.2958 19.23C47.8158 18.9 47.1558 18.52 46.3158 18.11C45.4758 17.7 44.6858 17.37 43.9458 17.11L41.1058 17.28L33.9958 15.71C36.8858 13.93 39.5258 11.97 41.8858 9.81001L44.0558 7.64C44.2058 7.45 44.2758 7.27 44.2758 7.08C44.2758 6.89 44.1858 6.75002 43.9958 6.63002C43.5458 6.37002 42.8558 6.05001 41.9058 5.65001C40.9558 5.26001 40.1858 4.95002 39.5958 4.73002C39.0758 4.58002 38.5758 4.58002 38.0858 4.73002L35.2458 5.85002C34.6158 5.89002 33.6458 5.92 32.3458 5.93C31.0458 5.94 29.6158 5.98002 28.0558 6.01002C26.4958 6.05002 24.9458 6.07002 23.3958 6.07002H16.5658C15.7058 6.07002 14.7158 6.03 13.5858 5.96C12.4558 5.89 11.4158 5.77002 10.4958 5.63002L9.99579 6.58C9.84579 6.84 9.90579 7.1 10.1658 7.36C10.8758 8.03 11.7058 8.69001 12.6758 9.34001C13.6458 9.99001 14.6058 10.54 15.5758 10.98C16.2858 10.76 17.1758 10.56 18.2558 10.39C19.3358 10.22 20.2458 10.12 20.9858 10.08C21.4358 10.04 22.0958 10.02 22.9658 10.02C23.8358 10.02 24.8358 10.02 25.9458 9.99C27.0558 9.97 28.1958 9.97 29.3458 9.99C30.0758 10 30.7858 10.01 31.4658 10.01C28.4158 12.65 24.8158 15.08 20.6458 17.29C16.4858 19.5 11.8758 21.48 6.81579 23.23C6.33579 23.42 6.23579 23.71 6.53579 24.12L7.31579 25.18V25.19Z" fill="white" style="fill:white;fill-opacity:1;"/>
<path d="M38.8358 4.62C39.0858 4.62 39.3458 4.66001 39.6058 4.73001C40.1958 4.95001 40.9758 5.25999 41.9158 5.64999C42.8658 6.03999 43.5658 6.37 44.0058 6.63C44.1958 6.74001 44.2858 6.88999 44.2858 7.07999C44.2858 7.26999 44.2058 7.44998 44.0658 7.63998L41.8958 9.81C39.5458 11.97 36.9058 13.93 34.0058 15.71L41.1158 17.28L43.9558 17.11C44.6958 17.37 45.4858 17.71 46.3258 18.11C47.1658 18.52 47.8258 18.89 48.3058 19.23C49.0858 19.75 49.4958 20.27 49.5358 20.79C49.6058 21.31 49.4758 21.81 49.1458 22.29C48.8158 22.77 48.4058 23.11 47.9158 23.29C47.6558 23.37 47.3258 23.4 46.9358 23.4C46.5458 23.4 46.1658 23.34 45.7958 23.23L28.6058 18.66C26.1658 19.85 23.6258 20.93 20.9558 21.87C16.8858 23.3 12.6758 24.44 8.32582 25.3C8.14582 25.34 7.98582 25.36 7.84582 25.36C7.61582 25.36 7.43582 25.3 7.32582 25.19L6.54582 24.13C6.24582 23.72 6.33582 23.42 6.82582 23.24C11.8758 21.49 16.4858 19.51 20.6558 17.3C24.8158 15.09 28.4258 12.66 31.4758 10.02C30.7858 10.02 30.0858 9.99999 29.3558 9.98999C28.7758 9.98999 28.2058 9.98001 27.6458 9.98001C27.0858 9.98001 26.5158 9.97999 25.9558 9.98999C24.8358 10.01 23.8458 10.02 22.9758 10.02C22.1058 10.02 21.4458 10.04 20.9958 10.08C20.2558 10.12 19.3458 10.22 18.2658 10.39C17.1858 10.56 16.2958 10.75 15.5858 10.98C14.6158 10.53 13.6558 9.99 12.6858 9.34C11.7158 8.69 10.8858 8.02999 10.1758 7.35999C9.91582 7.09999 9.85582 6.83999 10.0058 6.57999L10.5058 5.63C11.4358 5.78 12.4658 5.88999 13.5958 5.95999C14.7258 6.03999 15.7258 6.07001 16.5758 6.07001H23.4058C24.9458 6.07001 26.4958 6.05001 28.0658 6.01001C29.6258 5.97001 31.0558 5.94999 32.3558 5.92999C33.6558 5.90999 34.6258 5.88001 35.2558 5.85001L38.0958 4.73001C38.3358 4.66001 38.5858 4.62 38.8358 4.62ZM38.8358 2.62C38.3858 2.62 37.9458 2.69001 37.5158 2.82001C37.4658 2.84001 37.4158 2.85 37.3658 2.87L34.8258 3.87C34.2258 3.9 33.3858 3.91999 32.3258 3.92999C31.0158 3.94999 29.5858 3.98001 28.0158 4.01001C26.5158 4.05001 24.9658 4.07001 23.4058 4.07001H16.5758C15.7558 4.07001 14.7958 4.02999 13.7258 3.95999C12.6558 3.88999 11.6758 3.77999 10.8158 3.64999C10.7058 3.62999 10.6058 3.62 10.4958 3.62C9.76582 3.62 9.07582 4.01999 8.72582 4.67999L8.23582 5.60999C7.66582 6.64999 7.86582 7.88001 8.74582 8.76001C9.56582 9.54001 10.4958 10.27 11.5458 10.98C12.5958 11.68 13.6658 12.29 14.7258 12.78C14.9858 12.9 15.2758 12.96 15.5658 12.96C15.7658 12.96 15.9758 12.93 16.1658 12.87C16.7658 12.68 17.5658 12.51 18.5458 12.35C19.5458 12.2 20.3958 12.1 21.0758 12.06C21.0958 12.06 21.1158 12.06 21.1358 12.06C21.4158 12.04 21.9558 12.01 22.9558 12.01C23.7358 12.01 24.6158 12.01 25.5858 11.99C23.7658 13.22 21.8058 14.41 19.7058 15.52C15.6558 17.67 11.0958 19.63 6.16582 21.33C6.14582 21.33 6.12582 21.35 6.09582 21.35C4.97582 21.78 4.59582 22.58 4.46582 23.02C4.33582 23.46 4.22582 24.33 4.92582 25.29L5.70582 26.35C5.76582 26.43 5.82582 26.5 5.89582 26.57C6.24582 26.92 6.85582 27.33 7.83582 27.33C8.11582 27.33 8.41582 27.3 8.73582 27.22C13.1558 26.35 17.4858 25.17 21.6158 23.72C24.0158 22.87 26.4358 21.88 28.7958 20.75L45.2458 25.12C45.7958 25.28 46.3558 25.36 46.9258 25.36C47.4958 25.36 48.0158 25.3 48.4558 25.17C48.5158 25.15 48.5658 25.14 48.6158 25.12C49.4758 24.79 50.2058 24.21 50.7658 23.39C51.3758 22.52 51.6258 21.53 51.5058 20.53C51.3958 19.39 50.6858 18.38 49.3958 17.52C48.8558 17.14 48.1258 16.73 47.1858 16.27C46.2758 15.83 45.4058 15.46 44.5958 15.18C44.3858 15.11 44.1558 15.07 43.9358 15.07C43.8958 15.07 43.8558 15.07 43.8158 15.07L41.2458 15.22L38.9758 14.72C40.4958 13.6 41.9158 12.44 43.2258 11.23C43.2458 11.21 43.2658 11.19 43.2858 11.17L45.4558 9C45.5058 8.95 45.5558 8.89 45.6058 8.84C46.1558 8.16 46.2658 7.48 46.2658 7.03C46.2658 6.14 45.8158 5.35 45.0258 4.87C44.4658 4.54 43.6958 4.18001 42.6658 3.76001C41.7158 3.37001 40.9158 3.05001 40.2958 2.82001C40.2458 2.80001 40.1858 2.77999 40.1358 2.76999C39.6958 2.64999 39.2558 2.57999 38.8258 2.57999L38.8358 2.62Z" fill="black" style="fill:black;fill-opacity:1;"/>
<path d="M52.9859 27.59C52.5059 27.4 51.8359 27.24 50.9759 27.09C50.1159 26.94 49.2159 26.8 48.2759 26.67C47.3259 26.54 46.4659 26.47 45.6859 26.47L43.1259 27.59C42.5659 27.63 41.6059 27.67 40.2559 27.7C38.8959 27.74 37.3059 27.78 35.4859 27.81C33.6659 27.85 31.7059 27.89 29.6059 27.92C27.5059 27.96 25.4159 27.99 23.3359 28.03C21.2559 28.07 19.3159 28.1 17.5059 28.11C15.7059 28.13 14.1359 28.14 12.8259 28.14H10.0059C8.92594 28.1 7.71594 28.03 6.35594 27.92C4.99594 27.81 3.76594 27.66 2.64594 27.47L2.08595 28.47C1.93595 28.77 1.99594 29.05 2.25594 29.31C3.07594 30.09 4.06594 30.88 5.23594 31.68C6.40594 32.48 7.54594 33.1 8.66594 33.55C9.22594 33.4 9.91594 33.24 10.7559 33.08C11.5959 32.91 12.4259 32.76 13.2659 32.63C14.1059 32.5 14.7659 32.42 15.2459 32.38C15.8359 32.34 16.8759 32.31 18.3359 32.27C19.8059 32.23 21.5459 32.2 23.5759 32.16C23.9459 32.16 24.3359 32.15 24.7159 32.14V34.95C24.7159 35.73 24.7759 36.59 24.9159 37.54C24.9559 37.84 25.0159 38.1 25.0659 38.37C24.8859 38.37 24.7059 38.37 24.5259 38.37C22.8759 38.39 21.4059 38.41 20.1159 38.43C18.8359 38.45 17.9159 38.46 17.3559 38.46C16.4259 38.46 15.3459 38.42 14.1259 38.35C12.8959 38.28 11.7659 38.16 10.7259 38.02L10.1659 39.02C10.0559 39.35 10.1259 39.63 10.3859 39.86C11.1659 40.53 12.0659 41.2 13.0859 41.87C14.1059 42.54 15.1559 43.1 16.2359 43.54C16.9459 43.28 17.8559 43.06 18.9659 42.87C20.0859 42.68 21.0059 42.57 21.7559 42.54C22.2359 42.5 22.9459 42.48 23.8759 42.46C24.8059 42.44 25.8659 42.42 27.0559 42.4C28.2459 42.38 29.4659 42.36 30.7059 42.34C31.9559 42.32 33.1359 42.31 34.2459 42.31C34.8959 42.31 35.4859 42.31 36.0259 42.33V49.39C36.0259 50.02 36.0659 50.8 36.1359 51.73C36.2059 52.66 36.3059 53.56 36.4159 54.43C36.5259 55.3 36.6559 56 36.8059 56.52H40.9859C41.3559 55.85 41.6959 55.02 41.9859 54.01C42.2859 53.01 42.5259 51.95 42.7059 50.83C42.8959 49.71 42.9859 48.71 42.9859 47.82L43.1459 42.41L43.8659 39.96C44.0159 39.59 43.9759 39.29 43.7559 39.07C43.3859 38.81 42.8359 38.48 42.1159 38.09C41.3859 37.7 40.7659 37.38 40.2459 37.11C39.8759 36.89 39.5059 36.89 39.1259 37.11L37.0059 38C36.3359 38.04 35.3559 38.08 34.0559 38.14C33.0859 38.18 32.0259 38.22 30.8759 38.25C31.0159 37.88 31.1559 37.49 31.2759 37.06C31.6059 35.87 31.7759 34.72 31.7759 33.6V32.05C33.3159 32.04 34.8159 32.02 36.2659 32.01C38.2959 31.99 40.0759 31.97 41.6159 31.95C43.1559 31.93 44.2459 31.92 44.8759 31.92C45.5059 31.92 46.2959 31.92 47.2459 31.95C48.1959 31.97 49.1359 32 50.0659 32.03C50.9959 32.07 51.6859 32.12 52.1259 32.2C52.4959 32.05 52.8859 31.66 53.2959 31.03C53.7059 30.4 53.9059 29.71 53.9059 28.97C53.9059 28.3 53.5859 27.84 52.9559 27.58L52.9859 27.59Z" fill="white" style="fill:white;fill-opacity:1;"/>
<path d="M45.6759 26.47C46.4559 26.47 47.3159 26.54 48.2659 26.67C49.2159 26.8 50.1159 26.94 50.9659 27.09C51.8159 27.24 52.4859 27.41 52.9759 27.59C53.6059 27.85 53.9259 28.31 53.9259 28.98C53.9259 29.72 53.7259 30.41 53.3159 31.04C52.9059 31.67 52.5159 32.06 52.1459 32.21C51.6959 32.14 51.0159 32.08 50.0859 32.04C49.1559 32 48.2159 31.98 47.2659 31.96C46.3159 31.94 45.5259 31.93 44.8959 31.93C44.2659 31.93 43.1759 31.93 41.6359 31.96C40.0959 31.98 38.3059 32 36.2859 32.02C34.8459 32.03 33.3359 32.05 31.7959 32.06V33.61C31.7959 34.73 31.6259 35.88 31.2959 37.07C31.1759 37.5 31.0359 37.89 30.8959 38.26C32.0459 38.23 33.1159 38.19 34.0759 38.15C35.3759 38.09 36.3559 38.05 37.0259 38.01L39.1459 37.11C39.3359 37 39.5159 36.94 39.7059 36.94C39.8959 36.94 40.0759 37 40.2659 37.11C40.7859 37.37 41.4059 37.7 42.1359 38.09C42.8559 38.48 43.4059 38.81 43.7759 39.07C43.9959 39.29 44.0359 39.59 43.8859 39.96L43.1659 42.41L43.0059 47.82C43.0059 48.71 42.9159 49.72 42.7259 50.83C42.5359 51.95 42.2959 53 42.0059 54.01C41.7059 55.01 41.3759 55.85 41.0059 56.52H36.8259C36.6759 56 36.5459 55.3 36.4359 54.43C36.3259 53.56 36.2359 52.65 36.1559 51.73C36.0759 50.8 36.0459 50.02 36.0459 49.39V42.33C35.5059 42.32 34.9159 42.31 34.2659 42.31C33.1459 42.31 31.9659 42.31 30.7259 42.34C29.4759 42.36 28.2659 42.38 27.0759 42.4C25.8859 42.42 24.8259 42.44 23.8959 42.46C22.9659 42.48 22.2559 42.51 21.7759 42.54C21.0359 42.58 20.1059 42.69 18.9859 42.87C17.8659 43.06 16.9559 43.28 16.2559 43.54C15.1759 43.09 14.1259 42.54 13.1059 41.87C12.0859 41.2 11.1859 40.53 10.4059 39.86C10.1459 39.64 10.0759 39.36 10.1859 39.02L10.7459 38.02C11.7859 38.17 12.9159 38.28 14.1459 38.35C15.3759 38.43 16.4459 38.46 17.3759 38.46C17.9359 38.46 18.8559 38.46 20.1359 38.43C21.4159 38.41 22.8859 38.39 24.5459 38.37C24.7259 38.37 24.9059 38.37 25.0859 38.37C25.0359 38.1 24.9759 37.84 24.9359 37.54C24.8059 36.59 24.7359 35.73 24.7359 34.95V32.14C24.3559 32.14 23.9659 32.15 23.5959 32.16C21.5659 32.2 19.8259 32.24 18.3559 32.27C16.8859 32.31 15.8559 32.35 15.2659 32.38C14.7859 32.42 14.1259 32.5 13.2859 32.63C12.4459 32.76 11.6159 32.91 10.7759 33.08C9.93594 33.25 9.24594 33.41 8.68594 33.55C7.56594 33.1 6.42594 32.48 5.25594 31.68C4.08594 30.88 3.08594 30.09 2.27594 29.31C2.01594 29.05 1.95594 28.77 2.10594 28.47L2.66594 27.47C3.78594 27.66 5.01594 27.8 6.37594 27.92C7.73594 28.03 8.94594 28.11 10.0259 28.14H12.8459C14.1659 28.14 15.7259 28.14 17.5259 28.11C19.3259 28.09 21.2659 28.06 23.3559 28.03C25.4359 27.99 27.5259 27.96 29.6259 27.92C31.7259 27.88 33.6859 27.85 35.5059 27.81C37.3259 27.77 38.9159 27.74 40.2759 27.7C41.6359 27.66 42.5859 27.63 43.1459 27.59L45.7059 26.47M45.6759 24.47C45.4059 24.47 45.1259 24.53 44.8759 24.64L42.6359 25.61C42.1759 25.63 41.4259 25.66 40.1859 25.7C38.8259 25.74 37.2459 25.78 35.4359 25.81C33.6159 25.85 31.6559 25.89 29.5559 25.92L23.2859 26.03C21.2059 26.07 19.2759 26.1 17.4759 26.11C15.6759 26.13 14.1259 26.14 12.8159 26.14H10.0359C9.02594 26.11 7.83594 26.03 6.51594 25.92C5.20594 25.81 4.01594 25.67 2.97594 25.49C2.86594 25.47 2.75594 25.46 2.64594 25.46C1.92594 25.46 1.25594 25.85 0.895939 26.49L0.335942 27.49C0.335942 27.49 0.305941 27.54 0.295941 27.56C-0.244059 28.63 -0.0340581 29.84 0.835942 30.71C1.75594 31.59 2.84594 32.46 4.10594 33.32C5.38594 34.2 6.66594 34.89 7.91594 35.39C8.15594 35.49 8.40594 35.53 8.65594 35.53C8.82594 35.53 8.99594 35.51 9.16594 35.46C9.69594 35.32 10.3659 35.17 11.1359 35.01C11.9359 34.85 12.7559 34.71 13.5659 34.58C14.3359 34.46 14.9559 34.38 15.3959 34.35C15.7659 34.33 16.6259 34.29 18.3859 34.24C19.6259 34.21 21.0759 34.18 22.7159 34.15V34.92C22.7159 35.38 22.7359 35.86 22.7759 36.37C21.8059 36.38 20.9059 36.39 20.0859 36.41C18.8159 36.43 17.9059 36.44 17.3559 36.44C16.4659 36.44 15.4159 36.4 14.2459 36.33C13.0859 36.26 11.9959 36.15 11.0059 36.01C10.9159 36 10.8159 35.99 10.7259 35.99C10.0059 35.99 9.33594 36.38 8.97594 37.02L8.41594 38.02C8.35594 38.13 8.30594 38.24 8.26594 38.36C7.89594 39.48 8.20594 40.59 9.08594 41.35C9.92594 42.07 10.9059 42.8 11.9959 43.51C13.1159 44.24 14.2859 44.87 15.4759 45.36C15.7159 45.46 15.9759 45.51 16.2359 45.51C16.4659 45.51 16.7059 45.47 16.9259 45.39C17.5059 45.18 18.3059 44.98 19.2959 44.82C20.3259 44.65 21.1859 44.54 21.8559 44.51C22.3559 44.47 23.0359 44.45 23.9159 44.43C24.8459 44.41 25.8959 44.39 27.0859 44.37L30.7359 44.31C31.8859 44.29 32.9859 44.28 34.0359 44.28V49.36C34.0359 50.05 34.0759 50.9 34.1559 51.86C34.2359 52.81 34.3259 53.75 34.4459 54.66C34.5759 55.65 34.7259 56.43 34.8959 57.05C35.1459 57.91 35.9259 58.5 36.8159 58.5H40.9959C41.7259 58.5 42.3959 58.11 42.7459 57.47C43.1859 56.68 43.5759 55.7 43.9159 54.56C44.2359 53.48 44.4959 52.33 44.6959 51.14C44.8959 49.93 44.9959 48.82 45.0059 47.83L45.1559 42.73L45.7959 40.58C46.1859 39.5 45.9659 38.41 45.2059 37.64C45.1259 37.56 45.0359 37.48 44.9359 37.41C44.4959 37.1 43.8859 36.74 43.0959 36.31C42.3759 35.92 41.7559 35.6 41.2259 35.33C40.7459 35.06 40.2459 34.92 39.7159 34.92C39.1859 34.92 38.7359 35.04 38.2759 35.29L36.5759 36.01C35.9359 36.04 35.0759 36.08 33.9959 36.13C33.8459 36.13 33.7059 36.14 33.5559 36.15C33.6859 35.43 33.7659 34.72 33.7959 34.02C34.6459 34.02 35.4959 34 36.3059 34C38.3359 33.98 40.1159 33.96 41.6659 33.94C43.1959 33.92 44.2759 33.91 44.9059 33.91C45.5359 33.91 46.3059 33.91 47.2359 33.94C48.1659 33.96 49.0959 33.99 50.0159 34.02C51.0659 34.06 51.5859 34.12 51.8259 34.16C51.9359 34.18 52.0459 34.19 52.1559 34.19C52.4059 34.19 52.6659 34.14 52.8959 34.05C53.6659 33.74 54.3559 33.11 55.0059 32.11C55.6259 31.15 55.9359 30.09 55.9359 28.96C55.9359 27.47 55.1359 26.29 53.7559 25.72C53.7359 25.72 53.7259 25.71 53.7059 25.7C53.0959 25.47 52.3159 25.27 51.3259 25.1C50.4359 24.95 49.5059 24.8 48.5459 24.67C47.5059 24.53 46.5459 24.46 45.6759 24.46V24.47Z" fill="black" style="fill:black;fill-opacity:1;"/>
<path d="M76.1759 22.8C76.2659 22.87 76.3359 22.95 76.4259 23.02C77.1159 23.58 77.8859 24.1 78.7359 24.58C79.2159 24.39 79.8359 24.21 80.5759 24.02C81.3159 23.83 81.9159 23.72 82.3559 23.69C82.6559 23.65 83.0859 23.62 83.6659 23.58C84.2459 23.54 84.8459 23.52 85.4759 23.5C85.6159 23.5 85.7359 23.5 85.8659 23.5V24.04C85.8659 24.82 85.8959 25.78 85.9459 26.91C86.0059 28.04 86.0959 29.13 86.2259 30.17C86.3559 31.21 86.4959 32.01 86.6459 32.57H90.3859C90.7559 31.86 91.0959 30.95 91.4159 29.84C91.7359 28.72 91.9759 27.52 92.1359 26.22C92.3059 24.92 92.3859 23.67 92.3859 22.48V11.33L92.5559 8.42999C92.5559 7.68999 92.2959 7.20001 91.7759 6.98001C91.2159 6.68001 90.4559 6.39998 89.4859 6.13998C88.5159 5.87998 87.5359 5.66 86.5259 5.47C85.5259 5.28 84.6059 5.19 83.7959 5.19C83.2759 5.19 82.9559 5.31999 82.8459 5.57999L82.0659 7.59C82.9259 7.96 83.6859 8.39999 84.3559 8.89999C85.0259 9.39999 85.5259 9.92999 85.8659 10.49V19.65C85.5259 19.67 85.1559 19.69 84.7459 19.71C83.7759 19.77 82.8359 19.8 81.9259 19.82C81.0159 19.84 80.2459 19.85 79.6159 19.85C79.0659 19.85 78.4659 19.84 77.8359 19.82C78.8459 17.82 79.6259 15.82 80.1259 13.83L80.9059 12.05C81.0959 11.64 81.0359 11.32 80.7359 11.1C80.4359 10.84 79.9259 10.51 79.2059 10.1C78.4859 9.69001 77.8959 9.37999 77.4459 9.14999C76.9659 8.95999 76.5359 8.95999 76.1659 9.14999L74.2459 10.22C73.8459 10.26 73.3159 10.29 72.6459 10.33C71.9359 10.37 71.1459 10.4 70.2759 10.41C69.4059 10.43 68.5359 10.45 67.6859 10.47C66.8259 10.49 66.0559 10.5 65.3759 10.5H63.8459C63.1359 10.5 62.3159 10.48 61.3659 10.44C60.4159 10.4 59.5359 10.33 58.7159 10.22L58.2159 11.06C58.1059 11.32 58.1559 11.58 58.3859 11.84C58.9759 12.44 59.6959 13.04 60.5359 13.65C61.3759 14.26 62.1959 14.76 63.0159 15.13C63.6059 14.94 64.3659 14.78 65.2759 14.63C66.1859 14.48 66.9359 14.39 67.5359 14.35C67.7959 14.31 68.2159 14.29 68.7859 14.27C69.3659 14.25 70.0159 14.23 70.7359 14.21C71.3759 14.19 71.9759 14.19 72.5459 14.18C71.8359 16.6 70.7759 19.11 69.3659 21.73C67.9559 24.35 66.2759 26.9 64.3159 29.37C62.3659 31.84 60.1759 34.08 57.7659 36.09C57.5759 36.42 57.6159 36.7 57.8759 36.93L58.9959 37.99C59.1859 38.1 59.4759 38.05 59.8859 37.82C63.2659 36.04 66.3559 33.84 69.1359 31.24C71.9259 28.64 74.2659 25.83 76.1559 22.82L76.1759 22.8Z" fill="white" style="fill:white;fill-opacity:1;"/>
<path d="M83.8159 5.16998C84.6359 5.16998 85.5459 5.25998 86.5459 5.44998C87.5459 5.63998 88.5359 5.86 89.5059 6.12C90.4759 6.38 91.2359 6.65999 91.7959 6.95999C92.3159 7.17999 92.5759 7.67 92.5759 8.41L92.4059 11.31V22.46C92.4059 23.65 92.3259 24.9 92.1559 26.2C91.9859 27.5 91.7459 28.71 91.4359 29.82C91.1159 30.94 90.7759 31.85 90.4059 32.55H86.6659C86.5159 31.99 86.3759 31.19 86.2459 30.15C86.1159 29.11 86.0259 28.02 85.9659 26.89C85.9059 25.76 85.8859 24.8 85.8859 24.02V23.48C85.7559 23.48 85.6359 23.48 85.4959 23.48C84.8659 23.5 84.2559 23.53 83.6859 23.56C83.1059 23.6 82.6759 23.64 82.3759 23.67C81.9259 23.71 81.3359 23.82 80.5959 24C79.8559 24.19 79.2359 24.37 78.7559 24.56C77.8959 24.08 77.1259 23.56 76.4459 23C76.3559 22.93 76.2759 22.85 76.1959 22.78C74.2959 25.79 71.9559 28.59 69.1759 31.2C66.3859 33.8 63.3059 35.99 59.9259 37.78C59.6559 37.93 59.4259 38 59.2559 38C59.1659 38 59.0959 37.98 59.0359 37.94L57.9159 36.88C57.6559 36.66 57.6159 36.38 57.8059 36.04C60.2259 34.03 62.4059 31.79 64.3559 29.32C66.3059 26.85 67.9859 24.3 69.4059 21.68C70.8159 19.06 71.8759 16.54 72.5859 14.13C72.0159 14.13 71.4159 14.14 70.7759 14.16C70.0459 14.18 69.3959 14.2 68.8259 14.22C68.2459 14.24 67.8359 14.27 67.5759 14.3C66.9759 14.34 66.2259 14.43 65.3159 14.58C64.4059 14.73 63.6559 14.9 63.0559 15.08C62.2359 14.71 61.4159 14.22 60.5759 13.6C59.7359 12.99 59.0259 12.38 58.4259 11.79C58.2059 11.53 58.1459 11.27 58.2559 11.01L58.7559 10.17C59.5759 10.28 60.4559 10.36 61.4059 10.39C62.3559 10.43 63.1759 10.45 63.8859 10.45H65.4159C66.1059 10.45 66.8759 10.45 67.7259 10.42C68.5759 10.4 69.4459 10.38 70.3159 10.36C71.1859 10.34 71.9759 10.31 72.6859 10.28C73.3559 10.24 73.8759 10.21 74.2859 10.17L76.2059 9.10001C76.3959 9.01001 76.5959 8.95999 76.8059 8.95999C77.0159 8.95999 77.2459 9.01001 77.4859 9.10001C77.9359 9.32001 78.5159 9.63999 79.2459 10.05C79.9659 10.46 80.4859 10.79 80.7759 11.05C81.0759 11.27 81.1259 11.59 80.9459 12L80.1659 13.78C79.6659 15.77 78.8959 17.76 77.8759 19.77C78.5059 19.79 79.1059 19.8 79.6559 19.8C80.2859 19.8 81.0559 19.8 81.9659 19.77C82.8759 19.75 83.8159 19.71 84.7859 19.66C85.1859 19.64 85.5559 19.62 85.9059 19.6V10.44C85.5759 9.88 85.0659 9.35001 84.3959 8.85001C83.7259 8.35001 82.9659 7.91001 82.1059 7.54001L82.8859 5.53C82.9959 5.27 83.3159 5.13998 83.8359 5.13998M83.8159 3.16998C81.9259 3.16998 81.2359 4.28999 81.0259 4.76999C81.0259 4.78999 81.0059 4.80999 80.9959 4.82999L80.2159 6.84C80.0159 7.35 80.0459 7.89999 80.2459 8.35999C80.2259 8.35999 80.2159 8.33999 80.1959 8.32999C79.4259 7.89999 78.8259 7.56999 78.3459 7.32999C78.2859 7.29999 78.2259 7.27 78.1659 7.25C77.6959 7.07 77.2259 6.98001 76.7659 6.98001C76.2359 6.98001 75.7359 7.09999 75.2759 7.32999C75.2459 7.33999 75.2259 7.35999 75.1959 7.37L73.6559 8.22C73.3459 8.24 72.9759 8.26001 72.5459 8.29001C71.8459 8.33001 71.0659 8.35 70.2459 8.37L67.6559 8.42999C66.8159 8.44999 66.0559 8.45999 65.3859 8.45999H63.8559C63.1759 8.45999 62.3659 8.44 61.4559 8.41C60.5759 8.38 59.7459 8.30998 58.9959 8.19998C58.9059 8.18998 58.8159 8.17999 58.7259 8.17999C58.0259 8.17999 57.3759 8.53999 57.0159 9.14999L56.5159 9.98999C56.4659 10.07 56.4259 10.15 56.3959 10.23C55.9859 11.19 56.1659 12.26 56.8859 13.1C56.9159 13.14 56.9559 13.18 56.9859 13.21C57.6459 13.87 58.4459 14.55 59.3659 15.22C60.3159 15.92 61.2659 16.48 62.2059 16.91C62.4659 17.03 62.7459 17.09 63.0359 17.09C63.2359 17.09 63.4359 17.06 63.6359 17C64.1359 16.84 64.8059 16.7 65.6259 16.56C66.4659 16.42 67.1559 16.34 67.6859 16.3C67.7359 16.3 67.7959 16.3 67.8459 16.28C67.9459 16.27 68.2159 16.24 68.8859 16.21C69.1659 16.21 69.4559 16.19 69.7659 16.18C69.1859 17.66 68.4759 19.18 67.6459 20.73C66.2959 23.24 64.6559 25.71 62.7959 28.08C60.9359 30.43 58.8359 32.59 56.5359 34.5C56.3459 34.66 56.1859 34.85 56.0659 35.07C55.4259 36.22 55.6259 37.51 56.5759 38.36L57.6659 39.39C57.7759 39.49 57.8859 39.58 58.0159 39.66C58.3859 39.88 58.8159 40 59.2659 40C59.7859 40 60.3159 39.85 60.8959 39.53C64.3959 37.68 67.6559 35.37 70.5559 32.66C72.8959 30.48 74.9559 28.12 76.7059 25.64C77.0559 25.87 77.4259 26.09 77.7959 26.3C78.0959 26.47 78.4359 26.56 78.7759 26.56C79.0159 26.56 79.2659 26.52 79.4959 26.43C79.8959 26.28 80.4359 26.11 81.1059 25.95C81.8959 25.75 82.3359 25.69 82.5759 25.67C82.5959 25.67 82.6259 25.67 82.6459 25.67C82.9059 25.64 83.3059 25.6 83.8459 25.57C83.8759 25.57 83.9159 25.57 83.9459 25.57C83.9559 26.02 83.9759 26.49 84.0059 27C84.0659 28.19 84.1659 29.34 84.2959 30.41C84.4359 31.55 84.5959 32.42 84.7659 33.07C84.9959 33.95 85.7959 34.56 86.6959 34.56H90.4359C91.1759 34.56 91.8559 34.15 92.2059 33.49C92.6459 32.65 93.0359 31.63 93.3959 30.37C93.7359 29.16 94.0059 27.84 94.1759 26.45C94.3559 25.07 94.4459 23.73 94.4459 22.46V11.37L94.6059 8.53C94.6059 8.53 94.6059 8.44998 94.6059 8.41998C94.6059 6.90998 93.9159 5.72998 92.6959 5.16998C92.0059 4.80998 91.1459 4.48998 90.0559 4.19998C89.0359 3.92998 87.9959 3.69 86.9459 3.5C85.8259 3.29 84.7859 3.19 83.8459 3.19L83.8159 3.16998ZM82.0359 14.47L82.7459 12.84C83.1959 11.85 83.0859 10.81 82.4959 10.03C82.7359 10.17 82.9559 10.33 83.1759 10.48C83.4559 10.69 83.6959 10.91 83.8859 11.12V17.74C83.1959 17.77 82.5459 17.8 81.9159 17.81C81.5659 17.81 81.2459 17.82 80.9359 17.83C81.3859 16.69 81.7559 15.57 82.0359 14.47Z" fill="black" style="fill:black;fill-opacity:1;"/>
<path d="M96.2558 7.57001V25.52C96.2558 26.23 96.2958 27.16 96.3658 28.34C96.4358 29.51 96.5458 30.66 96.6758 31.8C96.8058 32.93 96.9258 33.78 97.0358 34.34H100.996C101.406 33.56 101.766 32.54 102.086 31.27C102.406 30.01 102.656 28.73 102.836 27.42C103.026 26.12 103.116 24.97 103.116 23.96V8.57001L103.336 5.38998C103.376 4.60998 103.096 4.08999 102.496 3.82999C101.866 3.52999 101.036 3.24999 100.016 2.98999C98.9958 2.72999 97.9358 2.51001 96.8358 2.32001C95.7358 2.13001 94.7658 2.01999 93.9058 1.98999C93.6058 1.98999 93.3958 2.03001 93.2658 2.10001C93.1358 2.17001 93.0358 2.28999 92.9558 2.42999L92.2358 4.48999C93.0858 4.85999 93.8858 5.33 94.6358 5.88C95.3758 6.44 95.9158 6.99999 96.2558 7.54999V7.57001Z" fill="white" style="fill:white;fill-opacity:1;"/>
<path d="M93.9059 2C94.7559 2.04 95.7359 2.14999 96.8359 2.32999C97.9359 2.51999 98.9959 2.74 100.016 3C101.036 3.26 101.866 3.54 102.496 3.84C103.086 4.1 103.366 4.61999 103.336 5.39999L103.116 8.57999V23.97C103.116 24.97 103.026 26.13 102.836 27.43C102.646 28.73 102.396 30.01 102.086 31.28C101.766 32.54 101.406 33.57 100.996 34.35H97.0359C96.9259 33.79 96.8059 32.95 96.6759 31.81C96.5459 30.68 96.4459 29.52 96.3659 28.35C96.2859 27.18 96.2559 26.24 96.2559 25.53V7.57999C95.9259 7.01999 95.3859 6.46 94.6359 5.91C93.8959 5.35 93.0959 4.88999 92.2359 4.51999L92.9559 2.45999C93.0259 2.30999 93.1359 2.2 93.2659 2.13C93.3959 2.06 93.6059 2.01999 93.9059 2.01999M93.9059 0C93.2359 0 92.7159 0.119995 92.2759 0.369995C91.8059 0.629995 91.4259 1.04001 91.1759 1.54001C91.1359 1.62001 91.1059 1.7 91.0759 1.78L90.3559 3.84C90.0059 4.83 90.4859 5.92 91.4459 6.34C92.1559 6.65 92.8259 7.04 93.4459 7.5C93.8259 7.78 94.0859 8.03001 94.2659 8.23001V25.53C94.2659 26.29 94.3059 27.28 94.3859 28.47C94.4659 29.68 94.5659 30.88 94.7059 32.03C94.8459 33.22 94.9659 34.11 95.0959 34.73C95.2859 35.67 96.1059 36.34 97.0559 36.34H101.016C101.756 36.34 102.446 35.93 102.786 35.27C103.276 34.34 103.686 33.19 104.036 31.76C104.366 30.44 104.636 29.07 104.826 27.71C105.026 26.32 105.126 25.06 105.126 23.97V8.64999L105.346 5.54001C105.426 3.89001 104.696 2.61999 103.346 2.01999C102.596 1.66999 101.676 1.36001 100.526 1.07001C99.4559 0.800007 98.3359 0.559995 97.1859 0.369995C96.0159 0.169995 94.9459 0.0500098 94.0059 0.0100098C93.9759 0.0100098 93.9459 0.0100098 93.9159 0.0100098L93.9059 0Z" fill="black" style="fill:black;fill-opacity:1;"/>
<path d="M104.806 50C104.416 49.22 104.036 48.53 103.666 47.94L100.826 46.77L97.1461 43.16C97.8961 41.87 98.5161 40.56 98.9861 39.24C99.0561 39.05 99.1161 38.84 99.1561 38.6C99.1961 38.36 99.2161 38.07 99.2161 37.74C99.2161 37.29 98.9161 36.87 98.3261 36.46C97.8761 36.16 97.2161 35.84 96.3461 35.48C95.4761 35.13 94.5561 34.8 93.5861 34.5C92.6161 34.2 91.7261 33.98 90.9061 33.83C90.4561 33.72 90.1461 33.81 89.9561 34.11L88.9561 35.95C89.5161 36.25 90.0461 36.64 90.5461 37.12C91.0461 37.6 91.3961 38.05 91.5761 38.46C90.8361 41.21 89.5161 44.01 87.6161 46.85C87.1261 47.58 86.6061 48.3 86.0561 49.01C85.9361 48.63 85.7661 48.21 85.5261 47.71C85.2461 47.15 84.9561 46.65 84.6661 46.21L82.6061 45.21L80.0661 42.7C80.6661 41.69 81.1861 40.67 81.6061 39.63C81.6761 39.44 81.7461 39.24 81.7961 39.02C81.8561 38.8 81.8761 38.52 81.8761 38.18C81.8761 37.62 81.5761 37.18 80.9861 36.84C80.5061 36.58 79.8361 36.29 78.9761 35.98C78.1161 35.66 77.2061 35.39 76.2461 35.14C75.2761 34.9 74.3861 34.72 73.5661 34.61C73.1161 34.54 72.8261 34.65 72.6761 34.94L71.6761 36.72C72.9061 37.39 73.7561 38.13 74.2361 38.95C73.4561 41.48 72.1061 44.02 70.1961 46.59C68.2761 49.16 65.9261 51.59 63.1461 53.89C62.7761 54.15 62.7561 54.41 63.0861 54.67L64.3161 55.73C64.6161 55.92 64.9261 55.88 65.2661 55.62C69.3161 53.54 72.7461 51.11 75.5561 48.34C76.3161 47.59 77.0161 46.82 77.6661 46.05L82.2261 50.99C82.6661 51.49 83.1261 51.79 83.5961 51.89C82.6261 52.93 81.6161 53.95 80.5061 54.95C80.2061 55.25 80.1761 55.53 80.3961 55.79L81.7361 56.79C81.9961 56.94 82.2961 56.92 82.6261 56.73C86.7561 54.35 90.2261 51.65 93.0561 48.62C93.6861 47.94 94.2661 47.26 94.8161 46.57L101.246 53.94C101.506 54.16 101.776 54.4 102.056 54.64C102.336 54.88 102.606 55.04 102.866 55.11C103.346 55.22 103.886 55.16 104.486 54.91C105.076 54.67 105.486 54.29 105.716 53.77C105.936 53.32 105.916 52.69 105.656 51.87C105.506 51.39 105.236 50.76 104.846 49.97L104.806 50Z" fill="white" style="fill:white;fill-opacity:1;"/>
<path d="M90.566 33.79C90.666 33.79 90.776 33.81 90.906 33.84C91.726 33.99 92.616 34.21 93.586 34.51C94.556 34.81 95.476 35.13 96.346 35.49C97.216 35.84 97.876 36.17 98.326 36.47C98.916 36.88 99.216 37.31 99.216 37.75C99.216 38.08 99.196 38.37 99.156 38.61C99.116 38.85 99.066 39.07 98.986 39.25C98.516 40.57 97.896 41.88 97.146 43.17L100.826 46.78L103.666 47.95C104.036 48.54 104.416 49.23 104.806 50.01C105.196 50.79 105.466 51.42 105.616 51.91C105.876 52.73 105.896 53.36 105.676 53.81C105.456 54.33 105.046 54.71 104.446 54.95C104.036 55.12 103.656 55.2 103.306 55.2C103.146 55.2 102.986 55.18 102.836 55.15C102.576 55.07 102.306 54.92 102.026 54.68C101.746 54.44 101.476 54.21 101.216 53.98L94.786 46.61C94.236 47.3 93.656 47.98 93.026 48.66C90.196 51.69 86.726 54.39 82.596 56.77C82.406 56.87 82.236 56.92 82.076 56.92C81.946 56.92 81.826 56.89 81.706 56.82L80.366 55.82C80.146 55.56 80.176 55.28 80.476 54.98C81.586 53.98 82.606 52.96 83.566 51.92C83.096 51.82 82.646 51.52 82.196 51.02L77.636 46.08C76.986 46.85 76.296 47.62 75.526 48.37C72.716 51.14 69.286 53.56 65.236 55.65C65.036 55.8 64.856 55.88 64.666 55.88C64.536 55.88 64.406 55.84 64.286 55.76L63.056 54.7C62.726 54.44 62.736 54.18 63.116 53.92C65.906 51.61 68.256 49.18 70.166 46.62C72.076 44.06 73.426 41.51 74.206 38.98C73.726 38.16 72.866 37.42 71.646 36.75L72.646 34.97C72.766 34.73 72.976 34.61 73.286 34.61C73.366 34.61 73.446 34.61 73.536 34.63C74.356 34.74 75.246 34.92 76.216 35.16C77.186 35.4 78.096 35.68 78.946 36C79.796 36.32 80.466 36.6 80.956 36.86C81.546 37.19 81.846 37.64 81.846 38.2C81.846 38.53 81.816 38.81 81.766 39.04C81.706 39.26 81.646 39.47 81.576 39.65C81.156 40.69 80.636 41.71 80.036 42.72L82.576 45.23L84.636 46.23C84.936 46.68 85.216 47.18 85.496 47.73C85.746 48.22 85.916 48.65 86.026 49.03C86.576 48.32 87.096 47.6 87.586 46.87C89.486 44.03 90.796 41.23 91.546 38.48C91.356 38.07 91.016 37.62 90.516 37.14C90.016 36.66 89.486 36.27 88.926 35.97L89.926 34.13C90.066 33.91 90.266 33.81 90.536 33.81M90.566 31.79C89.606 31.79 88.756 32.25 88.256 33.05C88.236 33.08 88.216 33.12 88.196 33.15L87.196 34.99C86.936 35.46 86.886 36.01 87.036 36.52C87.186 37.03 87.536 37.46 88.006 37.71C88.396 37.92 88.786 38.2 89.156 38.56C89.246 38.65 89.326 38.73 89.386 38.8C88.726 40.87 87.706 42.99 86.346 45.13C86.346 45.12 86.336 45.11 86.326 45.1C86.126 44.8 85.856 44.57 85.536 44.41L83.766 43.55L82.546 42.34C82.886 41.68 83.186 41.02 83.456 40.37C83.566 40.09 83.656 39.8 83.736 39.49C83.836 39.11 83.876 38.68 83.876 38.17C83.876 36.88 83.196 35.78 81.966 35.09C81.356 34.76 80.616 34.44 79.676 34.09C78.746 33.75 77.766 33.45 76.736 33.19C75.706 32.93 74.746 32.74 73.866 32.62C73.676 32.59 73.496 32.58 73.326 32.58C72.286 32.58 71.386 33.1 70.926 33.99L69.936 35.74C69.676 36.21 69.606 36.76 69.756 37.27C69.906 37.78 70.256 38.22 70.716 38.47C71.296 38.79 71.706 39.08 71.986 39.34C71.246 41.32 70.106 43.35 68.586 45.38C66.786 47.79 64.546 50.12 61.906 52.3C61.006 52.97 60.856 53.79 60.836 54.23C60.826 54.67 60.936 55.5 61.796 56.2L62.996 57.23C63.076 57.3 63.156 57.36 63.246 57.41C63.686 57.68 64.186 57.83 64.686 57.83C65.086 57.83 65.676 57.74 66.296 57.31C70.456 55.16 74.036 52.62 76.946 49.75C77.186 49.51 77.436 49.26 77.676 49.01L80.546 52.12C80.076 52.59 79.606 53.02 79.146 53.44C79.116 53.46 79.096 53.49 79.066 53.51C78.026 54.54 77.936 56.01 78.846 57.06C78.936 57.17 79.046 57.27 79.166 57.36L80.506 58.36C80.576 58.41 80.646 58.46 80.716 58.5C81.126 58.74 81.596 58.86 82.076 58.86C82.586 58.86 83.086 58.72 83.566 58.45C87.876 55.97 91.536 53.11 94.486 49.95C94.596 49.84 94.696 49.72 94.806 49.6L99.716 55.22C99.776 55.29 99.846 55.36 99.926 55.42C100.186 55.64 100.446 55.87 100.726 56.11C101.226 56.54 101.746 56.84 102.286 56.99C102.316 56.99 102.356 57.01 102.386 57.02C102.686 57.09 102.996 57.12 103.306 57.12C103.916 57.12 104.556 56.99 105.206 56.73C106.276 56.3 107.066 55.55 107.496 54.57C107.936 53.65 107.946 52.53 107.526 51.23C107.346 50.66 107.046 49.94 106.606 49.05C106.186 48.22 105.776 47.47 105.366 46.82C105.146 46.47 104.816 46.19 104.426 46.03L101.946 45.01L99.626 42.73C100.116 41.78 100.526 40.82 100.866 39.88C100.986 39.56 101.076 39.21 101.136 38.84C101.186 38.5 101.216 38.1 101.216 37.67C101.216 36.89 100.916 35.74 99.456 34.74C98.866 34.35 98.096 33.97 97.096 33.56C96.176 33.19 95.186 32.84 94.176 32.53C93.156 32.22 92.196 31.98 91.326 31.81C91.076 31.75 90.816 31.72 90.576 31.72L90.566 31.79Z" fill="black" style="fill:black;fill-opacity:1;"/>
<path d="M154.456 3.88998C153.786 3.55998 152.886 3.26 151.756 3C150.626 2.74 149.456 2.51999 148.266 2.32999C147.076 2.13999 145.996 2.03 145.036 2C144.776 2 144.586 2.03999 144.476 2.10999C144.366 2.17999 144.266 2.3 144.196 2.44L143.476 4.5C144.446 4.91 145.336 5.41 146.156 6C146.976 6.6 147.566 7.22999 147.936 7.89999V23.05C147.816 23.05 147.726 23.06 147.606 23.07C146.716 23.11 145.836 23.15 144.986 23.18C144.126 23.22 143.406 23.24 142.816 23.24C141.996 23.24 141.056 23.21 139.996 23.16C139.776 23.15 139.556 23.14 139.356 23.12C139.096 21.64 138.596 20.27 137.826 19.03C136.656 17.15 135.036 15.68 132.976 14.6C130.916 13.52 128.576 12.98 125.976 12.98C123.376 12.98 121.006 13.52 118.976 14.6C116.946 15.68 115.356 17.16 114.186 19.03C113.016 20.91 112.426 23.05 112.426 25.47C112.426 27.89 113.016 30.02 114.186 31.88C115.356 33.74 116.956 35.21 118.976 36.29C121.006 37.37 123.336 37.91 125.976 37.91C128.616 37.91 130.906 37.37 132.976 36.29C135.036 35.21 136.656 33.74 137.826 31.88C138.786 30.35 139.336 28.62 139.506 26.72C140.236 27.24 141.036 27.72 141.926 28.15C142.376 27.96 142.996 27.77 143.796 27.57C144.596 27.37 145.216 27.24 145.666 27.21C145.926 27.17 146.296 27.14 146.786 27.1C147.146 27.07 147.546 27.06 147.956 27.05V43.21C147.956 43.88 147.976 44.82 148.016 46.03C148.056 47.24 148.106 48.52 148.186 49.88C148.256 51.24 148.356 52.48 148.466 53.62C148.576 54.75 148.666 55.56 148.746 56.04H152.706C153.076 55.07 153.416 53.93 153.706 52.61C154.006 51.29 154.256 49.92 154.456 48.51C154.656 47.1 154.806 45.74 154.906 44.44C154.996 43.14 155.046 42.02 155.046 41.09V8.97L155.326 5.45999C155.396 4.63999 155.126 4.11999 154.486 3.89999L154.456 3.88998ZM130.486 30.49C129.336 31.72 127.826 32.33 125.966 32.33C124.106 32.33 122.656 31.72 121.506 30.49C120.356 29.26 119.776 27.59 119.776 25.47C119.776 24.02 120.036 22.79 120.556 21.76C121.076 20.73 121.806 19.94 122.756 19.36C123.706 18.78 124.776 18.5 125.966 18.5C127.226 18.5 128.316 18.79 129.226 19.36C130.136 19.94 130.856 20.74 131.396 21.76C131.936 22.78 132.206 24.02 132.206 25.47C132.206 27.59 131.626 29.26 130.476 30.49H130.486Z" fill="white" style="fill:white;fill-opacity:1;"/>
<path d="M145.036 2C146.006 2.04 147.076 2.14999 148.266 2.32999C149.456 2.51999 150.616 2.74 151.756 3C152.886 3.26 153.796 3.55998 154.456 3.88998C155.086 4.10998 155.366 4.62998 155.296 5.44998L155.016 8.95999V41.08C155.016 42.01 154.966 43.12 154.876 44.43C154.786 45.73 154.636 47.09 154.426 48.5C154.216 49.91 153.966 51.28 153.676 52.6C153.376 53.92 153.046 55.06 152.676 56.03H148.716C148.636 55.55 148.546 54.74 148.436 53.61C148.326 52.48 148.226 51.23 148.156 49.87C148.076 48.51 148.026 47.23 147.986 46.02C147.946 44.81 147.926 43.87 147.926 43.2V27.04C147.516 27.04 147.116 27.06 146.756 27.09C146.276 27.13 145.896 27.17 145.636 27.2C145.186 27.24 144.566 27.36 143.766 27.56C142.966 27.76 142.346 27.96 141.896 28.14C141.006 27.71 140.206 27.23 139.476 26.71C139.306 28.62 138.756 30.34 137.796 31.87C136.626 33.73 135.006 35.2 132.946 36.28C130.886 37.36 128.546 37.9 125.946 37.9C123.346 37.9 120.976 37.36 118.946 36.28C116.916 35.2 115.326 33.73 114.156 31.87C112.986 30.01 112.396 27.87 112.396 25.46C112.396 23.05 112.986 20.9 114.156 19.02C115.326 17.14 116.926 15.67 118.946 14.59C120.976 13.51 123.306 12.97 125.946 12.97C128.586 12.97 130.876 13.51 132.946 14.59C135.006 15.67 136.626 17.15 137.796 19.02C138.566 20.26 139.066 21.63 139.326 23.11C139.536 23.12 139.746 23.13 139.966 23.15C141.026 23.21 141.966 23.23 142.786 23.23C143.376 23.23 144.106 23.21 144.956 23.17C145.806 23.13 146.686 23.1 147.576 23.06C147.696 23.06 147.796 23.05 147.906 23.04V7.88998C147.536 7.21998 146.936 6.58999 146.126 5.98999C145.306 5.39999 144.416 4.88999 143.446 4.48999L144.166 2.42999C144.236 2.27999 144.336 2.17001 144.446 2.10001C144.556 2.03001 144.746 1.98999 145.006 1.98999M125.966 32.33C127.826 32.33 129.326 31.72 130.486 30.49C131.646 29.26 132.216 27.59 132.216 25.47C132.216 24.02 131.946 22.79 131.406 21.76C130.866 20.73 130.146 19.94 129.236 19.36C128.326 18.78 127.236 18.5 125.976 18.5C124.786 18.5 123.716 18.79 122.766 19.36C121.816 19.94 121.086 20.74 120.566 21.76C120.046 22.78 119.786 24.02 119.786 25.47C119.786 27.59 120.366 29.26 121.516 30.49C122.666 31.72 124.156 32.33 125.976 32.33M145.036 0C144.366 0 143.816 0.149982 143.366 0.449982C142.966 0.719982 142.646 1.08999 142.406 1.54999C142.366 1.62999 142.336 1.71001 142.306 1.79001L141.586 3.85001C141.236 4.85001 141.726 5.94001 142.696 6.35001C143.516 6.70001 144.286 7.13 144.976 7.63C145.376 7.92 145.696 8.22001 145.936 8.51001V21.14L144.896 21.18C144.076 21.22 143.366 21.23 142.806 21.23C142.246 21.23 141.636 21.22 140.946 21.19C140.606 20.03 140.126 18.95 139.516 17.96C138.156 15.79 136.266 14.05 133.896 12.81C131.556 11.59 128.886 10.97 125.976 10.97C123.066 10.97 120.346 11.59 118.036 12.82C115.706 14.06 113.836 15.79 112.486 17.96C111.116 20.15 110.426 22.67 110.426 25.46C110.426 28.25 111.116 30.77 112.486 32.94C113.836 35.09 115.706 36.81 118.036 38.04C120.346 39.27 123.016 39.89 125.976 39.89C128.936 39.89 131.556 39.27 133.896 38.05C136.266 36.81 138.156 35.09 139.516 32.94C140.116 31.99 140.576 30.97 140.916 29.87C140.966 29.89 141.006 29.92 141.056 29.94C141.326 30.07 141.626 30.14 141.926 30.14C142.186 30.14 142.446 30.09 142.696 29.99C142.946 29.89 143.416 29.72 144.286 29.5C145.146 29.28 145.596 29.21 145.826 29.19C145.866 29.19 145.896 29.19 145.936 29.18C145.936 29.18 145.936 29.18 145.946 29.18V43.2C145.946 43.89 145.966 44.85 146.006 46.08C146.046 47.3 146.096 48.61 146.176 49.98C146.256 51.36 146.346 52.65 146.466 53.8C146.586 55.01 146.676 55.82 146.756 56.34C146.906 57.31 147.746 58.03 148.736 58.03H152.696C153.526 58.03 154.266 57.52 154.566 56.75C154.966 55.7 155.336 54.46 155.656 53.05C155.966 51.68 156.226 50.25 156.436 48.8C156.646 47.34 156.806 45.92 156.896 44.59C156.996 43.24 157.036 42.07 157.036 41.1V9.06L157.306 5.63C157.456 3.96 156.696 2.64001 155.276 2.07001C154.476 1.68001 153.476 1.35001 152.226 1.07001C151.056 0.800007 149.836 0.569995 148.606 0.369995C147.346 0.169995 146.176 0.0500098 145.136 0.0100098C145.106 0.0100098 145.086 0.0100098 145.056 0.0100098L145.036 0ZM125.966 30.33C124.696 30.33 123.736 29.95 122.966 29.12C122.166 28.27 121.776 27.08 121.776 25.47C121.776 24.35 121.966 23.4 122.336 22.67C122.686 21.98 123.166 21.46 123.796 21.07C124.426 20.68 125.136 20.5 125.966 20.5C126.856 20.5 127.566 20.68 128.156 21.06C128.766 21.45 129.256 21.99 129.626 22.7C130.006 23.43 130.206 24.36 130.206 25.47C130.206 27.08 129.816 28.27 129.016 29.12C128.236 29.95 127.266 30.33 125.956 30.33H125.966Z" fill="black" style="fill:black;fill-opacity:1;"/>
<path d="M181.586 30.35C183.876 31.37 186.446 31.88 189.306 31.88C192.166 31.88 194.746 31.37 197.026 30.35C199.316 29.33 201.106 27.91 202.406 26.09C203.706 24.27 204.356 22.19 204.356 19.84C204.356 17.49 203.706 15.43 202.406 13.62C201.106 11.82 199.316 10.41 197.026 9.38C194.736 8.35 192.166 7.85001 189.306 7.85001C186.446 7.85001 183.866 8.36 181.586 9.38C179.306 10.4 177.506 11.81 176.206 13.62C174.906 15.43 174.256 17.5 174.256 19.84C174.256 22.18 174.906 24.26 176.206 26.09C177.506 27.92 179.296 29.33 181.586 30.35ZM182.646 16.02C183.336 14.96 184.256 14.15 185.406 13.59C186.556 13.03 187.856 12.75 189.306 12.75C190.756 12.75 192.056 13.03 193.206 13.59C194.356 14.15 195.276 14.96 195.966 16.02C196.656 17.08 196.996 18.35 196.996 19.84C196.996 21.33 196.656 22.6 195.966 23.66C195.276 24.72 194.356 25.53 193.206 26.09C192.056 26.65 190.756 26.93 189.306 26.93C187.856 26.93 186.556 26.65 185.406 26.09C184.256 25.53 183.336 24.72 182.646 23.66C181.956 22.6 181.616 21.33 181.616 19.84C181.616 18.35 181.956 17.08 182.646 16.02Z" fill="white" style="fill:white;fill-opacity:1;"/>
<path d="M189.306 7.85001C192.166 7.85001 194.746 8.36 197.026 9.38C199.306 10.4 201.106 11.81 202.406 13.62C203.706 15.42 204.356 17.5 204.356 19.84C204.356 22.18 203.706 24.26 202.406 26.09C201.106 27.91 199.316 29.33 197.026 30.35C194.736 31.37 192.166 31.88 189.306 31.88C186.446 31.88 183.866 31.37 181.586 30.35C179.296 29.33 177.506 27.91 176.206 26.09C174.906 24.27 174.256 22.19 174.256 19.84C174.256 17.49 174.906 15.43 176.206 13.62C177.506 11.81 179.296 10.41 181.586 9.38C183.876 8.35 186.446 7.85001 189.306 7.85001ZM189.306 26.92C190.756 26.92 192.056 26.64 193.206 26.08C194.356 25.52 195.276 24.71 195.966 23.65C196.656 22.59 196.996 21.32 196.996 19.83C196.996 18.34 196.656 17.07 195.966 16.01C195.276 14.95 194.356 14.14 193.206 13.58C192.056 13.02 190.756 12.74 189.306 12.74C187.856 12.74 186.556 13.02 185.406 13.58C184.256 14.14 183.336 14.95 182.646 16.01C181.956 17.07 181.616 18.34 181.616 19.83C181.616 21.32 181.956 22.59 182.646 23.65C183.336 24.71 184.256 25.52 185.406 26.08C186.556 26.64 187.856 26.92 189.306 26.92ZM189.306 5.85001C186.176 5.85001 183.296 6.42 180.766 7.56C178.166 8.72 176.086 10.37 174.576 12.45C173.026 14.59 172.246 17.08 172.246 19.84C172.246 22.6 173.026 25.09 174.566 27.25C176.066 29.36 178.156 31.01 180.756 32.18C183.286 33.31 186.156 33.89 189.296 33.89C192.436 33.89 195.306 33.32 197.836 32.18C200.436 31.02 202.526 29.36 204.026 27.25C205.566 25.09 206.346 22.6 206.346 19.84C206.346 17.08 205.566 14.59 204.016 12.45C202.516 10.37 200.426 8.72 197.826 7.56C195.296 6.43 192.416 5.85001 189.286 5.85001H189.306ZM189.306 24.92C188.166 24.92 187.146 24.71 186.276 24.28C185.456 23.88 184.816 23.32 184.326 22.57C183.846 21.84 183.616 20.94 183.616 19.84C183.616 18.74 183.846 17.84 184.326 17.11C184.816 16.35 185.456 15.79 186.276 15.39C187.146 14.97 188.166 14.75 189.306 14.75C190.446 14.75 191.466 14.96 192.336 15.39C193.156 15.79 193.796 16.35 194.286 17.1C194.766 17.84 194.996 18.73 194.996 19.83C194.996 20.93 194.766 21.82 194.286 22.56C193.796 23.31 193.156 23.87 192.336 24.27C191.466 24.69 190.446 24.91 189.306 24.91V24.92Z" fill="black" style="fill:black;fill-opacity:1;"/>
<path d="M214.566 42.81C214.086 42.62 213.416 42.45 212.556 42.28C211.696 42.11 210.796 41.97 209.856 41.86C208.906 41.75 208.046 41.67 207.266 41.64L204.706 42.76C204.146 42.8 203.186 42.84 201.836 42.9C201.676 42.9 201.496 42.91 201.326 42.92L202.086 38.19L202.756 35.57C202.866 35.01 202.646 34.62 202.086 34.4C201.566 34.14 200.846 33.89 199.936 33.65C199.026 33.41 198.086 33.21 197.116 33.06C196.146 32.91 195.276 32.8 194.496 32.73C193.976 32.69 193.656 32.82 193.546 33.12L192.986 34.79C193.506 35.05 193.996 35.37 194.466 35.74C194.926 36.11 195.296 36.5 195.556 36.91L195.006 43.08C193.776 43.1 192.516 43.13 191.186 43.15C189.356 43.18 187.526 43.2 185.716 43.22L185.806 38.74L185.976 36.06C186.046 35.35 185.826 34.93 185.306 34.78C184.746 34.63 184.006 34.49 183.076 34.36C182.146 34.23 181.186 34.13 180.206 34.05C179.216 33.98 178.376 33.94 177.666 33.94C177.336 33.94 177.086 33.97 176.946 34.02C176.796 34.08 176.706 34.18 176.666 34.33L176.336 36.11C176.896 36.26 177.416 36.49 177.896 36.81C178.376 37.13 178.746 37.43 179.016 37.73L179.306 43.28C179.236 43.28 179.166 43.28 179.096 43.28C177.296 43.3 175.726 43.31 174.416 43.31H171.596C170.516 43.27 169.306 43.2 167.946 43.09C166.586 42.98 165.356 42.83 164.236 42.64L163.676 43.64C163.526 43.97 163.586 44.25 163.846 44.48C164.666 45.26 165.656 46.05 166.826 46.85C167.996 47.65 169.136 48.27 170.256 48.72C170.816 48.57 171.506 48.41 172.346 48.25C173.186 48.08 174.016 47.93 174.856 47.8C175.696 47.67 176.356 47.59 176.836 47.55C177.426 47.51 178.466 47.48 179.926 47.44C181.396 47.4 183.136 47.37 185.166 47.33C187.196 47.29 189.306 47.27 191.526 47.25C193.736 47.23 195.856 47.21 197.886 47.19C199.916 47.17 201.696 47.15 203.236 47.13C204.776 47.11 205.866 47.1 206.496 47.1C207.126 47.1 207.916 47.1 208.866 47.13C209.816 47.15 210.756 47.18 211.686 47.21C212.616 47.25 213.306 47.3 213.746 47.38C214.116 47.23 214.506 46.84 214.916 46.21C215.326 45.58 215.526 44.89 215.526 44.15C215.526 43.48 215.206 43.03 214.576 42.81H214.566Z" fill="white" style="fill:white;fill-opacity:1;"/>
<path d="M194.326 32.71C194.376 32.71 194.436 32.71 194.496 32.71C195.276 32.79 196.146 32.9 197.116 33.04C198.086 33.19 199.016 33.38 199.936 33.63C200.846 33.87 201.566 34.12 202.086 34.38C202.646 34.6 202.866 34.99 202.756 35.55L202.086 38.17L201.326 42.9C201.496 42.9 201.666 42.89 201.836 42.88C203.196 42.82 204.146 42.78 204.706 42.74L207.266 41.62C208.046 41.66 208.906 41.73 209.856 41.84C210.806 41.95 211.706 42.09 212.556 42.26C213.406 42.43 214.076 42.6 214.566 42.79C215.196 43.01 215.516 43.46 215.516 44.13C215.516 44.87 215.316 45.56 214.906 46.19C214.496 46.82 214.106 47.21 213.736 47.36C213.286 47.29 212.606 47.23 211.676 47.19C210.746 47.15 209.806 47.13 208.856 47.11C207.906 47.09 207.116 47.08 206.486 47.08C205.856 47.08 204.766 47.08 203.226 47.11C201.686 47.13 199.896 47.15 197.876 47.17C195.846 47.19 193.726 47.21 191.516 47.23C189.306 47.25 187.186 47.28 185.156 47.31C183.126 47.35 181.386 47.38 179.916 47.42C178.446 47.46 177.416 47.5 176.826 47.53C176.346 47.57 175.686 47.65 174.846 47.78C174.006 47.91 173.176 48.06 172.336 48.23C171.496 48.4 170.806 48.56 170.246 48.7C169.126 48.25 167.986 47.63 166.816 46.83C165.646 46.03 164.646 45.24 163.836 44.46C163.576 44.24 163.516 43.96 163.666 43.62L164.226 42.62C165.346 42.81 166.576 42.95 167.936 43.07C169.296 43.18 170.506 43.26 171.586 43.29H174.406C175.726 43.29 177.286 43.29 179.086 43.26C179.156 43.26 179.226 43.26 179.296 43.26L179.006 37.71C178.746 37.41 178.376 37.11 177.886 36.79C177.406 36.47 176.886 36.24 176.326 36.09L176.656 34.31C176.696 34.16 176.786 34.06 176.936 34C177.086 33.94 177.326 33.92 177.656 33.92C178.366 33.92 179.206 33.96 180.196 34.03C181.176 34.11 182.136 34.21 183.066 34.34C183.996 34.47 184.736 34.61 185.296 34.76C185.816 34.91 186.036 35.34 185.966 36.04L185.796 38.72L185.706 43.2C187.526 43.18 189.346 43.16 191.176 43.13C192.516 43.11 193.776 43.08 194.996 43.06L195.546 36.89C195.286 36.48 194.926 36.09 194.456 35.72C193.986 35.35 193.496 35.03 192.976 34.77L193.536 33.1C193.636 32.84 193.896 32.7 194.316 32.7M194.326 30.71C193.066 30.71 192.066 31.34 191.676 32.4C191.676 32.42 191.656 32.45 191.656 32.47L191.096 34.14C190.786 35.08 191.206 36.11 192.096 36.56C192.486 36.76 192.866 37 193.226 37.29C193.326 37.37 193.416 37.45 193.496 37.52L193.176 41.1C192.516 41.11 191.846 41.12 191.146 41.14C190.006 41.16 188.876 41.18 187.746 41.19L187.796 38.82L187.956 36.22C188.146 34.24 186.996 33.18 185.846 32.85C185.166 32.67 184.356 32.52 183.346 32.37C182.386 32.24 181.376 32.13 180.346 32.05C179.316 31.97 178.406 31.93 177.656 31.93C177.046 31.93 176.606 32 176.216 32.15C175.466 32.43 174.916 33.05 174.716 33.84C174.716 33.88 174.696 33.92 174.686 33.96L174.356 35.74C174.166 36.77 174.796 37.77 175.806 38.04C176.156 38.13 176.476 38.28 176.786 38.48C176.886 38.54 176.966 38.6 177.036 38.66L177.176 41.29C176.146 41.29 175.226 41.3 174.386 41.3H171.606C170.566 41.26 169.386 41.19 168.086 41.08C166.776 40.97 165.586 40.83 164.546 40.66C164.436 40.64 164.326 40.63 164.216 40.63C163.496 40.63 162.826 41.02 162.466 41.66L161.906 42.66C161.876 42.71 161.856 42.76 161.826 42.82C161.326 43.95 161.566 45.14 162.466 45.95C163.356 46.79 164.436 47.65 165.676 48.5C166.956 49.38 168.246 50.07 169.486 50.57C169.726 50.67 169.976 50.71 170.226 50.71C170.396 50.71 170.576 50.69 170.736 50.64C171.256 50.5 171.916 50.35 172.706 50.19C173.486 50.03 174.296 49.89 175.136 49.76C175.916 49.64 176.536 49.56 176.956 49.53C177.336 49.51 178.196 49.47 179.946 49.42C181.406 49.38 183.156 49.35 185.176 49.31C187.196 49.27 189.306 49.25 191.516 49.23H191.966C194.016 49.21 195.986 49.19 197.876 49.17C199.906 49.15 201.686 49.13 203.236 49.11C204.766 49.09 205.846 49.08 206.476 49.08C207.106 49.08 207.876 49.08 208.806 49.11C209.746 49.13 210.666 49.16 211.586 49.19C212.636 49.23 213.146 49.29 213.396 49.33C213.506 49.35 213.616 49.36 213.726 49.36C213.976 49.36 214.236 49.31 214.466 49.22C215.236 48.91 215.926 48.28 216.576 47.28C217.196 46.32 217.506 45.26 217.506 44.13C217.506 42.63 216.666 41.43 215.256 40.92C214.656 40.69 213.906 40.49 212.936 40.3C212.046 40.13 211.086 39.98 210.086 39.86C209.096 39.74 208.176 39.66 207.356 39.63C207.326 39.63 207.296 39.63 207.266 39.63C206.996 39.63 206.716 39.69 206.466 39.8L204.226 40.77C204.066 40.77 203.886 40.79 203.686 40.8L204.046 38.58L204.696 36.05C204.696 36.05 204.716 35.98 204.716 35.95C205.016 34.48 204.306 33.16 202.916 32.56C202.276 32.25 201.476 31.97 200.456 31.7C199.476 31.44 198.466 31.23 197.436 31.07C196.436 30.92 195.516 30.8 194.696 30.72C194.536 30.71 194.436 30.7 194.336 30.7L194.326 30.71Z" fill="black" style="fill:black;fill-opacity:1;"/>
<path d="M225.776 41.14C224.396 41.14 223.246 41.62 222.316 42.59C221.386 43.56 220.926 44.71 220.926 46.05C220.926 47.39 221.386 48.48 222.316 49.42C223.246 50.37 224.396 50.84 225.776 50.84C227.156 50.84 228.306 50.37 229.236 49.42C230.166 48.47 230.626 47.35 230.626 46.05C230.626 44.75 230.166 43.56 229.236 42.59C228.306 41.62 227.156 41.14 225.776 41.14Z" fill="white" style="fill:white;fill-opacity:1;"/>
<path d="M225.776 41.14C227.156 41.14 228.306 41.62 229.236 42.59C230.166 43.56 230.626 44.71 230.626 46.05C230.626 47.39 230.166 48.48 229.236 49.42C228.306 50.37 227.156 50.84 225.776 50.84C224.396 50.84 223.246 50.37 222.316 49.42C221.386 48.47 220.926 47.35 220.926 46.05C220.926 44.75 221.386 43.56 222.316 42.59C223.246 41.62 224.396 41.14 225.776 41.14ZM225.776 39.14C223.866 39.14 222.176 39.85 220.876 41.2C219.586 42.55 218.926 44.18 218.926 46.04C218.926 47.9 219.586 49.48 220.896 50.81C222.196 52.13 223.886 52.83 225.786 52.83C227.686 52.83 229.376 52.13 230.666 50.81C231.966 49.48 232.636 47.87 232.636 46.04C232.636 44.21 231.976 42.55 230.686 41.2C229.386 39.85 227.696 39.14 225.786 39.14H225.776Z" fill="black" style="fill:black;fill-opacity:1;"/>
<path d="M248.076 42.59C247.146 41.62 245.996 41.14 244.616 41.14C243.236 41.14 242.086 41.62 241.156 42.59C240.226 43.56 239.766 44.71 239.766 46.05C239.766 47.39 240.226 48.48 241.156 49.42C242.086 50.37 243.236 50.84 244.616 50.84C245.996 50.84 247.146 50.37 248.076 49.42C249.006 48.47 249.466 47.35 249.466 46.05C249.466 44.75 249.006 43.56 248.076 42.59Z" fill="white" style="fill:white;fill-opacity:1;"/>
<path d="M244.616 41.14C245.996 41.14 247.146 41.62 248.076 42.59C249.006 43.56 249.466 44.71 249.466 46.05C249.466 47.39 249.006 48.48 248.076 49.42C247.146 50.37 245.996 50.84 244.616 50.84C243.236 50.84 242.086 50.37 241.156 49.42C240.226 48.47 239.766 47.35 239.766 46.05C239.766 44.75 240.226 43.56 241.156 42.59C242.086 41.62 243.236 41.14 244.616 41.14ZM244.616 39.14C242.706 39.14 241.016 39.85 239.716 41.2C238.426 42.55 237.766 44.18 237.766 46.04C237.766 47.9 238.426 49.48 239.736 50.81C241.036 52.13 242.726 52.83 244.626 52.83C246.526 52.83 248.216 52.13 249.506 50.81C250.806 49.48 251.476 47.87 251.476 46.04C251.476 44.21 250.816 42.55 249.526 41.2C248.226 39.85 246.536 39.14 244.626 39.14H244.616Z" fill="black" style="fill:black;fill-opacity:1;"/>
</svg>
