<svg width="225" height="125" viewBox="0 0 225 125" fill="none" xmlns="http://www.w3.org/2000/svg">
<path d="M14.2329 9.69012C14.2329 9.69012 10.1221 100.081 1.22124 106.932C1.22124 106.932 205.285 128.845 210.767 122.685C216.248 116.524 223.778 54.8855 223.778 54.8855L200.495 22.0106C200.495 22.0106 40.2563 -14.963 14.2329 9.69012Z" fill="#E7F0FB" style="fill:#E7F0FB;fill:color(display-p3 0.9059 0.9412 0.9843);fill-opacity:1;"/>
<path d="M200.338 124.989C187.932 124.989 161.412 123.57 103.823 118.331C52.6981 113.675 1.59717 108.193 1.08786 108.145C0.590677 108.096 0.178358 107.745 0.0449665 107.272C-0.0884246 106.799 0.0813533 106.289 0.4694 105.986C6.67815 101.208 11.3711 45.7663 13.0082 9.65367C13.0203 9.33838 13.1537 9.04735 13.3841 8.82907C24.4555 -1.66032 59.4162 -2.81233 117.284 5.42154C160.151 11.5212 200.362 20.7616 200.762 20.8464C201.053 20.9192 201.308 21.0889 201.478 21.3315L224.76 54.2064C224.93 54.4489 225.015 54.752 224.979 55.0552C224.203 61.3973 217.242 117.24 211.676 123.509C211.167 124.079 210.342 125.001 200.338 125.001V124.989ZM3.48891 105.962C84.0572 114.584 204 125.765 209.93 121.823C213.677 117.603 219.498 79.8538 222.517 55.2128L199.768 23.1019C190.394 20.9798 41.0567 -12.4043 15.4214 10.2479C14.9242 20.9798 11.359 91.9196 3.48891 105.95V105.962Z" fill="black" style="fill:black;fill-opacity:1;"/>
<path d="M192.965 55.237L200.495 22.0226L223.778 54.8975L192.965 55.237Z" fill="#E7F0FB" style="fill:#E7F0FB;fill:color(display-p3 0.9059 0.9412 0.9843);fill-opacity:1;"/>
<path d="M192.965 56.4497C192.601 56.4497 192.249 56.2799 192.019 56.001C191.789 55.71 191.692 55.3341 191.777 54.9703L199.307 21.7559C199.416 21.2951 199.78 20.9313 200.253 20.8343C200.726 20.7373 201.199 20.9313 201.478 21.3194L224.76 54.1942C225.015 54.558 225.052 55.043 224.845 55.4432C224.639 55.8434 224.227 56.0981 223.778 56.1102L192.965 56.4497ZM201.078 24.9452L194.481 54.0123L221.45 53.7091L201.078 24.9452Z" fill="black" style="fill:black;fill-opacity:1;"/>
</svg>
