<svg width="185" height="118" viewBox="0 0 185 118" fill="none" xmlns="http://www.w3.org/2000/svg">
<path d="M43.9317 23.9821C43.9317 23.9821 46.3172 7.6203 63.0813 4.9822C93.3446 0.220528 90.5942 18.7433 90.5942 18.7433C90.5942 18.7433 94.4859 7.93837 115.104 7.62966C135.723 7.32094 137.762 24.7399 137.762 24.7399C137.762 24.7399 150.522 16.6572 160.794 22.4479C171.056 28.2386 172.506 46.303 165.041 47.2666C165.041 47.2666 178.999 51.6354 180.159 63.46C181.319 75.2847 163.423 80.4767 163.423 80.4767C163.423 80.4767 172.834 95.0517 154.489 104.014C132.972 114.519 127.911 97.0911 127.911 97.0911C127.911 97.0911 131.167 113.827 109.903 113.537C88.639 113.247 89.1723 97.5963 89.1723 97.5963C89.1723 97.5963 79.5741 112.854 66.711 112.368C51.6776 111.797 46.944 103.883 46.523 94.5278C46.523 94.5278 31.4615 107.092 21.1337 100.057C10.0855 92.5259 18.982 80.1493 18.982 80.1493C18.982 80.1493 4.10764 80.2896 4.22926 63.6658C4.36023 45.4517 20.3853 47.6127 20.3853 47.6127C20.3853 47.6127 8.39221 39.2307 19.0756 26.9944C32.1538 12.0171 43.9504 23.9915 43.9504 23.9915L43.9317 23.9821Z" fill="white" style="fill:white;fill-opacity:1;"/>
<path d="M110.427 117.747C110.23 117.747 110.034 117.747 109.837 117.747C101.259 117.635 94.673 115.23 90.2668 110.609C89.0133 109.29 88.0497 107.915 87.32 106.577C82.6893 111.376 75.3831 116.924 66.5427 116.577C54.3251 116.119 46.3547 110.89 43.4734 101.675C37.2617 105.277 27.1209 109.234 18.7576 103.537C14.8285 100.861 12.3588 97.2314 11.6197 93.0404C10.9742 89.4013 11.6946 85.9494 12.6955 83.2364C10.3942 82.4506 7.8029 81.1128 5.52029 78.8396C1.80637 75.135 -0.0459107 70.0179 0.000864136 63.6284C0.0476389 56.6216 2.17121 51.2518 6.2874 47.6782C8.16774 46.0505 10.2352 45.0121 12.2184 44.3666C11.4139 42.8043 10.7778 40.9801 10.5252 38.922C9.91712 33.9358 11.7226 28.987 15.8856 24.2254C20.9279 18.4534 26.4941 15.4411 32.4345 15.2633C36.0174 15.151 39.1233 16.1333 41.5369 17.312C44.3808 10.6139 50.6954 2.67153 62.4265 0.828602C75.3457 -1.20142 84.6539 0.501179 90.0985 5.90834C91.2959 7.09642 92.2127 8.37805 92.9049 9.68775C97.4421 6.37609 104.561 3.57896 115.029 3.41993C130.063 3.20477 137.519 11.54 140.447 18.7059C145.854 16.4888 154.797 14.2343 162.843 18.7714C171.43 23.6173 175.116 35.0116 173.601 42.8043C173.367 44.0298 172.993 45.143 172.516 46.144C177.39 49.0628 183.489 54.3764 184.34 63.0484C185.407 73.9189 175.191 80.1212 169.036 82.8435C169.943 85.7248 170.57 89.6633 169.391 93.9011C167.782 99.6731 163.385 104.351 156.332 107.803C147.781 111.975 140.335 112.714 134.207 110.001C132.776 109.365 131.532 108.588 130.437 107.737C129.904 108.832 129.221 109.917 128.351 110.955C124.571 115.474 118.547 117.766 110.427 117.766V117.747ZM89.163 93.3866C89.5746 93.3866 89.9956 93.4427 90.4072 93.5736C92.222 94.1349 93.4382 95.8375 93.3727 97.7366C93.3633 98.8592 93.7188 109.103 109.95 109.327C115.684 109.402 119.679 108.149 121.849 105.595C124.534 102.433 123.776 97.905 123.767 97.8582C123.374 95.6598 124.777 93.5175 126.957 93.003C129.137 92.4978 131.326 93.7607 131.953 95.9124C131.953 95.9217 133.412 100.478 137.696 102.33C141.438 103.948 146.462 103.237 152.636 100.225C157.435 97.8769 160.345 94.9863 161.28 91.6372C162.553 87.072 159.905 82.7967 159.886 82.75C159.166 81.6367 159.016 80.2428 159.475 78.9893C159.943 77.7451 160.972 76.7909 162.244 76.4167C162.384 76.3792 176.753 71.9169 175.958 63.853C175.603 60.2139 173.507 57.0145 169.719 54.3483C166.706 52.2154 163.797 51.2705 163.769 51.2705C161.879 50.6812 160.663 48.857 160.831 46.8831C161.009 44.9092 162.525 43.3282 164.489 43.0756C164.77 42.9446 165.471 41.7846 165.509 39.3617C165.574 34.8245 163.217 28.6409 158.708 26.0964C150.803 21.634 140.091 28.2199 139.988 28.2854C138.763 29.0525 137.229 29.1367 135.928 28.5099C134.628 27.8831 133.73 26.6389 133.562 25.2076C133.384 23.8418 131.288 11.5962 115.142 11.8207C98.6208 12.0733 94.8601 19.445 94.5234 20.1934C93.8592 22.2702 91.7543 23.4115 89.6214 22.925C87.4697 22.4386 86.0945 20.2776 86.4126 18.0979C86.422 18.0043 86.8242 14.4214 84.0832 11.7833C81.6977 9.48194 76.2344 7.15255 63.7175 9.11709C50.3305 11.222 48.1695 24.0476 48.076 24.5902C47.8328 26.1618 46.7195 27.4715 45.204 27.958C43.6979 28.4444 42.0514 28.0515 40.9382 26.9383C40.8353 26.8354 37.3084 23.4676 32.6029 23.6453C29.1228 23.7763 25.6241 25.8251 22.2189 29.7354C19.693 32.6261 18.5705 35.3671 18.8792 37.8742C19.3282 41.5694 22.7428 44.1046 22.7708 44.1327C24.3612 45.2459 24.988 47.304 24.277 49.1095C23.5754 50.915 21.7231 52.0096 19.796 51.7476C19.7772 51.7476 14.9688 51.2051 11.76 54.0396C9.57099 55.9667 8.44839 59.2035 8.42033 63.6565C8.38291 68.8485 9.99196 72.3192 13.3504 74.2837C16.0446 75.8554 18.9353 75.9021 18.9634 75.9021C20.535 75.9115 21.9944 76.8002 22.7053 78.2035C23.4163 79.6067 23.3041 81.2906 22.3873 82.5629C21.4892 83.8445 19.2627 87.9887 19.9082 91.5717C20.2637 93.5175 21.4331 95.1359 23.4912 96.5392C30.9751 101.638 43.6792 91.3659 43.8101 91.2536C45.0356 90.2246 46.7382 89.9907 48.207 90.6362C49.6663 91.2817 50.6392 92.7036 50.7141 94.294C51.1257 103.452 56.1119 107.709 66.8607 108.121C77.1044 108.495 85.5239 95.4353 85.6081 95.3043C86.3939 94.0601 87.7504 93.3491 89.1723 93.3491L89.163 93.3866Z" fill="#EFAB22" style="fill:#EFAB22;fill:color(display-p3 0.9373 0.6706 0.1333);fill-opacity:1;"/>
</svg>
