<svg width="256" height="96" viewBox="0 0 256 96" fill="none" xmlns="http://www.w3.org/2000/svg">
<path d="M9.57001 66.53V29.38C9.57001 13.38 22.54 0.409973 38.54 0.409973H226.8C242.8 0.409973 255.77 13.38 255.77 29.38V66.53C255.77 82.53 242.8 95.5 226.8 95.5H38.54C31.53 95.5 25.1 93.01 20.09 88.86L19.96 88.99C11.88 97.07 1.99998 95.23 0.919983 95C1.88998 95.18 9.57001 95.64 9.57001 66.53Z" fill="#E5E5EA" style="fill:#E5E5EA;fill:color(display-p3 0.8980 0.8980 0.9176);fill-opacity:1;"/>
<path d="M0.919983 95C0.849983 94.99 0.820007 94.98 0.820007 94.98C0.820007 94.98 0.859983 94.98 0.919983 95Z" fill="#E5E5EA" style="fill:#E5E5EA;fill:color(display-p3 0.8980 0.8980 0.9176);fill-opacity:1;"/>
</svg>
