<?xml version="1.0" encoding="UTF-8"?>
<svg id="_레이어_1" data-name="레이어 1" xmlns="http://www.w3.org/2000/svg" viewBox="0 0 375 92.88">
  <defs>
    <style>
      .cls-1 {
        fill: #231815;
        stroke: #231815;
      }

      .cls-1, .cls-2 {
        stroke-miterlimit: 10;
      }

      .cls-2 {
        fill: #fff;
        stroke: #040000;
        stroke-width: 2px;
      }

      .cls-3 {
        fill: #c1232b;
      }
    </style>
  </defs>
  <rect class="cls-2" x="8.14" y="7.31" width="358.71" height="78.26"/>
  <g>
    <path class="cls-1" d="M42.16,26.07c-1.68,7.47-2.49,15.05-2.49,22.63s.17,14.7.52,20.95c-1.79.23-3.24.35-4.86.58-.29-6.71-.46-13.48-.46-21.53,0-7.58.81-15.28,2.49-22.86,1.56.12,3.18.17,4.8.23ZM78.1,67.74c-5.15.58-9.78.87-13.43.87-5.56,0-9.61-.64-12.21-2.03-3.07-1.56-4.57-4.28-4.57-7.99,0-1.74.58-3.65,1.62-5.84,1.39.35,2.72.58,4.11.93-.75,1.91-1.04,3.65-1.04,4.92,0,2.26.98,3.82,3.13,4.63,1.74.69,4.75.98,8.97.98,3.65,0,8.1-.35,13.19-1.04l.23,4.57ZM75.84,34.87c-4.4,1.85-8.45,4.69-12.09,8.39l-3.76-1.91c1.91-2.26,3.99-4.4,7.35-6.6-6.65.12-12.09.75-17.82,1.79l-.17-4.46c5.67-1.16,12.15-1.74,19.44-1.74,2.43,0,4.8.12,7.06.29v4.22Z"/>
    <path class="cls-1" d="M100.67,64.38c6.89-.35,12.15-1.33,15.86-3.01,4.17-1.85,6.31-4.63,6.31-8.28,0-2.08-.93-3.82-2.6-5.27-1.74-1.5-4.22-2.31-7.06-2.31-6.08,0-13.6,1.39-21.7,3.99l-.75-4.63c8.04-2.49,15.62-3.76,22.45-3.76,4.75,0,8.33,1.16,10.88,3.53,2.37,2.14,3.53,4.98,3.53,8.56,0,5.21-2.49,9.2-7.18,11.86-4.11,2.31-10.13,3.65-17.82,4.05l-1.91-4.75Z"/>
    <path class="cls-1" d="M137.76,70.46c-.58-7.12-.87-14.64-.87-22.97,0-6.65.69-14.06,2.14-21.99l4.69.35c-1.5,7.7-2.2,14.93-2.2,21.64,0,7.87.41,15.45,1.1,22.8l-4.86.17ZM180.87,69.07c-2.6-2.31-5.84-4.46-9.55-6.37-1.27,5.32-5.03,7.99-11.34,7.99-6.71,0-10.07-3.99-10.07-7.99,0-5.38,4.92-7.7,10.07-7.7,2.31,0,4.63.46,7.23,1.33v-11.23h-16.38v-4.4h16.38v-8.97h-15.22v-4.46h12.67c3.65,0,7-.12,10.24-.29l.17,4.4c-1.22.06-2.37.12-3.24.12v8.97c2.43-.06,6.42-.29,11.05-.64v4.34c-4.63.41-8.28.64-11.05.69v13.08c4.22,1.97,8.33,4.4,11.69,7l-2.66,4.11ZM159.98,58.94c-2.6,0-5.67.93-5.67,3.76,0,3.36,3.59,4.05,5.67,4.05,4.22,0,6.48-1.97,6.89-6.02-2.43-1.22-4.75-1.79-6.89-1.79ZM181.16,32.15c-3.24,0-5.56-2.37-5.56-5.61s2.31-5.5,5.56-5.5,5.56,2.37,5.56,5.5-2.32,5.61-5.56,5.61ZM184.23,26.53c0-1.79-1.22-3.01-3.07-3.01s-3.01,1.22-3.01,3.01c0,1.91,1.16,3.07,3.01,3.07s3.07-1.16,3.07-3.07Z"/>
    <path class="cls-1" d="M238.8,56.86c-2.08,4.4-4.22,7.41-6.25,9.43-2.6,2.49-5.67,3.7-9.09,3.7-2.84,0-5.15-.75-6.94-2.31-2.03-1.79-3.12-4.51-3.12-7.99,0-3.24-.29-5.44-.87-6.71-.58-1.33-1.74-1.97-3.47-1.97-2.95.06-5.73,2.08-8.16,6.13-.93,1.56-3.01,6.02-6.19,13.31l-4.57-2.26c6.25-14.99,12.67-28.99,19.79-42.94l4.57,2.03c-3.59,6.94-7.18,14.29-10.24,21.3,1.74-1.27,3.93-2.14,6.08-2.14,6.02,0,7.87,4.11,7.87,9.9,0,4.69.58,9.03,5.27,9.03,2.2,0,4.34-.98,6.48-3.12,1.91-2.03,3.53-4.86,5.15-8.51l3.7,3.12Z"/>
    <path class="cls-3" d="M265.59,56.62c-1.45,3.76-3.01,6.77-4.57,8.8-1.79,2.37-3.65,3.53-5.56,3.53-2.84,0-5.27-1.85-7.06-5.5-1.85-3.82-2.72-8.68-2.72-14.64,0-6.71.23-13.31.75-19.68l5.21.41c-.69,6.02-.98,12.44-.98,19.21.06,3.82.46,7.06,1.27,9.78.98,2.95,2.14,4.46,3.47,4.46.98,0,2.03-1.1,3.3-3.24,1.1-1.85,2.14-3.99,3.12-6.71l3.76,3.59ZM283.3,61.49c-.58-9.66-2.95-17.94-7.58-26.97l4.51-1.74c5.21,8.97,7.93,18.17,8.33,27.37l-5.27,1.33Z"/>
    <path class="cls-3" d="M313.33,66.64c7.12-.06,12.56-.69,16.03-2.03,3.88-1.45,6.02-3.88,6.02-7.12,0-1.97-.75-3.53-2.2-4.75-1.39-1.16-3.47-1.74-5.9-1.74-5.38,0-11.92,2.78-19.16,8.04l-3.3-1.97c2.26-6.19,4.17-12.56,5.61-18.87-3.07.12-7.06.29-10.94.29v-4.46c3.99,0,7.87-.06,11.92-.23.69-2.89,1.39-6.42,1.97-9.9l4.8.41c-.52,3.3-1.27,6.42-1.97,9.32,4.98-.29,11.05-.75,16.96-1.45v4.4c-6.37.69-12.27,1.16-17.82,1.45-.98,4.28-2.26,8.85-3.88,14,5.79-3.94,10.94-5.61,15.74-5.61,4.05,0,7.29.98,9.55,3.01,2.26,1.91,3.36,4.57,3.36,7.93,0,5.32-2.43,9.2-7.29,11.52-3.99,1.91-9.95,2.89-17.77,2.95l-1.74-5.21Z"/>
  </g>
</svg>