<svg width="121" height="140" viewBox="0 0 121 140" fill="none" xmlns="http://www.w3.org/2000/svg">
<path d="M13.7972 21.3801C13.7972 21.3801 75.5372 18.3701 115.817 21.3801C115.817 21.3801 121.967 59.4001 117.207 94.6301C113.947 118.75 93.7272 137 69.4172 137.99C42.9472 139.06 9.17722 139.59 0.997223 135.83C0.997223 135.83 37.5172 83.1201 13.7972 21.3801Z" fill="white" style="fill:white;fill-opacity:1;"/>
<path d="M35.7172 139.76C19.5472 139.76 5.55722 139.01 0.587223 136.73C0.317223 136.61 0.11722 136.37 0.0372198 136.09C-0.0427802 135.81 0.00721921 135.5 0.177219 135.26C0.537219 134.74 36.1072 82.2502 12.8672 21.7402C12.7572 21.4402 12.7872 21.1002 12.9672 20.8402C13.1472 20.5702 13.4372 20.4002 13.7572 20.3902C14.3772 20.3602 76.0172 17.4102 115.907 20.3902C116.367 20.4202 116.747 20.7702 116.817 21.2302C116.877 21.6102 122.937 59.8002 118.217 94.7702C114.887 119.38 94.3872 137.98 69.4772 138.99C58.6472 139.43 46.6872 139.77 35.7272 139.77L35.7172 139.76ZM2.51723 135.34C10.1472 137.85 33.7072 138.43 69.3872 136.98C93.3372 136.01 113.037 118.14 116.227 94.4902C120.537 62.5702 115.787 27.9102 114.957 22.3102C78.5172 19.6802 24.4972 21.8902 15.2272 22.3102C26.9772 53.9702 22.8472 83.0802 17.2572 102.03C12.0972 119.52 4.77723 131.78 2.51723 135.33V135.34Z" fill="black" style="fill:black;fill-opacity:1;"/>
<path d="M79.4972 136.77C79.4972 136.77 81.1872 115.69 90.2272 110.42C99.2672 105.15 113.947 105.86 113.947 105.86" fill="white" style="fill:white;fill-opacity:1;"/>
<path d="M79.4972 137.77C79.4972 137.77 79.4472 137.77 79.4172 137.77C78.8672 137.73 78.4572 137.24 78.4972 136.69C78.5672 135.81 80.3372 115.02 89.7172 109.55C98.9072 104.19 113.377 104.82 113.987 104.85C114.537 104.88 114.967 105.35 114.937 105.9C114.907 106.45 114.437 106.88 113.887 106.85C113.747 106.85 99.3872 106.22 90.7172 111.28C82.2272 116.23 80.4972 136.64 80.4772 136.85C80.4372 137.37 79.9972 137.77 79.4772 137.77H79.4972Z" fill="black" style="fill:black;fill-opacity:1;"/>
<path d="M70.5872 1.00018L55.2572 30.5402L58.7272 29.6602L59.0372 32.2001L63.9872 29.1901L64.4672 33.7302L81.5172 4.34015L75.9772 6.33014L76.4372 4.18018L71.2472 4.91016L70.5872 1.00018Z" fill="#B4CDE9" style="fill:#B4CDE9;fill:color(display-p3 0.7059 0.8039 0.9137);fill-opacity:1;"/>
<path d="M64.4672 34.7302C64.3972 34.7302 64.3272 34.7302 64.2572 34.7102C63.8372 34.6202 63.5172 34.2702 63.4672 33.8402L63.1472 30.8702L59.5472 33.0602C59.2572 33.2402 58.8972 33.2502 58.5872 33.1102C58.2772 32.9602 58.0672 32.6701 58.0272 32.3301L57.8572 30.9102L55.4872 31.5101C55.1072 31.6101 54.6972 31.4702 54.4572 31.1602C54.2172 30.8502 54.1672 30.4301 54.3572 30.0801L69.6872 0.54017C69.8872 0.16017 70.3072 -0.0498595 70.7272 0.0101405C71.1472 0.0801405 71.4872 0.410148 71.5572 0.830148L72.0572 3.78016L76.2772 3.18018C76.5972 3.14018 76.9272 3.25018 77.1472 3.49018C77.3672 3.73018 77.4572 4.06014 77.3972 4.38014L77.3172 4.78016L81.1672 3.40016C81.5572 3.26016 82.0072 3.38014 82.2772 3.70014C82.5472 4.02014 82.5872 4.48016 82.3772 4.84016L65.3272 34.2302C65.1472 34.5402 64.8172 34.7302 64.4572 34.7302H64.4672ZM63.9872 28.1901C64.1372 28.1901 64.2872 28.2202 64.4272 28.2902C64.7372 28.4402 64.9372 28.7401 64.9772 29.0801L65.1372 30.5801L79.2772 6.21015L76.3172 7.27015C75.9772 7.39015 75.5972 7.32015 75.3172 7.08015C75.0472 6.84015 74.9172 6.47019 74.9972 6.12019L75.1572 5.36018L71.3872 5.90016C70.8472 5.98015 70.3472 5.61015 70.2572 5.08015L70.0972 4.12019L57.1672 29.0202L58.4772 28.6901C58.7572 28.6201 59.0472 28.6701 59.2872 28.8301C59.5272 28.9901 59.6772 29.2502 59.7172 29.5302L59.8372 30.5302L63.4572 28.3301C63.6172 28.2301 63.7972 28.1802 63.9772 28.1802L63.9872 28.1901Z" fill="black" style="fill:black;fill-opacity:1;"/>
</svg>
