<svg width="245" height="194" viewBox="0 0 245 194" fill="none" xmlns="http://www.w3.org/2000/svg">
<path d="M126.856 149.406C126.856 149.406 241.061 154.709 241.811 93.455C242.561 32.2012 180.557 3.46252 110.224 2.71258C39.8902 1.96264 -0.177837 51.1104 2.8487 88.1787C5.87523 125.247 47.47 163.038 108.724 154.736C108.724 154.736 117.803 176.671 133.686 188.001C149.568 199.33 134.436 180.448 126.883 149.433L126.856 149.406Z" fill="white" style="fill:white;fill-opacity:1;"/>
<path d="M139.819 194C137.703 194 135.105 192.312 132.106 190.17C118.366 180.367 109.688 163.333 107.063 157.628C76.8513 161.271 48.8626 154.119 28.0786 137.38C11.821 124.309 1.64335 106.445 0.170261 88.366C-1.27605 70.5282 6.54467 51.003 21.6238 34.799C42.8898 11.9795 74.3604 -0.341002 110.25 0.00718274C158.702 0.516069 199.654 14.256 222.553 37.6915C237.391 52.8778 244.757 71.6262 244.489 93.4547C244.328 106.177 239.507 117.131 230.106 125.97C202.841 151.655 145.417 152.405 130.338 152.164C133.204 162.824 136.819 171.796 139.551 178.546C143.247 187.706 144.64 191.134 141.989 193.223C141.319 193.732 140.623 193.973 139.819 193.973V194ZM108.697 152.03C109.768 152.03 110.759 152.673 111.161 153.691C111.241 153.905 120.16 175.064 135.212 185.804C135.962 186.34 136.578 186.768 137.114 187.117C136.444 185.242 135.48 182.831 134.57 180.581C131.516 173.002 127.311 162.61 124.258 150.048C124.071 149.218 124.258 148.361 124.794 147.718C125.329 147.075 126.106 146.7 126.99 146.754C127.686 146.781 197.243 149.646 226.464 122.113C234.74 114.292 238.999 104.65 239.159 93.4279C239.4 73.0725 232.544 55.583 218.75 41.4681C196.841 19.0503 157.282 5.89957 110.224 5.39069C63.9417 4.8818 37.2921 25.9069 25.5609 38.4684C11.7139 53.3332 4.21457 71.8405 5.52696 87.9374C6.89291 104.543 16.3207 121.042 31.4533 133.201C51.5409 149.352 78.8601 156.048 108.375 152.057C108.509 152.057 108.616 152.057 108.75 152.057L108.697 152.03Z" fill="black" style="fill:black;fill-opacity:1;"/>
<path d="M67.8553 107.038C67.8553 105.475 68.1948 104.321 69.0099 103.37C68.059 103.506 67.0402 103.642 66.2931 103.642C64.1877 103.642 62.8293 102.895 62.8293 100.11C62.8293 97.3253 64.1877 96.5782 66.2931 96.5782H105.074C107.18 96.5782 108.538 97.3253 108.538 100.11C108.538 102.895 107.18 103.642 105.074 103.642C104.056 103.642 103.241 103.574 102.561 103.506C103.444 104.457 103.92 105.611 103.92 107.038C103.92 112.743 97.6033 115.459 85.5139 115.459C72.7454 115.459 67.8553 112.743 67.8553 107.038ZM80.3522 60.5138H67.5157C65.4102 60.5138 64.0519 59.2912 64.0519 56.7783C64.0519 54.2653 65.4102 53.1107 67.5157 53.1107H103.58C105.686 53.1107 107.044 54.2653 107.044 56.7783C107.044 59.2912 105.686 60.5138 103.58 60.5138H91.9661C86.8723 69.411 77.2279 73.1465 65.6819 73.554C62.8972 73.6898 60.9276 72.6031 60.9276 69.6827C60.9276 67.3735 62.2181 66.3547 64.1198 66.2189C71.387 65.6755 77.0242 64.0455 80.3522 60.5138ZM81.8464 77.3574V74.2332C81.8464 72.6711 82.7972 71.041 85.9893 71.041C88.8419 71.041 89.9965 72.6711 89.9965 74.2332V77.3574H110.1C112.206 77.3574 113.564 78.512 113.564 81.025C113.564 83.5379 112.206 84.6246 110.1 84.6246H60.4522C58.3467 84.6246 56.9884 83.5379 56.9884 81.025C56.9884 78.512 58.3467 77.3574 60.4522 77.3574H81.8464ZM102.901 73.6898L91.7624 70.5656C89.8607 70.0223 89.3852 68.3922 89.3852 67.1018C89.3852 64.7247 91.0153 63.2984 93.1207 63.5021C97.6712 63.9097 103.173 64.9284 107.316 66.3547C108.878 66.898 109.557 68.2564 109.557 69.7506C109.557 71.5844 108.674 74.1653 105.482 74.1653C104.395 74.1653 103.58 73.8936 102.901 73.6898ZM76.1412 93.3181C74.3754 92.7748 73.6962 91.756 73.6962 90.126C73.6962 87.8168 75.3262 86.1188 78.2467 86.798C83.001 87.8847 89.2494 88.0884 93.5962 88.0884C95.4299 88.0884 96.8562 88.7676 96.8562 91.4164C96.8562 93.9973 95.0224 94.8123 93.2566 94.8123C88.3665 94.8123 80.1484 94.6086 76.1412 93.3181ZM76.4808 105.815C76.4808 107.92 79.2655 108.532 85.5139 108.532C91.9661 108.532 95.2941 107.92 95.2941 105.815C95.2941 103.913 91.9661 103.302 85.5139 103.302C79.2655 103.302 76.4808 103.913 76.4808 105.815ZM120.418 76.5424C120.418 61.8042 127.55 56.0312 137.466 56.0312C147.45 56.0312 154.309 61.7363 154.309 76.5424C154.309 91.9598 147.45 97.1215 137.466 97.1215C127.55 97.1215 120.418 91.8918 120.418 76.5424ZM161.101 105.611V55.0124C161.101 52.9749 162.46 51.6165 165.176 51.6165C167.893 51.6165 169.251 52.9749 169.251 55.0124V72.9427H174.617C176.722 72.9427 178.081 74.0973 178.081 76.882C178.081 79.6666 176.722 80.8212 174.617 80.8212H169.251V105.611C169.251 107.649 167.893 109.007 165.176 109.007C162.46 109.007 161.101 107.649 161.101 105.611ZM146.227 76.5424C146.227 67.7131 142.899 63.9097 137.466 63.9097C132.032 63.9097 128.637 67.7131 128.637 76.5424C128.637 85.3717 132.032 89.243 137.466 89.243C142.899 89.243 146.227 85.3717 146.227 76.5424ZM195.259 59.495L193.832 90.3297C193.697 92.7069 192.746 94.0652 190.029 94.0652C187.312 94.0652 186.294 92.7069 186.158 90.3297L184.799 59.495C184.663 55.9632 185.954 53.722 190.029 53.722C194.104 53.722 195.395 55.9632 195.259 59.495ZM184.12 104.253C184.12 100.517 186.837 98.344 190.029 98.344C193.221 98.344 195.938 100.517 195.938 104.253C195.938 108.124 193.221 110.162 190.029 110.162C186.837 110.162 184.12 108.124 184.12 104.253Z" fill="black" style="fill:black;fill-opacity:1;"/>
</svg>
