<svg width="83" height="19" viewBox="0 0 83 19" fill="none" xmlns="http://www.w3.org/2000/svg">
<path d="M0 8.95001C0 4.07001 4.07007 0 9.07007 0C14.0701 0 18.02 4.07001 18.02 8.95001C18.02 13.83 13.8401 18.02 9.07007 18.02C4.30007 18.02 0 13.95 0 8.95001Z" fill="black" style="fill:black;fill-opacity:1;"/>
<path d="M32.4302 8.95001C32.4302 4.07001 36.5001 0 41.5001 0C46.5001 0 50.4502 4.07001 50.4502 8.95001C50.4502 13.83 46.2701 18.02 41.5001 18.02C36.7301 18.02 32.4302 13.95 32.4302 8.95001Z" fill="black" style="fill:black;fill-opacity:1;"/>
<path d="M64.8701 8.95001C64.8701 4.07001 68.9402 0 73.9402 0C78.9402 0 82.8901 4.07001 82.8901 8.95001C82.8901 13.83 78.7102 18.02 73.9402 18.02C69.1702 18.02 64.8701 13.95 64.8701 8.95001Z" fill="black" style="fill:black;fill-opacity:1;"/>
</svg>
