<svg width="203" height="121" viewBox="0 0 203 121" fill="none" xmlns="http://www.w3.org/2000/svg">
<path d="M22.4591 30.0008L35.3534 22.4555C35.3534 22.4555 58.9456 20.0264 63.3255 16.37C63.3255 16.37 73.0544 19.29 75.9743 19.781C78.8943 20.2719 90.5612 16.861 97.1375 13.2175C97.1375 13.2175 107.112 18.0755 112.461 17.5975C117.81 17.1194 137.991 18.5665 146.751 16.1375C146.751 16.1375 147.474 25.1299 151.131 28.2954C154.787 31.4608 176.183 32.4298 176.183 32.4298C176.183 32.4298 181.286 48.9676 190.292 57.4819C190.292 57.4819 186.403 70.1308 185.188 77.6632C185.188 77.6632 181.545 86.4231 181.054 91.281C181.054 91.281 163.547 91.5265 155.278 101.255C155.278 101.255 144.826 99.5499 134.115 105.881C134.115 105.881 121.466 102.961 112.474 109.77L96.6595 112.935C96.6595 112.935 89.3596 110.261 85.2252 111.23C85.2252 111.23 76.4653 107.341 68.9329 109.524C68.9329 109.524 46.5552 102.715 41.4517 104.421C41.4517 104.421 36.8263 101.501 33.9064 101.01C33.9064 101.01 27.0975 91.5265 16.6451 89.8211C16.6451 89.8211 14.9396 80.3377 8.37617 77.1722C8.37617 77.1722 13.2341 65.0144 8.37617 57.96C8.37617 57.96 14.4616 39.7168 14.2161 32.9079L22.485 29.9879L22.4591 30.0008Z" fill="white" style="fill:white;fill-opacity:1;"/>
<path d="M65.1473 26.422C64.5401 26.422 64.0103 25.9956 63.8811 25.3884L59.0232 1.55069C58.881 0.852999 59.3332 0.168241 60.0309 0.0261193C60.7286 -0.116002 61.4134 0.336201 61.5555 1.03389L66.4135 24.8716C66.5556 25.5693 66.1034 26.254 65.4057 26.3961C65.3153 26.4091 65.2377 26.422 65.1473 26.422Z" fill="black" style="fill:black;fill-opacity:1;"/>
<path d="M76.8271 25.453C76.1423 25.453 75.5738 24.9103 75.5351 24.2256L75.0441 13.5277C75.0183 12.8171 75.5609 12.2098 76.2715 12.184C76.9692 12.1582 77.5894 12.7008 77.6152 13.4114L78.1062 24.1093C78.132 24.8199 77.5894 25.4271 76.8787 25.453C76.8529 25.453 76.84 25.453 76.8141 25.453H76.8271Z" fill="black" style="fill:black;fill-opacity:1;"/>
<path d="M95.6647 28.8509C95.6647 28.8509 95.6001 28.8509 95.5613 28.8509C94.8507 28.7993 94.321 28.1791 94.3726 27.4685L96.3236 2.41633C96.3753 1.70573 96.9954 1.17598 97.706 1.22766C98.4167 1.27934 98.9464 1.89952 98.8947 2.61013L96.9438 27.6623C96.8921 28.3341 96.3236 28.8509 95.6517 28.8509H95.6647Z" fill="black" style="fill:black;fill-opacity:1;"/>
<path d="M110.742 29.8329C110.742 29.8329 110.639 29.8329 110.587 29.8329C109.877 29.7425 109.373 29.0965 109.463 28.3859L111.647 10.6336C111.737 9.92295 112.383 9.43199 113.094 9.50951C113.805 9.59995 114.308 10.2459 114.218 10.9566L112.034 28.7089C111.957 29.3678 111.401 29.8458 110.755 29.8458L110.742 29.8329Z" fill="black" style="fill:black;fill-opacity:1;"/>
<path d="M140.898 32.0164C140.756 32.0164 140.601 31.9906 140.459 31.9389C139.787 31.6934 139.438 30.9569 139.684 30.2851L147.216 9.36739C147.462 8.69554 148.198 8.34669 148.87 8.59217C149.542 8.83765 149.89 9.5741 149.645 10.2459L142.113 31.1637C141.919 31.6934 141.428 32.0164 140.898 32.0164Z" fill="black" style="fill:black;fill-opacity:1;"/>
<path d="M151.351 34.9363C151.26 34.9363 151.157 34.9363 151.066 34.9105C150.369 34.7554 149.929 34.0707 150.084 33.373L151.544 26.8096C151.699 26.1119 152.397 25.6726 153.082 25.8276C153.779 25.9827 154.219 26.6674 154.064 27.3651L152.604 33.9285C152.475 34.5358 151.932 34.9363 151.338 34.9363H151.351Z" fill="black" style="fill:black;fill-opacity:1;"/>
<path d="M166.183 43.6962C165.834 43.6962 165.485 43.5541 165.227 43.2828C164.749 42.753 164.774 41.9391 165.304 41.461L180.873 27.1067C181.403 26.6158 182.217 26.6545 182.695 27.1842C183.173 27.714 183.147 28.5279 182.617 29.006L167.048 43.3603C166.803 43.5928 166.48 43.6962 166.17 43.6962H166.183Z" fill="black" style="fill:black;fill-opacity:1;"/>
<path d="M201.7 59.9885C201.7 59.9885 201.61 59.9885 201.571 59.9885L177.488 57.5595C176.777 57.482 176.261 56.8489 176.338 56.1383C176.416 55.4277 177.036 54.9109 177.759 54.9884L201.842 57.4174C202.553 57.4949 203.07 58.128 202.992 58.8386C202.928 59.5104 202.359 60.0014 201.713 60.0014L201.7 59.9885Z" fill="black" style="fill:black;fill-opacity:1;"/>
<path d="M193.186 84.0587C192.992 84.0587 192.785 84.007 192.592 83.9166L176.545 75.6477C175.912 75.3247 175.666 74.5366 175.989 73.9035C176.312 73.2704 177.1 73.0249 177.733 73.3479L193.78 81.6168C194.413 81.9398 194.659 82.7279 194.336 83.361C194.103 83.8003 193.651 84.0587 193.186 84.0587Z" fill="black" style="fill:black;fill-opacity:1;"/>
<path d="M183.935 96.462C183.599 96.462 183.276 96.3328 183.018 96.0873L174.749 87.8185C174.245 87.3146 174.245 86.5006 174.749 85.9967C175.253 85.4928 176.067 85.4928 176.571 85.9967L184.84 94.2656C185.343 94.7695 185.343 95.5835 184.84 96.0873C184.581 96.3457 184.258 96.462 183.922 96.462H183.935Z" fill="black" style="fill:black;fill-opacity:1;"/>
<path d="M157.668 110.816C157.1 110.816 156.583 110.442 156.428 109.873L151.803 93.5808C151.609 92.8961 152.009 92.1854 152.694 91.9916C153.379 91.7978 154.09 92.1984 154.283 92.8831L158.909 109.175C159.103 109.86 158.702 110.571 158.017 110.765C157.901 110.803 157.785 110.816 157.668 110.816Z" fill="black" style="fill:black;fill-opacity:1;"/>
<path d="M134.322 115.429C133.65 115.429 133.081 114.899 133.03 114.214L132.061 98.4001C132.022 97.6894 132.565 97.0693 133.275 97.0305C133.999 96.9788 134.606 97.5344 134.645 98.245L135.614 114.059C135.653 114.77 135.11 115.39 134.399 115.429C134.373 115.429 134.348 115.429 134.322 115.429Z" fill="black" style="fill:black;fill-opacity:1;"/>
<path d="M114.877 118.84C114.347 118.84 113.843 118.504 113.662 117.974L107.822 101.191C107.59 100.519 107.939 99.7825 108.624 99.55C109.295 99.3174 110.032 99.6662 110.264 100.351L116.104 117.134C116.337 117.806 115.988 118.543 115.303 118.775C115.161 118.827 115.019 118.853 114.877 118.853V118.84Z" fill="black" style="fill:black;fill-opacity:1;"/>
<path d="M96.1427 117.38C95.4321 117.38 94.8507 116.798 94.8507 116.088V110.739C94.8507 110.028 95.4321 109.447 96.1427 109.447C96.8533 109.447 97.4347 110.028 97.4347 110.739V116.088C97.4347 116.798 96.8533 117.38 96.1427 117.38Z" fill="black" style="fill:black;fill-opacity:1;"/>
<path d="M85.4448 117.871C85.4448 117.871 85.3415 117.871 85.2898 117.871C84.5792 117.793 84.0753 117.147 84.1528 116.437L85.1218 107.922C85.1993 107.212 85.8453 106.708 86.556 106.785C87.2666 106.863 87.7705 107.509 87.6929 108.219L86.7239 116.734C86.6464 117.393 86.0908 117.884 85.4448 117.884V117.871Z" fill="black" style="fill:black;fill-opacity:1;"/>
<path d="M67.6926 120.791C67.6151 120.791 67.5505 120.791 67.4729 120.778C66.7753 120.649 66.2972 119.99 66.4264 119.279L70.0699 98.3613C70.1991 97.6636 70.858 97.1985 71.5686 97.3147C72.2663 97.4439 72.7444 98.1029 72.6152 98.8135L68.9717 119.731C68.8683 120.364 68.3128 120.804 67.7055 120.804L67.6926 120.791Z" fill="black" style="fill:black;fill-opacity:1;"/>
<path d="M36.8005 114.46C36.6455 114.46 36.4775 114.434 36.3225 114.369C35.6635 114.098 35.3405 113.349 35.6119 112.69L43.6353 92.7411C43.9066 92.0821 44.656 91.7591 45.3149 92.0304C45.9738 92.3017 46.2968 93.0511 46.0255 93.7101L38.0021 113.659C37.7954 114.163 37.3173 114.473 36.8005 114.473V114.46Z" fill="black" style="fill:black;fill-opacity:1;"/>
<path d="M31.4516 105.945C31.2061 105.945 30.9606 105.881 30.741 105.739C30.1466 105.351 29.9787 104.55 30.3663 103.956L34.0098 98.3613C34.3974 97.767 35.1984 97.599 35.7927 97.9866C36.3871 98.3742 36.555 99.1753 36.1674 99.7696L32.5239 105.364C32.2785 105.739 31.865 105.945 31.4387 105.945H31.4516Z" fill="black" style="fill:black;fill-opacity:1;"/>
<path d="M10.3012 96.953C9.97824 96.953 9.64232 96.8238 9.39683 96.5783C8.89295 96.0744 8.88003 95.2605 9.38391 94.7566L23.9708 79.9242C24.4746 79.4204 25.2886 79.4075 25.7925 79.9114C26.2964 80.4152 26.3093 81.2292 25.8054 81.7331L11.2186 96.5654C10.9602 96.8238 10.6372 96.953 10.3012 96.953Z" fill="black" style="fill:black;fill-opacity:1;"/>
<path d="M1.29595 82.3532C0.804983 82.3532 0.339858 82.0819 0.120216 81.6039C-0.176947 80.9579 0.0943756 80.1826 0.740383 79.8855L15.3272 73.0766C15.9732 72.7794 16.7484 73.0507 17.0456 73.6967C17.3428 74.3427 17.0714 75.118 16.4254 75.4151L1.83859 82.224C1.65771 82.3015 1.47683 82.3403 1.29595 82.3403V82.3532Z" fill="black" style="fill:black;fill-opacity:1;"/>
<path d="M12.7303 60.712C12.6528 60.712 12.5624 60.712 12.4849 60.6862L1.05053 58.5027C0.352843 58.3735 -0.112282 57.6887 0.0298396 56.991C0.159041 56.2933 0.830889 55.8282 1.5415 55.9703L12.9758 58.1538C13.6735 58.283 14.1386 58.9678 13.9965 59.6655C13.8802 60.2856 13.3376 60.712 12.7303 60.712Z" fill="black" style="fill:black;fill-opacity:1;"/>
<path d="M20.9991 40.0398C20.7407 40.0398 20.4823 39.9623 20.2497 39.7943L6.6319 30.0654C6.05049 29.652 5.92129 28.838 6.33473 28.2566C6.74818 27.6752 7.56215 27.546 8.14355 27.9595L21.7614 37.6883C22.3428 38.1018 22.472 38.9157 22.0585 39.4971C21.8001 39.846 21.4125 40.0398 21.012 40.0398H20.9991Z" fill="black" style="fill:black;fill-opacity:1;"/>
<path d="M40.2114 30.5564C39.8109 30.5564 39.4233 30.3755 39.1778 30.0396L27.989 14.9618C27.5626 14.3933 27.6789 13.5793 28.2603 13.153C28.8417 12.7266 29.6427 12.8429 30.0691 13.4243L41.2579 28.5021C41.6843 29.0706 41.568 29.8845 40.9866 30.3109C40.7541 30.4789 40.4827 30.5693 40.2243 30.5693L40.2114 30.5564Z" fill="black" style="fill:black;fill-opacity:1;"/>
</svg>
