<svg width="197" height="110" viewBox="0 0 197 110" fill="none" xmlns="http://www.w3.org/2000/svg">
<path d="M1.4683 71.8534C1.4683 71.8534 -1.35173 57.9234 7.11827 50.0134C15.5883 42.1034 22.3683 35.8934 26.1283 28.1734C29.8883 20.4534 34.0383 5.21338 51.9183 1.82338C69.7983 -1.56662 85.9883 6.3434 102.558 5.9634C119.128 5.5834 139.828 1.44338 158.838 9.35338C177.848 17.2634 181.238 33.4434 186.318 43.8034C191.398 54.1534 198.558 69.2134 194.788 81.4534C191.028 93.6934 171.448 103.663 157.518 98.9634C143.588 94.2534 114.598 90.8734 112.528 94.4434C112.528 94.4434 114.218 104.793 121.568 108.563C121.568 108.563 102.748 107.813 99.9183 97.4534C97.0983 87.1034 78.0783 98.5834 63.9683 97.2634C49.8583 95.9434 5.42831 106.673 1.47831 71.8534H1.4683Z" fill="white" style="fill:white;fill-opacity:1;"/>
<path d="M121.558 109.563C121.558 109.563 121.528 109.563 121.518 109.563C120.718 109.533 101.928 108.653 98.9483 97.7234C97.5583 92.6134 91.5183 93.7334 81.7783 95.9834C76.0583 97.3034 69.5682 98.8034 63.8682 98.2734C61.1982 98.0234 57.3283 98.2234 52.8583 98.4534C34.5083 99.3934 3.78829 100.963 0.478294 72.0234C0.278294 70.9834 -2.19175 57.3534 6.42825 49.3034L7.07827 48.7034C15.2183 41.1134 21.6383 35.1134 25.2283 27.7634C25.7183 26.7534 26.2283 25.5834 26.7683 24.3534C30.3283 16.2134 35.7183 3.90339 51.7283 0.863394C62.3183 -1.14661 72.3182 0.743406 81.9882 2.56341C89.0382 3.89341 95.7083 5.1434 102.528 4.9934C106.238 4.9134 110.138 4.63341 114.258 4.34341C128.328 3.35341 144.278 2.24339 159.218 8.45339C175.218 15.1034 180.408 27.4834 184.588 37.4234C185.478 39.5534 186.328 41.5634 187.218 43.3834C191.898 52.9034 199.718 68.8534 195.748 81.7634C193.948 87.6134 188.508 93.3334 181.208 97.0734C173.138 101.203 164.168 102.273 157.208 99.9134C150.758 97.7334 140.308 95.6534 130.578 94.6034C119.968 93.4634 114.788 94.0434 113.628 94.7534C114.058 96.7634 116.108 104.623 122.038 107.673C122.458 107.883 122.668 108.363 122.548 108.813C122.428 109.253 122.038 109.563 121.578 109.563H121.558ZM93.0383 92.1034C96.9083 92.1034 99.8182 93.3434 100.868 97.1934C102.728 104.013 112.448 106.373 117.888 107.173C112.878 102.463 111.588 94.9834 111.528 94.6034C111.488 94.3734 111.528 94.1434 111.648 93.9434C114.368 89.2434 145.398 93.8134 157.818 98.0134C164.278 100.193 172.668 99.1734 180.268 95.2834C187.108 91.7834 192.168 86.5034 193.818 81.1634C197.558 69.0034 189.948 53.5134 185.408 44.2534C184.488 42.3834 183.638 40.3434 182.728 38.1934C178.698 28.5834 173.678 16.6334 158.438 10.2934C143.928 4.26339 128.238 5.3634 114.388 6.3334C110.238 6.6234 106.328 6.89339 102.568 6.98339C95.5283 7.15339 88.4583 5.8134 81.6182 4.5234C72.1283 2.7334 62.3183 0.893386 52.0983 2.82339C37.1183 5.66339 32.1983 16.9234 28.5983 25.1434C28.0483 26.3934 27.5283 27.5834 27.0183 28.6334C23.2683 36.3234 16.7183 42.4234 8.43826 50.1634L7.78829 50.7634C-0.161708 58.1834 2.40826 71.5334 2.43826 71.6734C2.43826 71.7034 2.43826 71.7334 2.44826 71.7534C5.52826 98.8734 33.9383 97.4134 52.7483 96.4534C57.2983 96.2234 61.2282 96.0134 64.0482 96.2834C69.4182 96.7834 75.7483 95.3234 81.3183 94.0434C85.5383 93.0734 89.6483 92.1234 93.0383 92.1234V92.1034Z" fill="black" style="fill:black;fill-opacity:1;"/>
</svg>
